M48
; DRILL file {KiCad (5.1.7)-1} date 12/01/21 00:12:08
; FORMAT={-:-/ absolute / inch / decimal}
; #@! TF.CreationDate,2021-12-01T00:12:08+09:00
; #@! TF.GenerationSoftware,Kicad,Pcbnew,(5.1.7)-1
FMAT,2
INCH
T1C0.0118
T2C0.0130
T3C0.0157
T4C0.0197
T5C0.0236
T6C0.0256
T7C0.0354
T8C0.0394
T9C0.0354
%
G90
G05
T1
X4.9449Y-4.5827
X5.189Y-3.4961
X5.1969Y-4.7008
X5.2126Y-3.685
X5.2283Y-4.4567
X5.252Y-3.6299
X5.2598Y-3.8268
X5.2992Y-3.7717
X5.3465Y-3.7244
X5.3701Y-3.6142
X5.3701Y-3.685
X5.3701Y-4.0866
X5.3701Y-4.1654
X5.4094Y-3.5591
X5.4173Y-3.6929
X5.439Y-5.2677
X5.4472Y-4.0035
X5.4488Y-4.0866
X5.4488Y-4.1654
X5.4567Y-3.2992
X5.4567Y-3.685
X5.4627Y-3.8958
X5.4811Y-5.1583
X5.4882Y-3.7874
X5.4934Y-4.5775
X5.5039Y-4.1181
X5.5118Y-4.5197
X5.5142Y-5.2638
X5.5217Y-5.1654
X5.5354Y-4.8189
X5.5512Y-3.6063
X5.5669Y-4.5276
X5.5689Y-5.1575
X5.5797Y-5.3829
X5.5827Y-4.0945
X5.5906Y-3.9764
X5.5906Y-4.0551
X5.6201Y-5.2598
X5.622Y-3.6772
X5.6299Y-3.8661
X5.6299Y-4.0866
X5.6457Y-3.7874
X5.6535Y-4.0
X5.6594Y-4.6988
X5.6651Y-3.4603
X5.6673Y-3.2185
X5.6693Y-3.874
X5.685Y-3.6535
X5.7008Y-3.5354
X5.7008Y-3.7795
X5.7008Y-4.2283
X5.7087Y-4.1024
X5.7283Y-3.8543
X5.748Y-3.2913
X5.748Y-3.8189
X5.7559Y-3.5354
X5.7559Y-3.6535
X5.7559Y-4.2126
X5.7559Y-4.2598
X5.7795Y-3.6772
X5.7795Y-3.748
X5.7953Y-4.2441
X5.815Y-3.7598
X5.8782Y-4.5312
X5.9213Y-5.248
X5.9331Y-5.1535
X5.9417Y-3.261
X5.9449Y-3.7165
X5.9744Y-5.3807
X5.9803Y-3.7835
X5.981Y-3.9009
X5.9882Y-3.6969
X5.9921Y-4.0866
X5.9961Y-4.3189
X6.0039Y-3.8386
X6.0079Y-5.1535
X6.0285Y-4.6978
X6.0472Y-3.5039
X6.0512Y-4.2638
X6.063Y-4.1654
X6.0632Y-5.201
X6.065Y-5.2791
X6.0709Y-4.0866
X6.0866Y-5.1654
X6.1066Y-4.6966
X6.1102Y-3.7165
X6.1339Y-4.6457
X6.1575Y-3.5906
X6.1732Y-3.7323
X6.2047Y-3.9291
X6.2126Y-4.6614
X6.2126Y-4.6614
X6.2205Y-4.5669
X6.2362Y-3.3937
X6.2362Y-3.6142
X6.3214Y-4.466
X6.3701Y-4.7874
X6.4646Y-4.4488
T2
X6.0157Y-5.2835
T3
X5.5548Y-4.2956
X5.6717Y-4.2969
T4
X5.5827Y-4.189
X5.8465Y-4.189
X5.4961Y-4.189
X5.9252Y-4.189
T5
X5.0463Y-4.5148
X5.0955Y-4.5148
T6
X6.8327Y-4.377
X6.8327Y-4.427
X6.8327Y-4.477
X6.8327Y-4.527
X6.8327Y-4.577
X6.8327Y-4.627
X5.6528Y-4.8028
X5.7028Y-4.8028
X5.7528Y-4.8028
X5.8028Y-4.8028
X5.8528Y-4.8028
X5.9028Y-4.8028
T7
X6.3134Y-3.6619
X6.4134Y-3.6654
X5.5602Y-3.4921
X5.6102Y-3.4055
X5.4972Y-3.4527
X5.5472Y-3.3661
X5.03Y-3.7397
X5.1299Y-3.7362
X5.8909Y-3.3662
X5.9409Y-3.4528
X5.026Y-3.6649
X5.126Y-3.6614
X5.828Y-3.4055
X5.878Y-3.4921
X6.3095Y-3.7367
X6.4094Y-3.7402
T8
X7.2244Y-4.6063
X7.2244Y-4.7063
X7.2244Y-4.8063
X7.2244Y-4.9063
X7.2343Y-4.0945
X7.2343Y-4.1945
X7.2343Y-4.2945
X7.2343Y-4.3945
T9
X5.2886Y-4.7528
X5.4067Y-4.7528
T0
M30
