G04 #@! TF.GenerationSoftware,KiCad,Pcbnew,(5.1.7)-1*
G04 #@! TF.CreationDate,2021-12-01T00:11:57+09:00*
G04 #@! TF.ProjectId,lapis,6c617069-732e-46b6-9963-61645f706362,rev?*
G04 #@! TF.SameCoordinates,Original*
G04 #@! TF.FileFunction,Soldermask,Top*
G04 #@! TF.FilePolarity,Negative*
%FSLAX46Y46*%
G04 Gerber Fmt 4.6, Leading zero omitted, Abs format (unit mm)*
G04 Created by KiCad (PCBNEW (5.1.7)-1) date 2021-12-01 00:11:57*
%MOMM*%
%LPD*%
G01*
G04 APERTURE LIST*
%ADD10O,1.700000X1.700000*%
%ADD11R,1.700000X1.700000*%
%ADD12O,1.000000X1.000000*%
%ADD13R,1.000000X1.000000*%
%ADD14C,1.000000*%
%ADD15R,1.060000X0.650000*%
%ADD16R,0.650000X1.050000*%
%ADD17C,1.500000*%
%ADD18R,0.800000X0.900000*%
%ADD19R,1.600000X1.000000*%
%ADD20O,0.900000X1.400000*%
%ADD21R,0.450000X1.000000*%
%ADD22R,0.250000X0.500000*%
%ADD23R,0.600000X1.200000*%
%ADD24R,0.700000X1.500000*%
G04 APERTURE END LIST*
G36*
G01*
X158300000Y-119610000D02*
X158100000Y-119610000D01*
G75*
G02*
X158000000Y-119510000I0J100000D01*
G01*
X158000000Y-119075000D01*
G75*
G02*
X158100000Y-118975000I100000J0D01*
G01*
X158300000Y-118975000D01*
G75*
G02*
X158400000Y-119075000I0J-100000D01*
G01*
X158400000Y-119510000D01*
G75*
G02*
X158300000Y-119610000I-100000J0D01*
G01*
G37*
G36*
G01*
X158300000Y-120425000D02*
X158100000Y-120425000D01*
G75*
G02*
X158000000Y-120325000I0J100000D01*
G01*
X158000000Y-119890000D01*
G75*
G02*
X158100000Y-119790000I100000J0D01*
G01*
X158300000Y-119790000D01*
G75*
G02*
X158400000Y-119890000I0J-100000D01*
G01*
X158400000Y-120325000D01*
G75*
G02*
X158300000Y-120425000I-100000J0D01*
G01*
G37*
G36*
G01*
X156400000Y-119610000D02*
X156200000Y-119610000D01*
G75*
G02*
X156100000Y-119510000I0J100000D01*
G01*
X156100000Y-119075000D01*
G75*
G02*
X156200000Y-118975000I100000J0D01*
G01*
X156400000Y-118975000D01*
G75*
G02*
X156500000Y-119075000I0J-100000D01*
G01*
X156500000Y-119510000D01*
G75*
G02*
X156400000Y-119610000I-100000J0D01*
G01*
G37*
G36*
G01*
X156400000Y-120425000D02*
X156200000Y-120425000D01*
G75*
G02*
X156100000Y-120325000I0J100000D01*
G01*
X156100000Y-119890000D01*
G75*
G02*
X156200000Y-119790000I100000J0D01*
G01*
X156400000Y-119790000D01*
G75*
G02*
X156500000Y-119890000I0J-100000D01*
G01*
X156500000Y-120325000D01*
G75*
G02*
X156400000Y-120425000I-100000J0D01*
G01*
G37*
G36*
G01*
X154500000Y-119610000D02*
X154300000Y-119610000D01*
G75*
G02*
X154200000Y-119510000I0J100000D01*
G01*
X154200000Y-119075000D01*
G75*
G02*
X154300000Y-118975000I100000J0D01*
G01*
X154500000Y-118975000D01*
G75*
G02*
X154600000Y-119075000I0J-100000D01*
G01*
X154600000Y-119510000D01*
G75*
G02*
X154500000Y-119610000I-100000J0D01*
G01*
G37*
G36*
G01*
X154500000Y-120425000D02*
X154300000Y-120425000D01*
G75*
G02*
X154200000Y-120325000I0J100000D01*
G01*
X154200000Y-119890000D01*
G75*
G02*
X154300000Y-119790000I100000J0D01*
G01*
X154500000Y-119790000D01*
G75*
G02*
X154600000Y-119890000I0J-100000D01*
G01*
X154600000Y-120325000D01*
G75*
G02*
X154500000Y-120425000I-100000J0D01*
G01*
G37*
G36*
G01*
X152500000Y-119642500D02*
X152300000Y-119642500D01*
G75*
G02*
X152200000Y-119542500I0J100000D01*
G01*
X152200000Y-119107500D01*
G75*
G02*
X152300000Y-119007500I100000J0D01*
G01*
X152500000Y-119007500D01*
G75*
G02*
X152600000Y-119107500I0J-100000D01*
G01*
X152600000Y-119542500D01*
G75*
G02*
X152500000Y-119642500I-100000J0D01*
G01*
G37*
G36*
G01*
X152500000Y-120457500D02*
X152300000Y-120457500D01*
G75*
G02*
X152200000Y-120357500I0J100000D01*
G01*
X152200000Y-119922500D01*
G75*
G02*
X152300000Y-119822500I100000J0D01*
G01*
X152500000Y-119822500D01*
G75*
G02*
X152600000Y-119922500I0J-100000D01*
G01*
X152600000Y-120357500D01*
G75*
G02*
X152500000Y-120457500I-100000J0D01*
G01*
G37*
G36*
G01*
X142350000Y-92110000D02*
X142350000Y-90785000D01*
G75*
G02*
X142425000Y-90710000I75000J0D01*
G01*
X142575000Y-90710000D01*
G75*
G02*
X142650000Y-90785000I0J-75000D01*
G01*
X142650000Y-92110000D01*
G75*
G02*
X142575000Y-92185000I-75000J0D01*
G01*
X142425000Y-92185000D01*
G75*
G02*
X142350000Y-92110000I0J75000D01*
G01*
G37*
G36*
G01*
X142850000Y-92110000D02*
X142850000Y-90785000D01*
G75*
G02*
X142925000Y-90710000I75000J0D01*
G01*
X143075000Y-90710000D01*
G75*
G02*
X143150000Y-90785000I0J-75000D01*
G01*
X143150000Y-92110000D01*
G75*
G02*
X143075000Y-92185000I-75000J0D01*
G01*
X142925000Y-92185000D01*
G75*
G02*
X142850000Y-92110000I0J75000D01*
G01*
G37*
G36*
G01*
X143350000Y-92110000D02*
X143350000Y-90785000D01*
G75*
G02*
X143425000Y-90710000I75000J0D01*
G01*
X143575000Y-90710000D01*
G75*
G02*
X143650000Y-90785000I0J-75000D01*
G01*
X143650000Y-92110000D01*
G75*
G02*
X143575000Y-92185000I-75000J0D01*
G01*
X143425000Y-92185000D01*
G75*
G02*
X143350000Y-92110000I0J75000D01*
G01*
G37*
G36*
G01*
X143850000Y-92110000D02*
X143850000Y-90785000D01*
G75*
G02*
X143925000Y-90710000I75000J0D01*
G01*
X144075000Y-90710000D01*
G75*
G02*
X144150000Y-90785000I0J-75000D01*
G01*
X144150000Y-92110000D01*
G75*
G02*
X144075000Y-92185000I-75000J0D01*
G01*
X143925000Y-92185000D01*
G75*
G02*
X143850000Y-92110000I0J75000D01*
G01*
G37*
G36*
G01*
X144350000Y-92110000D02*
X144350000Y-90785000D01*
G75*
G02*
X144425000Y-90710000I75000J0D01*
G01*
X144575000Y-90710000D01*
G75*
G02*
X144650000Y-90785000I0J-75000D01*
G01*
X144650000Y-92110000D01*
G75*
G02*
X144575000Y-92185000I-75000J0D01*
G01*
X144425000Y-92185000D01*
G75*
G02*
X144350000Y-92110000I0J75000D01*
G01*
G37*
G36*
G01*
X144850000Y-92110000D02*
X144850000Y-90785000D01*
G75*
G02*
X144925000Y-90710000I75000J0D01*
G01*
X145075000Y-90710000D01*
G75*
G02*
X145150000Y-90785000I0J-75000D01*
G01*
X145150000Y-92110000D01*
G75*
G02*
X145075000Y-92185000I-75000J0D01*
G01*
X144925000Y-92185000D01*
G75*
G02*
X144850000Y-92110000I0J75000D01*
G01*
G37*
G36*
G01*
X145350000Y-92110000D02*
X145350000Y-90785000D01*
G75*
G02*
X145425000Y-90710000I75000J0D01*
G01*
X145575000Y-90710000D01*
G75*
G02*
X145650000Y-90785000I0J-75000D01*
G01*
X145650000Y-92110000D01*
G75*
G02*
X145575000Y-92185000I-75000J0D01*
G01*
X145425000Y-92185000D01*
G75*
G02*
X145350000Y-92110000I0J75000D01*
G01*
G37*
G36*
G01*
X145850000Y-92110000D02*
X145850000Y-90785000D01*
G75*
G02*
X145925000Y-90710000I75000J0D01*
G01*
X146075000Y-90710000D01*
G75*
G02*
X146150000Y-90785000I0J-75000D01*
G01*
X146150000Y-92110000D01*
G75*
G02*
X146075000Y-92185000I-75000J0D01*
G01*
X145925000Y-92185000D01*
G75*
G02*
X145850000Y-92110000I0J75000D01*
G01*
G37*
G36*
G01*
X146350000Y-92110000D02*
X146350000Y-90785000D01*
G75*
G02*
X146425000Y-90710000I75000J0D01*
G01*
X146575000Y-90710000D01*
G75*
G02*
X146650000Y-90785000I0J-75000D01*
G01*
X146650000Y-92110000D01*
G75*
G02*
X146575000Y-92185000I-75000J0D01*
G01*
X146425000Y-92185000D01*
G75*
G02*
X146350000Y-92110000I0J75000D01*
G01*
G37*
G36*
G01*
X146850000Y-92110000D02*
X146850000Y-90785000D01*
G75*
G02*
X146925000Y-90710000I75000J0D01*
G01*
X147075000Y-90710000D01*
G75*
G02*
X147150000Y-90785000I0J-75000D01*
G01*
X147150000Y-92110000D01*
G75*
G02*
X147075000Y-92185000I-75000J0D01*
G01*
X146925000Y-92185000D01*
G75*
G02*
X146850000Y-92110000I0J75000D01*
G01*
G37*
G36*
G01*
X147350000Y-92110000D02*
X147350000Y-90785000D01*
G75*
G02*
X147425000Y-90710000I75000J0D01*
G01*
X147575000Y-90710000D01*
G75*
G02*
X147650000Y-90785000I0J-75000D01*
G01*
X147650000Y-92110000D01*
G75*
G02*
X147575000Y-92185000I-75000J0D01*
G01*
X147425000Y-92185000D01*
G75*
G02*
X147350000Y-92110000I0J75000D01*
G01*
G37*
G36*
G01*
X147850000Y-92110000D02*
X147850000Y-90785000D01*
G75*
G02*
X147925000Y-90710000I75000J0D01*
G01*
X148075000Y-90710000D01*
G75*
G02*
X148150000Y-90785000I0J-75000D01*
G01*
X148150000Y-92110000D01*
G75*
G02*
X148075000Y-92185000I-75000J0D01*
G01*
X147925000Y-92185000D01*
G75*
G02*
X147850000Y-92110000I0J75000D01*
G01*
G37*
G36*
G01*
X148675000Y-92935000D02*
X148675000Y-92785000D01*
G75*
G02*
X148750000Y-92710000I75000J0D01*
G01*
X150075000Y-92710000D01*
G75*
G02*
X150150000Y-92785000I0J-75000D01*
G01*
X150150000Y-92935000D01*
G75*
G02*
X150075000Y-93010000I-75000J0D01*
G01*
X148750000Y-93010000D01*
G75*
G02*
X148675000Y-92935000I0J75000D01*
G01*
G37*
G36*
G01*
X148675000Y-93435000D02*
X148675000Y-93285000D01*
G75*
G02*
X148750000Y-93210000I75000J0D01*
G01*
X150075000Y-93210000D01*
G75*
G02*
X150150000Y-93285000I0J-75000D01*
G01*
X150150000Y-93435000D01*
G75*
G02*
X150075000Y-93510000I-75000J0D01*
G01*
X148750000Y-93510000D01*
G75*
G02*
X148675000Y-93435000I0J75000D01*
G01*
G37*
G36*
G01*
X148675000Y-93935000D02*
X148675000Y-93785000D01*
G75*
G02*
X148750000Y-93710000I75000J0D01*
G01*
X150075000Y-93710000D01*
G75*
G02*
X150150000Y-93785000I0J-75000D01*
G01*
X150150000Y-93935000D01*
G75*
G02*
X150075000Y-94010000I-75000J0D01*
G01*
X148750000Y-94010000D01*
G75*
G02*
X148675000Y-93935000I0J75000D01*
G01*
G37*
G36*
G01*
X148675000Y-94435000D02*
X148675000Y-94285000D01*
G75*
G02*
X148750000Y-94210000I75000J0D01*
G01*
X150075000Y-94210000D01*
G75*
G02*
X150150000Y-94285000I0J-75000D01*
G01*
X150150000Y-94435000D01*
G75*
G02*
X150075000Y-94510000I-75000J0D01*
G01*
X148750000Y-94510000D01*
G75*
G02*
X148675000Y-94435000I0J75000D01*
G01*
G37*
G36*
G01*
X148675000Y-94935000D02*
X148675000Y-94785000D01*
G75*
G02*
X148750000Y-94710000I75000J0D01*
G01*
X150075000Y-94710000D01*
G75*
G02*
X150150000Y-94785000I0J-75000D01*
G01*
X150150000Y-94935000D01*
G75*
G02*
X150075000Y-95010000I-75000J0D01*
G01*
X148750000Y-95010000D01*
G75*
G02*
X148675000Y-94935000I0J75000D01*
G01*
G37*
G36*
G01*
X148675000Y-95435000D02*
X148675000Y-95285000D01*
G75*
G02*
X148750000Y-95210000I75000J0D01*
G01*
X150075000Y-95210000D01*
G75*
G02*
X150150000Y-95285000I0J-75000D01*
G01*
X150150000Y-95435000D01*
G75*
G02*
X150075000Y-95510000I-75000J0D01*
G01*
X148750000Y-95510000D01*
G75*
G02*
X148675000Y-95435000I0J75000D01*
G01*
G37*
G36*
G01*
X148675000Y-95935000D02*
X148675000Y-95785000D01*
G75*
G02*
X148750000Y-95710000I75000J0D01*
G01*
X150075000Y-95710000D01*
G75*
G02*
X150150000Y-95785000I0J-75000D01*
G01*
X150150000Y-95935000D01*
G75*
G02*
X150075000Y-96010000I-75000J0D01*
G01*
X148750000Y-96010000D01*
G75*
G02*
X148675000Y-95935000I0J75000D01*
G01*
G37*
G36*
G01*
X148675000Y-96435000D02*
X148675000Y-96285000D01*
G75*
G02*
X148750000Y-96210000I75000J0D01*
G01*
X150075000Y-96210000D01*
G75*
G02*
X150150000Y-96285000I0J-75000D01*
G01*
X150150000Y-96435000D01*
G75*
G02*
X150075000Y-96510000I-75000J0D01*
G01*
X148750000Y-96510000D01*
G75*
G02*
X148675000Y-96435000I0J75000D01*
G01*
G37*
G36*
G01*
X148675000Y-96935000D02*
X148675000Y-96785000D01*
G75*
G02*
X148750000Y-96710000I75000J0D01*
G01*
X150075000Y-96710000D01*
G75*
G02*
X150150000Y-96785000I0J-75000D01*
G01*
X150150000Y-96935000D01*
G75*
G02*
X150075000Y-97010000I-75000J0D01*
G01*
X148750000Y-97010000D01*
G75*
G02*
X148675000Y-96935000I0J75000D01*
G01*
G37*
G36*
G01*
X148675000Y-97435000D02*
X148675000Y-97285000D01*
G75*
G02*
X148750000Y-97210000I75000J0D01*
G01*
X150075000Y-97210000D01*
G75*
G02*
X150150000Y-97285000I0J-75000D01*
G01*
X150150000Y-97435000D01*
G75*
G02*
X150075000Y-97510000I-75000J0D01*
G01*
X148750000Y-97510000D01*
G75*
G02*
X148675000Y-97435000I0J75000D01*
G01*
G37*
G36*
G01*
X148675000Y-97935000D02*
X148675000Y-97785000D01*
G75*
G02*
X148750000Y-97710000I75000J0D01*
G01*
X150075000Y-97710000D01*
G75*
G02*
X150150000Y-97785000I0J-75000D01*
G01*
X150150000Y-97935000D01*
G75*
G02*
X150075000Y-98010000I-75000J0D01*
G01*
X148750000Y-98010000D01*
G75*
G02*
X148675000Y-97935000I0J75000D01*
G01*
G37*
G36*
G01*
X148675000Y-98435000D02*
X148675000Y-98285000D01*
G75*
G02*
X148750000Y-98210000I75000J0D01*
G01*
X150075000Y-98210000D01*
G75*
G02*
X150150000Y-98285000I0J-75000D01*
G01*
X150150000Y-98435000D01*
G75*
G02*
X150075000Y-98510000I-75000J0D01*
G01*
X148750000Y-98510000D01*
G75*
G02*
X148675000Y-98435000I0J75000D01*
G01*
G37*
G36*
G01*
X147850000Y-100435000D02*
X147850000Y-99110000D01*
G75*
G02*
X147925000Y-99035000I75000J0D01*
G01*
X148075000Y-99035000D01*
G75*
G02*
X148150000Y-99110000I0J-75000D01*
G01*
X148150000Y-100435000D01*
G75*
G02*
X148075000Y-100510000I-75000J0D01*
G01*
X147925000Y-100510000D01*
G75*
G02*
X147850000Y-100435000I0J75000D01*
G01*
G37*
G36*
G01*
X147350000Y-100435000D02*
X147350000Y-99110000D01*
G75*
G02*
X147425000Y-99035000I75000J0D01*
G01*
X147575000Y-99035000D01*
G75*
G02*
X147650000Y-99110000I0J-75000D01*
G01*
X147650000Y-100435000D01*
G75*
G02*
X147575000Y-100510000I-75000J0D01*
G01*
X147425000Y-100510000D01*
G75*
G02*
X147350000Y-100435000I0J75000D01*
G01*
G37*
G36*
G01*
X146850000Y-100435000D02*
X146850000Y-99110000D01*
G75*
G02*
X146925000Y-99035000I75000J0D01*
G01*
X147075000Y-99035000D01*
G75*
G02*
X147150000Y-99110000I0J-75000D01*
G01*
X147150000Y-100435000D01*
G75*
G02*
X147075000Y-100510000I-75000J0D01*
G01*
X146925000Y-100510000D01*
G75*
G02*
X146850000Y-100435000I0J75000D01*
G01*
G37*
G36*
G01*
X146350000Y-100435000D02*
X146350000Y-99110000D01*
G75*
G02*
X146425000Y-99035000I75000J0D01*
G01*
X146575000Y-99035000D01*
G75*
G02*
X146650000Y-99110000I0J-75000D01*
G01*
X146650000Y-100435000D01*
G75*
G02*
X146575000Y-100510000I-75000J0D01*
G01*
X146425000Y-100510000D01*
G75*
G02*
X146350000Y-100435000I0J75000D01*
G01*
G37*
G36*
G01*
X145850000Y-100435000D02*
X145850000Y-99110000D01*
G75*
G02*
X145925000Y-99035000I75000J0D01*
G01*
X146075000Y-99035000D01*
G75*
G02*
X146150000Y-99110000I0J-75000D01*
G01*
X146150000Y-100435000D01*
G75*
G02*
X146075000Y-100510000I-75000J0D01*
G01*
X145925000Y-100510000D01*
G75*
G02*
X145850000Y-100435000I0J75000D01*
G01*
G37*
G36*
G01*
X145350000Y-100435000D02*
X145350000Y-99110000D01*
G75*
G02*
X145425000Y-99035000I75000J0D01*
G01*
X145575000Y-99035000D01*
G75*
G02*
X145650000Y-99110000I0J-75000D01*
G01*
X145650000Y-100435000D01*
G75*
G02*
X145575000Y-100510000I-75000J0D01*
G01*
X145425000Y-100510000D01*
G75*
G02*
X145350000Y-100435000I0J75000D01*
G01*
G37*
G36*
G01*
X144850000Y-100435000D02*
X144850000Y-99110000D01*
G75*
G02*
X144925000Y-99035000I75000J0D01*
G01*
X145075000Y-99035000D01*
G75*
G02*
X145150000Y-99110000I0J-75000D01*
G01*
X145150000Y-100435000D01*
G75*
G02*
X145075000Y-100510000I-75000J0D01*
G01*
X144925000Y-100510000D01*
G75*
G02*
X144850000Y-100435000I0J75000D01*
G01*
G37*
G36*
G01*
X144350000Y-100435000D02*
X144350000Y-99110000D01*
G75*
G02*
X144425000Y-99035000I75000J0D01*
G01*
X144575000Y-99035000D01*
G75*
G02*
X144650000Y-99110000I0J-75000D01*
G01*
X144650000Y-100435000D01*
G75*
G02*
X144575000Y-100510000I-75000J0D01*
G01*
X144425000Y-100510000D01*
G75*
G02*
X144350000Y-100435000I0J75000D01*
G01*
G37*
G36*
G01*
X143850000Y-100435000D02*
X143850000Y-99110000D01*
G75*
G02*
X143925000Y-99035000I75000J0D01*
G01*
X144075000Y-99035000D01*
G75*
G02*
X144150000Y-99110000I0J-75000D01*
G01*
X144150000Y-100435000D01*
G75*
G02*
X144075000Y-100510000I-75000J0D01*
G01*
X143925000Y-100510000D01*
G75*
G02*
X143850000Y-100435000I0J75000D01*
G01*
G37*
G36*
G01*
X143350000Y-100435000D02*
X143350000Y-99110000D01*
G75*
G02*
X143425000Y-99035000I75000J0D01*
G01*
X143575000Y-99035000D01*
G75*
G02*
X143650000Y-99110000I0J-75000D01*
G01*
X143650000Y-100435000D01*
G75*
G02*
X143575000Y-100510000I-75000J0D01*
G01*
X143425000Y-100510000D01*
G75*
G02*
X143350000Y-100435000I0J75000D01*
G01*
G37*
G36*
G01*
X142850000Y-100435000D02*
X142850000Y-99110000D01*
G75*
G02*
X142925000Y-99035000I75000J0D01*
G01*
X143075000Y-99035000D01*
G75*
G02*
X143150000Y-99110000I0J-75000D01*
G01*
X143150000Y-100435000D01*
G75*
G02*
X143075000Y-100510000I-75000J0D01*
G01*
X142925000Y-100510000D01*
G75*
G02*
X142850000Y-100435000I0J75000D01*
G01*
G37*
G36*
G01*
X142350000Y-100435000D02*
X142350000Y-99110000D01*
G75*
G02*
X142425000Y-99035000I75000J0D01*
G01*
X142575000Y-99035000D01*
G75*
G02*
X142650000Y-99110000I0J-75000D01*
G01*
X142650000Y-100435000D01*
G75*
G02*
X142575000Y-100510000I-75000J0D01*
G01*
X142425000Y-100510000D01*
G75*
G02*
X142350000Y-100435000I0J75000D01*
G01*
G37*
G36*
G01*
X140350000Y-98435000D02*
X140350000Y-98285000D01*
G75*
G02*
X140425000Y-98210000I75000J0D01*
G01*
X141750000Y-98210000D01*
G75*
G02*
X141825000Y-98285000I0J-75000D01*
G01*
X141825000Y-98435000D01*
G75*
G02*
X141750000Y-98510000I-75000J0D01*
G01*
X140425000Y-98510000D01*
G75*
G02*
X140350000Y-98435000I0J75000D01*
G01*
G37*
G36*
G01*
X140350000Y-97935000D02*
X140350000Y-97785000D01*
G75*
G02*
X140425000Y-97710000I75000J0D01*
G01*
X141750000Y-97710000D01*
G75*
G02*
X141825000Y-97785000I0J-75000D01*
G01*
X141825000Y-97935000D01*
G75*
G02*
X141750000Y-98010000I-75000J0D01*
G01*
X140425000Y-98010000D01*
G75*
G02*
X140350000Y-97935000I0J75000D01*
G01*
G37*
G36*
G01*
X140350000Y-97435000D02*
X140350000Y-97285000D01*
G75*
G02*
X140425000Y-97210000I75000J0D01*
G01*
X141750000Y-97210000D01*
G75*
G02*
X141825000Y-97285000I0J-75000D01*
G01*
X141825000Y-97435000D01*
G75*
G02*
X141750000Y-97510000I-75000J0D01*
G01*
X140425000Y-97510000D01*
G75*
G02*
X140350000Y-97435000I0J75000D01*
G01*
G37*
G36*
G01*
X140350000Y-96935000D02*
X140350000Y-96785000D01*
G75*
G02*
X140425000Y-96710000I75000J0D01*
G01*
X141750000Y-96710000D01*
G75*
G02*
X141825000Y-96785000I0J-75000D01*
G01*
X141825000Y-96935000D01*
G75*
G02*
X141750000Y-97010000I-75000J0D01*
G01*
X140425000Y-97010000D01*
G75*
G02*
X140350000Y-96935000I0J75000D01*
G01*
G37*
G36*
G01*
X140350000Y-96435000D02*
X140350000Y-96285000D01*
G75*
G02*
X140425000Y-96210000I75000J0D01*
G01*
X141750000Y-96210000D01*
G75*
G02*
X141825000Y-96285000I0J-75000D01*
G01*
X141825000Y-96435000D01*
G75*
G02*
X141750000Y-96510000I-75000J0D01*
G01*
X140425000Y-96510000D01*
G75*
G02*
X140350000Y-96435000I0J75000D01*
G01*
G37*
G36*
G01*
X140350000Y-95935000D02*
X140350000Y-95785000D01*
G75*
G02*
X140425000Y-95710000I75000J0D01*
G01*
X141750000Y-95710000D01*
G75*
G02*
X141825000Y-95785000I0J-75000D01*
G01*
X141825000Y-95935000D01*
G75*
G02*
X141750000Y-96010000I-75000J0D01*
G01*
X140425000Y-96010000D01*
G75*
G02*
X140350000Y-95935000I0J75000D01*
G01*
G37*
G36*
G01*
X140350000Y-95435000D02*
X140350000Y-95285000D01*
G75*
G02*
X140425000Y-95210000I75000J0D01*
G01*
X141750000Y-95210000D01*
G75*
G02*
X141825000Y-95285000I0J-75000D01*
G01*
X141825000Y-95435000D01*
G75*
G02*
X141750000Y-95510000I-75000J0D01*
G01*
X140425000Y-95510000D01*
G75*
G02*
X140350000Y-95435000I0J75000D01*
G01*
G37*
G36*
G01*
X140350000Y-94935000D02*
X140350000Y-94785000D01*
G75*
G02*
X140425000Y-94710000I75000J0D01*
G01*
X141750000Y-94710000D01*
G75*
G02*
X141825000Y-94785000I0J-75000D01*
G01*
X141825000Y-94935000D01*
G75*
G02*
X141750000Y-95010000I-75000J0D01*
G01*
X140425000Y-95010000D01*
G75*
G02*
X140350000Y-94935000I0J75000D01*
G01*
G37*
G36*
G01*
X140350000Y-94435000D02*
X140350000Y-94285000D01*
G75*
G02*
X140425000Y-94210000I75000J0D01*
G01*
X141750000Y-94210000D01*
G75*
G02*
X141825000Y-94285000I0J-75000D01*
G01*
X141825000Y-94435000D01*
G75*
G02*
X141750000Y-94510000I-75000J0D01*
G01*
X140425000Y-94510000D01*
G75*
G02*
X140350000Y-94435000I0J75000D01*
G01*
G37*
G36*
G01*
X140350000Y-93935000D02*
X140350000Y-93785000D01*
G75*
G02*
X140425000Y-93710000I75000J0D01*
G01*
X141750000Y-93710000D01*
G75*
G02*
X141825000Y-93785000I0J-75000D01*
G01*
X141825000Y-93935000D01*
G75*
G02*
X141750000Y-94010000I-75000J0D01*
G01*
X140425000Y-94010000D01*
G75*
G02*
X140350000Y-93935000I0J75000D01*
G01*
G37*
G36*
G01*
X140350000Y-93435000D02*
X140350000Y-93285000D01*
G75*
G02*
X140425000Y-93210000I75000J0D01*
G01*
X141750000Y-93210000D01*
G75*
G02*
X141825000Y-93285000I0J-75000D01*
G01*
X141825000Y-93435000D01*
G75*
G02*
X141750000Y-93510000I-75000J0D01*
G01*
X140425000Y-93510000D01*
G75*
G02*
X140350000Y-93435000I0J75000D01*
G01*
G37*
G36*
G01*
X140350000Y-92935000D02*
X140350000Y-92785000D01*
G75*
G02*
X140425000Y-92710000I75000J0D01*
G01*
X141750000Y-92710000D01*
G75*
G02*
X141825000Y-92785000I0J-75000D01*
G01*
X141825000Y-92935000D01*
G75*
G02*
X141750000Y-93010000I-75000J0D01*
G01*
X140425000Y-93010000D01*
G75*
G02*
X140350000Y-92935000I0J75000D01*
G01*
G37*
G36*
G01*
X149697500Y-100700000D02*
X149697500Y-100500000D01*
G75*
G02*
X149797500Y-100400000I100000J0D01*
G01*
X150232500Y-100400000D01*
G75*
G02*
X150332500Y-100500000I0J-100000D01*
G01*
X150332500Y-100700000D01*
G75*
G02*
X150232500Y-100800000I-100000J0D01*
G01*
X149797500Y-100800000D01*
G75*
G02*
X149697500Y-100700000I0J100000D01*
G01*
G37*
G36*
G01*
X148882500Y-100700000D02*
X148882500Y-100500000D01*
G75*
G02*
X148982500Y-100400000I100000J0D01*
G01*
X149417500Y-100400000D01*
G75*
G02*
X149517500Y-100500000I0J-100000D01*
G01*
X149517500Y-100700000D01*
G75*
G02*
X149417500Y-100800000I-100000J0D01*
G01*
X148982500Y-100800000D01*
G75*
G02*
X148882500Y-100700000I0J100000D01*
G01*
G37*
D10*
X183500000Y-124620000D03*
X183500000Y-122080000D03*
X183500000Y-119540000D03*
D11*
X183500000Y-117000000D03*
D10*
X183750000Y-111620000D03*
X183750000Y-109080000D03*
X183750000Y-106540000D03*
D11*
X183750000Y-104000000D03*
D12*
X173550000Y-117525000D03*
X173550000Y-116255000D03*
X173550000Y-114985000D03*
X173550000Y-113715000D03*
X173550000Y-112445000D03*
D13*
X173550000Y-111175000D03*
G36*
G01*
X140110000Y-102700000D02*
X140110000Y-102900000D01*
G75*
G02*
X140010000Y-103000000I-100000J0D01*
G01*
X139575000Y-103000000D01*
G75*
G02*
X139475000Y-102900000I0J100000D01*
G01*
X139475000Y-102700000D01*
G75*
G02*
X139575000Y-102600000I100000J0D01*
G01*
X140010000Y-102600000D01*
G75*
G02*
X140110000Y-102700000I0J-100000D01*
G01*
G37*
G36*
G01*
X140925000Y-102700000D02*
X140925000Y-102900000D01*
G75*
G02*
X140825000Y-103000000I-100000J0D01*
G01*
X140390000Y-103000000D01*
G75*
G02*
X140290000Y-102900000I0J100000D01*
G01*
X140290000Y-102700000D01*
G75*
G02*
X140390000Y-102600000I100000J0D01*
G01*
X140825000Y-102600000D01*
G75*
G02*
X140925000Y-102700000I0J-100000D01*
G01*
G37*
X143580000Y-121990000D03*
D12*
X144850000Y-121990000D03*
X146120000Y-121990000D03*
X147390000Y-121990000D03*
X148660000Y-121990000D03*
X149930000Y-121990000D03*
G36*
G01*
X145110000Y-101500000D02*
X145110000Y-101700000D01*
G75*
G02*
X145010000Y-101800000I-100000J0D01*
G01*
X144575000Y-101800000D01*
G75*
G02*
X144475000Y-101700000I0J100000D01*
G01*
X144475000Y-101500000D01*
G75*
G02*
X144575000Y-101400000I100000J0D01*
G01*
X145010000Y-101400000D01*
G75*
G02*
X145110000Y-101500000I0J-100000D01*
G01*
G37*
G36*
G01*
X145925000Y-101500000D02*
X145925000Y-101700000D01*
G75*
G02*
X145825000Y-101800000I-100000J0D01*
G01*
X145390000Y-101800000D01*
G75*
G02*
X145290000Y-101700000I0J100000D01*
G01*
X145290000Y-101500000D01*
G75*
G02*
X145390000Y-101400000I100000J0D01*
G01*
X145825000Y-101400000D01*
G75*
G02*
X145925000Y-101500000I0J-100000D01*
G01*
G37*
G36*
G01*
X138910000Y-92700000D02*
X138910000Y-92900000D01*
G75*
G02*
X138810000Y-93000000I-100000J0D01*
G01*
X138375000Y-93000000D01*
G75*
G02*
X138275000Y-92900000I0J100000D01*
G01*
X138275000Y-92700000D01*
G75*
G02*
X138375000Y-92600000I100000J0D01*
G01*
X138810000Y-92600000D01*
G75*
G02*
X138910000Y-92700000I0J-100000D01*
G01*
G37*
G36*
G01*
X139725000Y-92700000D02*
X139725000Y-92900000D01*
G75*
G02*
X139625000Y-93000000I-100000J0D01*
G01*
X139190000Y-93000000D01*
G75*
G02*
X139090000Y-92900000I0J100000D01*
G01*
X139090000Y-92700000D01*
G75*
G02*
X139190000Y-92600000I100000J0D01*
G01*
X139625000Y-92600000D01*
G75*
G02*
X139725000Y-92700000I0J-100000D01*
G01*
G37*
G36*
G01*
X147090000Y-101700000D02*
X147090000Y-101500000D01*
G75*
G02*
X147190000Y-101400000I100000J0D01*
G01*
X147625000Y-101400000D01*
G75*
G02*
X147725000Y-101500000I0J-100000D01*
G01*
X147725000Y-101700000D01*
G75*
G02*
X147625000Y-101800000I-100000J0D01*
G01*
X147190000Y-101800000D01*
G75*
G02*
X147090000Y-101700000I0J100000D01*
G01*
G37*
G36*
G01*
X146275000Y-101700000D02*
X146275000Y-101500000D01*
G75*
G02*
X146375000Y-101400000I100000J0D01*
G01*
X146810000Y-101400000D01*
G75*
G02*
X146910000Y-101500000I0J-100000D01*
G01*
X146910000Y-101700000D01*
G75*
G02*
X146810000Y-101800000I-100000J0D01*
G01*
X146375000Y-101800000D01*
G75*
G02*
X146275000Y-101700000I0J100000D01*
G01*
G37*
G36*
G01*
X151690000Y-92900000D02*
X151690000Y-92700000D01*
G75*
G02*
X151790000Y-92600000I100000J0D01*
G01*
X152225000Y-92600000D01*
G75*
G02*
X152325000Y-92700000I0J-100000D01*
G01*
X152325000Y-92900000D01*
G75*
G02*
X152225000Y-93000000I-100000J0D01*
G01*
X151790000Y-93000000D01*
G75*
G02*
X151690000Y-92900000I0J100000D01*
G01*
G37*
G36*
G01*
X150875000Y-92900000D02*
X150875000Y-92700000D01*
G75*
G02*
X150975000Y-92600000I100000J0D01*
G01*
X151410000Y-92600000D01*
G75*
G02*
X151510000Y-92700000I0J-100000D01*
G01*
X151510000Y-92900000D01*
G75*
G02*
X151410000Y-93000000I-100000J0D01*
G01*
X150975000Y-93000000D01*
G75*
G02*
X150875000Y-92900000I0J100000D01*
G01*
G37*
G36*
G01*
X140910000Y-90300000D02*
X140910000Y-90500000D01*
G75*
G02*
X140810000Y-90600000I-100000J0D01*
G01*
X140375000Y-90600000D01*
G75*
G02*
X140275000Y-90500000I0J100000D01*
G01*
X140275000Y-90300000D01*
G75*
G02*
X140375000Y-90200000I100000J0D01*
G01*
X140810000Y-90200000D01*
G75*
G02*
X140910000Y-90300000I0J-100000D01*
G01*
G37*
G36*
G01*
X141725000Y-90300000D02*
X141725000Y-90500000D01*
G75*
G02*
X141625000Y-90600000I-100000J0D01*
G01*
X141190000Y-90600000D01*
G75*
G02*
X141090000Y-90500000I0J100000D01*
G01*
X141090000Y-90300000D01*
G75*
G02*
X141190000Y-90200000I100000J0D01*
G01*
X141625000Y-90200000D01*
G75*
G02*
X141725000Y-90300000I0J-100000D01*
G01*
G37*
G36*
G01*
X144575000Y-102962500D02*
X144575000Y-102587500D01*
G75*
G02*
X144662500Y-102500000I87500J0D01*
G01*
X144837500Y-102500000D01*
G75*
G02*
X144925000Y-102587500I0J-87500D01*
G01*
X144925000Y-102962500D01*
G75*
G02*
X144837500Y-103050000I-87500J0D01*
G01*
X144662500Y-103050000D01*
G75*
G02*
X144575000Y-102962500I0J87500D01*
G01*
G37*
G36*
G01*
X145075000Y-102962500D02*
X145075000Y-102587500D01*
G75*
G02*
X145162500Y-102500000I87500J0D01*
G01*
X145337500Y-102500000D01*
G75*
G02*
X145425000Y-102587500I0J-87500D01*
G01*
X145425000Y-102962500D01*
G75*
G02*
X145337500Y-103050000I-87500J0D01*
G01*
X145162500Y-103050000D01*
G75*
G02*
X145075000Y-102962500I0J87500D01*
G01*
G37*
G36*
G01*
X145575000Y-102962500D02*
X145575000Y-102587500D01*
G75*
G02*
X145662500Y-102500000I87500J0D01*
G01*
X145837500Y-102500000D01*
G75*
G02*
X145925000Y-102587500I0J-87500D01*
G01*
X145925000Y-102962500D01*
G75*
G02*
X145837500Y-103050000I-87500J0D01*
G01*
X145662500Y-103050000D01*
G75*
G02*
X145575000Y-102962500I0J87500D01*
G01*
G37*
G36*
G01*
X146200000Y-103087500D02*
X146200000Y-102912500D01*
G75*
G02*
X146287500Y-102825000I87500J0D01*
G01*
X146662500Y-102825000D01*
G75*
G02*
X146750000Y-102912500I0J-87500D01*
G01*
X146750000Y-103087500D01*
G75*
G02*
X146662500Y-103175000I-87500J0D01*
G01*
X146287500Y-103175000D01*
G75*
G02*
X146200000Y-103087500I0J87500D01*
G01*
G37*
G36*
G01*
X146200000Y-103587500D02*
X146200000Y-103412500D01*
G75*
G02*
X146287500Y-103325000I87500J0D01*
G01*
X146662500Y-103325000D01*
G75*
G02*
X146750000Y-103412500I0J-87500D01*
G01*
X146750000Y-103587500D01*
G75*
G02*
X146662500Y-103675000I-87500J0D01*
G01*
X146287500Y-103675000D01*
G75*
G02*
X146200000Y-103587500I0J87500D01*
G01*
G37*
G36*
G01*
X146200000Y-104087500D02*
X146200000Y-103912500D01*
G75*
G02*
X146287500Y-103825000I87500J0D01*
G01*
X146662500Y-103825000D01*
G75*
G02*
X146750000Y-103912500I0J-87500D01*
G01*
X146750000Y-104087500D01*
G75*
G02*
X146662500Y-104175000I-87500J0D01*
G01*
X146287500Y-104175000D01*
G75*
G02*
X146200000Y-104087500I0J87500D01*
G01*
G37*
G36*
G01*
X146200000Y-104587500D02*
X146200000Y-104412500D01*
G75*
G02*
X146287500Y-104325000I87500J0D01*
G01*
X146662500Y-104325000D01*
G75*
G02*
X146750000Y-104412500I0J-87500D01*
G01*
X146750000Y-104587500D01*
G75*
G02*
X146662500Y-104675000I-87500J0D01*
G01*
X146287500Y-104675000D01*
G75*
G02*
X146200000Y-104587500I0J87500D01*
G01*
G37*
G36*
G01*
X146200000Y-105087500D02*
X146200000Y-104912500D01*
G75*
G02*
X146287500Y-104825000I87500J0D01*
G01*
X146662500Y-104825000D01*
G75*
G02*
X146750000Y-104912500I0J-87500D01*
G01*
X146750000Y-105087500D01*
G75*
G02*
X146662500Y-105175000I-87500J0D01*
G01*
X146287500Y-105175000D01*
G75*
G02*
X146200000Y-105087500I0J87500D01*
G01*
G37*
G36*
G01*
X145575000Y-105412500D02*
X145575000Y-105037500D01*
G75*
G02*
X145662500Y-104950000I87500J0D01*
G01*
X145837500Y-104950000D01*
G75*
G02*
X145925000Y-105037500I0J-87500D01*
G01*
X145925000Y-105412500D01*
G75*
G02*
X145837500Y-105500000I-87500J0D01*
G01*
X145662500Y-105500000D01*
G75*
G02*
X145575000Y-105412500I0J87500D01*
G01*
G37*
G36*
G01*
X145075000Y-105412500D02*
X145075000Y-105037500D01*
G75*
G02*
X145162500Y-104950000I87500J0D01*
G01*
X145337500Y-104950000D01*
G75*
G02*
X145425000Y-105037500I0J-87500D01*
G01*
X145425000Y-105412500D01*
G75*
G02*
X145337500Y-105500000I-87500J0D01*
G01*
X145162500Y-105500000D01*
G75*
G02*
X145075000Y-105412500I0J87500D01*
G01*
G37*
G36*
G01*
X144575000Y-105412500D02*
X144575000Y-105037500D01*
G75*
G02*
X144662500Y-104950000I87500J0D01*
G01*
X144837500Y-104950000D01*
G75*
G02*
X144925000Y-105037500I0J-87500D01*
G01*
X144925000Y-105412500D01*
G75*
G02*
X144837500Y-105500000I-87500J0D01*
G01*
X144662500Y-105500000D01*
G75*
G02*
X144575000Y-105412500I0J87500D01*
G01*
G37*
G36*
G01*
X143750000Y-105087500D02*
X143750000Y-104912500D01*
G75*
G02*
X143837500Y-104825000I87500J0D01*
G01*
X144212500Y-104825000D01*
G75*
G02*
X144300000Y-104912500I0J-87500D01*
G01*
X144300000Y-105087500D01*
G75*
G02*
X144212500Y-105175000I-87500J0D01*
G01*
X143837500Y-105175000D01*
G75*
G02*
X143750000Y-105087500I0J87500D01*
G01*
G37*
G36*
G01*
X143750000Y-104587500D02*
X143750000Y-104412500D01*
G75*
G02*
X143837500Y-104325000I87500J0D01*
G01*
X144212500Y-104325000D01*
G75*
G02*
X144300000Y-104412500I0J-87500D01*
G01*
X144300000Y-104587500D01*
G75*
G02*
X144212500Y-104675000I-87500J0D01*
G01*
X143837500Y-104675000D01*
G75*
G02*
X143750000Y-104587500I0J87500D01*
G01*
G37*
G36*
G01*
X143750000Y-104087500D02*
X143750000Y-103912500D01*
G75*
G02*
X143837500Y-103825000I87500J0D01*
G01*
X144212500Y-103825000D01*
G75*
G02*
X144300000Y-103912500I0J-87500D01*
G01*
X144300000Y-104087500D01*
G75*
G02*
X144212500Y-104175000I-87500J0D01*
G01*
X143837500Y-104175000D01*
G75*
G02*
X143750000Y-104087500I0J87500D01*
G01*
G37*
G36*
G01*
X143750000Y-103587500D02*
X143750000Y-103412500D01*
G75*
G02*
X143837500Y-103325000I87500J0D01*
G01*
X144212500Y-103325000D01*
G75*
G02*
X144300000Y-103412500I0J-87500D01*
G01*
X144300000Y-103587500D01*
G75*
G02*
X144212500Y-103675000I-87500J0D01*
G01*
X143837500Y-103675000D01*
G75*
G02*
X143750000Y-103587500I0J87500D01*
G01*
G37*
G36*
G01*
X143750000Y-103087500D02*
X143750000Y-102912500D01*
G75*
G02*
X143837500Y-102825000I87500J0D01*
G01*
X144212500Y-102825000D01*
G75*
G02*
X144300000Y-102912500I0J-87500D01*
G01*
X144300000Y-103087500D01*
G75*
G02*
X144212500Y-103175000I-87500J0D01*
G01*
X143837500Y-103175000D01*
G75*
G02*
X143750000Y-103087500I0J87500D01*
G01*
G37*
D14*
X148500000Y-106400000D03*
X150500000Y-106400000D03*
X141800000Y-106400000D03*
X139600000Y-106400000D03*
G36*
G01*
X154300000Y-136965000D02*
X154300000Y-136415000D01*
G75*
G02*
X154525000Y-136190000I225000J0D01*
G01*
X154975000Y-136190000D01*
G75*
G02*
X155200000Y-136415000I0J-225000D01*
G01*
X155200000Y-136965000D01*
G75*
G02*
X154975000Y-137190000I-225000J0D01*
G01*
X154525000Y-137190000D01*
G75*
G02*
X154300000Y-136965000I0J225000D01*
G01*
G37*
G36*
G01*
X152300000Y-136965000D02*
X152300000Y-136415000D01*
G75*
G02*
X152525000Y-136190000I225000J0D01*
G01*
X152975000Y-136190000D01*
G75*
G02*
X153200000Y-136415000I0J-225000D01*
G01*
X153200000Y-136965000D01*
G75*
G02*
X152975000Y-137190000I-225000J0D01*
G01*
X152525000Y-137190000D01*
G75*
G02*
X152300000Y-136965000I0J225000D01*
G01*
G37*
G36*
G01*
X150300000Y-136965000D02*
X150300000Y-136415000D01*
G75*
G02*
X150525000Y-136190000I225000J0D01*
G01*
X150975000Y-136190000D01*
G75*
G02*
X151200000Y-136415000I0J-225000D01*
G01*
X151200000Y-136965000D01*
G75*
G02*
X150975000Y-137190000I-225000J0D01*
G01*
X150525000Y-137190000D01*
G75*
G02*
X150300000Y-136965000I0J225000D01*
G01*
G37*
G36*
G01*
X142245000Y-136965000D02*
X142245000Y-136415000D01*
G75*
G02*
X142470000Y-136190000I225000J0D01*
G01*
X142920000Y-136190000D01*
G75*
G02*
X143145000Y-136415000I0J-225000D01*
G01*
X143145000Y-136965000D01*
G75*
G02*
X142920000Y-137190000I-225000J0D01*
G01*
X142470000Y-137190000D01*
G75*
G02*
X142245000Y-136965000I0J225000D01*
G01*
G37*
G36*
G01*
X140245000Y-136965000D02*
X140245000Y-136415000D01*
G75*
G02*
X140470000Y-136190000I225000J0D01*
G01*
X140920000Y-136190000D01*
G75*
G02*
X141145000Y-136415000I0J-225000D01*
G01*
X141145000Y-136965000D01*
G75*
G02*
X140920000Y-137190000I-225000J0D01*
G01*
X140470000Y-137190000D01*
G75*
G02*
X140245000Y-136965000I0J225000D01*
G01*
G37*
G36*
G01*
X138245000Y-136965000D02*
X138245000Y-136415000D01*
G75*
G02*
X138470000Y-136190000I225000J0D01*
G01*
X138920000Y-136190000D01*
G75*
G02*
X139145000Y-136415000I0J-225000D01*
G01*
X139145000Y-136965000D01*
G75*
G02*
X138920000Y-137190000I-225000J0D01*
G01*
X138470000Y-137190000D01*
G75*
G02*
X138245000Y-136965000I0J225000D01*
G01*
G37*
G36*
G01*
X150590000Y-119220000D02*
X150390000Y-119220000D01*
G75*
G02*
X150290000Y-119120000I0J100000D01*
G01*
X150290000Y-118685000D01*
G75*
G02*
X150390000Y-118585000I100000J0D01*
G01*
X150590000Y-118585000D01*
G75*
G02*
X150690000Y-118685000I0J-100000D01*
G01*
X150690000Y-119120000D01*
G75*
G02*
X150590000Y-119220000I-100000J0D01*
G01*
G37*
G36*
G01*
X150590000Y-120035000D02*
X150390000Y-120035000D01*
G75*
G02*
X150290000Y-119935000I0J100000D01*
G01*
X150290000Y-119500000D01*
G75*
G02*
X150390000Y-119400000I100000J0D01*
G01*
X150590000Y-119400000D01*
G75*
G02*
X150690000Y-119500000I0J-100000D01*
G01*
X150690000Y-119935000D01*
G75*
G02*
X150590000Y-120035000I-100000J0D01*
G01*
G37*
G36*
G01*
X148810000Y-114300000D02*
X148810000Y-114500000D01*
G75*
G02*
X148710000Y-114600000I-100000J0D01*
G01*
X148275000Y-114600000D01*
G75*
G02*
X148175000Y-114500000I0J100000D01*
G01*
X148175000Y-114300000D01*
G75*
G02*
X148275000Y-114200000I100000J0D01*
G01*
X148710000Y-114200000D01*
G75*
G02*
X148810000Y-114300000I0J-100000D01*
G01*
G37*
G36*
G01*
X149625000Y-114300000D02*
X149625000Y-114500000D01*
G75*
G02*
X149525000Y-114600000I-100000J0D01*
G01*
X149090000Y-114600000D01*
G75*
G02*
X148990000Y-114500000I0J100000D01*
G01*
X148990000Y-114300000D01*
G75*
G02*
X149090000Y-114200000I100000J0D01*
G01*
X149525000Y-114200000D01*
G75*
G02*
X149625000Y-114300000I0J-100000D01*
G01*
G37*
G36*
G01*
X159930000Y-112940000D02*
X159730000Y-112940000D01*
G75*
G02*
X159630000Y-112840000I0J100000D01*
G01*
X159630000Y-112405000D01*
G75*
G02*
X159730000Y-112305000I100000J0D01*
G01*
X159930000Y-112305000D01*
G75*
G02*
X160030000Y-112405000I0J-100000D01*
G01*
X160030000Y-112840000D01*
G75*
G02*
X159930000Y-112940000I-100000J0D01*
G01*
G37*
G36*
G01*
X159930000Y-113755000D02*
X159730000Y-113755000D01*
G75*
G02*
X159630000Y-113655000I0J100000D01*
G01*
X159630000Y-113220000D01*
G75*
G02*
X159730000Y-113120000I100000J0D01*
G01*
X159930000Y-113120000D01*
G75*
G02*
X160030000Y-113220000I0J-100000D01*
G01*
X160030000Y-113655000D01*
G75*
G02*
X159930000Y-113755000I-100000J0D01*
G01*
G37*
G36*
G01*
X152360000Y-90810000D02*
X152160000Y-90810000D01*
G75*
G02*
X152060000Y-90710000I0J100000D01*
G01*
X152060000Y-90275000D01*
G75*
G02*
X152160000Y-90175000I100000J0D01*
G01*
X152360000Y-90175000D01*
G75*
G02*
X152460000Y-90275000I0J-100000D01*
G01*
X152460000Y-90710000D01*
G75*
G02*
X152360000Y-90810000I-100000J0D01*
G01*
G37*
G36*
G01*
X152360000Y-91625000D02*
X152160000Y-91625000D01*
G75*
G02*
X152060000Y-91525000I0J100000D01*
G01*
X152060000Y-91090000D01*
G75*
G02*
X152160000Y-90990000I100000J0D01*
G01*
X152360000Y-90990000D01*
G75*
G02*
X152460000Y-91090000I0J-100000D01*
G01*
X152460000Y-91525000D01*
G75*
G02*
X152360000Y-91625000I-100000J0D01*
G01*
G37*
G36*
G01*
X128990000Y-112400000D02*
X128990000Y-112200000D01*
G75*
G02*
X129090000Y-112100000I100000J0D01*
G01*
X129525000Y-112100000D01*
G75*
G02*
X129625000Y-112200000I0J-100000D01*
G01*
X129625000Y-112400000D01*
G75*
G02*
X129525000Y-112500000I-100000J0D01*
G01*
X129090000Y-112500000D01*
G75*
G02*
X128990000Y-112400000I0J100000D01*
G01*
G37*
G36*
G01*
X128175000Y-112400000D02*
X128175000Y-112200000D01*
G75*
G02*
X128275000Y-112100000I100000J0D01*
G01*
X128710000Y-112100000D01*
G75*
G02*
X128810000Y-112200000I0J-100000D01*
G01*
X128810000Y-112400000D01*
G75*
G02*
X128710000Y-112500000I-100000J0D01*
G01*
X128275000Y-112500000D01*
G75*
G02*
X128175000Y-112400000I0J100000D01*
G01*
G37*
G36*
G01*
X137400000Y-115550000D02*
X137600000Y-115550000D01*
G75*
G02*
X137700000Y-115650000I0J-100000D01*
G01*
X137700000Y-116085000D01*
G75*
G02*
X137600000Y-116185000I-100000J0D01*
G01*
X137400000Y-116185000D01*
G75*
G02*
X137300000Y-116085000I0J100000D01*
G01*
X137300000Y-115650000D01*
G75*
G02*
X137400000Y-115550000I100000J0D01*
G01*
G37*
G36*
G01*
X137400000Y-114735000D02*
X137600000Y-114735000D01*
G75*
G02*
X137700000Y-114835000I0J-100000D01*
G01*
X137700000Y-115270000D01*
G75*
G02*
X137600000Y-115370000I-100000J0D01*
G01*
X137400000Y-115370000D01*
G75*
G02*
X137300000Y-115270000I0J100000D01*
G01*
X137300000Y-114835000D01*
G75*
G02*
X137400000Y-114735000I100000J0D01*
G01*
G37*
G36*
G01*
X136630000Y-115350000D02*
X136430000Y-115350000D01*
G75*
G02*
X136330000Y-115250000I0J100000D01*
G01*
X136330000Y-114815000D01*
G75*
G02*
X136430000Y-114715000I100000J0D01*
G01*
X136630000Y-114715000D01*
G75*
G02*
X136730000Y-114815000I0J-100000D01*
G01*
X136730000Y-115250000D01*
G75*
G02*
X136630000Y-115350000I-100000J0D01*
G01*
G37*
G36*
G01*
X136630000Y-116165000D02*
X136430000Y-116165000D01*
G75*
G02*
X136330000Y-116065000I0J100000D01*
G01*
X136330000Y-115630000D01*
G75*
G02*
X136430000Y-115530000I100000J0D01*
G01*
X136630000Y-115530000D01*
G75*
G02*
X136730000Y-115630000I0J-100000D01*
G01*
X136730000Y-116065000D01*
G75*
G02*
X136630000Y-116165000I-100000J0D01*
G01*
G37*
G36*
G01*
X127240000Y-118650000D02*
X127040000Y-118650000D01*
G75*
G02*
X126940000Y-118550000I0J100000D01*
G01*
X126940000Y-118115000D01*
G75*
G02*
X127040000Y-118015000I100000J0D01*
G01*
X127240000Y-118015000D01*
G75*
G02*
X127340000Y-118115000I0J-100000D01*
G01*
X127340000Y-118550000D01*
G75*
G02*
X127240000Y-118650000I-100000J0D01*
G01*
G37*
G36*
G01*
X127240000Y-119465000D02*
X127040000Y-119465000D01*
G75*
G02*
X126940000Y-119365000I0J100000D01*
G01*
X126940000Y-118930000D01*
G75*
G02*
X127040000Y-118830000I100000J0D01*
G01*
X127240000Y-118830000D01*
G75*
G02*
X127340000Y-118930000I0J-100000D01*
G01*
X127340000Y-119365000D01*
G75*
G02*
X127240000Y-119465000I-100000J0D01*
G01*
G37*
G36*
G01*
X144390000Y-87300000D02*
X144390000Y-87100000D01*
G75*
G02*
X144490000Y-87000000I100000J0D01*
G01*
X144925000Y-87000000D01*
G75*
G02*
X145025000Y-87100000I0J-100000D01*
G01*
X145025000Y-87300000D01*
G75*
G02*
X144925000Y-87400000I-100000J0D01*
G01*
X144490000Y-87400000D01*
G75*
G02*
X144390000Y-87300000I0J100000D01*
G01*
G37*
G36*
G01*
X143575000Y-87300000D02*
X143575000Y-87100000D01*
G75*
G02*
X143675000Y-87000000I100000J0D01*
G01*
X144110000Y-87000000D01*
G75*
G02*
X144210000Y-87100000I0J-100000D01*
G01*
X144210000Y-87300000D01*
G75*
G02*
X144110000Y-87400000I-100000J0D01*
G01*
X143675000Y-87400000D01*
G75*
G02*
X143575000Y-87300000I0J100000D01*
G01*
G37*
G36*
G01*
X133900000Y-94490000D02*
X134100000Y-94490000D01*
G75*
G02*
X134200000Y-94590000I0J-100000D01*
G01*
X134200000Y-95025000D01*
G75*
G02*
X134100000Y-95125000I-100000J0D01*
G01*
X133900000Y-95125000D01*
G75*
G02*
X133800000Y-95025000I0J100000D01*
G01*
X133800000Y-94590000D01*
G75*
G02*
X133900000Y-94490000I100000J0D01*
G01*
G37*
G36*
G01*
X133900000Y-93675000D02*
X134100000Y-93675000D01*
G75*
G02*
X134200000Y-93775000I0J-100000D01*
G01*
X134200000Y-94210000D01*
G75*
G02*
X134100000Y-94310000I-100000J0D01*
G01*
X133900000Y-94310000D01*
G75*
G02*
X133800000Y-94210000I0J100000D01*
G01*
X133800000Y-93775000D01*
G75*
G02*
X133900000Y-93675000I100000J0D01*
G01*
G37*
G36*
G01*
X157700000Y-94290000D02*
X157900000Y-94290000D01*
G75*
G02*
X158000000Y-94390000I0J-100000D01*
G01*
X158000000Y-94825000D01*
G75*
G02*
X157900000Y-94925000I-100000J0D01*
G01*
X157700000Y-94925000D01*
G75*
G02*
X157600000Y-94825000I0J100000D01*
G01*
X157600000Y-94390000D01*
G75*
G02*
X157700000Y-94290000I100000J0D01*
G01*
G37*
G36*
G01*
X157700000Y-93475000D02*
X157900000Y-93475000D01*
G75*
G02*
X158000000Y-93575000I0J-100000D01*
G01*
X158000000Y-94010000D01*
G75*
G02*
X157900000Y-94110000I-100000J0D01*
G01*
X157700000Y-94110000D01*
G75*
G02*
X157600000Y-94010000I0J100000D01*
G01*
X157600000Y-93575000D01*
G75*
G02*
X157700000Y-93475000I100000J0D01*
G01*
G37*
G36*
G01*
X146110000Y-87100000D02*
X146110000Y-87300000D01*
G75*
G02*
X146010000Y-87400000I-100000J0D01*
G01*
X145575000Y-87400000D01*
G75*
G02*
X145475000Y-87300000I0J100000D01*
G01*
X145475000Y-87100000D01*
G75*
G02*
X145575000Y-87000000I100000J0D01*
G01*
X146010000Y-87000000D01*
G75*
G02*
X146110000Y-87100000I0J-100000D01*
G01*
G37*
G36*
G01*
X146925000Y-87100000D02*
X146925000Y-87300000D01*
G75*
G02*
X146825000Y-87400000I-100000J0D01*
G01*
X146390000Y-87400000D01*
G75*
G02*
X146290000Y-87300000I0J100000D01*
G01*
X146290000Y-87100000D01*
G75*
G02*
X146390000Y-87000000I100000J0D01*
G01*
X146825000Y-87000000D01*
G75*
G02*
X146925000Y-87100000I0J-100000D01*
G01*
G37*
G36*
G01*
X132400000Y-90712500D02*
X132200000Y-90712500D01*
G75*
G02*
X132100000Y-90612500I0J100000D01*
G01*
X132100000Y-90177500D01*
G75*
G02*
X132200000Y-90077500I100000J0D01*
G01*
X132400000Y-90077500D01*
G75*
G02*
X132500000Y-90177500I0J-100000D01*
G01*
X132500000Y-90612500D01*
G75*
G02*
X132400000Y-90712500I-100000J0D01*
G01*
G37*
G36*
G01*
X132400000Y-91527500D02*
X132200000Y-91527500D01*
G75*
G02*
X132100000Y-91427500I0J100000D01*
G01*
X132100000Y-90992500D01*
G75*
G02*
X132200000Y-90892500I100000J0D01*
G01*
X132400000Y-90892500D01*
G75*
G02*
X132500000Y-90992500I0J-100000D01*
G01*
X132500000Y-91427500D01*
G75*
G02*
X132400000Y-91527500I-100000J0D01*
G01*
G37*
G36*
G01*
X152240000Y-122090000D02*
X152560000Y-122090000D01*
G75*
G02*
X152720000Y-122250000I0J-160000D01*
G01*
X152720000Y-122695000D01*
G75*
G02*
X152560000Y-122855000I-160000J0D01*
G01*
X152240000Y-122855000D01*
G75*
G02*
X152080000Y-122695000I0J160000D01*
G01*
X152080000Y-122250000D01*
G75*
G02*
X152240000Y-122090000I160000J0D01*
G01*
G37*
G36*
G01*
X152240000Y-120945000D02*
X152560000Y-120945000D01*
G75*
G02*
X152720000Y-121105000I0J-160000D01*
G01*
X152720000Y-121550000D01*
G75*
G02*
X152560000Y-121710000I-160000J0D01*
G01*
X152240000Y-121710000D01*
G75*
G02*
X152080000Y-121550000I0J160000D01*
G01*
X152080000Y-121105000D01*
G75*
G02*
X152240000Y-120945000I160000J0D01*
G01*
G37*
G36*
G01*
X154240000Y-122090000D02*
X154560000Y-122090000D01*
G75*
G02*
X154720000Y-122250000I0J-160000D01*
G01*
X154720000Y-122695000D01*
G75*
G02*
X154560000Y-122855000I-160000J0D01*
G01*
X154240000Y-122855000D01*
G75*
G02*
X154080000Y-122695000I0J160000D01*
G01*
X154080000Y-122250000D01*
G75*
G02*
X154240000Y-122090000I160000J0D01*
G01*
G37*
G36*
G01*
X154240000Y-120945000D02*
X154560000Y-120945000D01*
G75*
G02*
X154720000Y-121105000I0J-160000D01*
G01*
X154720000Y-121550000D01*
G75*
G02*
X154560000Y-121710000I-160000J0D01*
G01*
X154240000Y-121710000D01*
G75*
G02*
X154080000Y-121550000I0J160000D01*
G01*
X154080000Y-121105000D01*
G75*
G02*
X154240000Y-120945000I160000J0D01*
G01*
G37*
G36*
G01*
X156160000Y-122100000D02*
X156480000Y-122100000D01*
G75*
G02*
X156640000Y-122260000I0J-160000D01*
G01*
X156640000Y-122705000D01*
G75*
G02*
X156480000Y-122865000I-160000J0D01*
G01*
X156160000Y-122865000D01*
G75*
G02*
X156000000Y-122705000I0J160000D01*
G01*
X156000000Y-122260000D01*
G75*
G02*
X156160000Y-122100000I160000J0D01*
G01*
G37*
G36*
G01*
X156160000Y-120955000D02*
X156480000Y-120955000D01*
G75*
G02*
X156640000Y-121115000I0J-160000D01*
G01*
X156640000Y-121560000D01*
G75*
G02*
X156480000Y-121720000I-160000J0D01*
G01*
X156160000Y-121720000D01*
G75*
G02*
X156000000Y-121560000I0J160000D01*
G01*
X156000000Y-121115000D01*
G75*
G02*
X156160000Y-120955000I160000J0D01*
G01*
G37*
G36*
G01*
X158040000Y-122090000D02*
X158360000Y-122090000D01*
G75*
G02*
X158520000Y-122250000I0J-160000D01*
G01*
X158520000Y-122695000D01*
G75*
G02*
X158360000Y-122855000I-160000J0D01*
G01*
X158040000Y-122855000D01*
G75*
G02*
X157880000Y-122695000I0J160000D01*
G01*
X157880000Y-122250000D01*
G75*
G02*
X158040000Y-122090000I160000J0D01*
G01*
G37*
G36*
G01*
X158040000Y-120945000D02*
X158360000Y-120945000D01*
G75*
G02*
X158520000Y-121105000I0J-160000D01*
G01*
X158520000Y-121550000D01*
G75*
G02*
X158360000Y-121710000I-160000J0D01*
G01*
X158040000Y-121710000D01*
G75*
G02*
X157880000Y-121550000I0J160000D01*
G01*
X157880000Y-121105000D01*
G75*
G02*
X158040000Y-120945000I160000J0D01*
G01*
G37*
G36*
G01*
X125760000Y-114910000D02*
X125440000Y-114910000D01*
G75*
G02*
X125280000Y-114750000I0J160000D01*
G01*
X125280000Y-114305000D01*
G75*
G02*
X125440000Y-114145000I160000J0D01*
G01*
X125760000Y-114145000D01*
G75*
G02*
X125920000Y-114305000I0J-160000D01*
G01*
X125920000Y-114750000D01*
G75*
G02*
X125760000Y-114910000I-160000J0D01*
G01*
G37*
G36*
G01*
X125760000Y-116055000D02*
X125440000Y-116055000D01*
G75*
G02*
X125280000Y-115895000I0J160000D01*
G01*
X125280000Y-115450000D01*
G75*
G02*
X125440000Y-115290000I160000J0D01*
G01*
X125760000Y-115290000D01*
G75*
G02*
X125920000Y-115450000I0J-160000D01*
G01*
X125920000Y-115895000D01*
G75*
G02*
X125760000Y-116055000I-160000J0D01*
G01*
G37*
G36*
G01*
X157650000Y-89590000D02*
X157850000Y-89590000D01*
G75*
G02*
X157950000Y-89690000I0J-100000D01*
G01*
X157950000Y-90125000D01*
G75*
G02*
X157850000Y-90225000I-100000J0D01*
G01*
X157650000Y-90225000D01*
G75*
G02*
X157550000Y-90125000I0J100000D01*
G01*
X157550000Y-89690000D01*
G75*
G02*
X157650000Y-89590000I100000J0D01*
G01*
G37*
G36*
G01*
X157650000Y-88775000D02*
X157850000Y-88775000D01*
G75*
G02*
X157950000Y-88875000I0J-100000D01*
G01*
X157950000Y-89310000D01*
G75*
G02*
X157850000Y-89410000I-100000J0D01*
G01*
X157650000Y-89410000D01*
G75*
G02*
X157550000Y-89310000I0J100000D01*
G01*
X157550000Y-88875000D01*
G75*
G02*
X157650000Y-88775000I100000J0D01*
G01*
G37*
G36*
G01*
X138600000Y-115370000D02*
X138400000Y-115370000D01*
G75*
G02*
X138300000Y-115270000I0J100000D01*
G01*
X138300000Y-114835000D01*
G75*
G02*
X138400000Y-114735000I100000J0D01*
G01*
X138600000Y-114735000D01*
G75*
G02*
X138700000Y-114835000I0J-100000D01*
G01*
X138700000Y-115270000D01*
G75*
G02*
X138600000Y-115370000I-100000J0D01*
G01*
G37*
G36*
G01*
X138600000Y-116185000D02*
X138400000Y-116185000D01*
G75*
G02*
X138300000Y-116085000I0J100000D01*
G01*
X138300000Y-115650000D01*
G75*
G02*
X138400000Y-115550000I100000J0D01*
G01*
X138600000Y-115550000D01*
G75*
G02*
X138700000Y-115650000I0J-100000D01*
G01*
X138700000Y-116085000D01*
G75*
G02*
X138600000Y-116185000I-100000J0D01*
G01*
G37*
G36*
G01*
X145655000Y-118910000D02*
X145345000Y-118910000D01*
G75*
G02*
X145190000Y-118755000I0J155000D01*
G01*
X145190000Y-118330000D01*
G75*
G02*
X145345000Y-118175000I155000J0D01*
G01*
X145655000Y-118175000D01*
G75*
G02*
X145810000Y-118330000I0J-155000D01*
G01*
X145810000Y-118755000D01*
G75*
G02*
X145655000Y-118910000I-155000J0D01*
G01*
G37*
G36*
G01*
X145655000Y-120045000D02*
X145345000Y-120045000D01*
G75*
G02*
X145190000Y-119890000I0J155000D01*
G01*
X145190000Y-119465000D01*
G75*
G02*
X145345000Y-119310000I155000J0D01*
G01*
X145655000Y-119310000D01*
G75*
G02*
X145810000Y-119465000I0J-155000D01*
G01*
X145810000Y-119890000D01*
G75*
G02*
X145655000Y-120045000I-155000J0D01*
G01*
G37*
G36*
G01*
X140510000Y-118950000D02*
X140310000Y-118950000D01*
G75*
G02*
X140210000Y-118850000I0J100000D01*
G01*
X140210000Y-118415000D01*
G75*
G02*
X140310000Y-118315000I100000J0D01*
G01*
X140510000Y-118315000D01*
G75*
G02*
X140610000Y-118415000I0J-100000D01*
G01*
X140610000Y-118850000D01*
G75*
G02*
X140510000Y-118950000I-100000J0D01*
G01*
G37*
G36*
G01*
X140510000Y-119765000D02*
X140310000Y-119765000D01*
G75*
G02*
X140210000Y-119665000I0J100000D01*
G01*
X140210000Y-119230000D01*
G75*
G02*
X140310000Y-119130000I100000J0D01*
G01*
X140510000Y-119130000D01*
G75*
G02*
X140610000Y-119230000I0J-100000D01*
G01*
X140610000Y-119665000D01*
G75*
G02*
X140510000Y-119765000I-100000J0D01*
G01*
G37*
G36*
G01*
X145470000Y-117140000D02*
X145670000Y-117140000D01*
G75*
G02*
X145770000Y-117240000I0J-100000D01*
G01*
X145770000Y-117675000D01*
G75*
G02*
X145670000Y-117775000I-100000J0D01*
G01*
X145470000Y-117775000D01*
G75*
G02*
X145370000Y-117675000I0J100000D01*
G01*
X145370000Y-117240000D01*
G75*
G02*
X145470000Y-117140000I100000J0D01*
G01*
G37*
G36*
G01*
X145470000Y-116325000D02*
X145670000Y-116325000D01*
G75*
G02*
X145770000Y-116425000I0J-100000D01*
G01*
X145770000Y-116860000D01*
G75*
G02*
X145670000Y-116960000I-100000J0D01*
G01*
X145470000Y-116960000D01*
G75*
G02*
X145370000Y-116860000I0J100000D01*
G01*
X145370000Y-116425000D01*
G75*
G02*
X145470000Y-116325000I100000J0D01*
G01*
G37*
G36*
G01*
X141900000Y-108875000D02*
X142100000Y-108875000D01*
G75*
G02*
X142200000Y-108975000I0J-100000D01*
G01*
X142200000Y-109410000D01*
G75*
G02*
X142100000Y-109510000I-100000J0D01*
G01*
X141900000Y-109510000D01*
G75*
G02*
X141800000Y-109410000I0J100000D01*
G01*
X141800000Y-108975000D01*
G75*
G02*
X141900000Y-108875000I100000J0D01*
G01*
G37*
G36*
G01*
X141900000Y-109690000D02*
X142100000Y-109690000D01*
G75*
G02*
X142200000Y-109790000I0J-100000D01*
G01*
X142200000Y-110225000D01*
G75*
G02*
X142100000Y-110325000I-100000J0D01*
G01*
X141900000Y-110325000D01*
G75*
G02*
X141800000Y-110225000I0J100000D01*
G01*
X141800000Y-109790000D01*
G75*
G02*
X141900000Y-109690000I100000J0D01*
G01*
G37*
G36*
G01*
X146150000Y-115450003D02*
X146150000Y-114149997D01*
G75*
G02*
X146399997Y-113900000I249997J0D01*
G01*
X147225003Y-113900000D01*
G75*
G02*
X147475000Y-114149997I0J-249997D01*
G01*
X147475000Y-115450003D01*
G75*
G02*
X147225003Y-115700000I-249997J0D01*
G01*
X146399997Y-115700000D01*
G75*
G02*
X146150000Y-115450003I0J249997D01*
G01*
G37*
G36*
G01*
X143025000Y-115450003D02*
X143025000Y-114149997D01*
G75*
G02*
X143274997Y-113900000I249997J0D01*
G01*
X144100003Y-113900000D01*
G75*
G02*
X144350000Y-114149997I0J-249997D01*
G01*
X144350000Y-115450003D01*
G75*
G02*
X144100003Y-115700000I-249997J0D01*
G01*
X143274997Y-115700000D01*
G75*
G02*
X143025000Y-115450003I0J249997D01*
G01*
G37*
G36*
G01*
X138220000Y-89830000D02*
X138420000Y-89830000D01*
G75*
G02*
X138520000Y-89930000I0J-100000D01*
G01*
X138520000Y-90365000D01*
G75*
G02*
X138420000Y-90465000I-100000J0D01*
G01*
X138220000Y-90465000D01*
G75*
G02*
X138120000Y-90365000I0J100000D01*
G01*
X138120000Y-89930000D01*
G75*
G02*
X138220000Y-89830000I100000J0D01*
G01*
G37*
G36*
G01*
X138220000Y-89015000D02*
X138420000Y-89015000D01*
G75*
G02*
X138520000Y-89115000I0J-100000D01*
G01*
X138520000Y-89550000D01*
G75*
G02*
X138420000Y-89650000I-100000J0D01*
G01*
X138220000Y-89650000D01*
G75*
G02*
X138120000Y-89550000I0J100000D01*
G01*
X138120000Y-89115000D01*
G75*
G02*
X138220000Y-89015000I100000J0D01*
G01*
G37*
G36*
G01*
X148690000Y-103300000D02*
X148690000Y-103100000D01*
G75*
G02*
X148790000Y-103000000I100000J0D01*
G01*
X149225000Y-103000000D01*
G75*
G02*
X149325000Y-103100000I0J-100000D01*
G01*
X149325000Y-103300000D01*
G75*
G02*
X149225000Y-103400000I-100000J0D01*
G01*
X148790000Y-103400000D01*
G75*
G02*
X148690000Y-103300000I0J100000D01*
G01*
G37*
G36*
G01*
X147875000Y-103300000D02*
X147875000Y-103100000D01*
G75*
G02*
X147975000Y-103000000I100000J0D01*
G01*
X148410000Y-103000000D01*
G75*
G02*
X148510000Y-103100000I0J-100000D01*
G01*
X148510000Y-103300000D01*
G75*
G02*
X148410000Y-103400000I-100000J0D01*
G01*
X147975000Y-103400000D01*
G75*
G02*
X147875000Y-103300000I0J100000D01*
G01*
G37*
G36*
G01*
X140210000Y-103600000D02*
X140210000Y-103800000D01*
G75*
G02*
X140110000Y-103900000I-100000J0D01*
G01*
X139675000Y-103900000D01*
G75*
G02*
X139575000Y-103800000I0J100000D01*
G01*
X139575000Y-103600000D01*
G75*
G02*
X139675000Y-103500000I100000J0D01*
G01*
X140110000Y-103500000D01*
G75*
G02*
X140210000Y-103600000I0J-100000D01*
G01*
G37*
G36*
G01*
X141025000Y-103600000D02*
X141025000Y-103800000D01*
G75*
G02*
X140925000Y-103900000I-100000J0D01*
G01*
X140490000Y-103900000D01*
G75*
G02*
X140390000Y-103800000I0J100000D01*
G01*
X140390000Y-103600000D01*
G75*
G02*
X140490000Y-103500000I100000J0D01*
G01*
X140925000Y-103500000D01*
G75*
G02*
X141025000Y-103600000I0J-100000D01*
G01*
G37*
G36*
G01*
X139900000Y-101645000D02*
X139900000Y-101955000D01*
G75*
G02*
X139745000Y-102110000I-155000J0D01*
G01*
X139320000Y-102110000D01*
G75*
G02*
X139165000Y-101955000I0J155000D01*
G01*
X139165000Y-101645000D01*
G75*
G02*
X139320000Y-101490000I155000J0D01*
G01*
X139745000Y-101490000D01*
G75*
G02*
X139900000Y-101645000I0J-155000D01*
G01*
G37*
G36*
G01*
X141035000Y-101645000D02*
X141035000Y-101955000D01*
G75*
G02*
X140880000Y-102110000I-155000J0D01*
G01*
X140455000Y-102110000D01*
G75*
G02*
X140300000Y-101955000I0J155000D01*
G01*
X140300000Y-101645000D01*
G75*
G02*
X140455000Y-101490000I155000J0D01*
G01*
X140880000Y-101490000D01*
G75*
G02*
X141035000Y-101645000I0J-155000D01*
G01*
G37*
G36*
G01*
X136360000Y-105180000D02*
X136860000Y-105180000D01*
G75*
G02*
X137110000Y-105430000I0J-250000D01*
G01*
X137110000Y-105930000D01*
G75*
G02*
X136860000Y-106180000I-250000J0D01*
G01*
X136360000Y-106180000D01*
G75*
G02*
X136110000Y-105930000I0J250000D01*
G01*
X136110000Y-105430000D01*
G75*
G02*
X136360000Y-105180000I250000J0D01*
G01*
G37*
G36*
G01*
X136360000Y-103180000D02*
X136860000Y-103180000D01*
G75*
G02*
X137110000Y-103430000I0J-250000D01*
G01*
X137110000Y-103930000D01*
G75*
G02*
X136860000Y-104180000I-250000J0D01*
G01*
X136360000Y-104180000D01*
G75*
G02*
X136110000Y-103930000I0J250000D01*
G01*
X136110000Y-103430000D01*
G75*
G02*
X136360000Y-103180000I250000J0D01*
G01*
G37*
G36*
G01*
X136360000Y-101180000D02*
X136860000Y-101180000D01*
G75*
G02*
X137110000Y-101430000I0J-250000D01*
G01*
X137110000Y-101930000D01*
G75*
G02*
X136860000Y-102180000I-250000J0D01*
G01*
X136360000Y-102180000D01*
G75*
G02*
X136110000Y-101930000I0J250000D01*
G01*
X136110000Y-101430000D01*
G75*
G02*
X136360000Y-101180000I250000J0D01*
G01*
G37*
G36*
G01*
X138440000Y-102200000D02*
X137940000Y-102200000D01*
G75*
G02*
X137690000Y-101950000I0J250000D01*
G01*
X137690000Y-101450000D01*
G75*
G02*
X137940000Y-101200000I250000J0D01*
G01*
X138440000Y-101200000D01*
G75*
G02*
X138690000Y-101450000I0J-250000D01*
G01*
X138690000Y-101950000D01*
G75*
G02*
X138440000Y-102200000I-250000J0D01*
G01*
G37*
G36*
G01*
X138440000Y-104200000D02*
X137940000Y-104200000D01*
G75*
G02*
X137690000Y-103950000I0J250000D01*
G01*
X137690000Y-103450000D01*
G75*
G02*
X137940000Y-103200000I250000J0D01*
G01*
X138440000Y-103200000D01*
G75*
G02*
X138690000Y-103450000I0J-250000D01*
G01*
X138690000Y-103950000D01*
G75*
G02*
X138440000Y-104200000I-250000J0D01*
G01*
G37*
G36*
G01*
X138440000Y-106200000D02*
X137940000Y-106200000D01*
G75*
G02*
X137690000Y-105950000I0J250000D01*
G01*
X137690000Y-105450000D01*
G75*
G02*
X137940000Y-105200000I250000J0D01*
G01*
X138440000Y-105200000D01*
G75*
G02*
X138690000Y-105450000I0J-250000D01*
G01*
X138690000Y-105950000D01*
G75*
G02*
X138440000Y-106200000I-250000J0D01*
G01*
G37*
G36*
G01*
X152050000Y-105210000D02*
X152550000Y-105210000D01*
G75*
G02*
X152800000Y-105460000I0J-250000D01*
G01*
X152800000Y-105960000D01*
G75*
G02*
X152550000Y-106210000I-250000J0D01*
G01*
X152050000Y-106210000D01*
G75*
G02*
X151800000Y-105960000I0J250000D01*
G01*
X151800000Y-105460000D01*
G75*
G02*
X152050000Y-105210000I250000J0D01*
G01*
G37*
G36*
G01*
X152050000Y-103210000D02*
X152550000Y-103210000D01*
G75*
G02*
X152800000Y-103460000I0J-250000D01*
G01*
X152800000Y-103960000D01*
G75*
G02*
X152550000Y-104210000I-250000J0D01*
G01*
X152050000Y-104210000D01*
G75*
G02*
X151800000Y-103960000I0J250000D01*
G01*
X151800000Y-103460000D01*
G75*
G02*
X152050000Y-103210000I250000J0D01*
G01*
G37*
G36*
G01*
X152050000Y-101210000D02*
X152550000Y-101210000D01*
G75*
G02*
X152800000Y-101460000I0J-250000D01*
G01*
X152800000Y-101960000D01*
G75*
G02*
X152550000Y-102210000I-250000J0D01*
G01*
X152050000Y-102210000D01*
G75*
G02*
X151800000Y-101960000I0J250000D01*
G01*
X151800000Y-101460000D01*
G75*
G02*
X152050000Y-101210000I250000J0D01*
G01*
G37*
G36*
G01*
X154150000Y-102210000D02*
X153650000Y-102210000D01*
G75*
G02*
X153400000Y-101960000I0J250000D01*
G01*
X153400000Y-101460000D01*
G75*
G02*
X153650000Y-101210000I250000J0D01*
G01*
X154150000Y-101210000D01*
G75*
G02*
X154400000Y-101460000I0J-250000D01*
G01*
X154400000Y-101960000D01*
G75*
G02*
X154150000Y-102210000I-250000J0D01*
G01*
G37*
G36*
G01*
X154150000Y-104210000D02*
X153650000Y-104210000D01*
G75*
G02*
X153400000Y-103960000I0J250000D01*
G01*
X153400000Y-103460000D01*
G75*
G02*
X153650000Y-103210000I250000J0D01*
G01*
X154150000Y-103210000D01*
G75*
G02*
X154400000Y-103460000I0J-250000D01*
G01*
X154400000Y-103960000D01*
G75*
G02*
X154150000Y-104210000I-250000J0D01*
G01*
G37*
G36*
G01*
X154150000Y-106210000D02*
X153650000Y-106210000D01*
G75*
G02*
X153400000Y-105960000I0J250000D01*
G01*
X153400000Y-105460000D01*
G75*
G02*
X153650000Y-105210000I250000J0D01*
G01*
X154150000Y-105210000D01*
G75*
G02*
X154400000Y-105460000I0J-250000D01*
G01*
X154400000Y-105960000D01*
G75*
G02*
X154150000Y-106210000I-250000J0D01*
G01*
G37*
D15*
X156100000Y-90000000D03*
X156100000Y-89050000D03*
X156100000Y-90950000D03*
X153900000Y-90950000D03*
X153900000Y-90000000D03*
X153900000Y-89050000D03*
X136100000Y-90000000D03*
X136100000Y-89050000D03*
X136100000Y-90950000D03*
X133900000Y-90950000D03*
X133900000Y-90000000D03*
X133900000Y-89050000D03*
D16*
X161525000Y-119875000D03*
X161525000Y-115725000D03*
X163675000Y-119875000D03*
X163675000Y-115725000D03*
D17*
X160261547Y-94911355D03*
G36*
G01*
X163562631Y-94651403D02*
X163536456Y-95400946D01*
G75*
G02*
X163148597Y-95762631I-374772J13087D01*
G01*
X162399054Y-95736456D01*
G75*
G02*
X162037369Y-95348597I13087J374772D01*
G01*
X162063544Y-94599054D01*
G75*
G02*
X162451403Y-94237369I374772J-13087D01*
G01*
X163200946Y-94263544D01*
G75*
G02*
X163562631Y-94651403I-13087J-374772D01*
G01*
G37*
G36*
G01*
X149999760Y-89162020D02*
X149350240Y-89537020D01*
G75*
G02*
X148837980Y-89399760I-187500J324760D01*
G01*
X148462980Y-88750240D01*
G75*
G02*
X148600240Y-88237980I324760J187500D01*
G01*
X149249760Y-87862980D01*
G75*
G02*
X149762020Y-88000240I187500J-324760D01*
G01*
X150137020Y-88649760D01*
G75*
G02*
X149999760Y-89162020I-324760J-187500D01*
G01*
G37*
X148030000Y-86500295D03*
X141230000Y-88699705D03*
G36*
G01*
X142550240Y-85662980D02*
X143199760Y-86037980D01*
G75*
G02*
X143337020Y-86550240I-187500J-324760D01*
G01*
X142962020Y-87199760D01*
G75*
G02*
X142449760Y-87337020I-324760J187500D01*
G01*
X141800240Y-86962020D01*
G75*
G02*
X141662980Y-86449760I187500J324760D01*
G01*
X142037980Y-85800240D01*
G75*
G02*
X142550240Y-85662980I324760J-187500D01*
G01*
G37*
X127761547Y-94988645D03*
G36*
G01*
X131036456Y-94499054D02*
X131062631Y-95248597D01*
G75*
G02*
X130700946Y-95636456I-374772J-13087D01*
G01*
X129951403Y-95662631D01*
G75*
G02*
X129563544Y-95300946I-13087J374772D01*
G01*
X129537369Y-94551403D01*
G75*
G02*
X129899054Y-94163544I374772J13087D01*
G01*
X130648597Y-94137369D01*
G75*
G02*
X131036456Y-94499054I13087J-374772D01*
G01*
G37*
G36*
G01*
X130936456Y-92599054D02*
X130962631Y-93348597D01*
G75*
G02*
X130600946Y-93736456I-374772J-13087D01*
G01*
X129851403Y-93762631D01*
G75*
G02*
X129463544Y-93400946I-13087J374772D01*
G01*
X129437369Y-92651403D01*
G75*
G02*
X129799054Y-92263544I374772J13087D01*
G01*
X130548597Y-92237369D01*
G75*
G02*
X130936456Y-92599054I13087J-374772D01*
G01*
G37*
X127661547Y-93088645D03*
G36*
G01*
X151599760Y-88162020D02*
X150950240Y-88537020D01*
G75*
G02*
X150437980Y-88399760I-187500J324760D01*
G01*
X150062980Y-87750240D01*
G75*
G02*
X150200240Y-87237980I324760J187500D01*
G01*
X150849760Y-86862980D01*
G75*
G02*
X151362020Y-87000240I187500J-324760D01*
G01*
X151737020Y-87649760D01*
G75*
G02*
X151599760Y-88162020I-324760J-187500D01*
G01*
G37*
X149630000Y-85500295D03*
X139630000Y-87699705D03*
G36*
G01*
X140950240Y-84662980D02*
X141599760Y-85037980D01*
G75*
G02*
X141737020Y-85550240I-187500J-324760D01*
G01*
X141362020Y-86199760D01*
G75*
G02*
X140849760Y-86337020I-324760J187500D01*
G01*
X140200240Y-85962020D01*
G75*
G02*
X140062980Y-85449760I187500J324760D01*
G01*
X140437980Y-84800240D01*
G75*
G02*
X140950240Y-84662980I324760J-187500D01*
G01*
G37*
X160361547Y-93011355D03*
G36*
G01*
X163662631Y-92751403D02*
X163636456Y-93500946D01*
G75*
G02*
X163248597Y-93862631I-374772J13087D01*
G01*
X162499054Y-93836456D01*
G75*
G02*
X162137369Y-93448597I13087J374772D01*
G01*
X162163544Y-92699054D01*
G75*
G02*
X162551403Y-92337369I374772J-13087D01*
G01*
X163300946Y-92363544D01*
G75*
G02*
X163662631Y-92751403I-13087J-374772D01*
G01*
G37*
D18*
X148300000Y-119000000D03*
X147350000Y-117000000D03*
X149250000Y-117000000D03*
X129860000Y-118860000D03*
X130810000Y-120860000D03*
X128910000Y-120860000D03*
D19*
X152730000Y-113800000D03*
X152730000Y-117800000D03*
D20*
X128175000Y-114675000D03*
G36*
G01*
X129875000Y-114200000D02*
X129875000Y-115150000D01*
G75*
G02*
X129650000Y-115375000I-225000J0D01*
G01*
X129200000Y-115375000D01*
G75*
G02*
X128975000Y-115150000I0J225000D01*
G01*
X128975000Y-114200000D01*
G75*
G02*
X129200000Y-113975000I225000J0D01*
G01*
X129650000Y-113975000D01*
G75*
G02*
X129875000Y-114200000I0J-225000D01*
G01*
G37*
D21*
X154690000Y-129654000D03*
X154040000Y-129654000D03*
X153390000Y-129654000D03*
X152740000Y-129654000D03*
X152090000Y-129654000D03*
X151440000Y-129654000D03*
X150790000Y-129654000D03*
X150790000Y-135530000D03*
X151440000Y-135530000D03*
X152090000Y-135530000D03*
X152740000Y-135530000D03*
X153390000Y-135530000D03*
X154040000Y-135530000D03*
X154690000Y-135530000D03*
X142650000Y-135538000D03*
X142000000Y-135538000D03*
X141350000Y-135538000D03*
X140700000Y-135538000D03*
X140050000Y-135538000D03*
X139400000Y-135538000D03*
X138750000Y-135538000D03*
X138750000Y-129662000D03*
X139400000Y-129662000D03*
X140050000Y-129662000D03*
X140700000Y-129662000D03*
X141350000Y-129662000D03*
X142000000Y-129662000D03*
X142650000Y-129662000D03*
D22*
X144000000Y-111040000D03*
X144500000Y-111040000D03*
X145000000Y-111040000D03*
X145500000Y-111040000D03*
X146000000Y-111040000D03*
X146500000Y-111040000D03*
X146500000Y-109140000D03*
X146000000Y-109140000D03*
X145500000Y-109140000D03*
X145000000Y-109140000D03*
X144500000Y-109140000D03*
X144000000Y-109140000D03*
D23*
X143750000Y-116850000D03*
X142800000Y-116850000D03*
X141850000Y-116850000D03*
X141850000Y-119350000D03*
X143750000Y-119350000D03*
D24*
X133580000Y-118970000D03*
X136580000Y-118970000D03*
X138080000Y-118970000D03*
M02*
