G04 #@! TF.GenerationSoftware,KiCad,Pcbnew,(5.1.7)-1*
G04 #@! TF.CreationDate,2021-12-01T00:11:57+09:00*
G04 #@! TF.ProjectId,lapis,6c617069-732e-46b6-9963-61645f706362,rev?*
G04 #@! TF.SameCoordinates,Original*
G04 #@! TF.FileFunction,Copper,L2,Bot*
G04 #@! TF.FilePolarity,Positive*
%FSLAX46Y46*%
G04 Gerber Fmt 4.6, Leading zero omitted, Abs format (unit mm)*
G04 Created by KiCad (PCBNEW (5.1.7)-1) date 2021-12-01 00:11:57*
%MOMM*%
%LPD*%
G01*
G04 APERTURE LIST*
G04 #@! TA.AperFunction,ComponentPad*
%ADD10O,1.700000X1.700000*%
G04 #@! TD*
G04 #@! TA.AperFunction,ComponentPad*
%ADD11R,1.700000X1.700000*%
G04 #@! TD*
G04 #@! TA.AperFunction,ComponentPad*
%ADD12O,1.000000X1.000000*%
G04 #@! TD*
G04 #@! TA.AperFunction,ComponentPad*
%ADD13R,1.000000X1.000000*%
G04 #@! TD*
G04 #@! TA.AperFunction,ComponentPad*
%ADD14C,1.000000*%
G04 #@! TD*
G04 #@! TA.AperFunction,ComponentPad*
%ADD15C,1.500000*%
G04 #@! TD*
G04 #@! TA.AperFunction,ComponentPad*
%ADD16O,0.900000X1.400000*%
G04 #@! TD*
G04 #@! TA.AperFunction,ViaPad*
%ADD17C,0.600000*%
G04 #@! TD*
G04 #@! TA.AperFunction,ViaPad*
%ADD18C,0.800000*%
G04 #@! TD*
G04 #@! TA.AperFunction,Conductor*
%ADD19C,0.200000*%
G04 #@! TD*
G04 #@! TA.AperFunction,Conductor*
%ADD20C,0.300000*%
G04 #@! TD*
G04 #@! TA.AperFunction,Conductor*
%ADD21C,0.250000*%
G04 #@! TD*
G04 #@! TA.AperFunction,Conductor*
%ADD22C,0.100000*%
G04 #@! TD*
G04 APERTURE END LIST*
D10*
X183500000Y-124620000D03*
X183500000Y-122080000D03*
X183500000Y-119540000D03*
D11*
X183500000Y-117000000D03*
D10*
X183750000Y-111620000D03*
X183750000Y-109080000D03*
X183750000Y-106540000D03*
D11*
X183750000Y-104000000D03*
D12*
X173550000Y-117525000D03*
X173550000Y-116255000D03*
X173550000Y-114985000D03*
X173550000Y-113715000D03*
X173550000Y-112445000D03*
D13*
X173550000Y-111175000D03*
X143580000Y-121990000D03*
D12*
X144850000Y-121990000D03*
X146120000Y-121990000D03*
X147390000Y-121990000D03*
X148660000Y-121990000D03*
X149930000Y-121990000D03*
D14*
X148500000Y-106400000D03*
X150500000Y-106400000D03*
X141800000Y-106400000D03*
X139600000Y-106400000D03*
G04 #@! TA.AperFunction,SMDPad,CuDef*
G36*
G01*
X151200000Y-136415000D02*
X151200000Y-136965000D01*
G75*
G02*
X150975000Y-137190000I-225000J0D01*
G01*
X150525000Y-137190000D01*
G75*
G02*
X150300000Y-136965000I0J225000D01*
G01*
X150300000Y-136415000D01*
G75*
G02*
X150525000Y-136190000I225000J0D01*
G01*
X150975000Y-136190000D01*
G75*
G02*
X151200000Y-136415000I0J-225000D01*
G01*
G37*
G04 #@! TD.AperFunction*
G04 #@! TA.AperFunction,SMDPad,CuDef*
G36*
G01*
X153200000Y-136415000D02*
X153200000Y-136965000D01*
G75*
G02*
X152975000Y-137190000I-225000J0D01*
G01*
X152525000Y-137190000D01*
G75*
G02*
X152300000Y-136965000I0J225000D01*
G01*
X152300000Y-136415000D01*
G75*
G02*
X152525000Y-136190000I225000J0D01*
G01*
X152975000Y-136190000D01*
G75*
G02*
X153200000Y-136415000I0J-225000D01*
G01*
G37*
G04 #@! TD.AperFunction*
G04 #@! TA.AperFunction,SMDPad,CuDef*
G36*
G01*
X155200000Y-136415000D02*
X155200000Y-136965000D01*
G75*
G02*
X154975000Y-137190000I-225000J0D01*
G01*
X154525000Y-137190000D01*
G75*
G02*
X154300000Y-136965000I0J225000D01*
G01*
X154300000Y-136415000D01*
G75*
G02*
X154525000Y-136190000I225000J0D01*
G01*
X154975000Y-136190000D01*
G75*
G02*
X155200000Y-136415000I0J-225000D01*
G01*
G37*
G04 #@! TD.AperFunction*
G04 #@! TA.AperFunction,SMDPad,CuDef*
G36*
G01*
X139145000Y-136415000D02*
X139145000Y-136965000D01*
G75*
G02*
X138920000Y-137190000I-225000J0D01*
G01*
X138470000Y-137190000D01*
G75*
G02*
X138245000Y-136965000I0J225000D01*
G01*
X138245000Y-136415000D01*
G75*
G02*
X138470000Y-136190000I225000J0D01*
G01*
X138920000Y-136190000D01*
G75*
G02*
X139145000Y-136415000I0J-225000D01*
G01*
G37*
G04 #@! TD.AperFunction*
G04 #@! TA.AperFunction,SMDPad,CuDef*
G36*
G01*
X141145000Y-136415000D02*
X141145000Y-136965000D01*
G75*
G02*
X140920000Y-137190000I-225000J0D01*
G01*
X140470000Y-137190000D01*
G75*
G02*
X140245000Y-136965000I0J225000D01*
G01*
X140245000Y-136415000D01*
G75*
G02*
X140470000Y-136190000I225000J0D01*
G01*
X140920000Y-136190000D01*
G75*
G02*
X141145000Y-136415000I0J-225000D01*
G01*
G37*
G04 #@! TD.AperFunction*
G04 #@! TA.AperFunction,SMDPad,CuDef*
G36*
G01*
X143145000Y-136415000D02*
X143145000Y-136965000D01*
G75*
G02*
X142920000Y-137190000I-225000J0D01*
G01*
X142470000Y-137190000D01*
G75*
G02*
X142245000Y-136965000I0J225000D01*
G01*
X142245000Y-136415000D01*
G75*
G02*
X142470000Y-136190000I225000J0D01*
G01*
X142920000Y-136190000D01*
G75*
G02*
X143145000Y-136415000I0J-225000D01*
G01*
G37*
G04 #@! TD.AperFunction*
G04 #@! TA.AperFunction,SMDPad,CuDef*
G36*
G01*
X140760000Y-132710000D02*
X140760000Y-132510000D01*
G75*
G02*
X140860000Y-132410000I100000J0D01*
G01*
X141295000Y-132410000D01*
G75*
G02*
X141395000Y-132510000I0J-100000D01*
G01*
X141395000Y-132710000D01*
G75*
G02*
X141295000Y-132810000I-100000J0D01*
G01*
X140860000Y-132810000D01*
G75*
G02*
X140760000Y-132710000I0J100000D01*
G01*
G37*
G04 #@! TD.AperFunction*
G04 #@! TA.AperFunction,SMDPad,CuDef*
G36*
G01*
X139945000Y-132710000D02*
X139945000Y-132510000D01*
G75*
G02*
X140045000Y-132410000I100000J0D01*
G01*
X140480000Y-132410000D01*
G75*
G02*
X140580000Y-132510000I0J-100000D01*
G01*
X140580000Y-132710000D01*
G75*
G02*
X140480000Y-132810000I-100000J0D01*
G01*
X140045000Y-132810000D01*
G75*
G02*
X139945000Y-132710000I0J100000D01*
G01*
G37*
G04 #@! TD.AperFunction*
G04 #@! TA.AperFunction,SMDPad,CuDef*
G36*
G01*
X152800000Y-132730000D02*
X152800000Y-132530000D01*
G75*
G02*
X152900000Y-132430000I100000J0D01*
G01*
X153335000Y-132430000D01*
G75*
G02*
X153435000Y-132530000I0J-100000D01*
G01*
X153435000Y-132730000D01*
G75*
G02*
X153335000Y-132830000I-100000J0D01*
G01*
X152900000Y-132830000D01*
G75*
G02*
X152800000Y-132730000I0J100000D01*
G01*
G37*
G04 #@! TD.AperFunction*
G04 #@! TA.AperFunction,SMDPad,CuDef*
G36*
G01*
X151985000Y-132730000D02*
X151985000Y-132530000D01*
G75*
G02*
X152085000Y-132430000I100000J0D01*
G01*
X152520000Y-132430000D01*
G75*
G02*
X152620000Y-132530000I0J-100000D01*
G01*
X152620000Y-132730000D01*
G75*
G02*
X152520000Y-132830000I-100000J0D01*
G01*
X152085000Y-132830000D01*
G75*
G02*
X151985000Y-132730000I0J100000D01*
G01*
G37*
G04 #@! TD.AperFunction*
D15*
X160261547Y-94911355D03*
G04 #@! TA.AperFunction,ComponentPad*
G36*
G01*
X163562631Y-94651403D02*
X163536456Y-95400946D01*
G75*
G02*
X163148597Y-95762631I-374772J13087D01*
G01*
X162399054Y-95736456D01*
G75*
G02*
X162037369Y-95348597I13087J374772D01*
G01*
X162063544Y-94599054D01*
G75*
G02*
X162451403Y-94237369I374772J-13087D01*
G01*
X163200946Y-94263544D01*
G75*
G02*
X163562631Y-94651403I-13087J-374772D01*
G01*
G37*
G04 #@! TD.AperFunction*
G04 #@! TA.AperFunction,ComponentPad*
G36*
G01*
X149999760Y-89162020D02*
X149350240Y-89537020D01*
G75*
G02*
X148837980Y-89399760I-187500J324760D01*
G01*
X148462980Y-88750240D01*
G75*
G02*
X148600240Y-88237980I324760J187500D01*
G01*
X149249760Y-87862980D01*
G75*
G02*
X149762020Y-88000240I187500J-324760D01*
G01*
X150137020Y-88649760D01*
G75*
G02*
X149999760Y-89162020I-324760J-187500D01*
G01*
G37*
G04 #@! TD.AperFunction*
X148030000Y-86500295D03*
X141230000Y-88699705D03*
G04 #@! TA.AperFunction,ComponentPad*
G36*
G01*
X142550240Y-85662980D02*
X143199760Y-86037980D01*
G75*
G02*
X143337020Y-86550240I-187500J-324760D01*
G01*
X142962020Y-87199760D01*
G75*
G02*
X142449760Y-87337020I-324760J187500D01*
G01*
X141800240Y-86962020D01*
G75*
G02*
X141662980Y-86449760I187500J324760D01*
G01*
X142037980Y-85800240D01*
G75*
G02*
X142550240Y-85662980I324760J-187500D01*
G01*
G37*
G04 #@! TD.AperFunction*
X127761547Y-94988645D03*
G04 #@! TA.AperFunction,ComponentPad*
G36*
G01*
X131036456Y-94499054D02*
X131062631Y-95248597D01*
G75*
G02*
X130700946Y-95636456I-374772J-13087D01*
G01*
X129951403Y-95662631D01*
G75*
G02*
X129563544Y-95300946I-13087J374772D01*
G01*
X129537369Y-94551403D01*
G75*
G02*
X129899054Y-94163544I374772J13087D01*
G01*
X130648597Y-94137369D01*
G75*
G02*
X131036456Y-94499054I13087J-374772D01*
G01*
G37*
G04 #@! TD.AperFunction*
G04 #@! TA.AperFunction,ComponentPad*
G36*
G01*
X130936456Y-92599054D02*
X130962631Y-93348597D01*
G75*
G02*
X130600946Y-93736456I-374772J-13087D01*
G01*
X129851403Y-93762631D01*
G75*
G02*
X129463544Y-93400946I-13087J374772D01*
G01*
X129437369Y-92651403D01*
G75*
G02*
X129799054Y-92263544I374772J13087D01*
G01*
X130548597Y-92237369D01*
G75*
G02*
X130936456Y-92599054I13087J-374772D01*
G01*
G37*
G04 #@! TD.AperFunction*
X127661547Y-93088645D03*
G04 #@! TA.AperFunction,ComponentPad*
G36*
G01*
X151599760Y-88162020D02*
X150950240Y-88537020D01*
G75*
G02*
X150437980Y-88399760I-187500J324760D01*
G01*
X150062980Y-87750240D01*
G75*
G02*
X150200240Y-87237980I324760J187500D01*
G01*
X150849760Y-86862980D01*
G75*
G02*
X151362020Y-87000240I187500J-324760D01*
G01*
X151737020Y-87649760D01*
G75*
G02*
X151599760Y-88162020I-324760J-187500D01*
G01*
G37*
G04 #@! TD.AperFunction*
X149630000Y-85500295D03*
X139630000Y-87699705D03*
G04 #@! TA.AperFunction,ComponentPad*
G36*
G01*
X140950240Y-84662980D02*
X141599760Y-85037980D01*
G75*
G02*
X141737020Y-85550240I-187500J-324760D01*
G01*
X141362020Y-86199760D01*
G75*
G02*
X140849760Y-86337020I-324760J187500D01*
G01*
X140200240Y-85962020D01*
G75*
G02*
X140062980Y-85449760I187500J324760D01*
G01*
X140437980Y-84800240D01*
G75*
G02*
X140950240Y-84662980I324760J-187500D01*
G01*
G37*
G04 #@! TD.AperFunction*
X160361547Y-93011355D03*
G04 #@! TA.AperFunction,ComponentPad*
G36*
G01*
X163662631Y-92751403D02*
X163636456Y-93500946D01*
G75*
G02*
X163248597Y-93862631I-374772J13087D01*
G01*
X162499054Y-93836456D01*
G75*
G02*
X162137369Y-93448597I13087J374772D01*
G01*
X162163544Y-92699054D01*
G75*
G02*
X162551403Y-92337369I374772J-13087D01*
G01*
X163300946Y-92363544D01*
G75*
G02*
X163662631Y-92751403I-13087J-374772D01*
G01*
G37*
G04 #@! TD.AperFunction*
D16*
X128175000Y-114675000D03*
G04 #@! TA.AperFunction,ComponentPad*
G36*
G01*
X129875000Y-114200000D02*
X129875000Y-115150000D01*
G75*
G02*
X129650000Y-115375000I-225000J0D01*
G01*
X129200000Y-115375000D01*
G75*
G02*
X128975000Y-115150000I0J225000D01*
G01*
X128975000Y-114200000D01*
G75*
G02*
X129200000Y-113975000I225000J0D01*
G01*
X129650000Y-113975000D01*
G75*
G02*
X129875000Y-114200000I0J-225000D01*
G01*
G37*
G04 #@! TD.AperFunction*
D17*
X138360000Y-101690000D03*
X153600000Y-89000000D03*
X154000000Y-105800000D03*
X136400000Y-105800000D03*
X138400000Y-105800000D03*
X152200000Y-103800000D03*
X151899999Y-96099999D03*
X154200000Y-103800000D03*
X138400000Y-103800000D03*
X136400000Y-103800000D03*
X138752506Y-98952506D03*
X132400000Y-93600000D03*
X158400000Y-91800000D03*
X156800000Y-94800000D03*
X164200000Y-113000000D03*
X140600000Y-122400000D03*
X125600000Y-116400000D03*
X132800000Y-113200000D03*
X133400000Y-92200000D03*
X137400000Y-90400000D03*
X146000000Y-83600000D03*
X157600000Y-99800000D03*
X133600000Y-97200000D03*
X141400000Y-115000000D03*
X161800000Y-121600000D03*
X158400000Y-86200000D03*
X138600000Y-83800000D03*
X158000000Y-116000000D03*
X132000000Y-119400000D03*
X131800000Y-88800000D03*
D18*
X144060000Y-109140000D03*
D17*
X143750000Y-119350000D03*
D18*
X141092500Y-109107500D03*
D17*
X140000000Y-114800000D03*
X150920000Y-82830000D03*
X136400000Y-91800000D03*
X143949991Y-81749991D03*
X156400000Y-91200000D03*
X152100000Y-93900000D03*
X143400000Y-96200000D03*
X143892500Y-87892500D03*
X134600000Y-95800000D03*
X150400000Y-133300000D03*
X150700000Y-130900000D03*
X139220000Y-131020000D03*
X140060000Y-133700000D03*
X154050000Y-134090000D03*
X152800000Y-134200000D03*
X138150000Y-133800000D03*
X152600000Y-130900000D03*
X140250000Y-131200000D03*
X151750000Y-136670000D03*
X141450000Y-131000000D03*
X154600000Y-131200000D03*
X142750000Y-133600000D03*
X154004990Y-132104990D03*
X141725000Y-136725000D03*
X146200000Y-107000000D03*
X146800000Y-95200000D03*
X147200000Y-107800000D03*
X147700000Y-95500000D03*
X160562500Y-113437500D03*
X144800000Y-89800000D03*
X141000000Y-91600000D03*
X142800000Y-93400000D03*
X155200000Y-94400000D03*
X144400000Y-92800000D03*
X153700000Y-108300000D03*
X144800000Y-96000000D03*
X139800000Y-104600000D03*
X151000000Y-94400000D03*
X152300000Y-109700000D03*
X139400000Y-96200000D03*
X144000000Y-98400000D03*
X141800000Y-104000000D03*
X143600000Y-101600000D03*
X145000000Y-104200000D03*
X143000000Y-103800000D03*
X143000000Y-98200000D03*
X142000000Y-101000000D03*
X142000000Y-103000000D03*
X152500000Y-97500000D03*
X139532500Y-116267500D03*
X157800000Y-118400000D03*
X157800000Y-118400000D03*
X138600000Y-93600000D03*
X155800000Y-118000000D03*
X137600000Y-93800000D03*
X155107500Y-119292500D03*
X136400000Y-93600000D03*
X153125000Y-119325000D03*
X135800000Y-94600000D03*
X144800000Y-107400000D03*
X145500000Y-97900000D03*
X146200000Y-108200000D03*
X146000000Y-97000000D03*
X149307500Y-115092500D03*
X151916624Y-99083376D03*
X146800000Y-93400000D03*
X146200000Y-92800000D03*
X146200000Y-89800000D03*
D19*
X152200000Y-103800000D02*
X151899999Y-103499999D01*
X151899999Y-96099999D02*
X151899999Y-96099999D01*
X151899999Y-103499999D02*
X151699999Y-103499999D01*
X151699999Y-103499999D02*
X151200000Y-103000000D01*
X151200000Y-96799998D02*
X151899999Y-96099999D01*
X151200000Y-103000000D02*
X151200000Y-96799998D01*
X138752506Y-98952506D02*
X138800000Y-98905012D01*
X136400000Y-101305012D02*
X136752506Y-100952506D01*
X136400000Y-103800000D02*
X136400000Y-101305012D01*
X136752506Y-100952506D02*
X138752506Y-98952506D01*
X136600000Y-101105012D02*
X136752506Y-100952506D01*
D20*
X141125000Y-109140000D02*
X141092500Y-109107500D01*
X129750192Y-93000000D02*
X130200000Y-93000000D01*
X127761547Y-94988645D02*
X129750192Y-93000000D01*
X141230000Y-85830000D02*
X140900000Y-85500000D01*
X141999706Y-84400294D02*
X140900000Y-85500000D01*
X150158001Y-84400294D02*
X141999706Y-84400294D01*
X150900000Y-85142293D02*
X150158001Y-84400294D01*
X150900000Y-87700000D02*
X150900000Y-85142293D01*
X140800000Y-115600000D02*
X140800000Y-115600000D01*
X144060000Y-109140000D02*
X141125000Y-109140000D01*
X130200000Y-93000000D02*
X130200000Y-88400000D01*
X130200000Y-88400000D02*
X132200000Y-86400000D01*
X140000000Y-86400000D02*
X140900000Y-85500000D01*
X132200000Y-86400000D02*
X140000000Y-86400000D01*
X143750000Y-118550000D02*
X143750000Y-119350000D01*
X140000000Y-114800000D02*
X143750000Y-118550000D01*
D19*
X129000000Y-96200000D02*
X130300000Y-94900000D01*
X127000000Y-96200000D02*
X129000000Y-96200000D01*
X126000000Y-95200000D02*
X127000000Y-96200000D01*
X126000000Y-88843534D02*
X126000000Y-95200000D01*
X142783707Y-88700000D02*
X139683707Y-91800000D01*
X139683707Y-91800000D02*
X136400000Y-91800000D01*
X136400000Y-91800000D02*
X136200000Y-91800000D01*
X142783707Y-88700000D02*
X142783707Y-88616293D01*
X142783707Y-88616293D02*
X142800000Y-88600000D01*
X149200000Y-88600000D02*
X149300000Y-88700000D01*
X142800000Y-88600000D02*
X149200000Y-88600000D01*
X160261547Y-94911355D02*
X161412833Y-96062641D01*
X143949991Y-81749991D02*
X143949991Y-81749991D01*
X158058140Y-82800000D02*
X157008131Y-81749991D01*
X157008131Y-81749991D02*
X143949991Y-81749991D01*
X160261547Y-94911355D02*
X161550192Y-96200000D01*
X161550192Y-96200000D02*
X163600000Y-96200000D01*
X163600000Y-96200000D02*
X164600000Y-95200000D01*
X164600000Y-89341860D02*
X163829070Y-88570930D01*
X164600000Y-95200000D02*
X164600000Y-89341860D01*
X163829070Y-88570930D02*
X158058140Y-82800000D01*
X163962641Y-88704501D02*
X163829070Y-88570930D01*
X161411548Y-92507354D02*
X160104194Y-91200000D01*
X161411548Y-94362005D02*
X161411548Y-92507354D01*
X162049543Y-95000000D02*
X161411548Y-94362005D01*
X162800000Y-95000000D02*
X162049543Y-95000000D01*
X160104194Y-91200000D02*
X156400000Y-91200000D01*
X156400000Y-91200000D02*
X156400000Y-91200000D01*
X152100000Y-93900000D02*
X152000000Y-93800000D01*
X150711998Y-93800000D02*
X150111998Y-94400000D01*
X152000000Y-93800000D02*
X150711998Y-93800000D01*
X150111998Y-94400000D02*
X145200000Y-94400000D01*
X145200000Y-94400000D02*
X143400000Y-96200000D01*
X140379999Y-86949706D02*
X139630000Y-87699705D01*
X141034003Y-86949706D02*
X140379999Y-86949706D01*
X141976797Y-87892500D02*
X141034003Y-86949706D01*
X143892500Y-87892500D02*
X141976797Y-87892500D01*
X134600000Y-92800000D02*
X134600000Y-92800000D01*
X134600000Y-95800000D02*
X134600000Y-95800000D01*
X134600000Y-92800000D02*
X134600000Y-95800000D01*
X134600000Y-92729705D02*
X134600000Y-92800000D01*
X136164853Y-91164853D02*
X134600000Y-92729705D01*
X138635147Y-91164853D02*
X136164853Y-91164853D01*
X139630000Y-90170000D02*
X138635147Y-91164853D01*
X139630000Y-87699705D02*
X139630000Y-90170000D01*
D21*
X150400000Y-133300000D02*
X150400000Y-131200000D01*
X150400000Y-131200000D02*
X150700000Y-130900000D01*
X150700000Y-130900000D02*
X150700000Y-130900000D01*
X141077500Y-132713558D02*
X141077500Y-132610000D01*
X140990000Y-132240352D02*
X140990000Y-132610000D01*
X140834638Y-132084990D02*
X140990000Y-132240352D01*
X139220000Y-131444264D02*
X139860726Y-132084990D01*
X139860726Y-132084990D02*
X140834638Y-132084990D01*
X139220000Y-131020000D02*
X139220000Y-131444264D01*
X138695000Y-135105000D02*
X138695000Y-135505000D01*
X140990000Y-132610000D02*
X140990000Y-132810000D01*
X140990000Y-132810000D02*
X138695000Y-135105000D01*
X138695000Y-136690000D02*
X138695000Y-135505000D01*
X153030000Y-133070000D02*
X154050000Y-134090000D01*
X153030000Y-132630000D02*
X153030000Y-133070000D01*
X138540000Y-132610000D02*
X138150000Y-133000000D01*
X138150000Y-133000000D02*
X138150000Y-133800000D01*
X138150000Y-133800000D02*
X138150000Y-133800000D01*
X138540000Y-132610000D02*
X140350000Y-132610000D01*
X152390000Y-133790000D02*
X152800000Y-134200000D01*
X152390000Y-132630000D02*
X152390000Y-133790000D01*
X154750000Y-136150000D02*
X152800000Y-134200000D01*
X154750000Y-136690000D02*
X154750000Y-136150000D01*
X152600000Y-130900000D02*
X152600000Y-130900000D01*
X152034315Y-130900000D02*
X151209980Y-131724335D01*
X152600000Y-130900000D02*
X152034315Y-130900000D01*
X140250000Y-131200000D02*
X140250000Y-131200000D01*
X151810000Y-136690000D02*
X151736412Y-136690000D01*
X151209980Y-131724335D02*
X151209980Y-135736790D01*
X151750000Y-136276810D02*
X151750000Y-136670000D01*
X151209980Y-135736790D02*
X151750000Y-136276810D01*
X140695000Y-135118590D02*
X140695000Y-136690000D01*
X141720010Y-134093580D02*
X140695000Y-135118590D01*
X141720010Y-132245746D02*
X141720010Y-134093580D01*
X140674264Y-131200000D02*
X141720010Y-132245746D01*
X140250000Y-131200000D02*
X140674264Y-131200000D01*
X142450000Y-132200000D02*
X141450000Y-131200000D01*
X141450000Y-131200000D02*
X141450000Y-131000000D01*
X141450000Y-131000000D02*
X141450000Y-131000000D01*
X142695000Y-136340000D02*
X142695000Y-136690000D01*
X143375001Y-135659999D02*
X142695000Y-136340000D01*
X143375001Y-133125001D02*
X143375001Y-135659999D01*
X142450000Y-132200000D02*
X143375001Y-133125001D01*
X154600000Y-131200000D02*
X154600000Y-131200000D01*
X150750000Y-136690000D02*
X150690000Y-136690000D01*
X149774999Y-130899999D02*
X149774999Y-135364999D01*
X150399999Y-130274999D02*
X149774999Y-130899999D01*
X153674999Y-130274999D02*
X150399999Y-130274999D01*
X154600000Y-131200000D02*
X153674999Y-130274999D01*
X150750000Y-136340000D02*
X150750000Y-136690000D01*
X149774999Y-135364999D02*
X150750000Y-136340000D01*
X151659990Y-132353952D02*
X151908952Y-132104990D01*
X152750000Y-135223002D02*
X151659990Y-134132992D01*
X151659990Y-134132992D02*
X151659990Y-132353952D01*
X152750000Y-136690000D02*
X152750000Y-135223002D01*
X151908952Y-132104990D02*
X154004990Y-132104990D01*
X142750000Y-133700000D02*
X142750000Y-133600000D01*
X142750000Y-133600000D02*
X142750000Y-133600000D01*
X154004990Y-132104990D02*
X154004990Y-132104990D01*
D19*
X142750000Y-135180000D02*
X141700000Y-136230000D01*
X142750000Y-133600000D02*
X142750000Y-135180000D01*
X141700000Y-136230000D02*
X141700000Y-136710000D01*
X141700000Y-136710000D02*
X141710000Y-136710000D01*
X141710000Y-136710000D02*
X141725000Y-136725000D01*
X141710000Y-136710000D02*
X141690000Y-136710000D01*
X146200000Y-107000000D02*
X146800000Y-106400000D01*
X146800000Y-95200000D02*
X146800000Y-95000000D01*
X146800000Y-106400000D02*
X146800000Y-95200000D01*
X147200000Y-96000000D02*
X147700000Y-95500000D01*
X147200000Y-107800000D02*
X147200000Y-96000000D01*
X147700000Y-95500000D02*
X147800000Y-95400000D01*
D21*
X160562500Y-113437500D02*
X159837500Y-113437500D01*
X160562500Y-113437500D02*
X159583140Y-113437500D01*
D19*
X159583140Y-113437500D02*
X157872820Y-111727180D01*
X157872820Y-111727180D02*
X157600040Y-111454400D01*
X157600040Y-111454400D02*
X157600040Y-111400000D01*
X144800000Y-89600000D02*
X144800000Y-89600000D01*
X145799970Y-90799970D02*
X144800000Y-89800000D01*
X152400030Y-90799970D02*
X145799970Y-90799970D01*
X152462501Y-90737499D02*
X152400030Y-90799970D01*
X155825001Y-94099999D02*
X152462501Y-90737499D01*
X155825001Y-94700001D02*
X155825001Y-94099999D01*
X155600000Y-94925002D02*
X155825001Y-94700001D01*
X155600000Y-98890770D02*
X155600000Y-94925002D01*
X157600040Y-100890810D02*
X155600000Y-98890770D01*
X157600040Y-111454400D02*
X157600040Y-100890810D01*
X142800000Y-93400000D02*
X141000000Y-91600000D01*
X148660000Y-121282894D02*
X148792864Y-121150030D01*
X148660000Y-121990000D02*
X148660000Y-121282894D01*
X157150030Y-111640800D02*
X157150030Y-102000000D01*
X157550030Y-112040800D02*
X157150030Y-111640800D01*
X157150030Y-102000000D02*
X157150030Y-101077210D01*
X157150030Y-101077210D02*
X157150028Y-101077208D01*
X157150028Y-101077208D02*
X154636410Y-98563590D01*
X154636410Y-98563590D02*
X154636410Y-96563590D01*
X154636410Y-96563590D02*
X154636410Y-96163590D01*
X154636410Y-96163590D02*
X154636410Y-94963590D01*
X154636410Y-94963590D02*
X155200000Y-94400000D01*
D21*
X155200000Y-94400000D02*
X155200000Y-94400000D01*
D19*
X148792864Y-121150030D02*
X150550030Y-121150030D01*
X150550030Y-121150030D02*
X152000000Y-122600000D01*
X152000000Y-122600000D02*
X158473872Y-122600000D01*
X158473872Y-122600000D02*
X159948844Y-121125028D01*
X161500029Y-119573843D02*
X160436936Y-120636936D01*
X160436936Y-120636936D02*
X160536936Y-120536936D01*
X159948844Y-121125028D02*
X160436936Y-120636936D01*
X161500029Y-119299971D02*
X161500029Y-115990799D01*
X161354615Y-115845385D02*
X157554615Y-112045385D01*
X161500029Y-119099971D02*
X161500029Y-119299971D01*
X161500029Y-115990799D02*
X161354615Y-115845385D01*
X161500029Y-119299971D02*
X161500029Y-119573843D01*
X161000000Y-119400038D02*
X161100019Y-119300019D01*
X152165699Y-122200000D02*
X158308174Y-122200000D01*
X150800000Y-120834301D02*
X152165699Y-122200000D01*
X158308174Y-122200000D02*
X161000000Y-119508174D01*
X150800000Y-120800000D02*
X150800000Y-120834301D01*
X150700020Y-120700020D02*
X150800000Y-120800000D01*
X147499980Y-120700020D02*
X150700020Y-120700020D01*
X147390000Y-120810000D02*
X147499980Y-120700020D01*
X161000000Y-119508174D02*
X161000000Y-119400038D01*
X147390000Y-121990000D02*
X147390000Y-120810000D01*
X161100019Y-119372799D02*
X161100019Y-119300019D01*
X161100019Y-116500019D02*
X161100019Y-119300019D01*
X161100018Y-116227198D02*
X161100019Y-116500019D01*
X156700020Y-111827200D02*
X161100018Y-116227198D01*
X156700020Y-102013600D02*
X156700020Y-111827200D01*
X156700019Y-101263609D02*
X156700020Y-102013600D01*
X154100018Y-98663608D02*
X156700019Y-101263609D01*
X154100018Y-93627198D02*
X154100018Y-98663608D01*
X151672800Y-91199980D02*
X154100018Y-93627198D01*
X144600020Y-91199980D02*
X151672800Y-91199980D01*
X144400000Y-91400000D02*
X144600020Y-91199980D01*
X144400000Y-92800000D02*
X144400000Y-92800000D01*
X144400000Y-92800000D02*
X144400000Y-91400000D01*
X143200000Y-107243998D02*
X146556002Y-110600000D01*
X143200000Y-106215998D02*
X143200000Y-107243998D01*
X142492001Y-105507999D02*
X143200000Y-106215998D01*
X142184001Y-105199999D02*
X142492001Y-105507999D01*
X138400000Y-104600000D02*
X138400000Y-103800000D01*
X139307999Y-105507999D02*
X138400000Y-104600000D01*
X142492001Y-105507999D02*
X139307999Y-105507999D01*
X153700000Y-108300000D02*
X152500000Y-108300000D01*
X152500000Y-108300000D02*
X150400000Y-110400000D01*
X150400000Y-110400000D02*
X150200000Y-110600000D01*
X146556002Y-110600000D02*
X150200000Y-110600000D01*
X142946298Y-96800001D02*
X143999999Y-96800001D01*
X139800001Y-99946298D02*
X142946298Y-96800001D01*
X139800001Y-102399999D02*
X139800001Y-99946298D01*
X138400000Y-103800000D02*
X139800001Y-102399999D01*
X143999999Y-96800001D02*
X144800000Y-96000000D01*
X144800000Y-96000000D02*
X145000000Y-95800000D01*
X143600010Y-106050309D02*
X142149701Y-104600000D01*
X143600010Y-107078310D02*
X143600010Y-106050309D01*
X146721690Y-110199990D02*
X143600010Y-107078310D01*
X142149701Y-104600000D02*
X140200000Y-104600000D01*
X140200000Y-104600000D02*
X139800000Y-104600000D01*
X139800000Y-104600000D02*
X139800000Y-104600000D01*
X154000000Y-106199980D02*
X149999990Y-110199990D01*
X154000000Y-105800000D02*
X154000000Y-106199980D01*
X149999990Y-110199990D02*
X146721690Y-110199990D01*
X150799990Y-104794978D02*
X150799990Y-96312006D01*
X153624254Y-106600010D02*
X152605022Y-106600010D01*
X154000000Y-106224264D02*
X153624254Y-106600010D01*
X152605022Y-106600010D02*
X150799990Y-104794978D01*
X154000000Y-105800000D02*
X154000000Y-106224264D01*
X150799990Y-96312006D02*
X150799990Y-94600010D01*
X150799990Y-94600010D02*
X151000000Y-94400000D01*
X151000000Y-94400000D02*
X151000000Y-94400000D01*
X136400000Y-106224264D02*
X136400000Y-105800000D01*
X141175746Y-111000010D02*
X136400000Y-106224264D01*
X150999990Y-111000010D02*
X141175746Y-111000010D01*
X152300000Y-109700000D02*
X150999990Y-111000010D01*
X136400000Y-105800000D02*
X135999999Y-105399999D01*
X138817010Y-98000000D02*
X138817010Y-96782990D01*
X138817010Y-96782990D02*
X139400000Y-96200000D01*
X139400000Y-96200000D02*
X139400000Y-96200000D01*
X135799999Y-105199999D02*
X135799999Y-101017011D01*
X136400000Y-105800000D02*
X135799999Y-105199999D01*
X135799999Y-101017011D02*
X136208505Y-100608505D01*
X136208505Y-100608505D02*
X138817010Y-98000000D01*
X135999999Y-100817011D02*
X136208505Y-100608505D01*
X141399999Y-98911999D02*
X141399999Y-103599999D01*
X143624263Y-97599999D02*
X142711999Y-97599999D01*
X144000000Y-97975736D02*
X143624263Y-97599999D01*
X142711999Y-97599999D02*
X141399999Y-98911999D01*
X144000000Y-98400000D02*
X144000000Y-97975736D01*
X141399999Y-103599999D02*
X141800000Y-104000000D01*
X141800000Y-104000000D02*
X141800000Y-104000000D01*
X143600000Y-101600000D02*
X143600000Y-102400000D01*
X143600000Y-102400000D02*
X145000000Y-103800000D01*
X145000000Y-103800000D02*
X145000000Y-103800000D01*
X145000000Y-103800000D02*
X145000000Y-104200000D01*
X145000000Y-104200000D02*
X145000000Y-104200000D01*
X143000000Y-98200000D02*
X143000000Y-103800000D01*
X142000000Y-101000000D02*
X142000000Y-102800000D01*
X142000000Y-102800000D02*
X142000000Y-103000000D01*
X142000000Y-103000000D02*
X142000000Y-103000000D01*
X142000000Y-103000000D02*
X142000000Y-103000000D01*
X143290737Y-120050001D02*
X144348945Y-120050001D01*
X139532500Y-116291764D02*
X143290737Y-120050001D01*
X155374990Y-101976044D02*
X152600000Y-99201054D01*
X155374990Y-114774990D02*
X155374990Y-101976044D01*
X152600000Y-99201054D02*
X152600000Y-97600000D01*
X152600000Y-97600000D02*
X152500000Y-97500000D01*
X159200000Y-118600000D02*
X159200000Y-119400000D01*
X159200000Y-119400000D02*
X157800000Y-120800000D01*
X157800000Y-120800000D02*
X157800000Y-120834302D01*
X159200000Y-118600000D02*
X155374990Y-114774990D01*
X157800000Y-120834302D02*
X157634332Y-120999970D01*
X144998954Y-119399992D02*
X144799473Y-119599473D01*
X151165690Y-119399992D02*
X144998954Y-119399992D01*
X152765668Y-120999970D02*
X151165690Y-119399992D01*
X157634332Y-120999970D02*
X152765668Y-120999970D01*
X144799473Y-119599473D02*
X145023956Y-119374990D01*
X144348945Y-120050001D02*
X144799473Y-119599473D01*
X139532500Y-116267500D02*
X139532500Y-116291764D01*
X138600000Y-93600000D02*
X138600000Y-93600000D01*
X156399970Y-116999970D02*
X157800000Y-118400000D01*
X138200000Y-94000000D02*
X138200000Y-97600000D01*
X138200000Y-97600000D02*
X134599999Y-101200001D01*
X134599999Y-101200001D02*
X134594187Y-101200001D01*
X138600000Y-93600000D02*
X138200000Y-94000000D01*
X134594187Y-101200001D02*
X134497094Y-101297094D01*
X142297076Y-113199980D02*
X142765716Y-113668619D01*
X142765716Y-113668619D02*
X142765717Y-113668623D01*
X146097064Y-116999970D02*
X156399970Y-116999970D01*
X144348547Y-115251453D02*
X141697094Y-112600000D01*
X142765717Y-113668623D02*
X144348547Y-115251453D01*
X144348547Y-115251453D02*
X146097064Y-116999970D01*
X135794188Y-112600000D02*
X134497094Y-111302906D01*
X141697094Y-112600000D02*
X135794188Y-112600000D01*
X134497094Y-101297094D02*
X134497094Y-111302906D01*
X134000020Y-101131376D02*
X137000008Y-98131388D01*
X137600000Y-97531396D02*
X137165698Y-97965698D01*
X134000020Y-101131376D02*
X137165698Y-97965698D01*
X134000020Y-111371531D02*
X135628489Y-113000000D01*
X134000020Y-101131376D02*
X134000020Y-111371531D01*
X145931376Y-117399980D02*
X155199980Y-117399980D01*
X141531396Y-113000000D02*
X145931376Y-117399980D01*
X135628489Y-113000000D02*
X141531396Y-113000000D01*
X155199980Y-117399980D02*
X155800000Y-118000000D01*
X155800000Y-118000000D02*
X155800000Y-118000000D01*
X137600000Y-93800000D02*
X137600000Y-97531396D01*
X133600010Y-100965688D02*
X136600000Y-97965698D01*
X133600010Y-111634312D02*
X133600010Y-100965688D01*
X136600000Y-96000000D02*
X136600000Y-93800000D01*
X136600000Y-97965698D02*
X136600000Y-96000000D01*
X136600000Y-96000000D02*
X136600000Y-94600000D01*
X136600000Y-93800000D02*
X136400000Y-93600000D01*
X136400000Y-93600000D02*
X136400000Y-93600000D01*
X135365717Y-113400020D02*
X133600010Y-111634313D01*
X133600010Y-111634313D02*
X133600010Y-111199990D01*
X141365718Y-113400020D02*
X135365717Y-113400020D01*
X145765688Y-117799990D02*
X141365718Y-113400020D01*
X153614990Y-117799990D02*
X145765688Y-117799990D01*
X155107500Y-119292500D02*
X153614990Y-117799990D01*
X133200000Y-100800000D02*
X136200000Y-97800000D01*
X136200000Y-97800000D02*
X136200000Y-95000000D01*
X136200000Y-95000000D02*
X135800000Y-94600000D01*
X135800000Y-94600000D02*
X135800000Y-94600000D01*
X135200028Y-113800030D02*
X133200000Y-111800002D01*
X141200030Y-113800030D02*
X135200028Y-113800030D01*
X152000000Y-118200000D02*
X145600000Y-118200000D01*
X153125000Y-119325000D02*
X152000000Y-118200000D01*
X133200000Y-111800002D02*
X133200000Y-111000000D01*
X145600000Y-118200000D02*
X141200030Y-113800030D01*
X133200000Y-111000000D02*
X133200000Y-100800000D01*
X133200000Y-111800000D02*
X133200000Y-111000000D01*
X144800000Y-105400000D02*
X146000000Y-104200000D01*
X146000000Y-104200000D02*
X146000000Y-98400000D01*
X146000000Y-98400000D02*
X145500000Y-97900000D01*
X144800000Y-105400000D02*
X144800000Y-107400000D01*
X146200000Y-108200000D02*
X145599999Y-107599999D01*
X145599999Y-107599999D02*
X145599999Y-105200001D01*
X145599999Y-105200001D02*
X146400000Y-104400000D01*
X146400000Y-104400000D02*
X146400000Y-97400000D01*
X146400000Y-97400000D02*
X146000000Y-97000000D01*
X154800001Y-107511999D02*
X154800001Y-102005013D01*
X154300001Y-108011999D02*
X154800001Y-107511999D01*
X154300001Y-110099999D02*
X154300001Y-108011999D01*
X149307500Y-115092500D02*
X154300001Y-110099999D01*
X151916624Y-99083376D02*
X151800000Y-98966752D01*
X154800001Y-101966753D02*
X151916624Y-99083376D01*
X154800001Y-102005013D02*
X154800001Y-101966753D01*
X144850000Y-120150000D02*
X144850000Y-121990000D01*
X145150000Y-119850000D02*
X144850000Y-120150000D01*
X151050000Y-119850000D02*
X145150000Y-119850000D01*
X157800020Y-121399980D02*
X152599980Y-121399980D01*
X152599980Y-121399980D02*
X151050000Y-119850000D01*
X160200000Y-116600000D02*
X160200000Y-119000000D01*
X153200000Y-99200000D02*
X155800000Y-101800000D01*
X160200000Y-119000000D02*
X157800020Y-121399980D01*
X153200000Y-94000000D02*
X153200000Y-99200000D01*
X155800000Y-112200000D02*
X160200000Y-116600000D01*
X155800000Y-101800000D02*
X155800000Y-112200000D01*
X147400000Y-92800000D02*
X147400000Y-92800000D01*
X147400000Y-92800000D02*
X146800000Y-93400000D01*
X146800000Y-93400000D02*
X146800000Y-93400000D01*
X151200000Y-92000000D02*
X148200000Y-92000000D01*
X148200000Y-92000000D02*
X147400000Y-92800000D01*
X151200000Y-92000000D02*
X153200000Y-94000000D01*
X159586401Y-120250009D02*
X160650010Y-119186400D01*
X160650010Y-119186400D02*
X160650009Y-116413599D01*
X146120000Y-120480000D02*
X146349990Y-120250010D01*
X146120000Y-121990000D02*
X146120000Y-120480000D01*
X160650009Y-119115689D02*
X157965708Y-121799990D01*
X160650009Y-116413599D02*
X160650009Y-119115689D01*
X157965708Y-121799990D02*
X152331387Y-121799990D01*
X150815709Y-120250010D02*
X146349990Y-120250010D01*
X151200010Y-120634311D02*
X150815709Y-120250010D01*
X151200010Y-120668613D02*
X151200010Y-120634311D01*
X152331387Y-121799990D02*
X151200010Y-120668613D01*
X156250010Y-102200000D02*
X156250010Y-101450010D01*
X156250010Y-101450010D02*
X153650010Y-98850010D01*
X153650010Y-98850010D02*
X153650009Y-93813599D01*
X160650009Y-116413599D02*
X156250010Y-112013600D01*
X156250010Y-112013600D02*
X156250010Y-102200000D01*
X147400000Y-91600000D02*
X146200000Y-92800000D01*
X146200000Y-92800000D02*
X146200000Y-92800000D01*
X151436400Y-91599990D02*
X151718205Y-91881795D01*
X147400010Y-91599990D02*
X151436400Y-91599990D01*
X146200000Y-92800000D02*
X147400010Y-91599990D01*
X153650009Y-93813599D02*
X151718205Y-91881795D01*
X146200000Y-89800000D02*
X146200000Y-89800000D01*
X152200040Y-90399960D02*
X153600000Y-89000000D01*
X146799960Y-90399960D02*
X152200040Y-90399960D01*
X146200000Y-89800000D02*
X146799960Y-90399960D01*
X132013534Y-82830000D02*
X131661767Y-83181767D01*
X150920000Y-82830000D02*
X132013534Y-82830000D01*
X131661767Y-83181767D02*
X126000000Y-88843534D01*
X132021767Y-82821767D02*
X131661767Y-83181767D01*
D21*
X173550000Y-113715000D02*
X175215000Y-113715000D01*
X181040000Y-119540000D02*
X183000000Y-119540000D01*
X175215000Y-113715000D02*
X181040000Y-119540000D01*
X183000000Y-117000000D02*
X180500000Y-117000000D01*
X175945000Y-112445000D02*
X173550000Y-112445000D01*
X180500000Y-117000000D02*
X175945000Y-112445000D01*
D19*
X157755572Y-83133828D02*
X157755578Y-83133833D01*
X161804039Y-87182295D01*
X161292442Y-87164429D01*
X161272886Y-87161811D01*
X161253194Y-87163058D01*
X161253184Y-87163058D01*
X161197851Y-87166564D01*
X161194250Y-87166792D01*
X161118099Y-87187019D01*
X161047356Y-87221714D01*
X160984740Y-87269544D01*
X160973204Y-87282641D01*
X160932659Y-87328670D01*
X160893114Y-87396820D01*
X160867624Y-87471376D01*
X160857169Y-87549473D01*
X160858418Y-87569179D01*
X160751599Y-90628020D01*
X160748980Y-90647585D01*
X160750228Y-90667285D01*
X160750228Y-90667287D01*
X160753104Y-90712677D01*
X160753962Y-90726220D01*
X160774189Y-90802372D01*
X160808884Y-90873115D01*
X160856714Y-90935731D01*
X160892649Y-90967384D01*
X160915840Y-90987812D01*
X160983991Y-91027357D01*
X161058546Y-91052847D01*
X161136643Y-91063302D01*
X161156350Y-91062053D01*
X162216398Y-91099070D01*
X162235973Y-91101691D01*
X162314608Y-91096709D01*
X162390760Y-91076482D01*
X162461503Y-91041787D01*
X162480394Y-91027357D01*
X162524119Y-90993957D01*
X162576200Y-90934831D01*
X162615745Y-90866680D01*
X162617610Y-90861224D01*
X162641235Y-90792125D01*
X162643403Y-90775931D01*
X162651690Y-90714028D01*
X162650441Y-90694321D01*
X162740386Y-88118642D01*
X163526502Y-88904758D01*
X163526507Y-88904762D01*
X164150001Y-89528257D01*
X164150000Y-95013604D01*
X163892911Y-95270693D01*
X163914109Y-94663678D01*
X163905102Y-94521506D01*
X163868532Y-94383823D01*
X163805804Y-94255920D01*
X163719329Y-94142713D01*
X163661939Y-94092162D01*
X163757287Y-94019329D01*
X163851449Y-93912429D01*
X163922946Y-93789214D01*
X163969032Y-93654418D01*
X163987934Y-93513221D01*
X164014109Y-92763678D01*
X164005102Y-92621506D01*
X163968532Y-92483823D01*
X163905804Y-92355920D01*
X163819329Y-92242713D01*
X163712429Y-92148551D01*
X163589214Y-92077054D01*
X163454418Y-92030968D01*
X163313221Y-92012066D01*
X162563678Y-91985891D01*
X162421506Y-91994898D01*
X162283823Y-92031468D01*
X162155920Y-92094196D01*
X162042713Y-92180671D01*
X161948551Y-92287571D01*
X161877054Y-92410786D01*
X161859322Y-92462649D01*
X161855037Y-92419139D01*
X161829305Y-92334313D01*
X161822084Y-92320804D01*
X161787519Y-92256137D01*
X161745376Y-92204786D01*
X161745372Y-92204782D01*
X161731285Y-92187617D01*
X161714120Y-92173530D01*
X160438023Y-90897434D01*
X160423931Y-90880263D01*
X160355410Y-90824029D01*
X160277235Y-90782243D01*
X160192409Y-90756511D01*
X160126299Y-90750000D01*
X160126288Y-90750000D01*
X160104194Y-90747824D01*
X160082100Y-90750000D01*
X156869239Y-90750000D01*
X156814351Y-90695112D01*
X156707890Y-90623978D01*
X156589598Y-90574979D01*
X156464019Y-90550000D01*
X156335981Y-90550000D01*
X156210402Y-90574979D01*
X156092110Y-90623978D01*
X155985649Y-90695112D01*
X155895112Y-90785649D01*
X155823978Y-90892110D01*
X155774979Y-91010402D01*
X155750000Y-91135981D01*
X155750000Y-91264019D01*
X155774979Y-91389598D01*
X155823978Y-91507890D01*
X155895112Y-91614351D01*
X155985649Y-91704888D01*
X156092110Y-91776022D01*
X156210402Y-91825021D01*
X156335981Y-91850000D01*
X156464019Y-91850000D01*
X156589598Y-91825021D01*
X156707890Y-91776022D01*
X156814351Y-91704888D01*
X156869239Y-91650000D01*
X159917799Y-91650000D01*
X160191440Y-91923641D01*
X160040689Y-91953628D01*
X159840502Y-92036548D01*
X159660338Y-92156930D01*
X159507122Y-92310146D01*
X159386740Y-92490310D01*
X159303820Y-92690497D01*
X159261547Y-92903014D01*
X159261547Y-93119696D01*
X159303820Y-93332213D01*
X159386740Y-93532400D01*
X159507122Y-93712564D01*
X159660338Y-93865780D01*
X159756396Y-93929964D01*
X159740502Y-93936548D01*
X159560338Y-94056930D01*
X159407122Y-94210146D01*
X159286740Y-94390310D01*
X159203820Y-94590497D01*
X159161547Y-94803014D01*
X159161547Y-95019696D01*
X159203820Y-95232213D01*
X159286740Y-95432400D01*
X159407122Y-95612564D01*
X159560338Y-95765780D01*
X159740502Y-95886162D01*
X159940689Y-95969082D01*
X160153206Y-96011355D01*
X160369888Y-96011355D01*
X160582405Y-95969082D01*
X160653451Y-95939654D01*
X161013797Y-96300001D01*
X158269646Y-96300001D01*
X158250000Y-96298066D01*
X158230353Y-96300001D01*
X158171586Y-96305789D01*
X158096186Y-96328661D01*
X158026697Y-96365804D01*
X157965789Y-96415790D01*
X157915803Y-96476698D01*
X157878660Y-96546187D01*
X157855788Y-96621587D01*
X157848065Y-96700001D01*
X157850000Y-96719648D01*
X157850000Y-100504374D01*
X156983434Y-99637809D01*
X157031576Y-99628233D01*
X157207255Y-99555465D01*
X157365361Y-99449821D01*
X157499820Y-99315362D01*
X157605464Y-99157256D01*
X157678232Y-98981577D01*
X157715329Y-98795078D01*
X157715329Y-98604924D01*
X157678232Y-98418425D01*
X157605464Y-98242746D01*
X157499820Y-98084640D01*
X157365361Y-97950181D01*
X157207255Y-97844537D01*
X157031576Y-97771769D01*
X156845077Y-97734672D01*
X156654923Y-97734672D01*
X156468424Y-97771769D01*
X156292745Y-97844537D01*
X156134639Y-97950181D01*
X156050000Y-98034820D01*
X156050000Y-95111397D01*
X156127568Y-95033829D01*
X156144738Y-95019738D01*
X156200972Y-94951217D01*
X156242758Y-94873042D01*
X156268490Y-94788216D01*
X156275001Y-94722106D01*
X156275001Y-94722094D01*
X156277177Y-94700002D01*
X156275001Y-94677910D01*
X156275001Y-94122093D01*
X156277177Y-94099998D01*
X156275001Y-94077904D01*
X156275001Y-94077894D01*
X156268490Y-94011784D01*
X156242758Y-93926958D01*
X156225736Y-93895112D01*
X156200972Y-93848782D01*
X156158829Y-93797431D01*
X156158825Y-93797427D01*
X156144738Y-93780262D01*
X156127573Y-93766175D01*
X152798896Y-90437499D01*
X153586396Y-89650000D01*
X153664019Y-89650000D01*
X153789598Y-89625021D01*
X153907890Y-89576022D01*
X154014351Y-89504888D01*
X154104888Y-89414351D01*
X154176022Y-89307890D01*
X154225021Y-89189598D01*
X154250000Y-89064019D01*
X154250000Y-88935981D01*
X154225021Y-88810402D01*
X154176022Y-88692110D01*
X154104888Y-88585649D01*
X154014351Y-88495112D01*
X153907890Y-88423978D01*
X153789598Y-88374979D01*
X153664019Y-88350000D01*
X153535981Y-88350000D01*
X153410402Y-88374979D01*
X153292110Y-88423978D01*
X153185649Y-88495112D01*
X153095112Y-88585649D01*
X153023978Y-88692110D01*
X152974979Y-88810402D01*
X152950000Y-88935981D01*
X152950000Y-89013604D01*
X152013645Y-89949960D01*
X146986356Y-89949960D01*
X146850000Y-89813604D01*
X146850000Y-89735981D01*
X146825021Y-89610402D01*
X146776022Y-89492110D01*
X146704888Y-89385649D01*
X146614351Y-89295112D01*
X146507890Y-89223978D01*
X146389598Y-89174979D01*
X146264019Y-89150000D01*
X146135981Y-89150000D01*
X146010402Y-89174979D01*
X145892110Y-89223978D01*
X145785649Y-89295112D01*
X145695112Y-89385649D01*
X145623978Y-89492110D01*
X145574979Y-89610402D01*
X145550000Y-89735981D01*
X145550000Y-89864019D01*
X145562312Y-89925917D01*
X145450000Y-89813605D01*
X145450000Y-89735981D01*
X145425021Y-89610402D01*
X145376022Y-89492110D01*
X145304888Y-89385649D01*
X145214351Y-89295112D01*
X145107890Y-89223978D01*
X144989598Y-89174979D01*
X144864019Y-89150000D01*
X144735981Y-89150000D01*
X144610402Y-89174979D01*
X144492110Y-89223978D01*
X144385649Y-89295112D01*
X144295112Y-89385649D01*
X144223978Y-89492110D01*
X144174979Y-89610402D01*
X144150000Y-89735981D01*
X144150000Y-89864019D01*
X144174979Y-89989598D01*
X144223978Y-90107890D01*
X144295112Y-90214351D01*
X144385649Y-90304888D01*
X144492110Y-90376022D01*
X144610402Y-90425021D01*
X144735981Y-90450000D01*
X144813605Y-90450000D01*
X145113584Y-90749980D01*
X144622114Y-90749980D01*
X144600020Y-90747804D01*
X144577925Y-90749980D01*
X144577915Y-90749980D01*
X144511805Y-90756491D01*
X144426979Y-90782223D01*
X144348804Y-90824009D01*
X144280283Y-90880243D01*
X144266191Y-90897414D01*
X144097429Y-91066176D01*
X144080264Y-91080263D01*
X144066177Y-91097428D01*
X144066172Y-91097433D01*
X144024029Y-91148784D01*
X143982243Y-91226960D01*
X143956512Y-91311785D01*
X143947824Y-91400000D01*
X143950001Y-91422104D01*
X143950000Y-92330761D01*
X143895112Y-92385649D01*
X143823978Y-92492110D01*
X143774979Y-92610402D01*
X143750000Y-92735981D01*
X143750000Y-92864019D01*
X143774979Y-92989598D01*
X143823978Y-93107890D01*
X143895112Y-93214351D01*
X143985649Y-93304888D01*
X144092110Y-93376022D01*
X144210402Y-93425021D01*
X144335981Y-93450000D01*
X144464019Y-93450000D01*
X144589598Y-93425021D01*
X144707890Y-93376022D01*
X144814351Y-93304888D01*
X144904888Y-93214351D01*
X144976022Y-93107890D01*
X145025021Y-92989598D01*
X145050000Y-92864019D01*
X145050000Y-92735981D01*
X145025021Y-92610402D01*
X144976022Y-92492110D01*
X144904888Y-92385649D01*
X144850000Y-92330761D01*
X144850000Y-91649980D01*
X146713624Y-91649980D01*
X146213605Y-92150000D01*
X146135981Y-92150000D01*
X146010402Y-92174979D01*
X145892110Y-92223978D01*
X145785649Y-92295112D01*
X145695112Y-92385649D01*
X145623978Y-92492110D01*
X145574979Y-92610402D01*
X145550000Y-92735981D01*
X145550000Y-92864019D01*
X145574979Y-92989598D01*
X145623978Y-93107890D01*
X145695112Y-93214351D01*
X145785649Y-93304888D01*
X145892110Y-93376022D01*
X146010402Y-93425021D01*
X146135981Y-93450000D01*
X146150000Y-93450000D01*
X146150000Y-93464019D01*
X146174979Y-93589598D01*
X146223978Y-93707890D01*
X146295112Y-93814351D01*
X146385649Y-93904888D01*
X146453165Y-93950000D01*
X145222091Y-93950000D01*
X145199999Y-93947824D01*
X145177907Y-93950000D01*
X145177895Y-93950000D01*
X145111785Y-93956511D01*
X145026959Y-93982243D01*
X144987810Y-94003169D01*
X144948783Y-94024029D01*
X144897432Y-94066172D01*
X144897428Y-94066176D01*
X144880263Y-94080263D01*
X144866176Y-94097428D01*
X143413605Y-95550000D01*
X143335981Y-95550000D01*
X143210402Y-95574979D01*
X143092110Y-95623978D01*
X142985649Y-95695112D01*
X142895112Y-95785649D01*
X142823978Y-95892110D01*
X142774979Y-96010402D01*
X142750000Y-96135981D01*
X142750000Y-96264019D01*
X142773501Y-96382170D01*
X142773257Y-96382244D01*
X142695081Y-96424030D01*
X142643730Y-96466173D01*
X142643726Y-96466177D01*
X142626561Y-96480264D01*
X142612474Y-96497429D01*
X139497430Y-99612474D01*
X139480265Y-99626561D01*
X139466178Y-99643726D01*
X139466173Y-99643731D01*
X139424030Y-99695082D01*
X139382244Y-99773258D01*
X139356513Y-99858083D01*
X139347825Y-99946298D01*
X139350002Y-99968402D01*
X139350001Y-102213603D01*
X138413605Y-103150000D01*
X138335981Y-103150000D01*
X138210402Y-103174979D01*
X138150000Y-103199999D01*
X138150000Y-101169647D01*
X138151935Y-101150000D01*
X138149380Y-101124053D01*
X138144212Y-101071586D01*
X138121340Y-100996186D01*
X138084197Y-100926697D01*
X138034211Y-100865789D01*
X137973303Y-100815803D01*
X137903814Y-100778660D01*
X137828414Y-100755788D01*
X137750000Y-100748065D01*
X137730354Y-100750000D01*
X137591407Y-100750000D01*
X138738902Y-99602506D01*
X138816525Y-99602506D01*
X138942104Y-99577527D01*
X139060396Y-99528528D01*
X139166857Y-99457394D01*
X139257394Y-99366857D01*
X139328528Y-99260396D01*
X139377527Y-99142104D01*
X139402506Y-99016525D01*
X139402506Y-98888487D01*
X139377527Y-98762908D01*
X139328528Y-98644616D01*
X139257394Y-98538155D01*
X139166857Y-98447618D01*
X139070303Y-98383103D01*
X139119583Y-98333823D01*
X139136747Y-98319737D01*
X139150834Y-98302572D01*
X139150838Y-98302568D01*
X139192981Y-98251217D01*
X139234767Y-98173041D01*
X139234767Y-98173040D01*
X139260499Y-98088215D01*
X139267010Y-98022105D01*
X139267010Y-98022095D01*
X139269186Y-98000001D01*
X139267010Y-97977906D01*
X139267010Y-96969385D01*
X139386395Y-96850000D01*
X139464019Y-96850000D01*
X139589598Y-96825021D01*
X139707890Y-96776022D01*
X139814351Y-96704888D01*
X139904888Y-96614351D01*
X139976022Y-96507890D01*
X140025021Y-96389598D01*
X140050000Y-96264019D01*
X140050000Y-96135981D01*
X140025021Y-96010402D01*
X139976022Y-95892110D01*
X139904888Y-95785649D01*
X139814351Y-95695112D01*
X139707890Y-95623978D01*
X139589598Y-95574979D01*
X139464019Y-95550000D01*
X139335981Y-95550000D01*
X139210402Y-95574979D01*
X139092110Y-95623978D01*
X138985649Y-95695112D01*
X138895112Y-95785649D01*
X138823978Y-95892110D01*
X138774979Y-96010402D01*
X138750000Y-96135981D01*
X138750000Y-96213605D01*
X138650000Y-96313605D01*
X138650000Y-94250000D01*
X138664019Y-94250000D01*
X138789598Y-94225021D01*
X138907890Y-94176022D01*
X139014351Y-94104888D01*
X139104888Y-94014351D01*
X139176022Y-93907890D01*
X139225021Y-93789598D01*
X139250000Y-93664019D01*
X139250000Y-93535981D01*
X139225021Y-93410402D01*
X139176022Y-93292110D01*
X139104888Y-93185649D01*
X139014351Y-93095112D01*
X138907890Y-93023978D01*
X138789598Y-92974979D01*
X138664019Y-92950000D01*
X138535981Y-92950000D01*
X138410402Y-92974979D01*
X138292110Y-93023978D01*
X138185649Y-93095112D01*
X138095112Y-93185649D01*
X138023978Y-93292110D01*
X138020279Y-93301040D01*
X138014351Y-93295112D01*
X137907890Y-93223978D01*
X137789598Y-93174979D01*
X137664019Y-93150000D01*
X137535981Y-93150000D01*
X137410402Y-93174979D01*
X137292110Y-93223978D01*
X137185649Y-93295112D01*
X137095112Y-93385649D01*
X137037306Y-93472163D01*
X137025021Y-93410402D01*
X136976022Y-93292110D01*
X136904888Y-93185649D01*
X136814351Y-93095112D01*
X136707890Y-93023978D01*
X136589598Y-92974979D01*
X136464019Y-92950000D01*
X136335981Y-92950000D01*
X136210402Y-92974979D01*
X136092110Y-93023978D01*
X135985649Y-93095112D01*
X135895112Y-93185649D01*
X135823978Y-93292110D01*
X135774979Y-93410402D01*
X135750000Y-93535981D01*
X135750000Y-93664019D01*
X135774979Y-93789598D01*
X135823978Y-93907890D01*
X135852115Y-93950000D01*
X135735981Y-93950000D01*
X135610402Y-93974979D01*
X135492110Y-94023978D01*
X135385649Y-94095112D01*
X135295112Y-94185649D01*
X135223978Y-94292110D01*
X135174979Y-94410402D01*
X135150000Y-94535981D01*
X135150000Y-94664019D01*
X135174979Y-94789598D01*
X135223978Y-94907890D01*
X135295112Y-95014351D01*
X135385649Y-95104888D01*
X135492110Y-95176022D01*
X135610402Y-95225021D01*
X135735981Y-95250000D01*
X135750001Y-95250000D01*
X135750000Y-97613604D01*
X134715329Y-98648275D01*
X134715329Y-98604924D01*
X134678232Y-98418425D01*
X134605464Y-98242746D01*
X134499820Y-98084640D01*
X134365361Y-97950181D01*
X134207255Y-97844537D01*
X134031576Y-97771769D01*
X133845077Y-97734672D01*
X133654923Y-97734672D01*
X133468424Y-97771769D01*
X133292745Y-97844537D01*
X133134639Y-97950181D01*
X133000180Y-98084640D01*
X132894536Y-98242746D01*
X132821768Y-98418425D01*
X132784671Y-98604924D01*
X132784671Y-98795078D01*
X132821768Y-98981577D01*
X132894536Y-99157256D01*
X133000180Y-99315362D01*
X133134639Y-99449821D01*
X133292745Y-99555465D01*
X133468424Y-99628233D01*
X133654923Y-99665330D01*
X133698275Y-99665330D01*
X132897429Y-100466176D01*
X132880264Y-100480263D01*
X132866177Y-100497428D01*
X132866172Y-100497433D01*
X132824029Y-100548784D01*
X132782243Y-100626960D01*
X132756512Y-100711785D01*
X132747824Y-100800000D01*
X132750001Y-100822104D01*
X132750000Y-111022104D01*
X132750001Y-111022114D01*
X132750000Y-111777907D01*
X132747824Y-111800002D01*
X132750000Y-111822096D01*
X132750000Y-111822106D01*
X132756511Y-111888216D01*
X132776482Y-111954050D01*
X132782243Y-111973042D01*
X132824029Y-112051218D01*
X132858300Y-112092977D01*
X132880263Y-112119739D01*
X132897434Y-112133831D01*
X134866204Y-114102602D01*
X134880291Y-114119767D01*
X134897456Y-114133854D01*
X134897460Y-114133858D01*
X134948811Y-114176001D01*
X134993710Y-114200000D01*
X135026987Y-114217787D01*
X135111813Y-114243519D01*
X135177923Y-114250030D01*
X135177934Y-114250030D01*
X135200028Y-114252206D01*
X135222122Y-114250030D01*
X139653120Y-114250030D01*
X139585649Y-114295112D01*
X139495112Y-114385649D01*
X139423978Y-114492110D01*
X139374979Y-114610402D01*
X139350000Y-114735981D01*
X139350000Y-114864019D01*
X139374979Y-114989598D01*
X139423978Y-115107890D01*
X139495112Y-115214351D01*
X139585649Y-115304888D01*
X139692110Y-115376022D01*
X139810402Y-115425021D01*
X139935981Y-115450000D01*
X139942895Y-115450000D01*
X140429073Y-115936178D01*
X140444736Y-115955264D01*
X140463822Y-115970927D01*
X143250000Y-118757107D01*
X143250000Y-118930761D01*
X143245112Y-118935649D01*
X143173978Y-119042110D01*
X143124979Y-119160402D01*
X143110471Y-119233339D01*
X140182500Y-116305369D01*
X140182500Y-116203481D01*
X140157521Y-116077902D01*
X140108522Y-115959610D01*
X140037388Y-115853149D01*
X139946851Y-115762612D01*
X139840390Y-115691478D01*
X139722098Y-115642479D01*
X139596519Y-115617500D01*
X139468481Y-115617500D01*
X139342902Y-115642479D01*
X139224610Y-115691478D01*
X139118149Y-115762612D01*
X139027612Y-115853149D01*
X138956478Y-115959610D01*
X138907479Y-116077902D01*
X138882500Y-116203481D01*
X138882500Y-116331519D01*
X138907479Y-116457098D01*
X138956478Y-116575390D01*
X139027612Y-116681851D01*
X139118149Y-116772388D01*
X139224610Y-116843522D01*
X139342902Y-116892521D01*
X139468481Y-116917500D01*
X139521841Y-116917500D01*
X142956913Y-120352573D01*
X142971000Y-120369738D01*
X142988165Y-120383825D01*
X142988169Y-120383829D01*
X143039520Y-120425972D01*
X143105558Y-120461270D01*
X143117696Y-120467758D01*
X143202522Y-120493490D01*
X143268632Y-120500001D01*
X143268643Y-120500001D01*
X143290737Y-120502177D01*
X143312831Y-120500001D01*
X144326851Y-120500001D01*
X144348945Y-120502177D01*
X144371039Y-120500001D01*
X144371050Y-120500001D01*
X144400000Y-120497150D01*
X144400001Y-121268394D01*
X144368294Y-121289580D01*
X144328685Y-121241315D01*
X144275390Y-121197578D01*
X144214587Y-121165078D01*
X144148612Y-121145065D01*
X144080000Y-121138307D01*
X143080000Y-121138307D01*
X143011388Y-121145065D01*
X142945413Y-121165078D01*
X142884610Y-121197578D01*
X142831315Y-121241315D01*
X142787578Y-121294610D01*
X142755078Y-121355413D01*
X142735065Y-121421388D01*
X142728307Y-121490000D01*
X142728307Y-122490000D01*
X142735065Y-122558612D01*
X142755078Y-122624587D01*
X142787578Y-122685390D01*
X142831315Y-122738685D01*
X142884610Y-122782422D01*
X142945413Y-122814922D01*
X143011388Y-122834935D01*
X143080000Y-122841693D01*
X144080000Y-122841693D01*
X144148612Y-122834935D01*
X144214587Y-122814922D01*
X144275390Y-122782422D01*
X144328685Y-122738685D01*
X144368294Y-122690420D01*
X144447374Y-122743260D01*
X144602064Y-122807335D01*
X144766282Y-122840000D01*
X144933718Y-122840000D01*
X145097936Y-122807335D01*
X145252626Y-122743260D01*
X145391844Y-122650238D01*
X145485000Y-122557082D01*
X145578156Y-122650238D01*
X145717374Y-122743260D01*
X145872064Y-122807335D01*
X146036282Y-122840000D01*
X146203718Y-122840000D01*
X146367936Y-122807335D01*
X146522626Y-122743260D01*
X146661844Y-122650238D01*
X146755000Y-122557082D01*
X146848156Y-122650238D01*
X146987374Y-122743260D01*
X147142064Y-122807335D01*
X147306282Y-122840000D01*
X147473718Y-122840000D01*
X147637936Y-122807335D01*
X147792626Y-122743260D01*
X147931844Y-122650238D01*
X148025000Y-122557082D01*
X148118156Y-122650238D01*
X148257374Y-122743260D01*
X148412064Y-122807335D01*
X148576282Y-122840000D01*
X148743718Y-122840000D01*
X148907936Y-122807335D01*
X149062626Y-122743260D01*
X149201844Y-122650238D01*
X149320238Y-122531844D01*
X149413260Y-122392626D01*
X149477335Y-122237936D01*
X149510000Y-122073718D01*
X149510000Y-121906282D01*
X149477335Y-121742064D01*
X149418502Y-121600030D01*
X150363635Y-121600030D01*
X151666176Y-122902572D01*
X151680263Y-122919737D01*
X151697428Y-122933824D01*
X151697432Y-122933828D01*
X151748783Y-122975971D01*
X151806971Y-123007073D01*
X151826959Y-123017757D01*
X151911785Y-123043489D01*
X151977895Y-123050000D01*
X151977905Y-123050000D01*
X151999999Y-123052176D01*
X152022093Y-123050000D01*
X158451778Y-123050000D01*
X158473872Y-123052176D01*
X158495966Y-123050000D01*
X158495977Y-123050000D01*
X158562087Y-123043489D01*
X158646913Y-123017757D01*
X158725088Y-122975971D01*
X158793609Y-122919737D01*
X158807701Y-122902566D01*
X160282672Y-121427596D01*
X160282676Y-121427591D01*
X160770764Y-120939504D01*
X160770768Y-120939499D01*
X161802601Y-119907667D01*
X161819766Y-119893580D01*
X161833853Y-119876415D01*
X161833857Y-119876411D01*
X161876000Y-119825060D01*
X161917786Y-119746884D01*
X161922227Y-119732243D01*
X161943518Y-119662058D01*
X161950029Y-119595948D01*
X161950029Y-119595937D01*
X161952205Y-119573843D01*
X161950029Y-119551749D01*
X161950029Y-116012890D01*
X161952205Y-115990798D01*
X161950029Y-115968706D01*
X161950029Y-115968694D01*
X161943518Y-115902584D01*
X161917786Y-115817758D01*
X161876000Y-115739583D01*
X161819766Y-115671062D01*
X161802595Y-115656970D01*
X161688448Y-115542823D01*
X161688443Y-115542817D01*
X160058126Y-113912500D01*
X160118261Y-113912500D01*
X160148149Y-113942388D01*
X160254610Y-114013522D01*
X160372902Y-114062521D01*
X160498481Y-114087500D01*
X160626519Y-114087500D01*
X160752098Y-114062521D01*
X160870390Y-114013522D01*
X160976851Y-113942388D01*
X161067388Y-113851851D01*
X161138522Y-113745390D01*
X161187521Y-113627098D01*
X161212500Y-113501519D01*
X161212500Y-113373481D01*
X161187521Y-113247902D01*
X161138522Y-113129610D01*
X161067388Y-113023149D01*
X160976851Y-112932612D01*
X160870390Y-112861478D01*
X160752098Y-112812479D01*
X160626519Y-112787500D01*
X160498481Y-112787500D01*
X160372902Y-112812479D01*
X160254610Y-112861478D01*
X160148149Y-112932612D01*
X160118261Y-112962500D01*
X159744536Y-112962500D01*
X158175387Y-111393352D01*
X158050040Y-111268005D01*
X158050040Y-111046674D01*
X158096186Y-111071340D01*
X158171586Y-111094212D01*
X158230353Y-111100000D01*
X158230354Y-111100000D01*
X158250000Y-111101935D01*
X158269647Y-111100000D01*
X164230437Y-111100000D01*
X164560402Y-111132354D01*
X164858983Y-111222500D01*
X165134367Y-111368925D01*
X165376063Y-111566047D01*
X165574870Y-111806363D01*
X165723215Y-112080723D01*
X165815441Y-112378657D01*
X165850001Y-112707468D01*
X165850000Y-113505353D01*
X165848065Y-113525000D01*
X165855788Y-113603414D01*
X165878660Y-113678814D01*
X165896214Y-113711655D01*
X165889435Y-114850993D01*
X165878821Y-114870801D01*
X165878762Y-114870996D01*
X165878660Y-114871186D01*
X165867060Y-114909427D01*
X165855870Y-114946177D01*
X165855849Y-114946383D01*
X165855788Y-114946586D01*
X165851910Y-114985956D01*
X165850021Y-115004938D01*
X165850021Y-115005142D01*
X165848065Y-115025000D01*
X165849980Y-115044443D01*
X165849311Y-115687485D01*
X165772233Y-116772474D01*
X165546069Y-117821766D01*
X165174313Y-118828726D01*
X164664387Y-119773253D01*
X164026462Y-120636511D01*
X163273265Y-121401274D01*
X162419824Y-122052282D01*
X161483174Y-122576541D01*
X160482007Y-122963593D01*
X159871680Y-123104909D01*
X139455540Y-123256008D01*
X138733670Y-122005692D01*
X138718172Y-121976697D01*
X138701477Y-121956355D01*
X138686165Y-121934986D01*
X138676550Y-121925981D01*
X138668186Y-121915789D01*
X138647845Y-121899096D01*
X138628657Y-121881124D01*
X138617470Y-121874168D01*
X138607278Y-121865803D01*
X138584070Y-121853398D01*
X138561746Y-121839516D01*
X138549419Y-121834876D01*
X138537789Y-121828660D01*
X138512606Y-121821021D01*
X138488003Y-121811761D01*
X138475006Y-121809615D01*
X138462389Y-121805788D01*
X138436204Y-121803209D01*
X138410262Y-121798926D01*
X138377455Y-121800000D01*
X133122559Y-121800000D01*
X133089738Y-121798926D01*
X133063794Y-121803209D01*
X133037612Y-121805788D01*
X133024997Y-121809615D01*
X133011997Y-121811761D01*
X132987390Y-121821022D01*
X132962212Y-121828660D01*
X132950584Y-121834875D01*
X132938254Y-121839516D01*
X132915920Y-121853404D01*
X132892723Y-121865803D01*
X132882538Y-121874162D01*
X132871343Y-121881123D01*
X132852142Y-121899107D01*
X132831815Y-121915789D01*
X132823455Y-121925976D01*
X132813835Y-121934986D01*
X132798513Y-121956367D01*
X132781829Y-121976697D01*
X132766350Y-122005655D01*
X132028687Y-123283329D01*
X131179294Y-123223188D01*
X130129944Y-122997269D01*
X129122897Y-122625749D01*
X128178257Y-122116048D01*
X127314849Y-121478326D01*
X126549909Y-120725309D01*
X126485725Y-120641207D01*
X133530000Y-120641207D01*
X133530000Y-120798793D01*
X133560743Y-120953351D01*
X133621049Y-121098942D01*
X133708599Y-121229970D01*
X133820030Y-121341401D01*
X133951058Y-121428951D01*
X134096649Y-121489257D01*
X134251207Y-121520000D01*
X134408793Y-121520000D01*
X134563351Y-121489257D01*
X134708942Y-121428951D01*
X134839970Y-121341401D01*
X134951401Y-121229970D01*
X135038951Y-121098942D01*
X135099257Y-120953351D01*
X135130000Y-120798793D01*
X135130000Y-120641207D01*
X136530000Y-120641207D01*
X136530000Y-120798793D01*
X136560743Y-120953351D01*
X136621049Y-121098942D01*
X136708599Y-121229970D01*
X136820030Y-121341401D01*
X136951058Y-121428951D01*
X137096649Y-121489257D01*
X137251207Y-121520000D01*
X137408793Y-121520000D01*
X137563351Y-121489257D01*
X137708942Y-121428951D01*
X137839970Y-121341401D01*
X137951401Y-121229970D01*
X138038951Y-121098942D01*
X138099257Y-120953351D01*
X138130000Y-120798793D01*
X138130000Y-120641207D01*
X138099257Y-120486649D01*
X138038951Y-120341058D01*
X137951401Y-120210030D01*
X137839970Y-120098599D01*
X137708942Y-120011049D01*
X137563351Y-119950743D01*
X137408793Y-119920000D01*
X137251207Y-119920000D01*
X137096649Y-119950743D01*
X136951058Y-120011049D01*
X136820030Y-120098599D01*
X136708599Y-120210030D01*
X136621049Y-120341058D01*
X136560743Y-120486649D01*
X136530000Y-120641207D01*
X135130000Y-120641207D01*
X135099257Y-120486649D01*
X135038951Y-120341058D01*
X134951401Y-120210030D01*
X134839970Y-120098599D01*
X134708942Y-120011049D01*
X134563351Y-119950743D01*
X134408793Y-119920000D01*
X134251207Y-119920000D01*
X134096649Y-119950743D01*
X133951058Y-120011049D01*
X133820030Y-120098599D01*
X133708599Y-120210030D01*
X133621049Y-120341058D01*
X133560743Y-120486649D01*
X133530000Y-120641207D01*
X126485725Y-120641207D01*
X125898699Y-119872019D01*
X125374220Y-118935492D01*
X124986930Y-117934407D01*
X124744558Y-116888746D01*
X124650853Y-115806809D01*
X124650001Y-115698386D01*
X124650001Y-114200000D01*
X128623307Y-114200000D01*
X128623307Y-115150000D01*
X128634388Y-115262507D01*
X128667205Y-115370691D01*
X128720497Y-115470393D01*
X128792216Y-115557784D01*
X128879607Y-115629503D01*
X128979309Y-115682795D01*
X129087493Y-115715612D01*
X129200000Y-115726693D01*
X129650000Y-115726693D01*
X129762507Y-115715612D01*
X129870691Y-115682795D01*
X129970393Y-115629503D01*
X130057784Y-115557784D01*
X130129503Y-115470393D01*
X130182795Y-115370691D01*
X130215612Y-115262507D01*
X130226693Y-115150000D01*
X130226693Y-114604923D01*
X132784671Y-114604923D01*
X132784671Y-114795077D01*
X132821768Y-114981576D01*
X132894536Y-115157255D01*
X133000180Y-115315361D01*
X133134639Y-115449820D01*
X133292745Y-115555464D01*
X133468424Y-115628232D01*
X133654923Y-115665329D01*
X133845077Y-115665329D01*
X134031576Y-115628232D01*
X134207255Y-115555464D01*
X134365361Y-115449820D01*
X134499820Y-115315361D01*
X134605464Y-115157255D01*
X134678232Y-114981576D01*
X134715329Y-114795077D01*
X134715329Y-114604923D01*
X134678232Y-114418424D01*
X134605464Y-114242745D01*
X134499820Y-114084639D01*
X134365361Y-113950180D01*
X134207255Y-113844536D01*
X134031576Y-113771768D01*
X133845077Y-113734671D01*
X133654923Y-113734671D01*
X133468424Y-113771768D01*
X133292745Y-113844536D01*
X133134639Y-113950180D01*
X133000180Y-114084639D01*
X132894536Y-114242745D01*
X132821768Y-114418424D01*
X132784671Y-114604923D01*
X130226693Y-114604923D01*
X130226693Y-114200000D01*
X130215612Y-114087493D01*
X130182795Y-113979309D01*
X130129503Y-113879607D01*
X130057784Y-113792216D01*
X129970393Y-113720497D01*
X129870691Y-113667205D01*
X129762507Y-113634388D01*
X129650000Y-113623307D01*
X129200000Y-113623307D01*
X129087493Y-113634388D01*
X128979309Y-113667205D01*
X128879607Y-113720497D01*
X128792216Y-113792216D01*
X128720497Y-113879607D01*
X128667205Y-113979309D01*
X128634388Y-114087493D01*
X128623307Y-114200000D01*
X124650001Y-114200000D01*
X124650001Y-112721232D01*
X124682066Y-112391053D01*
X124771936Y-112092388D01*
X124918105Y-111816870D01*
X125115003Y-111574990D01*
X125355136Y-111375960D01*
X125629353Y-111227362D01*
X125927210Y-111134857D01*
X126255926Y-111100000D01*
X132230355Y-111100000D01*
X132250001Y-111101935D01*
X132289031Y-111098091D01*
X132328415Y-111094212D01*
X132403815Y-111071340D01*
X132473304Y-111034197D01*
X132534212Y-110984211D01*
X132584198Y-110923303D01*
X132621341Y-110853814D01*
X132644213Y-110778414D01*
X132651936Y-110700000D01*
X132650001Y-110680353D01*
X132650001Y-96719648D01*
X132651936Y-96700001D01*
X132644213Y-96621587D01*
X132621341Y-96546187D01*
X132584198Y-96476698D01*
X132534212Y-96415790D01*
X132473304Y-96365804D01*
X132403815Y-96328661D01*
X132328415Y-96305789D01*
X132269648Y-96300001D01*
X132269647Y-96300001D01*
X132250001Y-96298066D01*
X132230354Y-96300001D01*
X129536394Y-96300001D01*
X129830710Y-96005685D01*
X129963678Y-96014109D01*
X130713221Y-95987934D01*
X130854418Y-95969032D01*
X130989214Y-95922946D01*
X131112429Y-95851449D01*
X131219329Y-95757287D01*
X131305804Y-95644080D01*
X131368532Y-95516177D01*
X131405102Y-95378494D01*
X131414109Y-95236322D01*
X131387934Y-94486779D01*
X131369032Y-94345582D01*
X131322946Y-94210786D01*
X131251449Y-94087571D01*
X131157287Y-93980671D01*
X131061939Y-93907838D01*
X131119329Y-93857287D01*
X131205804Y-93744080D01*
X131268532Y-93616177D01*
X131305102Y-93478494D01*
X131314109Y-93336322D01*
X131287934Y-92586779D01*
X131269032Y-92445582D01*
X131222946Y-92310786D01*
X131151449Y-92187571D01*
X131057287Y-92080671D01*
X130944080Y-91994196D01*
X130816177Y-91931468D01*
X130700000Y-91900610D01*
X130700000Y-88607105D01*
X132407106Y-86900000D01*
X138874071Y-86900000D01*
X138775575Y-86998496D01*
X138655193Y-87178660D01*
X138572273Y-87378847D01*
X138530000Y-87591364D01*
X138530000Y-87808046D01*
X138572273Y-88020563D01*
X138655193Y-88220750D01*
X138775575Y-88400914D01*
X138928791Y-88554130D01*
X139108955Y-88674512D01*
X139180000Y-88703940D01*
X139180001Y-89983603D01*
X138448752Y-90714853D01*
X136186947Y-90714853D01*
X136164853Y-90712677D01*
X136142759Y-90714853D01*
X136142748Y-90714853D01*
X136076638Y-90721364D01*
X135991812Y-90747096D01*
X135959048Y-90764609D01*
X135913636Y-90788882D01*
X135862285Y-90831024D01*
X135862276Y-90831033D01*
X135845116Y-90845116D01*
X135831033Y-90862276D01*
X134297434Y-92395876D01*
X134280263Y-92409968D01*
X134266172Y-92427138D01*
X134224029Y-92478489D01*
X134186455Y-92548785D01*
X134182243Y-92556665D01*
X134156511Y-92641491D01*
X134150000Y-92707601D01*
X134150000Y-92707611D01*
X134147824Y-92729705D01*
X134150000Y-92751799D01*
X134150000Y-92777895D01*
X134147823Y-92800000D01*
X134150000Y-92822104D01*
X134150001Y-95330760D01*
X134095112Y-95385649D01*
X134023978Y-95492110D01*
X133974979Y-95610402D01*
X133950000Y-95735981D01*
X133950000Y-95864019D01*
X133974979Y-95989598D01*
X134023978Y-96107890D01*
X134095112Y-96214351D01*
X134185649Y-96304888D01*
X134292110Y-96376022D01*
X134410402Y-96425021D01*
X134535981Y-96450000D01*
X134664019Y-96450000D01*
X134789598Y-96425021D01*
X134907890Y-96376022D01*
X135014351Y-96304888D01*
X135104888Y-96214351D01*
X135176022Y-96107890D01*
X135225021Y-95989598D01*
X135250000Y-95864019D01*
X135250000Y-95735981D01*
X135225021Y-95610402D01*
X135176022Y-95492110D01*
X135104888Y-95385649D01*
X135050000Y-95330761D01*
X135050000Y-92916100D01*
X135837690Y-92128411D01*
X135895112Y-92214351D01*
X135985649Y-92304888D01*
X136092110Y-92376022D01*
X136210402Y-92425021D01*
X136335981Y-92450000D01*
X136464019Y-92450000D01*
X136589598Y-92425021D01*
X136707890Y-92376022D01*
X136814351Y-92304888D01*
X136869239Y-92250000D01*
X139661613Y-92250000D01*
X139683707Y-92252176D01*
X139705801Y-92250000D01*
X139705812Y-92250000D01*
X139771922Y-92243489D01*
X139856748Y-92217757D01*
X139934923Y-92175971D01*
X140003444Y-92119737D01*
X140017536Y-92102566D01*
X140367600Y-91752502D01*
X140374979Y-91789598D01*
X140423978Y-91907890D01*
X140495112Y-92014351D01*
X140585649Y-92104888D01*
X140692110Y-92176022D01*
X140810402Y-92225021D01*
X140935981Y-92250000D01*
X141013605Y-92250000D01*
X142150000Y-93386396D01*
X142150000Y-93464019D01*
X142174979Y-93589598D01*
X142223978Y-93707890D01*
X142295112Y-93814351D01*
X142385649Y-93904888D01*
X142492110Y-93976022D01*
X142610402Y-94025021D01*
X142735981Y-94050000D01*
X142864019Y-94050000D01*
X142989598Y-94025021D01*
X143107890Y-93976022D01*
X143214351Y-93904888D01*
X143304888Y-93814351D01*
X143376022Y-93707890D01*
X143425021Y-93589598D01*
X143450000Y-93464019D01*
X143450000Y-93335981D01*
X143425021Y-93210402D01*
X143376022Y-93092110D01*
X143304888Y-92985649D01*
X143214351Y-92895112D01*
X143107890Y-92823978D01*
X142989598Y-92774979D01*
X142864019Y-92750000D01*
X142786396Y-92750000D01*
X141650000Y-91613605D01*
X141650000Y-91535981D01*
X141625021Y-91410402D01*
X141576022Y-91292110D01*
X141504888Y-91185649D01*
X141414351Y-91095112D01*
X141307890Y-91023978D01*
X141189598Y-90974979D01*
X141152502Y-90967600D01*
X143070103Y-89050000D01*
X148229947Y-89050000D01*
X148533405Y-89575606D01*
X148616383Y-89691402D01*
X148720357Y-89788784D01*
X148841331Y-89864011D01*
X148974658Y-89914191D01*
X149115212Y-89937397D01*
X149257592Y-89932736D01*
X149396327Y-89900388D01*
X149526086Y-89841595D01*
X150175606Y-89466595D01*
X150291402Y-89383617D01*
X150388784Y-89279643D01*
X150464011Y-89158669D01*
X150514191Y-89025342D01*
X150535006Y-88899267D01*
X150574658Y-88914191D01*
X150715212Y-88937397D01*
X150857592Y-88932736D01*
X150996327Y-88900388D01*
X151126086Y-88841595D01*
X151775606Y-88466595D01*
X151891402Y-88383617D01*
X151988784Y-88279643D01*
X152064011Y-88158669D01*
X152114191Y-88025342D01*
X152137397Y-87884788D01*
X152132736Y-87742408D01*
X152100388Y-87603673D01*
X152041595Y-87473914D01*
X151666595Y-86824394D01*
X151583617Y-86708598D01*
X151479643Y-86611216D01*
X151400000Y-86561690D01*
X151400000Y-85166852D01*
X151402419Y-85142292D01*
X151392765Y-85044275D01*
X151368124Y-84963044D01*
X151364175Y-84950026D01*
X151317746Y-84863164D01*
X151255264Y-84787029D01*
X151236181Y-84771368D01*
X151185899Y-84721086D01*
X151848926Y-84721086D01*
X151851504Y-84799836D01*
X151869396Y-84876570D01*
X151901915Y-84948340D01*
X151913412Y-84964384D01*
X152443771Y-85882994D01*
X152451915Y-85900968D01*
X152463409Y-85917008D01*
X152463413Y-85917015D01*
X152497809Y-85965015D01*
X152555317Y-86018877D01*
X152622228Y-86060485D01*
X152695971Y-86088240D01*
X152773712Y-86101075D01*
X152773713Y-86101075D01*
X152852463Y-86098497D01*
X152929197Y-86080605D01*
X152982985Y-86056234D01*
X152982988Y-86056232D01*
X153000967Y-86048086D01*
X153017011Y-86036589D01*
X155667672Y-84506230D01*
X155685646Y-84498086D01*
X155701686Y-84486592D01*
X155701693Y-84486588D01*
X155749693Y-84452192D01*
X155803555Y-84394684D01*
X155845163Y-84327773D01*
X155872918Y-84254030D01*
X155885753Y-84176289D01*
X155885753Y-84176288D01*
X155883175Y-84097537D01*
X155865283Y-84020803D01*
X155840912Y-83967015D01*
X155840908Y-83967009D01*
X155832764Y-83949034D01*
X155821270Y-83932993D01*
X155290912Y-83014388D01*
X155282764Y-82996406D01*
X155236869Y-82932359D01*
X155179361Y-82878497D01*
X155112450Y-82836889D01*
X155038707Y-82809134D01*
X154960966Y-82796299D01*
X154882215Y-82798877D01*
X154805481Y-82816769D01*
X154751693Y-82841140D01*
X154751687Y-82841144D01*
X154733712Y-82849288D01*
X154717672Y-82860782D01*
X152067015Y-84391140D01*
X152049033Y-84399288D01*
X152032986Y-84410787D01*
X151984986Y-84445183D01*
X151931124Y-84502691D01*
X151889516Y-84569602D01*
X151861761Y-84643345D01*
X151848926Y-84721086D01*
X151185899Y-84721086D01*
X150528930Y-84064118D01*
X150513265Y-84045030D01*
X150437130Y-83982548D01*
X150350268Y-83936119D01*
X150256018Y-83907529D01*
X150182561Y-83900294D01*
X150158001Y-83897875D01*
X150133441Y-83900294D01*
X142024263Y-83900294D01*
X141999705Y-83897875D01*
X141975147Y-83900294D01*
X141975146Y-83900294D01*
X141901689Y-83907529D01*
X141807439Y-83936119D01*
X141720577Y-83982548D01*
X141644442Y-84045030D01*
X141628781Y-84064113D01*
X141258209Y-84434686D01*
X141126086Y-84358405D01*
X140996327Y-84299612D01*
X140857592Y-84267264D01*
X140715212Y-84262603D01*
X140574658Y-84285809D01*
X140441331Y-84335989D01*
X140320357Y-84411216D01*
X140216383Y-84508598D01*
X140133405Y-84624394D01*
X139758405Y-85273914D01*
X139699612Y-85403673D01*
X139667264Y-85542408D01*
X139662603Y-85684788D01*
X139685809Y-85825342D01*
X139713908Y-85900000D01*
X138048524Y-85900000D01*
X138056233Y-85882986D01*
X138586591Y-84964381D01*
X138598085Y-84948340D01*
X138606229Y-84930365D01*
X138606233Y-84930359D01*
X138630604Y-84876571D01*
X138648496Y-84799837D01*
X138651074Y-84721086D01*
X138644196Y-84679424D01*
X138638239Y-84643344D01*
X138610484Y-84569601D01*
X138568876Y-84502689D01*
X138515014Y-84445182D01*
X138467014Y-84410786D01*
X138467007Y-84410782D01*
X138450967Y-84399288D01*
X138432993Y-84391144D01*
X136508435Y-83280000D01*
X150450761Y-83280000D01*
X150505649Y-83334888D01*
X150612110Y-83406022D01*
X150730402Y-83455021D01*
X150855981Y-83480000D01*
X150984019Y-83480000D01*
X151109598Y-83455021D01*
X151227890Y-83406022D01*
X151334351Y-83334888D01*
X151424888Y-83244351D01*
X151496022Y-83137890D01*
X151545021Y-83019598D01*
X151570000Y-82894019D01*
X151570000Y-82765981D01*
X151545021Y-82640402D01*
X151496022Y-82522110D01*
X151424888Y-82415649D01*
X151334351Y-82325112D01*
X151227890Y-82253978D01*
X151109598Y-82204979D01*
X151084521Y-82199991D01*
X156821736Y-82199991D01*
X157755572Y-83133828D01*
G04 #@! TA.AperFunction,Conductor*
D22*
G36*
X157755572Y-83133828D02*
G01*
X157755578Y-83133833D01*
X161804039Y-87182295D01*
X161292442Y-87164429D01*
X161272886Y-87161811D01*
X161253194Y-87163058D01*
X161253184Y-87163058D01*
X161197851Y-87166564D01*
X161194250Y-87166792D01*
X161118099Y-87187019D01*
X161047356Y-87221714D01*
X160984740Y-87269544D01*
X160973204Y-87282641D01*
X160932659Y-87328670D01*
X160893114Y-87396820D01*
X160867624Y-87471376D01*
X160857169Y-87549473D01*
X160858418Y-87569179D01*
X160751599Y-90628020D01*
X160748980Y-90647585D01*
X160750228Y-90667285D01*
X160750228Y-90667287D01*
X160753104Y-90712677D01*
X160753962Y-90726220D01*
X160774189Y-90802372D01*
X160808884Y-90873115D01*
X160856714Y-90935731D01*
X160892649Y-90967384D01*
X160915840Y-90987812D01*
X160983991Y-91027357D01*
X161058546Y-91052847D01*
X161136643Y-91063302D01*
X161156350Y-91062053D01*
X162216398Y-91099070D01*
X162235973Y-91101691D01*
X162314608Y-91096709D01*
X162390760Y-91076482D01*
X162461503Y-91041787D01*
X162480394Y-91027357D01*
X162524119Y-90993957D01*
X162576200Y-90934831D01*
X162615745Y-90866680D01*
X162617610Y-90861224D01*
X162641235Y-90792125D01*
X162643403Y-90775931D01*
X162651690Y-90714028D01*
X162650441Y-90694321D01*
X162740386Y-88118642D01*
X163526502Y-88904758D01*
X163526507Y-88904762D01*
X164150001Y-89528257D01*
X164150000Y-95013604D01*
X163892911Y-95270693D01*
X163914109Y-94663678D01*
X163905102Y-94521506D01*
X163868532Y-94383823D01*
X163805804Y-94255920D01*
X163719329Y-94142713D01*
X163661939Y-94092162D01*
X163757287Y-94019329D01*
X163851449Y-93912429D01*
X163922946Y-93789214D01*
X163969032Y-93654418D01*
X163987934Y-93513221D01*
X164014109Y-92763678D01*
X164005102Y-92621506D01*
X163968532Y-92483823D01*
X163905804Y-92355920D01*
X163819329Y-92242713D01*
X163712429Y-92148551D01*
X163589214Y-92077054D01*
X163454418Y-92030968D01*
X163313221Y-92012066D01*
X162563678Y-91985891D01*
X162421506Y-91994898D01*
X162283823Y-92031468D01*
X162155920Y-92094196D01*
X162042713Y-92180671D01*
X161948551Y-92287571D01*
X161877054Y-92410786D01*
X161859322Y-92462649D01*
X161855037Y-92419139D01*
X161829305Y-92334313D01*
X161822084Y-92320804D01*
X161787519Y-92256137D01*
X161745376Y-92204786D01*
X161745372Y-92204782D01*
X161731285Y-92187617D01*
X161714120Y-92173530D01*
X160438023Y-90897434D01*
X160423931Y-90880263D01*
X160355410Y-90824029D01*
X160277235Y-90782243D01*
X160192409Y-90756511D01*
X160126299Y-90750000D01*
X160126288Y-90750000D01*
X160104194Y-90747824D01*
X160082100Y-90750000D01*
X156869239Y-90750000D01*
X156814351Y-90695112D01*
X156707890Y-90623978D01*
X156589598Y-90574979D01*
X156464019Y-90550000D01*
X156335981Y-90550000D01*
X156210402Y-90574979D01*
X156092110Y-90623978D01*
X155985649Y-90695112D01*
X155895112Y-90785649D01*
X155823978Y-90892110D01*
X155774979Y-91010402D01*
X155750000Y-91135981D01*
X155750000Y-91264019D01*
X155774979Y-91389598D01*
X155823978Y-91507890D01*
X155895112Y-91614351D01*
X155985649Y-91704888D01*
X156092110Y-91776022D01*
X156210402Y-91825021D01*
X156335981Y-91850000D01*
X156464019Y-91850000D01*
X156589598Y-91825021D01*
X156707890Y-91776022D01*
X156814351Y-91704888D01*
X156869239Y-91650000D01*
X159917799Y-91650000D01*
X160191440Y-91923641D01*
X160040689Y-91953628D01*
X159840502Y-92036548D01*
X159660338Y-92156930D01*
X159507122Y-92310146D01*
X159386740Y-92490310D01*
X159303820Y-92690497D01*
X159261547Y-92903014D01*
X159261547Y-93119696D01*
X159303820Y-93332213D01*
X159386740Y-93532400D01*
X159507122Y-93712564D01*
X159660338Y-93865780D01*
X159756396Y-93929964D01*
X159740502Y-93936548D01*
X159560338Y-94056930D01*
X159407122Y-94210146D01*
X159286740Y-94390310D01*
X159203820Y-94590497D01*
X159161547Y-94803014D01*
X159161547Y-95019696D01*
X159203820Y-95232213D01*
X159286740Y-95432400D01*
X159407122Y-95612564D01*
X159560338Y-95765780D01*
X159740502Y-95886162D01*
X159940689Y-95969082D01*
X160153206Y-96011355D01*
X160369888Y-96011355D01*
X160582405Y-95969082D01*
X160653451Y-95939654D01*
X161013797Y-96300001D01*
X158269646Y-96300001D01*
X158250000Y-96298066D01*
X158230353Y-96300001D01*
X158171586Y-96305789D01*
X158096186Y-96328661D01*
X158026697Y-96365804D01*
X157965789Y-96415790D01*
X157915803Y-96476698D01*
X157878660Y-96546187D01*
X157855788Y-96621587D01*
X157848065Y-96700001D01*
X157850000Y-96719648D01*
X157850000Y-100504374D01*
X156983434Y-99637809D01*
X157031576Y-99628233D01*
X157207255Y-99555465D01*
X157365361Y-99449821D01*
X157499820Y-99315362D01*
X157605464Y-99157256D01*
X157678232Y-98981577D01*
X157715329Y-98795078D01*
X157715329Y-98604924D01*
X157678232Y-98418425D01*
X157605464Y-98242746D01*
X157499820Y-98084640D01*
X157365361Y-97950181D01*
X157207255Y-97844537D01*
X157031576Y-97771769D01*
X156845077Y-97734672D01*
X156654923Y-97734672D01*
X156468424Y-97771769D01*
X156292745Y-97844537D01*
X156134639Y-97950181D01*
X156050000Y-98034820D01*
X156050000Y-95111397D01*
X156127568Y-95033829D01*
X156144738Y-95019738D01*
X156200972Y-94951217D01*
X156242758Y-94873042D01*
X156268490Y-94788216D01*
X156275001Y-94722106D01*
X156275001Y-94722094D01*
X156277177Y-94700002D01*
X156275001Y-94677910D01*
X156275001Y-94122093D01*
X156277177Y-94099998D01*
X156275001Y-94077904D01*
X156275001Y-94077894D01*
X156268490Y-94011784D01*
X156242758Y-93926958D01*
X156225736Y-93895112D01*
X156200972Y-93848782D01*
X156158829Y-93797431D01*
X156158825Y-93797427D01*
X156144738Y-93780262D01*
X156127573Y-93766175D01*
X152798896Y-90437499D01*
X153586396Y-89650000D01*
X153664019Y-89650000D01*
X153789598Y-89625021D01*
X153907890Y-89576022D01*
X154014351Y-89504888D01*
X154104888Y-89414351D01*
X154176022Y-89307890D01*
X154225021Y-89189598D01*
X154250000Y-89064019D01*
X154250000Y-88935981D01*
X154225021Y-88810402D01*
X154176022Y-88692110D01*
X154104888Y-88585649D01*
X154014351Y-88495112D01*
X153907890Y-88423978D01*
X153789598Y-88374979D01*
X153664019Y-88350000D01*
X153535981Y-88350000D01*
X153410402Y-88374979D01*
X153292110Y-88423978D01*
X153185649Y-88495112D01*
X153095112Y-88585649D01*
X153023978Y-88692110D01*
X152974979Y-88810402D01*
X152950000Y-88935981D01*
X152950000Y-89013604D01*
X152013645Y-89949960D01*
X146986356Y-89949960D01*
X146850000Y-89813604D01*
X146850000Y-89735981D01*
X146825021Y-89610402D01*
X146776022Y-89492110D01*
X146704888Y-89385649D01*
X146614351Y-89295112D01*
X146507890Y-89223978D01*
X146389598Y-89174979D01*
X146264019Y-89150000D01*
X146135981Y-89150000D01*
X146010402Y-89174979D01*
X145892110Y-89223978D01*
X145785649Y-89295112D01*
X145695112Y-89385649D01*
X145623978Y-89492110D01*
X145574979Y-89610402D01*
X145550000Y-89735981D01*
X145550000Y-89864019D01*
X145562312Y-89925917D01*
X145450000Y-89813605D01*
X145450000Y-89735981D01*
X145425021Y-89610402D01*
X145376022Y-89492110D01*
X145304888Y-89385649D01*
X145214351Y-89295112D01*
X145107890Y-89223978D01*
X144989598Y-89174979D01*
X144864019Y-89150000D01*
X144735981Y-89150000D01*
X144610402Y-89174979D01*
X144492110Y-89223978D01*
X144385649Y-89295112D01*
X144295112Y-89385649D01*
X144223978Y-89492110D01*
X144174979Y-89610402D01*
X144150000Y-89735981D01*
X144150000Y-89864019D01*
X144174979Y-89989598D01*
X144223978Y-90107890D01*
X144295112Y-90214351D01*
X144385649Y-90304888D01*
X144492110Y-90376022D01*
X144610402Y-90425021D01*
X144735981Y-90450000D01*
X144813605Y-90450000D01*
X145113584Y-90749980D01*
X144622114Y-90749980D01*
X144600020Y-90747804D01*
X144577925Y-90749980D01*
X144577915Y-90749980D01*
X144511805Y-90756491D01*
X144426979Y-90782223D01*
X144348804Y-90824009D01*
X144280283Y-90880243D01*
X144266191Y-90897414D01*
X144097429Y-91066176D01*
X144080264Y-91080263D01*
X144066177Y-91097428D01*
X144066172Y-91097433D01*
X144024029Y-91148784D01*
X143982243Y-91226960D01*
X143956512Y-91311785D01*
X143947824Y-91400000D01*
X143950001Y-91422104D01*
X143950000Y-92330761D01*
X143895112Y-92385649D01*
X143823978Y-92492110D01*
X143774979Y-92610402D01*
X143750000Y-92735981D01*
X143750000Y-92864019D01*
X143774979Y-92989598D01*
X143823978Y-93107890D01*
X143895112Y-93214351D01*
X143985649Y-93304888D01*
X144092110Y-93376022D01*
X144210402Y-93425021D01*
X144335981Y-93450000D01*
X144464019Y-93450000D01*
X144589598Y-93425021D01*
X144707890Y-93376022D01*
X144814351Y-93304888D01*
X144904888Y-93214351D01*
X144976022Y-93107890D01*
X145025021Y-92989598D01*
X145050000Y-92864019D01*
X145050000Y-92735981D01*
X145025021Y-92610402D01*
X144976022Y-92492110D01*
X144904888Y-92385649D01*
X144850000Y-92330761D01*
X144850000Y-91649980D01*
X146713624Y-91649980D01*
X146213605Y-92150000D01*
X146135981Y-92150000D01*
X146010402Y-92174979D01*
X145892110Y-92223978D01*
X145785649Y-92295112D01*
X145695112Y-92385649D01*
X145623978Y-92492110D01*
X145574979Y-92610402D01*
X145550000Y-92735981D01*
X145550000Y-92864019D01*
X145574979Y-92989598D01*
X145623978Y-93107890D01*
X145695112Y-93214351D01*
X145785649Y-93304888D01*
X145892110Y-93376022D01*
X146010402Y-93425021D01*
X146135981Y-93450000D01*
X146150000Y-93450000D01*
X146150000Y-93464019D01*
X146174979Y-93589598D01*
X146223978Y-93707890D01*
X146295112Y-93814351D01*
X146385649Y-93904888D01*
X146453165Y-93950000D01*
X145222091Y-93950000D01*
X145199999Y-93947824D01*
X145177907Y-93950000D01*
X145177895Y-93950000D01*
X145111785Y-93956511D01*
X145026959Y-93982243D01*
X144987810Y-94003169D01*
X144948783Y-94024029D01*
X144897432Y-94066172D01*
X144897428Y-94066176D01*
X144880263Y-94080263D01*
X144866176Y-94097428D01*
X143413605Y-95550000D01*
X143335981Y-95550000D01*
X143210402Y-95574979D01*
X143092110Y-95623978D01*
X142985649Y-95695112D01*
X142895112Y-95785649D01*
X142823978Y-95892110D01*
X142774979Y-96010402D01*
X142750000Y-96135981D01*
X142750000Y-96264019D01*
X142773501Y-96382170D01*
X142773257Y-96382244D01*
X142695081Y-96424030D01*
X142643730Y-96466173D01*
X142643726Y-96466177D01*
X142626561Y-96480264D01*
X142612474Y-96497429D01*
X139497430Y-99612474D01*
X139480265Y-99626561D01*
X139466178Y-99643726D01*
X139466173Y-99643731D01*
X139424030Y-99695082D01*
X139382244Y-99773258D01*
X139356513Y-99858083D01*
X139347825Y-99946298D01*
X139350002Y-99968402D01*
X139350001Y-102213603D01*
X138413605Y-103150000D01*
X138335981Y-103150000D01*
X138210402Y-103174979D01*
X138150000Y-103199999D01*
X138150000Y-101169647D01*
X138151935Y-101150000D01*
X138149380Y-101124053D01*
X138144212Y-101071586D01*
X138121340Y-100996186D01*
X138084197Y-100926697D01*
X138034211Y-100865789D01*
X137973303Y-100815803D01*
X137903814Y-100778660D01*
X137828414Y-100755788D01*
X137750000Y-100748065D01*
X137730354Y-100750000D01*
X137591407Y-100750000D01*
X138738902Y-99602506D01*
X138816525Y-99602506D01*
X138942104Y-99577527D01*
X139060396Y-99528528D01*
X139166857Y-99457394D01*
X139257394Y-99366857D01*
X139328528Y-99260396D01*
X139377527Y-99142104D01*
X139402506Y-99016525D01*
X139402506Y-98888487D01*
X139377527Y-98762908D01*
X139328528Y-98644616D01*
X139257394Y-98538155D01*
X139166857Y-98447618D01*
X139070303Y-98383103D01*
X139119583Y-98333823D01*
X139136747Y-98319737D01*
X139150834Y-98302572D01*
X139150838Y-98302568D01*
X139192981Y-98251217D01*
X139234767Y-98173041D01*
X139234767Y-98173040D01*
X139260499Y-98088215D01*
X139267010Y-98022105D01*
X139267010Y-98022095D01*
X139269186Y-98000001D01*
X139267010Y-97977906D01*
X139267010Y-96969385D01*
X139386395Y-96850000D01*
X139464019Y-96850000D01*
X139589598Y-96825021D01*
X139707890Y-96776022D01*
X139814351Y-96704888D01*
X139904888Y-96614351D01*
X139976022Y-96507890D01*
X140025021Y-96389598D01*
X140050000Y-96264019D01*
X140050000Y-96135981D01*
X140025021Y-96010402D01*
X139976022Y-95892110D01*
X139904888Y-95785649D01*
X139814351Y-95695112D01*
X139707890Y-95623978D01*
X139589598Y-95574979D01*
X139464019Y-95550000D01*
X139335981Y-95550000D01*
X139210402Y-95574979D01*
X139092110Y-95623978D01*
X138985649Y-95695112D01*
X138895112Y-95785649D01*
X138823978Y-95892110D01*
X138774979Y-96010402D01*
X138750000Y-96135981D01*
X138750000Y-96213605D01*
X138650000Y-96313605D01*
X138650000Y-94250000D01*
X138664019Y-94250000D01*
X138789598Y-94225021D01*
X138907890Y-94176022D01*
X139014351Y-94104888D01*
X139104888Y-94014351D01*
X139176022Y-93907890D01*
X139225021Y-93789598D01*
X139250000Y-93664019D01*
X139250000Y-93535981D01*
X139225021Y-93410402D01*
X139176022Y-93292110D01*
X139104888Y-93185649D01*
X139014351Y-93095112D01*
X138907890Y-93023978D01*
X138789598Y-92974979D01*
X138664019Y-92950000D01*
X138535981Y-92950000D01*
X138410402Y-92974979D01*
X138292110Y-93023978D01*
X138185649Y-93095112D01*
X138095112Y-93185649D01*
X138023978Y-93292110D01*
X138020279Y-93301040D01*
X138014351Y-93295112D01*
X137907890Y-93223978D01*
X137789598Y-93174979D01*
X137664019Y-93150000D01*
X137535981Y-93150000D01*
X137410402Y-93174979D01*
X137292110Y-93223978D01*
X137185649Y-93295112D01*
X137095112Y-93385649D01*
X137037306Y-93472163D01*
X137025021Y-93410402D01*
X136976022Y-93292110D01*
X136904888Y-93185649D01*
X136814351Y-93095112D01*
X136707890Y-93023978D01*
X136589598Y-92974979D01*
X136464019Y-92950000D01*
X136335981Y-92950000D01*
X136210402Y-92974979D01*
X136092110Y-93023978D01*
X135985649Y-93095112D01*
X135895112Y-93185649D01*
X135823978Y-93292110D01*
X135774979Y-93410402D01*
X135750000Y-93535981D01*
X135750000Y-93664019D01*
X135774979Y-93789598D01*
X135823978Y-93907890D01*
X135852115Y-93950000D01*
X135735981Y-93950000D01*
X135610402Y-93974979D01*
X135492110Y-94023978D01*
X135385649Y-94095112D01*
X135295112Y-94185649D01*
X135223978Y-94292110D01*
X135174979Y-94410402D01*
X135150000Y-94535981D01*
X135150000Y-94664019D01*
X135174979Y-94789598D01*
X135223978Y-94907890D01*
X135295112Y-95014351D01*
X135385649Y-95104888D01*
X135492110Y-95176022D01*
X135610402Y-95225021D01*
X135735981Y-95250000D01*
X135750001Y-95250000D01*
X135750000Y-97613604D01*
X134715329Y-98648275D01*
X134715329Y-98604924D01*
X134678232Y-98418425D01*
X134605464Y-98242746D01*
X134499820Y-98084640D01*
X134365361Y-97950181D01*
X134207255Y-97844537D01*
X134031576Y-97771769D01*
X133845077Y-97734672D01*
X133654923Y-97734672D01*
X133468424Y-97771769D01*
X133292745Y-97844537D01*
X133134639Y-97950181D01*
X133000180Y-98084640D01*
X132894536Y-98242746D01*
X132821768Y-98418425D01*
X132784671Y-98604924D01*
X132784671Y-98795078D01*
X132821768Y-98981577D01*
X132894536Y-99157256D01*
X133000180Y-99315362D01*
X133134639Y-99449821D01*
X133292745Y-99555465D01*
X133468424Y-99628233D01*
X133654923Y-99665330D01*
X133698275Y-99665330D01*
X132897429Y-100466176D01*
X132880264Y-100480263D01*
X132866177Y-100497428D01*
X132866172Y-100497433D01*
X132824029Y-100548784D01*
X132782243Y-100626960D01*
X132756512Y-100711785D01*
X132747824Y-100800000D01*
X132750001Y-100822104D01*
X132750000Y-111022104D01*
X132750001Y-111022114D01*
X132750000Y-111777907D01*
X132747824Y-111800002D01*
X132750000Y-111822096D01*
X132750000Y-111822106D01*
X132756511Y-111888216D01*
X132776482Y-111954050D01*
X132782243Y-111973042D01*
X132824029Y-112051218D01*
X132858300Y-112092977D01*
X132880263Y-112119739D01*
X132897434Y-112133831D01*
X134866204Y-114102602D01*
X134880291Y-114119767D01*
X134897456Y-114133854D01*
X134897460Y-114133858D01*
X134948811Y-114176001D01*
X134993710Y-114200000D01*
X135026987Y-114217787D01*
X135111813Y-114243519D01*
X135177923Y-114250030D01*
X135177934Y-114250030D01*
X135200028Y-114252206D01*
X135222122Y-114250030D01*
X139653120Y-114250030D01*
X139585649Y-114295112D01*
X139495112Y-114385649D01*
X139423978Y-114492110D01*
X139374979Y-114610402D01*
X139350000Y-114735981D01*
X139350000Y-114864019D01*
X139374979Y-114989598D01*
X139423978Y-115107890D01*
X139495112Y-115214351D01*
X139585649Y-115304888D01*
X139692110Y-115376022D01*
X139810402Y-115425021D01*
X139935981Y-115450000D01*
X139942895Y-115450000D01*
X140429073Y-115936178D01*
X140444736Y-115955264D01*
X140463822Y-115970927D01*
X143250000Y-118757107D01*
X143250000Y-118930761D01*
X143245112Y-118935649D01*
X143173978Y-119042110D01*
X143124979Y-119160402D01*
X143110471Y-119233339D01*
X140182500Y-116305369D01*
X140182500Y-116203481D01*
X140157521Y-116077902D01*
X140108522Y-115959610D01*
X140037388Y-115853149D01*
X139946851Y-115762612D01*
X139840390Y-115691478D01*
X139722098Y-115642479D01*
X139596519Y-115617500D01*
X139468481Y-115617500D01*
X139342902Y-115642479D01*
X139224610Y-115691478D01*
X139118149Y-115762612D01*
X139027612Y-115853149D01*
X138956478Y-115959610D01*
X138907479Y-116077902D01*
X138882500Y-116203481D01*
X138882500Y-116331519D01*
X138907479Y-116457098D01*
X138956478Y-116575390D01*
X139027612Y-116681851D01*
X139118149Y-116772388D01*
X139224610Y-116843522D01*
X139342902Y-116892521D01*
X139468481Y-116917500D01*
X139521841Y-116917500D01*
X142956913Y-120352573D01*
X142971000Y-120369738D01*
X142988165Y-120383825D01*
X142988169Y-120383829D01*
X143039520Y-120425972D01*
X143105558Y-120461270D01*
X143117696Y-120467758D01*
X143202522Y-120493490D01*
X143268632Y-120500001D01*
X143268643Y-120500001D01*
X143290737Y-120502177D01*
X143312831Y-120500001D01*
X144326851Y-120500001D01*
X144348945Y-120502177D01*
X144371039Y-120500001D01*
X144371050Y-120500001D01*
X144400000Y-120497150D01*
X144400001Y-121268394D01*
X144368294Y-121289580D01*
X144328685Y-121241315D01*
X144275390Y-121197578D01*
X144214587Y-121165078D01*
X144148612Y-121145065D01*
X144080000Y-121138307D01*
X143080000Y-121138307D01*
X143011388Y-121145065D01*
X142945413Y-121165078D01*
X142884610Y-121197578D01*
X142831315Y-121241315D01*
X142787578Y-121294610D01*
X142755078Y-121355413D01*
X142735065Y-121421388D01*
X142728307Y-121490000D01*
X142728307Y-122490000D01*
X142735065Y-122558612D01*
X142755078Y-122624587D01*
X142787578Y-122685390D01*
X142831315Y-122738685D01*
X142884610Y-122782422D01*
X142945413Y-122814922D01*
X143011388Y-122834935D01*
X143080000Y-122841693D01*
X144080000Y-122841693D01*
X144148612Y-122834935D01*
X144214587Y-122814922D01*
X144275390Y-122782422D01*
X144328685Y-122738685D01*
X144368294Y-122690420D01*
X144447374Y-122743260D01*
X144602064Y-122807335D01*
X144766282Y-122840000D01*
X144933718Y-122840000D01*
X145097936Y-122807335D01*
X145252626Y-122743260D01*
X145391844Y-122650238D01*
X145485000Y-122557082D01*
X145578156Y-122650238D01*
X145717374Y-122743260D01*
X145872064Y-122807335D01*
X146036282Y-122840000D01*
X146203718Y-122840000D01*
X146367936Y-122807335D01*
X146522626Y-122743260D01*
X146661844Y-122650238D01*
X146755000Y-122557082D01*
X146848156Y-122650238D01*
X146987374Y-122743260D01*
X147142064Y-122807335D01*
X147306282Y-122840000D01*
X147473718Y-122840000D01*
X147637936Y-122807335D01*
X147792626Y-122743260D01*
X147931844Y-122650238D01*
X148025000Y-122557082D01*
X148118156Y-122650238D01*
X148257374Y-122743260D01*
X148412064Y-122807335D01*
X148576282Y-122840000D01*
X148743718Y-122840000D01*
X148907936Y-122807335D01*
X149062626Y-122743260D01*
X149201844Y-122650238D01*
X149320238Y-122531844D01*
X149413260Y-122392626D01*
X149477335Y-122237936D01*
X149510000Y-122073718D01*
X149510000Y-121906282D01*
X149477335Y-121742064D01*
X149418502Y-121600030D01*
X150363635Y-121600030D01*
X151666176Y-122902572D01*
X151680263Y-122919737D01*
X151697428Y-122933824D01*
X151697432Y-122933828D01*
X151748783Y-122975971D01*
X151806971Y-123007073D01*
X151826959Y-123017757D01*
X151911785Y-123043489D01*
X151977895Y-123050000D01*
X151977905Y-123050000D01*
X151999999Y-123052176D01*
X152022093Y-123050000D01*
X158451778Y-123050000D01*
X158473872Y-123052176D01*
X158495966Y-123050000D01*
X158495977Y-123050000D01*
X158562087Y-123043489D01*
X158646913Y-123017757D01*
X158725088Y-122975971D01*
X158793609Y-122919737D01*
X158807701Y-122902566D01*
X160282672Y-121427596D01*
X160282676Y-121427591D01*
X160770764Y-120939504D01*
X160770768Y-120939499D01*
X161802601Y-119907667D01*
X161819766Y-119893580D01*
X161833853Y-119876415D01*
X161833857Y-119876411D01*
X161876000Y-119825060D01*
X161917786Y-119746884D01*
X161922227Y-119732243D01*
X161943518Y-119662058D01*
X161950029Y-119595948D01*
X161950029Y-119595937D01*
X161952205Y-119573843D01*
X161950029Y-119551749D01*
X161950029Y-116012890D01*
X161952205Y-115990798D01*
X161950029Y-115968706D01*
X161950029Y-115968694D01*
X161943518Y-115902584D01*
X161917786Y-115817758D01*
X161876000Y-115739583D01*
X161819766Y-115671062D01*
X161802595Y-115656970D01*
X161688448Y-115542823D01*
X161688443Y-115542817D01*
X160058126Y-113912500D01*
X160118261Y-113912500D01*
X160148149Y-113942388D01*
X160254610Y-114013522D01*
X160372902Y-114062521D01*
X160498481Y-114087500D01*
X160626519Y-114087500D01*
X160752098Y-114062521D01*
X160870390Y-114013522D01*
X160976851Y-113942388D01*
X161067388Y-113851851D01*
X161138522Y-113745390D01*
X161187521Y-113627098D01*
X161212500Y-113501519D01*
X161212500Y-113373481D01*
X161187521Y-113247902D01*
X161138522Y-113129610D01*
X161067388Y-113023149D01*
X160976851Y-112932612D01*
X160870390Y-112861478D01*
X160752098Y-112812479D01*
X160626519Y-112787500D01*
X160498481Y-112787500D01*
X160372902Y-112812479D01*
X160254610Y-112861478D01*
X160148149Y-112932612D01*
X160118261Y-112962500D01*
X159744536Y-112962500D01*
X158175387Y-111393352D01*
X158050040Y-111268005D01*
X158050040Y-111046674D01*
X158096186Y-111071340D01*
X158171586Y-111094212D01*
X158230353Y-111100000D01*
X158230354Y-111100000D01*
X158250000Y-111101935D01*
X158269647Y-111100000D01*
X164230437Y-111100000D01*
X164560402Y-111132354D01*
X164858983Y-111222500D01*
X165134367Y-111368925D01*
X165376063Y-111566047D01*
X165574870Y-111806363D01*
X165723215Y-112080723D01*
X165815441Y-112378657D01*
X165850001Y-112707468D01*
X165850000Y-113505353D01*
X165848065Y-113525000D01*
X165855788Y-113603414D01*
X165878660Y-113678814D01*
X165896214Y-113711655D01*
X165889435Y-114850993D01*
X165878821Y-114870801D01*
X165878762Y-114870996D01*
X165878660Y-114871186D01*
X165867060Y-114909427D01*
X165855870Y-114946177D01*
X165855849Y-114946383D01*
X165855788Y-114946586D01*
X165851910Y-114985956D01*
X165850021Y-115004938D01*
X165850021Y-115005142D01*
X165848065Y-115025000D01*
X165849980Y-115044443D01*
X165849311Y-115687485D01*
X165772233Y-116772474D01*
X165546069Y-117821766D01*
X165174313Y-118828726D01*
X164664387Y-119773253D01*
X164026462Y-120636511D01*
X163273265Y-121401274D01*
X162419824Y-122052282D01*
X161483174Y-122576541D01*
X160482007Y-122963593D01*
X159871680Y-123104909D01*
X139455540Y-123256008D01*
X138733670Y-122005692D01*
X138718172Y-121976697D01*
X138701477Y-121956355D01*
X138686165Y-121934986D01*
X138676550Y-121925981D01*
X138668186Y-121915789D01*
X138647845Y-121899096D01*
X138628657Y-121881124D01*
X138617470Y-121874168D01*
X138607278Y-121865803D01*
X138584070Y-121853398D01*
X138561746Y-121839516D01*
X138549419Y-121834876D01*
X138537789Y-121828660D01*
X138512606Y-121821021D01*
X138488003Y-121811761D01*
X138475006Y-121809615D01*
X138462389Y-121805788D01*
X138436204Y-121803209D01*
X138410262Y-121798926D01*
X138377455Y-121800000D01*
X133122559Y-121800000D01*
X133089738Y-121798926D01*
X133063794Y-121803209D01*
X133037612Y-121805788D01*
X133024997Y-121809615D01*
X133011997Y-121811761D01*
X132987390Y-121821022D01*
X132962212Y-121828660D01*
X132950584Y-121834875D01*
X132938254Y-121839516D01*
X132915920Y-121853404D01*
X132892723Y-121865803D01*
X132882538Y-121874162D01*
X132871343Y-121881123D01*
X132852142Y-121899107D01*
X132831815Y-121915789D01*
X132823455Y-121925976D01*
X132813835Y-121934986D01*
X132798513Y-121956367D01*
X132781829Y-121976697D01*
X132766350Y-122005655D01*
X132028687Y-123283329D01*
X131179294Y-123223188D01*
X130129944Y-122997269D01*
X129122897Y-122625749D01*
X128178257Y-122116048D01*
X127314849Y-121478326D01*
X126549909Y-120725309D01*
X126485725Y-120641207D01*
X133530000Y-120641207D01*
X133530000Y-120798793D01*
X133560743Y-120953351D01*
X133621049Y-121098942D01*
X133708599Y-121229970D01*
X133820030Y-121341401D01*
X133951058Y-121428951D01*
X134096649Y-121489257D01*
X134251207Y-121520000D01*
X134408793Y-121520000D01*
X134563351Y-121489257D01*
X134708942Y-121428951D01*
X134839970Y-121341401D01*
X134951401Y-121229970D01*
X135038951Y-121098942D01*
X135099257Y-120953351D01*
X135130000Y-120798793D01*
X135130000Y-120641207D01*
X136530000Y-120641207D01*
X136530000Y-120798793D01*
X136560743Y-120953351D01*
X136621049Y-121098942D01*
X136708599Y-121229970D01*
X136820030Y-121341401D01*
X136951058Y-121428951D01*
X137096649Y-121489257D01*
X137251207Y-121520000D01*
X137408793Y-121520000D01*
X137563351Y-121489257D01*
X137708942Y-121428951D01*
X137839970Y-121341401D01*
X137951401Y-121229970D01*
X138038951Y-121098942D01*
X138099257Y-120953351D01*
X138130000Y-120798793D01*
X138130000Y-120641207D01*
X138099257Y-120486649D01*
X138038951Y-120341058D01*
X137951401Y-120210030D01*
X137839970Y-120098599D01*
X137708942Y-120011049D01*
X137563351Y-119950743D01*
X137408793Y-119920000D01*
X137251207Y-119920000D01*
X137096649Y-119950743D01*
X136951058Y-120011049D01*
X136820030Y-120098599D01*
X136708599Y-120210030D01*
X136621049Y-120341058D01*
X136560743Y-120486649D01*
X136530000Y-120641207D01*
X135130000Y-120641207D01*
X135099257Y-120486649D01*
X135038951Y-120341058D01*
X134951401Y-120210030D01*
X134839970Y-120098599D01*
X134708942Y-120011049D01*
X134563351Y-119950743D01*
X134408793Y-119920000D01*
X134251207Y-119920000D01*
X134096649Y-119950743D01*
X133951058Y-120011049D01*
X133820030Y-120098599D01*
X133708599Y-120210030D01*
X133621049Y-120341058D01*
X133560743Y-120486649D01*
X133530000Y-120641207D01*
X126485725Y-120641207D01*
X125898699Y-119872019D01*
X125374220Y-118935492D01*
X124986930Y-117934407D01*
X124744558Y-116888746D01*
X124650853Y-115806809D01*
X124650001Y-115698386D01*
X124650001Y-114200000D01*
X128623307Y-114200000D01*
X128623307Y-115150000D01*
X128634388Y-115262507D01*
X128667205Y-115370691D01*
X128720497Y-115470393D01*
X128792216Y-115557784D01*
X128879607Y-115629503D01*
X128979309Y-115682795D01*
X129087493Y-115715612D01*
X129200000Y-115726693D01*
X129650000Y-115726693D01*
X129762507Y-115715612D01*
X129870691Y-115682795D01*
X129970393Y-115629503D01*
X130057784Y-115557784D01*
X130129503Y-115470393D01*
X130182795Y-115370691D01*
X130215612Y-115262507D01*
X130226693Y-115150000D01*
X130226693Y-114604923D01*
X132784671Y-114604923D01*
X132784671Y-114795077D01*
X132821768Y-114981576D01*
X132894536Y-115157255D01*
X133000180Y-115315361D01*
X133134639Y-115449820D01*
X133292745Y-115555464D01*
X133468424Y-115628232D01*
X133654923Y-115665329D01*
X133845077Y-115665329D01*
X134031576Y-115628232D01*
X134207255Y-115555464D01*
X134365361Y-115449820D01*
X134499820Y-115315361D01*
X134605464Y-115157255D01*
X134678232Y-114981576D01*
X134715329Y-114795077D01*
X134715329Y-114604923D01*
X134678232Y-114418424D01*
X134605464Y-114242745D01*
X134499820Y-114084639D01*
X134365361Y-113950180D01*
X134207255Y-113844536D01*
X134031576Y-113771768D01*
X133845077Y-113734671D01*
X133654923Y-113734671D01*
X133468424Y-113771768D01*
X133292745Y-113844536D01*
X133134639Y-113950180D01*
X133000180Y-114084639D01*
X132894536Y-114242745D01*
X132821768Y-114418424D01*
X132784671Y-114604923D01*
X130226693Y-114604923D01*
X130226693Y-114200000D01*
X130215612Y-114087493D01*
X130182795Y-113979309D01*
X130129503Y-113879607D01*
X130057784Y-113792216D01*
X129970393Y-113720497D01*
X129870691Y-113667205D01*
X129762507Y-113634388D01*
X129650000Y-113623307D01*
X129200000Y-113623307D01*
X129087493Y-113634388D01*
X128979309Y-113667205D01*
X128879607Y-113720497D01*
X128792216Y-113792216D01*
X128720497Y-113879607D01*
X128667205Y-113979309D01*
X128634388Y-114087493D01*
X128623307Y-114200000D01*
X124650001Y-114200000D01*
X124650001Y-112721232D01*
X124682066Y-112391053D01*
X124771936Y-112092388D01*
X124918105Y-111816870D01*
X125115003Y-111574990D01*
X125355136Y-111375960D01*
X125629353Y-111227362D01*
X125927210Y-111134857D01*
X126255926Y-111100000D01*
X132230355Y-111100000D01*
X132250001Y-111101935D01*
X132289031Y-111098091D01*
X132328415Y-111094212D01*
X132403815Y-111071340D01*
X132473304Y-111034197D01*
X132534212Y-110984211D01*
X132584198Y-110923303D01*
X132621341Y-110853814D01*
X132644213Y-110778414D01*
X132651936Y-110700000D01*
X132650001Y-110680353D01*
X132650001Y-96719648D01*
X132651936Y-96700001D01*
X132644213Y-96621587D01*
X132621341Y-96546187D01*
X132584198Y-96476698D01*
X132534212Y-96415790D01*
X132473304Y-96365804D01*
X132403815Y-96328661D01*
X132328415Y-96305789D01*
X132269648Y-96300001D01*
X132269647Y-96300001D01*
X132250001Y-96298066D01*
X132230354Y-96300001D01*
X129536394Y-96300001D01*
X129830710Y-96005685D01*
X129963678Y-96014109D01*
X130713221Y-95987934D01*
X130854418Y-95969032D01*
X130989214Y-95922946D01*
X131112429Y-95851449D01*
X131219329Y-95757287D01*
X131305804Y-95644080D01*
X131368532Y-95516177D01*
X131405102Y-95378494D01*
X131414109Y-95236322D01*
X131387934Y-94486779D01*
X131369032Y-94345582D01*
X131322946Y-94210786D01*
X131251449Y-94087571D01*
X131157287Y-93980671D01*
X131061939Y-93907838D01*
X131119329Y-93857287D01*
X131205804Y-93744080D01*
X131268532Y-93616177D01*
X131305102Y-93478494D01*
X131314109Y-93336322D01*
X131287934Y-92586779D01*
X131269032Y-92445582D01*
X131222946Y-92310786D01*
X131151449Y-92187571D01*
X131057287Y-92080671D01*
X130944080Y-91994196D01*
X130816177Y-91931468D01*
X130700000Y-91900610D01*
X130700000Y-88607105D01*
X132407106Y-86900000D01*
X138874071Y-86900000D01*
X138775575Y-86998496D01*
X138655193Y-87178660D01*
X138572273Y-87378847D01*
X138530000Y-87591364D01*
X138530000Y-87808046D01*
X138572273Y-88020563D01*
X138655193Y-88220750D01*
X138775575Y-88400914D01*
X138928791Y-88554130D01*
X139108955Y-88674512D01*
X139180000Y-88703940D01*
X139180001Y-89983603D01*
X138448752Y-90714853D01*
X136186947Y-90714853D01*
X136164853Y-90712677D01*
X136142759Y-90714853D01*
X136142748Y-90714853D01*
X136076638Y-90721364D01*
X135991812Y-90747096D01*
X135959048Y-90764609D01*
X135913636Y-90788882D01*
X135862285Y-90831024D01*
X135862276Y-90831033D01*
X135845116Y-90845116D01*
X135831033Y-90862276D01*
X134297434Y-92395876D01*
X134280263Y-92409968D01*
X134266172Y-92427138D01*
X134224029Y-92478489D01*
X134186455Y-92548785D01*
X134182243Y-92556665D01*
X134156511Y-92641491D01*
X134150000Y-92707601D01*
X134150000Y-92707611D01*
X134147824Y-92729705D01*
X134150000Y-92751799D01*
X134150000Y-92777895D01*
X134147823Y-92800000D01*
X134150000Y-92822104D01*
X134150001Y-95330760D01*
X134095112Y-95385649D01*
X134023978Y-95492110D01*
X133974979Y-95610402D01*
X133950000Y-95735981D01*
X133950000Y-95864019D01*
X133974979Y-95989598D01*
X134023978Y-96107890D01*
X134095112Y-96214351D01*
X134185649Y-96304888D01*
X134292110Y-96376022D01*
X134410402Y-96425021D01*
X134535981Y-96450000D01*
X134664019Y-96450000D01*
X134789598Y-96425021D01*
X134907890Y-96376022D01*
X135014351Y-96304888D01*
X135104888Y-96214351D01*
X135176022Y-96107890D01*
X135225021Y-95989598D01*
X135250000Y-95864019D01*
X135250000Y-95735981D01*
X135225021Y-95610402D01*
X135176022Y-95492110D01*
X135104888Y-95385649D01*
X135050000Y-95330761D01*
X135050000Y-92916100D01*
X135837690Y-92128411D01*
X135895112Y-92214351D01*
X135985649Y-92304888D01*
X136092110Y-92376022D01*
X136210402Y-92425021D01*
X136335981Y-92450000D01*
X136464019Y-92450000D01*
X136589598Y-92425021D01*
X136707890Y-92376022D01*
X136814351Y-92304888D01*
X136869239Y-92250000D01*
X139661613Y-92250000D01*
X139683707Y-92252176D01*
X139705801Y-92250000D01*
X139705812Y-92250000D01*
X139771922Y-92243489D01*
X139856748Y-92217757D01*
X139934923Y-92175971D01*
X140003444Y-92119737D01*
X140017536Y-92102566D01*
X140367600Y-91752502D01*
X140374979Y-91789598D01*
X140423978Y-91907890D01*
X140495112Y-92014351D01*
X140585649Y-92104888D01*
X140692110Y-92176022D01*
X140810402Y-92225021D01*
X140935981Y-92250000D01*
X141013605Y-92250000D01*
X142150000Y-93386396D01*
X142150000Y-93464019D01*
X142174979Y-93589598D01*
X142223978Y-93707890D01*
X142295112Y-93814351D01*
X142385649Y-93904888D01*
X142492110Y-93976022D01*
X142610402Y-94025021D01*
X142735981Y-94050000D01*
X142864019Y-94050000D01*
X142989598Y-94025021D01*
X143107890Y-93976022D01*
X143214351Y-93904888D01*
X143304888Y-93814351D01*
X143376022Y-93707890D01*
X143425021Y-93589598D01*
X143450000Y-93464019D01*
X143450000Y-93335981D01*
X143425021Y-93210402D01*
X143376022Y-93092110D01*
X143304888Y-92985649D01*
X143214351Y-92895112D01*
X143107890Y-92823978D01*
X142989598Y-92774979D01*
X142864019Y-92750000D01*
X142786396Y-92750000D01*
X141650000Y-91613605D01*
X141650000Y-91535981D01*
X141625021Y-91410402D01*
X141576022Y-91292110D01*
X141504888Y-91185649D01*
X141414351Y-91095112D01*
X141307890Y-91023978D01*
X141189598Y-90974979D01*
X141152502Y-90967600D01*
X143070103Y-89050000D01*
X148229947Y-89050000D01*
X148533405Y-89575606D01*
X148616383Y-89691402D01*
X148720357Y-89788784D01*
X148841331Y-89864011D01*
X148974658Y-89914191D01*
X149115212Y-89937397D01*
X149257592Y-89932736D01*
X149396327Y-89900388D01*
X149526086Y-89841595D01*
X150175606Y-89466595D01*
X150291402Y-89383617D01*
X150388784Y-89279643D01*
X150464011Y-89158669D01*
X150514191Y-89025342D01*
X150535006Y-88899267D01*
X150574658Y-88914191D01*
X150715212Y-88937397D01*
X150857592Y-88932736D01*
X150996327Y-88900388D01*
X151126086Y-88841595D01*
X151775606Y-88466595D01*
X151891402Y-88383617D01*
X151988784Y-88279643D01*
X152064011Y-88158669D01*
X152114191Y-88025342D01*
X152137397Y-87884788D01*
X152132736Y-87742408D01*
X152100388Y-87603673D01*
X152041595Y-87473914D01*
X151666595Y-86824394D01*
X151583617Y-86708598D01*
X151479643Y-86611216D01*
X151400000Y-86561690D01*
X151400000Y-85166852D01*
X151402419Y-85142292D01*
X151392765Y-85044275D01*
X151368124Y-84963044D01*
X151364175Y-84950026D01*
X151317746Y-84863164D01*
X151255264Y-84787029D01*
X151236181Y-84771368D01*
X151185899Y-84721086D01*
X151848926Y-84721086D01*
X151851504Y-84799836D01*
X151869396Y-84876570D01*
X151901915Y-84948340D01*
X151913412Y-84964384D01*
X152443771Y-85882994D01*
X152451915Y-85900968D01*
X152463409Y-85917008D01*
X152463413Y-85917015D01*
X152497809Y-85965015D01*
X152555317Y-86018877D01*
X152622228Y-86060485D01*
X152695971Y-86088240D01*
X152773712Y-86101075D01*
X152773713Y-86101075D01*
X152852463Y-86098497D01*
X152929197Y-86080605D01*
X152982985Y-86056234D01*
X152982988Y-86056232D01*
X153000967Y-86048086D01*
X153017011Y-86036589D01*
X155667672Y-84506230D01*
X155685646Y-84498086D01*
X155701686Y-84486592D01*
X155701693Y-84486588D01*
X155749693Y-84452192D01*
X155803555Y-84394684D01*
X155845163Y-84327773D01*
X155872918Y-84254030D01*
X155885753Y-84176289D01*
X155885753Y-84176288D01*
X155883175Y-84097537D01*
X155865283Y-84020803D01*
X155840912Y-83967015D01*
X155840908Y-83967009D01*
X155832764Y-83949034D01*
X155821270Y-83932993D01*
X155290912Y-83014388D01*
X155282764Y-82996406D01*
X155236869Y-82932359D01*
X155179361Y-82878497D01*
X155112450Y-82836889D01*
X155038707Y-82809134D01*
X154960966Y-82796299D01*
X154882215Y-82798877D01*
X154805481Y-82816769D01*
X154751693Y-82841140D01*
X154751687Y-82841144D01*
X154733712Y-82849288D01*
X154717672Y-82860782D01*
X152067015Y-84391140D01*
X152049033Y-84399288D01*
X152032986Y-84410787D01*
X151984986Y-84445183D01*
X151931124Y-84502691D01*
X151889516Y-84569602D01*
X151861761Y-84643345D01*
X151848926Y-84721086D01*
X151185899Y-84721086D01*
X150528930Y-84064118D01*
X150513265Y-84045030D01*
X150437130Y-83982548D01*
X150350268Y-83936119D01*
X150256018Y-83907529D01*
X150182561Y-83900294D01*
X150158001Y-83897875D01*
X150133441Y-83900294D01*
X142024263Y-83900294D01*
X141999705Y-83897875D01*
X141975147Y-83900294D01*
X141975146Y-83900294D01*
X141901689Y-83907529D01*
X141807439Y-83936119D01*
X141720577Y-83982548D01*
X141644442Y-84045030D01*
X141628781Y-84064113D01*
X141258209Y-84434686D01*
X141126086Y-84358405D01*
X140996327Y-84299612D01*
X140857592Y-84267264D01*
X140715212Y-84262603D01*
X140574658Y-84285809D01*
X140441331Y-84335989D01*
X140320357Y-84411216D01*
X140216383Y-84508598D01*
X140133405Y-84624394D01*
X139758405Y-85273914D01*
X139699612Y-85403673D01*
X139667264Y-85542408D01*
X139662603Y-85684788D01*
X139685809Y-85825342D01*
X139713908Y-85900000D01*
X138048524Y-85900000D01*
X138056233Y-85882986D01*
X138586591Y-84964381D01*
X138598085Y-84948340D01*
X138606229Y-84930365D01*
X138606233Y-84930359D01*
X138630604Y-84876571D01*
X138648496Y-84799837D01*
X138651074Y-84721086D01*
X138644196Y-84679424D01*
X138638239Y-84643344D01*
X138610484Y-84569601D01*
X138568876Y-84502689D01*
X138515014Y-84445182D01*
X138467014Y-84410786D01*
X138467007Y-84410782D01*
X138450967Y-84399288D01*
X138432993Y-84391144D01*
X136508435Y-83280000D01*
X150450761Y-83280000D01*
X150505649Y-83334888D01*
X150612110Y-83406022D01*
X150730402Y-83455021D01*
X150855981Y-83480000D01*
X150984019Y-83480000D01*
X151109598Y-83455021D01*
X151227890Y-83406022D01*
X151334351Y-83334888D01*
X151424888Y-83244351D01*
X151496022Y-83137890D01*
X151545021Y-83019598D01*
X151570000Y-82894019D01*
X151570000Y-82765981D01*
X151545021Y-82640402D01*
X151496022Y-82522110D01*
X151424888Y-82415649D01*
X151334351Y-82325112D01*
X151227890Y-82253978D01*
X151109598Y-82204979D01*
X151084521Y-82199991D01*
X156821736Y-82199991D01*
X157755572Y-83133828D01*
G37*
G04 #@! TD.AperFunction*
D19*
X145266176Y-118502572D02*
X145280263Y-118519737D01*
X145297428Y-118533824D01*
X145297432Y-118533828D01*
X145348783Y-118575971D01*
X145424405Y-118616392D01*
X145426959Y-118617757D01*
X145511785Y-118643489D01*
X145577895Y-118650000D01*
X145577905Y-118650000D01*
X145599999Y-118652176D01*
X145622093Y-118650000D01*
X151813605Y-118650000D01*
X152475000Y-119311396D01*
X152475000Y-119389019D01*
X152499979Y-119514598D01*
X152548978Y-119632890D01*
X152620112Y-119739351D01*
X152710649Y-119829888D01*
X152817110Y-119901022D01*
X152935402Y-119950021D01*
X153060981Y-119975000D01*
X153189019Y-119975000D01*
X153314598Y-119950021D01*
X153432890Y-119901022D01*
X153539351Y-119829888D01*
X153629888Y-119739351D01*
X153701022Y-119632890D01*
X153750021Y-119514598D01*
X153775000Y-119389019D01*
X153775000Y-119260981D01*
X153750021Y-119135402D01*
X153701022Y-119017110D01*
X153629888Y-118910649D01*
X153539351Y-118820112D01*
X153432890Y-118748978D01*
X153314598Y-118699979D01*
X153189019Y-118675000D01*
X153111396Y-118675000D01*
X152686385Y-118249990D01*
X153428595Y-118249990D01*
X154457500Y-119278896D01*
X154457500Y-119356519D01*
X154482479Y-119482098D01*
X154531478Y-119600390D01*
X154602612Y-119706851D01*
X154693149Y-119797388D01*
X154799610Y-119868522D01*
X154917902Y-119917521D01*
X155043481Y-119942500D01*
X155171519Y-119942500D01*
X155297098Y-119917521D01*
X155415390Y-119868522D01*
X155521851Y-119797388D01*
X155612388Y-119706851D01*
X155683522Y-119600390D01*
X155732521Y-119482098D01*
X155757500Y-119356519D01*
X155757500Y-119228481D01*
X155732521Y-119102902D01*
X155683522Y-118984610D01*
X155612388Y-118878149D01*
X155521851Y-118787612D01*
X155415390Y-118716478D01*
X155297098Y-118667479D01*
X155171519Y-118642500D01*
X155093896Y-118642500D01*
X154301375Y-117849980D01*
X155013585Y-117849980D01*
X155150000Y-117986395D01*
X155150000Y-118064019D01*
X155174979Y-118189598D01*
X155223978Y-118307890D01*
X155295112Y-118414351D01*
X155385649Y-118504888D01*
X155492110Y-118576022D01*
X155610402Y-118625021D01*
X155735981Y-118650000D01*
X155864019Y-118650000D01*
X155989598Y-118625021D01*
X156107890Y-118576022D01*
X156214351Y-118504888D01*
X156304888Y-118414351D01*
X156376022Y-118307890D01*
X156425021Y-118189598D01*
X156450000Y-118064019D01*
X156450000Y-117935981D01*
X156425021Y-117810402D01*
X156376022Y-117692110D01*
X156304888Y-117585649D01*
X156214351Y-117495112D01*
X156146790Y-117449970D01*
X156213575Y-117449970D01*
X157150000Y-118386396D01*
X157150000Y-118464019D01*
X157174979Y-118589598D01*
X157223978Y-118707890D01*
X157295112Y-118814351D01*
X157385649Y-118904888D01*
X157492110Y-118976022D01*
X157610402Y-119025021D01*
X157735981Y-119050000D01*
X157864019Y-119050000D01*
X157989598Y-119025021D01*
X158107890Y-118976022D01*
X158214351Y-118904888D01*
X158304888Y-118814351D01*
X158376022Y-118707890D01*
X158425021Y-118589598D01*
X158446287Y-118482683D01*
X158750000Y-118786396D01*
X158750001Y-119213603D01*
X157497434Y-120466171D01*
X157480263Y-120480263D01*
X157466172Y-120497433D01*
X157424029Y-120548784D01*
X157423395Y-120549970D01*
X152952064Y-120549970D01*
X151499519Y-119097426D01*
X151485427Y-119080255D01*
X151416906Y-119024021D01*
X151338731Y-118982235D01*
X151253905Y-118956503D01*
X151187795Y-118949992D01*
X151187784Y-118949992D01*
X151165690Y-118947816D01*
X151143596Y-118949992D01*
X145173125Y-118949992D01*
X145112171Y-118931502D01*
X145023956Y-118922814D01*
X144935740Y-118931502D01*
X144850915Y-118957233D01*
X144772740Y-118999019D01*
X144721389Y-119041162D01*
X144696388Y-119066163D01*
X144679217Y-119080255D01*
X144665125Y-119097426D01*
X144496911Y-119265640D01*
X144496905Y-119265645D01*
X144400000Y-119362550D01*
X144400000Y-119285981D01*
X144375021Y-119160402D01*
X144326022Y-119042110D01*
X144254888Y-118935649D01*
X144250000Y-118930761D01*
X144250000Y-118574560D01*
X144252419Y-118550000D01*
X144242765Y-118451983D01*
X144240150Y-118443363D01*
X144214175Y-118357733D01*
X144167746Y-118270871D01*
X144105264Y-118194736D01*
X144086187Y-118179080D01*
X141170927Y-115263822D01*
X141155264Y-115244736D01*
X141136178Y-115229073D01*
X140650000Y-114742895D01*
X140650000Y-114735981D01*
X140625021Y-114610402D01*
X140576022Y-114492110D01*
X140504888Y-114385649D01*
X140414351Y-114295112D01*
X140346880Y-114250030D01*
X141013635Y-114250030D01*
X145266176Y-118502572D01*
G04 #@! TA.AperFunction,Conductor*
D22*
G36*
X145266176Y-118502572D02*
G01*
X145280263Y-118519737D01*
X145297428Y-118533824D01*
X145297432Y-118533828D01*
X145348783Y-118575971D01*
X145424405Y-118616392D01*
X145426959Y-118617757D01*
X145511785Y-118643489D01*
X145577895Y-118650000D01*
X145577905Y-118650000D01*
X145599999Y-118652176D01*
X145622093Y-118650000D01*
X151813605Y-118650000D01*
X152475000Y-119311396D01*
X152475000Y-119389019D01*
X152499979Y-119514598D01*
X152548978Y-119632890D01*
X152620112Y-119739351D01*
X152710649Y-119829888D01*
X152817110Y-119901022D01*
X152935402Y-119950021D01*
X153060981Y-119975000D01*
X153189019Y-119975000D01*
X153314598Y-119950021D01*
X153432890Y-119901022D01*
X153539351Y-119829888D01*
X153629888Y-119739351D01*
X153701022Y-119632890D01*
X153750021Y-119514598D01*
X153775000Y-119389019D01*
X153775000Y-119260981D01*
X153750021Y-119135402D01*
X153701022Y-119017110D01*
X153629888Y-118910649D01*
X153539351Y-118820112D01*
X153432890Y-118748978D01*
X153314598Y-118699979D01*
X153189019Y-118675000D01*
X153111396Y-118675000D01*
X152686385Y-118249990D01*
X153428595Y-118249990D01*
X154457500Y-119278896D01*
X154457500Y-119356519D01*
X154482479Y-119482098D01*
X154531478Y-119600390D01*
X154602612Y-119706851D01*
X154693149Y-119797388D01*
X154799610Y-119868522D01*
X154917902Y-119917521D01*
X155043481Y-119942500D01*
X155171519Y-119942500D01*
X155297098Y-119917521D01*
X155415390Y-119868522D01*
X155521851Y-119797388D01*
X155612388Y-119706851D01*
X155683522Y-119600390D01*
X155732521Y-119482098D01*
X155757500Y-119356519D01*
X155757500Y-119228481D01*
X155732521Y-119102902D01*
X155683522Y-118984610D01*
X155612388Y-118878149D01*
X155521851Y-118787612D01*
X155415390Y-118716478D01*
X155297098Y-118667479D01*
X155171519Y-118642500D01*
X155093896Y-118642500D01*
X154301375Y-117849980D01*
X155013585Y-117849980D01*
X155150000Y-117986395D01*
X155150000Y-118064019D01*
X155174979Y-118189598D01*
X155223978Y-118307890D01*
X155295112Y-118414351D01*
X155385649Y-118504888D01*
X155492110Y-118576022D01*
X155610402Y-118625021D01*
X155735981Y-118650000D01*
X155864019Y-118650000D01*
X155989598Y-118625021D01*
X156107890Y-118576022D01*
X156214351Y-118504888D01*
X156304888Y-118414351D01*
X156376022Y-118307890D01*
X156425021Y-118189598D01*
X156450000Y-118064019D01*
X156450000Y-117935981D01*
X156425021Y-117810402D01*
X156376022Y-117692110D01*
X156304888Y-117585649D01*
X156214351Y-117495112D01*
X156146790Y-117449970D01*
X156213575Y-117449970D01*
X157150000Y-118386396D01*
X157150000Y-118464019D01*
X157174979Y-118589598D01*
X157223978Y-118707890D01*
X157295112Y-118814351D01*
X157385649Y-118904888D01*
X157492110Y-118976022D01*
X157610402Y-119025021D01*
X157735981Y-119050000D01*
X157864019Y-119050000D01*
X157989598Y-119025021D01*
X158107890Y-118976022D01*
X158214351Y-118904888D01*
X158304888Y-118814351D01*
X158376022Y-118707890D01*
X158425021Y-118589598D01*
X158446287Y-118482683D01*
X158750000Y-118786396D01*
X158750001Y-119213603D01*
X157497434Y-120466171D01*
X157480263Y-120480263D01*
X157466172Y-120497433D01*
X157424029Y-120548784D01*
X157423395Y-120549970D01*
X152952064Y-120549970D01*
X151499519Y-119097426D01*
X151485427Y-119080255D01*
X151416906Y-119024021D01*
X151338731Y-118982235D01*
X151253905Y-118956503D01*
X151187795Y-118949992D01*
X151187784Y-118949992D01*
X151165690Y-118947816D01*
X151143596Y-118949992D01*
X145173125Y-118949992D01*
X145112171Y-118931502D01*
X145023956Y-118922814D01*
X144935740Y-118931502D01*
X144850915Y-118957233D01*
X144772740Y-118999019D01*
X144721389Y-119041162D01*
X144696388Y-119066163D01*
X144679217Y-119080255D01*
X144665125Y-119097426D01*
X144496911Y-119265640D01*
X144496905Y-119265645D01*
X144400000Y-119362550D01*
X144400000Y-119285981D01*
X144375021Y-119160402D01*
X144326022Y-119042110D01*
X144254888Y-118935649D01*
X144250000Y-118930761D01*
X144250000Y-118574560D01*
X144252419Y-118550000D01*
X144242765Y-118451983D01*
X144240150Y-118443363D01*
X144214175Y-118357733D01*
X144167746Y-118270871D01*
X144105264Y-118194736D01*
X144086187Y-118179080D01*
X141170927Y-115263822D01*
X141155264Y-115244736D01*
X141136178Y-115229073D01*
X140650000Y-114742895D01*
X140650000Y-114735981D01*
X140625021Y-114610402D01*
X140576022Y-114492110D01*
X140504888Y-114385649D01*
X140414351Y-114295112D01*
X140346880Y-114250030D01*
X141013635Y-114250030D01*
X145266176Y-118502572D01*
G37*
G04 #@! TD.AperFunction*
D19*
X159750000Y-116786396D02*
X159750001Y-118813603D01*
X159650000Y-118913604D01*
X159650000Y-118622094D01*
X159652176Y-118599999D01*
X159650000Y-118577905D01*
X159650000Y-118577895D01*
X159643489Y-118511785D01*
X159617757Y-118426959D01*
X159605671Y-118404348D01*
X159575971Y-118348783D01*
X159533828Y-118297432D01*
X159533824Y-118297428D01*
X159519737Y-118280263D01*
X159502573Y-118266177D01*
X156892326Y-115655931D01*
X157031576Y-115628232D01*
X157207255Y-115555464D01*
X157365361Y-115449820D01*
X157499820Y-115315361D01*
X157605464Y-115157255D01*
X157678232Y-114981576D01*
X157715329Y-114795077D01*
X157715329Y-114751725D01*
X159750000Y-116786396D01*
G04 #@! TA.AperFunction,Conductor*
D22*
G36*
X159750000Y-116786396D02*
G01*
X159750001Y-118813603D01*
X159650000Y-118913604D01*
X159650000Y-118622094D01*
X159652176Y-118599999D01*
X159650000Y-118577905D01*
X159650000Y-118577895D01*
X159643489Y-118511785D01*
X159617757Y-118426959D01*
X159605671Y-118404348D01*
X159575971Y-118348783D01*
X159533828Y-118297432D01*
X159533824Y-118297428D01*
X159519737Y-118280263D01*
X159502573Y-118266177D01*
X156892326Y-115655931D01*
X157031576Y-115628232D01*
X157207255Y-115555464D01*
X157365361Y-115449820D01*
X157499820Y-115315361D01*
X157605464Y-115157255D01*
X157678232Y-114981576D01*
X157715329Y-114795077D01*
X157715329Y-114751725D01*
X159750000Y-116786396D01*
G37*
G04 #@! TD.AperFunction*
M02*
