G04 #@! TF.GenerationSoftware,KiCad,Pcbnew,(5.1.7)-1*
G04 #@! TF.CreationDate,2021-07-04T06:33:09+09:00*
G04 #@! TF.ProjectId,lapis,6c617069-732e-46b6-9963-61645f706362,rev?*
G04 #@! TF.SameCoordinates,Original*
G04 #@! TF.FileFunction,Soldermask,Bot*
G04 #@! TF.FilePolarity,Negative*
%FSLAX46Y46*%
G04 Gerber Fmt 4.6, Leading zero omitted, Abs format (unit mm)*
G04 Created by KiCad (PCBNEW (5.1.7)-1) date 2021-07-04 06:33:09*
%MOMM*%
%LPD*%
G01*
G04 APERTURE LIST*
%ADD10C,1.000000*%
%ADD11C,1.500000*%
%ADD12O,1.700000X1.700000*%
%ADD13R,1.700000X1.700000*%
%ADD14O,0.900000X1.400000*%
G04 APERTURE END LIST*
D10*
X148500000Y-106000000D03*
X150500000Y-106000000D03*
X142000000Y-106000000D03*
X140000000Y-106000000D03*
G36*
G01*
X151200000Y-136415000D02*
X151200000Y-136965000D01*
G75*
G02*
X150975000Y-137190000I-225000J0D01*
G01*
X150525000Y-137190000D01*
G75*
G02*
X150300000Y-136965000I0J225000D01*
G01*
X150300000Y-136415000D01*
G75*
G02*
X150525000Y-136190000I225000J0D01*
G01*
X150975000Y-136190000D01*
G75*
G02*
X151200000Y-136415000I0J-225000D01*
G01*
G37*
G36*
G01*
X153200000Y-136415000D02*
X153200000Y-136965000D01*
G75*
G02*
X152975000Y-137190000I-225000J0D01*
G01*
X152525000Y-137190000D01*
G75*
G02*
X152300000Y-136965000I0J225000D01*
G01*
X152300000Y-136415000D01*
G75*
G02*
X152525000Y-136190000I225000J0D01*
G01*
X152975000Y-136190000D01*
G75*
G02*
X153200000Y-136415000I0J-225000D01*
G01*
G37*
G36*
G01*
X155200000Y-136415000D02*
X155200000Y-136965000D01*
G75*
G02*
X154975000Y-137190000I-225000J0D01*
G01*
X154525000Y-137190000D01*
G75*
G02*
X154300000Y-136965000I0J225000D01*
G01*
X154300000Y-136415000D01*
G75*
G02*
X154525000Y-136190000I225000J0D01*
G01*
X154975000Y-136190000D01*
G75*
G02*
X155200000Y-136415000I0J-225000D01*
G01*
G37*
G36*
G01*
X139145000Y-136415000D02*
X139145000Y-136965000D01*
G75*
G02*
X138920000Y-137190000I-225000J0D01*
G01*
X138470000Y-137190000D01*
G75*
G02*
X138245000Y-136965000I0J225000D01*
G01*
X138245000Y-136415000D01*
G75*
G02*
X138470000Y-136190000I225000J0D01*
G01*
X138920000Y-136190000D01*
G75*
G02*
X139145000Y-136415000I0J-225000D01*
G01*
G37*
G36*
G01*
X141145000Y-136415000D02*
X141145000Y-136965000D01*
G75*
G02*
X140920000Y-137190000I-225000J0D01*
G01*
X140470000Y-137190000D01*
G75*
G02*
X140245000Y-136965000I0J225000D01*
G01*
X140245000Y-136415000D01*
G75*
G02*
X140470000Y-136190000I225000J0D01*
G01*
X140920000Y-136190000D01*
G75*
G02*
X141145000Y-136415000I0J-225000D01*
G01*
G37*
G36*
G01*
X143145000Y-136415000D02*
X143145000Y-136965000D01*
G75*
G02*
X142920000Y-137190000I-225000J0D01*
G01*
X142470000Y-137190000D01*
G75*
G02*
X142245000Y-136965000I0J225000D01*
G01*
X142245000Y-136415000D01*
G75*
G02*
X142470000Y-136190000I225000J0D01*
G01*
X142920000Y-136190000D01*
G75*
G02*
X143145000Y-136415000I0J-225000D01*
G01*
G37*
G36*
G01*
X140760000Y-132710000D02*
X140760000Y-132510000D01*
G75*
G02*
X140860000Y-132410000I100000J0D01*
G01*
X141295000Y-132410000D01*
G75*
G02*
X141395000Y-132510000I0J-100000D01*
G01*
X141395000Y-132710000D01*
G75*
G02*
X141295000Y-132810000I-100000J0D01*
G01*
X140860000Y-132810000D01*
G75*
G02*
X140760000Y-132710000I0J100000D01*
G01*
G37*
G36*
G01*
X139945000Y-132710000D02*
X139945000Y-132510000D01*
G75*
G02*
X140045000Y-132410000I100000J0D01*
G01*
X140480000Y-132410000D01*
G75*
G02*
X140580000Y-132510000I0J-100000D01*
G01*
X140580000Y-132710000D01*
G75*
G02*
X140480000Y-132810000I-100000J0D01*
G01*
X140045000Y-132810000D01*
G75*
G02*
X139945000Y-132710000I0J100000D01*
G01*
G37*
G36*
G01*
X152800000Y-132730000D02*
X152800000Y-132530000D01*
G75*
G02*
X152900000Y-132430000I100000J0D01*
G01*
X153335000Y-132430000D01*
G75*
G02*
X153435000Y-132530000I0J-100000D01*
G01*
X153435000Y-132730000D01*
G75*
G02*
X153335000Y-132830000I-100000J0D01*
G01*
X152900000Y-132830000D01*
G75*
G02*
X152800000Y-132730000I0J100000D01*
G01*
G37*
G36*
G01*
X151985000Y-132730000D02*
X151985000Y-132530000D01*
G75*
G02*
X152085000Y-132430000I100000J0D01*
G01*
X152520000Y-132430000D01*
G75*
G02*
X152620000Y-132530000I0J-100000D01*
G01*
X152620000Y-132730000D01*
G75*
G02*
X152520000Y-132830000I-100000J0D01*
G01*
X152085000Y-132830000D01*
G75*
G02*
X151985000Y-132730000I0J100000D01*
G01*
G37*
D11*
X160261547Y-94911355D03*
G36*
G01*
X163562631Y-94651403D02*
X163536456Y-95400946D01*
G75*
G02*
X163148597Y-95762631I-374772J13087D01*
G01*
X162399054Y-95736456D01*
G75*
G02*
X162037369Y-95348597I13087J374772D01*
G01*
X162063544Y-94599054D01*
G75*
G02*
X162451403Y-94237369I374772J-13087D01*
G01*
X163200946Y-94263544D01*
G75*
G02*
X163562631Y-94651403I-13087J-374772D01*
G01*
G37*
G36*
G01*
X149999760Y-89162020D02*
X149350240Y-89537020D01*
G75*
G02*
X148837980Y-89399760I-187500J324760D01*
G01*
X148462980Y-88750240D01*
G75*
G02*
X148600240Y-88237980I324760J187500D01*
G01*
X149249760Y-87862980D01*
G75*
G02*
X149762020Y-88000240I187500J-324760D01*
G01*
X150137020Y-88649760D01*
G75*
G02*
X149999760Y-89162020I-324760J-187500D01*
G01*
G37*
X148030000Y-86500295D03*
X141230000Y-88699705D03*
G36*
G01*
X142550240Y-85662980D02*
X143199760Y-86037980D01*
G75*
G02*
X143337020Y-86550240I-187500J-324760D01*
G01*
X142962020Y-87199760D01*
G75*
G02*
X142449760Y-87337020I-324760J187500D01*
G01*
X141800240Y-86962020D01*
G75*
G02*
X141662980Y-86449760I187500J324760D01*
G01*
X142037980Y-85800240D01*
G75*
G02*
X142550240Y-85662980I324760J-187500D01*
G01*
G37*
X127761547Y-94988645D03*
G36*
G01*
X131036456Y-94499054D02*
X131062631Y-95248597D01*
G75*
G02*
X130700946Y-95636456I-374772J-13087D01*
G01*
X129951403Y-95662631D01*
G75*
G02*
X129563544Y-95300946I-13087J374772D01*
G01*
X129537369Y-94551403D01*
G75*
G02*
X129899054Y-94163544I374772J13087D01*
G01*
X130648597Y-94137369D01*
G75*
G02*
X131036456Y-94499054I13087J-374772D01*
G01*
G37*
G36*
G01*
X130936456Y-92599054D02*
X130962631Y-93348597D01*
G75*
G02*
X130600946Y-93736456I-374772J-13087D01*
G01*
X129851403Y-93762631D01*
G75*
G02*
X129463544Y-93400946I-13087J374772D01*
G01*
X129437369Y-92651403D01*
G75*
G02*
X129799054Y-92263544I374772J13087D01*
G01*
X130548597Y-92237369D01*
G75*
G02*
X130936456Y-92599054I13087J-374772D01*
G01*
G37*
X127661547Y-93088645D03*
G36*
G01*
X151599760Y-88162020D02*
X150950240Y-88537020D01*
G75*
G02*
X150437980Y-88399760I-187500J324760D01*
G01*
X150062980Y-87750240D01*
G75*
G02*
X150200240Y-87237980I324760J187500D01*
G01*
X150849760Y-86862980D01*
G75*
G02*
X151362020Y-87000240I187500J-324760D01*
G01*
X151737020Y-87649760D01*
G75*
G02*
X151599760Y-88162020I-324760J-187500D01*
G01*
G37*
X149630000Y-85500295D03*
X139630000Y-87699705D03*
G36*
G01*
X140950240Y-84662980D02*
X141599760Y-85037980D01*
G75*
G02*
X141737020Y-85550240I-187500J-324760D01*
G01*
X141362020Y-86199760D01*
G75*
G02*
X140849760Y-86337020I-324760J187500D01*
G01*
X140200240Y-85962020D01*
G75*
G02*
X140062980Y-85449760I187500J324760D01*
G01*
X140437980Y-84800240D01*
G75*
G02*
X140950240Y-84662980I324760J-187500D01*
G01*
G37*
X160361547Y-93011355D03*
G36*
G01*
X163662631Y-92751403D02*
X163636456Y-93500946D01*
G75*
G02*
X163248597Y-93862631I-374772J13087D01*
G01*
X162499054Y-93836456D01*
G75*
G02*
X162137369Y-93448597I13087J374772D01*
G01*
X162163544Y-92699054D01*
G75*
G02*
X162551403Y-92337369I374772J-13087D01*
G01*
X163300946Y-92363544D01*
G75*
G02*
X163662631Y-92751403I-13087J-374772D01*
G01*
G37*
D12*
X148920000Y-122000000D03*
X146380000Y-122000000D03*
X143840000Y-122000000D03*
D13*
X141300000Y-122000000D03*
D14*
X128175000Y-114675000D03*
G36*
G01*
X129875000Y-114200000D02*
X129875000Y-115150000D01*
G75*
G02*
X129650000Y-115375000I-225000J0D01*
G01*
X129200000Y-115375000D01*
G75*
G02*
X128975000Y-115150000I0J225000D01*
G01*
X128975000Y-114200000D01*
G75*
G02*
X129200000Y-113975000I225000J0D01*
G01*
X129650000Y-113975000D01*
G75*
G02*
X129875000Y-114200000I0J-225000D01*
G01*
G37*
M02*
