M48
; DRILL file {KiCad (5.1.7)-1} date 07/04/21 06:33:11
; FORMAT={-:-/ absolute / inch / decimal}
; #@! TF.CreationDate,2021-07-04T06:33:11+09:00
; #@! TF.GenerationSoftware,Kicad,Pcbnew,(5.1.7)-1
FMAT,2
INCH
T1C0.0118
T2C0.0130
T3C0.0157
T4C0.0197
T5C0.0236
T6C0.0354
T7C0.0394
T8C0.0354
%
G90
G05
T1
X4.937Y-3.622
X4.9528Y-4.4291
X4.9689Y-4.6528
X5.0608Y-4.7533
X5.1362Y-4.7154
X5.1366Y-4.7886
X5.1457Y-3.3071
X5.1732Y-3.6142
X5.2087Y-4.5906
X5.2165Y-4.4528
X5.2283Y-4.7441
X5.2319Y-3.7402
X5.2638Y-3.6689
X5.2677Y-3.4055
X5.2925Y-4.2862
X5.2992Y-3.9764
X5.315Y-3.7283
X5.3291Y-3.3906
X5.3307Y-3.7756
X5.3701Y-3.7638
X5.3724Y-4.1591
X5.3744Y-4.0823
X5.3752Y-4.5972
X5.376Y-3.5807
X5.3776Y-4.6843
X5.4094Y-3.8701
X5.4138Y-3.7795
X5.4154Y-3.548
X5.4291Y-3.6496
X5.439Y-4.313
X5.439Y-5.2677
X5.4449Y-4.0827
X5.4673Y-4.2157
X5.4685Y-4.0394
X5.4764Y-4.3701
X5.4811Y-5.1583
X5.4921Y-3.2638
X5.4961Y-4.7835
X5.4969Y-3.8492
X5.5142Y-5.2638
X5.5157Y-3.1654
X5.5217Y-5.1654
X5.5276Y-3.8819
X5.5433Y-3.9562
X5.5433Y-4.1339
X5.5472Y-4.3622
X5.5689Y-5.1575
X5.5797Y-5.3829
X5.6102Y-4.0583
X5.6102Y-4.2323
X5.6142Y-4.0039
X5.6193Y-4.1004
X5.6201Y-5.2598
X5.622Y-4.4488
X5.626Y-3.7087
X5.6438Y-3.2767
X5.6496Y-4.0039
X5.6559Y-4.6988
X5.6614Y-3.7402
X5.6651Y-3.5036
X5.6839Y-3.3776
X5.6909Y-3.613
X5.6969Y-4.2283
X5.7004Y-3.9917
X5.7047Y-4.0827
X5.7091Y-4.1949
X5.7165Y-3.7441
X5.7244Y-4.7598
X5.7323Y-3.9724
X5.7333Y-4.2486
X5.7362Y-3.374
X5.748Y-3.7165
X5.7598Y-4.1929
X5.7674Y-3.5036
X5.7748Y-3.8319
X5.7874Y-3.7598
X5.7913Y-3.8622
X5.7913Y-4.2244
X5.8179Y-4.1309
X5.8393Y-3.9227
X5.8425Y-3.9732
X5.8862Y-4.2362
X5.8952Y-3.7559
X5.8996Y-3.7972
X5.9055Y-3.622
X5.913Y-4.0913
X5.9213Y-4.4921
X5.9213Y-5.248
X5.922Y-3.8827
X5.9291Y-3.1772
X5.9291Y-3.7165
X5.9331Y-5.1535
X5.9646Y-4.7345
X5.9744Y-5.3807
X5.9764Y-3.8031
X5.9764Y-3.8465
X5.9921Y-4.0551
X6.0079Y-4.2559
X6.0079Y-5.1535
X6.0118Y-3.8858
X6.0394Y-4.7283
X6.0591Y-4.2205
X6.0632Y-5.201
X6.065Y-5.2791
X6.0748Y-4.5787
X6.0787Y-4.378
X6.0866Y-4.0433
X6.0866Y-5.1654
X6.1181Y-4.7283
X6.126Y-3.7008
X6.137Y-3.2339
X6.1535Y-4.0984
X6.1622Y-3.5835
X6.1654Y-4.4567
X6.185Y-3.4055
X6.189Y-4.7244
X6.1929Y-3.9528
X6.2638Y-3.622
X6.2953Y-3.5354
X6.3425Y-4.7795
X6.3546Y-4.4668
X6.4409Y-4.4331
X6.4409Y-4.6339
T2
X6.0157Y-5.2835
T3
X5.811Y-3.8071
T4
X5.9252Y-4.1732
X5.8465Y-4.1732
X5.5906Y-4.1732
X5.5118Y-4.1732
T5
X5.0463Y-4.5148
X5.0955Y-4.5148
T6
X6.3134Y-3.6619
X6.4134Y-3.6654
X5.026Y-3.6649
X5.126Y-3.6614
X5.4972Y-3.4527
X5.5472Y-3.3661
X5.8909Y-3.3662
X5.9409Y-3.4528
X6.3095Y-3.7367
X6.4094Y-3.7402
X5.5602Y-3.4921
X5.6102Y-3.4055
X5.828Y-3.4055
X5.878Y-3.4921
X5.03Y-3.7397
X5.1299Y-3.7362
T7
X5.563Y-4.8031
X5.663Y-4.8031
X5.763Y-4.8031
X5.863Y-4.8031
T8
X5.2886Y-4.7528
X5.4067Y-4.7528
T0
M30
