G04 #@! TF.GenerationSoftware,KiCad,Pcbnew,(5.1.7)-1*
G04 #@! TF.CreationDate,2021-07-04T06:33:09+09:00*
G04 #@! TF.ProjectId,lapis,6c617069-732e-46b6-9963-61645f706362,rev?*
G04 #@! TF.SameCoordinates,Original*
G04 #@! TF.FileFunction,Soldermask,Top*
G04 #@! TF.FilePolarity,Negative*
%FSLAX46Y46*%
G04 Gerber Fmt 4.6, Leading zero omitted, Abs format (unit mm)*
G04 Created by KiCad (PCBNEW (5.1.7)-1) date 2021-07-04 06:33:09*
%MOMM*%
%LPD*%
G01*
G04 APERTURE LIST*
%ADD10R,0.700000X1.500000*%
%ADD11R,0.600000X1.200000*%
%ADD12R,0.250000X0.500000*%
%ADD13R,0.450000X1.000000*%
%ADD14C,1.000000*%
%ADD15R,1.060000X0.650000*%
%ADD16R,0.650000X1.050000*%
%ADD17C,1.500000*%
%ADD18R,0.800000X0.900000*%
%ADD19R,0.900000X0.800000*%
%ADD20R,1.600000X1.000000*%
%ADD21O,1.700000X1.700000*%
%ADD22R,1.700000X1.700000*%
%ADD23O,0.900000X1.400000*%
G04 APERTURE END LIST*
G36*
G01*
X144575000Y-102962500D02*
X144575000Y-102587500D01*
G75*
G02*
X144662500Y-102500000I87500J0D01*
G01*
X144837500Y-102500000D01*
G75*
G02*
X144925000Y-102587500I0J-87500D01*
G01*
X144925000Y-102962500D01*
G75*
G02*
X144837500Y-103050000I-87500J0D01*
G01*
X144662500Y-103050000D01*
G75*
G02*
X144575000Y-102962500I0J87500D01*
G01*
G37*
G36*
G01*
X145075000Y-102962500D02*
X145075000Y-102587500D01*
G75*
G02*
X145162500Y-102500000I87500J0D01*
G01*
X145337500Y-102500000D01*
G75*
G02*
X145425000Y-102587500I0J-87500D01*
G01*
X145425000Y-102962500D01*
G75*
G02*
X145337500Y-103050000I-87500J0D01*
G01*
X145162500Y-103050000D01*
G75*
G02*
X145075000Y-102962500I0J87500D01*
G01*
G37*
G36*
G01*
X145575000Y-102962500D02*
X145575000Y-102587500D01*
G75*
G02*
X145662500Y-102500000I87500J0D01*
G01*
X145837500Y-102500000D01*
G75*
G02*
X145925000Y-102587500I0J-87500D01*
G01*
X145925000Y-102962500D01*
G75*
G02*
X145837500Y-103050000I-87500J0D01*
G01*
X145662500Y-103050000D01*
G75*
G02*
X145575000Y-102962500I0J87500D01*
G01*
G37*
G36*
G01*
X146200000Y-103087500D02*
X146200000Y-102912500D01*
G75*
G02*
X146287500Y-102825000I87500J0D01*
G01*
X146662500Y-102825000D01*
G75*
G02*
X146750000Y-102912500I0J-87500D01*
G01*
X146750000Y-103087500D01*
G75*
G02*
X146662500Y-103175000I-87500J0D01*
G01*
X146287500Y-103175000D01*
G75*
G02*
X146200000Y-103087500I0J87500D01*
G01*
G37*
G36*
G01*
X146200000Y-103587500D02*
X146200000Y-103412500D01*
G75*
G02*
X146287500Y-103325000I87500J0D01*
G01*
X146662500Y-103325000D01*
G75*
G02*
X146750000Y-103412500I0J-87500D01*
G01*
X146750000Y-103587500D01*
G75*
G02*
X146662500Y-103675000I-87500J0D01*
G01*
X146287500Y-103675000D01*
G75*
G02*
X146200000Y-103587500I0J87500D01*
G01*
G37*
G36*
G01*
X146200000Y-104087500D02*
X146200000Y-103912500D01*
G75*
G02*
X146287500Y-103825000I87500J0D01*
G01*
X146662500Y-103825000D01*
G75*
G02*
X146750000Y-103912500I0J-87500D01*
G01*
X146750000Y-104087500D01*
G75*
G02*
X146662500Y-104175000I-87500J0D01*
G01*
X146287500Y-104175000D01*
G75*
G02*
X146200000Y-104087500I0J87500D01*
G01*
G37*
G36*
G01*
X146200000Y-104587500D02*
X146200000Y-104412500D01*
G75*
G02*
X146287500Y-104325000I87500J0D01*
G01*
X146662500Y-104325000D01*
G75*
G02*
X146750000Y-104412500I0J-87500D01*
G01*
X146750000Y-104587500D01*
G75*
G02*
X146662500Y-104675000I-87500J0D01*
G01*
X146287500Y-104675000D01*
G75*
G02*
X146200000Y-104587500I0J87500D01*
G01*
G37*
G36*
G01*
X146200000Y-105087500D02*
X146200000Y-104912500D01*
G75*
G02*
X146287500Y-104825000I87500J0D01*
G01*
X146662500Y-104825000D01*
G75*
G02*
X146750000Y-104912500I0J-87500D01*
G01*
X146750000Y-105087500D01*
G75*
G02*
X146662500Y-105175000I-87500J0D01*
G01*
X146287500Y-105175000D01*
G75*
G02*
X146200000Y-105087500I0J87500D01*
G01*
G37*
G36*
G01*
X145575000Y-105412500D02*
X145575000Y-105037500D01*
G75*
G02*
X145662500Y-104950000I87500J0D01*
G01*
X145837500Y-104950000D01*
G75*
G02*
X145925000Y-105037500I0J-87500D01*
G01*
X145925000Y-105412500D01*
G75*
G02*
X145837500Y-105500000I-87500J0D01*
G01*
X145662500Y-105500000D01*
G75*
G02*
X145575000Y-105412500I0J87500D01*
G01*
G37*
G36*
G01*
X145075000Y-105412500D02*
X145075000Y-105037500D01*
G75*
G02*
X145162500Y-104950000I87500J0D01*
G01*
X145337500Y-104950000D01*
G75*
G02*
X145425000Y-105037500I0J-87500D01*
G01*
X145425000Y-105412500D01*
G75*
G02*
X145337500Y-105500000I-87500J0D01*
G01*
X145162500Y-105500000D01*
G75*
G02*
X145075000Y-105412500I0J87500D01*
G01*
G37*
G36*
G01*
X144575000Y-105412500D02*
X144575000Y-105037500D01*
G75*
G02*
X144662500Y-104950000I87500J0D01*
G01*
X144837500Y-104950000D01*
G75*
G02*
X144925000Y-105037500I0J-87500D01*
G01*
X144925000Y-105412500D01*
G75*
G02*
X144837500Y-105500000I-87500J0D01*
G01*
X144662500Y-105500000D01*
G75*
G02*
X144575000Y-105412500I0J87500D01*
G01*
G37*
G36*
G01*
X143750000Y-105087500D02*
X143750000Y-104912500D01*
G75*
G02*
X143837500Y-104825000I87500J0D01*
G01*
X144212500Y-104825000D01*
G75*
G02*
X144300000Y-104912500I0J-87500D01*
G01*
X144300000Y-105087500D01*
G75*
G02*
X144212500Y-105175000I-87500J0D01*
G01*
X143837500Y-105175000D01*
G75*
G02*
X143750000Y-105087500I0J87500D01*
G01*
G37*
G36*
G01*
X143750000Y-104587500D02*
X143750000Y-104412500D01*
G75*
G02*
X143837500Y-104325000I87500J0D01*
G01*
X144212500Y-104325000D01*
G75*
G02*
X144300000Y-104412500I0J-87500D01*
G01*
X144300000Y-104587500D01*
G75*
G02*
X144212500Y-104675000I-87500J0D01*
G01*
X143837500Y-104675000D01*
G75*
G02*
X143750000Y-104587500I0J87500D01*
G01*
G37*
G36*
G01*
X143750000Y-104087500D02*
X143750000Y-103912500D01*
G75*
G02*
X143837500Y-103825000I87500J0D01*
G01*
X144212500Y-103825000D01*
G75*
G02*
X144300000Y-103912500I0J-87500D01*
G01*
X144300000Y-104087500D01*
G75*
G02*
X144212500Y-104175000I-87500J0D01*
G01*
X143837500Y-104175000D01*
G75*
G02*
X143750000Y-104087500I0J87500D01*
G01*
G37*
G36*
G01*
X143750000Y-103587500D02*
X143750000Y-103412500D01*
G75*
G02*
X143837500Y-103325000I87500J0D01*
G01*
X144212500Y-103325000D01*
G75*
G02*
X144300000Y-103412500I0J-87500D01*
G01*
X144300000Y-103587500D01*
G75*
G02*
X144212500Y-103675000I-87500J0D01*
G01*
X143837500Y-103675000D01*
G75*
G02*
X143750000Y-103587500I0J87500D01*
G01*
G37*
G36*
G01*
X143750000Y-103087500D02*
X143750000Y-102912500D01*
G75*
G02*
X143837500Y-102825000I87500J0D01*
G01*
X144212500Y-102825000D01*
G75*
G02*
X144300000Y-102912500I0J-87500D01*
G01*
X144300000Y-103087500D01*
G75*
G02*
X144212500Y-103175000I-87500J0D01*
G01*
X143837500Y-103175000D01*
G75*
G02*
X143750000Y-103087500I0J87500D01*
G01*
G37*
D10*
X138080000Y-118970000D03*
X136580000Y-118970000D03*
X133580000Y-118970000D03*
D11*
X143750000Y-119350000D03*
X141850000Y-119350000D03*
X141850000Y-116850000D03*
X142800000Y-116850000D03*
X143750000Y-116850000D03*
D12*
X144000000Y-109140000D03*
X144500000Y-109140000D03*
X145000000Y-109140000D03*
X145500000Y-109140000D03*
X146000000Y-109140000D03*
X146500000Y-109140000D03*
X146500000Y-111040000D03*
X146000000Y-111040000D03*
X145500000Y-111040000D03*
X145000000Y-111040000D03*
X144500000Y-111040000D03*
X144000000Y-111040000D03*
D13*
X142650000Y-135538000D03*
X142000000Y-135538000D03*
X141350000Y-135538000D03*
X140700000Y-135538000D03*
X140050000Y-135538000D03*
X139400000Y-135538000D03*
X138750000Y-135538000D03*
X138750000Y-129662000D03*
X139400000Y-129662000D03*
X140050000Y-129662000D03*
X140700000Y-129662000D03*
X141350000Y-129662000D03*
X142000000Y-129662000D03*
X142650000Y-129662000D03*
X154690000Y-135530000D03*
X154040000Y-135530000D03*
X153390000Y-135530000D03*
X152740000Y-135530000D03*
X152090000Y-135530000D03*
X151440000Y-135530000D03*
X150790000Y-135530000D03*
X150790000Y-129654000D03*
X151440000Y-129654000D03*
X152090000Y-129654000D03*
X152740000Y-129654000D03*
X153390000Y-129654000D03*
X154040000Y-129654000D03*
X154690000Y-129654000D03*
D14*
X148500000Y-106000000D03*
X150500000Y-106000000D03*
X142000000Y-106000000D03*
X140000000Y-106000000D03*
G36*
G01*
X149670000Y-100790000D02*
X149670000Y-100990000D01*
G75*
G02*
X149570000Y-101090000I-100000J0D01*
G01*
X149135000Y-101090000D01*
G75*
G02*
X149035000Y-100990000I0J100000D01*
G01*
X149035000Y-100790000D01*
G75*
G02*
X149135000Y-100690000I100000J0D01*
G01*
X149570000Y-100690000D01*
G75*
G02*
X149670000Y-100790000I0J-100000D01*
G01*
G37*
G36*
G01*
X150485000Y-100790000D02*
X150485000Y-100990000D01*
G75*
G02*
X150385000Y-101090000I-100000J0D01*
G01*
X149950000Y-101090000D01*
G75*
G02*
X149850000Y-100990000I0J100000D01*
G01*
X149850000Y-100790000D01*
G75*
G02*
X149950000Y-100690000I100000J0D01*
G01*
X150385000Y-100690000D01*
G75*
G02*
X150485000Y-100790000I0J-100000D01*
G01*
G37*
G36*
G01*
X154300000Y-136965000D02*
X154300000Y-136415000D01*
G75*
G02*
X154525000Y-136190000I225000J0D01*
G01*
X154975000Y-136190000D01*
G75*
G02*
X155200000Y-136415000I0J-225000D01*
G01*
X155200000Y-136965000D01*
G75*
G02*
X154975000Y-137190000I-225000J0D01*
G01*
X154525000Y-137190000D01*
G75*
G02*
X154300000Y-136965000I0J225000D01*
G01*
G37*
G36*
G01*
X152300000Y-136965000D02*
X152300000Y-136415000D01*
G75*
G02*
X152525000Y-136190000I225000J0D01*
G01*
X152975000Y-136190000D01*
G75*
G02*
X153200000Y-136415000I0J-225000D01*
G01*
X153200000Y-136965000D01*
G75*
G02*
X152975000Y-137190000I-225000J0D01*
G01*
X152525000Y-137190000D01*
G75*
G02*
X152300000Y-136965000I0J225000D01*
G01*
G37*
G36*
G01*
X150300000Y-136965000D02*
X150300000Y-136415000D01*
G75*
G02*
X150525000Y-136190000I225000J0D01*
G01*
X150975000Y-136190000D01*
G75*
G02*
X151200000Y-136415000I0J-225000D01*
G01*
X151200000Y-136965000D01*
G75*
G02*
X150975000Y-137190000I-225000J0D01*
G01*
X150525000Y-137190000D01*
G75*
G02*
X150300000Y-136965000I0J225000D01*
G01*
G37*
G36*
G01*
X142245000Y-136965000D02*
X142245000Y-136415000D01*
G75*
G02*
X142470000Y-136190000I225000J0D01*
G01*
X142920000Y-136190000D01*
G75*
G02*
X143145000Y-136415000I0J-225000D01*
G01*
X143145000Y-136965000D01*
G75*
G02*
X142920000Y-137190000I-225000J0D01*
G01*
X142470000Y-137190000D01*
G75*
G02*
X142245000Y-136965000I0J225000D01*
G01*
G37*
G36*
G01*
X140245000Y-136965000D02*
X140245000Y-136415000D01*
G75*
G02*
X140470000Y-136190000I225000J0D01*
G01*
X140920000Y-136190000D01*
G75*
G02*
X141145000Y-136415000I0J-225000D01*
G01*
X141145000Y-136965000D01*
G75*
G02*
X140920000Y-137190000I-225000J0D01*
G01*
X140470000Y-137190000D01*
G75*
G02*
X140245000Y-136965000I0J225000D01*
G01*
G37*
G36*
G01*
X138245000Y-136965000D02*
X138245000Y-136415000D01*
G75*
G02*
X138470000Y-136190000I225000J0D01*
G01*
X138920000Y-136190000D01*
G75*
G02*
X139145000Y-136415000I0J-225000D01*
G01*
X139145000Y-136965000D01*
G75*
G02*
X138920000Y-137190000I-225000J0D01*
G01*
X138470000Y-137190000D01*
G75*
G02*
X138245000Y-136965000I0J225000D01*
G01*
G37*
G36*
G01*
X150590000Y-119220000D02*
X150390000Y-119220000D01*
G75*
G02*
X150290000Y-119120000I0J100000D01*
G01*
X150290000Y-118685000D01*
G75*
G02*
X150390000Y-118585000I100000J0D01*
G01*
X150590000Y-118585000D01*
G75*
G02*
X150690000Y-118685000I0J-100000D01*
G01*
X150690000Y-119120000D01*
G75*
G02*
X150590000Y-119220000I-100000J0D01*
G01*
G37*
G36*
G01*
X150590000Y-120035000D02*
X150390000Y-120035000D01*
G75*
G02*
X150290000Y-119935000I0J100000D01*
G01*
X150290000Y-119500000D01*
G75*
G02*
X150390000Y-119400000I100000J0D01*
G01*
X150590000Y-119400000D01*
G75*
G02*
X150690000Y-119500000I0J-100000D01*
G01*
X150690000Y-119935000D01*
G75*
G02*
X150590000Y-120035000I-100000J0D01*
G01*
G37*
G36*
G01*
X148810000Y-114300000D02*
X148810000Y-114500000D01*
G75*
G02*
X148710000Y-114600000I-100000J0D01*
G01*
X148275000Y-114600000D01*
G75*
G02*
X148175000Y-114500000I0J100000D01*
G01*
X148175000Y-114300000D01*
G75*
G02*
X148275000Y-114200000I100000J0D01*
G01*
X148710000Y-114200000D01*
G75*
G02*
X148810000Y-114300000I0J-100000D01*
G01*
G37*
G36*
G01*
X149625000Y-114300000D02*
X149625000Y-114500000D01*
G75*
G02*
X149525000Y-114600000I-100000J0D01*
G01*
X149090000Y-114600000D01*
G75*
G02*
X148990000Y-114500000I0J100000D01*
G01*
X148990000Y-114300000D01*
G75*
G02*
X149090000Y-114200000I100000J0D01*
G01*
X149525000Y-114200000D01*
G75*
G02*
X149625000Y-114300000I0J-100000D01*
G01*
G37*
G36*
G01*
X159930000Y-112940000D02*
X159730000Y-112940000D01*
G75*
G02*
X159630000Y-112840000I0J100000D01*
G01*
X159630000Y-112405000D01*
G75*
G02*
X159730000Y-112305000I100000J0D01*
G01*
X159930000Y-112305000D01*
G75*
G02*
X160030000Y-112405000I0J-100000D01*
G01*
X160030000Y-112840000D01*
G75*
G02*
X159930000Y-112940000I-100000J0D01*
G01*
G37*
G36*
G01*
X159930000Y-113755000D02*
X159730000Y-113755000D01*
G75*
G02*
X159630000Y-113655000I0J100000D01*
G01*
X159630000Y-113220000D01*
G75*
G02*
X159730000Y-113120000I100000J0D01*
G01*
X159930000Y-113120000D01*
G75*
G02*
X160030000Y-113220000I0J-100000D01*
G01*
X160030000Y-113655000D01*
G75*
G02*
X159930000Y-113755000I-100000J0D01*
G01*
G37*
G36*
G01*
X152500000Y-119642500D02*
X152300000Y-119642500D01*
G75*
G02*
X152200000Y-119542500I0J100000D01*
G01*
X152200000Y-119107500D01*
G75*
G02*
X152300000Y-119007500I100000J0D01*
G01*
X152500000Y-119007500D01*
G75*
G02*
X152600000Y-119107500I0J-100000D01*
G01*
X152600000Y-119542500D01*
G75*
G02*
X152500000Y-119642500I-100000J0D01*
G01*
G37*
G36*
G01*
X152500000Y-120457500D02*
X152300000Y-120457500D01*
G75*
G02*
X152200000Y-120357500I0J100000D01*
G01*
X152200000Y-119922500D01*
G75*
G02*
X152300000Y-119822500I100000J0D01*
G01*
X152500000Y-119822500D01*
G75*
G02*
X152600000Y-119922500I0J-100000D01*
G01*
X152600000Y-120357500D01*
G75*
G02*
X152500000Y-120457500I-100000J0D01*
G01*
G37*
G36*
G01*
X154400000Y-119610000D02*
X154200000Y-119610000D01*
G75*
G02*
X154100000Y-119510000I0J100000D01*
G01*
X154100000Y-119075000D01*
G75*
G02*
X154200000Y-118975000I100000J0D01*
G01*
X154400000Y-118975000D01*
G75*
G02*
X154500000Y-119075000I0J-100000D01*
G01*
X154500000Y-119510000D01*
G75*
G02*
X154400000Y-119610000I-100000J0D01*
G01*
G37*
G36*
G01*
X154400000Y-120425000D02*
X154200000Y-120425000D01*
G75*
G02*
X154100000Y-120325000I0J100000D01*
G01*
X154100000Y-119890000D01*
G75*
G02*
X154200000Y-119790000I100000J0D01*
G01*
X154400000Y-119790000D01*
G75*
G02*
X154500000Y-119890000I0J-100000D01*
G01*
X154500000Y-120325000D01*
G75*
G02*
X154400000Y-120425000I-100000J0D01*
G01*
G37*
G36*
G01*
X156500000Y-119610000D02*
X156300000Y-119610000D01*
G75*
G02*
X156200000Y-119510000I0J100000D01*
G01*
X156200000Y-119075000D01*
G75*
G02*
X156300000Y-118975000I100000J0D01*
G01*
X156500000Y-118975000D01*
G75*
G02*
X156600000Y-119075000I0J-100000D01*
G01*
X156600000Y-119510000D01*
G75*
G02*
X156500000Y-119610000I-100000J0D01*
G01*
G37*
G36*
G01*
X156500000Y-120425000D02*
X156300000Y-120425000D01*
G75*
G02*
X156200000Y-120325000I0J100000D01*
G01*
X156200000Y-119890000D01*
G75*
G02*
X156300000Y-119790000I100000J0D01*
G01*
X156500000Y-119790000D01*
G75*
G02*
X156600000Y-119890000I0J-100000D01*
G01*
X156600000Y-120325000D01*
G75*
G02*
X156500000Y-120425000I-100000J0D01*
G01*
G37*
G36*
G01*
X158100000Y-119610000D02*
X157900000Y-119610000D01*
G75*
G02*
X157800000Y-119510000I0J100000D01*
G01*
X157800000Y-119075000D01*
G75*
G02*
X157900000Y-118975000I100000J0D01*
G01*
X158100000Y-118975000D01*
G75*
G02*
X158200000Y-119075000I0J-100000D01*
G01*
X158200000Y-119510000D01*
G75*
G02*
X158100000Y-119610000I-100000J0D01*
G01*
G37*
G36*
G01*
X158100000Y-120425000D02*
X157900000Y-120425000D01*
G75*
G02*
X157800000Y-120325000I0J100000D01*
G01*
X157800000Y-119890000D01*
G75*
G02*
X157900000Y-119790000I100000J0D01*
G01*
X158100000Y-119790000D01*
G75*
G02*
X158200000Y-119890000I0J-100000D01*
G01*
X158200000Y-120325000D01*
G75*
G02*
X158100000Y-120425000I-100000J0D01*
G01*
G37*
G36*
G01*
X152360000Y-90810000D02*
X152160000Y-90810000D01*
G75*
G02*
X152060000Y-90710000I0J100000D01*
G01*
X152060000Y-90275000D01*
G75*
G02*
X152160000Y-90175000I100000J0D01*
G01*
X152360000Y-90175000D01*
G75*
G02*
X152460000Y-90275000I0J-100000D01*
G01*
X152460000Y-90710000D01*
G75*
G02*
X152360000Y-90810000I-100000J0D01*
G01*
G37*
G36*
G01*
X152360000Y-91625000D02*
X152160000Y-91625000D01*
G75*
G02*
X152060000Y-91525000I0J100000D01*
G01*
X152060000Y-91090000D01*
G75*
G02*
X152160000Y-90990000I100000J0D01*
G01*
X152360000Y-90990000D01*
G75*
G02*
X152460000Y-91090000I0J-100000D01*
G01*
X152460000Y-91525000D01*
G75*
G02*
X152360000Y-91625000I-100000J0D01*
G01*
G37*
G36*
G01*
X128990000Y-112400000D02*
X128990000Y-112200000D01*
G75*
G02*
X129090000Y-112100000I100000J0D01*
G01*
X129525000Y-112100000D01*
G75*
G02*
X129625000Y-112200000I0J-100000D01*
G01*
X129625000Y-112400000D01*
G75*
G02*
X129525000Y-112500000I-100000J0D01*
G01*
X129090000Y-112500000D01*
G75*
G02*
X128990000Y-112400000I0J100000D01*
G01*
G37*
G36*
G01*
X128175000Y-112400000D02*
X128175000Y-112200000D01*
G75*
G02*
X128275000Y-112100000I100000J0D01*
G01*
X128710000Y-112100000D01*
G75*
G02*
X128810000Y-112200000I0J-100000D01*
G01*
X128810000Y-112400000D01*
G75*
G02*
X128710000Y-112500000I-100000J0D01*
G01*
X128275000Y-112500000D01*
G75*
G02*
X128175000Y-112400000I0J100000D01*
G01*
G37*
G36*
G01*
X137400000Y-115550000D02*
X137600000Y-115550000D01*
G75*
G02*
X137700000Y-115650000I0J-100000D01*
G01*
X137700000Y-116085000D01*
G75*
G02*
X137600000Y-116185000I-100000J0D01*
G01*
X137400000Y-116185000D01*
G75*
G02*
X137300000Y-116085000I0J100000D01*
G01*
X137300000Y-115650000D01*
G75*
G02*
X137400000Y-115550000I100000J0D01*
G01*
G37*
G36*
G01*
X137400000Y-114735000D02*
X137600000Y-114735000D01*
G75*
G02*
X137700000Y-114835000I0J-100000D01*
G01*
X137700000Y-115270000D01*
G75*
G02*
X137600000Y-115370000I-100000J0D01*
G01*
X137400000Y-115370000D01*
G75*
G02*
X137300000Y-115270000I0J100000D01*
G01*
X137300000Y-114835000D01*
G75*
G02*
X137400000Y-114735000I100000J0D01*
G01*
G37*
G36*
G01*
X136630000Y-115350000D02*
X136430000Y-115350000D01*
G75*
G02*
X136330000Y-115250000I0J100000D01*
G01*
X136330000Y-114815000D01*
G75*
G02*
X136430000Y-114715000I100000J0D01*
G01*
X136630000Y-114715000D01*
G75*
G02*
X136730000Y-114815000I0J-100000D01*
G01*
X136730000Y-115250000D01*
G75*
G02*
X136630000Y-115350000I-100000J0D01*
G01*
G37*
G36*
G01*
X136630000Y-116165000D02*
X136430000Y-116165000D01*
G75*
G02*
X136330000Y-116065000I0J100000D01*
G01*
X136330000Y-115630000D01*
G75*
G02*
X136430000Y-115530000I100000J0D01*
G01*
X136630000Y-115530000D01*
G75*
G02*
X136730000Y-115630000I0J-100000D01*
G01*
X136730000Y-116065000D01*
G75*
G02*
X136630000Y-116165000I-100000J0D01*
G01*
G37*
G36*
G01*
X126830000Y-119640000D02*
X127030000Y-119640000D01*
G75*
G02*
X127130000Y-119740000I0J-100000D01*
G01*
X127130000Y-120175000D01*
G75*
G02*
X127030000Y-120275000I-100000J0D01*
G01*
X126830000Y-120275000D01*
G75*
G02*
X126730000Y-120175000I0J100000D01*
G01*
X126730000Y-119740000D01*
G75*
G02*
X126830000Y-119640000I100000J0D01*
G01*
G37*
G36*
G01*
X126830000Y-118825000D02*
X127030000Y-118825000D01*
G75*
G02*
X127130000Y-118925000I0J-100000D01*
G01*
X127130000Y-119360000D01*
G75*
G02*
X127030000Y-119460000I-100000J0D01*
G01*
X126830000Y-119460000D01*
G75*
G02*
X126730000Y-119360000I0J100000D01*
G01*
X126730000Y-118925000D01*
G75*
G02*
X126830000Y-118825000I100000J0D01*
G01*
G37*
G36*
G01*
X144390000Y-87300000D02*
X144390000Y-87100000D01*
G75*
G02*
X144490000Y-87000000I100000J0D01*
G01*
X144925000Y-87000000D01*
G75*
G02*
X145025000Y-87100000I0J-100000D01*
G01*
X145025000Y-87300000D01*
G75*
G02*
X144925000Y-87400000I-100000J0D01*
G01*
X144490000Y-87400000D01*
G75*
G02*
X144390000Y-87300000I0J100000D01*
G01*
G37*
G36*
G01*
X143575000Y-87300000D02*
X143575000Y-87100000D01*
G75*
G02*
X143675000Y-87000000I100000J0D01*
G01*
X144110000Y-87000000D01*
G75*
G02*
X144210000Y-87100000I0J-100000D01*
G01*
X144210000Y-87300000D01*
G75*
G02*
X144110000Y-87400000I-100000J0D01*
G01*
X143675000Y-87400000D01*
G75*
G02*
X143575000Y-87300000I0J100000D01*
G01*
G37*
G36*
G01*
X133700000Y-94510000D02*
X133500000Y-94510000D01*
G75*
G02*
X133400000Y-94410000I0J100000D01*
G01*
X133400000Y-93975000D01*
G75*
G02*
X133500000Y-93875000I100000J0D01*
G01*
X133700000Y-93875000D01*
G75*
G02*
X133800000Y-93975000I0J-100000D01*
G01*
X133800000Y-94410000D01*
G75*
G02*
X133700000Y-94510000I-100000J0D01*
G01*
G37*
G36*
G01*
X133700000Y-95325000D02*
X133500000Y-95325000D01*
G75*
G02*
X133400000Y-95225000I0J100000D01*
G01*
X133400000Y-94790000D01*
G75*
G02*
X133500000Y-94690000I100000J0D01*
G01*
X133700000Y-94690000D01*
G75*
G02*
X133800000Y-94790000I0J-100000D01*
G01*
X133800000Y-95225000D01*
G75*
G02*
X133700000Y-95325000I-100000J0D01*
G01*
G37*
G36*
G01*
X158100000Y-94510000D02*
X157900000Y-94510000D01*
G75*
G02*
X157800000Y-94410000I0J100000D01*
G01*
X157800000Y-93975000D01*
G75*
G02*
X157900000Y-93875000I100000J0D01*
G01*
X158100000Y-93875000D01*
G75*
G02*
X158200000Y-93975000I0J-100000D01*
G01*
X158200000Y-94410000D01*
G75*
G02*
X158100000Y-94510000I-100000J0D01*
G01*
G37*
G36*
G01*
X158100000Y-95325000D02*
X157900000Y-95325000D01*
G75*
G02*
X157800000Y-95225000I0J100000D01*
G01*
X157800000Y-94790000D01*
G75*
G02*
X157900000Y-94690000I100000J0D01*
G01*
X158100000Y-94690000D01*
G75*
G02*
X158200000Y-94790000I0J-100000D01*
G01*
X158200000Y-95225000D01*
G75*
G02*
X158100000Y-95325000I-100000J0D01*
G01*
G37*
G36*
G01*
X146110000Y-87100000D02*
X146110000Y-87300000D01*
G75*
G02*
X146010000Y-87400000I-100000J0D01*
G01*
X145575000Y-87400000D01*
G75*
G02*
X145475000Y-87300000I0J100000D01*
G01*
X145475000Y-87100000D01*
G75*
G02*
X145575000Y-87000000I100000J0D01*
G01*
X146010000Y-87000000D01*
G75*
G02*
X146110000Y-87100000I0J-100000D01*
G01*
G37*
G36*
G01*
X146925000Y-87100000D02*
X146925000Y-87300000D01*
G75*
G02*
X146825000Y-87400000I-100000J0D01*
G01*
X146390000Y-87400000D01*
G75*
G02*
X146290000Y-87300000I0J100000D01*
G01*
X146290000Y-87100000D01*
G75*
G02*
X146390000Y-87000000I100000J0D01*
G01*
X146825000Y-87000000D01*
G75*
G02*
X146925000Y-87100000I0J-100000D01*
G01*
G37*
G36*
G01*
X132400000Y-90712500D02*
X132200000Y-90712500D01*
G75*
G02*
X132100000Y-90612500I0J100000D01*
G01*
X132100000Y-90177500D01*
G75*
G02*
X132200000Y-90077500I100000J0D01*
G01*
X132400000Y-90077500D01*
G75*
G02*
X132500000Y-90177500I0J-100000D01*
G01*
X132500000Y-90612500D01*
G75*
G02*
X132400000Y-90712500I-100000J0D01*
G01*
G37*
G36*
G01*
X132400000Y-91527500D02*
X132200000Y-91527500D01*
G75*
G02*
X132100000Y-91427500I0J100000D01*
G01*
X132100000Y-90992500D01*
G75*
G02*
X132200000Y-90892500I100000J0D01*
G01*
X132400000Y-90892500D01*
G75*
G02*
X132500000Y-90992500I0J-100000D01*
G01*
X132500000Y-91427500D01*
G75*
G02*
X132400000Y-91527500I-100000J0D01*
G01*
G37*
G36*
G01*
X152240000Y-122090000D02*
X152560000Y-122090000D01*
G75*
G02*
X152720000Y-122250000I0J-160000D01*
G01*
X152720000Y-122695000D01*
G75*
G02*
X152560000Y-122855000I-160000J0D01*
G01*
X152240000Y-122855000D01*
G75*
G02*
X152080000Y-122695000I0J160000D01*
G01*
X152080000Y-122250000D01*
G75*
G02*
X152240000Y-122090000I160000J0D01*
G01*
G37*
G36*
G01*
X152240000Y-120945000D02*
X152560000Y-120945000D01*
G75*
G02*
X152720000Y-121105000I0J-160000D01*
G01*
X152720000Y-121550000D01*
G75*
G02*
X152560000Y-121710000I-160000J0D01*
G01*
X152240000Y-121710000D01*
G75*
G02*
X152080000Y-121550000I0J160000D01*
G01*
X152080000Y-121105000D01*
G75*
G02*
X152240000Y-120945000I160000J0D01*
G01*
G37*
G36*
G01*
X154240000Y-122090000D02*
X154560000Y-122090000D01*
G75*
G02*
X154720000Y-122250000I0J-160000D01*
G01*
X154720000Y-122695000D01*
G75*
G02*
X154560000Y-122855000I-160000J0D01*
G01*
X154240000Y-122855000D01*
G75*
G02*
X154080000Y-122695000I0J160000D01*
G01*
X154080000Y-122250000D01*
G75*
G02*
X154240000Y-122090000I160000J0D01*
G01*
G37*
G36*
G01*
X154240000Y-120945000D02*
X154560000Y-120945000D01*
G75*
G02*
X154720000Y-121105000I0J-160000D01*
G01*
X154720000Y-121550000D01*
G75*
G02*
X154560000Y-121710000I-160000J0D01*
G01*
X154240000Y-121710000D01*
G75*
G02*
X154080000Y-121550000I0J160000D01*
G01*
X154080000Y-121105000D01*
G75*
G02*
X154240000Y-120945000I160000J0D01*
G01*
G37*
G36*
G01*
X156160000Y-122100000D02*
X156480000Y-122100000D01*
G75*
G02*
X156640000Y-122260000I0J-160000D01*
G01*
X156640000Y-122705000D01*
G75*
G02*
X156480000Y-122865000I-160000J0D01*
G01*
X156160000Y-122865000D01*
G75*
G02*
X156000000Y-122705000I0J160000D01*
G01*
X156000000Y-122260000D01*
G75*
G02*
X156160000Y-122100000I160000J0D01*
G01*
G37*
G36*
G01*
X156160000Y-120955000D02*
X156480000Y-120955000D01*
G75*
G02*
X156640000Y-121115000I0J-160000D01*
G01*
X156640000Y-121560000D01*
G75*
G02*
X156480000Y-121720000I-160000J0D01*
G01*
X156160000Y-121720000D01*
G75*
G02*
X156000000Y-121560000I0J160000D01*
G01*
X156000000Y-121115000D01*
G75*
G02*
X156160000Y-120955000I160000J0D01*
G01*
G37*
G36*
G01*
X157840000Y-122090000D02*
X158160000Y-122090000D01*
G75*
G02*
X158320000Y-122250000I0J-160000D01*
G01*
X158320000Y-122695000D01*
G75*
G02*
X158160000Y-122855000I-160000J0D01*
G01*
X157840000Y-122855000D01*
G75*
G02*
X157680000Y-122695000I0J160000D01*
G01*
X157680000Y-122250000D01*
G75*
G02*
X157840000Y-122090000I160000J0D01*
G01*
G37*
G36*
G01*
X157840000Y-120945000D02*
X158160000Y-120945000D01*
G75*
G02*
X158320000Y-121105000I0J-160000D01*
G01*
X158320000Y-121550000D01*
G75*
G02*
X158160000Y-121710000I-160000J0D01*
G01*
X157840000Y-121710000D01*
G75*
G02*
X157680000Y-121550000I0J160000D01*
G01*
X157680000Y-121105000D01*
G75*
G02*
X157840000Y-120945000I160000J0D01*
G01*
G37*
G36*
G01*
X125760000Y-114910000D02*
X125440000Y-114910000D01*
G75*
G02*
X125280000Y-114750000I0J160000D01*
G01*
X125280000Y-114305000D01*
G75*
G02*
X125440000Y-114145000I160000J0D01*
G01*
X125760000Y-114145000D01*
G75*
G02*
X125920000Y-114305000I0J-160000D01*
G01*
X125920000Y-114750000D01*
G75*
G02*
X125760000Y-114910000I-160000J0D01*
G01*
G37*
G36*
G01*
X125760000Y-116055000D02*
X125440000Y-116055000D01*
G75*
G02*
X125280000Y-115895000I0J160000D01*
G01*
X125280000Y-115450000D01*
G75*
G02*
X125440000Y-115290000I160000J0D01*
G01*
X125760000Y-115290000D01*
G75*
G02*
X125920000Y-115450000I0J-160000D01*
G01*
X125920000Y-115895000D01*
G75*
G02*
X125760000Y-116055000I-160000J0D01*
G01*
G37*
G36*
G01*
X148950000Y-102785000D02*
X148950000Y-102475000D01*
G75*
G02*
X149105000Y-102320000I155000J0D01*
G01*
X149530000Y-102320000D01*
G75*
G02*
X149685000Y-102475000I0J-155000D01*
G01*
X149685000Y-102785000D01*
G75*
G02*
X149530000Y-102940000I-155000J0D01*
G01*
X149105000Y-102940000D01*
G75*
G02*
X148950000Y-102785000I0J155000D01*
G01*
G37*
G36*
G01*
X147815000Y-102785000D02*
X147815000Y-102475000D01*
G75*
G02*
X147970000Y-102320000I155000J0D01*
G01*
X148395000Y-102320000D01*
G75*
G02*
X148550000Y-102475000I0J-155000D01*
G01*
X148550000Y-102785000D01*
G75*
G02*
X148395000Y-102940000I-155000J0D01*
G01*
X147970000Y-102940000D01*
G75*
G02*
X147815000Y-102785000I0J155000D01*
G01*
G37*
G36*
G01*
X136610000Y-96800000D02*
X136610000Y-97000000D01*
G75*
G02*
X136510000Y-97100000I-100000J0D01*
G01*
X136075000Y-97100000D01*
G75*
G02*
X135975000Y-97000000I0J100000D01*
G01*
X135975000Y-96800000D01*
G75*
G02*
X136075000Y-96700000I100000J0D01*
G01*
X136510000Y-96700000D01*
G75*
G02*
X136610000Y-96800000I0J-100000D01*
G01*
G37*
G36*
G01*
X137425000Y-96800000D02*
X137425000Y-97000000D01*
G75*
G02*
X137325000Y-97100000I-100000J0D01*
G01*
X136890000Y-97100000D01*
G75*
G02*
X136790000Y-97000000I0J100000D01*
G01*
X136790000Y-96800000D01*
G75*
G02*
X136890000Y-96700000I100000J0D01*
G01*
X137325000Y-96700000D01*
G75*
G02*
X137425000Y-96800000I0J-100000D01*
G01*
G37*
G36*
G01*
X136317500Y-92800000D02*
X136317500Y-93000000D01*
G75*
G02*
X136217500Y-93100000I-100000J0D01*
G01*
X135782500Y-93100000D01*
G75*
G02*
X135682500Y-93000000I0J100000D01*
G01*
X135682500Y-92800000D01*
G75*
G02*
X135782500Y-92700000I100000J0D01*
G01*
X136217500Y-92700000D01*
G75*
G02*
X136317500Y-92800000I0J-100000D01*
G01*
G37*
G36*
G01*
X137132500Y-92800000D02*
X137132500Y-93000000D01*
G75*
G02*
X137032500Y-93100000I-100000J0D01*
G01*
X136597500Y-93100000D01*
G75*
G02*
X136497500Y-93000000I0J100000D01*
G01*
X136497500Y-92800000D01*
G75*
G02*
X136597500Y-92700000I100000J0D01*
G01*
X137032500Y-92700000D01*
G75*
G02*
X137132500Y-92800000I0J-100000D01*
G01*
G37*
G36*
G01*
X149660000Y-101640000D02*
X149660000Y-101840000D01*
G75*
G02*
X149560000Y-101940000I-100000J0D01*
G01*
X149125000Y-101940000D01*
G75*
G02*
X149025000Y-101840000I0J100000D01*
G01*
X149025000Y-101640000D01*
G75*
G02*
X149125000Y-101540000I100000J0D01*
G01*
X149560000Y-101540000D01*
G75*
G02*
X149660000Y-101640000I0J-100000D01*
G01*
G37*
G36*
G01*
X150475000Y-101640000D02*
X150475000Y-101840000D01*
G75*
G02*
X150375000Y-101940000I-100000J0D01*
G01*
X149940000Y-101940000D01*
G75*
G02*
X149840000Y-101840000I0J100000D01*
G01*
X149840000Y-101640000D01*
G75*
G02*
X149940000Y-101540000I100000J0D01*
G01*
X150375000Y-101540000D01*
G75*
G02*
X150475000Y-101640000I0J-100000D01*
G01*
G37*
G36*
G01*
X140110000Y-92300000D02*
X140110000Y-92500000D01*
G75*
G02*
X140010000Y-92600000I-100000J0D01*
G01*
X139575000Y-92600000D01*
G75*
G02*
X139475000Y-92500000I0J100000D01*
G01*
X139475000Y-92300000D01*
G75*
G02*
X139575000Y-92200000I100000J0D01*
G01*
X140010000Y-92200000D01*
G75*
G02*
X140110000Y-92300000I0J-100000D01*
G01*
G37*
G36*
G01*
X140925000Y-92300000D02*
X140925000Y-92500000D01*
G75*
G02*
X140825000Y-92600000I-100000J0D01*
G01*
X140390000Y-92600000D01*
G75*
G02*
X140290000Y-92500000I0J100000D01*
G01*
X140290000Y-92300000D01*
G75*
G02*
X140390000Y-92200000I100000J0D01*
G01*
X140825000Y-92200000D01*
G75*
G02*
X140925000Y-92300000I0J-100000D01*
G01*
G37*
G36*
G01*
X152647500Y-94820000D02*
X152647500Y-94620000D01*
G75*
G02*
X152747500Y-94520000I100000J0D01*
G01*
X153182500Y-94520000D01*
G75*
G02*
X153282500Y-94620000I0J-100000D01*
G01*
X153282500Y-94820000D01*
G75*
G02*
X153182500Y-94920000I-100000J0D01*
G01*
X152747500Y-94920000D01*
G75*
G02*
X152647500Y-94820000I0J100000D01*
G01*
G37*
G36*
G01*
X151832500Y-94820000D02*
X151832500Y-94620000D01*
G75*
G02*
X151932500Y-94520000I100000J0D01*
G01*
X152367500Y-94520000D01*
G75*
G02*
X152467500Y-94620000I0J-100000D01*
G01*
X152467500Y-94820000D01*
G75*
G02*
X152367500Y-94920000I-100000J0D01*
G01*
X151932500Y-94920000D01*
G75*
G02*
X151832500Y-94820000I0J100000D01*
G01*
G37*
G36*
G01*
X152887500Y-93785000D02*
X152887500Y-93475000D01*
G75*
G02*
X153042500Y-93320000I155000J0D01*
G01*
X153467500Y-93320000D01*
G75*
G02*
X153622500Y-93475000I0J-155000D01*
G01*
X153622500Y-93785000D01*
G75*
G02*
X153467500Y-93940000I-155000J0D01*
G01*
X153042500Y-93940000D01*
G75*
G02*
X152887500Y-93785000I0J155000D01*
G01*
G37*
G36*
G01*
X151752500Y-93785000D02*
X151752500Y-93475000D01*
G75*
G02*
X151907500Y-93320000I155000J0D01*
G01*
X152332500Y-93320000D01*
G75*
G02*
X152487500Y-93475000I0J-155000D01*
G01*
X152487500Y-93785000D01*
G75*
G02*
X152332500Y-93940000I-155000J0D01*
G01*
X151907500Y-93940000D01*
G75*
G02*
X151752500Y-93785000I0J155000D01*
G01*
G37*
G36*
G01*
X135967500Y-93645000D02*
X135967500Y-93955000D01*
G75*
G02*
X135812500Y-94110000I-155000J0D01*
G01*
X135387500Y-94110000D01*
G75*
G02*
X135232500Y-93955000I0J155000D01*
G01*
X135232500Y-93645000D01*
G75*
G02*
X135387500Y-93490000I155000J0D01*
G01*
X135812500Y-93490000D01*
G75*
G02*
X135967500Y-93645000I0J-155000D01*
G01*
G37*
G36*
G01*
X137102500Y-93645000D02*
X137102500Y-93955000D01*
G75*
G02*
X136947500Y-94110000I-155000J0D01*
G01*
X136522500Y-94110000D01*
G75*
G02*
X136367500Y-93955000I0J155000D01*
G01*
X136367500Y-93645000D01*
G75*
G02*
X136522500Y-93490000I155000J0D01*
G01*
X136947500Y-93490000D01*
G75*
G02*
X137102500Y-93645000I0J-155000D01*
G01*
G37*
G36*
G01*
X157650000Y-89590000D02*
X157850000Y-89590000D01*
G75*
G02*
X157950000Y-89690000I0J-100000D01*
G01*
X157950000Y-90125000D01*
G75*
G02*
X157850000Y-90225000I-100000J0D01*
G01*
X157650000Y-90225000D01*
G75*
G02*
X157550000Y-90125000I0J100000D01*
G01*
X157550000Y-89690000D01*
G75*
G02*
X157650000Y-89590000I100000J0D01*
G01*
G37*
G36*
G01*
X157650000Y-88775000D02*
X157850000Y-88775000D01*
G75*
G02*
X157950000Y-88875000I0J-100000D01*
G01*
X157950000Y-89310000D01*
G75*
G02*
X157850000Y-89410000I-100000J0D01*
G01*
X157650000Y-89410000D01*
G75*
G02*
X157550000Y-89310000I0J100000D01*
G01*
X157550000Y-88875000D01*
G75*
G02*
X157650000Y-88775000I100000J0D01*
G01*
G37*
G36*
G01*
X138600000Y-115370000D02*
X138400000Y-115370000D01*
G75*
G02*
X138300000Y-115270000I0J100000D01*
G01*
X138300000Y-114835000D01*
G75*
G02*
X138400000Y-114735000I100000J0D01*
G01*
X138600000Y-114735000D01*
G75*
G02*
X138700000Y-114835000I0J-100000D01*
G01*
X138700000Y-115270000D01*
G75*
G02*
X138600000Y-115370000I-100000J0D01*
G01*
G37*
G36*
G01*
X138600000Y-116185000D02*
X138400000Y-116185000D01*
G75*
G02*
X138300000Y-116085000I0J100000D01*
G01*
X138300000Y-115650000D01*
G75*
G02*
X138400000Y-115550000I100000J0D01*
G01*
X138600000Y-115550000D01*
G75*
G02*
X138700000Y-115650000I0J-100000D01*
G01*
X138700000Y-116085000D01*
G75*
G02*
X138600000Y-116185000I-100000J0D01*
G01*
G37*
G36*
G01*
X145655000Y-118910000D02*
X145345000Y-118910000D01*
G75*
G02*
X145190000Y-118755000I0J155000D01*
G01*
X145190000Y-118330000D01*
G75*
G02*
X145345000Y-118175000I155000J0D01*
G01*
X145655000Y-118175000D01*
G75*
G02*
X145810000Y-118330000I0J-155000D01*
G01*
X145810000Y-118755000D01*
G75*
G02*
X145655000Y-118910000I-155000J0D01*
G01*
G37*
G36*
G01*
X145655000Y-120045000D02*
X145345000Y-120045000D01*
G75*
G02*
X145190000Y-119890000I0J155000D01*
G01*
X145190000Y-119465000D01*
G75*
G02*
X145345000Y-119310000I155000J0D01*
G01*
X145655000Y-119310000D01*
G75*
G02*
X145810000Y-119465000I0J-155000D01*
G01*
X145810000Y-119890000D01*
G75*
G02*
X145655000Y-120045000I-155000J0D01*
G01*
G37*
G36*
G01*
X140510000Y-118950000D02*
X140310000Y-118950000D01*
G75*
G02*
X140210000Y-118850000I0J100000D01*
G01*
X140210000Y-118415000D01*
G75*
G02*
X140310000Y-118315000I100000J0D01*
G01*
X140510000Y-118315000D01*
G75*
G02*
X140610000Y-118415000I0J-100000D01*
G01*
X140610000Y-118850000D01*
G75*
G02*
X140510000Y-118950000I-100000J0D01*
G01*
G37*
G36*
G01*
X140510000Y-119765000D02*
X140310000Y-119765000D01*
G75*
G02*
X140210000Y-119665000I0J100000D01*
G01*
X140210000Y-119230000D01*
G75*
G02*
X140310000Y-119130000I100000J0D01*
G01*
X140510000Y-119130000D01*
G75*
G02*
X140610000Y-119230000I0J-100000D01*
G01*
X140610000Y-119665000D01*
G75*
G02*
X140510000Y-119765000I-100000J0D01*
G01*
G37*
G36*
G01*
X145470000Y-117140000D02*
X145670000Y-117140000D01*
G75*
G02*
X145770000Y-117240000I0J-100000D01*
G01*
X145770000Y-117675000D01*
G75*
G02*
X145670000Y-117775000I-100000J0D01*
G01*
X145470000Y-117775000D01*
G75*
G02*
X145370000Y-117675000I0J100000D01*
G01*
X145370000Y-117240000D01*
G75*
G02*
X145470000Y-117140000I100000J0D01*
G01*
G37*
G36*
G01*
X145470000Y-116325000D02*
X145670000Y-116325000D01*
G75*
G02*
X145770000Y-116425000I0J-100000D01*
G01*
X145770000Y-116860000D01*
G75*
G02*
X145670000Y-116960000I-100000J0D01*
G01*
X145470000Y-116960000D01*
G75*
G02*
X145370000Y-116860000I0J100000D01*
G01*
X145370000Y-116425000D01*
G75*
G02*
X145470000Y-116325000I100000J0D01*
G01*
G37*
G36*
G01*
X142000000Y-108610000D02*
X141800000Y-108610000D01*
G75*
G02*
X141700000Y-108510000I0J100000D01*
G01*
X141700000Y-108075000D01*
G75*
G02*
X141800000Y-107975000I100000J0D01*
G01*
X142000000Y-107975000D01*
G75*
G02*
X142100000Y-108075000I0J-100000D01*
G01*
X142100000Y-108510000D01*
G75*
G02*
X142000000Y-108610000I-100000J0D01*
G01*
G37*
G36*
G01*
X142000000Y-109425000D02*
X141800000Y-109425000D01*
G75*
G02*
X141700000Y-109325000I0J100000D01*
G01*
X141700000Y-108890000D01*
G75*
G02*
X141800000Y-108790000I100000J0D01*
G01*
X142000000Y-108790000D01*
G75*
G02*
X142100000Y-108890000I0J-100000D01*
G01*
X142100000Y-109325000D01*
G75*
G02*
X142000000Y-109425000I-100000J0D01*
G01*
G37*
G36*
G01*
X146150000Y-115450002D02*
X146150000Y-114149998D01*
G75*
G02*
X146399998Y-113900000I249998J0D01*
G01*
X147225002Y-113900000D01*
G75*
G02*
X147475000Y-114149998I0J-249998D01*
G01*
X147475000Y-115450002D01*
G75*
G02*
X147225002Y-115700000I-249998J0D01*
G01*
X146399998Y-115700000D01*
G75*
G02*
X146150000Y-115450002I0J249998D01*
G01*
G37*
G36*
G01*
X143025000Y-115450002D02*
X143025000Y-114149998D01*
G75*
G02*
X143274998Y-113900000I249998J0D01*
G01*
X144100002Y-113900000D01*
G75*
G02*
X144350000Y-114149998I0J-249998D01*
G01*
X144350000Y-115450002D01*
G75*
G02*
X144100002Y-115700000I-249998J0D01*
G01*
X143274998Y-115700000D01*
G75*
G02*
X143025000Y-115450002I0J249998D01*
G01*
G37*
G36*
G01*
X138220000Y-89830000D02*
X138420000Y-89830000D01*
G75*
G02*
X138520000Y-89930000I0J-100000D01*
G01*
X138520000Y-90365000D01*
G75*
G02*
X138420000Y-90465000I-100000J0D01*
G01*
X138220000Y-90465000D01*
G75*
G02*
X138120000Y-90365000I0J100000D01*
G01*
X138120000Y-89930000D01*
G75*
G02*
X138220000Y-89830000I100000J0D01*
G01*
G37*
G36*
G01*
X138220000Y-89015000D02*
X138420000Y-89015000D01*
G75*
G02*
X138520000Y-89115000I0J-100000D01*
G01*
X138520000Y-89550000D01*
G75*
G02*
X138420000Y-89650000I-100000J0D01*
G01*
X138220000Y-89650000D01*
G75*
G02*
X138120000Y-89550000I0J100000D01*
G01*
X138120000Y-89115000D01*
G75*
G02*
X138220000Y-89015000I100000J0D01*
G01*
G37*
G36*
G01*
X148660000Y-103790000D02*
X148660000Y-103590000D01*
G75*
G02*
X148760000Y-103490000I100000J0D01*
G01*
X149195000Y-103490000D01*
G75*
G02*
X149295000Y-103590000I0J-100000D01*
G01*
X149295000Y-103790000D01*
G75*
G02*
X149195000Y-103890000I-100000J0D01*
G01*
X148760000Y-103890000D01*
G75*
G02*
X148660000Y-103790000I0J100000D01*
G01*
G37*
G36*
G01*
X147845000Y-103790000D02*
X147845000Y-103590000D01*
G75*
G02*
X147945000Y-103490000I100000J0D01*
G01*
X148380000Y-103490000D01*
G75*
G02*
X148480000Y-103590000I0J-100000D01*
G01*
X148480000Y-103790000D01*
G75*
G02*
X148380000Y-103890000I-100000J0D01*
G01*
X147945000Y-103890000D01*
G75*
G02*
X147845000Y-103790000I0J100000D01*
G01*
G37*
G36*
G01*
X152610000Y-95730000D02*
X152610000Y-95530000D01*
G75*
G02*
X152710000Y-95430000I100000J0D01*
G01*
X153145000Y-95430000D01*
G75*
G02*
X153245000Y-95530000I0J-100000D01*
G01*
X153245000Y-95730000D01*
G75*
G02*
X153145000Y-95830000I-100000J0D01*
G01*
X152710000Y-95830000D01*
G75*
G02*
X152610000Y-95730000I0J100000D01*
G01*
G37*
G36*
G01*
X151795000Y-95730000D02*
X151795000Y-95530000D01*
G75*
G02*
X151895000Y-95430000I100000J0D01*
G01*
X152330000Y-95430000D01*
G75*
G02*
X152430000Y-95530000I0J-100000D01*
G01*
X152430000Y-95730000D01*
G75*
G02*
X152330000Y-95830000I-100000J0D01*
G01*
X151895000Y-95830000D01*
G75*
G02*
X151795000Y-95730000I0J100000D01*
G01*
G37*
G36*
G01*
X140810000Y-103600000D02*
X140810000Y-103800000D01*
G75*
G02*
X140710000Y-103900000I-100000J0D01*
G01*
X140275000Y-103900000D01*
G75*
G02*
X140175000Y-103800000I0J100000D01*
G01*
X140175000Y-103600000D01*
G75*
G02*
X140275000Y-103500000I100000J0D01*
G01*
X140710000Y-103500000D01*
G75*
G02*
X140810000Y-103600000I0J-100000D01*
G01*
G37*
G36*
G01*
X141625000Y-103600000D02*
X141625000Y-103800000D01*
G75*
G02*
X141525000Y-103900000I-100000J0D01*
G01*
X141090000Y-103900000D01*
G75*
G02*
X140990000Y-103800000I0J100000D01*
G01*
X140990000Y-103600000D01*
G75*
G02*
X141090000Y-103500000I100000J0D01*
G01*
X141525000Y-103500000D01*
G75*
G02*
X141625000Y-103600000I0J-100000D01*
G01*
G37*
G36*
G01*
X140500000Y-102645000D02*
X140500000Y-102955000D01*
G75*
G02*
X140345000Y-103110000I-155000J0D01*
G01*
X139920000Y-103110000D01*
G75*
G02*
X139765000Y-102955000I0J155000D01*
G01*
X139765000Y-102645000D01*
G75*
G02*
X139920000Y-102490000I155000J0D01*
G01*
X140345000Y-102490000D01*
G75*
G02*
X140500000Y-102645000I0J-155000D01*
G01*
G37*
G36*
G01*
X141635000Y-102645000D02*
X141635000Y-102955000D01*
G75*
G02*
X141480000Y-103110000I-155000J0D01*
G01*
X141055000Y-103110000D01*
G75*
G02*
X140900000Y-102955000I0J155000D01*
G01*
X140900000Y-102645000D01*
G75*
G02*
X141055000Y-102490000I155000J0D01*
G01*
X141480000Y-102490000D01*
G75*
G02*
X141635000Y-102645000I0J-155000D01*
G01*
G37*
G36*
G01*
X136360000Y-105180000D02*
X136860000Y-105180000D01*
G75*
G02*
X137110000Y-105430000I0J-250000D01*
G01*
X137110000Y-105930000D01*
G75*
G02*
X136860000Y-106180000I-250000J0D01*
G01*
X136360000Y-106180000D01*
G75*
G02*
X136110000Y-105930000I0J250000D01*
G01*
X136110000Y-105430000D01*
G75*
G02*
X136360000Y-105180000I250000J0D01*
G01*
G37*
G36*
G01*
X136360000Y-103180000D02*
X136860000Y-103180000D01*
G75*
G02*
X137110000Y-103430000I0J-250000D01*
G01*
X137110000Y-103930000D01*
G75*
G02*
X136860000Y-104180000I-250000J0D01*
G01*
X136360000Y-104180000D01*
G75*
G02*
X136110000Y-103930000I0J250000D01*
G01*
X136110000Y-103430000D01*
G75*
G02*
X136360000Y-103180000I250000J0D01*
G01*
G37*
G36*
G01*
X136360000Y-101180000D02*
X136860000Y-101180000D01*
G75*
G02*
X137110000Y-101430000I0J-250000D01*
G01*
X137110000Y-101930000D01*
G75*
G02*
X136860000Y-102180000I-250000J0D01*
G01*
X136360000Y-102180000D01*
G75*
G02*
X136110000Y-101930000I0J250000D01*
G01*
X136110000Y-101430000D01*
G75*
G02*
X136360000Y-101180000I250000J0D01*
G01*
G37*
G36*
G01*
X138440000Y-102200000D02*
X137940000Y-102200000D01*
G75*
G02*
X137690000Y-101950000I0J250000D01*
G01*
X137690000Y-101450000D01*
G75*
G02*
X137940000Y-101200000I250000J0D01*
G01*
X138440000Y-101200000D01*
G75*
G02*
X138690000Y-101450000I0J-250000D01*
G01*
X138690000Y-101950000D01*
G75*
G02*
X138440000Y-102200000I-250000J0D01*
G01*
G37*
G36*
G01*
X138440000Y-104200000D02*
X137940000Y-104200000D01*
G75*
G02*
X137690000Y-103950000I0J250000D01*
G01*
X137690000Y-103450000D01*
G75*
G02*
X137940000Y-103200000I250000J0D01*
G01*
X138440000Y-103200000D01*
G75*
G02*
X138690000Y-103450000I0J-250000D01*
G01*
X138690000Y-103950000D01*
G75*
G02*
X138440000Y-104200000I-250000J0D01*
G01*
G37*
G36*
G01*
X138440000Y-106200000D02*
X137940000Y-106200000D01*
G75*
G02*
X137690000Y-105950000I0J250000D01*
G01*
X137690000Y-105450000D01*
G75*
G02*
X137940000Y-105200000I250000J0D01*
G01*
X138440000Y-105200000D01*
G75*
G02*
X138690000Y-105450000I0J-250000D01*
G01*
X138690000Y-105950000D01*
G75*
G02*
X138440000Y-106200000I-250000J0D01*
G01*
G37*
G36*
G01*
X152050000Y-105210000D02*
X152550000Y-105210000D01*
G75*
G02*
X152800000Y-105460000I0J-250000D01*
G01*
X152800000Y-105960000D01*
G75*
G02*
X152550000Y-106210000I-250000J0D01*
G01*
X152050000Y-106210000D01*
G75*
G02*
X151800000Y-105960000I0J250000D01*
G01*
X151800000Y-105460000D01*
G75*
G02*
X152050000Y-105210000I250000J0D01*
G01*
G37*
G36*
G01*
X152050000Y-103210000D02*
X152550000Y-103210000D01*
G75*
G02*
X152800000Y-103460000I0J-250000D01*
G01*
X152800000Y-103960000D01*
G75*
G02*
X152550000Y-104210000I-250000J0D01*
G01*
X152050000Y-104210000D01*
G75*
G02*
X151800000Y-103960000I0J250000D01*
G01*
X151800000Y-103460000D01*
G75*
G02*
X152050000Y-103210000I250000J0D01*
G01*
G37*
G36*
G01*
X152050000Y-101210000D02*
X152550000Y-101210000D01*
G75*
G02*
X152800000Y-101460000I0J-250000D01*
G01*
X152800000Y-101960000D01*
G75*
G02*
X152550000Y-102210000I-250000J0D01*
G01*
X152050000Y-102210000D01*
G75*
G02*
X151800000Y-101960000I0J250000D01*
G01*
X151800000Y-101460000D01*
G75*
G02*
X152050000Y-101210000I250000J0D01*
G01*
G37*
G36*
G01*
X154150000Y-102210000D02*
X153650000Y-102210000D01*
G75*
G02*
X153400000Y-101960000I0J250000D01*
G01*
X153400000Y-101460000D01*
G75*
G02*
X153650000Y-101210000I250000J0D01*
G01*
X154150000Y-101210000D01*
G75*
G02*
X154400000Y-101460000I0J-250000D01*
G01*
X154400000Y-101960000D01*
G75*
G02*
X154150000Y-102210000I-250000J0D01*
G01*
G37*
G36*
G01*
X154150000Y-104210000D02*
X153650000Y-104210000D01*
G75*
G02*
X153400000Y-103960000I0J250000D01*
G01*
X153400000Y-103460000D01*
G75*
G02*
X153650000Y-103210000I250000J0D01*
G01*
X154150000Y-103210000D01*
G75*
G02*
X154400000Y-103460000I0J-250000D01*
G01*
X154400000Y-103960000D01*
G75*
G02*
X154150000Y-104210000I-250000J0D01*
G01*
G37*
G36*
G01*
X154150000Y-106210000D02*
X153650000Y-106210000D01*
G75*
G02*
X153400000Y-105960000I0J250000D01*
G01*
X153400000Y-105460000D01*
G75*
G02*
X153650000Y-105210000I250000J0D01*
G01*
X154150000Y-105210000D01*
G75*
G02*
X154400000Y-105460000I0J-250000D01*
G01*
X154400000Y-105960000D01*
G75*
G02*
X154150000Y-106210000I-250000J0D01*
G01*
G37*
D15*
X156100000Y-90000000D03*
X156100000Y-89050000D03*
X156100000Y-90950000D03*
X153900000Y-90950000D03*
X153900000Y-90000000D03*
X153900000Y-89050000D03*
X136100000Y-90000000D03*
X136100000Y-89050000D03*
X136100000Y-90950000D03*
X133900000Y-90950000D03*
X133900000Y-90000000D03*
X133900000Y-89050000D03*
D16*
X161525000Y-119875000D03*
X161525000Y-115725000D03*
X163675000Y-119875000D03*
X163675000Y-115725000D03*
D17*
X160261547Y-94911355D03*
G36*
G01*
X163562631Y-94651403D02*
X163536456Y-95400946D01*
G75*
G02*
X163148597Y-95762631I-374772J13087D01*
G01*
X162399054Y-95736456D01*
G75*
G02*
X162037369Y-95348597I13087J374772D01*
G01*
X162063544Y-94599054D01*
G75*
G02*
X162451403Y-94237369I374772J-13087D01*
G01*
X163200946Y-94263544D01*
G75*
G02*
X163562631Y-94651403I-13087J-374772D01*
G01*
G37*
G36*
G01*
X149999760Y-89162020D02*
X149350240Y-89537020D01*
G75*
G02*
X148837980Y-89399760I-187500J324760D01*
G01*
X148462980Y-88750240D01*
G75*
G02*
X148600240Y-88237980I324760J187500D01*
G01*
X149249760Y-87862980D01*
G75*
G02*
X149762020Y-88000240I187500J-324760D01*
G01*
X150137020Y-88649760D01*
G75*
G02*
X149999760Y-89162020I-324760J-187500D01*
G01*
G37*
X148030000Y-86500295D03*
X141230000Y-88699705D03*
G36*
G01*
X142550240Y-85662980D02*
X143199760Y-86037980D01*
G75*
G02*
X143337020Y-86550240I-187500J-324760D01*
G01*
X142962020Y-87199760D01*
G75*
G02*
X142449760Y-87337020I-324760J187500D01*
G01*
X141800240Y-86962020D01*
G75*
G02*
X141662980Y-86449760I187500J324760D01*
G01*
X142037980Y-85800240D01*
G75*
G02*
X142550240Y-85662980I324760J-187500D01*
G01*
G37*
X127761547Y-94988645D03*
G36*
G01*
X131036456Y-94499054D02*
X131062631Y-95248597D01*
G75*
G02*
X130700946Y-95636456I-374772J-13087D01*
G01*
X129951403Y-95662631D01*
G75*
G02*
X129563544Y-95300946I-13087J374772D01*
G01*
X129537369Y-94551403D01*
G75*
G02*
X129899054Y-94163544I374772J13087D01*
G01*
X130648597Y-94137369D01*
G75*
G02*
X131036456Y-94499054I13087J-374772D01*
G01*
G37*
G36*
G01*
X130936456Y-92599054D02*
X130962631Y-93348597D01*
G75*
G02*
X130600946Y-93736456I-374772J-13087D01*
G01*
X129851403Y-93762631D01*
G75*
G02*
X129463544Y-93400946I-13087J374772D01*
G01*
X129437369Y-92651403D01*
G75*
G02*
X129799054Y-92263544I374772J13087D01*
G01*
X130548597Y-92237369D01*
G75*
G02*
X130936456Y-92599054I13087J-374772D01*
G01*
G37*
X127661547Y-93088645D03*
G36*
G01*
X151599760Y-88162020D02*
X150950240Y-88537020D01*
G75*
G02*
X150437980Y-88399760I-187500J324760D01*
G01*
X150062980Y-87750240D01*
G75*
G02*
X150200240Y-87237980I324760J187500D01*
G01*
X150849760Y-86862980D01*
G75*
G02*
X151362020Y-87000240I187500J-324760D01*
G01*
X151737020Y-87649760D01*
G75*
G02*
X151599760Y-88162020I-324760J-187500D01*
G01*
G37*
X149630000Y-85500295D03*
X139630000Y-87699705D03*
G36*
G01*
X140950240Y-84662980D02*
X141599760Y-85037980D01*
G75*
G02*
X141737020Y-85550240I-187500J-324760D01*
G01*
X141362020Y-86199760D01*
G75*
G02*
X140849760Y-86337020I-324760J187500D01*
G01*
X140200240Y-85962020D01*
G75*
G02*
X140062980Y-85449760I187500J324760D01*
G01*
X140437980Y-84800240D01*
G75*
G02*
X140950240Y-84662980I324760J-187500D01*
G01*
G37*
X160361547Y-93011355D03*
G36*
G01*
X163662631Y-92751403D02*
X163636456Y-93500946D01*
G75*
G02*
X163248597Y-93862631I-374772J13087D01*
G01*
X162499054Y-93836456D01*
G75*
G02*
X162137369Y-93448597I13087J374772D01*
G01*
X162163544Y-92699054D01*
G75*
G02*
X162551403Y-92337369I374772J-13087D01*
G01*
X163300946Y-92363544D01*
G75*
G02*
X163662631Y-92751403I-13087J-374772D01*
G01*
G37*
G36*
G01*
X142375000Y-93137500D02*
X142375000Y-92387500D01*
G75*
G02*
X142437500Y-92325000I62500J0D01*
G01*
X142562500Y-92325000D01*
G75*
G02*
X142625000Y-92387500I0J-62500D01*
G01*
X142625000Y-93137500D01*
G75*
G02*
X142562500Y-93200000I-62500J0D01*
G01*
X142437500Y-93200000D01*
G75*
G02*
X142375000Y-93137500I0J62500D01*
G01*
G37*
G36*
G01*
X142875000Y-93137500D02*
X142875000Y-92387500D01*
G75*
G02*
X142937500Y-92325000I62500J0D01*
G01*
X143062500Y-92325000D01*
G75*
G02*
X143125000Y-92387500I0J-62500D01*
G01*
X143125000Y-93137500D01*
G75*
G02*
X143062500Y-93200000I-62500J0D01*
G01*
X142937500Y-93200000D01*
G75*
G02*
X142875000Y-93137500I0J62500D01*
G01*
G37*
G36*
G01*
X143375000Y-93137500D02*
X143375000Y-92387500D01*
G75*
G02*
X143437500Y-92325000I62500J0D01*
G01*
X143562500Y-92325000D01*
G75*
G02*
X143625000Y-92387500I0J-62500D01*
G01*
X143625000Y-93137500D01*
G75*
G02*
X143562500Y-93200000I-62500J0D01*
G01*
X143437500Y-93200000D01*
G75*
G02*
X143375000Y-93137500I0J62500D01*
G01*
G37*
G36*
G01*
X143875000Y-93137500D02*
X143875000Y-92387500D01*
G75*
G02*
X143937500Y-92325000I62500J0D01*
G01*
X144062500Y-92325000D01*
G75*
G02*
X144125000Y-92387500I0J-62500D01*
G01*
X144125000Y-93137500D01*
G75*
G02*
X144062500Y-93200000I-62500J0D01*
G01*
X143937500Y-93200000D01*
G75*
G02*
X143875000Y-93137500I0J62500D01*
G01*
G37*
G36*
G01*
X144375000Y-93137500D02*
X144375000Y-92387500D01*
G75*
G02*
X144437500Y-92325000I62500J0D01*
G01*
X144562500Y-92325000D01*
G75*
G02*
X144625000Y-92387500I0J-62500D01*
G01*
X144625000Y-93137500D01*
G75*
G02*
X144562500Y-93200000I-62500J0D01*
G01*
X144437500Y-93200000D01*
G75*
G02*
X144375000Y-93137500I0J62500D01*
G01*
G37*
G36*
G01*
X144875000Y-93137500D02*
X144875000Y-92387500D01*
G75*
G02*
X144937500Y-92325000I62500J0D01*
G01*
X145062500Y-92325000D01*
G75*
G02*
X145125000Y-92387500I0J-62500D01*
G01*
X145125000Y-93137500D01*
G75*
G02*
X145062500Y-93200000I-62500J0D01*
G01*
X144937500Y-93200000D01*
G75*
G02*
X144875000Y-93137500I0J62500D01*
G01*
G37*
G36*
G01*
X145375000Y-93137500D02*
X145375000Y-92387500D01*
G75*
G02*
X145437500Y-92325000I62500J0D01*
G01*
X145562500Y-92325000D01*
G75*
G02*
X145625000Y-92387500I0J-62500D01*
G01*
X145625000Y-93137500D01*
G75*
G02*
X145562500Y-93200000I-62500J0D01*
G01*
X145437500Y-93200000D01*
G75*
G02*
X145375000Y-93137500I0J62500D01*
G01*
G37*
G36*
G01*
X145875000Y-93137500D02*
X145875000Y-92387500D01*
G75*
G02*
X145937500Y-92325000I62500J0D01*
G01*
X146062500Y-92325000D01*
G75*
G02*
X146125000Y-92387500I0J-62500D01*
G01*
X146125000Y-93137500D01*
G75*
G02*
X146062500Y-93200000I-62500J0D01*
G01*
X145937500Y-93200000D01*
G75*
G02*
X145875000Y-93137500I0J62500D01*
G01*
G37*
G36*
G01*
X146375000Y-93137500D02*
X146375000Y-92387500D01*
G75*
G02*
X146437500Y-92325000I62500J0D01*
G01*
X146562500Y-92325000D01*
G75*
G02*
X146625000Y-92387500I0J-62500D01*
G01*
X146625000Y-93137500D01*
G75*
G02*
X146562500Y-93200000I-62500J0D01*
G01*
X146437500Y-93200000D01*
G75*
G02*
X146375000Y-93137500I0J62500D01*
G01*
G37*
G36*
G01*
X146875000Y-93137500D02*
X146875000Y-92387500D01*
G75*
G02*
X146937500Y-92325000I62500J0D01*
G01*
X147062500Y-92325000D01*
G75*
G02*
X147125000Y-92387500I0J-62500D01*
G01*
X147125000Y-93137500D01*
G75*
G02*
X147062500Y-93200000I-62500J0D01*
G01*
X146937500Y-93200000D01*
G75*
G02*
X146875000Y-93137500I0J62500D01*
G01*
G37*
G36*
G01*
X147375000Y-93137500D02*
X147375000Y-92387500D01*
G75*
G02*
X147437500Y-92325000I62500J0D01*
G01*
X147562500Y-92325000D01*
G75*
G02*
X147625000Y-92387500I0J-62500D01*
G01*
X147625000Y-93137500D01*
G75*
G02*
X147562500Y-93200000I-62500J0D01*
G01*
X147437500Y-93200000D01*
G75*
G02*
X147375000Y-93137500I0J62500D01*
G01*
G37*
G36*
G01*
X147875000Y-93137500D02*
X147875000Y-92387500D01*
G75*
G02*
X147937500Y-92325000I62500J0D01*
G01*
X148062500Y-92325000D01*
G75*
G02*
X148125000Y-92387500I0J-62500D01*
G01*
X148125000Y-93137500D01*
G75*
G02*
X148062500Y-93200000I-62500J0D01*
G01*
X147937500Y-93200000D01*
G75*
G02*
X147875000Y-93137500I0J62500D01*
G01*
G37*
G36*
G01*
X148250000Y-93512500D02*
X148250000Y-93387500D01*
G75*
G02*
X148312500Y-93325000I62500J0D01*
G01*
X149062500Y-93325000D01*
G75*
G02*
X149125000Y-93387500I0J-62500D01*
G01*
X149125000Y-93512500D01*
G75*
G02*
X149062500Y-93575000I-62500J0D01*
G01*
X148312500Y-93575000D01*
G75*
G02*
X148250000Y-93512500I0J62500D01*
G01*
G37*
G36*
G01*
X148250000Y-94012500D02*
X148250000Y-93887500D01*
G75*
G02*
X148312500Y-93825000I62500J0D01*
G01*
X149062500Y-93825000D01*
G75*
G02*
X149125000Y-93887500I0J-62500D01*
G01*
X149125000Y-94012500D01*
G75*
G02*
X149062500Y-94075000I-62500J0D01*
G01*
X148312500Y-94075000D01*
G75*
G02*
X148250000Y-94012500I0J62500D01*
G01*
G37*
G36*
G01*
X148250000Y-94512500D02*
X148250000Y-94387500D01*
G75*
G02*
X148312500Y-94325000I62500J0D01*
G01*
X149062500Y-94325000D01*
G75*
G02*
X149125000Y-94387500I0J-62500D01*
G01*
X149125000Y-94512500D01*
G75*
G02*
X149062500Y-94575000I-62500J0D01*
G01*
X148312500Y-94575000D01*
G75*
G02*
X148250000Y-94512500I0J62500D01*
G01*
G37*
G36*
G01*
X148250000Y-95012500D02*
X148250000Y-94887500D01*
G75*
G02*
X148312500Y-94825000I62500J0D01*
G01*
X149062500Y-94825000D01*
G75*
G02*
X149125000Y-94887500I0J-62500D01*
G01*
X149125000Y-95012500D01*
G75*
G02*
X149062500Y-95075000I-62500J0D01*
G01*
X148312500Y-95075000D01*
G75*
G02*
X148250000Y-95012500I0J62500D01*
G01*
G37*
G36*
G01*
X148250000Y-95512500D02*
X148250000Y-95387500D01*
G75*
G02*
X148312500Y-95325000I62500J0D01*
G01*
X149062500Y-95325000D01*
G75*
G02*
X149125000Y-95387500I0J-62500D01*
G01*
X149125000Y-95512500D01*
G75*
G02*
X149062500Y-95575000I-62500J0D01*
G01*
X148312500Y-95575000D01*
G75*
G02*
X148250000Y-95512500I0J62500D01*
G01*
G37*
G36*
G01*
X148250000Y-96012500D02*
X148250000Y-95887500D01*
G75*
G02*
X148312500Y-95825000I62500J0D01*
G01*
X149062500Y-95825000D01*
G75*
G02*
X149125000Y-95887500I0J-62500D01*
G01*
X149125000Y-96012500D01*
G75*
G02*
X149062500Y-96075000I-62500J0D01*
G01*
X148312500Y-96075000D01*
G75*
G02*
X148250000Y-96012500I0J62500D01*
G01*
G37*
G36*
G01*
X148250000Y-96512500D02*
X148250000Y-96387500D01*
G75*
G02*
X148312500Y-96325000I62500J0D01*
G01*
X149062500Y-96325000D01*
G75*
G02*
X149125000Y-96387500I0J-62500D01*
G01*
X149125000Y-96512500D01*
G75*
G02*
X149062500Y-96575000I-62500J0D01*
G01*
X148312500Y-96575000D01*
G75*
G02*
X148250000Y-96512500I0J62500D01*
G01*
G37*
G36*
G01*
X148250000Y-97012500D02*
X148250000Y-96887500D01*
G75*
G02*
X148312500Y-96825000I62500J0D01*
G01*
X149062500Y-96825000D01*
G75*
G02*
X149125000Y-96887500I0J-62500D01*
G01*
X149125000Y-97012500D01*
G75*
G02*
X149062500Y-97075000I-62500J0D01*
G01*
X148312500Y-97075000D01*
G75*
G02*
X148250000Y-97012500I0J62500D01*
G01*
G37*
G36*
G01*
X148250000Y-97512500D02*
X148250000Y-97387500D01*
G75*
G02*
X148312500Y-97325000I62500J0D01*
G01*
X149062500Y-97325000D01*
G75*
G02*
X149125000Y-97387500I0J-62500D01*
G01*
X149125000Y-97512500D01*
G75*
G02*
X149062500Y-97575000I-62500J0D01*
G01*
X148312500Y-97575000D01*
G75*
G02*
X148250000Y-97512500I0J62500D01*
G01*
G37*
G36*
G01*
X148250000Y-98012500D02*
X148250000Y-97887500D01*
G75*
G02*
X148312500Y-97825000I62500J0D01*
G01*
X149062500Y-97825000D01*
G75*
G02*
X149125000Y-97887500I0J-62500D01*
G01*
X149125000Y-98012500D01*
G75*
G02*
X149062500Y-98075000I-62500J0D01*
G01*
X148312500Y-98075000D01*
G75*
G02*
X148250000Y-98012500I0J62500D01*
G01*
G37*
G36*
G01*
X148250000Y-98512500D02*
X148250000Y-98387500D01*
G75*
G02*
X148312500Y-98325000I62500J0D01*
G01*
X149062500Y-98325000D01*
G75*
G02*
X149125000Y-98387500I0J-62500D01*
G01*
X149125000Y-98512500D01*
G75*
G02*
X149062500Y-98575000I-62500J0D01*
G01*
X148312500Y-98575000D01*
G75*
G02*
X148250000Y-98512500I0J62500D01*
G01*
G37*
G36*
G01*
X148250000Y-99012500D02*
X148250000Y-98887500D01*
G75*
G02*
X148312500Y-98825000I62500J0D01*
G01*
X149062500Y-98825000D01*
G75*
G02*
X149125000Y-98887500I0J-62500D01*
G01*
X149125000Y-99012500D01*
G75*
G02*
X149062500Y-99075000I-62500J0D01*
G01*
X148312500Y-99075000D01*
G75*
G02*
X148250000Y-99012500I0J62500D01*
G01*
G37*
G36*
G01*
X147875000Y-100012500D02*
X147875000Y-99262500D01*
G75*
G02*
X147937500Y-99200000I62500J0D01*
G01*
X148062500Y-99200000D01*
G75*
G02*
X148125000Y-99262500I0J-62500D01*
G01*
X148125000Y-100012500D01*
G75*
G02*
X148062500Y-100075000I-62500J0D01*
G01*
X147937500Y-100075000D01*
G75*
G02*
X147875000Y-100012500I0J62500D01*
G01*
G37*
G36*
G01*
X147375000Y-100012500D02*
X147375000Y-99262500D01*
G75*
G02*
X147437500Y-99200000I62500J0D01*
G01*
X147562500Y-99200000D01*
G75*
G02*
X147625000Y-99262500I0J-62500D01*
G01*
X147625000Y-100012500D01*
G75*
G02*
X147562500Y-100075000I-62500J0D01*
G01*
X147437500Y-100075000D01*
G75*
G02*
X147375000Y-100012500I0J62500D01*
G01*
G37*
G36*
G01*
X146875000Y-100012500D02*
X146875000Y-99262500D01*
G75*
G02*
X146937500Y-99200000I62500J0D01*
G01*
X147062500Y-99200000D01*
G75*
G02*
X147125000Y-99262500I0J-62500D01*
G01*
X147125000Y-100012500D01*
G75*
G02*
X147062500Y-100075000I-62500J0D01*
G01*
X146937500Y-100075000D01*
G75*
G02*
X146875000Y-100012500I0J62500D01*
G01*
G37*
G36*
G01*
X146375000Y-100012500D02*
X146375000Y-99262500D01*
G75*
G02*
X146437500Y-99200000I62500J0D01*
G01*
X146562500Y-99200000D01*
G75*
G02*
X146625000Y-99262500I0J-62500D01*
G01*
X146625000Y-100012500D01*
G75*
G02*
X146562500Y-100075000I-62500J0D01*
G01*
X146437500Y-100075000D01*
G75*
G02*
X146375000Y-100012500I0J62500D01*
G01*
G37*
G36*
G01*
X145875000Y-100012500D02*
X145875000Y-99262500D01*
G75*
G02*
X145937500Y-99200000I62500J0D01*
G01*
X146062500Y-99200000D01*
G75*
G02*
X146125000Y-99262500I0J-62500D01*
G01*
X146125000Y-100012500D01*
G75*
G02*
X146062500Y-100075000I-62500J0D01*
G01*
X145937500Y-100075000D01*
G75*
G02*
X145875000Y-100012500I0J62500D01*
G01*
G37*
G36*
G01*
X145375000Y-100012500D02*
X145375000Y-99262500D01*
G75*
G02*
X145437500Y-99200000I62500J0D01*
G01*
X145562500Y-99200000D01*
G75*
G02*
X145625000Y-99262500I0J-62500D01*
G01*
X145625000Y-100012500D01*
G75*
G02*
X145562500Y-100075000I-62500J0D01*
G01*
X145437500Y-100075000D01*
G75*
G02*
X145375000Y-100012500I0J62500D01*
G01*
G37*
G36*
G01*
X144875000Y-100012500D02*
X144875000Y-99262500D01*
G75*
G02*
X144937500Y-99200000I62500J0D01*
G01*
X145062500Y-99200000D01*
G75*
G02*
X145125000Y-99262500I0J-62500D01*
G01*
X145125000Y-100012500D01*
G75*
G02*
X145062500Y-100075000I-62500J0D01*
G01*
X144937500Y-100075000D01*
G75*
G02*
X144875000Y-100012500I0J62500D01*
G01*
G37*
G36*
G01*
X144375000Y-100012500D02*
X144375000Y-99262500D01*
G75*
G02*
X144437500Y-99200000I62500J0D01*
G01*
X144562500Y-99200000D01*
G75*
G02*
X144625000Y-99262500I0J-62500D01*
G01*
X144625000Y-100012500D01*
G75*
G02*
X144562500Y-100075000I-62500J0D01*
G01*
X144437500Y-100075000D01*
G75*
G02*
X144375000Y-100012500I0J62500D01*
G01*
G37*
G36*
G01*
X143875000Y-100012500D02*
X143875000Y-99262500D01*
G75*
G02*
X143937500Y-99200000I62500J0D01*
G01*
X144062500Y-99200000D01*
G75*
G02*
X144125000Y-99262500I0J-62500D01*
G01*
X144125000Y-100012500D01*
G75*
G02*
X144062500Y-100075000I-62500J0D01*
G01*
X143937500Y-100075000D01*
G75*
G02*
X143875000Y-100012500I0J62500D01*
G01*
G37*
G36*
G01*
X143375000Y-100012500D02*
X143375000Y-99262500D01*
G75*
G02*
X143437500Y-99200000I62500J0D01*
G01*
X143562500Y-99200000D01*
G75*
G02*
X143625000Y-99262500I0J-62500D01*
G01*
X143625000Y-100012500D01*
G75*
G02*
X143562500Y-100075000I-62500J0D01*
G01*
X143437500Y-100075000D01*
G75*
G02*
X143375000Y-100012500I0J62500D01*
G01*
G37*
G36*
G01*
X142875000Y-100012500D02*
X142875000Y-99262500D01*
G75*
G02*
X142937500Y-99200000I62500J0D01*
G01*
X143062500Y-99200000D01*
G75*
G02*
X143125000Y-99262500I0J-62500D01*
G01*
X143125000Y-100012500D01*
G75*
G02*
X143062500Y-100075000I-62500J0D01*
G01*
X142937500Y-100075000D01*
G75*
G02*
X142875000Y-100012500I0J62500D01*
G01*
G37*
G36*
G01*
X142375000Y-100012500D02*
X142375000Y-99262500D01*
G75*
G02*
X142437500Y-99200000I62500J0D01*
G01*
X142562500Y-99200000D01*
G75*
G02*
X142625000Y-99262500I0J-62500D01*
G01*
X142625000Y-100012500D01*
G75*
G02*
X142562500Y-100075000I-62500J0D01*
G01*
X142437500Y-100075000D01*
G75*
G02*
X142375000Y-100012500I0J62500D01*
G01*
G37*
G36*
G01*
X141375000Y-99012500D02*
X141375000Y-98887500D01*
G75*
G02*
X141437500Y-98825000I62500J0D01*
G01*
X142187500Y-98825000D01*
G75*
G02*
X142250000Y-98887500I0J-62500D01*
G01*
X142250000Y-99012500D01*
G75*
G02*
X142187500Y-99075000I-62500J0D01*
G01*
X141437500Y-99075000D01*
G75*
G02*
X141375000Y-99012500I0J62500D01*
G01*
G37*
G36*
G01*
X141375000Y-98512500D02*
X141375000Y-98387500D01*
G75*
G02*
X141437500Y-98325000I62500J0D01*
G01*
X142187500Y-98325000D01*
G75*
G02*
X142250000Y-98387500I0J-62500D01*
G01*
X142250000Y-98512500D01*
G75*
G02*
X142187500Y-98575000I-62500J0D01*
G01*
X141437500Y-98575000D01*
G75*
G02*
X141375000Y-98512500I0J62500D01*
G01*
G37*
G36*
G01*
X141375000Y-98012500D02*
X141375000Y-97887500D01*
G75*
G02*
X141437500Y-97825000I62500J0D01*
G01*
X142187500Y-97825000D01*
G75*
G02*
X142250000Y-97887500I0J-62500D01*
G01*
X142250000Y-98012500D01*
G75*
G02*
X142187500Y-98075000I-62500J0D01*
G01*
X141437500Y-98075000D01*
G75*
G02*
X141375000Y-98012500I0J62500D01*
G01*
G37*
G36*
G01*
X141375000Y-97512500D02*
X141375000Y-97387500D01*
G75*
G02*
X141437500Y-97325000I62500J0D01*
G01*
X142187500Y-97325000D01*
G75*
G02*
X142250000Y-97387500I0J-62500D01*
G01*
X142250000Y-97512500D01*
G75*
G02*
X142187500Y-97575000I-62500J0D01*
G01*
X141437500Y-97575000D01*
G75*
G02*
X141375000Y-97512500I0J62500D01*
G01*
G37*
G36*
G01*
X141375000Y-97012500D02*
X141375000Y-96887500D01*
G75*
G02*
X141437500Y-96825000I62500J0D01*
G01*
X142187500Y-96825000D01*
G75*
G02*
X142250000Y-96887500I0J-62500D01*
G01*
X142250000Y-97012500D01*
G75*
G02*
X142187500Y-97075000I-62500J0D01*
G01*
X141437500Y-97075000D01*
G75*
G02*
X141375000Y-97012500I0J62500D01*
G01*
G37*
G36*
G01*
X141375000Y-96512500D02*
X141375000Y-96387500D01*
G75*
G02*
X141437500Y-96325000I62500J0D01*
G01*
X142187500Y-96325000D01*
G75*
G02*
X142250000Y-96387500I0J-62500D01*
G01*
X142250000Y-96512500D01*
G75*
G02*
X142187500Y-96575000I-62500J0D01*
G01*
X141437500Y-96575000D01*
G75*
G02*
X141375000Y-96512500I0J62500D01*
G01*
G37*
G36*
G01*
X141375000Y-96012500D02*
X141375000Y-95887500D01*
G75*
G02*
X141437500Y-95825000I62500J0D01*
G01*
X142187500Y-95825000D01*
G75*
G02*
X142250000Y-95887500I0J-62500D01*
G01*
X142250000Y-96012500D01*
G75*
G02*
X142187500Y-96075000I-62500J0D01*
G01*
X141437500Y-96075000D01*
G75*
G02*
X141375000Y-96012500I0J62500D01*
G01*
G37*
G36*
G01*
X141375000Y-95512500D02*
X141375000Y-95387500D01*
G75*
G02*
X141437500Y-95325000I62500J0D01*
G01*
X142187500Y-95325000D01*
G75*
G02*
X142250000Y-95387500I0J-62500D01*
G01*
X142250000Y-95512500D01*
G75*
G02*
X142187500Y-95575000I-62500J0D01*
G01*
X141437500Y-95575000D01*
G75*
G02*
X141375000Y-95512500I0J62500D01*
G01*
G37*
G36*
G01*
X141375000Y-95012500D02*
X141375000Y-94887500D01*
G75*
G02*
X141437500Y-94825000I62500J0D01*
G01*
X142187500Y-94825000D01*
G75*
G02*
X142250000Y-94887500I0J-62500D01*
G01*
X142250000Y-95012500D01*
G75*
G02*
X142187500Y-95075000I-62500J0D01*
G01*
X141437500Y-95075000D01*
G75*
G02*
X141375000Y-95012500I0J62500D01*
G01*
G37*
G36*
G01*
X141375000Y-94512500D02*
X141375000Y-94387500D01*
G75*
G02*
X141437500Y-94325000I62500J0D01*
G01*
X142187500Y-94325000D01*
G75*
G02*
X142250000Y-94387500I0J-62500D01*
G01*
X142250000Y-94512500D01*
G75*
G02*
X142187500Y-94575000I-62500J0D01*
G01*
X141437500Y-94575000D01*
G75*
G02*
X141375000Y-94512500I0J62500D01*
G01*
G37*
G36*
G01*
X141375000Y-94012500D02*
X141375000Y-93887500D01*
G75*
G02*
X141437500Y-93825000I62500J0D01*
G01*
X142187500Y-93825000D01*
G75*
G02*
X142250000Y-93887500I0J-62500D01*
G01*
X142250000Y-94012500D01*
G75*
G02*
X142187500Y-94075000I-62500J0D01*
G01*
X141437500Y-94075000D01*
G75*
G02*
X141375000Y-94012500I0J62500D01*
G01*
G37*
G36*
G01*
X141375000Y-93512500D02*
X141375000Y-93387500D01*
G75*
G02*
X141437500Y-93325000I62500J0D01*
G01*
X142187500Y-93325000D01*
G75*
G02*
X142250000Y-93387500I0J-62500D01*
G01*
X142250000Y-93512500D01*
G75*
G02*
X142187500Y-93575000I-62500J0D01*
G01*
X141437500Y-93575000D01*
G75*
G02*
X141375000Y-93512500I0J62500D01*
G01*
G37*
D18*
X148300000Y-119000000D03*
X147350000Y-117000000D03*
X149250000Y-117000000D03*
D19*
X130460000Y-119770000D03*
X128460000Y-120720000D03*
X128460000Y-118820000D03*
D20*
X152730000Y-113800000D03*
X152730000Y-117800000D03*
D21*
X148920000Y-122000000D03*
X146380000Y-122000000D03*
X143840000Y-122000000D03*
D22*
X141300000Y-122000000D03*
D23*
X128175000Y-114675000D03*
G36*
G01*
X129875000Y-114200000D02*
X129875000Y-115150000D01*
G75*
G02*
X129650000Y-115375000I-225000J0D01*
G01*
X129200000Y-115375000D01*
G75*
G02*
X128975000Y-115150000I0J225000D01*
G01*
X128975000Y-114200000D01*
G75*
G02*
X129200000Y-113975000I225000J0D01*
G01*
X129650000Y-113975000D01*
G75*
G02*
X129875000Y-114200000I0J-225000D01*
G01*
G37*
M02*
