G04 #@! TF.GenerationSoftware,KiCad,Pcbnew,(5.1.7)-1*
G04 #@! TF.CreationDate,2021-06-23T20:49:00+09:00*
G04 #@! TF.ProjectId,lapis,6c617069-732e-46b6-9963-61645f706362,rev?*
G04 #@! TF.SameCoordinates,Original*
G04 #@! TF.FileFunction,Copper,L2,Bot*
G04 #@! TF.FilePolarity,Positive*
%FSLAX46Y46*%
G04 Gerber Fmt 4.6, Leading zero omitted, Abs format (unit mm)*
G04 Created by KiCad (PCBNEW (5.1.7)-1) date 2021-06-23 20:49:00*
%MOMM*%
%LPD*%
G01*
G04 APERTURE LIST*
G04 #@! TA.AperFunction,ComponentPad*
%ADD10C,1.000000*%
G04 #@! TD*
G04 #@! TA.AperFunction,ComponentPad*
%ADD11C,1.500000*%
G04 #@! TD*
G04 #@! TA.AperFunction,ComponentPad*
%ADD12O,1.700000X1.700000*%
G04 #@! TD*
G04 #@! TA.AperFunction,ComponentPad*
%ADD13R,1.700000X1.700000*%
G04 #@! TD*
G04 #@! TA.AperFunction,ComponentPad*
%ADD14O,0.900000X1.400000*%
G04 #@! TD*
G04 #@! TA.AperFunction,ViaPad*
%ADD15C,0.600000*%
G04 #@! TD*
G04 #@! TA.AperFunction,ViaPad*
%ADD16C,0.800000*%
G04 #@! TD*
G04 #@! TA.AperFunction,Conductor*
%ADD17C,0.200000*%
G04 #@! TD*
G04 #@! TA.AperFunction,Conductor*
%ADD18C,0.300000*%
G04 #@! TD*
G04 #@! TA.AperFunction,Conductor*
%ADD19C,0.500000*%
G04 #@! TD*
G04 #@! TA.AperFunction,Conductor*
%ADD20C,0.250000*%
G04 #@! TD*
G04 #@! TA.AperFunction,Conductor*
%ADD21C,0.100000*%
G04 #@! TD*
G04 APERTURE END LIST*
D10*
X148500000Y-106000000D03*
X150500000Y-106000000D03*
X142000000Y-106000000D03*
X140000000Y-106000000D03*
G04 #@! TA.AperFunction,SMDPad,CuDef*
G36*
G01*
X151200000Y-136415000D02*
X151200000Y-136965000D01*
G75*
G02*
X150975000Y-137190000I-225000J0D01*
G01*
X150525000Y-137190000D01*
G75*
G02*
X150300000Y-136965000I0J225000D01*
G01*
X150300000Y-136415000D01*
G75*
G02*
X150525000Y-136190000I225000J0D01*
G01*
X150975000Y-136190000D01*
G75*
G02*
X151200000Y-136415000I0J-225000D01*
G01*
G37*
G04 #@! TD.AperFunction*
G04 #@! TA.AperFunction,SMDPad,CuDef*
G36*
G01*
X153200000Y-136415000D02*
X153200000Y-136965000D01*
G75*
G02*
X152975000Y-137190000I-225000J0D01*
G01*
X152525000Y-137190000D01*
G75*
G02*
X152300000Y-136965000I0J225000D01*
G01*
X152300000Y-136415000D01*
G75*
G02*
X152525000Y-136190000I225000J0D01*
G01*
X152975000Y-136190000D01*
G75*
G02*
X153200000Y-136415000I0J-225000D01*
G01*
G37*
G04 #@! TD.AperFunction*
G04 #@! TA.AperFunction,SMDPad,CuDef*
G36*
G01*
X155200000Y-136415000D02*
X155200000Y-136965000D01*
G75*
G02*
X154975000Y-137190000I-225000J0D01*
G01*
X154525000Y-137190000D01*
G75*
G02*
X154300000Y-136965000I0J225000D01*
G01*
X154300000Y-136415000D01*
G75*
G02*
X154525000Y-136190000I225000J0D01*
G01*
X154975000Y-136190000D01*
G75*
G02*
X155200000Y-136415000I0J-225000D01*
G01*
G37*
G04 #@! TD.AperFunction*
G04 #@! TA.AperFunction,SMDPad,CuDef*
G36*
G01*
X139145000Y-136415000D02*
X139145000Y-136965000D01*
G75*
G02*
X138920000Y-137190000I-225000J0D01*
G01*
X138470000Y-137190000D01*
G75*
G02*
X138245000Y-136965000I0J225000D01*
G01*
X138245000Y-136415000D01*
G75*
G02*
X138470000Y-136190000I225000J0D01*
G01*
X138920000Y-136190000D01*
G75*
G02*
X139145000Y-136415000I0J-225000D01*
G01*
G37*
G04 #@! TD.AperFunction*
G04 #@! TA.AperFunction,SMDPad,CuDef*
G36*
G01*
X141145000Y-136415000D02*
X141145000Y-136965000D01*
G75*
G02*
X140920000Y-137190000I-225000J0D01*
G01*
X140470000Y-137190000D01*
G75*
G02*
X140245000Y-136965000I0J225000D01*
G01*
X140245000Y-136415000D01*
G75*
G02*
X140470000Y-136190000I225000J0D01*
G01*
X140920000Y-136190000D01*
G75*
G02*
X141145000Y-136415000I0J-225000D01*
G01*
G37*
G04 #@! TD.AperFunction*
G04 #@! TA.AperFunction,SMDPad,CuDef*
G36*
G01*
X143145000Y-136415000D02*
X143145000Y-136965000D01*
G75*
G02*
X142920000Y-137190000I-225000J0D01*
G01*
X142470000Y-137190000D01*
G75*
G02*
X142245000Y-136965000I0J225000D01*
G01*
X142245000Y-136415000D01*
G75*
G02*
X142470000Y-136190000I225000J0D01*
G01*
X142920000Y-136190000D01*
G75*
G02*
X143145000Y-136415000I0J-225000D01*
G01*
G37*
G04 #@! TD.AperFunction*
G04 #@! TA.AperFunction,SMDPad,CuDef*
G36*
G01*
X140760000Y-132710000D02*
X140760000Y-132510000D01*
G75*
G02*
X140860000Y-132410000I100000J0D01*
G01*
X141295000Y-132410000D01*
G75*
G02*
X141395000Y-132510000I0J-100000D01*
G01*
X141395000Y-132710000D01*
G75*
G02*
X141295000Y-132810000I-100000J0D01*
G01*
X140860000Y-132810000D01*
G75*
G02*
X140760000Y-132710000I0J100000D01*
G01*
G37*
G04 #@! TD.AperFunction*
G04 #@! TA.AperFunction,SMDPad,CuDef*
G36*
G01*
X139945000Y-132710000D02*
X139945000Y-132510000D01*
G75*
G02*
X140045000Y-132410000I100000J0D01*
G01*
X140480000Y-132410000D01*
G75*
G02*
X140580000Y-132510000I0J-100000D01*
G01*
X140580000Y-132710000D01*
G75*
G02*
X140480000Y-132810000I-100000J0D01*
G01*
X140045000Y-132810000D01*
G75*
G02*
X139945000Y-132710000I0J100000D01*
G01*
G37*
G04 #@! TD.AperFunction*
G04 #@! TA.AperFunction,SMDPad,CuDef*
G36*
G01*
X152800000Y-132730000D02*
X152800000Y-132530000D01*
G75*
G02*
X152900000Y-132430000I100000J0D01*
G01*
X153335000Y-132430000D01*
G75*
G02*
X153435000Y-132530000I0J-100000D01*
G01*
X153435000Y-132730000D01*
G75*
G02*
X153335000Y-132830000I-100000J0D01*
G01*
X152900000Y-132830000D01*
G75*
G02*
X152800000Y-132730000I0J100000D01*
G01*
G37*
G04 #@! TD.AperFunction*
G04 #@! TA.AperFunction,SMDPad,CuDef*
G36*
G01*
X151985000Y-132730000D02*
X151985000Y-132530000D01*
G75*
G02*
X152085000Y-132430000I100000J0D01*
G01*
X152520000Y-132430000D01*
G75*
G02*
X152620000Y-132530000I0J-100000D01*
G01*
X152620000Y-132730000D01*
G75*
G02*
X152520000Y-132830000I-100000J0D01*
G01*
X152085000Y-132830000D01*
G75*
G02*
X151985000Y-132730000I0J100000D01*
G01*
G37*
G04 #@! TD.AperFunction*
D11*
X160261547Y-94911355D03*
G04 #@! TA.AperFunction,ComponentPad*
G36*
G01*
X163562631Y-94651403D02*
X163536456Y-95400946D01*
G75*
G02*
X163148597Y-95762631I-374772J13087D01*
G01*
X162399054Y-95736456D01*
G75*
G02*
X162037369Y-95348597I13087J374772D01*
G01*
X162063544Y-94599054D01*
G75*
G02*
X162451403Y-94237369I374772J-13087D01*
G01*
X163200946Y-94263544D01*
G75*
G02*
X163562631Y-94651403I-13087J-374772D01*
G01*
G37*
G04 #@! TD.AperFunction*
G04 #@! TA.AperFunction,ComponentPad*
G36*
G01*
X149999760Y-89162020D02*
X149350240Y-89537020D01*
G75*
G02*
X148837980Y-89399760I-187500J324760D01*
G01*
X148462980Y-88750240D01*
G75*
G02*
X148600240Y-88237980I324760J187500D01*
G01*
X149249760Y-87862980D01*
G75*
G02*
X149762020Y-88000240I187500J-324760D01*
G01*
X150137020Y-88649760D01*
G75*
G02*
X149999760Y-89162020I-324760J-187500D01*
G01*
G37*
G04 #@! TD.AperFunction*
X148030000Y-86500295D03*
X141230000Y-88699705D03*
G04 #@! TA.AperFunction,ComponentPad*
G36*
G01*
X142550240Y-85662980D02*
X143199760Y-86037980D01*
G75*
G02*
X143337020Y-86550240I-187500J-324760D01*
G01*
X142962020Y-87199760D01*
G75*
G02*
X142449760Y-87337020I-324760J187500D01*
G01*
X141800240Y-86962020D01*
G75*
G02*
X141662980Y-86449760I187500J324760D01*
G01*
X142037980Y-85800240D01*
G75*
G02*
X142550240Y-85662980I324760J-187500D01*
G01*
G37*
G04 #@! TD.AperFunction*
X127761547Y-94988645D03*
G04 #@! TA.AperFunction,ComponentPad*
G36*
G01*
X131036456Y-94499054D02*
X131062631Y-95248597D01*
G75*
G02*
X130700946Y-95636456I-374772J-13087D01*
G01*
X129951403Y-95662631D01*
G75*
G02*
X129563544Y-95300946I-13087J374772D01*
G01*
X129537369Y-94551403D01*
G75*
G02*
X129899054Y-94163544I374772J13087D01*
G01*
X130648597Y-94137369D01*
G75*
G02*
X131036456Y-94499054I13087J-374772D01*
G01*
G37*
G04 #@! TD.AperFunction*
G04 #@! TA.AperFunction,ComponentPad*
G36*
G01*
X130936456Y-92599054D02*
X130962631Y-93348597D01*
G75*
G02*
X130600946Y-93736456I-374772J-13087D01*
G01*
X129851403Y-93762631D01*
G75*
G02*
X129463544Y-93400946I-13087J374772D01*
G01*
X129437369Y-92651403D01*
G75*
G02*
X129799054Y-92263544I374772J13087D01*
G01*
X130548597Y-92237369D01*
G75*
G02*
X130936456Y-92599054I13087J-374772D01*
G01*
G37*
G04 #@! TD.AperFunction*
X127661547Y-93088645D03*
G04 #@! TA.AperFunction,ComponentPad*
G36*
G01*
X151599760Y-88162020D02*
X150950240Y-88537020D01*
G75*
G02*
X150437980Y-88399760I-187500J324760D01*
G01*
X150062980Y-87750240D01*
G75*
G02*
X150200240Y-87237980I324760J187500D01*
G01*
X150849760Y-86862980D01*
G75*
G02*
X151362020Y-87000240I187500J-324760D01*
G01*
X151737020Y-87649760D01*
G75*
G02*
X151599760Y-88162020I-324760J-187500D01*
G01*
G37*
G04 #@! TD.AperFunction*
X149630000Y-85500295D03*
X139630000Y-87699705D03*
G04 #@! TA.AperFunction,ComponentPad*
G36*
G01*
X140950240Y-84662980D02*
X141599760Y-85037980D01*
G75*
G02*
X141737020Y-85550240I-187500J-324760D01*
G01*
X141362020Y-86199760D01*
G75*
G02*
X140849760Y-86337020I-324760J187500D01*
G01*
X140200240Y-85962020D01*
G75*
G02*
X140062980Y-85449760I187500J324760D01*
G01*
X140437980Y-84800240D01*
G75*
G02*
X140950240Y-84662980I324760J-187500D01*
G01*
G37*
G04 #@! TD.AperFunction*
X160361547Y-93011355D03*
G04 #@! TA.AperFunction,ComponentPad*
G36*
G01*
X163662631Y-92751403D02*
X163636456Y-93500946D01*
G75*
G02*
X163248597Y-93862631I-374772J13087D01*
G01*
X162499054Y-93836456D01*
G75*
G02*
X162137369Y-93448597I13087J374772D01*
G01*
X162163544Y-92699054D01*
G75*
G02*
X162551403Y-92337369I374772J-13087D01*
G01*
X163300946Y-92363544D01*
G75*
G02*
X163662631Y-92751403I-13087J-374772D01*
G01*
G37*
G04 #@! TD.AperFunction*
D12*
X148920000Y-122000000D03*
X146380000Y-122000000D03*
X143840000Y-122000000D03*
D13*
X141300000Y-122000000D03*
D14*
X128175000Y-114675000D03*
G04 #@! TA.AperFunction,ComponentPad*
G36*
G01*
X129875000Y-114200000D02*
X129875000Y-115150000D01*
G75*
G02*
X129650000Y-115375000I-225000J0D01*
G01*
X129200000Y-115375000D01*
G75*
G02*
X128975000Y-115150000I0J225000D01*
G01*
X128975000Y-114200000D01*
G75*
G02*
X129200000Y-113975000I225000J0D01*
G01*
X129650000Y-113975000D01*
G75*
G02*
X129875000Y-114200000I0J-225000D01*
G01*
G37*
G04 #@! TD.AperFunction*
D15*
X128450000Y-118850000D03*
X152700000Y-98700000D03*
X152200000Y-103000000D03*
X150419999Y-98619999D03*
X136000000Y-104400000D03*
X133700000Y-93190000D03*
X163600000Y-117700000D03*
X145700000Y-85700000D03*
X161100000Y-121400000D03*
X126210000Y-118180000D03*
X132500000Y-113100000D03*
X145400000Y-120900000D03*
X140100000Y-80400000D03*
X140800000Y-105000000D03*
X138900000Y-102600000D03*
X150600000Y-94400000D03*
X155600000Y-94000000D03*
X137900000Y-92700000D03*
X143700000Y-91700000D03*
X154300000Y-116300000D03*
X132300000Y-116600000D03*
X132800000Y-120500000D03*
X139600000Y-121500000D03*
X159100000Y-92000000D03*
X150600000Y-80700000D03*
X164900000Y-91700000D03*
X130700000Y-84000000D03*
X125400000Y-92000000D03*
X131400000Y-91800000D03*
X139500000Y-82900000D03*
X133800000Y-86500000D03*
X157100000Y-86500000D03*
X152600000Y-108100000D03*
X135100000Y-119100000D03*
X150400000Y-114100000D03*
X159900000Y-89800000D03*
X140600000Y-97200000D03*
X137400000Y-98300000D03*
X157300000Y-100400000D03*
X154400000Y-111200000D03*
X142800000Y-113000000D03*
X125800000Y-112500000D03*
X163600000Y-112600000D03*
X156600000Y-113200000D03*
X142500000Y-107500000D03*
X140900000Y-110800000D03*
X147000000Y-95500000D03*
D16*
X147600000Y-96700000D03*
D15*
X146680000Y-97330000D03*
X150190000Y-103920000D03*
X148400000Y-100920000D03*
X149510000Y-107600000D03*
X148317500Y-99637500D03*
X143660000Y-119350000D03*
X134430000Y-108870000D03*
X130460000Y-119770000D03*
X135360000Y-86120000D03*
X138390000Y-91210000D03*
X158097942Y-82768111D03*
X143352184Y-82768111D03*
X128545000Y-120735000D03*
X139500000Y-98300000D03*
X146492500Y-88992500D03*
X140400000Y-98600000D03*
X132890000Y-95000000D03*
X132890000Y-95000000D03*
X143892500Y-88992500D03*
X140799498Y-100487500D03*
X150400000Y-133300000D03*
X150700000Y-130900000D03*
X139220000Y-131020000D03*
X140060000Y-133700000D03*
X154050000Y-134090000D03*
X152800000Y-134200000D03*
X138150000Y-133800000D03*
X152600000Y-130900000D03*
X140250000Y-131200000D03*
X151750000Y-136670000D03*
X141450000Y-131000000D03*
X154600000Y-131200000D03*
X142750000Y-133600000D03*
X154004990Y-132104990D03*
X141725000Y-136725000D03*
X143800000Y-95000000D03*
X144700000Y-107400000D03*
X142900000Y-94200000D03*
X145625000Y-107915000D03*
X146000000Y-94400000D03*
X146300000Y-106500000D03*
X145200000Y-95100000D03*
X147100000Y-107300000D03*
X144700000Y-91400000D03*
X161407500Y-113457500D03*
X150000000Y-92000000D03*
X156300000Y-104100000D03*
X149850000Y-96450000D03*
X149737668Y-95400000D03*
X139100000Y-111000000D03*
X151800000Y-96600000D03*
X154600000Y-102700000D03*
X138300000Y-103700000D03*
X138870000Y-107080000D03*
X138150000Y-109550000D03*
X153900000Y-107200000D03*
X151800000Y-97700000D03*
X147100000Y-98100000D03*
X137400000Y-106900000D03*
X147775000Y-104925000D03*
X145600000Y-100900000D03*
X145010000Y-106550000D03*
X144899999Y-103700001D03*
X144790000Y-101390000D03*
X143500000Y-101700000D03*
X142730000Y-104150000D03*
X142600000Y-101700000D03*
X142500000Y-103080000D03*
X151500000Y-120256798D03*
X135000000Y-94700000D03*
X153400000Y-120100000D03*
X135400000Y-95900000D03*
X155400000Y-120100000D03*
X136400000Y-95600000D03*
X136530000Y-116770000D03*
X134600000Y-101000000D03*
X137900000Y-96000000D03*
X157200000Y-120000000D03*
X136590000Y-118980000D03*
D17*
X152300000Y-103000000D02*
X152400000Y-102900000D01*
X152200000Y-103000000D02*
X152300000Y-103000000D01*
X152399990Y-99000010D02*
X152700000Y-98700000D01*
X152399990Y-102899990D02*
X152399990Y-99000010D01*
X152400000Y-102900000D02*
X152399990Y-102899990D01*
X150419999Y-98619999D02*
X150419999Y-98619999D01*
X139088023Y-109600021D02*
X136000000Y-106511998D01*
X136000000Y-106511998D02*
X136000000Y-104400000D01*
X149383981Y-109600021D02*
X139088023Y-109600021D01*
X151800001Y-107184001D02*
X149383981Y-109600021D01*
X151800001Y-103488003D02*
X151800001Y-107184001D01*
X150419999Y-102108001D02*
X151800001Y-103488003D01*
X150419999Y-98619999D02*
X150419999Y-102108001D01*
X151145000Y-87495000D02*
X150595962Y-86945962D01*
D18*
X148317500Y-97417500D02*
X148317500Y-99637500D01*
X147600000Y-96700000D02*
X148317500Y-97417500D01*
X143660000Y-119350000D02*
X143790000Y-119480000D01*
X134430000Y-110120000D02*
X134720000Y-110410000D01*
X134720000Y-110410000D02*
X143660000Y-119350000D01*
X134430000Y-110120000D02*
X134430000Y-108870000D01*
X134430000Y-108870000D02*
X134430000Y-108870000D01*
X141129999Y-88799706D02*
X141230000Y-88699705D01*
X138039706Y-88799706D02*
X141129999Y-88799706D01*
X135360000Y-86120000D02*
X138039706Y-88799706D01*
D17*
X147600000Y-81500000D02*
X148230000Y-82130000D01*
X129704186Y-90808598D02*
X129704186Y-87195814D01*
X148230000Y-82130000D02*
X148230000Y-86300295D01*
X128912784Y-91600000D02*
X129704186Y-90808598D01*
X135400000Y-81500000D02*
X147600000Y-81500000D01*
X128900000Y-91600000D02*
X128912784Y-91600000D01*
X129704186Y-87195814D02*
X135400000Y-81500000D01*
X128900000Y-93600000D02*
X128900000Y-91600000D01*
X130200000Y-94900000D02*
X128900000Y-93600000D01*
X143669405Y-88100000D02*
X141669405Y-90100000D01*
X139500000Y-90100000D02*
X138390000Y-91210000D01*
X141669405Y-90100000D02*
X139500000Y-90100000D01*
X143818443Y-87950962D02*
X141669405Y-90100000D01*
X148950962Y-87950962D02*
X143818443Y-87950962D01*
X149500000Y-88500000D02*
X148950962Y-87950962D01*
D18*
X158097942Y-82768111D02*
X158097942Y-82768111D01*
D17*
X143352184Y-85647816D02*
X142500000Y-86500000D01*
X143352184Y-82768111D02*
X143352184Y-85647816D01*
X162713044Y-90738798D02*
X162713044Y-87213044D01*
X161837359Y-91614483D02*
X162713044Y-90738798D01*
X161837359Y-93235543D02*
X161837359Y-91614483D01*
X160161547Y-94911355D02*
X161837359Y-93235543D01*
X158268111Y-82768111D02*
X158097942Y-82768111D01*
X162713044Y-87213044D02*
X158268111Y-82768111D01*
D19*
X129425000Y-114675000D02*
X129425000Y-119855000D01*
X129425000Y-119855000D02*
X128545000Y-120735000D01*
X128545000Y-120735000D02*
X128520000Y-120760000D01*
D17*
X139500000Y-98300000D02*
X139500000Y-98300000D01*
X139100010Y-97900010D02*
X139500000Y-98300000D01*
X139100010Y-91965688D02*
X139100010Y-97900010D01*
X140165678Y-90900020D02*
X139100010Y-91965688D01*
X142550679Y-90900020D02*
X140165678Y-90900020D01*
X142550699Y-90900000D02*
X142550679Y-90900020D01*
X142873002Y-90900000D02*
X142550699Y-90900000D01*
X144780502Y-88992500D02*
X142873002Y-90900000D01*
X144780502Y-88992500D02*
X146492500Y-88992500D01*
X146492500Y-88992500D02*
X146492500Y-88992500D01*
X140400000Y-98600000D02*
X140400000Y-98600000D01*
X140400000Y-98311998D02*
X140400000Y-98600000D01*
X139500020Y-97412018D02*
X140400000Y-98311998D01*
X140331366Y-91300030D02*
X139500020Y-92131376D01*
X143038670Y-91300030D02*
X140331366Y-91300030D01*
X143838710Y-90499990D02*
X143038670Y-91300030D01*
X158487992Y-90499990D02*
X143838710Y-90499990D01*
X139500020Y-92131376D02*
X139500020Y-97412018D01*
X160361547Y-92373545D02*
X158487992Y-90499990D01*
X160361547Y-93011355D02*
X160361547Y-92373545D01*
X132500000Y-95000000D02*
X132500000Y-95000000D01*
X132800000Y-95000000D02*
X132807500Y-95007500D01*
X132500000Y-95000000D02*
X132800000Y-95000000D01*
X131200000Y-96300000D02*
X132500000Y-95000000D01*
X129800000Y-96300000D02*
X131200000Y-96300000D01*
X127661547Y-93088645D02*
X128711548Y-94138646D01*
X129237359Y-94664457D02*
X128711548Y-94138646D01*
X129237359Y-95737359D02*
X129237359Y-94664457D01*
X129800000Y-96300000D02*
X129237359Y-95737359D01*
X132800000Y-95000000D02*
X132890000Y-95000000D01*
X132890000Y-95000000D02*
X132890000Y-95000000D01*
X132890000Y-95000000D02*
X132980000Y-95000000D01*
X143892500Y-88992500D02*
X142384990Y-90500010D01*
X142384990Y-90500010D02*
X139999990Y-90500010D01*
X139999990Y-90500010D02*
X138700000Y-91800000D01*
X138700000Y-98388002D02*
X138700000Y-98200000D01*
X140799498Y-100487500D02*
X140799498Y-100487500D01*
X138700000Y-91800000D02*
X138700000Y-98200000D01*
X140799498Y-100487500D02*
X138700000Y-98388002D01*
D20*
X150400000Y-133300000D02*
X150400000Y-131200000D01*
X150400000Y-131200000D02*
X150700000Y-130900000D01*
X150700000Y-130900000D02*
X150700000Y-130900000D01*
X141077500Y-132713558D02*
X141077500Y-132610000D01*
X140990000Y-132240352D02*
X140990000Y-132610000D01*
X140834638Y-132084990D02*
X140990000Y-132240352D01*
X139220000Y-131444264D02*
X139860726Y-132084990D01*
X139860726Y-132084990D02*
X140834638Y-132084990D01*
X139220000Y-131020000D02*
X139220000Y-131444264D01*
X138695000Y-135105000D02*
X138695000Y-135505000D01*
X140990000Y-132610000D02*
X140990000Y-132810000D01*
X140990000Y-132810000D02*
X138695000Y-135105000D01*
X138695000Y-136690000D02*
X138695000Y-135505000D01*
X153030000Y-133070000D02*
X154050000Y-134090000D01*
X153030000Y-132630000D02*
X153030000Y-133070000D01*
X138540000Y-132610000D02*
X138150000Y-133000000D01*
X138150000Y-133000000D02*
X138150000Y-133800000D01*
X138150000Y-133800000D02*
X138150000Y-133800000D01*
X138540000Y-132610000D02*
X140350000Y-132610000D01*
X152390000Y-133790000D02*
X152800000Y-134200000D01*
X152390000Y-132630000D02*
X152390000Y-133790000D01*
X154750000Y-136150000D02*
X152800000Y-134200000D01*
X154750000Y-136690000D02*
X154750000Y-136150000D01*
X152600000Y-130900000D02*
X152600000Y-130900000D01*
X152034315Y-130900000D02*
X151209980Y-131724335D01*
X152600000Y-130900000D02*
X152034315Y-130900000D01*
X140250000Y-131200000D02*
X140250000Y-131200000D01*
X151810000Y-136690000D02*
X151736412Y-136690000D01*
X151209980Y-131724335D02*
X151209980Y-135736790D01*
X151750000Y-136276810D02*
X151750000Y-136670000D01*
X151209980Y-135736790D02*
X151750000Y-136276810D01*
X140695000Y-135118590D02*
X140695000Y-136690000D01*
X141720010Y-134093580D02*
X140695000Y-135118590D01*
X141720010Y-132245746D02*
X141720010Y-134093580D01*
X140674264Y-131200000D02*
X141720010Y-132245746D01*
X140250000Y-131200000D02*
X140674264Y-131200000D01*
X142450000Y-132200000D02*
X141450000Y-131200000D01*
X141450000Y-131200000D02*
X141450000Y-131000000D01*
X141450000Y-131000000D02*
X141450000Y-131000000D01*
X142695000Y-136340000D02*
X142695000Y-136690000D01*
X143375001Y-135659999D02*
X142695000Y-136340000D01*
X143375001Y-133125001D02*
X143375001Y-135659999D01*
X142450000Y-132200000D02*
X143375001Y-133125001D01*
X154600000Y-131200000D02*
X154600000Y-131200000D01*
X150750000Y-136690000D02*
X150690000Y-136690000D01*
X149774999Y-130899999D02*
X149774999Y-135364999D01*
X150399999Y-130274999D02*
X149774999Y-130899999D01*
X153674999Y-130274999D02*
X150399999Y-130274999D01*
X154600000Y-131200000D02*
X153674999Y-130274999D01*
X150750000Y-136340000D02*
X150750000Y-136690000D01*
X149774999Y-135364999D02*
X150750000Y-136340000D01*
X151659990Y-132353952D02*
X151908952Y-132104990D01*
X152750000Y-135223002D02*
X151659990Y-134132992D01*
X151659990Y-134132992D02*
X151659990Y-132353952D01*
X152750000Y-136690000D02*
X152750000Y-135223002D01*
X151908952Y-132104990D02*
X154004990Y-132104990D01*
X142750000Y-133700000D02*
X142750000Y-133600000D01*
X142750000Y-133600000D02*
X142750000Y-133600000D01*
X154004990Y-132104990D02*
X154004990Y-132104990D01*
D17*
X142750000Y-135180000D02*
X141700000Y-136230000D01*
X142750000Y-133600000D02*
X142750000Y-135180000D01*
X141700000Y-136230000D02*
X141700000Y-136710000D01*
X141700000Y-136710000D02*
X141710000Y-136710000D01*
X141710000Y-136710000D02*
X141725000Y-136725000D01*
X141710000Y-136710000D02*
X141690000Y-136710000D01*
X143800000Y-95000000D02*
X143800000Y-95000000D01*
X143899999Y-106599999D02*
X144700000Y-107400000D01*
X144100001Y-101988001D02*
X143899999Y-102188003D01*
X143899999Y-102188003D02*
X143899999Y-106599999D01*
X144100001Y-95300001D02*
X144100001Y-101988001D01*
X143800000Y-95000000D02*
X144100001Y-95300001D01*
X143100001Y-107870001D02*
X143550000Y-108320000D01*
X143100001Y-105579999D02*
X143100001Y-107870001D01*
X143550000Y-108320000D02*
X145220000Y-108320000D01*
X141899999Y-104389999D02*
X143089999Y-105579999D01*
X141899999Y-101511999D02*
X141899999Y-104389999D01*
X142900000Y-100511998D02*
X141899999Y-101511999D01*
X145220000Y-108320000D02*
X145625000Y-107915000D01*
X143089999Y-105579999D02*
X143100001Y-105579999D01*
X142900000Y-94200000D02*
X142900000Y-100511998D01*
X146000000Y-94400000D02*
X146000000Y-94400000D01*
X146000000Y-99300000D02*
X146800010Y-100100010D01*
X146000000Y-94400000D02*
X146000000Y-99300000D01*
X146800010Y-100100010D02*
X146800010Y-105999990D01*
X146800010Y-105999990D02*
X146300000Y-106500000D01*
X146300000Y-106500000D02*
X146300000Y-106500000D01*
X145200000Y-95100000D02*
X145200000Y-95100000D01*
X145200000Y-99065698D02*
X145200000Y-98700000D01*
X146400000Y-100265698D02*
X145200000Y-99065698D01*
X145200000Y-95100000D02*
X145200000Y-98700000D01*
X145699999Y-106788001D02*
X146211998Y-107300000D01*
X145699999Y-106211999D02*
X145699999Y-106788001D01*
X146400000Y-105511998D02*
X145699999Y-106211999D01*
X146400000Y-100265698D02*
X146400000Y-105511998D01*
X146211998Y-107300000D02*
X147100000Y-107300000D01*
X147100000Y-107300000D02*
X147100000Y-107300000D01*
X144700000Y-91400000D02*
X144700000Y-91400000D01*
X150600000Y-90900000D02*
X145200000Y-90900000D01*
X155800060Y-96100060D02*
X150600000Y-90900000D01*
X157100000Y-101800000D02*
X155800060Y-100500060D01*
X145200000Y-90900000D02*
X144700000Y-91400000D01*
X155800060Y-100500060D02*
X155800060Y-96100060D01*
X159957500Y-113457500D02*
X157100000Y-110600000D01*
X161407500Y-113457500D02*
X159957500Y-113457500D01*
X157100000Y-110600000D02*
X157100000Y-101800000D01*
X150000000Y-92000000D02*
X150000000Y-92000000D01*
X156300000Y-104100000D02*
X156300000Y-104100000D01*
X150988002Y-92000000D02*
X150000000Y-92000000D01*
X155400050Y-96412048D02*
X150988002Y-92000000D01*
X155400050Y-101468653D02*
X155400050Y-96412048D01*
X156300000Y-102368602D02*
X155400050Y-101468653D01*
X156300000Y-104100000D02*
X156300000Y-102368602D01*
X149160000Y-122360000D02*
X149398008Y-122598008D01*
X152088001Y-95999999D02*
X154600030Y-98512028D01*
X150300001Y-95999999D02*
X152088001Y-95999999D01*
X149850000Y-96450000D02*
X150300001Y-95999999D01*
X154600030Y-101800030D02*
X154750000Y-101950000D01*
X154600030Y-98512028D02*
X154600030Y-101800030D01*
X154700000Y-101900000D02*
X154750000Y-101950000D01*
X155200001Y-102400001D02*
X154750000Y-101950000D01*
X155200001Y-110099999D02*
X155200001Y-102400001D01*
X155199990Y-110100010D02*
X155200001Y-110099999D01*
X155199990Y-116099990D02*
X155199990Y-110100010D01*
X158000001Y-120388001D02*
X157531203Y-120856799D01*
X158000001Y-118900001D02*
X158000001Y-120388001D01*
X155199990Y-116099990D02*
X158000001Y-118900001D01*
X150063201Y-120856799D02*
X148920000Y-122000000D01*
X157531203Y-120856799D02*
X150063201Y-120856799D01*
X147530001Y-123150001D02*
X146380000Y-122000000D01*
X159999999Y-121600001D02*
X158449999Y-123150001D01*
X155600000Y-115500000D02*
X159999999Y-119899999D01*
X155600000Y-114824243D02*
X155600000Y-115500000D01*
X155600011Y-114824232D02*
X155600000Y-114824243D01*
X155600011Y-102234312D02*
X155600011Y-114824232D01*
X155000040Y-101634342D02*
X155600011Y-102234312D01*
X155000040Y-98346339D02*
X155000040Y-101634342D01*
X158449999Y-123150001D02*
X147530001Y-123150001D01*
X152053701Y-95400000D02*
X155000040Y-98346339D01*
X159999999Y-119899999D02*
X159999999Y-121600001D01*
X149737668Y-95400000D02*
X152053701Y-95400000D01*
X140100000Y-112000000D02*
X152300000Y-112000000D01*
X139100000Y-111000000D02*
X140100000Y-112000000D01*
X154600000Y-109700000D02*
X154250000Y-110050000D01*
X154600000Y-102700000D02*
X154600000Y-109700000D01*
X152300000Y-112000000D02*
X154250000Y-110050000D01*
X152053701Y-96600000D02*
X151800000Y-96600000D01*
X154200020Y-98746319D02*
X152053701Y-96600000D01*
X154200020Y-102300020D02*
X154200020Y-98746319D01*
X154600000Y-102700000D02*
X154200020Y-102300020D01*
X138300000Y-103700000D02*
X138300000Y-106510000D01*
X138300000Y-106510000D02*
X138870000Y-107080000D01*
X138870000Y-107080000D02*
X138870000Y-107080000D01*
X151800000Y-97700000D02*
X151800000Y-97700000D01*
X153900000Y-109100000D02*
X153900000Y-107200000D01*
X151400010Y-111599990D02*
X153900000Y-109100000D01*
X139388001Y-110399999D02*
X140587992Y-111599990D01*
X140587992Y-111599990D02*
X151400010Y-111599990D01*
X138999999Y-110399999D02*
X139388001Y-110399999D01*
X138150000Y-109550000D02*
X138999999Y-110399999D01*
X153800010Y-98912008D02*
X153800010Y-106699990D01*
X152588002Y-97700000D02*
X153800010Y-98912008D01*
X151800000Y-97700000D02*
X152588002Y-97700000D01*
X153900000Y-106799980D02*
X153900000Y-107200000D01*
X153800010Y-106699990D02*
X153900000Y-106799980D01*
X147100000Y-98100000D02*
X147100000Y-98100000D01*
X147500000Y-106811998D02*
X147700001Y-107011999D01*
X139700011Y-109200011D02*
X137400000Y-106900000D01*
X146953690Y-109200011D02*
X139700011Y-109200011D01*
X147700001Y-108453700D02*
X146953690Y-109200011D01*
X147449999Y-106761997D02*
X147700001Y-107011999D01*
X147449999Y-105250001D02*
X147449999Y-106761997D01*
X147700001Y-107011999D02*
X147700001Y-108453700D01*
X147775000Y-104925000D02*
X147449999Y-105250001D01*
X147700000Y-105000000D02*
X147449999Y-105250001D01*
X147700000Y-98700000D02*
X147700000Y-105000000D01*
X147100000Y-98100000D02*
X147700000Y-98700000D01*
X145700001Y-104899999D02*
X145700001Y-101000001D01*
X145700001Y-101000001D02*
X145600000Y-100900000D01*
X145010000Y-105590000D02*
X145010000Y-106550000D01*
X145700001Y-104899999D02*
X145010000Y-105590000D01*
X144900000Y-101700000D02*
X144900000Y-101700000D01*
X144900000Y-101700000D02*
X144899999Y-103700001D01*
X144899999Y-103700001D02*
X144899999Y-103700001D01*
X144900000Y-101700000D02*
X144900000Y-101500000D01*
X144900000Y-101500000D02*
X144790000Y-101390000D01*
X144790000Y-101390000D02*
X144790000Y-101390000D01*
X143100001Y-102099999D02*
X143500000Y-101700000D01*
X143500000Y-101700000D02*
X143500000Y-101700000D01*
X143100001Y-103779999D02*
X142730000Y-104150000D01*
X143100001Y-102099999D02*
X143100001Y-103779999D01*
X142500000Y-101800000D02*
X142600000Y-101700000D01*
X142600000Y-101700000D02*
X142600000Y-101700000D01*
X142500000Y-103080000D02*
X142500000Y-101800000D01*
X134900000Y-100411998D02*
X135200001Y-100711999D01*
X134900000Y-100400000D02*
X134900000Y-100411998D01*
X134700000Y-100200000D02*
X134900000Y-100400000D01*
X134700001Y-94999999D02*
X134700000Y-100200000D01*
X135000000Y-94700000D02*
X134700001Y-94999999D01*
X150900000Y-120081062D02*
X151075736Y-120256798D01*
X135079970Y-109727067D02*
X145391061Y-120038156D01*
X145391061Y-120081061D02*
X150900000Y-120081062D01*
X145391061Y-120038156D02*
X145391061Y-120081061D01*
X135079970Y-107854761D02*
X135079970Y-109727067D01*
X151075736Y-120256798D02*
X151500000Y-120256798D01*
X134109990Y-106884782D02*
X135079970Y-107854761D01*
X134109990Y-102378011D02*
X134109990Y-106884782D01*
X135200001Y-101288001D02*
X134109990Y-102378011D01*
X135200001Y-100800001D02*
X135200001Y-101288001D01*
X135400000Y-95900000D02*
X135400000Y-100300000D01*
X135400000Y-100300000D02*
X135600000Y-100500000D01*
X135600011Y-100546311D02*
X135600011Y-101453690D01*
X135600000Y-100546300D02*
X135600011Y-100546311D01*
X135600000Y-100500000D02*
X135600000Y-100546300D01*
X135226850Y-101826850D02*
X135600011Y-101453690D01*
X135100010Y-101953690D02*
X135226850Y-101826850D01*
X135226850Y-101826851D02*
X135226850Y-101826850D01*
X134510000Y-102543700D02*
X135226850Y-101826851D01*
X145575400Y-119656797D02*
X144694302Y-118775699D01*
X152956797Y-119656797D02*
X145575400Y-119656797D01*
X153400000Y-120100000D02*
X152956797Y-119656797D01*
X135479980Y-109561378D02*
X144799999Y-118881397D01*
X135479980Y-107689073D02*
X135479980Y-109561378D01*
X134510000Y-106610000D02*
X134510000Y-106719093D01*
X134510000Y-106719093D02*
X135479980Y-107689073D01*
X134510000Y-106610000D02*
X134510000Y-102543700D01*
X136100000Y-95900000D02*
X136300000Y-95700000D01*
X136300000Y-95700000D02*
X136400000Y-95600000D01*
X136100000Y-101519399D02*
X136100000Y-95900000D01*
X134934320Y-102685079D02*
X135184700Y-102434700D01*
X135184700Y-102434700D02*
X136100000Y-101519399D01*
X145773213Y-119256787D02*
X154556787Y-119256787D01*
X154556787Y-119256787D02*
X155400000Y-120100000D01*
X145773211Y-119256785D02*
X145773213Y-119256787D01*
X135879990Y-109395689D02*
X145741087Y-119256785D01*
X135879990Y-107523384D02*
X135879990Y-109395689D01*
X134999989Y-106643384D02*
X135879990Y-107523384D01*
X145741087Y-119256785D02*
X145773211Y-119256785D01*
X134999989Y-102619411D02*
X134999989Y-106643384D01*
X135184700Y-102434700D02*
X134999989Y-102619411D01*
X134600000Y-101000000D02*
X134600000Y-101000000D01*
X133400000Y-102200000D02*
X134600000Y-101000000D01*
X133200000Y-102400000D02*
X133400000Y-102200000D01*
X133200000Y-110000000D02*
X133200000Y-102400000D01*
X136530000Y-113330000D02*
X133200000Y-110000000D01*
X136530000Y-116770000D02*
X136530000Y-113330000D01*
X136500010Y-101685086D02*
X136292548Y-101892548D01*
X136500010Y-96599990D02*
X136500010Y-101685086D01*
X137100000Y-96000000D02*
X136500010Y-96599990D01*
X137900000Y-96000000D02*
X137100000Y-96000000D01*
X136292548Y-101892548D02*
X136500010Y-101685088D01*
X135900030Y-102285067D02*
X135399999Y-102785098D01*
X136292548Y-101892548D02*
X135900030Y-102285067D01*
X135399999Y-106477695D02*
X135399999Y-105340001D01*
X136280000Y-107357696D02*
X135399999Y-106477695D01*
X136280000Y-109230000D02*
X136280000Y-107357696D01*
X135399999Y-102785098D02*
X135399999Y-105340001D01*
X144985000Y-117935000D02*
X136280000Y-109230000D01*
X145200007Y-118150007D02*
X144985000Y-117935000D01*
X145722494Y-118672494D02*
X144985000Y-117935000D01*
X145906777Y-118856777D02*
X145722494Y-118672494D01*
X156056777Y-118856777D02*
X145906777Y-118856777D01*
X157200000Y-120000000D02*
X156056777Y-118856777D01*
X127944999Y-119355001D02*
X128450000Y-118850000D01*
X127944999Y-121023001D02*
X127944999Y-119355001D01*
X128256999Y-121335001D02*
X127944999Y-121023001D01*
X134665001Y-121335001D02*
X128256999Y-121335001D01*
X136590000Y-119410002D02*
X134665001Y-121335001D01*
X136590000Y-118980000D02*
X136590000Y-119410002D01*
X147780000Y-82316396D02*
X147780001Y-85428473D01*
X147709142Y-85442568D01*
X147508955Y-85525488D01*
X147328791Y-85645870D01*
X147175575Y-85799086D01*
X147055193Y-85979250D01*
X146972273Y-86179437D01*
X146930000Y-86391954D01*
X146930000Y-86608636D01*
X146972273Y-86821153D01*
X147055193Y-87021340D01*
X147175575Y-87201504D01*
X147328791Y-87354720D01*
X147508955Y-87475102D01*
X147571387Y-87500962D01*
X143840537Y-87500962D01*
X143818443Y-87498786D01*
X143796349Y-87500962D01*
X143796338Y-87500962D01*
X143730228Y-87507473D01*
X143646800Y-87532781D01*
X143645402Y-87533205D01*
X143567226Y-87574991D01*
X143515875Y-87617134D01*
X143515871Y-87617138D01*
X143498706Y-87631225D01*
X143484619Y-87648390D01*
X143366837Y-87766172D01*
X142330000Y-88803010D01*
X142330000Y-88591364D01*
X142287727Y-88378847D01*
X142204807Y-88178660D01*
X142084425Y-87998496D01*
X141931209Y-87845280D01*
X141751045Y-87724898D01*
X141550858Y-87641978D01*
X141338341Y-87599705D01*
X141121659Y-87599705D01*
X140909142Y-87641978D01*
X140730000Y-87716181D01*
X140730000Y-87591364D01*
X140687727Y-87378847D01*
X140604807Y-87178660D01*
X140484425Y-86998496D01*
X140331209Y-86845280D01*
X140151045Y-86724898D01*
X139950858Y-86641978D01*
X139738341Y-86599705D01*
X139521659Y-86599705D01*
X139309142Y-86641978D01*
X139108955Y-86724898D01*
X138928791Y-86845280D01*
X138775575Y-86998496D01*
X138655193Y-87178660D01*
X138572273Y-87378847D01*
X138530000Y-87591364D01*
X138530000Y-87808046D01*
X138572273Y-88020563D01*
X138655193Y-88220750D01*
X138707950Y-88299706D01*
X138246813Y-88299706D01*
X136010000Y-86062895D01*
X136010000Y-86055981D01*
X135985021Y-85930402D01*
X135936022Y-85812110D01*
X135864888Y-85705649D01*
X135774351Y-85615112D01*
X135667890Y-85543978D01*
X135549598Y-85494979D01*
X135424019Y-85470000D01*
X135295981Y-85470000D01*
X135170402Y-85494979D01*
X135052110Y-85543978D01*
X134945649Y-85615112D01*
X134855112Y-85705649D01*
X134783978Y-85812110D01*
X134734979Y-85930402D01*
X134710000Y-86055981D01*
X134710000Y-86184019D01*
X134734979Y-86309598D01*
X134783978Y-86427890D01*
X134855112Y-86534351D01*
X134945649Y-86624888D01*
X135052110Y-86696022D01*
X135170402Y-86745021D01*
X135295981Y-86770000D01*
X135302895Y-86770000D01*
X137668786Y-89135893D01*
X137684442Y-89154970D01*
X137760577Y-89217452D01*
X137847439Y-89263881D01*
X137941689Y-89292471D01*
X138039706Y-89302125D01*
X138064266Y-89299706D01*
X140307950Y-89299706D01*
X140375575Y-89400914D01*
X140528791Y-89554130D01*
X140672270Y-89650000D01*
X139522094Y-89650000D01*
X139499999Y-89647824D01*
X139477905Y-89650000D01*
X139477895Y-89650000D01*
X139411785Y-89656511D01*
X139335322Y-89679706D01*
X139326959Y-89682243D01*
X139248783Y-89724029D01*
X139197432Y-89766172D01*
X139197428Y-89766176D01*
X139180263Y-89780263D01*
X139166176Y-89797428D01*
X138403605Y-90560000D01*
X138325981Y-90560000D01*
X138200402Y-90584979D01*
X138082110Y-90633978D01*
X137975649Y-90705112D01*
X137885112Y-90795649D01*
X137813978Y-90902110D01*
X137764979Y-91020402D01*
X137740000Y-91145981D01*
X137740000Y-91274019D01*
X137764979Y-91399598D01*
X137813978Y-91517890D01*
X137885112Y-91624351D01*
X137975649Y-91714888D01*
X138082110Y-91786022D01*
X138200402Y-91835021D01*
X138250000Y-91844887D01*
X138250001Y-95452115D01*
X138207890Y-95423978D01*
X138089598Y-95374979D01*
X137964019Y-95350000D01*
X137835981Y-95350000D01*
X137710402Y-95374979D01*
X137592110Y-95423978D01*
X137485649Y-95495112D01*
X137430761Y-95550000D01*
X137122094Y-95550000D01*
X137100000Y-95547824D01*
X137077905Y-95550000D01*
X137077895Y-95550000D01*
X137050000Y-95552747D01*
X137050000Y-95535981D01*
X137025021Y-95410402D01*
X136976022Y-95292110D01*
X136904888Y-95185649D01*
X136814351Y-95095112D01*
X136707890Y-95023978D01*
X136589598Y-94974979D01*
X136464019Y-94950000D01*
X136335981Y-94950000D01*
X136210402Y-94974979D01*
X136092110Y-95023978D01*
X135985649Y-95095112D01*
X135895112Y-95185649D01*
X135823978Y-95292110D01*
X135788474Y-95377822D01*
X135707890Y-95323978D01*
X135589598Y-95274979D01*
X135464019Y-95250000D01*
X135346835Y-95250000D01*
X135414351Y-95204888D01*
X135504888Y-95114351D01*
X135576022Y-95007890D01*
X135625021Y-94889598D01*
X135650000Y-94764019D01*
X135650000Y-94635981D01*
X135625021Y-94510402D01*
X135576022Y-94392110D01*
X135504888Y-94285649D01*
X135414351Y-94195112D01*
X135307890Y-94123978D01*
X135189598Y-94074979D01*
X135064019Y-94050000D01*
X134935981Y-94050000D01*
X134810402Y-94074979D01*
X134692110Y-94123978D01*
X134585649Y-94195112D01*
X134495112Y-94285649D01*
X134423978Y-94392110D01*
X134374979Y-94510402D01*
X134350000Y-94635981D01*
X134350000Y-94717139D01*
X134324030Y-94748783D01*
X134282244Y-94826959D01*
X134256513Y-94911784D01*
X134247825Y-94999999D01*
X134250002Y-95022103D01*
X134250001Y-97873099D01*
X134207255Y-97844537D01*
X134031576Y-97771769D01*
X133845077Y-97734672D01*
X133654923Y-97734672D01*
X133468424Y-97771769D01*
X133292745Y-97844537D01*
X133134639Y-97950181D01*
X133000180Y-98084640D01*
X132894536Y-98242746D01*
X132821768Y-98418425D01*
X132784671Y-98604924D01*
X132784671Y-98795078D01*
X132821768Y-98981577D01*
X132894536Y-99157256D01*
X133000180Y-99315362D01*
X133134639Y-99449821D01*
X133292745Y-99555465D01*
X133468424Y-99628233D01*
X133654923Y-99665330D01*
X133845077Y-99665330D01*
X134031576Y-99628233D01*
X134207255Y-99555465D01*
X134250000Y-99526903D01*
X134250000Y-100177905D01*
X134247824Y-100200000D01*
X134250000Y-100222094D01*
X134250000Y-100222104D01*
X134256511Y-100288214D01*
X134268265Y-100326960D01*
X134282243Y-100373040D01*
X134306323Y-100418091D01*
X134292110Y-100423978D01*
X134185649Y-100495112D01*
X134095112Y-100585649D01*
X134023978Y-100692110D01*
X133974979Y-100810402D01*
X133950000Y-100935981D01*
X133950000Y-101013604D01*
X133097433Y-101866172D01*
X132897429Y-102066176D01*
X132880264Y-102080263D01*
X132866177Y-102097428D01*
X132866172Y-102097433D01*
X132824029Y-102148784D01*
X132782243Y-102226960D01*
X132764993Y-102283828D01*
X132756512Y-102311785D01*
X132751000Y-102367757D01*
X132747824Y-102400000D01*
X132750001Y-102422104D01*
X132750000Y-109977906D01*
X132747824Y-110000000D01*
X132750000Y-110022094D01*
X132750000Y-110022104D01*
X132756511Y-110088214D01*
X132774885Y-110148783D01*
X132782243Y-110173040D01*
X132824029Y-110251216D01*
X132865063Y-110301216D01*
X132880263Y-110319737D01*
X132897434Y-110333829D01*
X136080001Y-113516397D01*
X136080000Y-116300761D01*
X136025112Y-116355649D01*
X135953978Y-116462110D01*
X135904979Y-116580402D01*
X135880000Y-116705981D01*
X135880000Y-116834019D01*
X135904979Y-116959598D01*
X135953978Y-117077890D01*
X136025112Y-117184351D01*
X136115649Y-117274888D01*
X136222110Y-117346022D01*
X136340402Y-117395021D01*
X136465981Y-117420000D01*
X136594019Y-117420000D01*
X136719598Y-117395021D01*
X136837890Y-117346022D01*
X136944351Y-117274888D01*
X137034888Y-117184351D01*
X137106022Y-117077890D01*
X137155021Y-116959598D01*
X137180000Y-116834019D01*
X137180000Y-116705981D01*
X137155021Y-116580402D01*
X137106022Y-116462110D01*
X137034888Y-116355649D01*
X136980000Y-116300761D01*
X136980000Y-113377106D01*
X143010000Y-119407107D01*
X143010000Y-119414019D01*
X143034979Y-119539598D01*
X143083978Y-119657890D01*
X143155112Y-119764351D01*
X143245649Y-119854888D01*
X143352110Y-119926022D01*
X143470402Y-119975021D01*
X143595981Y-120000000D01*
X143724019Y-120000000D01*
X143834381Y-119978048D01*
X143888017Y-119972765D01*
X143982268Y-119944174D01*
X144069129Y-119897746D01*
X144145264Y-119835264D01*
X144207746Y-119759129D01*
X144254174Y-119672268D01*
X144282765Y-119578017D01*
X144283820Y-119567311D01*
X144976396Y-120259887D01*
X145015090Y-120332277D01*
X145071324Y-120400798D01*
X145139846Y-120457032D01*
X145218021Y-120498818D01*
X145302847Y-120524550D01*
X145391061Y-120533238D01*
X145413176Y-120531060D01*
X149750776Y-120531062D01*
X149743464Y-120537062D01*
X149729377Y-120554227D01*
X149388440Y-120895164D01*
X149270027Y-120846116D01*
X149038190Y-120800000D01*
X148801810Y-120800000D01*
X148569973Y-120846116D01*
X148351587Y-120936574D01*
X148155045Y-121067899D01*
X147987899Y-121235045D01*
X147856574Y-121431587D01*
X147766116Y-121649973D01*
X147720000Y-121881810D01*
X147720000Y-122118190D01*
X147766116Y-122350027D01*
X147856574Y-122568413D01*
X147944498Y-122700001D01*
X147716397Y-122700001D01*
X147484836Y-122468440D01*
X147533884Y-122350027D01*
X147580000Y-122118190D01*
X147580000Y-121881810D01*
X147533884Y-121649973D01*
X147443426Y-121431587D01*
X147312101Y-121235045D01*
X147144955Y-121067899D01*
X146948413Y-120936574D01*
X146730027Y-120846116D01*
X146498190Y-120800000D01*
X146261810Y-120800000D01*
X146029973Y-120846116D01*
X145811587Y-120936574D01*
X145615045Y-121067899D01*
X145447899Y-121235045D01*
X145316574Y-121431587D01*
X145226116Y-121649973D01*
X145180000Y-121881810D01*
X145180000Y-122118190D01*
X145226116Y-122350027D01*
X145316574Y-122568413D01*
X145447899Y-122764955D01*
X145615045Y-122932101D01*
X145811587Y-123063426D01*
X146029973Y-123153884D01*
X146261810Y-123200000D01*
X146498190Y-123200000D01*
X146730027Y-123153884D01*
X146848440Y-123104836D01*
X147043604Y-123300000D01*
X142269647Y-123300000D01*
X142250000Y-123298065D01*
X142230354Y-123300000D01*
X142230353Y-123300000D01*
X142171586Y-123305788D01*
X142096186Y-123328660D01*
X142087184Y-123333472D01*
X139504755Y-123341250D01*
X138733670Y-122005692D01*
X138718172Y-121976697D01*
X138701477Y-121956355D01*
X138686165Y-121934986D01*
X138676550Y-121925981D01*
X138668186Y-121915789D01*
X138647845Y-121899096D01*
X138628657Y-121881124D01*
X138617470Y-121874168D01*
X138607278Y-121865803D01*
X138584070Y-121853398D01*
X138561746Y-121839516D01*
X138549419Y-121834876D01*
X138537789Y-121828660D01*
X138512606Y-121821021D01*
X138488003Y-121811761D01*
X138475006Y-121809615D01*
X138462389Y-121805788D01*
X138436204Y-121803209D01*
X138410262Y-121798926D01*
X138377455Y-121800000D01*
X133122559Y-121800000D01*
X133089738Y-121798926D01*
X133063794Y-121803209D01*
X133037612Y-121805788D01*
X133024997Y-121809615D01*
X133011997Y-121811761D01*
X132987390Y-121821022D01*
X132962212Y-121828660D01*
X132950584Y-121834875D01*
X132938254Y-121839516D01*
X132915920Y-121853404D01*
X132892723Y-121865803D01*
X132882538Y-121874162D01*
X132871343Y-121881123D01*
X132852142Y-121899107D01*
X132831815Y-121915789D01*
X132823455Y-121925976D01*
X132813835Y-121934986D01*
X132798513Y-121956367D01*
X132781829Y-121976697D01*
X132766350Y-122005655D01*
X132028687Y-123283329D01*
X131179294Y-123223188D01*
X130129944Y-122997269D01*
X129122897Y-122625749D01*
X128178257Y-122116048D01*
X127314849Y-121478326D01*
X126549909Y-120725309D01*
X125898699Y-119872019D01*
X125609156Y-119355001D01*
X127492823Y-119355001D01*
X127495000Y-119377105D01*
X127494999Y-121000906D01*
X127492823Y-121023001D01*
X127494999Y-121045095D01*
X127494999Y-121045105D01*
X127501510Y-121111215D01*
X127521676Y-121177693D01*
X127527242Y-121196041D01*
X127569028Y-121274217D01*
X127600236Y-121312244D01*
X127625262Y-121342738D01*
X127642432Y-121356829D01*
X127923174Y-121637572D01*
X127937262Y-121654738D01*
X127954427Y-121668825D01*
X127954431Y-121668829D01*
X128005782Y-121710972D01*
X128076428Y-121748733D01*
X128083958Y-121752758D01*
X128168784Y-121778490D01*
X128234894Y-121785001D01*
X128234905Y-121785001D01*
X128256999Y-121787177D01*
X128279093Y-121785001D01*
X134642907Y-121785001D01*
X134665001Y-121787177D01*
X134687095Y-121785001D01*
X134687106Y-121785001D01*
X134753216Y-121778490D01*
X134838042Y-121752758D01*
X134916217Y-121710972D01*
X134984738Y-121654738D01*
X134998830Y-121637567D01*
X136165190Y-120471207D01*
X136540000Y-120471207D01*
X136540000Y-120628793D01*
X136570743Y-120783351D01*
X136631049Y-120928942D01*
X136718599Y-121059970D01*
X136830030Y-121171401D01*
X136961058Y-121258951D01*
X137106649Y-121319257D01*
X137261207Y-121350000D01*
X137418793Y-121350000D01*
X137573351Y-121319257D01*
X137718942Y-121258951D01*
X137849970Y-121171401D01*
X137871371Y-121150000D01*
X140098307Y-121150000D01*
X140098307Y-122850000D01*
X140105065Y-122918612D01*
X140125078Y-122984587D01*
X140157578Y-123045390D01*
X140201315Y-123098685D01*
X140254610Y-123142422D01*
X140315413Y-123174922D01*
X140381388Y-123194935D01*
X140450000Y-123201693D01*
X142150000Y-123201693D01*
X142218612Y-123194935D01*
X142284587Y-123174922D01*
X142345390Y-123142422D01*
X142398685Y-123098685D01*
X142442422Y-123045390D01*
X142474922Y-122984587D01*
X142494935Y-122918612D01*
X142501693Y-122850000D01*
X142501693Y-121150000D01*
X142494935Y-121081388D01*
X142474922Y-121015413D01*
X142442422Y-120954610D01*
X142398685Y-120901315D01*
X142345390Y-120857578D01*
X142284587Y-120825078D01*
X142218612Y-120805065D01*
X142150000Y-120798307D01*
X140450000Y-120798307D01*
X140381388Y-120805065D01*
X140315413Y-120825078D01*
X140254610Y-120857578D01*
X140201315Y-120901315D01*
X140157578Y-120954610D01*
X140125078Y-121015413D01*
X140105065Y-121081388D01*
X140098307Y-121150000D01*
X137871371Y-121150000D01*
X137961401Y-121059970D01*
X138048951Y-120928942D01*
X138109257Y-120783351D01*
X138140000Y-120628793D01*
X138140000Y-120471207D01*
X138109257Y-120316649D01*
X138048951Y-120171058D01*
X137961401Y-120040030D01*
X137849970Y-119928599D01*
X137718942Y-119841049D01*
X137573351Y-119780743D01*
X137418793Y-119750000D01*
X137261207Y-119750000D01*
X137106649Y-119780743D01*
X136961058Y-119841049D01*
X136830030Y-119928599D01*
X136718599Y-120040030D01*
X136631049Y-120171058D01*
X136570743Y-120316649D01*
X136540000Y-120471207D01*
X136165190Y-120471207D01*
X136892572Y-119743826D01*
X136909737Y-119729739D01*
X136923824Y-119712574D01*
X136923828Y-119712570D01*
X136965971Y-119661219D01*
X137007757Y-119583043D01*
X137009282Y-119578017D01*
X137033489Y-119498217D01*
X137038128Y-119451111D01*
X137094888Y-119394351D01*
X137166022Y-119287890D01*
X137215021Y-119169598D01*
X137240000Y-119044019D01*
X137240000Y-118915981D01*
X137215021Y-118790402D01*
X137166022Y-118672110D01*
X137094888Y-118565649D01*
X137004351Y-118475112D01*
X136897890Y-118403978D01*
X136779598Y-118354979D01*
X136654019Y-118330000D01*
X136525981Y-118330000D01*
X136400402Y-118354979D01*
X136282110Y-118403978D01*
X136175649Y-118475112D01*
X136085112Y-118565649D01*
X136013978Y-118672110D01*
X135964979Y-118790402D01*
X135940000Y-118915981D01*
X135940000Y-119044019D01*
X135964979Y-119169598D01*
X136013978Y-119287890D01*
X136038707Y-119324900D01*
X135091010Y-120272597D01*
X135048951Y-120171058D01*
X134961401Y-120040030D01*
X134849970Y-119928599D01*
X134718942Y-119841049D01*
X134573351Y-119780743D01*
X134418793Y-119750000D01*
X134261207Y-119750000D01*
X134106649Y-119780743D01*
X133961058Y-119841049D01*
X133830030Y-119928599D01*
X133718599Y-120040030D01*
X133631049Y-120171058D01*
X133570743Y-120316649D01*
X133540000Y-120471207D01*
X133540000Y-120628793D01*
X133570743Y-120783351D01*
X133612848Y-120885001D01*
X129243526Y-120885001D01*
X129828419Y-120300109D01*
X129851317Y-120281317D01*
X129926296Y-120189955D01*
X129940767Y-120162882D01*
X129955112Y-120184351D01*
X130045649Y-120274888D01*
X130152110Y-120346022D01*
X130270402Y-120395021D01*
X130395981Y-120420000D01*
X130524019Y-120420000D01*
X130649598Y-120395021D01*
X130767890Y-120346022D01*
X130874351Y-120274888D01*
X130964888Y-120184351D01*
X131036022Y-120077890D01*
X131085021Y-119959598D01*
X131110000Y-119834019D01*
X131110000Y-119705981D01*
X131085021Y-119580402D01*
X131036022Y-119462110D01*
X130964888Y-119355649D01*
X130874351Y-119265112D01*
X130767890Y-119193978D01*
X130649598Y-119144979D01*
X130524019Y-119120000D01*
X130395981Y-119120000D01*
X130270402Y-119144979D01*
X130152110Y-119193978D01*
X130045649Y-119265112D01*
X130025000Y-119285761D01*
X130025000Y-115584689D01*
X130057784Y-115557784D01*
X130129503Y-115470393D01*
X130182795Y-115370691D01*
X130215612Y-115262507D01*
X130226693Y-115150000D01*
X130226693Y-114604923D01*
X132784671Y-114604923D01*
X132784671Y-114795077D01*
X132821768Y-114981576D01*
X132894536Y-115157255D01*
X133000180Y-115315361D01*
X133134639Y-115449820D01*
X133292745Y-115555464D01*
X133468424Y-115628232D01*
X133654923Y-115665329D01*
X133845077Y-115665329D01*
X134031576Y-115628232D01*
X134207255Y-115555464D01*
X134365361Y-115449820D01*
X134499820Y-115315361D01*
X134605464Y-115157255D01*
X134678232Y-114981576D01*
X134715329Y-114795077D01*
X134715329Y-114604923D01*
X134678232Y-114418424D01*
X134605464Y-114242745D01*
X134499820Y-114084639D01*
X134365361Y-113950180D01*
X134207255Y-113844536D01*
X134031576Y-113771768D01*
X133845077Y-113734671D01*
X133654923Y-113734671D01*
X133468424Y-113771768D01*
X133292745Y-113844536D01*
X133134639Y-113950180D01*
X133000180Y-114084639D01*
X132894536Y-114242745D01*
X132821768Y-114418424D01*
X132784671Y-114604923D01*
X130226693Y-114604923D01*
X130226693Y-114200000D01*
X130215612Y-114087493D01*
X130182795Y-113979309D01*
X130129503Y-113879607D01*
X130057784Y-113792216D01*
X129970393Y-113720497D01*
X129870691Y-113667205D01*
X129762507Y-113634388D01*
X129650000Y-113623307D01*
X129200000Y-113623307D01*
X129087493Y-113634388D01*
X128979309Y-113667205D01*
X128879607Y-113720497D01*
X128792216Y-113792216D01*
X128720497Y-113879607D01*
X128667205Y-113979309D01*
X128634388Y-114087493D01*
X128623307Y-114200000D01*
X128623307Y-115150000D01*
X128634388Y-115262507D01*
X128667205Y-115370691D01*
X128720497Y-115470393D01*
X128792216Y-115557784D01*
X128825000Y-115584689D01*
X128825001Y-118318819D01*
X128757890Y-118273978D01*
X128639598Y-118224979D01*
X128514019Y-118200000D01*
X128385981Y-118200000D01*
X128260402Y-118224979D01*
X128142110Y-118273978D01*
X128035649Y-118345112D01*
X127945112Y-118435649D01*
X127873978Y-118542110D01*
X127824979Y-118660402D01*
X127800000Y-118785981D01*
X127800000Y-118863605D01*
X127642428Y-119021177D01*
X127625263Y-119035264D01*
X127611176Y-119052429D01*
X127611171Y-119052434D01*
X127569028Y-119103785D01*
X127527242Y-119181961D01*
X127510558Y-119236962D01*
X127501511Y-119266786D01*
X127496337Y-119319326D01*
X127492823Y-119355001D01*
X125609156Y-119355001D01*
X125374220Y-118935492D01*
X124986930Y-117934407D01*
X124744558Y-116888746D01*
X124650853Y-115806809D01*
X124650001Y-115698386D01*
X124650001Y-112721232D01*
X124682066Y-112391053D01*
X124771936Y-112092388D01*
X124918105Y-111816870D01*
X125115003Y-111574990D01*
X125355136Y-111375960D01*
X125629353Y-111227362D01*
X125927210Y-111134857D01*
X126255926Y-111100000D01*
X132230355Y-111100000D01*
X132250001Y-111101935D01*
X132289031Y-111098091D01*
X132328415Y-111094212D01*
X132403815Y-111071340D01*
X132473304Y-111034197D01*
X132534212Y-110984211D01*
X132584198Y-110923303D01*
X132621341Y-110853814D01*
X132644213Y-110778414D01*
X132651936Y-110700000D01*
X132650001Y-110680353D01*
X132650001Y-96719648D01*
X132651936Y-96700001D01*
X132644213Y-96621587D01*
X132621341Y-96546187D01*
X132584198Y-96476698D01*
X132534212Y-96415790D01*
X132473304Y-96365804D01*
X132403815Y-96328661D01*
X132328415Y-96305789D01*
X132269648Y-96300001D01*
X132269647Y-96300001D01*
X132250001Y-96298066D01*
X132230354Y-96300001D01*
X131836394Y-96300001D01*
X132569080Y-95567316D01*
X132582110Y-95576022D01*
X132700402Y-95625021D01*
X132825981Y-95650000D01*
X132954019Y-95650000D01*
X133079598Y-95625021D01*
X133197890Y-95576022D01*
X133304351Y-95504888D01*
X133394888Y-95414351D01*
X133466022Y-95307890D01*
X133515021Y-95189598D01*
X133540000Y-95064019D01*
X133540000Y-94935981D01*
X133515021Y-94810402D01*
X133466022Y-94692110D01*
X133394888Y-94585649D01*
X133304351Y-94495112D01*
X133197890Y-94423978D01*
X133079598Y-94374979D01*
X132954019Y-94350000D01*
X132825981Y-94350000D01*
X132700402Y-94374979D01*
X132582110Y-94423978D01*
X132475649Y-94495112D01*
X132414519Y-94556242D01*
X132411785Y-94556511D01*
X132327318Y-94582134D01*
X132326959Y-94582243D01*
X132248783Y-94624029D01*
X132197432Y-94666172D01*
X132197428Y-94666176D01*
X132180263Y-94680263D01*
X132166176Y-94697428D01*
X131376165Y-95487440D01*
X131405102Y-95378494D01*
X131414109Y-95236322D01*
X131387934Y-94486779D01*
X131369032Y-94345582D01*
X131322946Y-94210786D01*
X131251449Y-94087571D01*
X131157287Y-93980671D01*
X131061939Y-93907838D01*
X131119329Y-93857287D01*
X131205804Y-93744080D01*
X131268532Y-93616177D01*
X131305102Y-93478494D01*
X131314109Y-93336322D01*
X131287934Y-92586779D01*
X131269032Y-92445582D01*
X131222946Y-92310786D01*
X131151449Y-92187571D01*
X131057287Y-92080671D01*
X130944080Y-91994196D01*
X130816177Y-91931468D01*
X130678494Y-91894898D01*
X130536322Y-91885891D01*
X129786779Y-91912066D01*
X129645582Y-91930968D01*
X129510786Y-91977054D01*
X129387571Y-92048551D01*
X129350000Y-92081645D01*
X129350000Y-91799179D01*
X130006759Y-91142421D01*
X130023923Y-91128335D01*
X130038010Y-91111170D01*
X130038014Y-91111166D01*
X130080157Y-91059815D01*
X130101223Y-91020402D01*
X130121943Y-90981639D01*
X130147675Y-90896813D01*
X130154186Y-90830703D01*
X130154186Y-90830691D01*
X130156362Y-90808599D01*
X130154186Y-90786507D01*
X130154186Y-87382209D01*
X133360107Y-84176288D01*
X134614248Y-84176288D01*
X134627083Y-84254029D01*
X134654838Y-84327772D01*
X134696446Y-84394683D01*
X134750308Y-84452191D01*
X134773594Y-84468877D01*
X134814355Y-84498086D01*
X134832337Y-84506234D01*
X137482993Y-86036592D01*
X137499033Y-86048086D01*
X137517008Y-86056230D01*
X137517014Y-86056234D01*
X137570802Y-86080605D01*
X137647536Y-86098497D01*
X137726287Y-86101075D01*
X137804028Y-86088240D01*
X137877771Y-86060485D01*
X137944682Y-86018877D01*
X138002190Y-85965015D01*
X138036586Y-85917015D01*
X138048085Y-85900968D01*
X138056233Y-85882986D01*
X138170662Y-85684788D01*
X139662603Y-85684788D01*
X139685809Y-85825342D01*
X139735989Y-85958669D01*
X139811216Y-86079643D01*
X139908598Y-86183617D01*
X140024394Y-86266595D01*
X140673914Y-86641595D01*
X140803673Y-86700388D01*
X140942408Y-86732736D01*
X141084788Y-86737397D01*
X141225342Y-86714191D01*
X141264994Y-86699267D01*
X141285809Y-86825342D01*
X141335989Y-86958669D01*
X141411216Y-87079643D01*
X141508598Y-87183617D01*
X141624394Y-87266595D01*
X142273914Y-87641595D01*
X142403673Y-87700388D01*
X142542408Y-87732736D01*
X142684788Y-87737397D01*
X142825342Y-87714191D01*
X142958669Y-87664011D01*
X143079643Y-87588784D01*
X143183617Y-87491402D01*
X143266595Y-87375606D01*
X143641595Y-86726086D01*
X143700388Y-86596327D01*
X143732736Y-86457592D01*
X143737397Y-86315212D01*
X143714191Y-86174658D01*
X143664011Y-86041331D01*
X143637576Y-85998820D01*
X143654756Y-85981640D01*
X143671921Y-85967553D01*
X143686008Y-85950388D01*
X143686012Y-85950384D01*
X143728155Y-85899033D01*
X143769941Y-85820857D01*
X143780721Y-85785321D01*
X143795673Y-85736031D01*
X143802184Y-85669921D01*
X143802184Y-85669911D01*
X143804360Y-85647817D01*
X143802184Y-85625723D01*
X143802184Y-83237350D01*
X143857072Y-83182462D01*
X143928206Y-83076001D01*
X143977205Y-82957709D01*
X144002184Y-82832130D01*
X144002184Y-82704092D01*
X143977205Y-82578513D01*
X143928206Y-82460221D01*
X143857072Y-82353760D01*
X143766535Y-82263223D01*
X143660074Y-82192089D01*
X143541782Y-82143090D01*
X143416203Y-82118111D01*
X143288165Y-82118111D01*
X143162586Y-82143090D01*
X143044294Y-82192089D01*
X142937833Y-82263223D01*
X142847296Y-82353760D01*
X142776162Y-82460221D01*
X142727163Y-82578513D01*
X142702184Y-82704092D01*
X142702184Y-82832130D01*
X142727163Y-82957709D01*
X142776162Y-83076001D01*
X142847296Y-83182462D01*
X142902184Y-83237350D01*
X142902185Y-85460076D01*
X142726086Y-85358405D01*
X142596327Y-85299612D01*
X142457592Y-85267264D01*
X142315212Y-85262603D01*
X142174658Y-85285809D01*
X142135006Y-85300733D01*
X142114191Y-85174658D01*
X142064011Y-85041331D01*
X141988784Y-84920357D01*
X141891402Y-84816383D01*
X141775606Y-84733405D01*
X141126086Y-84358405D01*
X140996327Y-84299612D01*
X140857592Y-84267264D01*
X140715212Y-84262603D01*
X140574658Y-84285809D01*
X140441331Y-84335989D01*
X140320357Y-84411216D01*
X140216383Y-84508598D01*
X140133405Y-84624394D01*
X139758405Y-85273914D01*
X139699612Y-85403673D01*
X139667264Y-85542408D01*
X139662603Y-85684788D01*
X138170662Y-85684788D01*
X138586591Y-84964381D01*
X138598085Y-84948340D01*
X138606229Y-84930365D01*
X138606233Y-84930359D01*
X138630604Y-84876571D01*
X138648496Y-84799837D01*
X138651074Y-84721086D01*
X138638239Y-84643345D01*
X138638239Y-84643344D01*
X138610484Y-84569601D01*
X138568876Y-84502689D01*
X138515014Y-84445182D01*
X138467014Y-84410786D01*
X138467007Y-84410782D01*
X138450967Y-84399288D01*
X138432993Y-84391144D01*
X135782333Y-82860785D01*
X135766289Y-82849288D01*
X135748310Y-82841142D01*
X135748307Y-82841140D01*
X135694519Y-82816769D01*
X135617785Y-82798877D01*
X135539035Y-82796299D01*
X135539034Y-82796299D01*
X135461293Y-82809134D01*
X135387550Y-82836889D01*
X135320639Y-82878497D01*
X135263131Y-82932359D01*
X135228735Y-82980359D01*
X135228731Y-82980366D01*
X135217237Y-82996406D01*
X135209093Y-83014380D01*
X134678734Y-83932990D01*
X134667237Y-83949034D01*
X134634718Y-84020804D01*
X134616826Y-84097538D01*
X134614248Y-84176288D01*
X133360107Y-84176288D01*
X135586396Y-81950000D01*
X147413605Y-81950000D01*
X147780000Y-82316396D01*
G04 #@! TA.AperFunction,Conductor*
D21*
G36*
X147780000Y-82316396D02*
G01*
X147780001Y-85428473D01*
X147709142Y-85442568D01*
X147508955Y-85525488D01*
X147328791Y-85645870D01*
X147175575Y-85799086D01*
X147055193Y-85979250D01*
X146972273Y-86179437D01*
X146930000Y-86391954D01*
X146930000Y-86608636D01*
X146972273Y-86821153D01*
X147055193Y-87021340D01*
X147175575Y-87201504D01*
X147328791Y-87354720D01*
X147508955Y-87475102D01*
X147571387Y-87500962D01*
X143840537Y-87500962D01*
X143818443Y-87498786D01*
X143796349Y-87500962D01*
X143796338Y-87500962D01*
X143730228Y-87507473D01*
X143646800Y-87532781D01*
X143645402Y-87533205D01*
X143567226Y-87574991D01*
X143515875Y-87617134D01*
X143515871Y-87617138D01*
X143498706Y-87631225D01*
X143484619Y-87648390D01*
X143366837Y-87766172D01*
X142330000Y-88803010D01*
X142330000Y-88591364D01*
X142287727Y-88378847D01*
X142204807Y-88178660D01*
X142084425Y-87998496D01*
X141931209Y-87845280D01*
X141751045Y-87724898D01*
X141550858Y-87641978D01*
X141338341Y-87599705D01*
X141121659Y-87599705D01*
X140909142Y-87641978D01*
X140730000Y-87716181D01*
X140730000Y-87591364D01*
X140687727Y-87378847D01*
X140604807Y-87178660D01*
X140484425Y-86998496D01*
X140331209Y-86845280D01*
X140151045Y-86724898D01*
X139950858Y-86641978D01*
X139738341Y-86599705D01*
X139521659Y-86599705D01*
X139309142Y-86641978D01*
X139108955Y-86724898D01*
X138928791Y-86845280D01*
X138775575Y-86998496D01*
X138655193Y-87178660D01*
X138572273Y-87378847D01*
X138530000Y-87591364D01*
X138530000Y-87808046D01*
X138572273Y-88020563D01*
X138655193Y-88220750D01*
X138707950Y-88299706D01*
X138246813Y-88299706D01*
X136010000Y-86062895D01*
X136010000Y-86055981D01*
X135985021Y-85930402D01*
X135936022Y-85812110D01*
X135864888Y-85705649D01*
X135774351Y-85615112D01*
X135667890Y-85543978D01*
X135549598Y-85494979D01*
X135424019Y-85470000D01*
X135295981Y-85470000D01*
X135170402Y-85494979D01*
X135052110Y-85543978D01*
X134945649Y-85615112D01*
X134855112Y-85705649D01*
X134783978Y-85812110D01*
X134734979Y-85930402D01*
X134710000Y-86055981D01*
X134710000Y-86184019D01*
X134734979Y-86309598D01*
X134783978Y-86427890D01*
X134855112Y-86534351D01*
X134945649Y-86624888D01*
X135052110Y-86696022D01*
X135170402Y-86745021D01*
X135295981Y-86770000D01*
X135302895Y-86770000D01*
X137668786Y-89135893D01*
X137684442Y-89154970D01*
X137760577Y-89217452D01*
X137847439Y-89263881D01*
X137941689Y-89292471D01*
X138039706Y-89302125D01*
X138064266Y-89299706D01*
X140307950Y-89299706D01*
X140375575Y-89400914D01*
X140528791Y-89554130D01*
X140672270Y-89650000D01*
X139522094Y-89650000D01*
X139499999Y-89647824D01*
X139477905Y-89650000D01*
X139477895Y-89650000D01*
X139411785Y-89656511D01*
X139335322Y-89679706D01*
X139326959Y-89682243D01*
X139248783Y-89724029D01*
X139197432Y-89766172D01*
X139197428Y-89766176D01*
X139180263Y-89780263D01*
X139166176Y-89797428D01*
X138403605Y-90560000D01*
X138325981Y-90560000D01*
X138200402Y-90584979D01*
X138082110Y-90633978D01*
X137975649Y-90705112D01*
X137885112Y-90795649D01*
X137813978Y-90902110D01*
X137764979Y-91020402D01*
X137740000Y-91145981D01*
X137740000Y-91274019D01*
X137764979Y-91399598D01*
X137813978Y-91517890D01*
X137885112Y-91624351D01*
X137975649Y-91714888D01*
X138082110Y-91786022D01*
X138200402Y-91835021D01*
X138250000Y-91844887D01*
X138250001Y-95452115D01*
X138207890Y-95423978D01*
X138089598Y-95374979D01*
X137964019Y-95350000D01*
X137835981Y-95350000D01*
X137710402Y-95374979D01*
X137592110Y-95423978D01*
X137485649Y-95495112D01*
X137430761Y-95550000D01*
X137122094Y-95550000D01*
X137100000Y-95547824D01*
X137077905Y-95550000D01*
X137077895Y-95550000D01*
X137050000Y-95552747D01*
X137050000Y-95535981D01*
X137025021Y-95410402D01*
X136976022Y-95292110D01*
X136904888Y-95185649D01*
X136814351Y-95095112D01*
X136707890Y-95023978D01*
X136589598Y-94974979D01*
X136464019Y-94950000D01*
X136335981Y-94950000D01*
X136210402Y-94974979D01*
X136092110Y-95023978D01*
X135985649Y-95095112D01*
X135895112Y-95185649D01*
X135823978Y-95292110D01*
X135788474Y-95377822D01*
X135707890Y-95323978D01*
X135589598Y-95274979D01*
X135464019Y-95250000D01*
X135346835Y-95250000D01*
X135414351Y-95204888D01*
X135504888Y-95114351D01*
X135576022Y-95007890D01*
X135625021Y-94889598D01*
X135650000Y-94764019D01*
X135650000Y-94635981D01*
X135625021Y-94510402D01*
X135576022Y-94392110D01*
X135504888Y-94285649D01*
X135414351Y-94195112D01*
X135307890Y-94123978D01*
X135189598Y-94074979D01*
X135064019Y-94050000D01*
X134935981Y-94050000D01*
X134810402Y-94074979D01*
X134692110Y-94123978D01*
X134585649Y-94195112D01*
X134495112Y-94285649D01*
X134423978Y-94392110D01*
X134374979Y-94510402D01*
X134350000Y-94635981D01*
X134350000Y-94717139D01*
X134324030Y-94748783D01*
X134282244Y-94826959D01*
X134256513Y-94911784D01*
X134247825Y-94999999D01*
X134250002Y-95022103D01*
X134250001Y-97873099D01*
X134207255Y-97844537D01*
X134031576Y-97771769D01*
X133845077Y-97734672D01*
X133654923Y-97734672D01*
X133468424Y-97771769D01*
X133292745Y-97844537D01*
X133134639Y-97950181D01*
X133000180Y-98084640D01*
X132894536Y-98242746D01*
X132821768Y-98418425D01*
X132784671Y-98604924D01*
X132784671Y-98795078D01*
X132821768Y-98981577D01*
X132894536Y-99157256D01*
X133000180Y-99315362D01*
X133134639Y-99449821D01*
X133292745Y-99555465D01*
X133468424Y-99628233D01*
X133654923Y-99665330D01*
X133845077Y-99665330D01*
X134031576Y-99628233D01*
X134207255Y-99555465D01*
X134250000Y-99526903D01*
X134250000Y-100177905D01*
X134247824Y-100200000D01*
X134250000Y-100222094D01*
X134250000Y-100222104D01*
X134256511Y-100288214D01*
X134268265Y-100326960D01*
X134282243Y-100373040D01*
X134306323Y-100418091D01*
X134292110Y-100423978D01*
X134185649Y-100495112D01*
X134095112Y-100585649D01*
X134023978Y-100692110D01*
X133974979Y-100810402D01*
X133950000Y-100935981D01*
X133950000Y-101013604D01*
X133097433Y-101866172D01*
X132897429Y-102066176D01*
X132880264Y-102080263D01*
X132866177Y-102097428D01*
X132866172Y-102097433D01*
X132824029Y-102148784D01*
X132782243Y-102226960D01*
X132764993Y-102283828D01*
X132756512Y-102311785D01*
X132751000Y-102367757D01*
X132747824Y-102400000D01*
X132750001Y-102422104D01*
X132750000Y-109977906D01*
X132747824Y-110000000D01*
X132750000Y-110022094D01*
X132750000Y-110022104D01*
X132756511Y-110088214D01*
X132774885Y-110148783D01*
X132782243Y-110173040D01*
X132824029Y-110251216D01*
X132865063Y-110301216D01*
X132880263Y-110319737D01*
X132897434Y-110333829D01*
X136080001Y-113516397D01*
X136080000Y-116300761D01*
X136025112Y-116355649D01*
X135953978Y-116462110D01*
X135904979Y-116580402D01*
X135880000Y-116705981D01*
X135880000Y-116834019D01*
X135904979Y-116959598D01*
X135953978Y-117077890D01*
X136025112Y-117184351D01*
X136115649Y-117274888D01*
X136222110Y-117346022D01*
X136340402Y-117395021D01*
X136465981Y-117420000D01*
X136594019Y-117420000D01*
X136719598Y-117395021D01*
X136837890Y-117346022D01*
X136944351Y-117274888D01*
X137034888Y-117184351D01*
X137106022Y-117077890D01*
X137155021Y-116959598D01*
X137180000Y-116834019D01*
X137180000Y-116705981D01*
X137155021Y-116580402D01*
X137106022Y-116462110D01*
X137034888Y-116355649D01*
X136980000Y-116300761D01*
X136980000Y-113377106D01*
X143010000Y-119407107D01*
X143010000Y-119414019D01*
X143034979Y-119539598D01*
X143083978Y-119657890D01*
X143155112Y-119764351D01*
X143245649Y-119854888D01*
X143352110Y-119926022D01*
X143470402Y-119975021D01*
X143595981Y-120000000D01*
X143724019Y-120000000D01*
X143834381Y-119978048D01*
X143888017Y-119972765D01*
X143982268Y-119944174D01*
X144069129Y-119897746D01*
X144145264Y-119835264D01*
X144207746Y-119759129D01*
X144254174Y-119672268D01*
X144282765Y-119578017D01*
X144283820Y-119567311D01*
X144976396Y-120259887D01*
X145015090Y-120332277D01*
X145071324Y-120400798D01*
X145139846Y-120457032D01*
X145218021Y-120498818D01*
X145302847Y-120524550D01*
X145391061Y-120533238D01*
X145413176Y-120531060D01*
X149750776Y-120531062D01*
X149743464Y-120537062D01*
X149729377Y-120554227D01*
X149388440Y-120895164D01*
X149270027Y-120846116D01*
X149038190Y-120800000D01*
X148801810Y-120800000D01*
X148569973Y-120846116D01*
X148351587Y-120936574D01*
X148155045Y-121067899D01*
X147987899Y-121235045D01*
X147856574Y-121431587D01*
X147766116Y-121649973D01*
X147720000Y-121881810D01*
X147720000Y-122118190D01*
X147766116Y-122350027D01*
X147856574Y-122568413D01*
X147944498Y-122700001D01*
X147716397Y-122700001D01*
X147484836Y-122468440D01*
X147533884Y-122350027D01*
X147580000Y-122118190D01*
X147580000Y-121881810D01*
X147533884Y-121649973D01*
X147443426Y-121431587D01*
X147312101Y-121235045D01*
X147144955Y-121067899D01*
X146948413Y-120936574D01*
X146730027Y-120846116D01*
X146498190Y-120800000D01*
X146261810Y-120800000D01*
X146029973Y-120846116D01*
X145811587Y-120936574D01*
X145615045Y-121067899D01*
X145447899Y-121235045D01*
X145316574Y-121431587D01*
X145226116Y-121649973D01*
X145180000Y-121881810D01*
X145180000Y-122118190D01*
X145226116Y-122350027D01*
X145316574Y-122568413D01*
X145447899Y-122764955D01*
X145615045Y-122932101D01*
X145811587Y-123063426D01*
X146029973Y-123153884D01*
X146261810Y-123200000D01*
X146498190Y-123200000D01*
X146730027Y-123153884D01*
X146848440Y-123104836D01*
X147043604Y-123300000D01*
X142269647Y-123300000D01*
X142250000Y-123298065D01*
X142230354Y-123300000D01*
X142230353Y-123300000D01*
X142171586Y-123305788D01*
X142096186Y-123328660D01*
X142087184Y-123333472D01*
X139504755Y-123341250D01*
X138733670Y-122005692D01*
X138718172Y-121976697D01*
X138701477Y-121956355D01*
X138686165Y-121934986D01*
X138676550Y-121925981D01*
X138668186Y-121915789D01*
X138647845Y-121899096D01*
X138628657Y-121881124D01*
X138617470Y-121874168D01*
X138607278Y-121865803D01*
X138584070Y-121853398D01*
X138561746Y-121839516D01*
X138549419Y-121834876D01*
X138537789Y-121828660D01*
X138512606Y-121821021D01*
X138488003Y-121811761D01*
X138475006Y-121809615D01*
X138462389Y-121805788D01*
X138436204Y-121803209D01*
X138410262Y-121798926D01*
X138377455Y-121800000D01*
X133122559Y-121800000D01*
X133089738Y-121798926D01*
X133063794Y-121803209D01*
X133037612Y-121805788D01*
X133024997Y-121809615D01*
X133011997Y-121811761D01*
X132987390Y-121821022D01*
X132962212Y-121828660D01*
X132950584Y-121834875D01*
X132938254Y-121839516D01*
X132915920Y-121853404D01*
X132892723Y-121865803D01*
X132882538Y-121874162D01*
X132871343Y-121881123D01*
X132852142Y-121899107D01*
X132831815Y-121915789D01*
X132823455Y-121925976D01*
X132813835Y-121934986D01*
X132798513Y-121956367D01*
X132781829Y-121976697D01*
X132766350Y-122005655D01*
X132028687Y-123283329D01*
X131179294Y-123223188D01*
X130129944Y-122997269D01*
X129122897Y-122625749D01*
X128178257Y-122116048D01*
X127314849Y-121478326D01*
X126549909Y-120725309D01*
X125898699Y-119872019D01*
X125609156Y-119355001D01*
X127492823Y-119355001D01*
X127495000Y-119377105D01*
X127494999Y-121000906D01*
X127492823Y-121023001D01*
X127494999Y-121045095D01*
X127494999Y-121045105D01*
X127501510Y-121111215D01*
X127521676Y-121177693D01*
X127527242Y-121196041D01*
X127569028Y-121274217D01*
X127600236Y-121312244D01*
X127625262Y-121342738D01*
X127642432Y-121356829D01*
X127923174Y-121637572D01*
X127937262Y-121654738D01*
X127954427Y-121668825D01*
X127954431Y-121668829D01*
X128005782Y-121710972D01*
X128076428Y-121748733D01*
X128083958Y-121752758D01*
X128168784Y-121778490D01*
X128234894Y-121785001D01*
X128234905Y-121785001D01*
X128256999Y-121787177D01*
X128279093Y-121785001D01*
X134642907Y-121785001D01*
X134665001Y-121787177D01*
X134687095Y-121785001D01*
X134687106Y-121785001D01*
X134753216Y-121778490D01*
X134838042Y-121752758D01*
X134916217Y-121710972D01*
X134984738Y-121654738D01*
X134998830Y-121637567D01*
X136165190Y-120471207D01*
X136540000Y-120471207D01*
X136540000Y-120628793D01*
X136570743Y-120783351D01*
X136631049Y-120928942D01*
X136718599Y-121059970D01*
X136830030Y-121171401D01*
X136961058Y-121258951D01*
X137106649Y-121319257D01*
X137261207Y-121350000D01*
X137418793Y-121350000D01*
X137573351Y-121319257D01*
X137718942Y-121258951D01*
X137849970Y-121171401D01*
X137871371Y-121150000D01*
X140098307Y-121150000D01*
X140098307Y-122850000D01*
X140105065Y-122918612D01*
X140125078Y-122984587D01*
X140157578Y-123045390D01*
X140201315Y-123098685D01*
X140254610Y-123142422D01*
X140315413Y-123174922D01*
X140381388Y-123194935D01*
X140450000Y-123201693D01*
X142150000Y-123201693D01*
X142218612Y-123194935D01*
X142284587Y-123174922D01*
X142345390Y-123142422D01*
X142398685Y-123098685D01*
X142442422Y-123045390D01*
X142474922Y-122984587D01*
X142494935Y-122918612D01*
X142501693Y-122850000D01*
X142501693Y-121150000D01*
X142494935Y-121081388D01*
X142474922Y-121015413D01*
X142442422Y-120954610D01*
X142398685Y-120901315D01*
X142345390Y-120857578D01*
X142284587Y-120825078D01*
X142218612Y-120805065D01*
X142150000Y-120798307D01*
X140450000Y-120798307D01*
X140381388Y-120805065D01*
X140315413Y-120825078D01*
X140254610Y-120857578D01*
X140201315Y-120901315D01*
X140157578Y-120954610D01*
X140125078Y-121015413D01*
X140105065Y-121081388D01*
X140098307Y-121150000D01*
X137871371Y-121150000D01*
X137961401Y-121059970D01*
X138048951Y-120928942D01*
X138109257Y-120783351D01*
X138140000Y-120628793D01*
X138140000Y-120471207D01*
X138109257Y-120316649D01*
X138048951Y-120171058D01*
X137961401Y-120040030D01*
X137849970Y-119928599D01*
X137718942Y-119841049D01*
X137573351Y-119780743D01*
X137418793Y-119750000D01*
X137261207Y-119750000D01*
X137106649Y-119780743D01*
X136961058Y-119841049D01*
X136830030Y-119928599D01*
X136718599Y-120040030D01*
X136631049Y-120171058D01*
X136570743Y-120316649D01*
X136540000Y-120471207D01*
X136165190Y-120471207D01*
X136892572Y-119743826D01*
X136909737Y-119729739D01*
X136923824Y-119712574D01*
X136923828Y-119712570D01*
X136965971Y-119661219D01*
X137007757Y-119583043D01*
X137009282Y-119578017D01*
X137033489Y-119498217D01*
X137038128Y-119451111D01*
X137094888Y-119394351D01*
X137166022Y-119287890D01*
X137215021Y-119169598D01*
X137240000Y-119044019D01*
X137240000Y-118915981D01*
X137215021Y-118790402D01*
X137166022Y-118672110D01*
X137094888Y-118565649D01*
X137004351Y-118475112D01*
X136897890Y-118403978D01*
X136779598Y-118354979D01*
X136654019Y-118330000D01*
X136525981Y-118330000D01*
X136400402Y-118354979D01*
X136282110Y-118403978D01*
X136175649Y-118475112D01*
X136085112Y-118565649D01*
X136013978Y-118672110D01*
X135964979Y-118790402D01*
X135940000Y-118915981D01*
X135940000Y-119044019D01*
X135964979Y-119169598D01*
X136013978Y-119287890D01*
X136038707Y-119324900D01*
X135091010Y-120272597D01*
X135048951Y-120171058D01*
X134961401Y-120040030D01*
X134849970Y-119928599D01*
X134718942Y-119841049D01*
X134573351Y-119780743D01*
X134418793Y-119750000D01*
X134261207Y-119750000D01*
X134106649Y-119780743D01*
X133961058Y-119841049D01*
X133830030Y-119928599D01*
X133718599Y-120040030D01*
X133631049Y-120171058D01*
X133570743Y-120316649D01*
X133540000Y-120471207D01*
X133540000Y-120628793D01*
X133570743Y-120783351D01*
X133612848Y-120885001D01*
X129243526Y-120885001D01*
X129828419Y-120300109D01*
X129851317Y-120281317D01*
X129926296Y-120189955D01*
X129940767Y-120162882D01*
X129955112Y-120184351D01*
X130045649Y-120274888D01*
X130152110Y-120346022D01*
X130270402Y-120395021D01*
X130395981Y-120420000D01*
X130524019Y-120420000D01*
X130649598Y-120395021D01*
X130767890Y-120346022D01*
X130874351Y-120274888D01*
X130964888Y-120184351D01*
X131036022Y-120077890D01*
X131085021Y-119959598D01*
X131110000Y-119834019D01*
X131110000Y-119705981D01*
X131085021Y-119580402D01*
X131036022Y-119462110D01*
X130964888Y-119355649D01*
X130874351Y-119265112D01*
X130767890Y-119193978D01*
X130649598Y-119144979D01*
X130524019Y-119120000D01*
X130395981Y-119120000D01*
X130270402Y-119144979D01*
X130152110Y-119193978D01*
X130045649Y-119265112D01*
X130025000Y-119285761D01*
X130025000Y-115584689D01*
X130057784Y-115557784D01*
X130129503Y-115470393D01*
X130182795Y-115370691D01*
X130215612Y-115262507D01*
X130226693Y-115150000D01*
X130226693Y-114604923D01*
X132784671Y-114604923D01*
X132784671Y-114795077D01*
X132821768Y-114981576D01*
X132894536Y-115157255D01*
X133000180Y-115315361D01*
X133134639Y-115449820D01*
X133292745Y-115555464D01*
X133468424Y-115628232D01*
X133654923Y-115665329D01*
X133845077Y-115665329D01*
X134031576Y-115628232D01*
X134207255Y-115555464D01*
X134365361Y-115449820D01*
X134499820Y-115315361D01*
X134605464Y-115157255D01*
X134678232Y-114981576D01*
X134715329Y-114795077D01*
X134715329Y-114604923D01*
X134678232Y-114418424D01*
X134605464Y-114242745D01*
X134499820Y-114084639D01*
X134365361Y-113950180D01*
X134207255Y-113844536D01*
X134031576Y-113771768D01*
X133845077Y-113734671D01*
X133654923Y-113734671D01*
X133468424Y-113771768D01*
X133292745Y-113844536D01*
X133134639Y-113950180D01*
X133000180Y-114084639D01*
X132894536Y-114242745D01*
X132821768Y-114418424D01*
X132784671Y-114604923D01*
X130226693Y-114604923D01*
X130226693Y-114200000D01*
X130215612Y-114087493D01*
X130182795Y-113979309D01*
X130129503Y-113879607D01*
X130057784Y-113792216D01*
X129970393Y-113720497D01*
X129870691Y-113667205D01*
X129762507Y-113634388D01*
X129650000Y-113623307D01*
X129200000Y-113623307D01*
X129087493Y-113634388D01*
X128979309Y-113667205D01*
X128879607Y-113720497D01*
X128792216Y-113792216D01*
X128720497Y-113879607D01*
X128667205Y-113979309D01*
X128634388Y-114087493D01*
X128623307Y-114200000D01*
X128623307Y-115150000D01*
X128634388Y-115262507D01*
X128667205Y-115370691D01*
X128720497Y-115470393D01*
X128792216Y-115557784D01*
X128825000Y-115584689D01*
X128825001Y-118318819D01*
X128757890Y-118273978D01*
X128639598Y-118224979D01*
X128514019Y-118200000D01*
X128385981Y-118200000D01*
X128260402Y-118224979D01*
X128142110Y-118273978D01*
X128035649Y-118345112D01*
X127945112Y-118435649D01*
X127873978Y-118542110D01*
X127824979Y-118660402D01*
X127800000Y-118785981D01*
X127800000Y-118863605D01*
X127642428Y-119021177D01*
X127625263Y-119035264D01*
X127611176Y-119052429D01*
X127611171Y-119052434D01*
X127569028Y-119103785D01*
X127527242Y-119181961D01*
X127510558Y-119236962D01*
X127501511Y-119266786D01*
X127496337Y-119319326D01*
X127492823Y-119355001D01*
X125609156Y-119355001D01*
X125374220Y-118935492D01*
X124986930Y-117934407D01*
X124744558Y-116888746D01*
X124650853Y-115806809D01*
X124650001Y-115698386D01*
X124650001Y-112721232D01*
X124682066Y-112391053D01*
X124771936Y-112092388D01*
X124918105Y-111816870D01*
X125115003Y-111574990D01*
X125355136Y-111375960D01*
X125629353Y-111227362D01*
X125927210Y-111134857D01*
X126255926Y-111100000D01*
X132230355Y-111100000D01*
X132250001Y-111101935D01*
X132289031Y-111098091D01*
X132328415Y-111094212D01*
X132403815Y-111071340D01*
X132473304Y-111034197D01*
X132534212Y-110984211D01*
X132584198Y-110923303D01*
X132621341Y-110853814D01*
X132644213Y-110778414D01*
X132651936Y-110700000D01*
X132650001Y-110680353D01*
X132650001Y-96719648D01*
X132651936Y-96700001D01*
X132644213Y-96621587D01*
X132621341Y-96546187D01*
X132584198Y-96476698D01*
X132534212Y-96415790D01*
X132473304Y-96365804D01*
X132403815Y-96328661D01*
X132328415Y-96305789D01*
X132269648Y-96300001D01*
X132269647Y-96300001D01*
X132250001Y-96298066D01*
X132230354Y-96300001D01*
X131836394Y-96300001D01*
X132569080Y-95567316D01*
X132582110Y-95576022D01*
X132700402Y-95625021D01*
X132825981Y-95650000D01*
X132954019Y-95650000D01*
X133079598Y-95625021D01*
X133197890Y-95576022D01*
X133304351Y-95504888D01*
X133394888Y-95414351D01*
X133466022Y-95307890D01*
X133515021Y-95189598D01*
X133540000Y-95064019D01*
X133540000Y-94935981D01*
X133515021Y-94810402D01*
X133466022Y-94692110D01*
X133394888Y-94585649D01*
X133304351Y-94495112D01*
X133197890Y-94423978D01*
X133079598Y-94374979D01*
X132954019Y-94350000D01*
X132825981Y-94350000D01*
X132700402Y-94374979D01*
X132582110Y-94423978D01*
X132475649Y-94495112D01*
X132414519Y-94556242D01*
X132411785Y-94556511D01*
X132327318Y-94582134D01*
X132326959Y-94582243D01*
X132248783Y-94624029D01*
X132197432Y-94666172D01*
X132197428Y-94666176D01*
X132180263Y-94680263D01*
X132166176Y-94697428D01*
X131376165Y-95487440D01*
X131405102Y-95378494D01*
X131414109Y-95236322D01*
X131387934Y-94486779D01*
X131369032Y-94345582D01*
X131322946Y-94210786D01*
X131251449Y-94087571D01*
X131157287Y-93980671D01*
X131061939Y-93907838D01*
X131119329Y-93857287D01*
X131205804Y-93744080D01*
X131268532Y-93616177D01*
X131305102Y-93478494D01*
X131314109Y-93336322D01*
X131287934Y-92586779D01*
X131269032Y-92445582D01*
X131222946Y-92310786D01*
X131151449Y-92187571D01*
X131057287Y-92080671D01*
X130944080Y-91994196D01*
X130816177Y-91931468D01*
X130678494Y-91894898D01*
X130536322Y-91885891D01*
X129786779Y-91912066D01*
X129645582Y-91930968D01*
X129510786Y-91977054D01*
X129387571Y-92048551D01*
X129350000Y-92081645D01*
X129350000Y-91799179D01*
X130006759Y-91142421D01*
X130023923Y-91128335D01*
X130038010Y-91111170D01*
X130038014Y-91111166D01*
X130080157Y-91059815D01*
X130101223Y-91020402D01*
X130121943Y-90981639D01*
X130147675Y-90896813D01*
X130154186Y-90830703D01*
X130154186Y-90830691D01*
X130156362Y-90808599D01*
X130154186Y-90786507D01*
X130154186Y-87382209D01*
X133360107Y-84176288D01*
X134614248Y-84176288D01*
X134627083Y-84254029D01*
X134654838Y-84327772D01*
X134696446Y-84394683D01*
X134750308Y-84452191D01*
X134773594Y-84468877D01*
X134814355Y-84498086D01*
X134832337Y-84506234D01*
X137482993Y-86036592D01*
X137499033Y-86048086D01*
X137517008Y-86056230D01*
X137517014Y-86056234D01*
X137570802Y-86080605D01*
X137647536Y-86098497D01*
X137726287Y-86101075D01*
X137804028Y-86088240D01*
X137877771Y-86060485D01*
X137944682Y-86018877D01*
X138002190Y-85965015D01*
X138036586Y-85917015D01*
X138048085Y-85900968D01*
X138056233Y-85882986D01*
X138170662Y-85684788D01*
X139662603Y-85684788D01*
X139685809Y-85825342D01*
X139735989Y-85958669D01*
X139811216Y-86079643D01*
X139908598Y-86183617D01*
X140024394Y-86266595D01*
X140673914Y-86641595D01*
X140803673Y-86700388D01*
X140942408Y-86732736D01*
X141084788Y-86737397D01*
X141225342Y-86714191D01*
X141264994Y-86699267D01*
X141285809Y-86825342D01*
X141335989Y-86958669D01*
X141411216Y-87079643D01*
X141508598Y-87183617D01*
X141624394Y-87266595D01*
X142273914Y-87641595D01*
X142403673Y-87700388D01*
X142542408Y-87732736D01*
X142684788Y-87737397D01*
X142825342Y-87714191D01*
X142958669Y-87664011D01*
X143079643Y-87588784D01*
X143183617Y-87491402D01*
X143266595Y-87375606D01*
X143641595Y-86726086D01*
X143700388Y-86596327D01*
X143732736Y-86457592D01*
X143737397Y-86315212D01*
X143714191Y-86174658D01*
X143664011Y-86041331D01*
X143637576Y-85998820D01*
X143654756Y-85981640D01*
X143671921Y-85967553D01*
X143686008Y-85950388D01*
X143686012Y-85950384D01*
X143728155Y-85899033D01*
X143769941Y-85820857D01*
X143780721Y-85785321D01*
X143795673Y-85736031D01*
X143802184Y-85669921D01*
X143802184Y-85669911D01*
X143804360Y-85647817D01*
X143802184Y-85625723D01*
X143802184Y-83237350D01*
X143857072Y-83182462D01*
X143928206Y-83076001D01*
X143977205Y-82957709D01*
X144002184Y-82832130D01*
X144002184Y-82704092D01*
X143977205Y-82578513D01*
X143928206Y-82460221D01*
X143857072Y-82353760D01*
X143766535Y-82263223D01*
X143660074Y-82192089D01*
X143541782Y-82143090D01*
X143416203Y-82118111D01*
X143288165Y-82118111D01*
X143162586Y-82143090D01*
X143044294Y-82192089D01*
X142937833Y-82263223D01*
X142847296Y-82353760D01*
X142776162Y-82460221D01*
X142727163Y-82578513D01*
X142702184Y-82704092D01*
X142702184Y-82832130D01*
X142727163Y-82957709D01*
X142776162Y-83076001D01*
X142847296Y-83182462D01*
X142902184Y-83237350D01*
X142902185Y-85460076D01*
X142726086Y-85358405D01*
X142596327Y-85299612D01*
X142457592Y-85267264D01*
X142315212Y-85262603D01*
X142174658Y-85285809D01*
X142135006Y-85300733D01*
X142114191Y-85174658D01*
X142064011Y-85041331D01*
X141988784Y-84920357D01*
X141891402Y-84816383D01*
X141775606Y-84733405D01*
X141126086Y-84358405D01*
X140996327Y-84299612D01*
X140857592Y-84267264D01*
X140715212Y-84262603D01*
X140574658Y-84285809D01*
X140441331Y-84335989D01*
X140320357Y-84411216D01*
X140216383Y-84508598D01*
X140133405Y-84624394D01*
X139758405Y-85273914D01*
X139699612Y-85403673D01*
X139667264Y-85542408D01*
X139662603Y-85684788D01*
X138170662Y-85684788D01*
X138586591Y-84964381D01*
X138598085Y-84948340D01*
X138606229Y-84930365D01*
X138606233Y-84930359D01*
X138630604Y-84876571D01*
X138648496Y-84799837D01*
X138651074Y-84721086D01*
X138638239Y-84643345D01*
X138638239Y-84643344D01*
X138610484Y-84569601D01*
X138568876Y-84502689D01*
X138515014Y-84445182D01*
X138467014Y-84410786D01*
X138467007Y-84410782D01*
X138450967Y-84399288D01*
X138432993Y-84391144D01*
X135782333Y-82860785D01*
X135766289Y-82849288D01*
X135748310Y-82841142D01*
X135748307Y-82841140D01*
X135694519Y-82816769D01*
X135617785Y-82798877D01*
X135539035Y-82796299D01*
X135539034Y-82796299D01*
X135461293Y-82809134D01*
X135387550Y-82836889D01*
X135320639Y-82878497D01*
X135263131Y-82932359D01*
X135228735Y-82980359D01*
X135228731Y-82980366D01*
X135217237Y-82996406D01*
X135209093Y-83014380D01*
X134678734Y-83932990D01*
X134667237Y-83949034D01*
X134634718Y-84020804D01*
X134616826Y-84097538D01*
X134614248Y-84176288D01*
X133360107Y-84176288D01*
X135586396Y-81950000D01*
X147413605Y-81950000D01*
X147780000Y-82316396D01*
G37*
G04 #@! TD.AperFunction*
D17*
X156650000Y-110577906D02*
X156647824Y-110600000D01*
X156650000Y-110622094D01*
X156650000Y-110622104D01*
X156656511Y-110688214D01*
X156672531Y-110741024D01*
X156682243Y-110773040D01*
X156724029Y-110851216D01*
X156758090Y-110892719D01*
X156780263Y-110919737D01*
X156797434Y-110933829D01*
X159623676Y-113760072D01*
X159637763Y-113777237D01*
X159654928Y-113791324D01*
X159654932Y-113791328D01*
X159706283Y-113833471D01*
X159778087Y-113871851D01*
X159784459Y-113875257D01*
X159869285Y-113900989D01*
X159935395Y-113907500D01*
X159935405Y-113907500D01*
X159957499Y-113909676D01*
X159979593Y-113907500D01*
X160938261Y-113907500D01*
X160993149Y-113962388D01*
X161099610Y-114033522D01*
X161217902Y-114082521D01*
X161343481Y-114107500D01*
X161471519Y-114107500D01*
X161597098Y-114082521D01*
X161715390Y-114033522D01*
X161821851Y-113962388D01*
X161912388Y-113871851D01*
X161983522Y-113765390D01*
X162032521Y-113647098D01*
X162057500Y-113521519D01*
X162057500Y-113393481D01*
X162032521Y-113267902D01*
X161983522Y-113149610D01*
X161912388Y-113043149D01*
X161821851Y-112952612D01*
X161715390Y-112881478D01*
X161597098Y-112832479D01*
X161471519Y-112807500D01*
X161343481Y-112807500D01*
X161217902Y-112832479D01*
X161099610Y-112881478D01*
X160993149Y-112952612D01*
X160938261Y-113007500D01*
X160143896Y-113007500D01*
X158237055Y-111100660D01*
X158250000Y-111101935D01*
X158269647Y-111100000D01*
X164230437Y-111100000D01*
X164560402Y-111132354D01*
X164858983Y-111222500D01*
X165134367Y-111368925D01*
X165376063Y-111566047D01*
X165574870Y-111806363D01*
X165723215Y-112080723D01*
X165815441Y-112378657D01*
X165849999Y-112707450D01*
X165849299Y-115687655D01*
X165772233Y-116772474D01*
X165546069Y-117821766D01*
X165174313Y-118828726D01*
X164664387Y-119773253D01*
X164026462Y-120636511D01*
X163273265Y-121401274D01*
X162419824Y-122052282D01*
X161483174Y-122576541D01*
X160482007Y-122963593D01*
X159436273Y-123205723D01*
X158992328Y-123244067D01*
X160302571Y-121933825D01*
X160319736Y-121919738D01*
X160333823Y-121902573D01*
X160333827Y-121902569D01*
X160375970Y-121851218D01*
X160417756Y-121773042D01*
X160423909Y-121752758D01*
X160443488Y-121688216D01*
X160449999Y-121622106D01*
X160449999Y-121622096D01*
X160452175Y-121600002D01*
X160449999Y-121577907D01*
X160449999Y-119922090D01*
X160452175Y-119899998D01*
X160449999Y-119877906D01*
X160449999Y-119877894D01*
X160443488Y-119811784D01*
X160417756Y-119726958D01*
X160406973Y-119706785D01*
X160375970Y-119648782D01*
X160333827Y-119597431D01*
X160333823Y-119597427D01*
X160319736Y-119580262D01*
X160302572Y-119566176D01*
X156290075Y-115553680D01*
X156292745Y-115555464D01*
X156468424Y-115628232D01*
X156654923Y-115665329D01*
X156845077Y-115665329D01*
X157031576Y-115628232D01*
X157207255Y-115555464D01*
X157365361Y-115449820D01*
X157499820Y-115315361D01*
X157605464Y-115157255D01*
X157678232Y-114981576D01*
X157715329Y-114795077D01*
X157715329Y-114604923D01*
X157678232Y-114418424D01*
X157605464Y-114242745D01*
X157499820Y-114084639D01*
X157365361Y-113950180D01*
X157207255Y-113844536D01*
X157031576Y-113771768D01*
X156845077Y-113734671D01*
X156654923Y-113734671D01*
X156468424Y-113771768D01*
X156292745Y-113844536D01*
X156134639Y-113950180D01*
X156050011Y-114034808D01*
X156050011Y-104700006D01*
X156110402Y-104725021D01*
X156235981Y-104750000D01*
X156364019Y-104750000D01*
X156489598Y-104725021D01*
X156607890Y-104676022D01*
X156650001Y-104647885D01*
X156650000Y-110577906D01*
G04 #@! TA.AperFunction,Conductor*
D21*
G36*
X156650000Y-110577906D02*
G01*
X156647824Y-110600000D01*
X156650000Y-110622094D01*
X156650000Y-110622104D01*
X156656511Y-110688214D01*
X156672531Y-110741024D01*
X156682243Y-110773040D01*
X156724029Y-110851216D01*
X156758090Y-110892719D01*
X156780263Y-110919737D01*
X156797434Y-110933829D01*
X159623676Y-113760072D01*
X159637763Y-113777237D01*
X159654928Y-113791324D01*
X159654932Y-113791328D01*
X159706283Y-113833471D01*
X159778087Y-113871851D01*
X159784459Y-113875257D01*
X159869285Y-113900989D01*
X159935395Y-113907500D01*
X159935405Y-113907500D01*
X159957499Y-113909676D01*
X159979593Y-113907500D01*
X160938261Y-113907500D01*
X160993149Y-113962388D01*
X161099610Y-114033522D01*
X161217902Y-114082521D01*
X161343481Y-114107500D01*
X161471519Y-114107500D01*
X161597098Y-114082521D01*
X161715390Y-114033522D01*
X161821851Y-113962388D01*
X161912388Y-113871851D01*
X161983522Y-113765390D01*
X162032521Y-113647098D01*
X162057500Y-113521519D01*
X162057500Y-113393481D01*
X162032521Y-113267902D01*
X161983522Y-113149610D01*
X161912388Y-113043149D01*
X161821851Y-112952612D01*
X161715390Y-112881478D01*
X161597098Y-112832479D01*
X161471519Y-112807500D01*
X161343481Y-112807500D01*
X161217902Y-112832479D01*
X161099610Y-112881478D01*
X160993149Y-112952612D01*
X160938261Y-113007500D01*
X160143896Y-113007500D01*
X158237055Y-111100660D01*
X158250000Y-111101935D01*
X158269647Y-111100000D01*
X164230437Y-111100000D01*
X164560402Y-111132354D01*
X164858983Y-111222500D01*
X165134367Y-111368925D01*
X165376063Y-111566047D01*
X165574870Y-111806363D01*
X165723215Y-112080723D01*
X165815441Y-112378657D01*
X165849999Y-112707450D01*
X165849299Y-115687655D01*
X165772233Y-116772474D01*
X165546069Y-117821766D01*
X165174313Y-118828726D01*
X164664387Y-119773253D01*
X164026462Y-120636511D01*
X163273265Y-121401274D01*
X162419824Y-122052282D01*
X161483174Y-122576541D01*
X160482007Y-122963593D01*
X159436273Y-123205723D01*
X158992328Y-123244067D01*
X160302571Y-121933825D01*
X160319736Y-121919738D01*
X160333823Y-121902573D01*
X160333827Y-121902569D01*
X160375970Y-121851218D01*
X160417756Y-121773042D01*
X160423909Y-121752758D01*
X160443488Y-121688216D01*
X160449999Y-121622106D01*
X160449999Y-121622096D01*
X160452175Y-121600002D01*
X160449999Y-121577907D01*
X160449999Y-119922090D01*
X160452175Y-119899998D01*
X160449999Y-119877906D01*
X160449999Y-119877894D01*
X160443488Y-119811784D01*
X160417756Y-119726958D01*
X160406973Y-119706785D01*
X160375970Y-119648782D01*
X160333827Y-119597431D01*
X160333823Y-119597427D01*
X160319736Y-119580262D01*
X160302572Y-119566176D01*
X156290075Y-115553680D01*
X156292745Y-115555464D01*
X156468424Y-115628232D01*
X156654923Y-115665329D01*
X156845077Y-115665329D01*
X157031576Y-115628232D01*
X157207255Y-115555464D01*
X157365361Y-115449820D01*
X157499820Y-115315361D01*
X157605464Y-115157255D01*
X157678232Y-114981576D01*
X157715329Y-114795077D01*
X157715329Y-114604923D01*
X157678232Y-114418424D01*
X157605464Y-114242745D01*
X157499820Y-114084639D01*
X157365361Y-113950180D01*
X157207255Y-113844536D01*
X157031576Y-113771768D01*
X156845077Y-113734671D01*
X156654923Y-113734671D01*
X156468424Y-113771768D01*
X156292745Y-113844536D01*
X156134639Y-113950180D01*
X156050011Y-114034808D01*
X156050011Y-104700006D01*
X156110402Y-104725021D01*
X156235981Y-104750000D01*
X156364019Y-104750000D01*
X156489598Y-104725021D01*
X156607890Y-104676022D01*
X156650001Y-104647885D01*
X156650000Y-110577906D01*
G37*
G04 #@! TD.AperFunction*
D17*
X154749990Y-116077896D02*
X154747814Y-116099990D01*
X154749990Y-116122084D01*
X154749990Y-116122094D01*
X154756501Y-116188204D01*
X154779831Y-116265112D01*
X154782233Y-116273030D01*
X154824019Y-116351206D01*
X154866162Y-116402557D01*
X154880253Y-116419727D01*
X154897424Y-116433819D01*
X157550001Y-119086397D01*
X157550001Y-119452116D01*
X157507890Y-119423978D01*
X157389598Y-119374979D01*
X157264019Y-119350000D01*
X157186396Y-119350000D01*
X156390605Y-118554210D01*
X156376514Y-118537040D01*
X156307993Y-118480806D01*
X156229818Y-118439020D01*
X156144992Y-118413288D01*
X156078882Y-118406777D01*
X156078871Y-118406777D01*
X156056777Y-118404601D01*
X156034683Y-118406777D01*
X146093172Y-118406777D01*
X146056327Y-118369932D01*
X146056322Y-118369926D01*
X145318832Y-117632437D01*
X145318828Y-117632432D01*
X140136395Y-112450000D01*
X152277906Y-112450000D01*
X152300000Y-112452176D01*
X152322094Y-112450000D01*
X152322105Y-112450000D01*
X152388215Y-112443489D01*
X152473041Y-112417757D01*
X152551216Y-112375971D01*
X152619737Y-112319737D01*
X152633829Y-112302566D01*
X154583828Y-110352568D01*
X154583832Y-110352563D01*
X154749991Y-110186405D01*
X154749990Y-116077896D01*
G04 #@! TA.AperFunction,Conductor*
D21*
G36*
X154749990Y-116077896D02*
G01*
X154747814Y-116099990D01*
X154749990Y-116122084D01*
X154749990Y-116122094D01*
X154756501Y-116188204D01*
X154779831Y-116265112D01*
X154782233Y-116273030D01*
X154824019Y-116351206D01*
X154866162Y-116402557D01*
X154880253Y-116419727D01*
X154897424Y-116433819D01*
X157550001Y-119086397D01*
X157550001Y-119452116D01*
X157507890Y-119423978D01*
X157389598Y-119374979D01*
X157264019Y-119350000D01*
X157186396Y-119350000D01*
X156390605Y-118554210D01*
X156376514Y-118537040D01*
X156307993Y-118480806D01*
X156229818Y-118439020D01*
X156144992Y-118413288D01*
X156078882Y-118406777D01*
X156078871Y-118406777D01*
X156056777Y-118404601D01*
X156034683Y-118406777D01*
X146093172Y-118406777D01*
X146056327Y-118369932D01*
X146056322Y-118369926D01*
X145318832Y-117632437D01*
X145318828Y-117632432D01*
X140136395Y-112450000D01*
X152277906Y-112450000D01*
X152300000Y-112452176D01*
X152322094Y-112450000D01*
X152322105Y-112450000D01*
X152388215Y-112443489D01*
X152473041Y-112417757D01*
X152551216Y-112375971D01*
X152619737Y-112319737D01*
X152633829Y-112302566D01*
X154583828Y-110352568D01*
X154583832Y-110352563D01*
X154749991Y-110186405D01*
X154749990Y-116077896D01*
G37*
G04 #@! TD.AperFunction*
D17*
X152350000Y-106230353D02*
X152348065Y-106250000D01*
X152355788Y-106328414D01*
X152378660Y-106403814D01*
X152415803Y-106473303D01*
X152455591Y-106521785D01*
X152465789Y-106534211D01*
X152526697Y-106584197D01*
X152596186Y-106621340D01*
X152671586Y-106644212D01*
X152750000Y-106651935D01*
X152769646Y-106650000D01*
X153350011Y-106650000D01*
X153350011Y-106677886D01*
X153347834Y-106699990D01*
X153356522Y-106788205D01*
X153368038Y-106826169D01*
X153323978Y-106892110D01*
X153274979Y-107010402D01*
X153250000Y-107135981D01*
X153250000Y-107264019D01*
X153274979Y-107389598D01*
X153323978Y-107507890D01*
X153395112Y-107614351D01*
X153450001Y-107669240D01*
X153450000Y-108913604D01*
X151213615Y-111149990D01*
X140774388Y-111149990D01*
X139721828Y-110097431D01*
X139707738Y-110080262D01*
X139670889Y-110050021D01*
X149361887Y-110050021D01*
X149383981Y-110052197D01*
X149406075Y-110050021D01*
X149406086Y-110050021D01*
X149472196Y-110043510D01*
X149557022Y-110017778D01*
X149635197Y-109975992D01*
X149703718Y-109919758D01*
X149717810Y-109902587D01*
X152102573Y-107517825D01*
X152119738Y-107503738D01*
X152133825Y-107486573D01*
X152133829Y-107486569D01*
X152175972Y-107435218D01*
X152217758Y-107357042D01*
X152224265Y-107335591D01*
X152243490Y-107272216D01*
X152250001Y-107206106D01*
X152250001Y-107206096D01*
X152252177Y-107184002D01*
X152250001Y-107161908D01*
X152250001Y-103650000D01*
X152264019Y-103650000D01*
X152350001Y-103632897D01*
X152350000Y-106230353D01*
G04 #@! TA.AperFunction,Conductor*
D21*
G36*
X152350000Y-106230353D02*
G01*
X152348065Y-106250000D01*
X152355788Y-106328414D01*
X152378660Y-106403814D01*
X152415803Y-106473303D01*
X152455591Y-106521785D01*
X152465789Y-106534211D01*
X152526697Y-106584197D01*
X152596186Y-106621340D01*
X152671586Y-106644212D01*
X152750000Y-106651935D01*
X152769646Y-106650000D01*
X153350011Y-106650000D01*
X153350011Y-106677886D01*
X153347834Y-106699990D01*
X153356522Y-106788205D01*
X153368038Y-106826169D01*
X153323978Y-106892110D01*
X153274979Y-107010402D01*
X153250000Y-107135981D01*
X153250000Y-107264019D01*
X153274979Y-107389598D01*
X153323978Y-107507890D01*
X153395112Y-107614351D01*
X153450001Y-107669240D01*
X153450000Y-108913604D01*
X151213615Y-111149990D01*
X140774388Y-111149990D01*
X139721828Y-110097431D01*
X139707738Y-110080262D01*
X139670889Y-110050021D01*
X149361887Y-110050021D01*
X149383981Y-110052197D01*
X149406075Y-110050021D01*
X149406086Y-110050021D01*
X149472196Y-110043510D01*
X149557022Y-110017778D01*
X149635197Y-109975992D01*
X149703718Y-109919758D01*
X149717810Y-109902587D01*
X152102573Y-107517825D01*
X152119738Y-107503738D01*
X152133825Y-107486573D01*
X152133829Y-107486569D01*
X152175972Y-107435218D01*
X152217758Y-107357042D01*
X152224265Y-107335591D01*
X152243490Y-107272216D01*
X152250001Y-107206106D01*
X152250001Y-107206096D01*
X152252177Y-107184002D01*
X152250001Y-107161908D01*
X152250001Y-103650000D01*
X152264019Y-103650000D01*
X152350001Y-103632897D01*
X152350000Y-106230353D01*
G37*
G04 #@! TD.AperFunction*
D17*
X150097000Y-79177991D02*
X151825498Y-79410158D01*
X153526511Y-79795058D01*
X155186585Y-80329648D01*
X156792550Y-81009686D01*
X158331715Y-81829799D01*
X159792203Y-82783696D01*
X161112533Y-83820554D01*
X162486014Y-84997158D01*
X163359476Y-85846125D01*
X164111790Y-86788034D01*
X164740124Y-87816815D01*
X165234560Y-88916226D01*
X165587305Y-90068942D01*
X165793090Y-91258479D01*
X165850001Y-92306556D01*
X165850000Y-94680436D01*
X165817646Y-95010404D01*
X165727500Y-95308983D01*
X165581076Y-95584365D01*
X165383950Y-95826065D01*
X165143637Y-96024870D01*
X164869279Y-96173215D01*
X164571343Y-96265441D01*
X164242531Y-96300001D01*
X158269646Y-96300001D01*
X158250000Y-96298066D01*
X158230353Y-96300001D01*
X158171586Y-96305789D01*
X158096186Y-96328661D01*
X158026697Y-96365804D01*
X157965789Y-96415790D01*
X157915803Y-96476698D01*
X157878660Y-96546187D01*
X157855788Y-96621587D01*
X157848065Y-96700001D01*
X157850000Y-96719648D01*
X157850001Y-110680343D01*
X157848065Y-110700000D01*
X157849340Y-110712945D01*
X157550000Y-110413605D01*
X157550000Y-101822094D01*
X157552176Y-101800000D01*
X157550000Y-101777906D01*
X157550000Y-101777895D01*
X157543489Y-101711785D01*
X157517757Y-101626959D01*
X157501677Y-101596876D01*
X157475971Y-101548783D01*
X157433828Y-101497432D01*
X157433824Y-101497428D01*
X157419737Y-101480263D01*
X157402572Y-101466176D01*
X156250060Y-100313665D01*
X156250060Y-99526944D01*
X156292745Y-99555465D01*
X156468424Y-99628233D01*
X156654923Y-99665330D01*
X156845077Y-99665330D01*
X157031576Y-99628233D01*
X157207255Y-99555465D01*
X157365361Y-99449821D01*
X157499820Y-99315362D01*
X157605464Y-99157256D01*
X157678232Y-98981577D01*
X157715329Y-98795078D01*
X157715329Y-98604924D01*
X157678232Y-98418425D01*
X157605464Y-98242746D01*
X157499820Y-98084640D01*
X157365361Y-97950181D01*
X157207255Y-97844537D01*
X157031576Y-97771769D01*
X156845077Y-97734672D01*
X156654923Y-97734672D01*
X156468424Y-97771769D01*
X156292745Y-97844537D01*
X156250060Y-97873058D01*
X156250060Y-96122151D01*
X156252236Y-96100059D01*
X156250060Y-96077967D01*
X156250060Y-96077955D01*
X156243549Y-96011845D01*
X156217817Y-95927019D01*
X156195978Y-95886162D01*
X156176031Y-95848843D01*
X156133888Y-95797492D01*
X156133884Y-95797488D01*
X156119797Y-95780323D01*
X156102632Y-95766236D01*
X151286385Y-90949990D01*
X158301597Y-90949990D01*
X159584437Y-92232831D01*
X159507122Y-92310146D01*
X159386740Y-92490310D01*
X159303820Y-92690497D01*
X159261547Y-92903014D01*
X159261547Y-93119696D01*
X159303820Y-93332213D01*
X159386740Y-93532400D01*
X159507122Y-93712564D01*
X159660338Y-93865780D01*
X159756396Y-93929964D01*
X159740502Y-93936548D01*
X159560338Y-94056930D01*
X159407122Y-94210146D01*
X159286740Y-94390310D01*
X159203820Y-94590497D01*
X159161547Y-94803014D01*
X159161547Y-95019696D01*
X159203820Y-95232213D01*
X159286740Y-95432400D01*
X159407122Y-95612564D01*
X159560338Y-95765780D01*
X159740502Y-95886162D01*
X159940689Y-95969082D01*
X160153206Y-96011355D01*
X160369888Y-96011355D01*
X160582405Y-95969082D01*
X160782592Y-95886162D01*
X160962756Y-95765780D01*
X161115972Y-95612564D01*
X161236354Y-95432400D01*
X161319274Y-95232213D01*
X161361547Y-95019696D01*
X161361547Y-94803014D01*
X161319274Y-94590497D01*
X161260557Y-94448741D01*
X161884661Y-93824637D01*
X161894196Y-93844080D01*
X161980671Y-93957287D01*
X162038061Y-94007838D01*
X161942713Y-94080671D01*
X161848551Y-94187571D01*
X161777054Y-94310786D01*
X161730968Y-94445582D01*
X161712066Y-94586779D01*
X161685891Y-95336322D01*
X161694898Y-95478494D01*
X161731468Y-95616177D01*
X161794196Y-95744080D01*
X161880671Y-95857287D01*
X161987571Y-95951449D01*
X162110786Y-96022946D01*
X162245582Y-96069032D01*
X162386779Y-96087934D01*
X163136322Y-96114109D01*
X163278494Y-96105102D01*
X163416177Y-96068532D01*
X163544080Y-96005804D01*
X163657287Y-95919329D01*
X163751449Y-95812429D01*
X163822946Y-95689214D01*
X163869032Y-95554418D01*
X163887934Y-95413221D01*
X163914109Y-94663678D01*
X163905102Y-94521506D01*
X163868532Y-94383823D01*
X163805804Y-94255920D01*
X163719329Y-94142713D01*
X163661939Y-94092162D01*
X163757287Y-94019329D01*
X163851449Y-93912429D01*
X163922946Y-93789214D01*
X163969032Y-93654418D01*
X163987934Y-93513221D01*
X164014109Y-92763678D01*
X164005102Y-92621506D01*
X163968532Y-92483823D01*
X163905804Y-92355920D01*
X163819329Y-92242713D01*
X163712429Y-92148551D01*
X163589214Y-92077054D01*
X163454418Y-92030968D01*
X163313221Y-92012066D01*
X162563678Y-91985891D01*
X162421506Y-91994898D01*
X162287359Y-92030529D01*
X162287359Y-91800878D01*
X163015617Y-91072621D01*
X163032781Y-91058535D01*
X163046868Y-91041370D01*
X163046872Y-91041366D01*
X163089015Y-90990015D01*
X163130801Y-90911839D01*
X163139770Y-90882273D01*
X163156533Y-90827013D01*
X163163044Y-90760903D01*
X163163044Y-90760892D01*
X163165220Y-90738798D01*
X163163044Y-90716704D01*
X163163044Y-87235138D01*
X163165220Y-87213044D01*
X163163044Y-87190950D01*
X163163044Y-87190939D01*
X163156533Y-87124829D01*
X163130801Y-87040003D01*
X163108615Y-86998496D01*
X163089015Y-86961827D01*
X163046872Y-86910476D01*
X163046868Y-86910472D01*
X163032781Y-86893307D01*
X163015616Y-86879220D01*
X158724963Y-82588568D01*
X158722963Y-82578513D01*
X158673964Y-82460221D01*
X158602830Y-82353760D01*
X158512293Y-82263223D01*
X158405832Y-82192089D01*
X158287540Y-82143090D01*
X158161961Y-82118111D01*
X158033923Y-82118111D01*
X157908344Y-82143090D01*
X157790052Y-82192089D01*
X157683591Y-82263223D01*
X157593054Y-82353760D01*
X157521920Y-82460221D01*
X157472921Y-82578513D01*
X157447942Y-82704092D01*
X157447942Y-82832130D01*
X157472921Y-82957709D01*
X157521920Y-83076001D01*
X157593054Y-83182462D01*
X157683591Y-83272999D01*
X157790052Y-83344133D01*
X157908344Y-83393132D01*
X158033923Y-83418111D01*
X158161961Y-83418111D01*
X158261847Y-83398243D01*
X162054651Y-87191047D01*
X161292442Y-87164429D01*
X161272886Y-87161811D01*
X161253194Y-87163058D01*
X161253184Y-87163058D01*
X161197851Y-87166564D01*
X161194250Y-87166792D01*
X161118099Y-87187019D01*
X161047356Y-87221714D01*
X160984740Y-87269544D01*
X160967267Y-87289381D01*
X160932659Y-87328670D01*
X160893114Y-87396820D01*
X160867624Y-87471376D01*
X160857169Y-87549473D01*
X160858418Y-87569179D01*
X160751599Y-90628020D01*
X160748980Y-90647585D01*
X160750228Y-90667285D01*
X160750228Y-90667287D01*
X160751783Y-90691829D01*
X160753962Y-90726220D01*
X160774189Y-90802372D01*
X160808884Y-90873115D01*
X160856714Y-90935731D01*
X160891307Y-90966202D01*
X160915840Y-90987812D01*
X160983991Y-91027357D01*
X161058546Y-91052847D01*
X161136643Y-91063302D01*
X161156350Y-91062053D01*
X161733248Y-91082199D01*
X161534788Y-91280659D01*
X161517623Y-91294746D01*
X161503536Y-91311911D01*
X161503531Y-91311916D01*
X161461388Y-91363267D01*
X161419602Y-91441443D01*
X161393871Y-91526268D01*
X161385183Y-91614483D01*
X161387360Y-91636587D01*
X161387359Y-92613448D01*
X161336354Y-92490310D01*
X161215972Y-92310146D01*
X161062756Y-92156930D01*
X160882592Y-92036548D01*
X160682405Y-91953628D01*
X160552108Y-91927710D01*
X158821821Y-90197424D01*
X158807729Y-90180253D01*
X158739208Y-90124019D01*
X158661033Y-90082233D01*
X158576207Y-90056501D01*
X158510097Y-90049990D01*
X158510086Y-90049990D01*
X158487992Y-90047814D01*
X158465898Y-90049990D01*
X144359408Y-90049990D01*
X144966898Y-89442500D01*
X146023261Y-89442500D01*
X146078149Y-89497388D01*
X146184610Y-89568522D01*
X146302902Y-89617521D01*
X146428481Y-89642500D01*
X146556519Y-89642500D01*
X146682098Y-89617521D01*
X146800390Y-89568522D01*
X146906851Y-89497388D01*
X146997388Y-89406851D01*
X147068522Y-89300390D01*
X147117521Y-89182098D01*
X147142500Y-89056519D01*
X147142500Y-88928481D01*
X147117521Y-88802902D01*
X147068522Y-88684610D01*
X146997388Y-88578149D01*
X146906851Y-88487612D01*
X146800390Y-88416478D01*
X146762932Y-88400962D01*
X148081466Y-88400962D01*
X148062603Y-88515212D01*
X148067264Y-88657592D01*
X148099612Y-88796327D01*
X148158405Y-88926086D01*
X148533405Y-89575606D01*
X148616383Y-89691402D01*
X148720357Y-89788784D01*
X148841331Y-89864011D01*
X148974658Y-89914191D01*
X149115212Y-89937397D01*
X149257592Y-89932736D01*
X149396327Y-89900388D01*
X149526086Y-89841595D01*
X150175606Y-89466595D01*
X150291402Y-89383617D01*
X150388784Y-89279643D01*
X150464011Y-89158669D01*
X150514191Y-89025342D01*
X150535006Y-88899267D01*
X150574658Y-88914191D01*
X150715212Y-88937397D01*
X150857592Y-88932736D01*
X150996327Y-88900388D01*
X151126086Y-88841595D01*
X151775606Y-88466595D01*
X151891402Y-88383617D01*
X151988784Y-88279643D01*
X152064011Y-88158669D01*
X152114191Y-88025342D01*
X152137397Y-87884788D01*
X152132736Y-87742408D01*
X152100388Y-87603673D01*
X152041595Y-87473914D01*
X151666595Y-86824394D01*
X151583617Y-86708598D01*
X151479643Y-86611216D01*
X151358669Y-86535989D01*
X151225342Y-86485809D01*
X151084788Y-86462603D01*
X150942408Y-86467264D01*
X150803673Y-86499612D01*
X150751970Y-86523038D01*
X150684177Y-86502474D01*
X150595962Y-86493786D01*
X150507747Y-86502474D01*
X150422922Y-86528205D01*
X150344746Y-86569991D01*
X150276225Y-86626225D01*
X150219991Y-86694746D01*
X150178205Y-86772922D01*
X150152474Y-86857747D01*
X150152295Y-86859561D01*
X150024394Y-86933405D01*
X149908598Y-87016383D01*
X149811216Y-87120357D01*
X149735989Y-87241331D01*
X149685809Y-87374658D01*
X149664994Y-87500733D01*
X149625342Y-87485809D01*
X149484788Y-87462603D01*
X149342408Y-87467264D01*
X149203673Y-87499612D01*
X149126539Y-87534561D01*
X149124003Y-87533205D01*
X149039177Y-87507473D01*
X148973067Y-87500962D01*
X148973056Y-87500962D01*
X148950962Y-87498786D01*
X148928868Y-87500962D01*
X148488613Y-87500962D01*
X148551045Y-87475102D01*
X148731209Y-87354720D01*
X148884425Y-87201504D01*
X149004807Y-87021340D01*
X149087727Y-86821153D01*
X149130000Y-86608636D01*
X149130000Y-86483819D01*
X149309142Y-86558022D01*
X149521659Y-86600295D01*
X149738341Y-86600295D01*
X149950858Y-86558022D01*
X150151045Y-86475102D01*
X150331209Y-86354720D01*
X150484425Y-86201504D01*
X150604807Y-86021340D01*
X150687727Y-85821153D01*
X150730000Y-85608636D01*
X150730000Y-85391954D01*
X150687727Y-85179437D01*
X150604807Y-84979250D01*
X150484425Y-84799086D01*
X150406425Y-84721086D01*
X151848926Y-84721086D01*
X151851504Y-84799836D01*
X151869396Y-84876570D01*
X151901915Y-84948340D01*
X151913412Y-84964384D01*
X152443771Y-85882994D01*
X152451915Y-85900968D01*
X152463409Y-85917008D01*
X152463413Y-85917015D01*
X152497809Y-85965015D01*
X152555317Y-86018877D01*
X152622228Y-86060485D01*
X152695971Y-86088240D01*
X152773712Y-86101075D01*
X152773713Y-86101075D01*
X152852463Y-86098497D01*
X152929197Y-86080605D01*
X152982985Y-86056234D01*
X152982988Y-86056232D01*
X153000967Y-86048086D01*
X153017011Y-86036589D01*
X155667672Y-84506230D01*
X155685646Y-84498086D01*
X155701686Y-84486592D01*
X155701693Y-84486588D01*
X155749693Y-84452192D01*
X155803555Y-84394684D01*
X155845163Y-84327773D01*
X155872918Y-84254030D01*
X155885753Y-84176289D01*
X155883175Y-84097538D01*
X155865283Y-84020804D01*
X155840912Y-83967016D01*
X155840912Y-83967015D01*
X155840908Y-83967009D01*
X155832764Y-83949034D01*
X155821270Y-83932993D01*
X155290912Y-83014388D01*
X155282764Y-82996406D01*
X155236869Y-82932359D01*
X155179361Y-82878497D01*
X155112450Y-82836889D01*
X155038707Y-82809134D01*
X154960966Y-82796299D01*
X154882215Y-82798877D01*
X154805481Y-82816769D01*
X154751693Y-82841140D01*
X154751687Y-82841144D01*
X154733712Y-82849288D01*
X154717672Y-82860782D01*
X152067015Y-84391140D01*
X152049033Y-84399288D01*
X152032986Y-84410787D01*
X151984986Y-84445183D01*
X151931124Y-84502691D01*
X151889516Y-84569602D01*
X151861761Y-84643345D01*
X151848926Y-84721086D01*
X150406425Y-84721086D01*
X150331209Y-84645870D01*
X150151045Y-84525488D01*
X149950858Y-84442568D01*
X149738341Y-84400295D01*
X149521659Y-84400295D01*
X149309142Y-84442568D01*
X149108955Y-84525488D01*
X148928791Y-84645870D01*
X148775575Y-84799086D01*
X148680000Y-84942124D01*
X148680000Y-82152094D01*
X148682176Y-82130000D01*
X148680000Y-82107906D01*
X148680000Y-82107895D01*
X148673489Y-82041785D01*
X148647757Y-81956959D01*
X148607477Y-81881601D01*
X148605971Y-81878783D01*
X148563828Y-81827432D01*
X148563824Y-81827428D01*
X148549737Y-81810263D01*
X148532573Y-81796177D01*
X147933828Y-81197433D01*
X147919737Y-81180263D01*
X147851216Y-81124029D01*
X147773041Y-81082243D01*
X147688215Y-81056511D01*
X147622105Y-81050000D01*
X147622094Y-81050000D01*
X147600000Y-81047824D01*
X147577906Y-81050000D01*
X135422091Y-81050000D01*
X135399999Y-81047824D01*
X135377907Y-81050000D01*
X135377895Y-81050000D01*
X135311785Y-81056511D01*
X135226959Y-81082243D01*
X135185477Y-81104416D01*
X135148783Y-81124029D01*
X135097432Y-81166172D01*
X135097428Y-81166176D01*
X135080263Y-81180263D01*
X135066176Y-81197428D01*
X129401615Y-86861990D01*
X129384450Y-86876077D01*
X129370363Y-86893242D01*
X129370358Y-86893247D01*
X129328215Y-86944598D01*
X129286429Y-87022774D01*
X129268667Y-87081329D01*
X129260698Y-87107599D01*
X129259442Y-87120357D01*
X129255184Y-87163588D01*
X129246817Y-87163058D01*
X129246815Y-87163058D01*
X129227116Y-87161810D01*
X129207551Y-87164429D01*
X128147492Y-87201448D01*
X128127786Y-87200200D01*
X128065569Y-87208529D01*
X128049689Y-87210655D01*
X127975133Y-87236145D01*
X127933206Y-87260474D01*
X127906983Y-87275690D01*
X127847857Y-87327771D01*
X127800027Y-87390387D01*
X127765332Y-87461130D01*
X127745105Y-87537282D01*
X127741679Y-87591364D01*
X127740123Y-87615917D01*
X127742742Y-87635482D01*
X127849560Y-90694321D01*
X127848311Y-90714028D01*
X127858766Y-90792124D01*
X127884256Y-90866680D01*
X127923801Y-90934831D01*
X127952494Y-90967405D01*
X127975882Y-90993957D01*
X128038498Y-91041787D01*
X128109241Y-91076482D01*
X128185392Y-91096709D01*
X128264028Y-91101690D01*
X128283593Y-91099071D01*
X128795183Y-91081206D01*
X128656466Y-91219923D01*
X128648784Y-91224029D01*
X128580263Y-91280263D01*
X128524029Y-91348784D01*
X128482243Y-91426959D01*
X128456511Y-91511785D01*
X128447823Y-91600000D01*
X128450001Y-91622114D01*
X128450001Y-92321465D01*
X128362756Y-92234220D01*
X128182592Y-92113838D01*
X127982405Y-92030918D01*
X127769888Y-91988645D01*
X127553206Y-91988645D01*
X127340689Y-92030918D01*
X127140502Y-92113838D01*
X126960338Y-92234220D01*
X126807122Y-92387436D01*
X126686740Y-92567600D01*
X126603820Y-92767787D01*
X126561547Y-92980304D01*
X126561547Y-93196986D01*
X126603820Y-93409503D01*
X126686740Y-93609690D01*
X126807122Y-93789854D01*
X126960338Y-93943070D01*
X127140502Y-94063452D01*
X127156396Y-94070036D01*
X127060338Y-94134220D01*
X126907122Y-94287436D01*
X126786740Y-94467600D01*
X126703820Y-94667787D01*
X126661547Y-94880304D01*
X126661547Y-95096986D01*
X126703820Y-95309503D01*
X126786740Y-95509690D01*
X126907122Y-95689854D01*
X127060338Y-95843070D01*
X127240502Y-95963452D01*
X127440689Y-96046372D01*
X127653206Y-96088645D01*
X127869888Y-96088645D01*
X128082405Y-96046372D01*
X128282592Y-95963452D01*
X128462756Y-95843070D01*
X128615972Y-95689854D01*
X128736354Y-95509690D01*
X128787359Y-95386552D01*
X128787359Y-95715264D01*
X128785183Y-95737359D01*
X128787359Y-95759453D01*
X128787359Y-95759463D01*
X128793870Y-95825573D01*
X128817226Y-95902567D01*
X128819602Y-95910399D01*
X128861388Y-95988575D01*
X128899783Y-96035359D01*
X128917622Y-96057096D01*
X128934792Y-96071187D01*
X129163606Y-96300001D01*
X126269566Y-96300001D01*
X125939598Y-96267647D01*
X125641019Y-96177501D01*
X125365637Y-96031077D01*
X125123937Y-95833951D01*
X124925132Y-95593638D01*
X124776787Y-95319280D01*
X124684561Y-95021344D01*
X124650001Y-94692532D01*
X124650001Y-92308253D01*
X124726516Y-91092591D01*
X124952433Y-89908467D01*
X125324975Y-88762004D01*
X125838273Y-87671267D01*
X126484225Y-86653468D01*
X127253759Y-85723312D01*
X128012696Y-84998262D01*
X129387200Y-83820785D01*
X130767863Y-82740725D01*
X132231585Y-81792523D01*
X133773823Y-80978181D01*
X135382328Y-80304166D01*
X137044389Y-79775804D01*
X138746831Y-79397284D01*
X140476560Y-79171550D01*
X142153833Y-79100001D01*
X148345801Y-79100001D01*
X150097000Y-79177991D01*
G04 #@! TA.AperFunction,Conductor*
D21*
G36*
X150097000Y-79177991D02*
G01*
X151825498Y-79410158D01*
X153526511Y-79795058D01*
X155186585Y-80329648D01*
X156792550Y-81009686D01*
X158331715Y-81829799D01*
X159792203Y-82783696D01*
X161112533Y-83820554D01*
X162486014Y-84997158D01*
X163359476Y-85846125D01*
X164111790Y-86788034D01*
X164740124Y-87816815D01*
X165234560Y-88916226D01*
X165587305Y-90068942D01*
X165793090Y-91258479D01*
X165850001Y-92306556D01*
X165850000Y-94680436D01*
X165817646Y-95010404D01*
X165727500Y-95308983D01*
X165581076Y-95584365D01*
X165383950Y-95826065D01*
X165143637Y-96024870D01*
X164869279Y-96173215D01*
X164571343Y-96265441D01*
X164242531Y-96300001D01*
X158269646Y-96300001D01*
X158250000Y-96298066D01*
X158230353Y-96300001D01*
X158171586Y-96305789D01*
X158096186Y-96328661D01*
X158026697Y-96365804D01*
X157965789Y-96415790D01*
X157915803Y-96476698D01*
X157878660Y-96546187D01*
X157855788Y-96621587D01*
X157848065Y-96700001D01*
X157850000Y-96719648D01*
X157850001Y-110680343D01*
X157848065Y-110700000D01*
X157849340Y-110712945D01*
X157550000Y-110413605D01*
X157550000Y-101822094D01*
X157552176Y-101800000D01*
X157550000Y-101777906D01*
X157550000Y-101777895D01*
X157543489Y-101711785D01*
X157517757Y-101626959D01*
X157501677Y-101596876D01*
X157475971Y-101548783D01*
X157433828Y-101497432D01*
X157433824Y-101497428D01*
X157419737Y-101480263D01*
X157402572Y-101466176D01*
X156250060Y-100313665D01*
X156250060Y-99526944D01*
X156292745Y-99555465D01*
X156468424Y-99628233D01*
X156654923Y-99665330D01*
X156845077Y-99665330D01*
X157031576Y-99628233D01*
X157207255Y-99555465D01*
X157365361Y-99449821D01*
X157499820Y-99315362D01*
X157605464Y-99157256D01*
X157678232Y-98981577D01*
X157715329Y-98795078D01*
X157715329Y-98604924D01*
X157678232Y-98418425D01*
X157605464Y-98242746D01*
X157499820Y-98084640D01*
X157365361Y-97950181D01*
X157207255Y-97844537D01*
X157031576Y-97771769D01*
X156845077Y-97734672D01*
X156654923Y-97734672D01*
X156468424Y-97771769D01*
X156292745Y-97844537D01*
X156250060Y-97873058D01*
X156250060Y-96122151D01*
X156252236Y-96100059D01*
X156250060Y-96077967D01*
X156250060Y-96077955D01*
X156243549Y-96011845D01*
X156217817Y-95927019D01*
X156195978Y-95886162D01*
X156176031Y-95848843D01*
X156133888Y-95797492D01*
X156133884Y-95797488D01*
X156119797Y-95780323D01*
X156102632Y-95766236D01*
X151286385Y-90949990D01*
X158301597Y-90949990D01*
X159584437Y-92232831D01*
X159507122Y-92310146D01*
X159386740Y-92490310D01*
X159303820Y-92690497D01*
X159261547Y-92903014D01*
X159261547Y-93119696D01*
X159303820Y-93332213D01*
X159386740Y-93532400D01*
X159507122Y-93712564D01*
X159660338Y-93865780D01*
X159756396Y-93929964D01*
X159740502Y-93936548D01*
X159560338Y-94056930D01*
X159407122Y-94210146D01*
X159286740Y-94390310D01*
X159203820Y-94590497D01*
X159161547Y-94803014D01*
X159161547Y-95019696D01*
X159203820Y-95232213D01*
X159286740Y-95432400D01*
X159407122Y-95612564D01*
X159560338Y-95765780D01*
X159740502Y-95886162D01*
X159940689Y-95969082D01*
X160153206Y-96011355D01*
X160369888Y-96011355D01*
X160582405Y-95969082D01*
X160782592Y-95886162D01*
X160962756Y-95765780D01*
X161115972Y-95612564D01*
X161236354Y-95432400D01*
X161319274Y-95232213D01*
X161361547Y-95019696D01*
X161361547Y-94803014D01*
X161319274Y-94590497D01*
X161260557Y-94448741D01*
X161884661Y-93824637D01*
X161894196Y-93844080D01*
X161980671Y-93957287D01*
X162038061Y-94007838D01*
X161942713Y-94080671D01*
X161848551Y-94187571D01*
X161777054Y-94310786D01*
X161730968Y-94445582D01*
X161712066Y-94586779D01*
X161685891Y-95336322D01*
X161694898Y-95478494D01*
X161731468Y-95616177D01*
X161794196Y-95744080D01*
X161880671Y-95857287D01*
X161987571Y-95951449D01*
X162110786Y-96022946D01*
X162245582Y-96069032D01*
X162386779Y-96087934D01*
X163136322Y-96114109D01*
X163278494Y-96105102D01*
X163416177Y-96068532D01*
X163544080Y-96005804D01*
X163657287Y-95919329D01*
X163751449Y-95812429D01*
X163822946Y-95689214D01*
X163869032Y-95554418D01*
X163887934Y-95413221D01*
X163914109Y-94663678D01*
X163905102Y-94521506D01*
X163868532Y-94383823D01*
X163805804Y-94255920D01*
X163719329Y-94142713D01*
X163661939Y-94092162D01*
X163757287Y-94019329D01*
X163851449Y-93912429D01*
X163922946Y-93789214D01*
X163969032Y-93654418D01*
X163987934Y-93513221D01*
X164014109Y-92763678D01*
X164005102Y-92621506D01*
X163968532Y-92483823D01*
X163905804Y-92355920D01*
X163819329Y-92242713D01*
X163712429Y-92148551D01*
X163589214Y-92077054D01*
X163454418Y-92030968D01*
X163313221Y-92012066D01*
X162563678Y-91985891D01*
X162421506Y-91994898D01*
X162287359Y-92030529D01*
X162287359Y-91800878D01*
X163015617Y-91072621D01*
X163032781Y-91058535D01*
X163046868Y-91041370D01*
X163046872Y-91041366D01*
X163089015Y-90990015D01*
X163130801Y-90911839D01*
X163139770Y-90882273D01*
X163156533Y-90827013D01*
X163163044Y-90760903D01*
X163163044Y-90760892D01*
X163165220Y-90738798D01*
X163163044Y-90716704D01*
X163163044Y-87235138D01*
X163165220Y-87213044D01*
X163163044Y-87190950D01*
X163163044Y-87190939D01*
X163156533Y-87124829D01*
X163130801Y-87040003D01*
X163108615Y-86998496D01*
X163089015Y-86961827D01*
X163046872Y-86910476D01*
X163046868Y-86910472D01*
X163032781Y-86893307D01*
X163015616Y-86879220D01*
X158724963Y-82588568D01*
X158722963Y-82578513D01*
X158673964Y-82460221D01*
X158602830Y-82353760D01*
X158512293Y-82263223D01*
X158405832Y-82192089D01*
X158287540Y-82143090D01*
X158161961Y-82118111D01*
X158033923Y-82118111D01*
X157908344Y-82143090D01*
X157790052Y-82192089D01*
X157683591Y-82263223D01*
X157593054Y-82353760D01*
X157521920Y-82460221D01*
X157472921Y-82578513D01*
X157447942Y-82704092D01*
X157447942Y-82832130D01*
X157472921Y-82957709D01*
X157521920Y-83076001D01*
X157593054Y-83182462D01*
X157683591Y-83272999D01*
X157790052Y-83344133D01*
X157908344Y-83393132D01*
X158033923Y-83418111D01*
X158161961Y-83418111D01*
X158261847Y-83398243D01*
X162054651Y-87191047D01*
X161292442Y-87164429D01*
X161272886Y-87161811D01*
X161253194Y-87163058D01*
X161253184Y-87163058D01*
X161197851Y-87166564D01*
X161194250Y-87166792D01*
X161118099Y-87187019D01*
X161047356Y-87221714D01*
X160984740Y-87269544D01*
X160967267Y-87289381D01*
X160932659Y-87328670D01*
X160893114Y-87396820D01*
X160867624Y-87471376D01*
X160857169Y-87549473D01*
X160858418Y-87569179D01*
X160751599Y-90628020D01*
X160748980Y-90647585D01*
X160750228Y-90667285D01*
X160750228Y-90667287D01*
X160751783Y-90691829D01*
X160753962Y-90726220D01*
X160774189Y-90802372D01*
X160808884Y-90873115D01*
X160856714Y-90935731D01*
X160891307Y-90966202D01*
X160915840Y-90987812D01*
X160983991Y-91027357D01*
X161058546Y-91052847D01*
X161136643Y-91063302D01*
X161156350Y-91062053D01*
X161733248Y-91082199D01*
X161534788Y-91280659D01*
X161517623Y-91294746D01*
X161503536Y-91311911D01*
X161503531Y-91311916D01*
X161461388Y-91363267D01*
X161419602Y-91441443D01*
X161393871Y-91526268D01*
X161385183Y-91614483D01*
X161387360Y-91636587D01*
X161387359Y-92613448D01*
X161336354Y-92490310D01*
X161215972Y-92310146D01*
X161062756Y-92156930D01*
X160882592Y-92036548D01*
X160682405Y-91953628D01*
X160552108Y-91927710D01*
X158821821Y-90197424D01*
X158807729Y-90180253D01*
X158739208Y-90124019D01*
X158661033Y-90082233D01*
X158576207Y-90056501D01*
X158510097Y-90049990D01*
X158510086Y-90049990D01*
X158487992Y-90047814D01*
X158465898Y-90049990D01*
X144359408Y-90049990D01*
X144966898Y-89442500D01*
X146023261Y-89442500D01*
X146078149Y-89497388D01*
X146184610Y-89568522D01*
X146302902Y-89617521D01*
X146428481Y-89642500D01*
X146556519Y-89642500D01*
X146682098Y-89617521D01*
X146800390Y-89568522D01*
X146906851Y-89497388D01*
X146997388Y-89406851D01*
X147068522Y-89300390D01*
X147117521Y-89182098D01*
X147142500Y-89056519D01*
X147142500Y-88928481D01*
X147117521Y-88802902D01*
X147068522Y-88684610D01*
X146997388Y-88578149D01*
X146906851Y-88487612D01*
X146800390Y-88416478D01*
X146762932Y-88400962D01*
X148081466Y-88400962D01*
X148062603Y-88515212D01*
X148067264Y-88657592D01*
X148099612Y-88796327D01*
X148158405Y-88926086D01*
X148533405Y-89575606D01*
X148616383Y-89691402D01*
X148720357Y-89788784D01*
X148841331Y-89864011D01*
X148974658Y-89914191D01*
X149115212Y-89937397D01*
X149257592Y-89932736D01*
X149396327Y-89900388D01*
X149526086Y-89841595D01*
X150175606Y-89466595D01*
X150291402Y-89383617D01*
X150388784Y-89279643D01*
X150464011Y-89158669D01*
X150514191Y-89025342D01*
X150535006Y-88899267D01*
X150574658Y-88914191D01*
X150715212Y-88937397D01*
X150857592Y-88932736D01*
X150996327Y-88900388D01*
X151126086Y-88841595D01*
X151775606Y-88466595D01*
X151891402Y-88383617D01*
X151988784Y-88279643D01*
X152064011Y-88158669D01*
X152114191Y-88025342D01*
X152137397Y-87884788D01*
X152132736Y-87742408D01*
X152100388Y-87603673D01*
X152041595Y-87473914D01*
X151666595Y-86824394D01*
X151583617Y-86708598D01*
X151479643Y-86611216D01*
X151358669Y-86535989D01*
X151225342Y-86485809D01*
X151084788Y-86462603D01*
X150942408Y-86467264D01*
X150803673Y-86499612D01*
X150751970Y-86523038D01*
X150684177Y-86502474D01*
X150595962Y-86493786D01*
X150507747Y-86502474D01*
X150422922Y-86528205D01*
X150344746Y-86569991D01*
X150276225Y-86626225D01*
X150219991Y-86694746D01*
X150178205Y-86772922D01*
X150152474Y-86857747D01*
X150152295Y-86859561D01*
X150024394Y-86933405D01*
X149908598Y-87016383D01*
X149811216Y-87120357D01*
X149735989Y-87241331D01*
X149685809Y-87374658D01*
X149664994Y-87500733D01*
X149625342Y-87485809D01*
X149484788Y-87462603D01*
X149342408Y-87467264D01*
X149203673Y-87499612D01*
X149126539Y-87534561D01*
X149124003Y-87533205D01*
X149039177Y-87507473D01*
X148973067Y-87500962D01*
X148973056Y-87500962D01*
X148950962Y-87498786D01*
X148928868Y-87500962D01*
X148488613Y-87500962D01*
X148551045Y-87475102D01*
X148731209Y-87354720D01*
X148884425Y-87201504D01*
X149004807Y-87021340D01*
X149087727Y-86821153D01*
X149130000Y-86608636D01*
X149130000Y-86483819D01*
X149309142Y-86558022D01*
X149521659Y-86600295D01*
X149738341Y-86600295D01*
X149950858Y-86558022D01*
X150151045Y-86475102D01*
X150331209Y-86354720D01*
X150484425Y-86201504D01*
X150604807Y-86021340D01*
X150687727Y-85821153D01*
X150730000Y-85608636D01*
X150730000Y-85391954D01*
X150687727Y-85179437D01*
X150604807Y-84979250D01*
X150484425Y-84799086D01*
X150406425Y-84721086D01*
X151848926Y-84721086D01*
X151851504Y-84799836D01*
X151869396Y-84876570D01*
X151901915Y-84948340D01*
X151913412Y-84964384D01*
X152443771Y-85882994D01*
X152451915Y-85900968D01*
X152463409Y-85917008D01*
X152463413Y-85917015D01*
X152497809Y-85965015D01*
X152555317Y-86018877D01*
X152622228Y-86060485D01*
X152695971Y-86088240D01*
X152773712Y-86101075D01*
X152773713Y-86101075D01*
X152852463Y-86098497D01*
X152929197Y-86080605D01*
X152982985Y-86056234D01*
X152982988Y-86056232D01*
X153000967Y-86048086D01*
X153017011Y-86036589D01*
X155667672Y-84506230D01*
X155685646Y-84498086D01*
X155701686Y-84486592D01*
X155701693Y-84486588D01*
X155749693Y-84452192D01*
X155803555Y-84394684D01*
X155845163Y-84327773D01*
X155872918Y-84254030D01*
X155885753Y-84176289D01*
X155883175Y-84097538D01*
X155865283Y-84020804D01*
X155840912Y-83967016D01*
X155840912Y-83967015D01*
X155840908Y-83967009D01*
X155832764Y-83949034D01*
X155821270Y-83932993D01*
X155290912Y-83014388D01*
X155282764Y-82996406D01*
X155236869Y-82932359D01*
X155179361Y-82878497D01*
X155112450Y-82836889D01*
X155038707Y-82809134D01*
X154960966Y-82796299D01*
X154882215Y-82798877D01*
X154805481Y-82816769D01*
X154751693Y-82841140D01*
X154751687Y-82841144D01*
X154733712Y-82849288D01*
X154717672Y-82860782D01*
X152067015Y-84391140D01*
X152049033Y-84399288D01*
X152032986Y-84410787D01*
X151984986Y-84445183D01*
X151931124Y-84502691D01*
X151889516Y-84569602D01*
X151861761Y-84643345D01*
X151848926Y-84721086D01*
X150406425Y-84721086D01*
X150331209Y-84645870D01*
X150151045Y-84525488D01*
X149950858Y-84442568D01*
X149738341Y-84400295D01*
X149521659Y-84400295D01*
X149309142Y-84442568D01*
X149108955Y-84525488D01*
X148928791Y-84645870D01*
X148775575Y-84799086D01*
X148680000Y-84942124D01*
X148680000Y-82152094D01*
X148682176Y-82130000D01*
X148680000Y-82107906D01*
X148680000Y-82107895D01*
X148673489Y-82041785D01*
X148647757Y-81956959D01*
X148607477Y-81881601D01*
X148605971Y-81878783D01*
X148563828Y-81827432D01*
X148563824Y-81827428D01*
X148549737Y-81810263D01*
X148532573Y-81796177D01*
X147933828Y-81197433D01*
X147919737Y-81180263D01*
X147851216Y-81124029D01*
X147773041Y-81082243D01*
X147688215Y-81056511D01*
X147622105Y-81050000D01*
X147622094Y-81050000D01*
X147600000Y-81047824D01*
X147577906Y-81050000D01*
X135422091Y-81050000D01*
X135399999Y-81047824D01*
X135377907Y-81050000D01*
X135377895Y-81050000D01*
X135311785Y-81056511D01*
X135226959Y-81082243D01*
X135185477Y-81104416D01*
X135148783Y-81124029D01*
X135097432Y-81166172D01*
X135097428Y-81166176D01*
X135080263Y-81180263D01*
X135066176Y-81197428D01*
X129401615Y-86861990D01*
X129384450Y-86876077D01*
X129370363Y-86893242D01*
X129370358Y-86893247D01*
X129328215Y-86944598D01*
X129286429Y-87022774D01*
X129268667Y-87081329D01*
X129260698Y-87107599D01*
X129259442Y-87120357D01*
X129255184Y-87163588D01*
X129246817Y-87163058D01*
X129246815Y-87163058D01*
X129227116Y-87161810D01*
X129207551Y-87164429D01*
X128147492Y-87201448D01*
X128127786Y-87200200D01*
X128065569Y-87208529D01*
X128049689Y-87210655D01*
X127975133Y-87236145D01*
X127933206Y-87260474D01*
X127906983Y-87275690D01*
X127847857Y-87327771D01*
X127800027Y-87390387D01*
X127765332Y-87461130D01*
X127745105Y-87537282D01*
X127741679Y-87591364D01*
X127740123Y-87615917D01*
X127742742Y-87635482D01*
X127849560Y-90694321D01*
X127848311Y-90714028D01*
X127858766Y-90792124D01*
X127884256Y-90866680D01*
X127923801Y-90934831D01*
X127952494Y-90967405D01*
X127975882Y-90993957D01*
X128038498Y-91041787D01*
X128109241Y-91076482D01*
X128185392Y-91096709D01*
X128264028Y-91101690D01*
X128283593Y-91099071D01*
X128795183Y-91081206D01*
X128656466Y-91219923D01*
X128648784Y-91224029D01*
X128580263Y-91280263D01*
X128524029Y-91348784D01*
X128482243Y-91426959D01*
X128456511Y-91511785D01*
X128447823Y-91600000D01*
X128450001Y-91622114D01*
X128450001Y-92321465D01*
X128362756Y-92234220D01*
X128182592Y-92113838D01*
X127982405Y-92030918D01*
X127769888Y-91988645D01*
X127553206Y-91988645D01*
X127340689Y-92030918D01*
X127140502Y-92113838D01*
X126960338Y-92234220D01*
X126807122Y-92387436D01*
X126686740Y-92567600D01*
X126603820Y-92767787D01*
X126561547Y-92980304D01*
X126561547Y-93196986D01*
X126603820Y-93409503D01*
X126686740Y-93609690D01*
X126807122Y-93789854D01*
X126960338Y-93943070D01*
X127140502Y-94063452D01*
X127156396Y-94070036D01*
X127060338Y-94134220D01*
X126907122Y-94287436D01*
X126786740Y-94467600D01*
X126703820Y-94667787D01*
X126661547Y-94880304D01*
X126661547Y-95096986D01*
X126703820Y-95309503D01*
X126786740Y-95509690D01*
X126907122Y-95689854D01*
X127060338Y-95843070D01*
X127240502Y-95963452D01*
X127440689Y-96046372D01*
X127653206Y-96088645D01*
X127869888Y-96088645D01*
X128082405Y-96046372D01*
X128282592Y-95963452D01*
X128462756Y-95843070D01*
X128615972Y-95689854D01*
X128736354Y-95509690D01*
X128787359Y-95386552D01*
X128787359Y-95715264D01*
X128785183Y-95737359D01*
X128787359Y-95759453D01*
X128787359Y-95759463D01*
X128793870Y-95825573D01*
X128817226Y-95902567D01*
X128819602Y-95910399D01*
X128861388Y-95988575D01*
X128899783Y-96035359D01*
X128917622Y-96057096D01*
X128934792Y-96071187D01*
X129163606Y-96300001D01*
X126269566Y-96300001D01*
X125939598Y-96267647D01*
X125641019Y-96177501D01*
X125365637Y-96031077D01*
X125123937Y-95833951D01*
X124925132Y-95593638D01*
X124776787Y-95319280D01*
X124684561Y-95021344D01*
X124650001Y-94692532D01*
X124650001Y-92308253D01*
X124726516Y-91092591D01*
X124952433Y-89908467D01*
X125324975Y-88762004D01*
X125838273Y-87671267D01*
X126484225Y-86653468D01*
X127253759Y-85723312D01*
X128012696Y-84998262D01*
X129387200Y-83820785D01*
X130767863Y-82740725D01*
X132231585Y-81792523D01*
X133773823Y-80978181D01*
X135382328Y-80304166D01*
X137044389Y-79775804D01*
X138746831Y-79397284D01*
X140476560Y-79171550D01*
X142153833Y-79100001D01*
X148345801Y-79100001D01*
X150097000Y-79177991D01*
G37*
G04 #@! TD.AperFunction*
D17*
X144195112Y-90985649D02*
X144123978Y-91092110D01*
X144074979Y-91210402D01*
X144050000Y-91335981D01*
X144050000Y-91464019D01*
X144074979Y-91589598D01*
X144123978Y-91707890D01*
X144195112Y-91814351D01*
X144285649Y-91904888D01*
X144392110Y-91976022D01*
X144510402Y-92025021D01*
X144635981Y-92050000D01*
X144764019Y-92050000D01*
X144889598Y-92025021D01*
X145007890Y-91976022D01*
X145114351Y-91904888D01*
X145204888Y-91814351D01*
X145276022Y-91707890D01*
X145325021Y-91589598D01*
X145350000Y-91464019D01*
X145350000Y-91386396D01*
X145386396Y-91350000D01*
X149935981Y-91350000D01*
X149810402Y-91374979D01*
X149692110Y-91423978D01*
X149585649Y-91495112D01*
X149495112Y-91585649D01*
X149423978Y-91692110D01*
X149374979Y-91810402D01*
X149350000Y-91935981D01*
X149350000Y-92064019D01*
X149374979Y-92189598D01*
X149423978Y-92307890D01*
X149495112Y-92414351D01*
X149585649Y-92504888D01*
X149692110Y-92576022D01*
X149810402Y-92625021D01*
X149935981Y-92650000D01*
X150064019Y-92650000D01*
X150189598Y-92625021D01*
X150307890Y-92576022D01*
X150414351Y-92504888D01*
X150469239Y-92450000D01*
X150801607Y-92450000D01*
X154950051Y-96598445D01*
X154950051Y-97659954D01*
X152387530Y-95097434D01*
X152373438Y-95080263D01*
X152304917Y-95024029D01*
X152226742Y-94982243D01*
X152141916Y-94956511D01*
X152075806Y-94950000D01*
X152075795Y-94950000D01*
X152053701Y-94947824D01*
X152031607Y-94950000D01*
X150206907Y-94950000D01*
X150152019Y-94895112D01*
X150045558Y-94823978D01*
X149927266Y-94774979D01*
X149801687Y-94750000D01*
X149673649Y-94750000D01*
X149548070Y-94774979D01*
X149429778Y-94823978D01*
X149323317Y-94895112D01*
X149232780Y-94985649D01*
X149161646Y-95092110D01*
X149112647Y-95210402D01*
X149087668Y-95335981D01*
X149087668Y-95464019D01*
X149112647Y-95589598D01*
X149161646Y-95707890D01*
X149232780Y-95814351D01*
X149323317Y-95904888D01*
X149414768Y-95965993D01*
X149345112Y-96035649D01*
X149273978Y-96142110D01*
X149224979Y-96260402D01*
X149200000Y-96385981D01*
X149200000Y-96514019D01*
X149224979Y-96639598D01*
X149273978Y-96757890D01*
X149345112Y-96864351D01*
X149435649Y-96954888D01*
X149542110Y-97026022D01*
X149660402Y-97075021D01*
X149785981Y-97100000D01*
X149914019Y-97100000D01*
X150039598Y-97075021D01*
X150157890Y-97026022D01*
X150264351Y-96954888D01*
X150354888Y-96864351D01*
X150426022Y-96757890D01*
X150475021Y-96639598D01*
X150500000Y-96514019D01*
X150500000Y-96449999D01*
X151167103Y-96449999D01*
X151150000Y-96535981D01*
X151150000Y-96664019D01*
X151174979Y-96789598D01*
X151223978Y-96907890D01*
X151295112Y-97014351D01*
X151385649Y-97104888D01*
X151453165Y-97150000D01*
X151385649Y-97195112D01*
X151295112Y-97285649D01*
X151223978Y-97392110D01*
X151174979Y-97510402D01*
X151150000Y-97635981D01*
X151150000Y-97764019D01*
X151174979Y-97889598D01*
X151223978Y-98007890D01*
X151295112Y-98114351D01*
X151385649Y-98204888D01*
X151492110Y-98276022D01*
X151610402Y-98325021D01*
X151735981Y-98350000D01*
X151864019Y-98350000D01*
X151989598Y-98325021D01*
X152107890Y-98276022D01*
X152214351Y-98204888D01*
X152269239Y-98150000D01*
X152353165Y-98150000D01*
X152285649Y-98195112D01*
X152195112Y-98285649D01*
X152123978Y-98392110D01*
X152074979Y-98510402D01*
X152050000Y-98635981D01*
X152050000Y-98717136D01*
X152024019Y-98748794D01*
X151982233Y-98826970D01*
X151962307Y-98892658D01*
X151956502Y-98911795D01*
X151950182Y-98975971D01*
X151947814Y-99000010D01*
X151949991Y-99022114D01*
X151949990Y-102400003D01*
X151892110Y-102423978D01*
X151785649Y-102495112D01*
X151695112Y-102585649D01*
X151630597Y-102682204D01*
X150869999Y-101921606D01*
X150869999Y-99089238D01*
X150924887Y-99034350D01*
X150996021Y-98927889D01*
X151045020Y-98809597D01*
X151069999Y-98684018D01*
X151069999Y-98555980D01*
X151045020Y-98430401D01*
X150996021Y-98312109D01*
X150924887Y-98205648D01*
X150834350Y-98115111D01*
X150727889Y-98043977D01*
X150609597Y-97994978D01*
X150484018Y-97969999D01*
X150355980Y-97969999D01*
X150230401Y-97994978D01*
X150112109Y-98043977D01*
X150005648Y-98115111D01*
X149915111Y-98205648D01*
X149843977Y-98312109D01*
X149794978Y-98430401D01*
X149769999Y-98555980D01*
X149769999Y-98684018D01*
X149794978Y-98809597D01*
X149843977Y-98927889D01*
X149915111Y-99034350D01*
X149969999Y-99089238D01*
X149970000Y-102085897D01*
X149967823Y-102108001D01*
X149976511Y-102196216D01*
X150002242Y-102281041D01*
X150044028Y-102359217D01*
X150086171Y-102410568D01*
X150086176Y-102410573D01*
X150100263Y-102427738D01*
X150117428Y-102441825D01*
X151350001Y-103674399D01*
X151350002Y-106997604D01*
X149197586Y-109150021D01*
X147640075Y-109150021D01*
X148002573Y-108787524D01*
X148019738Y-108773437D01*
X148033825Y-108756272D01*
X148033829Y-108756268D01*
X148075972Y-108704917D01*
X148117758Y-108626741D01*
X148128639Y-108590871D01*
X148143490Y-108541915D01*
X148150001Y-108475805D01*
X148150001Y-108475795D01*
X148152177Y-108453701D01*
X148150001Y-108431606D01*
X148150001Y-107034093D01*
X148152177Y-107011998D01*
X148150001Y-106989904D01*
X148150001Y-106989894D01*
X148143490Y-106923784D01*
X148117758Y-106838958D01*
X148075972Y-106760783D01*
X148036317Y-106712463D01*
X148097374Y-106753260D01*
X148252064Y-106817335D01*
X148416282Y-106850000D01*
X148583718Y-106850000D01*
X148747936Y-106817335D01*
X148902626Y-106753260D01*
X149041844Y-106660238D01*
X149160238Y-106541844D01*
X149253260Y-106402626D01*
X149317335Y-106247936D01*
X149350000Y-106083718D01*
X149350000Y-105916282D01*
X149650000Y-105916282D01*
X149650000Y-106083718D01*
X149682665Y-106247936D01*
X149746740Y-106402626D01*
X149839762Y-106541844D01*
X149958156Y-106660238D01*
X150097374Y-106753260D01*
X150252064Y-106817335D01*
X150416282Y-106850000D01*
X150583718Y-106850000D01*
X150747936Y-106817335D01*
X150902626Y-106753260D01*
X151041844Y-106660238D01*
X151160238Y-106541844D01*
X151253260Y-106402626D01*
X151317335Y-106247936D01*
X151350000Y-106083718D01*
X151350000Y-105916282D01*
X151317335Y-105752064D01*
X151253260Y-105597374D01*
X151160238Y-105458156D01*
X151041844Y-105339762D01*
X150902626Y-105246740D01*
X150747936Y-105182665D01*
X150583718Y-105150000D01*
X150416282Y-105150000D01*
X150252064Y-105182665D01*
X150097374Y-105246740D01*
X149958156Y-105339762D01*
X149839762Y-105458156D01*
X149746740Y-105597374D01*
X149682665Y-105752064D01*
X149650000Y-105916282D01*
X149350000Y-105916282D01*
X149317335Y-105752064D01*
X149253260Y-105597374D01*
X149160238Y-105458156D01*
X149041844Y-105339762D01*
X148902626Y-105246740D01*
X148747936Y-105182665D01*
X148583718Y-105150000D01*
X148416282Y-105150000D01*
X148382580Y-105156704D01*
X148400021Y-105114598D01*
X148425000Y-104989019D01*
X148425000Y-104860981D01*
X148400021Y-104735402D01*
X148351022Y-104617110D01*
X148279888Y-104510649D01*
X148189351Y-104420112D01*
X148150000Y-104393819D01*
X148150000Y-100266917D01*
X148253481Y-100287500D01*
X148381519Y-100287500D01*
X148507098Y-100262521D01*
X148625390Y-100213522D01*
X148731851Y-100142388D01*
X148822388Y-100051851D01*
X148893522Y-99945390D01*
X148942521Y-99827098D01*
X148967500Y-99701519D01*
X148967500Y-99573481D01*
X148942521Y-99447902D01*
X148893522Y-99329610D01*
X148822388Y-99223149D01*
X148817500Y-99218261D01*
X148817500Y-97442057D01*
X148819919Y-97417499D01*
X148816251Y-97380263D01*
X148810265Y-97319483D01*
X148781675Y-97225233D01*
X148735246Y-97138371D01*
X148672764Y-97062236D01*
X148653687Y-97046580D01*
X148350000Y-96742894D01*
X148350000Y-96626131D01*
X148321178Y-96481233D01*
X148264641Y-96344742D01*
X148182563Y-96221903D01*
X148078097Y-96117437D01*
X147955258Y-96035359D01*
X147818767Y-95978822D01*
X147673869Y-95950000D01*
X147526131Y-95950000D01*
X147381233Y-95978822D01*
X147244742Y-96035359D01*
X147121903Y-96117437D01*
X147017437Y-96221903D01*
X146935359Y-96344742D01*
X146878822Y-96481233D01*
X146850000Y-96626131D01*
X146850000Y-96773869D01*
X146878822Y-96918767D01*
X146935359Y-97055258D01*
X147017437Y-97178097D01*
X147121903Y-97282563D01*
X147244742Y-97364641D01*
X147381233Y-97421178D01*
X147526131Y-97450000D01*
X147642894Y-97450000D01*
X147817500Y-97624607D01*
X147817500Y-98181105D01*
X147750000Y-98113604D01*
X147750000Y-98035981D01*
X147725021Y-97910402D01*
X147676022Y-97792110D01*
X147604888Y-97685649D01*
X147514351Y-97595112D01*
X147407890Y-97523978D01*
X147289598Y-97474979D01*
X147164019Y-97450000D01*
X147035981Y-97450000D01*
X146910402Y-97474979D01*
X146792110Y-97523978D01*
X146685649Y-97595112D01*
X146595112Y-97685649D01*
X146523978Y-97792110D01*
X146474979Y-97910402D01*
X146450000Y-98035981D01*
X146450000Y-94869239D01*
X146504888Y-94814351D01*
X146576022Y-94707890D01*
X146625021Y-94589598D01*
X146650000Y-94464019D01*
X146650000Y-94335981D01*
X146625021Y-94210402D01*
X146576022Y-94092110D01*
X146504888Y-93985649D01*
X146414351Y-93895112D01*
X146307890Y-93823978D01*
X146189598Y-93774979D01*
X146064019Y-93750000D01*
X145935981Y-93750000D01*
X145810402Y-93774979D01*
X145692110Y-93823978D01*
X145585649Y-93895112D01*
X145495112Y-93985649D01*
X145423978Y-94092110D01*
X145374979Y-94210402D01*
X145350000Y-94335981D01*
X145350000Y-94464019D01*
X145350639Y-94467230D01*
X145264019Y-94450000D01*
X145135981Y-94450000D01*
X145010402Y-94474979D01*
X144892110Y-94523978D01*
X144785649Y-94595112D01*
X144695112Y-94685649D01*
X144623978Y-94792110D01*
X144574979Y-94910402D01*
X144550000Y-95035981D01*
X144550000Y-95164019D01*
X144574979Y-95289598D01*
X144623978Y-95407890D01*
X144695112Y-95514351D01*
X144750000Y-95569239D01*
X144750001Y-98677885D01*
X144750000Y-98677895D01*
X144750000Y-99043604D01*
X144747824Y-99065698D01*
X144750000Y-99087792D01*
X144750000Y-99087802D01*
X144756511Y-99153912D01*
X144771975Y-99204888D01*
X144782243Y-99238738D01*
X144824029Y-99316914D01*
X144855693Y-99355496D01*
X144880263Y-99385435D01*
X144897434Y-99399527D01*
X145768735Y-100270829D01*
X145664019Y-100250000D01*
X145535981Y-100250000D01*
X145410402Y-100274979D01*
X145292110Y-100323978D01*
X145185649Y-100395112D01*
X145095112Y-100485649D01*
X145023978Y-100592110D01*
X144974979Y-100710402D01*
X144964712Y-100762018D01*
X144854019Y-100740000D01*
X144725981Y-100740000D01*
X144600402Y-100764979D01*
X144550001Y-100785856D01*
X144550001Y-95322092D01*
X144552177Y-95300000D01*
X144550001Y-95277908D01*
X144550001Y-95277896D01*
X144543490Y-95211786D01*
X144517758Y-95126960D01*
X144485266Y-95066172D01*
X144475972Y-95048784D01*
X144450000Y-95017138D01*
X144450000Y-94935981D01*
X144425021Y-94810402D01*
X144376022Y-94692110D01*
X144304888Y-94585649D01*
X144214351Y-94495112D01*
X144107890Y-94423978D01*
X143989598Y-94374979D01*
X143864019Y-94350000D01*
X143735981Y-94350000D01*
X143610402Y-94374979D01*
X143514647Y-94414643D01*
X143525021Y-94389598D01*
X143550000Y-94264019D01*
X143550000Y-94135981D01*
X143525021Y-94010402D01*
X143476022Y-93892110D01*
X143404888Y-93785649D01*
X143314351Y-93695112D01*
X143207890Y-93623978D01*
X143089598Y-93574979D01*
X142964019Y-93550000D01*
X142835981Y-93550000D01*
X142710402Y-93574979D01*
X142592110Y-93623978D01*
X142485649Y-93695112D01*
X142395112Y-93785649D01*
X142323978Y-93892110D01*
X142274979Y-94010402D01*
X142250000Y-94135981D01*
X142250000Y-94264019D01*
X142274979Y-94389598D01*
X142323978Y-94507890D01*
X142395112Y-94614351D01*
X142450000Y-94669239D01*
X142450001Y-100325601D01*
X141597433Y-101178170D01*
X141580262Y-101192262D01*
X141566171Y-101209432D01*
X141524028Y-101260783D01*
X141492516Y-101319738D01*
X141482242Y-101338959D01*
X141456510Y-101423785D01*
X141449999Y-101489895D01*
X141449999Y-101489905D01*
X141447823Y-101511999D01*
X141449999Y-101534094D01*
X141450000Y-104367895D01*
X141447823Y-104389999D01*
X141456511Y-104478214D01*
X141482242Y-104563039D01*
X141524028Y-104641215D01*
X141566171Y-104692566D01*
X141566176Y-104692571D01*
X141580263Y-104709736D01*
X141597428Y-104723823D01*
X142023605Y-105150000D01*
X141916282Y-105150000D01*
X141752064Y-105182665D01*
X141597374Y-105246740D01*
X141458156Y-105339762D01*
X141339762Y-105458156D01*
X141246740Y-105597374D01*
X141182665Y-105752064D01*
X141150000Y-105916282D01*
X141150000Y-106083718D01*
X141182665Y-106247936D01*
X141246740Y-106402626D01*
X141339762Y-106541844D01*
X141458156Y-106660238D01*
X141597374Y-106753260D01*
X141752064Y-106817335D01*
X141916282Y-106850000D01*
X142083718Y-106850000D01*
X142247936Y-106817335D01*
X142402626Y-106753260D01*
X142541844Y-106660238D01*
X142650001Y-106552081D01*
X142650002Y-107847897D01*
X142647825Y-107870001D01*
X142656513Y-107958216D01*
X142682244Y-108043041D01*
X142724030Y-108121217D01*
X142766173Y-108172568D01*
X142766178Y-108172573D01*
X142780265Y-108189738D01*
X142797430Y-108203825D01*
X143216176Y-108622572D01*
X143230263Y-108639737D01*
X143247428Y-108653824D01*
X143247432Y-108653828D01*
X143298783Y-108695971D01*
X143351276Y-108724029D01*
X143376959Y-108737757D01*
X143417355Y-108750011D01*
X139886407Y-108750011D01*
X138866395Y-107730000D01*
X138934019Y-107730000D01*
X139059598Y-107705021D01*
X139177890Y-107656022D01*
X139284351Y-107584888D01*
X139374888Y-107494351D01*
X139446022Y-107387890D01*
X139495021Y-107269598D01*
X139520000Y-107144019D01*
X139520000Y-107015981D01*
X139495021Y-106890402D01*
X139446022Y-106772110D01*
X139374888Y-106665649D01*
X139284351Y-106575112D01*
X139177890Y-106503978D01*
X139059598Y-106454979D01*
X138934019Y-106430000D01*
X138856395Y-106430000D01*
X138750000Y-106323605D01*
X138750000Y-105916282D01*
X139150000Y-105916282D01*
X139150000Y-106083718D01*
X139182665Y-106247936D01*
X139246740Y-106402626D01*
X139339762Y-106541844D01*
X139458156Y-106660238D01*
X139597374Y-106753260D01*
X139752064Y-106817335D01*
X139916282Y-106850000D01*
X140083718Y-106850000D01*
X140247936Y-106817335D01*
X140402626Y-106753260D01*
X140541844Y-106660238D01*
X140660238Y-106541844D01*
X140753260Y-106402626D01*
X140817335Y-106247936D01*
X140850000Y-106083718D01*
X140850000Y-105916282D01*
X140817335Y-105752064D01*
X140753260Y-105597374D01*
X140660238Y-105458156D01*
X140541844Y-105339762D01*
X140402626Y-105246740D01*
X140247936Y-105182665D01*
X140083718Y-105150000D01*
X139916282Y-105150000D01*
X139752064Y-105182665D01*
X139597374Y-105246740D01*
X139458156Y-105339762D01*
X139339762Y-105458156D01*
X139246740Y-105597374D01*
X139182665Y-105752064D01*
X139150000Y-105916282D01*
X138750000Y-105916282D01*
X138750000Y-104169239D01*
X138804888Y-104114351D01*
X138876022Y-104007890D01*
X138925021Y-103889598D01*
X138950000Y-103764019D01*
X138950000Y-103635981D01*
X138925021Y-103510402D01*
X138876022Y-103392110D01*
X138804888Y-103285649D01*
X138714351Y-103195112D01*
X138607890Y-103123978D01*
X138489598Y-103074979D01*
X138364019Y-103050000D01*
X138235981Y-103050000D01*
X138150000Y-103067103D01*
X138150000Y-101169647D01*
X138151935Y-101150000D01*
X138144212Y-101071586D01*
X138121340Y-100996186D01*
X138084197Y-100926697D01*
X138034211Y-100865789D01*
X137973303Y-100815803D01*
X137903814Y-100778660D01*
X137828414Y-100755788D01*
X137769647Y-100750000D01*
X137750000Y-100748065D01*
X137730354Y-100750000D01*
X137069646Y-100750000D01*
X137050000Y-100748065D01*
X137030353Y-100750000D01*
X136971586Y-100755788D01*
X136950010Y-100762333D01*
X136950010Y-96786385D01*
X137286396Y-96450000D01*
X137430761Y-96450000D01*
X137485649Y-96504888D01*
X137592110Y-96576022D01*
X137710402Y-96625021D01*
X137835981Y-96650000D01*
X137964019Y-96650000D01*
X138089598Y-96625021D01*
X138207890Y-96576022D01*
X138250001Y-96547885D01*
X138250001Y-98177885D01*
X138250000Y-98177895D01*
X138250000Y-98365908D01*
X138247824Y-98388002D01*
X138250000Y-98410096D01*
X138250000Y-98410106D01*
X138256511Y-98476216D01*
X138269605Y-98519379D01*
X138282243Y-98561042D01*
X138324029Y-98639218D01*
X138361846Y-98685298D01*
X138380263Y-98707739D01*
X138397434Y-98721831D01*
X140149498Y-100473896D01*
X140149498Y-100551519D01*
X140174477Y-100677098D01*
X140223476Y-100795390D01*
X140294610Y-100901851D01*
X140385147Y-100992388D01*
X140491608Y-101063522D01*
X140609900Y-101112521D01*
X140735479Y-101137500D01*
X140863517Y-101137500D01*
X140989096Y-101112521D01*
X141107388Y-101063522D01*
X141213849Y-100992388D01*
X141304386Y-100901851D01*
X141375520Y-100795390D01*
X141424519Y-100677098D01*
X141449498Y-100551519D01*
X141449498Y-100423481D01*
X141424519Y-100297902D01*
X141375520Y-100179610D01*
X141304386Y-100073149D01*
X141213849Y-99982612D01*
X141107388Y-99911478D01*
X140989096Y-99862479D01*
X140863517Y-99837500D01*
X140785894Y-99837500D01*
X140147260Y-99198866D01*
X140210402Y-99225021D01*
X140335981Y-99250000D01*
X140464019Y-99250000D01*
X140589598Y-99225021D01*
X140707890Y-99176022D01*
X140814351Y-99104888D01*
X140904888Y-99014351D01*
X140976022Y-98907890D01*
X141025021Y-98789598D01*
X141050000Y-98664019D01*
X141050000Y-98535981D01*
X141025021Y-98410402D01*
X140976022Y-98292110D01*
X140904888Y-98185649D01*
X140814351Y-98095112D01*
X140783194Y-98074294D01*
X140775971Y-98060781D01*
X140733828Y-98009430D01*
X140733824Y-98009426D01*
X140719737Y-97992261D01*
X140702573Y-97978175D01*
X139950020Y-97225623D01*
X139950020Y-92317771D01*
X140517762Y-91750030D01*
X143016576Y-91750030D01*
X143038670Y-91752206D01*
X143060764Y-91750030D01*
X143060775Y-91750030D01*
X143126885Y-91743519D01*
X143211711Y-91717787D01*
X143289886Y-91676001D01*
X143358407Y-91619767D01*
X143372499Y-91602597D01*
X144025106Y-90949990D01*
X144230771Y-90949990D01*
X144195112Y-90985649D01*
G04 #@! TA.AperFunction,Conductor*
D21*
G36*
X144195112Y-90985649D02*
G01*
X144123978Y-91092110D01*
X144074979Y-91210402D01*
X144050000Y-91335981D01*
X144050000Y-91464019D01*
X144074979Y-91589598D01*
X144123978Y-91707890D01*
X144195112Y-91814351D01*
X144285649Y-91904888D01*
X144392110Y-91976022D01*
X144510402Y-92025021D01*
X144635981Y-92050000D01*
X144764019Y-92050000D01*
X144889598Y-92025021D01*
X145007890Y-91976022D01*
X145114351Y-91904888D01*
X145204888Y-91814351D01*
X145276022Y-91707890D01*
X145325021Y-91589598D01*
X145350000Y-91464019D01*
X145350000Y-91386396D01*
X145386396Y-91350000D01*
X149935981Y-91350000D01*
X149810402Y-91374979D01*
X149692110Y-91423978D01*
X149585649Y-91495112D01*
X149495112Y-91585649D01*
X149423978Y-91692110D01*
X149374979Y-91810402D01*
X149350000Y-91935981D01*
X149350000Y-92064019D01*
X149374979Y-92189598D01*
X149423978Y-92307890D01*
X149495112Y-92414351D01*
X149585649Y-92504888D01*
X149692110Y-92576022D01*
X149810402Y-92625021D01*
X149935981Y-92650000D01*
X150064019Y-92650000D01*
X150189598Y-92625021D01*
X150307890Y-92576022D01*
X150414351Y-92504888D01*
X150469239Y-92450000D01*
X150801607Y-92450000D01*
X154950051Y-96598445D01*
X154950051Y-97659954D01*
X152387530Y-95097434D01*
X152373438Y-95080263D01*
X152304917Y-95024029D01*
X152226742Y-94982243D01*
X152141916Y-94956511D01*
X152075806Y-94950000D01*
X152075795Y-94950000D01*
X152053701Y-94947824D01*
X152031607Y-94950000D01*
X150206907Y-94950000D01*
X150152019Y-94895112D01*
X150045558Y-94823978D01*
X149927266Y-94774979D01*
X149801687Y-94750000D01*
X149673649Y-94750000D01*
X149548070Y-94774979D01*
X149429778Y-94823978D01*
X149323317Y-94895112D01*
X149232780Y-94985649D01*
X149161646Y-95092110D01*
X149112647Y-95210402D01*
X149087668Y-95335981D01*
X149087668Y-95464019D01*
X149112647Y-95589598D01*
X149161646Y-95707890D01*
X149232780Y-95814351D01*
X149323317Y-95904888D01*
X149414768Y-95965993D01*
X149345112Y-96035649D01*
X149273978Y-96142110D01*
X149224979Y-96260402D01*
X149200000Y-96385981D01*
X149200000Y-96514019D01*
X149224979Y-96639598D01*
X149273978Y-96757890D01*
X149345112Y-96864351D01*
X149435649Y-96954888D01*
X149542110Y-97026022D01*
X149660402Y-97075021D01*
X149785981Y-97100000D01*
X149914019Y-97100000D01*
X150039598Y-97075021D01*
X150157890Y-97026022D01*
X150264351Y-96954888D01*
X150354888Y-96864351D01*
X150426022Y-96757890D01*
X150475021Y-96639598D01*
X150500000Y-96514019D01*
X150500000Y-96449999D01*
X151167103Y-96449999D01*
X151150000Y-96535981D01*
X151150000Y-96664019D01*
X151174979Y-96789598D01*
X151223978Y-96907890D01*
X151295112Y-97014351D01*
X151385649Y-97104888D01*
X151453165Y-97150000D01*
X151385649Y-97195112D01*
X151295112Y-97285649D01*
X151223978Y-97392110D01*
X151174979Y-97510402D01*
X151150000Y-97635981D01*
X151150000Y-97764019D01*
X151174979Y-97889598D01*
X151223978Y-98007890D01*
X151295112Y-98114351D01*
X151385649Y-98204888D01*
X151492110Y-98276022D01*
X151610402Y-98325021D01*
X151735981Y-98350000D01*
X151864019Y-98350000D01*
X151989598Y-98325021D01*
X152107890Y-98276022D01*
X152214351Y-98204888D01*
X152269239Y-98150000D01*
X152353165Y-98150000D01*
X152285649Y-98195112D01*
X152195112Y-98285649D01*
X152123978Y-98392110D01*
X152074979Y-98510402D01*
X152050000Y-98635981D01*
X152050000Y-98717136D01*
X152024019Y-98748794D01*
X151982233Y-98826970D01*
X151962307Y-98892658D01*
X151956502Y-98911795D01*
X151950182Y-98975971D01*
X151947814Y-99000010D01*
X151949991Y-99022114D01*
X151949990Y-102400003D01*
X151892110Y-102423978D01*
X151785649Y-102495112D01*
X151695112Y-102585649D01*
X151630597Y-102682204D01*
X150869999Y-101921606D01*
X150869999Y-99089238D01*
X150924887Y-99034350D01*
X150996021Y-98927889D01*
X151045020Y-98809597D01*
X151069999Y-98684018D01*
X151069999Y-98555980D01*
X151045020Y-98430401D01*
X150996021Y-98312109D01*
X150924887Y-98205648D01*
X150834350Y-98115111D01*
X150727889Y-98043977D01*
X150609597Y-97994978D01*
X150484018Y-97969999D01*
X150355980Y-97969999D01*
X150230401Y-97994978D01*
X150112109Y-98043977D01*
X150005648Y-98115111D01*
X149915111Y-98205648D01*
X149843977Y-98312109D01*
X149794978Y-98430401D01*
X149769999Y-98555980D01*
X149769999Y-98684018D01*
X149794978Y-98809597D01*
X149843977Y-98927889D01*
X149915111Y-99034350D01*
X149969999Y-99089238D01*
X149970000Y-102085897D01*
X149967823Y-102108001D01*
X149976511Y-102196216D01*
X150002242Y-102281041D01*
X150044028Y-102359217D01*
X150086171Y-102410568D01*
X150086176Y-102410573D01*
X150100263Y-102427738D01*
X150117428Y-102441825D01*
X151350001Y-103674399D01*
X151350002Y-106997604D01*
X149197586Y-109150021D01*
X147640075Y-109150021D01*
X148002573Y-108787524D01*
X148019738Y-108773437D01*
X148033825Y-108756272D01*
X148033829Y-108756268D01*
X148075972Y-108704917D01*
X148117758Y-108626741D01*
X148128639Y-108590871D01*
X148143490Y-108541915D01*
X148150001Y-108475805D01*
X148150001Y-108475795D01*
X148152177Y-108453701D01*
X148150001Y-108431606D01*
X148150001Y-107034093D01*
X148152177Y-107011998D01*
X148150001Y-106989904D01*
X148150001Y-106989894D01*
X148143490Y-106923784D01*
X148117758Y-106838958D01*
X148075972Y-106760783D01*
X148036317Y-106712463D01*
X148097374Y-106753260D01*
X148252064Y-106817335D01*
X148416282Y-106850000D01*
X148583718Y-106850000D01*
X148747936Y-106817335D01*
X148902626Y-106753260D01*
X149041844Y-106660238D01*
X149160238Y-106541844D01*
X149253260Y-106402626D01*
X149317335Y-106247936D01*
X149350000Y-106083718D01*
X149350000Y-105916282D01*
X149650000Y-105916282D01*
X149650000Y-106083718D01*
X149682665Y-106247936D01*
X149746740Y-106402626D01*
X149839762Y-106541844D01*
X149958156Y-106660238D01*
X150097374Y-106753260D01*
X150252064Y-106817335D01*
X150416282Y-106850000D01*
X150583718Y-106850000D01*
X150747936Y-106817335D01*
X150902626Y-106753260D01*
X151041844Y-106660238D01*
X151160238Y-106541844D01*
X151253260Y-106402626D01*
X151317335Y-106247936D01*
X151350000Y-106083718D01*
X151350000Y-105916282D01*
X151317335Y-105752064D01*
X151253260Y-105597374D01*
X151160238Y-105458156D01*
X151041844Y-105339762D01*
X150902626Y-105246740D01*
X150747936Y-105182665D01*
X150583718Y-105150000D01*
X150416282Y-105150000D01*
X150252064Y-105182665D01*
X150097374Y-105246740D01*
X149958156Y-105339762D01*
X149839762Y-105458156D01*
X149746740Y-105597374D01*
X149682665Y-105752064D01*
X149650000Y-105916282D01*
X149350000Y-105916282D01*
X149317335Y-105752064D01*
X149253260Y-105597374D01*
X149160238Y-105458156D01*
X149041844Y-105339762D01*
X148902626Y-105246740D01*
X148747936Y-105182665D01*
X148583718Y-105150000D01*
X148416282Y-105150000D01*
X148382580Y-105156704D01*
X148400021Y-105114598D01*
X148425000Y-104989019D01*
X148425000Y-104860981D01*
X148400021Y-104735402D01*
X148351022Y-104617110D01*
X148279888Y-104510649D01*
X148189351Y-104420112D01*
X148150000Y-104393819D01*
X148150000Y-100266917D01*
X148253481Y-100287500D01*
X148381519Y-100287500D01*
X148507098Y-100262521D01*
X148625390Y-100213522D01*
X148731851Y-100142388D01*
X148822388Y-100051851D01*
X148893522Y-99945390D01*
X148942521Y-99827098D01*
X148967500Y-99701519D01*
X148967500Y-99573481D01*
X148942521Y-99447902D01*
X148893522Y-99329610D01*
X148822388Y-99223149D01*
X148817500Y-99218261D01*
X148817500Y-97442057D01*
X148819919Y-97417499D01*
X148816251Y-97380263D01*
X148810265Y-97319483D01*
X148781675Y-97225233D01*
X148735246Y-97138371D01*
X148672764Y-97062236D01*
X148653687Y-97046580D01*
X148350000Y-96742894D01*
X148350000Y-96626131D01*
X148321178Y-96481233D01*
X148264641Y-96344742D01*
X148182563Y-96221903D01*
X148078097Y-96117437D01*
X147955258Y-96035359D01*
X147818767Y-95978822D01*
X147673869Y-95950000D01*
X147526131Y-95950000D01*
X147381233Y-95978822D01*
X147244742Y-96035359D01*
X147121903Y-96117437D01*
X147017437Y-96221903D01*
X146935359Y-96344742D01*
X146878822Y-96481233D01*
X146850000Y-96626131D01*
X146850000Y-96773869D01*
X146878822Y-96918767D01*
X146935359Y-97055258D01*
X147017437Y-97178097D01*
X147121903Y-97282563D01*
X147244742Y-97364641D01*
X147381233Y-97421178D01*
X147526131Y-97450000D01*
X147642894Y-97450000D01*
X147817500Y-97624607D01*
X147817500Y-98181105D01*
X147750000Y-98113604D01*
X147750000Y-98035981D01*
X147725021Y-97910402D01*
X147676022Y-97792110D01*
X147604888Y-97685649D01*
X147514351Y-97595112D01*
X147407890Y-97523978D01*
X147289598Y-97474979D01*
X147164019Y-97450000D01*
X147035981Y-97450000D01*
X146910402Y-97474979D01*
X146792110Y-97523978D01*
X146685649Y-97595112D01*
X146595112Y-97685649D01*
X146523978Y-97792110D01*
X146474979Y-97910402D01*
X146450000Y-98035981D01*
X146450000Y-94869239D01*
X146504888Y-94814351D01*
X146576022Y-94707890D01*
X146625021Y-94589598D01*
X146650000Y-94464019D01*
X146650000Y-94335981D01*
X146625021Y-94210402D01*
X146576022Y-94092110D01*
X146504888Y-93985649D01*
X146414351Y-93895112D01*
X146307890Y-93823978D01*
X146189598Y-93774979D01*
X146064019Y-93750000D01*
X145935981Y-93750000D01*
X145810402Y-93774979D01*
X145692110Y-93823978D01*
X145585649Y-93895112D01*
X145495112Y-93985649D01*
X145423978Y-94092110D01*
X145374979Y-94210402D01*
X145350000Y-94335981D01*
X145350000Y-94464019D01*
X145350639Y-94467230D01*
X145264019Y-94450000D01*
X145135981Y-94450000D01*
X145010402Y-94474979D01*
X144892110Y-94523978D01*
X144785649Y-94595112D01*
X144695112Y-94685649D01*
X144623978Y-94792110D01*
X144574979Y-94910402D01*
X144550000Y-95035981D01*
X144550000Y-95164019D01*
X144574979Y-95289598D01*
X144623978Y-95407890D01*
X144695112Y-95514351D01*
X144750000Y-95569239D01*
X144750001Y-98677885D01*
X144750000Y-98677895D01*
X144750000Y-99043604D01*
X144747824Y-99065698D01*
X144750000Y-99087792D01*
X144750000Y-99087802D01*
X144756511Y-99153912D01*
X144771975Y-99204888D01*
X144782243Y-99238738D01*
X144824029Y-99316914D01*
X144855693Y-99355496D01*
X144880263Y-99385435D01*
X144897434Y-99399527D01*
X145768735Y-100270829D01*
X145664019Y-100250000D01*
X145535981Y-100250000D01*
X145410402Y-100274979D01*
X145292110Y-100323978D01*
X145185649Y-100395112D01*
X145095112Y-100485649D01*
X145023978Y-100592110D01*
X144974979Y-100710402D01*
X144964712Y-100762018D01*
X144854019Y-100740000D01*
X144725981Y-100740000D01*
X144600402Y-100764979D01*
X144550001Y-100785856D01*
X144550001Y-95322092D01*
X144552177Y-95300000D01*
X144550001Y-95277908D01*
X144550001Y-95277896D01*
X144543490Y-95211786D01*
X144517758Y-95126960D01*
X144485266Y-95066172D01*
X144475972Y-95048784D01*
X144450000Y-95017138D01*
X144450000Y-94935981D01*
X144425021Y-94810402D01*
X144376022Y-94692110D01*
X144304888Y-94585649D01*
X144214351Y-94495112D01*
X144107890Y-94423978D01*
X143989598Y-94374979D01*
X143864019Y-94350000D01*
X143735981Y-94350000D01*
X143610402Y-94374979D01*
X143514647Y-94414643D01*
X143525021Y-94389598D01*
X143550000Y-94264019D01*
X143550000Y-94135981D01*
X143525021Y-94010402D01*
X143476022Y-93892110D01*
X143404888Y-93785649D01*
X143314351Y-93695112D01*
X143207890Y-93623978D01*
X143089598Y-93574979D01*
X142964019Y-93550000D01*
X142835981Y-93550000D01*
X142710402Y-93574979D01*
X142592110Y-93623978D01*
X142485649Y-93695112D01*
X142395112Y-93785649D01*
X142323978Y-93892110D01*
X142274979Y-94010402D01*
X142250000Y-94135981D01*
X142250000Y-94264019D01*
X142274979Y-94389598D01*
X142323978Y-94507890D01*
X142395112Y-94614351D01*
X142450000Y-94669239D01*
X142450001Y-100325601D01*
X141597433Y-101178170D01*
X141580262Y-101192262D01*
X141566171Y-101209432D01*
X141524028Y-101260783D01*
X141492516Y-101319738D01*
X141482242Y-101338959D01*
X141456510Y-101423785D01*
X141449999Y-101489895D01*
X141449999Y-101489905D01*
X141447823Y-101511999D01*
X141449999Y-101534094D01*
X141450000Y-104367895D01*
X141447823Y-104389999D01*
X141456511Y-104478214D01*
X141482242Y-104563039D01*
X141524028Y-104641215D01*
X141566171Y-104692566D01*
X141566176Y-104692571D01*
X141580263Y-104709736D01*
X141597428Y-104723823D01*
X142023605Y-105150000D01*
X141916282Y-105150000D01*
X141752064Y-105182665D01*
X141597374Y-105246740D01*
X141458156Y-105339762D01*
X141339762Y-105458156D01*
X141246740Y-105597374D01*
X141182665Y-105752064D01*
X141150000Y-105916282D01*
X141150000Y-106083718D01*
X141182665Y-106247936D01*
X141246740Y-106402626D01*
X141339762Y-106541844D01*
X141458156Y-106660238D01*
X141597374Y-106753260D01*
X141752064Y-106817335D01*
X141916282Y-106850000D01*
X142083718Y-106850000D01*
X142247936Y-106817335D01*
X142402626Y-106753260D01*
X142541844Y-106660238D01*
X142650001Y-106552081D01*
X142650002Y-107847897D01*
X142647825Y-107870001D01*
X142656513Y-107958216D01*
X142682244Y-108043041D01*
X142724030Y-108121217D01*
X142766173Y-108172568D01*
X142766178Y-108172573D01*
X142780265Y-108189738D01*
X142797430Y-108203825D01*
X143216176Y-108622572D01*
X143230263Y-108639737D01*
X143247428Y-108653824D01*
X143247432Y-108653828D01*
X143298783Y-108695971D01*
X143351276Y-108724029D01*
X143376959Y-108737757D01*
X143417355Y-108750011D01*
X139886407Y-108750011D01*
X138866395Y-107730000D01*
X138934019Y-107730000D01*
X139059598Y-107705021D01*
X139177890Y-107656022D01*
X139284351Y-107584888D01*
X139374888Y-107494351D01*
X139446022Y-107387890D01*
X139495021Y-107269598D01*
X139520000Y-107144019D01*
X139520000Y-107015981D01*
X139495021Y-106890402D01*
X139446022Y-106772110D01*
X139374888Y-106665649D01*
X139284351Y-106575112D01*
X139177890Y-106503978D01*
X139059598Y-106454979D01*
X138934019Y-106430000D01*
X138856395Y-106430000D01*
X138750000Y-106323605D01*
X138750000Y-105916282D01*
X139150000Y-105916282D01*
X139150000Y-106083718D01*
X139182665Y-106247936D01*
X139246740Y-106402626D01*
X139339762Y-106541844D01*
X139458156Y-106660238D01*
X139597374Y-106753260D01*
X139752064Y-106817335D01*
X139916282Y-106850000D01*
X140083718Y-106850000D01*
X140247936Y-106817335D01*
X140402626Y-106753260D01*
X140541844Y-106660238D01*
X140660238Y-106541844D01*
X140753260Y-106402626D01*
X140817335Y-106247936D01*
X140850000Y-106083718D01*
X140850000Y-105916282D01*
X140817335Y-105752064D01*
X140753260Y-105597374D01*
X140660238Y-105458156D01*
X140541844Y-105339762D01*
X140402626Y-105246740D01*
X140247936Y-105182665D01*
X140083718Y-105150000D01*
X139916282Y-105150000D01*
X139752064Y-105182665D01*
X139597374Y-105246740D01*
X139458156Y-105339762D01*
X139339762Y-105458156D01*
X139246740Y-105597374D01*
X139182665Y-105752064D01*
X139150000Y-105916282D01*
X138750000Y-105916282D01*
X138750000Y-104169239D01*
X138804888Y-104114351D01*
X138876022Y-104007890D01*
X138925021Y-103889598D01*
X138950000Y-103764019D01*
X138950000Y-103635981D01*
X138925021Y-103510402D01*
X138876022Y-103392110D01*
X138804888Y-103285649D01*
X138714351Y-103195112D01*
X138607890Y-103123978D01*
X138489598Y-103074979D01*
X138364019Y-103050000D01*
X138235981Y-103050000D01*
X138150000Y-103067103D01*
X138150000Y-101169647D01*
X138151935Y-101150000D01*
X138144212Y-101071586D01*
X138121340Y-100996186D01*
X138084197Y-100926697D01*
X138034211Y-100865789D01*
X137973303Y-100815803D01*
X137903814Y-100778660D01*
X137828414Y-100755788D01*
X137769647Y-100750000D01*
X137750000Y-100748065D01*
X137730354Y-100750000D01*
X137069646Y-100750000D01*
X137050000Y-100748065D01*
X137030353Y-100750000D01*
X136971586Y-100755788D01*
X136950010Y-100762333D01*
X136950010Y-96786385D01*
X137286396Y-96450000D01*
X137430761Y-96450000D01*
X137485649Y-96504888D01*
X137592110Y-96576022D01*
X137710402Y-96625021D01*
X137835981Y-96650000D01*
X137964019Y-96650000D01*
X138089598Y-96625021D01*
X138207890Y-96576022D01*
X138250001Y-96547885D01*
X138250001Y-98177885D01*
X138250000Y-98177895D01*
X138250000Y-98365908D01*
X138247824Y-98388002D01*
X138250000Y-98410096D01*
X138250000Y-98410106D01*
X138256511Y-98476216D01*
X138269605Y-98519379D01*
X138282243Y-98561042D01*
X138324029Y-98639218D01*
X138361846Y-98685298D01*
X138380263Y-98707739D01*
X138397434Y-98721831D01*
X140149498Y-100473896D01*
X140149498Y-100551519D01*
X140174477Y-100677098D01*
X140223476Y-100795390D01*
X140294610Y-100901851D01*
X140385147Y-100992388D01*
X140491608Y-101063522D01*
X140609900Y-101112521D01*
X140735479Y-101137500D01*
X140863517Y-101137500D01*
X140989096Y-101112521D01*
X141107388Y-101063522D01*
X141213849Y-100992388D01*
X141304386Y-100901851D01*
X141375520Y-100795390D01*
X141424519Y-100677098D01*
X141449498Y-100551519D01*
X141449498Y-100423481D01*
X141424519Y-100297902D01*
X141375520Y-100179610D01*
X141304386Y-100073149D01*
X141213849Y-99982612D01*
X141107388Y-99911478D01*
X140989096Y-99862479D01*
X140863517Y-99837500D01*
X140785894Y-99837500D01*
X140147260Y-99198866D01*
X140210402Y-99225021D01*
X140335981Y-99250000D01*
X140464019Y-99250000D01*
X140589598Y-99225021D01*
X140707890Y-99176022D01*
X140814351Y-99104888D01*
X140904888Y-99014351D01*
X140976022Y-98907890D01*
X141025021Y-98789598D01*
X141050000Y-98664019D01*
X141050000Y-98535981D01*
X141025021Y-98410402D01*
X140976022Y-98292110D01*
X140904888Y-98185649D01*
X140814351Y-98095112D01*
X140783194Y-98074294D01*
X140775971Y-98060781D01*
X140733828Y-98009430D01*
X140733824Y-98009426D01*
X140719737Y-97992261D01*
X140702573Y-97978175D01*
X139950020Y-97225623D01*
X139950020Y-92317771D01*
X140517762Y-91750030D01*
X143016576Y-91750030D01*
X143038670Y-91752206D01*
X143060764Y-91750030D01*
X143060775Y-91750030D01*
X143126885Y-91743519D01*
X143211711Y-91717787D01*
X143289886Y-91676001D01*
X143358407Y-91619767D01*
X143372499Y-91602597D01*
X144025106Y-90949990D01*
X144230771Y-90949990D01*
X144195112Y-90985649D01*
G37*
G04 #@! TD.AperFunction*
M02*
