M48
; DRILL file {KiCad (5.1.7)-1} date 06/23/21 20:50:13
; FORMAT={-:-/ absolute / metric / decimal}
; #@! TF.CreationDate,2021-06-23T20:50:13+09:00
; #@! TF.GenerationSoftware,Kicad,Pcbnew,(5.1.7)-1
FMAT,2
METRIC
T1C0.300
T2C0.330
T3C0.400
T4C0.500
T5C0.600
T6C0.900
T7C1.000
T8C0.900
%
G90
G05
T1
X125.4Y-92.0
X125.8Y-112.5
X126.21Y-118.18
X128.45Y-118.85
X128.545Y-120.735
X130.46Y-119.77
X130.7Y-84.0
X131.4Y-91.8
X132.3Y-116.6
X132.5Y-113.1
X132.8Y-120.5
X132.89Y-95.0
X132.89Y-95.0
X133.7Y-93.19
X133.8Y-86.5
X134.43Y-108.87
X134.6Y-101.0
X135.0Y-94.7
X135.1Y-119.1
X135.36Y-86.12
X135.4Y-95.9
X136.0Y-104.4
X136.4Y-95.6
X136.53Y-116.77
X136.59Y-118.98
X137.4Y-98.3
X137.4Y-106.9
X137.9Y-92.7
X137.9Y-96.0
X138.15Y-109.55
X138.15Y-133.8
X138.3Y-103.7
X138.39Y-91.21
X138.87Y-107.08
X138.9Y-102.6
X139.1Y-111.0
X139.22Y-131.02
X139.5Y-82.9
X139.5Y-98.3
X139.6Y-121.5
X140.06Y-133.7
X140.1Y-80.4
X140.25Y-131.2
X140.4Y-98.6
X140.6Y-97.2
X140.799Y-100.487
X140.8Y-105.0
X140.9Y-110.8
X141.45Y-131.0
X141.725Y-136.725
X142.5Y-103.08
X142.5Y-107.5
X142.6Y-101.7
X142.73Y-104.15
X142.75Y-133.6
X142.8Y-113.0
X142.9Y-94.2
X143.352Y-82.768
X143.5Y-101.7
X143.66Y-119.35
X143.7Y-91.7
X143.8Y-95.0
X143.892Y-88.992
X144.7Y-91.4
X144.7Y-107.4
X144.79Y-101.39
X144.9Y-103.7
X145.01Y-106.55
X145.2Y-95.1
X145.4Y-120.9
X145.6Y-100.9
X145.625Y-107.915
X145.7Y-85.7
X146.0Y-94.4
X146.3Y-106.5
X146.493Y-88.992
X146.68Y-97.33
X147.0Y-95.5
X147.1Y-98.1
X147.1Y-107.3
X147.775Y-104.925
X148.317Y-99.637
X148.4Y-100.92
X149.51Y-107.6
X149.738Y-95.4
X149.85Y-96.45
X150.0Y-92.0
X150.19Y-103.92
X150.4Y-114.1
X150.4Y-133.3
X150.42Y-98.62
X150.6Y-80.7
X150.6Y-94.4
X150.7Y-130.9
X151.5Y-120.257
X151.75Y-136.67
X151.8Y-96.6
X151.8Y-97.7
X152.2Y-103.0
X152.6Y-108.1
X152.6Y-130.9
X152.7Y-98.7
X153.4Y-120.1
X153.9Y-107.2
X154.005Y-132.105
X154.05Y-134.09
X154.3Y-116.3
X154.4Y-111.2
X154.6Y-102.7
X154.6Y-131.2
X155.4Y-120.1
X155.6Y-94.0
X156.3Y-104.1
X156.6Y-113.2
X157.1Y-86.5
X157.2Y-120.0
X157.3Y-100.4
X158.098Y-82.768
X159.1Y-92.0
X159.9Y-89.8
X161.1Y-121.4
X161.407Y-113.457
X163.6Y-112.6
X163.6Y-117.7
X164.9Y-91.7
T2
X152.8Y-134.2
T3
X147.6Y-96.7
T4
X148.5Y-106.0
X150.5Y-106.0
X142.0Y-106.0
X140.0Y-106.0
T5
X128.175Y-114.675
X129.425Y-114.675
T6
X160.362Y-93.011
X162.9Y-93.1
X160.262Y-94.911
X162.8Y-95.0
X139.63Y-87.7
X140.9Y-85.5
X127.762Y-94.989
X130.3Y-94.9
X149.63Y-85.5
X150.9Y-87.7
X127.662Y-93.089
X130.2Y-93.0
X141.23Y-88.7
X142.5Y-86.5
X148.03Y-86.5
X149.3Y-88.7
T7
X141.3Y-122.0
X143.84Y-122.0
X146.38Y-122.0
X148.92Y-122.0
T8
X134.34Y-120.55
X137.34Y-120.55
T0
M30
