G04 #@! TF.GenerationSoftware,KiCad,Pcbnew,(5.1.7)-1*
G04 #@! TF.CreationDate,2021-12-01T00:11:57+09:00*
G04 #@! TF.ProjectId,lapis,6c617069-732e-46b6-9963-61645f706362,rev?*
G04 #@! TF.SameCoordinates,Original*
G04 #@! TF.FileFunction,Legend,Top*
G04 #@! TF.FilePolarity,Positive*
%FSLAX46Y46*%
G04 Gerber Fmt 4.6, Leading zero omitted, Abs format (unit mm)*
G04 Created by KiCad (PCBNEW (5.1.7)-1) date 2021-12-01 00:11:57*
%MOMM*%
%LPD*%
G01*
G04 APERTURE LIST*
%ADD10C,0.150000*%
%ADD11C,0.120000*%
%ADD12C,0.100000*%
%ADD13C,0.200000*%
%ADD14C,0.254000*%
%ADD15O,1.700000X1.700000*%
%ADD16R,1.700000X1.700000*%
%ADD17O,1.000000X1.000000*%
%ADD18R,1.000000X1.000000*%
%ADD19C,1.000000*%
%ADD20R,1.060000X0.650000*%
%ADD21R,0.650000X1.050000*%
%ADD22C,1.500000*%
%ADD23R,0.800000X0.900000*%
%ADD24R,1.600000X1.000000*%
%ADD25O,0.900000X1.400000*%
%ADD26R,0.450000X1.000000*%
%ADD27R,0.250000X0.500000*%
%ADD28R,0.600000X1.200000*%
%ADD29R,0.700000X1.500000*%
G04 APERTURE END LIST*
D10*
X178916666Y-111202380D02*
X179250000Y-112202380D01*
X179583333Y-111202380D01*
X180488095Y-112107142D02*
X180440476Y-112154761D01*
X180297619Y-112202380D01*
X180202380Y-112202380D01*
X180059523Y-112154761D01*
X179964285Y-112059523D01*
X179916666Y-111964285D01*
X179869047Y-111773809D01*
X179869047Y-111630952D01*
X179916666Y-111440476D01*
X179964285Y-111345238D01*
X180059523Y-111250000D01*
X180202380Y-111202380D01*
X180297619Y-111202380D01*
X180440476Y-111250000D01*
X180488095Y-111297619D01*
X181488095Y-112107142D02*
X181440476Y-112154761D01*
X181297619Y-112202380D01*
X181202380Y-112202380D01*
X181059523Y-112154761D01*
X180964285Y-112059523D01*
X180916666Y-111964285D01*
X180869047Y-111773809D01*
X180869047Y-111630952D01*
X180916666Y-111440476D01*
X180964285Y-111345238D01*
X181059523Y-111250000D01*
X181202380Y-111202380D01*
X181297619Y-111202380D01*
X181440476Y-111250000D01*
X181488095Y-111297619D01*
X176988095Y-109404761D02*
X177130952Y-109452380D01*
X177369047Y-109452380D01*
X177464285Y-109404761D01*
X177511904Y-109357142D01*
X177559523Y-109261904D01*
X177559523Y-109166666D01*
X177511904Y-109071428D01*
X177464285Y-109023809D01*
X177369047Y-108976190D01*
X177178571Y-108928571D01*
X177083333Y-108880952D01*
X177035714Y-108833333D01*
X176988095Y-108738095D01*
X176988095Y-108642857D01*
X177035714Y-108547619D01*
X177083333Y-108500000D01*
X177178571Y-108452380D01*
X177416666Y-108452380D01*
X177559523Y-108500000D01*
X177892857Y-108452380D02*
X178130952Y-109452380D01*
X178321428Y-108738095D01*
X178511904Y-109452380D01*
X178750000Y-108452380D01*
X179702380Y-109357142D02*
X179654761Y-109404761D01*
X179511904Y-109452380D01*
X179416666Y-109452380D01*
X179273809Y-109404761D01*
X179178571Y-109309523D01*
X179130952Y-109214285D01*
X179083333Y-109023809D01*
X179083333Y-108880952D01*
X179130952Y-108690476D01*
X179178571Y-108595238D01*
X179273809Y-108500000D01*
X179416666Y-108452380D01*
X179511904Y-108452380D01*
X179654761Y-108500000D01*
X179702380Y-108547619D01*
X180607142Y-109452380D02*
X180130952Y-109452380D01*
X180130952Y-108452380D01*
X180940476Y-109452380D02*
X180940476Y-108452380D01*
X181511904Y-109452380D02*
X181083333Y-108880952D01*
X181511904Y-108452380D02*
X180940476Y-109023809D01*
X179238095Y-106250000D02*
X179142857Y-106202380D01*
X179000000Y-106202380D01*
X178857142Y-106250000D01*
X178761904Y-106345238D01*
X178714285Y-106440476D01*
X178666666Y-106630952D01*
X178666666Y-106773809D01*
X178714285Y-106964285D01*
X178761904Y-107059523D01*
X178857142Y-107154761D01*
X179000000Y-107202380D01*
X179095238Y-107202380D01*
X179238095Y-107154761D01*
X179285714Y-107107142D01*
X179285714Y-106773809D01*
X179095238Y-106773809D01*
X179714285Y-107202380D02*
X179714285Y-106202380D01*
X180285714Y-107202380D01*
X180285714Y-106202380D01*
X180761904Y-107202380D02*
X180761904Y-106202380D01*
X181000000Y-106202380D01*
X181142857Y-106250000D01*
X181238095Y-106345238D01*
X181285714Y-106440476D01*
X181333333Y-106630952D01*
X181333333Y-106773809D01*
X181285714Y-106964285D01*
X181238095Y-107059523D01*
X181142857Y-107154761D01*
X181000000Y-107202380D01*
X180761904Y-107202380D01*
X177130952Y-104654761D02*
X177273809Y-104702380D01*
X177511904Y-104702380D01*
X177607142Y-104654761D01*
X177654761Y-104607142D01*
X177702380Y-104511904D01*
X177702380Y-104416666D01*
X177654761Y-104321428D01*
X177607142Y-104273809D01*
X177511904Y-104226190D01*
X177321428Y-104178571D01*
X177226190Y-104130952D01*
X177178571Y-104083333D01*
X177130952Y-103988095D01*
X177130952Y-103892857D01*
X177178571Y-103797619D01*
X177226190Y-103750000D01*
X177321428Y-103702380D01*
X177559523Y-103702380D01*
X177702380Y-103750000D01*
X178035714Y-103702380D02*
X178273809Y-104702380D01*
X178464285Y-103988095D01*
X178654761Y-104702380D01*
X178892857Y-103702380D01*
X179273809Y-104702380D02*
X179273809Y-103702380D01*
X179511904Y-103702380D01*
X179654761Y-103750000D01*
X179750000Y-103845238D01*
X179797619Y-103940476D01*
X179845238Y-104130952D01*
X179845238Y-104273809D01*
X179797619Y-104464285D01*
X179750000Y-104559523D01*
X179654761Y-104654761D01*
X179511904Y-104702380D01*
X179273809Y-104702380D01*
X180273809Y-104702380D02*
X180273809Y-103702380D01*
X180940476Y-103702380D02*
X181130952Y-103702380D01*
X181226190Y-103750000D01*
X181321428Y-103845238D01*
X181369047Y-104035714D01*
X181369047Y-104369047D01*
X181321428Y-104559523D01*
X181226190Y-104654761D01*
X181130952Y-104702380D01*
X180940476Y-104702380D01*
X180845238Y-104654761D01*
X180750000Y-104559523D01*
X180702380Y-104369047D01*
X180702380Y-104035714D01*
X180750000Y-103845238D01*
X180845238Y-103750000D01*
X180940476Y-103702380D01*
X179488095Y-116452380D02*
X180059523Y-116452380D01*
X179773809Y-117452380D02*
X179773809Y-116452380D01*
X180297619Y-116452380D02*
X180964285Y-117452380D01*
X180964285Y-116452380D02*
X180297619Y-117452380D01*
X180083333Y-119952380D02*
X179750000Y-119476190D01*
X179511904Y-119952380D02*
X179511904Y-118952380D01*
X179892857Y-118952380D01*
X179988095Y-119000000D01*
X180035714Y-119047619D01*
X180083333Y-119142857D01*
X180083333Y-119285714D01*
X180035714Y-119380952D01*
X179988095Y-119428571D01*
X179892857Y-119476190D01*
X179511904Y-119476190D01*
X180416666Y-118952380D02*
X181083333Y-119952380D01*
X181083333Y-118952380D02*
X180416666Y-119952380D01*
X179238095Y-121500000D02*
X179142857Y-121452380D01*
X179000000Y-121452380D01*
X178857142Y-121500000D01*
X178761904Y-121595238D01*
X178714285Y-121690476D01*
X178666666Y-121880952D01*
X178666666Y-122023809D01*
X178714285Y-122214285D01*
X178761904Y-122309523D01*
X178857142Y-122404761D01*
X179000000Y-122452380D01*
X179095238Y-122452380D01*
X179238095Y-122404761D01*
X179285714Y-122357142D01*
X179285714Y-122023809D01*
X179095238Y-122023809D01*
X179714285Y-122452380D02*
X179714285Y-121452380D01*
X180285714Y-122452380D01*
X180285714Y-121452380D01*
X180761904Y-122452380D02*
X180761904Y-121452380D01*
X181000000Y-121452380D01*
X181142857Y-121500000D01*
X181238095Y-121595238D01*
X181285714Y-121690476D01*
X181333333Y-121880952D01*
X181333333Y-122023809D01*
X181285714Y-122214285D01*
X181238095Y-122309523D01*
X181142857Y-122404761D01*
X181000000Y-122452380D01*
X180761904Y-122452380D01*
X178666666Y-124452380D02*
X179000000Y-125452380D01*
X179333333Y-124452380D01*
X180238095Y-125357142D02*
X180190476Y-125404761D01*
X180047619Y-125452380D01*
X179952380Y-125452380D01*
X179809523Y-125404761D01*
X179714285Y-125309523D01*
X179666666Y-125214285D01*
X179619047Y-125023809D01*
X179619047Y-124880952D01*
X179666666Y-124690476D01*
X179714285Y-124595238D01*
X179809523Y-124500000D01*
X179952380Y-124452380D01*
X180047619Y-124452380D01*
X180190476Y-124500000D01*
X180238095Y-124547619D01*
X181238095Y-125357142D02*
X181190476Y-125404761D01*
X181047619Y-125452380D01*
X180952380Y-125452380D01*
X180809523Y-125404761D01*
X180714285Y-125309523D01*
X180666666Y-125214285D01*
X180619047Y-125023809D01*
X180619047Y-124880952D01*
X180666666Y-124690476D01*
X180714285Y-124595238D01*
X180809523Y-124500000D01*
X180952380Y-124452380D01*
X181047619Y-124452380D01*
X181190476Y-124500000D01*
X181238095Y-124547619D01*
D11*
X135250000Y-113450000D02*
X155250000Y-113450000D01*
X135250000Y-107450000D02*
X155250000Y-107450000D01*
X155250000Y-96700000D02*
X158250000Y-96700000D01*
X155250000Y-96750000D02*
X155250000Y-96700000D01*
X155250000Y-116500000D02*
X155250000Y-96750000D01*
X158250000Y-116500000D02*
X155250000Y-116500000D01*
X158250000Y-116500000D02*
X158250000Y-96700000D01*
X135250000Y-96700000D02*
X135250000Y-116700000D01*
X132250000Y-96700000D02*
X135250000Y-96700000D01*
X132250000Y-116700000D02*
X135250000Y-116700000D01*
X132250000Y-96700000D02*
X132250000Y-116700000D01*
X148410000Y-99220000D02*
X148860000Y-99220000D01*
X148860000Y-99220000D02*
X148860000Y-98770000D01*
X142090000Y-99220000D02*
X141640000Y-99220000D01*
X141640000Y-99220000D02*
X141640000Y-98770000D01*
X148410000Y-92000000D02*
X148860000Y-92000000D01*
X148860000Y-92000000D02*
X148860000Y-92450000D01*
X142090000Y-92000000D02*
X141640000Y-92000000D01*
X141640000Y-92000000D02*
X141640000Y-92450000D01*
X141640000Y-92450000D02*
X140350000Y-92450000D01*
X182170000Y-125950000D02*
X184830000Y-125950000D01*
X182170000Y-118270000D02*
X182170000Y-125950000D01*
X184830000Y-118270000D02*
X184830000Y-125950000D01*
X182170000Y-118270000D02*
X184830000Y-118270000D01*
X182170000Y-117000000D02*
X182170000Y-115670000D01*
X182170000Y-115670000D02*
X183500000Y-115670000D01*
X182420000Y-112950000D02*
X185080000Y-112950000D01*
X182420000Y-105270000D02*
X182420000Y-112950000D01*
X185080000Y-105270000D02*
X185080000Y-112950000D01*
X182420000Y-105270000D02*
X185080000Y-105270000D01*
X182420000Y-104000000D02*
X182420000Y-102670000D01*
X182420000Y-102670000D02*
X183750000Y-102670000D01*
X172440000Y-118220000D02*
X173242470Y-118220000D01*
X173857530Y-118220000D02*
X174660000Y-118220000D01*
X172440000Y-111935000D02*
X172440000Y-118220000D01*
X174660000Y-111935000D02*
X174660000Y-118220000D01*
X172440000Y-111935000D02*
X172986529Y-111935000D01*
X174113471Y-111935000D02*
X174660000Y-111935000D01*
X172440000Y-111175000D02*
X172440000Y-110415000D01*
X172440000Y-110415000D02*
X173550000Y-110415000D01*
X150625000Y-123100000D02*
X150625000Y-122297530D01*
X150625000Y-121682470D02*
X150625000Y-120880000D01*
X144340000Y-123100000D02*
X150625000Y-123100000D01*
X144340000Y-120880000D02*
X150625000Y-120880000D01*
X144340000Y-123100000D02*
X144340000Y-122553471D01*
X144340000Y-121426529D02*
X144340000Y-120880000D01*
X143580000Y-123100000D02*
X142820000Y-123100000D01*
X142820000Y-123100000D02*
X142820000Y-121990000D01*
X146185000Y-102390000D02*
X146860000Y-102390000D01*
X146860000Y-102390000D02*
X146860000Y-102565000D01*
X144315000Y-105610000D02*
X143640000Y-105610000D01*
X143640000Y-105610000D02*
X143640000Y-105435000D01*
X146185000Y-105610000D02*
X146860000Y-105610000D01*
X146860000Y-105610000D02*
X146860000Y-105435000D01*
X144315000Y-102390000D02*
X143640000Y-102390000D01*
X149200000Y-106400000D02*
G75*
G03*
X149200000Y-106400000I-700000J0D01*
G01*
X151200000Y-106400000D02*
G75*
G03*
X151200000Y-106400000I-700000J0D01*
G01*
X142500000Y-106400000D02*
G75*
G03*
X142500000Y-106400000I-700000J0D01*
G01*
X140300000Y-106400000D02*
G75*
G03*
X140300000Y-106400000I-700000J0D01*
G01*
D12*
X152450000Y-120635000D02*
G75*
G03*
X152450000Y-120635000I-50000J0D01*
G01*
X154450000Y-120635000D02*
G75*
G03*
X154450000Y-120635000I-50000J0D01*
G01*
X156370000Y-120645000D02*
G75*
G03*
X156370000Y-120645000I-50000J0D01*
G01*
X158250000Y-120635000D02*
G75*
G03*
X158250000Y-120635000I-50000J0D01*
G01*
X125650000Y-116365000D02*
G75*
G03*
X125650000Y-116365000I-50000J0D01*
G01*
D11*
X145860000Y-119225835D02*
X145860000Y-118994165D01*
X145140000Y-119225835D02*
X145140000Y-118994165D01*
X144538748Y-115710000D02*
X145961252Y-115710000D01*
X144538748Y-113890000D02*
X145961252Y-113890000D01*
X140215835Y-101440000D02*
X139984165Y-101440000D01*
X140215835Y-102160000D02*
X139984165Y-102160000D01*
X154100000Y-91610000D02*
X155900000Y-91610000D01*
X155900000Y-88390000D02*
X153450000Y-88390000D01*
X134100000Y-91610000D02*
X135900000Y-91610000D01*
X135900000Y-88390000D02*
X133450000Y-88390000D01*
D13*
X163742370Y-114894000D02*
G75*
G03*
X163742370Y-114894000I-53370J0D01*
G01*
X163100000Y-119900000D02*
X162100000Y-119900000D01*
X163100000Y-115700000D02*
X162100000Y-115700000D01*
X161000000Y-119900000D02*
X161000000Y-115700000D01*
X164200000Y-115700000D02*
X164200000Y-119900000D01*
D11*
X130437252Y-91770971D02*
X130302540Y-87913323D01*
X127280065Y-90760540D02*
X127319153Y-91879858D01*
X127319153Y-91879858D02*
X126919396Y-91893818D01*
X130437252Y-91770971D02*
X127319153Y-91879858D01*
X127613513Y-91999658D02*
X127613513Y-91999658D01*
X127608976Y-91869737D02*
X127608976Y-91869737D01*
X127613513Y-91999658D02*
X127608976Y-91869737D01*
X130147429Y-91781092D02*
X130151966Y-91911013D01*
X130147429Y-91781092D02*
X130147429Y-91781092D01*
X130151966Y-91911013D02*
X130147429Y-91781092D01*
X126880309Y-90774500D02*
X127280065Y-90760540D01*
X127608976Y-91869737D02*
X127613513Y-91999658D01*
X130151966Y-91911013D02*
X130151966Y-91911013D01*
X126919396Y-91893818D02*
X126880309Y-90774500D01*
X127319153Y-91879858D02*
X127184441Y-88022209D01*
X127184440Y-88022209D02*
G75*
G02*
X130302540Y-87913323I1559050J54443D01*
G01*
X152092891Y-87346147D02*
X155435749Y-85416147D01*
X151502839Y-84084148D02*
X150532891Y-84644148D01*
X150532891Y-84644148D02*
X150332891Y-84297738D01*
X152092891Y-87346147D02*
X150532891Y-84644148D01*
X150565307Y-84960295D02*
X150565307Y-84960295D01*
X150677891Y-84895295D02*
X150677891Y-84895295D01*
X150565307Y-84960295D02*
X150677891Y-84895295D01*
X151947891Y-87095000D02*
X151835307Y-87160000D01*
X151947891Y-87095000D02*
X151947891Y-87095000D01*
X151835307Y-87160000D02*
X151947891Y-87095000D01*
X151302839Y-83737738D02*
X151502839Y-84084148D01*
X150677891Y-84895295D02*
X150565307Y-84960295D01*
X151835307Y-87160000D02*
X151835307Y-87160000D01*
X150332891Y-84297738D02*
X151302839Y-83737738D01*
X150532891Y-84644148D02*
X153875749Y-82714148D01*
X153875749Y-82714149D02*
G75*
G02*
X155435749Y-85416147I780000J-1350999D01*
G01*
X140005770Y-84648853D02*
X136662911Y-82718853D01*
X137475821Y-86790852D02*
X138445770Y-87350852D01*
X138445770Y-87350852D02*
X138245770Y-87697262D01*
X140005770Y-84648853D02*
X138445770Y-87350852D01*
X138703353Y-87164705D02*
X138703353Y-87164705D01*
X138590770Y-87099705D02*
X138590770Y-87099705D01*
X138703353Y-87164705D02*
X138590770Y-87099705D01*
X139860770Y-84900000D02*
X139973353Y-84965000D01*
X139860770Y-84900000D02*
X139860770Y-84900000D01*
X139973353Y-84965000D02*
X139860770Y-84900000D01*
X137275821Y-87137262D02*
X137475821Y-86790852D01*
X138590770Y-87099705D02*
X138703353Y-87164705D01*
X139973353Y-84965000D02*
X139973353Y-84965000D01*
X138245770Y-87697262D02*
X137275821Y-87137262D01*
X138445770Y-87350852D02*
X135102911Y-85420852D01*
X135102911Y-85420851D02*
G75*
G02*
X136662911Y-82718853I780000J1350999D01*
G01*
X163232052Y-91900858D02*
X163366764Y-88043209D01*
X160153040Y-90672654D02*
X160113952Y-91791972D01*
X160113952Y-91791972D02*
X159714196Y-91778012D01*
X163232052Y-91900858D02*
X160113952Y-91791972D01*
X160399239Y-91932013D02*
X160399239Y-91932013D01*
X160403776Y-91802092D02*
X160403776Y-91802092D01*
X160399239Y-91932013D02*
X160403776Y-91802092D01*
X162942228Y-91890737D02*
X162937691Y-92020658D01*
X162942228Y-91890737D02*
X162942228Y-91890737D01*
X162937691Y-92020658D02*
X162942228Y-91890737D01*
X159753283Y-90658694D02*
X160153040Y-90672654D01*
X160403776Y-91802092D02*
X160399239Y-91932013D01*
X162937691Y-92020658D02*
X162937691Y-92020658D01*
X159714196Y-91778012D02*
X159753283Y-90658694D01*
X160113952Y-91791972D02*
X160248664Y-87934323D01*
X160248664Y-87934323D02*
G75*
G02*
X163366764Y-88043209I1559050J-54443D01*
G01*
X146720000Y-118760000D02*
X147650000Y-118760000D01*
X149880000Y-118760000D02*
X148950000Y-118760000D01*
X149880000Y-118760000D02*
X149880000Y-116600000D01*
X146720000Y-118760000D02*
X146720000Y-117300000D01*
X131440000Y-119100000D02*
X130510000Y-119100000D01*
X128280000Y-119100000D02*
X129210000Y-119100000D01*
X128280000Y-119100000D02*
X128280000Y-121260000D01*
X131440000Y-119100000D02*
X131440000Y-120560000D01*
D10*
X151630000Y-117800000D02*
X150730000Y-117800000D01*
X150730000Y-113800000D02*
X151630000Y-113800000D01*
X150730000Y-117800000D02*
X150730000Y-113800000D01*
X154730000Y-117800000D02*
X153830000Y-117800000D01*
X154730000Y-113800000D02*
X154730000Y-117800000D01*
X153830000Y-113800000D02*
X154730000Y-113800000D01*
D11*
X128425000Y-116525000D02*
X127225000Y-116525000D01*
X128425000Y-116825000D02*
X128425000Y-116525000D01*
X129175000Y-116825000D02*
X128425000Y-116825000D01*
X129175000Y-116525000D02*
X129175000Y-116825000D01*
X130375000Y-116525000D02*
X129175000Y-116525000D01*
X127225000Y-116525000D02*
X127225000Y-116975000D01*
X126925000Y-116525000D02*
X127225000Y-116525000D01*
X126925000Y-115425000D02*
X126925000Y-116525000D01*
X126625000Y-115425000D02*
X126925000Y-115425000D01*
X130375000Y-116525000D02*
X130375000Y-116975000D01*
X130675000Y-116525000D02*
X130375000Y-116525000D01*
X130675000Y-115425000D02*
X130675000Y-116525000D01*
X130975000Y-115425000D02*
X130675000Y-115425000D01*
X126925000Y-114675000D02*
X126625000Y-114675000D01*
X126925000Y-113675000D02*
X126925000Y-114675000D01*
X130675000Y-113675000D02*
X126925000Y-113675000D01*
X130675000Y-114675000D02*
X130675000Y-113675000D01*
X130975000Y-114675000D02*
X130675000Y-114675000D01*
X131285000Y-113065000D02*
X129375000Y-113065000D01*
X131285000Y-114975000D02*
X131285000Y-113065000D01*
X126625000Y-116975000D02*
X130975000Y-116975000D01*
X126625000Y-113375000D02*
X126625000Y-116975000D01*
X130975000Y-113375000D02*
X126625000Y-113375000D01*
X130975000Y-116975000D02*
X130975000Y-113375000D01*
D13*
X155240000Y-130742000D02*
X155240000Y-134442000D01*
X155240000Y-134442000D02*
X150240000Y-134442000D01*
X150240000Y-134442000D02*
X150240000Y-130742000D01*
X150240000Y-130742000D02*
X155240000Y-130742000D01*
X155265000Y-128917000D02*
X155265000Y-130392000D01*
X143225000Y-128925000D02*
X143225000Y-130400000D01*
X138200000Y-130750000D02*
X143200000Y-130750000D01*
X138200000Y-134450000D02*
X138200000Y-130750000D01*
X143200000Y-134450000D02*
X138200000Y-134450000D01*
X143200000Y-130750000D02*
X143200000Y-134450000D01*
X144000000Y-112090000D02*
X144000000Y-112090000D01*
X144000000Y-112190000D02*
X144000000Y-112190000D01*
X144000000Y-112090000D02*
X144000000Y-112090000D01*
X144000000Y-112190000D02*
G75*
G02*
X144000000Y-112090000I0J50000D01*
G01*
X144000000Y-112090000D02*
G75*
G02*
X144000000Y-112190000I0J-50000D01*
G01*
X144000000Y-112190000D02*
G75*
G02*
X144000000Y-112090000I0J50000D01*
G01*
X144300000Y-116250000D02*
X144300000Y-117450000D01*
X141350000Y-117800000D02*
X144250000Y-117800000D01*
X141350000Y-118400000D02*
X141350000Y-117800000D01*
X144250000Y-118400000D02*
X141350000Y-118400000D01*
X144250000Y-117800000D02*
X144250000Y-118400000D01*
D14*
X132863670Y-118081330D02*
G75*
G03*
X132863670Y-118081330I-54000J0D01*
G01*
X134126330Y-119420000D02*
X135975330Y-119420000D01*
X137230000Y-123520000D02*
X137230000Y-122020000D01*
X135930000Y-123520000D02*
X137230000Y-123520000D01*
X135930000Y-122020000D02*
X135930000Y-123520000D01*
X132480000Y-122020000D02*
X132480000Y-119420000D01*
X139180000Y-122020000D02*
X132480000Y-122020000D01*
X139180000Y-119420000D02*
X139180000Y-122020000D01*
%LPC*%
G36*
G01*
X158300000Y-119610000D02*
X158100000Y-119610000D01*
G75*
G02*
X158000000Y-119510000I0J100000D01*
G01*
X158000000Y-119075000D01*
G75*
G02*
X158100000Y-118975000I100000J0D01*
G01*
X158300000Y-118975000D01*
G75*
G02*
X158400000Y-119075000I0J-100000D01*
G01*
X158400000Y-119510000D01*
G75*
G02*
X158300000Y-119610000I-100000J0D01*
G01*
G37*
G36*
G01*
X158300000Y-120425000D02*
X158100000Y-120425000D01*
G75*
G02*
X158000000Y-120325000I0J100000D01*
G01*
X158000000Y-119890000D01*
G75*
G02*
X158100000Y-119790000I100000J0D01*
G01*
X158300000Y-119790000D01*
G75*
G02*
X158400000Y-119890000I0J-100000D01*
G01*
X158400000Y-120325000D01*
G75*
G02*
X158300000Y-120425000I-100000J0D01*
G01*
G37*
G36*
G01*
X156400000Y-119610000D02*
X156200000Y-119610000D01*
G75*
G02*
X156100000Y-119510000I0J100000D01*
G01*
X156100000Y-119075000D01*
G75*
G02*
X156200000Y-118975000I100000J0D01*
G01*
X156400000Y-118975000D01*
G75*
G02*
X156500000Y-119075000I0J-100000D01*
G01*
X156500000Y-119510000D01*
G75*
G02*
X156400000Y-119610000I-100000J0D01*
G01*
G37*
G36*
G01*
X156400000Y-120425000D02*
X156200000Y-120425000D01*
G75*
G02*
X156100000Y-120325000I0J100000D01*
G01*
X156100000Y-119890000D01*
G75*
G02*
X156200000Y-119790000I100000J0D01*
G01*
X156400000Y-119790000D01*
G75*
G02*
X156500000Y-119890000I0J-100000D01*
G01*
X156500000Y-120325000D01*
G75*
G02*
X156400000Y-120425000I-100000J0D01*
G01*
G37*
G36*
G01*
X154500000Y-119610000D02*
X154300000Y-119610000D01*
G75*
G02*
X154200000Y-119510000I0J100000D01*
G01*
X154200000Y-119075000D01*
G75*
G02*
X154300000Y-118975000I100000J0D01*
G01*
X154500000Y-118975000D01*
G75*
G02*
X154600000Y-119075000I0J-100000D01*
G01*
X154600000Y-119510000D01*
G75*
G02*
X154500000Y-119610000I-100000J0D01*
G01*
G37*
G36*
G01*
X154500000Y-120425000D02*
X154300000Y-120425000D01*
G75*
G02*
X154200000Y-120325000I0J100000D01*
G01*
X154200000Y-119890000D01*
G75*
G02*
X154300000Y-119790000I100000J0D01*
G01*
X154500000Y-119790000D01*
G75*
G02*
X154600000Y-119890000I0J-100000D01*
G01*
X154600000Y-120325000D01*
G75*
G02*
X154500000Y-120425000I-100000J0D01*
G01*
G37*
G36*
G01*
X152500000Y-119642500D02*
X152300000Y-119642500D01*
G75*
G02*
X152200000Y-119542500I0J100000D01*
G01*
X152200000Y-119107500D01*
G75*
G02*
X152300000Y-119007500I100000J0D01*
G01*
X152500000Y-119007500D01*
G75*
G02*
X152600000Y-119107500I0J-100000D01*
G01*
X152600000Y-119542500D01*
G75*
G02*
X152500000Y-119642500I-100000J0D01*
G01*
G37*
G36*
G01*
X152500000Y-120457500D02*
X152300000Y-120457500D01*
G75*
G02*
X152200000Y-120357500I0J100000D01*
G01*
X152200000Y-119922500D01*
G75*
G02*
X152300000Y-119822500I100000J0D01*
G01*
X152500000Y-119822500D01*
G75*
G02*
X152600000Y-119922500I0J-100000D01*
G01*
X152600000Y-120357500D01*
G75*
G02*
X152500000Y-120457500I-100000J0D01*
G01*
G37*
G36*
G01*
X142350000Y-92110000D02*
X142350000Y-90785000D01*
G75*
G02*
X142425000Y-90710000I75000J0D01*
G01*
X142575000Y-90710000D01*
G75*
G02*
X142650000Y-90785000I0J-75000D01*
G01*
X142650000Y-92110000D01*
G75*
G02*
X142575000Y-92185000I-75000J0D01*
G01*
X142425000Y-92185000D01*
G75*
G02*
X142350000Y-92110000I0J75000D01*
G01*
G37*
G36*
G01*
X142850000Y-92110000D02*
X142850000Y-90785000D01*
G75*
G02*
X142925000Y-90710000I75000J0D01*
G01*
X143075000Y-90710000D01*
G75*
G02*
X143150000Y-90785000I0J-75000D01*
G01*
X143150000Y-92110000D01*
G75*
G02*
X143075000Y-92185000I-75000J0D01*
G01*
X142925000Y-92185000D01*
G75*
G02*
X142850000Y-92110000I0J75000D01*
G01*
G37*
G36*
G01*
X143350000Y-92110000D02*
X143350000Y-90785000D01*
G75*
G02*
X143425000Y-90710000I75000J0D01*
G01*
X143575000Y-90710000D01*
G75*
G02*
X143650000Y-90785000I0J-75000D01*
G01*
X143650000Y-92110000D01*
G75*
G02*
X143575000Y-92185000I-75000J0D01*
G01*
X143425000Y-92185000D01*
G75*
G02*
X143350000Y-92110000I0J75000D01*
G01*
G37*
G36*
G01*
X143850000Y-92110000D02*
X143850000Y-90785000D01*
G75*
G02*
X143925000Y-90710000I75000J0D01*
G01*
X144075000Y-90710000D01*
G75*
G02*
X144150000Y-90785000I0J-75000D01*
G01*
X144150000Y-92110000D01*
G75*
G02*
X144075000Y-92185000I-75000J0D01*
G01*
X143925000Y-92185000D01*
G75*
G02*
X143850000Y-92110000I0J75000D01*
G01*
G37*
G36*
G01*
X144350000Y-92110000D02*
X144350000Y-90785000D01*
G75*
G02*
X144425000Y-90710000I75000J0D01*
G01*
X144575000Y-90710000D01*
G75*
G02*
X144650000Y-90785000I0J-75000D01*
G01*
X144650000Y-92110000D01*
G75*
G02*
X144575000Y-92185000I-75000J0D01*
G01*
X144425000Y-92185000D01*
G75*
G02*
X144350000Y-92110000I0J75000D01*
G01*
G37*
G36*
G01*
X144850000Y-92110000D02*
X144850000Y-90785000D01*
G75*
G02*
X144925000Y-90710000I75000J0D01*
G01*
X145075000Y-90710000D01*
G75*
G02*
X145150000Y-90785000I0J-75000D01*
G01*
X145150000Y-92110000D01*
G75*
G02*
X145075000Y-92185000I-75000J0D01*
G01*
X144925000Y-92185000D01*
G75*
G02*
X144850000Y-92110000I0J75000D01*
G01*
G37*
G36*
G01*
X145350000Y-92110000D02*
X145350000Y-90785000D01*
G75*
G02*
X145425000Y-90710000I75000J0D01*
G01*
X145575000Y-90710000D01*
G75*
G02*
X145650000Y-90785000I0J-75000D01*
G01*
X145650000Y-92110000D01*
G75*
G02*
X145575000Y-92185000I-75000J0D01*
G01*
X145425000Y-92185000D01*
G75*
G02*
X145350000Y-92110000I0J75000D01*
G01*
G37*
G36*
G01*
X145850000Y-92110000D02*
X145850000Y-90785000D01*
G75*
G02*
X145925000Y-90710000I75000J0D01*
G01*
X146075000Y-90710000D01*
G75*
G02*
X146150000Y-90785000I0J-75000D01*
G01*
X146150000Y-92110000D01*
G75*
G02*
X146075000Y-92185000I-75000J0D01*
G01*
X145925000Y-92185000D01*
G75*
G02*
X145850000Y-92110000I0J75000D01*
G01*
G37*
G36*
G01*
X146350000Y-92110000D02*
X146350000Y-90785000D01*
G75*
G02*
X146425000Y-90710000I75000J0D01*
G01*
X146575000Y-90710000D01*
G75*
G02*
X146650000Y-90785000I0J-75000D01*
G01*
X146650000Y-92110000D01*
G75*
G02*
X146575000Y-92185000I-75000J0D01*
G01*
X146425000Y-92185000D01*
G75*
G02*
X146350000Y-92110000I0J75000D01*
G01*
G37*
G36*
G01*
X146850000Y-92110000D02*
X146850000Y-90785000D01*
G75*
G02*
X146925000Y-90710000I75000J0D01*
G01*
X147075000Y-90710000D01*
G75*
G02*
X147150000Y-90785000I0J-75000D01*
G01*
X147150000Y-92110000D01*
G75*
G02*
X147075000Y-92185000I-75000J0D01*
G01*
X146925000Y-92185000D01*
G75*
G02*
X146850000Y-92110000I0J75000D01*
G01*
G37*
G36*
G01*
X147350000Y-92110000D02*
X147350000Y-90785000D01*
G75*
G02*
X147425000Y-90710000I75000J0D01*
G01*
X147575000Y-90710000D01*
G75*
G02*
X147650000Y-90785000I0J-75000D01*
G01*
X147650000Y-92110000D01*
G75*
G02*
X147575000Y-92185000I-75000J0D01*
G01*
X147425000Y-92185000D01*
G75*
G02*
X147350000Y-92110000I0J75000D01*
G01*
G37*
G36*
G01*
X147850000Y-92110000D02*
X147850000Y-90785000D01*
G75*
G02*
X147925000Y-90710000I75000J0D01*
G01*
X148075000Y-90710000D01*
G75*
G02*
X148150000Y-90785000I0J-75000D01*
G01*
X148150000Y-92110000D01*
G75*
G02*
X148075000Y-92185000I-75000J0D01*
G01*
X147925000Y-92185000D01*
G75*
G02*
X147850000Y-92110000I0J75000D01*
G01*
G37*
G36*
G01*
X148675000Y-92935000D02*
X148675000Y-92785000D01*
G75*
G02*
X148750000Y-92710000I75000J0D01*
G01*
X150075000Y-92710000D01*
G75*
G02*
X150150000Y-92785000I0J-75000D01*
G01*
X150150000Y-92935000D01*
G75*
G02*
X150075000Y-93010000I-75000J0D01*
G01*
X148750000Y-93010000D01*
G75*
G02*
X148675000Y-92935000I0J75000D01*
G01*
G37*
G36*
G01*
X148675000Y-93435000D02*
X148675000Y-93285000D01*
G75*
G02*
X148750000Y-93210000I75000J0D01*
G01*
X150075000Y-93210000D01*
G75*
G02*
X150150000Y-93285000I0J-75000D01*
G01*
X150150000Y-93435000D01*
G75*
G02*
X150075000Y-93510000I-75000J0D01*
G01*
X148750000Y-93510000D01*
G75*
G02*
X148675000Y-93435000I0J75000D01*
G01*
G37*
G36*
G01*
X148675000Y-93935000D02*
X148675000Y-93785000D01*
G75*
G02*
X148750000Y-93710000I75000J0D01*
G01*
X150075000Y-93710000D01*
G75*
G02*
X150150000Y-93785000I0J-75000D01*
G01*
X150150000Y-93935000D01*
G75*
G02*
X150075000Y-94010000I-75000J0D01*
G01*
X148750000Y-94010000D01*
G75*
G02*
X148675000Y-93935000I0J75000D01*
G01*
G37*
G36*
G01*
X148675000Y-94435000D02*
X148675000Y-94285000D01*
G75*
G02*
X148750000Y-94210000I75000J0D01*
G01*
X150075000Y-94210000D01*
G75*
G02*
X150150000Y-94285000I0J-75000D01*
G01*
X150150000Y-94435000D01*
G75*
G02*
X150075000Y-94510000I-75000J0D01*
G01*
X148750000Y-94510000D01*
G75*
G02*
X148675000Y-94435000I0J75000D01*
G01*
G37*
G36*
G01*
X148675000Y-94935000D02*
X148675000Y-94785000D01*
G75*
G02*
X148750000Y-94710000I75000J0D01*
G01*
X150075000Y-94710000D01*
G75*
G02*
X150150000Y-94785000I0J-75000D01*
G01*
X150150000Y-94935000D01*
G75*
G02*
X150075000Y-95010000I-75000J0D01*
G01*
X148750000Y-95010000D01*
G75*
G02*
X148675000Y-94935000I0J75000D01*
G01*
G37*
G36*
G01*
X148675000Y-95435000D02*
X148675000Y-95285000D01*
G75*
G02*
X148750000Y-95210000I75000J0D01*
G01*
X150075000Y-95210000D01*
G75*
G02*
X150150000Y-95285000I0J-75000D01*
G01*
X150150000Y-95435000D01*
G75*
G02*
X150075000Y-95510000I-75000J0D01*
G01*
X148750000Y-95510000D01*
G75*
G02*
X148675000Y-95435000I0J75000D01*
G01*
G37*
G36*
G01*
X148675000Y-95935000D02*
X148675000Y-95785000D01*
G75*
G02*
X148750000Y-95710000I75000J0D01*
G01*
X150075000Y-95710000D01*
G75*
G02*
X150150000Y-95785000I0J-75000D01*
G01*
X150150000Y-95935000D01*
G75*
G02*
X150075000Y-96010000I-75000J0D01*
G01*
X148750000Y-96010000D01*
G75*
G02*
X148675000Y-95935000I0J75000D01*
G01*
G37*
G36*
G01*
X148675000Y-96435000D02*
X148675000Y-96285000D01*
G75*
G02*
X148750000Y-96210000I75000J0D01*
G01*
X150075000Y-96210000D01*
G75*
G02*
X150150000Y-96285000I0J-75000D01*
G01*
X150150000Y-96435000D01*
G75*
G02*
X150075000Y-96510000I-75000J0D01*
G01*
X148750000Y-96510000D01*
G75*
G02*
X148675000Y-96435000I0J75000D01*
G01*
G37*
G36*
G01*
X148675000Y-96935000D02*
X148675000Y-96785000D01*
G75*
G02*
X148750000Y-96710000I75000J0D01*
G01*
X150075000Y-96710000D01*
G75*
G02*
X150150000Y-96785000I0J-75000D01*
G01*
X150150000Y-96935000D01*
G75*
G02*
X150075000Y-97010000I-75000J0D01*
G01*
X148750000Y-97010000D01*
G75*
G02*
X148675000Y-96935000I0J75000D01*
G01*
G37*
G36*
G01*
X148675000Y-97435000D02*
X148675000Y-97285000D01*
G75*
G02*
X148750000Y-97210000I75000J0D01*
G01*
X150075000Y-97210000D01*
G75*
G02*
X150150000Y-97285000I0J-75000D01*
G01*
X150150000Y-97435000D01*
G75*
G02*
X150075000Y-97510000I-75000J0D01*
G01*
X148750000Y-97510000D01*
G75*
G02*
X148675000Y-97435000I0J75000D01*
G01*
G37*
G36*
G01*
X148675000Y-97935000D02*
X148675000Y-97785000D01*
G75*
G02*
X148750000Y-97710000I75000J0D01*
G01*
X150075000Y-97710000D01*
G75*
G02*
X150150000Y-97785000I0J-75000D01*
G01*
X150150000Y-97935000D01*
G75*
G02*
X150075000Y-98010000I-75000J0D01*
G01*
X148750000Y-98010000D01*
G75*
G02*
X148675000Y-97935000I0J75000D01*
G01*
G37*
G36*
G01*
X148675000Y-98435000D02*
X148675000Y-98285000D01*
G75*
G02*
X148750000Y-98210000I75000J0D01*
G01*
X150075000Y-98210000D01*
G75*
G02*
X150150000Y-98285000I0J-75000D01*
G01*
X150150000Y-98435000D01*
G75*
G02*
X150075000Y-98510000I-75000J0D01*
G01*
X148750000Y-98510000D01*
G75*
G02*
X148675000Y-98435000I0J75000D01*
G01*
G37*
G36*
G01*
X147850000Y-100435000D02*
X147850000Y-99110000D01*
G75*
G02*
X147925000Y-99035000I75000J0D01*
G01*
X148075000Y-99035000D01*
G75*
G02*
X148150000Y-99110000I0J-75000D01*
G01*
X148150000Y-100435000D01*
G75*
G02*
X148075000Y-100510000I-75000J0D01*
G01*
X147925000Y-100510000D01*
G75*
G02*
X147850000Y-100435000I0J75000D01*
G01*
G37*
G36*
G01*
X147350000Y-100435000D02*
X147350000Y-99110000D01*
G75*
G02*
X147425000Y-99035000I75000J0D01*
G01*
X147575000Y-99035000D01*
G75*
G02*
X147650000Y-99110000I0J-75000D01*
G01*
X147650000Y-100435000D01*
G75*
G02*
X147575000Y-100510000I-75000J0D01*
G01*
X147425000Y-100510000D01*
G75*
G02*
X147350000Y-100435000I0J75000D01*
G01*
G37*
G36*
G01*
X146850000Y-100435000D02*
X146850000Y-99110000D01*
G75*
G02*
X146925000Y-99035000I75000J0D01*
G01*
X147075000Y-99035000D01*
G75*
G02*
X147150000Y-99110000I0J-75000D01*
G01*
X147150000Y-100435000D01*
G75*
G02*
X147075000Y-100510000I-75000J0D01*
G01*
X146925000Y-100510000D01*
G75*
G02*
X146850000Y-100435000I0J75000D01*
G01*
G37*
G36*
G01*
X146350000Y-100435000D02*
X146350000Y-99110000D01*
G75*
G02*
X146425000Y-99035000I75000J0D01*
G01*
X146575000Y-99035000D01*
G75*
G02*
X146650000Y-99110000I0J-75000D01*
G01*
X146650000Y-100435000D01*
G75*
G02*
X146575000Y-100510000I-75000J0D01*
G01*
X146425000Y-100510000D01*
G75*
G02*
X146350000Y-100435000I0J75000D01*
G01*
G37*
G36*
G01*
X145850000Y-100435000D02*
X145850000Y-99110000D01*
G75*
G02*
X145925000Y-99035000I75000J0D01*
G01*
X146075000Y-99035000D01*
G75*
G02*
X146150000Y-99110000I0J-75000D01*
G01*
X146150000Y-100435000D01*
G75*
G02*
X146075000Y-100510000I-75000J0D01*
G01*
X145925000Y-100510000D01*
G75*
G02*
X145850000Y-100435000I0J75000D01*
G01*
G37*
G36*
G01*
X145350000Y-100435000D02*
X145350000Y-99110000D01*
G75*
G02*
X145425000Y-99035000I75000J0D01*
G01*
X145575000Y-99035000D01*
G75*
G02*
X145650000Y-99110000I0J-75000D01*
G01*
X145650000Y-100435000D01*
G75*
G02*
X145575000Y-100510000I-75000J0D01*
G01*
X145425000Y-100510000D01*
G75*
G02*
X145350000Y-100435000I0J75000D01*
G01*
G37*
G36*
G01*
X144850000Y-100435000D02*
X144850000Y-99110000D01*
G75*
G02*
X144925000Y-99035000I75000J0D01*
G01*
X145075000Y-99035000D01*
G75*
G02*
X145150000Y-99110000I0J-75000D01*
G01*
X145150000Y-100435000D01*
G75*
G02*
X145075000Y-100510000I-75000J0D01*
G01*
X144925000Y-100510000D01*
G75*
G02*
X144850000Y-100435000I0J75000D01*
G01*
G37*
G36*
G01*
X144350000Y-100435000D02*
X144350000Y-99110000D01*
G75*
G02*
X144425000Y-99035000I75000J0D01*
G01*
X144575000Y-99035000D01*
G75*
G02*
X144650000Y-99110000I0J-75000D01*
G01*
X144650000Y-100435000D01*
G75*
G02*
X144575000Y-100510000I-75000J0D01*
G01*
X144425000Y-100510000D01*
G75*
G02*
X144350000Y-100435000I0J75000D01*
G01*
G37*
G36*
G01*
X143850000Y-100435000D02*
X143850000Y-99110000D01*
G75*
G02*
X143925000Y-99035000I75000J0D01*
G01*
X144075000Y-99035000D01*
G75*
G02*
X144150000Y-99110000I0J-75000D01*
G01*
X144150000Y-100435000D01*
G75*
G02*
X144075000Y-100510000I-75000J0D01*
G01*
X143925000Y-100510000D01*
G75*
G02*
X143850000Y-100435000I0J75000D01*
G01*
G37*
G36*
G01*
X143350000Y-100435000D02*
X143350000Y-99110000D01*
G75*
G02*
X143425000Y-99035000I75000J0D01*
G01*
X143575000Y-99035000D01*
G75*
G02*
X143650000Y-99110000I0J-75000D01*
G01*
X143650000Y-100435000D01*
G75*
G02*
X143575000Y-100510000I-75000J0D01*
G01*
X143425000Y-100510000D01*
G75*
G02*
X143350000Y-100435000I0J75000D01*
G01*
G37*
G36*
G01*
X142850000Y-100435000D02*
X142850000Y-99110000D01*
G75*
G02*
X142925000Y-99035000I75000J0D01*
G01*
X143075000Y-99035000D01*
G75*
G02*
X143150000Y-99110000I0J-75000D01*
G01*
X143150000Y-100435000D01*
G75*
G02*
X143075000Y-100510000I-75000J0D01*
G01*
X142925000Y-100510000D01*
G75*
G02*
X142850000Y-100435000I0J75000D01*
G01*
G37*
G36*
G01*
X142350000Y-100435000D02*
X142350000Y-99110000D01*
G75*
G02*
X142425000Y-99035000I75000J0D01*
G01*
X142575000Y-99035000D01*
G75*
G02*
X142650000Y-99110000I0J-75000D01*
G01*
X142650000Y-100435000D01*
G75*
G02*
X142575000Y-100510000I-75000J0D01*
G01*
X142425000Y-100510000D01*
G75*
G02*
X142350000Y-100435000I0J75000D01*
G01*
G37*
G36*
G01*
X140350000Y-98435000D02*
X140350000Y-98285000D01*
G75*
G02*
X140425000Y-98210000I75000J0D01*
G01*
X141750000Y-98210000D01*
G75*
G02*
X141825000Y-98285000I0J-75000D01*
G01*
X141825000Y-98435000D01*
G75*
G02*
X141750000Y-98510000I-75000J0D01*
G01*
X140425000Y-98510000D01*
G75*
G02*
X140350000Y-98435000I0J75000D01*
G01*
G37*
G36*
G01*
X140350000Y-97935000D02*
X140350000Y-97785000D01*
G75*
G02*
X140425000Y-97710000I75000J0D01*
G01*
X141750000Y-97710000D01*
G75*
G02*
X141825000Y-97785000I0J-75000D01*
G01*
X141825000Y-97935000D01*
G75*
G02*
X141750000Y-98010000I-75000J0D01*
G01*
X140425000Y-98010000D01*
G75*
G02*
X140350000Y-97935000I0J75000D01*
G01*
G37*
G36*
G01*
X140350000Y-97435000D02*
X140350000Y-97285000D01*
G75*
G02*
X140425000Y-97210000I75000J0D01*
G01*
X141750000Y-97210000D01*
G75*
G02*
X141825000Y-97285000I0J-75000D01*
G01*
X141825000Y-97435000D01*
G75*
G02*
X141750000Y-97510000I-75000J0D01*
G01*
X140425000Y-97510000D01*
G75*
G02*
X140350000Y-97435000I0J75000D01*
G01*
G37*
G36*
G01*
X140350000Y-96935000D02*
X140350000Y-96785000D01*
G75*
G02*
X140425000Y-96710000I75000J0D01*
G01*
X141750000Y-96710000D01*
G75*
G02*
X141825000Y-96785000I0J-75000D01*
G01*
X141825000Y-96935000D01*
G75*
G02*
X141750000Y-97010000I-75000J0D01*
G01*
X140425000Y-97010000D01*
G75*
G02*
X140350000Y-96935000I0J75000D01*
G01*
G37*
G36*
G01*
X140350000Y-96435000D02*
X140350000Y-96285000D01*
G75*
G02*
X140425000Y-96210000I75000J0D01*
G01*
X141750000Y-96210000D01*
G75*
G02*
X141825000Y-96285000I0J-75000D01*
G01*
X141825000Y-96435000D01*
G75*
G02*
X141750000Y-96510000I-75000J0D01*
G01*
X140425000Y-96510000D01*
G75*
G02*
X140350000Y-96435000I0J75000D01*
G01*
G37*
G36*
G01*
X140350000Y-95935000D02*
X140350000Y-95785000D01*
G75*
G02*
X140425000Y-95710000I75000J0D01*
G01*
X141750000Y-95710000D01*
G75*
G02*
X141825000Y-95785000I0J-75000D01*
G01*
X141825000Y-95935000D01*
G75*
G02*
X141750000Y-96010000I-75000J0D01*
G01*
X140425000Y-96010000D01*
G75*
G02*
X140350000Y-95935000I0J75000D01*
G01*
G37*
G36*
G01*
X140350000Y-95435000D02*
X140350000Y-95285000D01*
G75*
G02*
X140425000Y-95210000I75000J0D01*
G01*
X141750000Y-95210000D01*
G75*
G02*
X141825000Y-95285000I0J-75000D01*
G01*
X141825000Y-95435000D01*
G75*
G02*
X141750000Y-95510000I-75000J0D01*
G01*
X140425000Y-95510000D01*
G75*
G02*
X140350000Y-95435000I0J75000D01*
G01*
G37*
G36*
G01*
X140350000Y-94935000D02*
X140350000Y-94785000D01*
G75*
G02*
X140425000Y-94710000I75000J0D01*
G01*
X141750000Y-94710000D01*
G75*
G02*
X141825000Y-94785000I0J-75000D01*
G01*
X141825000Y-94935000D01*
G75*
G02*
X141750000Y-95010000I-75000J0D01*
G01*
X140425000Y-95010000D01*
G75*
G02*
X140350000Y-94935000I0J75000D01*
G01*
G37*
G36*
G01*
X140350000Y-94435000D02*
X140350000Y-94285000D01*
G75*
G02*
X140425000Y-94210000I75000J0D01*
G01*
X141750000Y-94210000D01*
G75*
G02*
X141825000Y-94285000I0J-75000D01*
G01*
X141825000Y-94435000D01*
G75*
G02*
X141750000Y-94510000I-75000J0D01*
G01*
X140425000Y-94510000D01*
G75*
G02*
X140350000Y-94435000I0J75000D01*
G01*
G37*
G36*
G01*
X140350000Y-93935000D02*
X140350000Y-93785000D01*
G75*
G02*
X140425000Y-93710000I75000J0D01*
G01*
X141750000Y-93710000D01*
G75*
G02*
X141825000Y-93785000I0J-75000D01*
G01*
X141825000Y-93935000D01*
G75*
G02*
X141750000Y-94010000I-75000J0D01*
G01*
X140425000Y-94010000D01*
G75*
G02*
X140350000Y-93935000I0J75000D01*
G01*
G37*
G36*
G01*
X140350000Y-93435000D02*
X140350000Y-93285000D01*
G75*
G02*
X140425000Y-93210000I75000J0D01*
G01*
X141750000Y-93210000D01*
G75*
G02*
X141825000Y-93285000I0J-75000D01*
G01*
X141825000Y-93435000D01*
G75*
G02*
X141750000Y-93510000I-75000J0D01*
G01*
X140425000Y-93510000D01*
G75*
G02*
X140350000Y-93435000I0J75000D01*
G01*
G37*
G36*
G01*
X140350000Y-92935000D02*
X140350000Y-92785000D01*
G75*
G02*
X140425000Y-92710000I75000J0D01*
G01*
X141750000Y-92710000D01*
G75*
G02*
X141825000Y-92785000I0J-75000D01*
G01*
X141825000Y-92935000D01*
G75*
G02*
X141750000Y-93010000I-75000J0D01*
G01*
X140425000Y-93010000D01*
G75*
G02*
X140350000Y-92935000I0J75000D01*
G01*
G37*
G36*
G01*
X149697500Y-100700000D02*
X149697500Y-100500000D01*
G75*
G02*
X149797500Y-100400000I100000J0D01*
G01*
X150232500Y-100400000D01*
G75*
G02*
X150332500Y-100500000I0J-100000D01*
G01*
X150332500Y-100700000D01*
G75*
G02*
X150232500Y-100800000I-100000J0D01*
G01*
X149797500Y-100800000D01*
G75*
G02*
X149697500Y-100700000I0J100000D01*
G01*
G37*
G36*
G01*
X148882500Y-100700000D02*
X148882500Y-100500000D01*
G75*
G02*
X148982500Y-100400000I100000J0D01*
G01*
X149417500Y-100400000D01*
G75*
G02*
X149517500Y-100500000I0J-100000D01*
G01*
X149517500Y-100700000D01*
G75*
G02*
X149417500Y-100800000I-100000J0D01*
G01*
X148982500Y-100800000D01*
G75*
G02*
X148882500Y-100700000I0J100000D01*
G01*
G37*
D15*
X183500000Y-124620000D03*
X183500000Y-122080000D03*
X183500000Y-119540000D03*
D16*
X183500000Y-117000000D03*
D15*
X183750000Y-111620000D03*
X183750000Y-109080000D03*
X183750000Y-106540000D03*
D16*
X183750000Y-104000000D03*
D17*
X173550000Y-117525000D03*
X173550000Y-116255000D03*
X173550000Y-114985000D03*
X173550000Y-113715000D03*
X173550000Y-112445000D03*
D18*
X173550000Y-111175000D03*
G36*
G01*
X140110000Y-102700000D02*
X140110000Y-102900000D01*
G75*
G02*
X140010000Y-103000000I-100000J0D01*
G01*
X139575000Y-103000000D01*
G75*
G02*
X139475000Y-102900000I0J100000D01*
G01*
X139475000Y-102700000D01*
G75*
G02*
X139575000Y-102600000I100000J0D01*
G01*
X140010000Y-102600000D01*
G75*
G02*
X140110000Y-102700000I0J-100000D01*
G01*
G37*
G36*
G01*
X140925000Y-102700000D02*
X140925000Y-102900000D01*
G75*
G02*
X140825000Y-103000000I-100000J0D01*
G01*
X140390000Y-103000000D01*
G75*
G02*
X140290000Y-102900000I0J100000D01*
G01*
X140290000Y-102700000D01*
G75*
G02*
X140390000Y-102600000I100000J0D01*
G01*
X140825000Y-102600000D01*
G75*
G02*
X140925000Y-102700000I0J-100000D01*
G01*
G37*
X143580000Y-121990000D03*
D17*
X144850000Y-121990000D03*
X146120000Y-121990000D03*
X147390000Y-121990000D03*
X148660000Y-121990000D03*
X149930000Y-121990000D03*
G36*
G01*
X145110000Y-101500000D02*
X145110000Y-101700000D01*
G75*
G02*
X145010000Y-101800000I-100000J0D01*
G01*
X144575000Y-101800000D01*
G75*
G02*
X144475000Y-101700000I0J100000D01*
G01*
X144475000Y-101500000D01*
G75*
G02*
X144575000Y-101400000I100000J0D01*
G01*
X145010000Y-101400000D01*
G75*
G02*
X145110000Y-101500000I0J-100000D01*
G01*
G37*
G36*
G01*
X145925000Y-101500000D02*
X145925000Y-101700000D01*
G75*
G02*
X145825000Y-101800000I-100000J0D01*
G01*
X145390000Y-101800000D01*
G75*
G02*
X145290000Y-101700000I0J100000D01*
G01*
X145290000Y-101500000D01*
G75*
G02*
X145390000Y-101400000I100000J0D01*
G01*
X145825000Y-101400000D01*
G75*
G02*
X145925000Y-101500000I0J-100000D01*
G01*
G37*
G36*
G01*
X138910000Y-92700000D02*
X138910000Y-92900000D01*
G75*
G02*
X138810000Y-93000000I-100000J0D01*
G01*
X138375000Y-93000000D01*
G75*
G02*
X138275000Y-92900000I0J100000D01*
G01*
X138275000Y-92700000D01*
G75*
G02*
X138375000Y-92600000I100000J0D01*
G01*
X138810000Y-92600000D01*
G75*
G02*
X138910000Y-92700000I0J-100000D01*
G01*
G37*
G36*
G01*
X139725000Y-92700000D02*
X139725000Y-92900000D01*
G75*
G02*
X139625000Y-93000000I-100000J0D01*
G01*
X139190000Y-93000000D01*
G75*
G02*
X139090000Y-92900000I0J100000D01*
G01*
X139090000Y-92700000D01*
G75*
G02*
X139190000Y-92600000I100000J0D01*
G01*
X139625000Y-92600000D01*
G75*
G02*
X139725000Y-92700000I0J-100000D01*
G01*
G37*
G36*
G01*
X147090000Y-101700000D02*
X147090000Y-101500000D01*
G75*
G02*
X147190000Y-101400000I100000J0D01*
G01*
X147625000Y-101400000D01*
G75*
G02*
X147725000Y-101500000I0J-100000D01*
G01*
X147725000Y-101700000D01*
G75*
G02*
X147625000Y-101800000I-100000J0D01*
G01*
X147190000Y-101800000D01*
G75*
G02*
X147090000Y-101700000I0J100000D01*
G01*
G37*
G36*
G01*
X146275000Y-101700000D02*
X146275000Y-101500000D01*
G75*
G02*
X146375000Y-101400000I100000J0D01*
G01*
X146810000Y-101400000D01*
G75*
G02*
X146910000Y-101500000I0J-100000D01*
G01*
X146910000Y-101700000D01*
G75*
G02*
X146810000Y-101800000I-100000J0D01*
G01*
X146375000Y-101800000D01*
G75*
G02*
X146275000Y-101700000I0J100000D01*
G01*
G37*
G36*
G01*
X151690000Y-92900000D02*
X151690000Y-92700000D01*
G75*
G02*
X151790000Y-92600000I100000J0D01*
G01*
X152225000Y-92600000D01*
G75*
G02*
X152325000Y-92700000I0J-100000D01*
G01*
X152325000Y-92900000D01*
G75*
G02*
X152225000Y-93000000I-100000J0D01*
G01*
X151790000Y-93000000D01*
G75*
G02*
X151690000Y-92900000I0J100000D01*
G01*
G37*
G36*
G01*
X150875000Y-92900000D02*
X150875000Y-92700000D01*
G75*
G02*
X150975000Y-92600000I100000J0D01*
G01*
X151410000Y-92600000D01*
G75*
G02*
X151510000Y-92700000I0J-100000D01*
G01*
X151510000Y-92900000D01*
G75*
G02*
X151410000Y-93000000I-100000J0D01*
G01*
X150975000Y-93000000D01*
G75*
G02*
X150875000Y-92900000I0J100000D01*
G01*
G37*
G36*
G01*
X140910000Y-90300000D02*
X140910000Y-90500000D01*
G75*
G02*
X140810000Y-90600000I-100000J0D01*
G01*
X140375000Y-90600000D01*
G75*
G02*
X140275000Y-90500000I0J100000D01*
G01*
X140275000Y-90300000D01*
G75*
G02*
X140375000Y-90200000I100000J0D01*
G01*
X140810000Y-90200000D01*
G75*
G02*
X140910000Y-90300000I0J-100000D01*
G01*
G37*
G36*
G01*
X141725000Y-90300000D02*
X141725000Y-90500000D01*
G75*
G02*
X141625000Y-90600000I-100000J0D01*
G01*
X141190000Y-90600000D01*
G75*
G02*
X141090000Y-90500000I0J100000D01*
G01*
X141090000Y-90300000D01*
G75*
G02*
X141190000Y-90200000I100000J0D01*
G01*
X141625000Y-90200000D01*
G75*
G02*
X141725000Y-90300000I0J-100000D01*
G01*
G37*
G36*
G01*
X144575000Y-102962500D02*
X144575000Y-102587500D01*
G75*
G02*
X144662500Y-102500000I87500J0D01*
G01*
X144837500Y-102500000D01*
G75*
G02*
X144925000Y-102587500I0J-87500D01*
G01*
X144925000Y-102962500D01*
G75*
G02*
X144837500Y-103050000I-87500J0D01*
G01*
X144662500Y-103050000D01*
G75*
G02*
X144575000Y-102962500I0J87500D01*
G01*
G37*
G36*
G01*
X145075000Y-102962500D02*
X145075000Y-102587500D01*
G75*
G02*
X145162500Y-102500000I87500J0D01*
G01*
X145337500Y-102500000D01*
G75*
G02*
X145425000Y-102587500I0J-87500D01*
G01*
X145425000Y-102962500D01*
G75*
G02*
X145337500Y-103050000I-87500J0D01*
G01*
X145162500Y-103050000D01*
G75*
G02*
X145075000Y-102962500I0J87500D01*
G01*
G37*
G36*
G01*
X145575000Y-102962500D02*
X145575000Y-102587500D01*
G75*
G02*
X145662500Y-102500000I87500J0D01*
G01*
X145837500Y-102500000D01*
G75*
G02*
X145925000Y-102587500I0J-87500D01*
G01*
X145925000Y-102962500D01*
G75*
G02*
X145837500Y-103050000I-87500J0D01*
G01*
X145662500Y-103050000D01*
G75*
G02*
X145575000Y-102962500I0J87500D01*
G01*
G37*
G36*
G01*
X146200000Y-103087500D02*
X146200000Y-102912500D01*
G75*
G02*
X146287500Y-102825000I87500J0D01*
G01*
X146662500Y-102825000D01*
G75*
G02*
X146750000Y-102912500I0J-87500D01*
G01*
X146750000Y-103087500D01*
G75*
G02*
X146662500Y-103175000I-87500J0D01*
G01*
X146287500Y-103175000D01*
G75*
G02*
X146200000Y-103087500I0J87500D01*
G01*
G37*
G36*
G01*
X146200000Y-103587500D02*
X146200000Y-103412500D01*
G75*
G02*
X146287500Y-103325000I87500J0D01*
G01*
X146662500Y-103325000D01*
G75*
G02*
X146750000Y-103412500I0J-87500D01*
G01*
X146750000Y-103587500D01*
G75*
G02*
X146662500Y-103675000I-87500J0D01*
G01*
X146287500Y-103675000D01*
G75*
G02*
X146200000Y-103587500I0J87500D01*
G01*
G37*
G36*
G01*
X146200000Y-104087500D02*
X146200000Y-103912500D01*
G75*
G02*
X146287500Y-103825000I87500J0D01*
G01*
X146662500Y-103825000D01*
G75*
G02*
X146750000Y-103912500I0J-87500D01*
G01*
X146750000Y-104087500D01*
G75*
G02*
X146662500Y-104175000I-87500J0D01*
G01*
X146287500Y-104175000D01*
G75*
G02*
X146200000Y-104087500I0J87500D01*
G01*
G37*
G36*
G01*
X146200000Y-104587500D02*
X146200000Y-104412500D01*
G75*
G02*
X146287500Y-104325000I87500J0D01*
G01*
X146662500Y-104325000D01*
G75*
G02*
X146750000Y-104412500I0J-87500D01*
G01*
X146750000Y-104587500D01*
G75*
G02*
X146662500Y-104675000I-87500J0D01*
G01*
X146287500Y-104675000D01*
G75*
G02*
X146200000Y-104587500I0J87500D01*
G01*
G37*
G36*
G01*
X146200000Y-105087500D02*
X146200000Y-104912500D01*
G75*
G02*
X146287500Y-104825000I87500J0D01*
G01*
X146662500Y-104825000D01*
G75*
G02*
X146750000Y-104912500I0J-87500D01*
G01*
X146750000Y-105087500D01*
G75*
G02*
X146662500Y-105175000I-87500J0D01*
G01*
X146287500Y-105175000D01*
G75*
G02*
X146200000Y-105087500I0J87500D01*
G01*
G37*
G36*
G01*
X145575000Y-105412500D02*
X145575000Y-105037500D01*
G75*
G02*
X145662500Y-104950000I87500J0D01*
G01*
X145837500Y-104950000D01*
G75*
G02*
X145925000Y-105037500I0J-87500D01*
G01*
X145925000Y-105412500D01*
G75*
G02*
X145837500Y-105500000I-87500J0D01*
G01*
X145662500Y-105500000D01*
G75*
G02*
X145575000Y-105412500I0J87500D01*
G01*
G37*
G36*
G01*
X145075000Y-105412500D02*
X145075000Y-105037500D01*
G75*
G02*
X145162500Y-104950000I87500J0D01*
G01*
X145337500Y-104950000D01*
G75*
G02*
X145425000Y-105037500I0J-87500D01*
G01*
X145425000Y-105412500D01*
G75*
G02*
X145337500Y-105500000I-87500J0D01*
G01*
X145162500Y-105500000D01*
G75*
G02*
X145075000Y-105412500I0J87500D01*
G01*
G37*
G36*
G01*
X144575000Y-105412500D02*
X144575000Y-105037500D01*
G75*
G02*
X144662500Y-104950000I87500J0D01*
G01*
X144837500Y-104950000D01*
G75*
G02*
X144925000Y-105037500I0J-87500D01*
G01*
X144925000Y-105412500D01*
G75*
G02*
X144837500Y-105500000I-87500J0D01*
G01*
X144662500Y-105500000D01*
G75*
G02*
X144575000Y-105412500I0J87500D01*
G01*
G37*
G36*
G01*
X143750000Y-105087500D02*
X143750000Y-104912500D01*
G75*
G02*
X143837500Y-104825000I87500J0D01*
G01*
X144212500Y-104825000D01*
G75*
G02*
X144300000Y-104912500I0J-87500D01*
G01*
X144300000Y-105087500D01*
G75*
G02*
X144212500Y-105175000I-87500J0D01*
G01*
X143837500Y-105175000D01*
G75*
G02*
X143750000Y-105087500I0J87500D01*
G01*
G37*
G36*
G01*
X143750000Y-104587500D02*
X143750000Y-104412500D01*
G75*
G02*
X143837500Y-104325000I87500J0D01*
G01*
X144212500Y-104325000D01*
G75*
G02*
X144300000Y-104412500I0J-87500D01*
G01*
X144300000Y-104587500D01*
G75*
G02*
X144212500Y-104675000I-87500J0D01*
G01*
X143837500Y-104675000D01*
G75*
G02*
X143750000Y-104587500I0J87500D01*
G01*
G37*
G36*
G01*
X143750000Y-104087500D02*
X143750000Y-103912500D01*
G75*
G02*
X143837500Y-103825000I87500J0D01*
G01*
X144212500Y-103825000D01*
G75*
G02*
X144300000Y-103912500I0J-87500D01*
G01*
X144300000Y-104087500D01*
G75*
G02*
X144212500Y-104175000I-87500J0D01*
G01*
X143837500Y-104175000D01*
G75*
G02*
X143750000Y-104087500I0J87500D01*
G01*
G37*
G36*
G01*
X143750000Y-103587500D02*
X143750000Y-103412500D01*
G75*
G02*
X143837500Y-103325000I87500J0D01*
G01*
X144212500Y-103325000D01*
G75*
G02*
X144300000Y-103412500I0J-87500D01*
G01*
X144300000Y-103587500D01*
G75*
G02*
X144212500Y-103675000I-87500J0D01*
G01*
X143837500Y-103675000D01*
G75*
G02*
X143750000Y-103587500I0J87500D01*
G01*
G37*
G36*
G01*
X143750000Y-103087500D02*
X143750000Y-102912500D01*
G75*
G02*
X143837500Y-102825000I87500J0D01*
G01*
X144212500Y-102825000D01*
G75*
G02*
X144300000Y-102912500I0J-87500D01*
G01*
X144300000Y-103087500D01*
G75*
G02*
X144212500Y-103175000I-87500J0D01*
G01*
X143837500Y-103175000D01*
G75*
G02*
X143750000Y-103087500I0J87500D01*
G01*
G37*
D19*
X148500000Y-106400000D03*
X150500000Y-106400000D03*
X141800000Y-106400000D03*
X139600000Y-106400000D03*
G36*
G01*
X154300000Y-136965000D02*
X154300000Y-136415000D01*
G75*
G02*
X154525000Y-136190000I225000J0D01*
G01*
X154975000Y-136190000D01*
G75*
G02*
X155200000Y-136415000I0J-225000D01*
G01*
X155200000Y-136965000D01*
G75*
G02*
X154975000Y-137190000I-225000J0D01*
G01*
X154525000Y-137190000D01*
G75*
G02*
X154300000Y-136965000I0J225000D01*
G01*
G37*
G36*
G01*
X152300000Y-136965000D02*
X152300000Y-136415000D01*
G75*
G02*
X152525000Y-136190000I225000J0D01*
G01*
X152975000Y-136190000D01*
G75*
G02*
X153200000Y-136415000I0J-225000D01*
G01*
X153200000Y-136965000D01*
G75*
G02*
X152975000Y-137190000I-225000J0D01*
G01*
X152525000Y-137190000D01*
G75*
G02*
X152300000Y-136965000I0J225000D01*
G01*
G37*
G36*
G01*
X150300000Y-136965000D02*
X150300000Y-136415000D01*
G75*
G02*
X150525000Y-136190000I225000J0D01*
G01*
X150975000Y-136190000D01*
G75*
G02*
X151200000Y-136415000I0J-225000D01*
G01*
X151200000Y-136965000D01*
G75*
G02*
X150975000Y-137190000I-225000J0D01*
G01*
X150525000Y-137190000D01*
G75*
G02*
X150300000Y-136965000I0J225000D01*
G01*
G37*
G36*
G01*
X142245000Y-136965000D02*
X142245000Y-136415000D01*
G75*
G02*
X142470000Y-136190000I225000J0D01*
G01*
X142920000Y-136190000D01*
G75*
G02*
X143145000Y-136415000I0J-225000D01*
G01*
X143145000Y-136965000D01*
G75*
G02*
X142920000Y-137190000I-225000J0D01*
G01*
X142470000Y-137190000D01*
G75*
G02*
X142245000Y-136965000I0J225000D01*
G01*
G37*
G36*
G01*
X140245000Y-136965000D02*
X140245000Y-136415000D01*
G75*
G02*
X140470000Y-136190000I225000J0D01*
G01*
X140920000Y-136190000D01*
G75*
G02*
X141145000Y-136415000I0J-225000D01*
G01*
X141145000Y-136965000D01*
G75*
G02*
X140920000Y-137190000I-225000J0D01*
G01*
X140470000Y-137190000D01*
G75*
G02*
X140245000Y-136965000I0J225000D01*
G01*
G37*
G36*
G01*
X138245000Y-136965000D02*
X138245000Y-136415000D01*
G75*
G02*
X138470000Y-136190000I225000J0D01*
G01*
X138920000Y-136190000D01*
G75*
G02*
X139145000Y-136415000I0J-225000D01*
G01*
X139145000Y-136965000D01*
G75*
G02*
X138920000Y-137190000I-225000J0D01*
G01*
X138470000Y-137190000D01*
G75*
G02*
X138245000Y-136965000I0J225000D01*
G01*
G37*
G36*
G01*
X150590000Y-119220000D02*
X150390000Y-119220000D01*
G75*
G02*
X150290000Y-119120000I0J100000D01*
G01*
X150290000Y-118685000D01*
G75*
G02*
X150390000Y-118585000I100000J0D01*
G01*
X150590000Y-118585000D01*
G75*
G02*
X150690000Y-118685000I0J-100000D01*
G01*
X150690000Y-119120000D01*
G75*
G02*
X150590000Y-119220000I-100000J0D01*
G01*
G37*
G36*
G01*
X150590000Y-120035000D02*
X150390000Y-120035000D01*
G75*
G02*
X150290000Y-119935000I0J100000D01*
G01*
X150290000Y-119500000D01*
G75*
G02*
X150390000Y-119400000I100000J0D01*
G01*
X150590000Y-119400000D01*
G75*
G02*
X150690000Y-119500000I0J-100000D01*
G01*
X150690000Y-119935000D01*
G75*
G02*
X150590000Y-120035000I-100000J0D01*
G01*
G37*
G36*
G01*
X148810000Y-114300000D02*
X148810000Y-114500000D01*
G75*
G02*
X148710000Y-114600000I-100000J0D01*
G01*
X148275000Y-114600000D01*
G75*
G02*
X148175000Y-114500000I0J100000D01*
G01*
X148175000Y-114300000D01*
G75*
G02*
X148275000Y-114200000I100000J0D01*
G01*
X148710000Y-114200000D01*
G75*
G02*
X148810000Y-114300000I0J-100000D01*
G01*
G37*
G36*
G01*
X149625000Y-114300000D02*
X149625000Y-114500000D01*
G75*
G02*
X149525000Y-114600000I-100000J0D01*
G01*
X149090000Y-114600000D01*
G75*
G02*
X148990000Y-114500000I0J100000D01*
G01*
X148990000Y-114300000D01*
G75*
G02*
X149090000Y-114200000I100000J0D01*
G01*
X149525000Y-114200000D01*
G75*
G02*
X149625000Y-114300000I0J-100000D01*
G01*
G37*
G36*
G01*
X159930000Y-112940000D02*
X159730000Y-112940000D01*
G75*
G02*
X159630000Y-112840000I0J100000D01*
G01*
X159630000Y-112405000D01*
G75*
G02*
X159730000Y-112305000I100000J0D01*
G01*
X159930000Y-112305000D01*
G75*
G02*
X160030000Y-112405000I0J-100000D01*
G01*
X160030000Y-112840000D01*
G75*
G02*
X159930000Y-112940000I-100000J0D01*
G01*
G37*
G36*
G01*
X159930000Y-113755000D02*
X159730000Y-113755000D01*
G75*
G02*
X159630000Y-113655000I0J100000D01*
G01*
X159630000Y-113220000D01*
G75*
G02*
X159730000Y-113120000I100000J0D01*
G01*
X159930000Y-113120000D01*
G75*
G02*
X160030000Y-113220000I0J-100000D01*
G01*
X160030000Y-113655000D01*
G75*
G02*
X159930000Y-113755000I-100000J0D01*
G01*
G37*
G36*
G01*
X152360000Y-90810000D02*
X152160000Y-90810000D01*
G75*
G02*
X152060000Y-90710000I0J100000D01*
G01*
X152060000Y-90275000D01*
G75*
G02*
X152160000Y-90175000I100000J0D01*
G01*
X152360000Y-90175000D01*
G75*
G02*
X152460000Y-90275000I0J-100000D01*
G01*
X152460000Y-90710000D01*
G75*
G02*
X152360000Y-90810000I-100000J0D01*
G01*
G37*
G36*
G01*
X152360000Y-91625000D02*
X152160000Y-91625000D01*
G75*
G02*
X152060000Y-91525000I0J100000D01*
G01*
X152060000Y-91090000D01*
G75*
G02*
X152160000Y-90990000I100000J0D01*
G01*
X152360000Y-90990000D01*
G75*
G02*
X152460000Y-91090000I0J-100000D01*
G01*
X152460000Y-91525000D01*
G75*
G02*
X152360000Y-91625000I-100000J0D01*
G01*
G37*
G36*
G01*
X128990000Y-112400000D02*
X128990000Y-112200000D01*
G75*
G02*
X129090000Y-112100000I100000J0D01*
G01*
X129525000Y-112100000D01*
G75*
G02*
X129625000Y-112200000I0J-100000D01*
G01*
X129625000Y-112400000D01*
G75*
G02*
X129525000Y-112500000I-100000J0D01*
G01*
X129090000Y-112500000D01*
G75*
G02*
X128990000Y-112400000I0J100000D01*
G01*
G37*
G36*
G01*
X128175000Y-112400000D02*
X128175000Y-112200000D01*
G75*
G02*
X128275000Y-112100000I100000J0D01*
G01*
X128710000Y-112100000D01*
G75*
G02*
X128810000Y-112200000I0J-100000D01*
G01*
X128810000Y-112400000D01*
G75*
G02*
X128710000Y-112500000I-100000J0D01*
G01*
X128275000Y-112500000D01*
G75*
G02*
X128175000Y-112400000I0J100000D01*
G01*
G37*
G36*
G01*
X137400000Y-115550000D02*
X137600000Y-115550000D01*
G75*
G02*
X137700000Y-115650000I0J-100000D01*
G01*
X137700000Y-116085000D01*
G75*
G02*
X137600000Y-116185000I-100000J0D01*
G01*
X137400000Y-116185000D01*
G75*
G02*
X137300000Y-116085000I0J100000D01*
G01*
X137300000Y-115650000D01*
G75*
G02*
X137400000Y-115550000I100000J0D01*
G01*
G37*
G36*
G01*
X137400000Y-114735000D02*
X137600000Y-114735000D01*
G75*
G02*
X137700000Y-114835000I0J-100000D01*
G01*
X137700000Y-115270000D01*
G75*
G02*
X137600000Y-115370000I-100000J0D01*
G01*
X137400000Y-115370000D01*
G75*
G02*
X137300000Y-115270000I0J100000D01*
G01*
X137300000Y-114835000D01*
G75*
G02*
X137400000Y-114735000I100000J0D01*
G01*
G37*
G36*
G01*
X136630000Y-115350000D02*
X136430000Y-115350000D01*
G75*
G02*
X136330000Y-115250000I0J100000D01*
G01*
X136330000Y-114815000D01*
G75*
G02*
X136430000Y-114715000I100000J0D01*
G01*
X136630000Y-114715000D01*
G75*
G02*
X136730000Y-114815000I0J-100000D01*
G01*
X136730000Y-115250000D01*
G75*
G02*
X136630000Y-115350000I-100000J0D01*
G01*
G37*
G36*
G01*
X136630000Y-116165000D02*
X136430000Y-116165000D01*
G75*
G02*
X136330000Y-116065000I0J100000D01*
G01*
X136330000Y-115630000D01*
G75*
G02*
X136430000Y-115530000I100000J0D01*
G01*
X136630000Y-115530000D01*
G75*
G02*
X136730000Y-115630000I0J-100000D01*
G01*
X136730000Y-116065000D01*
G75*
G02*
X136630000Y-116165000I-100000J0D01*
G01*
G37*
G36*
G01*
X127240000Y-118650000D02*
X127040000Y-118650000D01*
G75*
G02*
X126940000Y-118550000I0J100000D01*
G01*
X126940000Y-118115000D01*
G75*
G02*
X127040000Y-118015000I100000J0D01*
G01*
X127240000Y-118015000D01*
G75*
G02*
X127340000Y-118115000I0J-100000D01*
G01*
X127340000Y-118550000D01*
G75*
G02*
X127240000Y-118650000I-100000J0D01*
G01*
G37*
G36*
G01*
X127240000Y-119465000D02*
X127040000Y-119465000D01*
G75*
G02*
X126940000Y-119365000I0J100000D01*
G01*
X126940000Y-118930000D01*
G75*
G02*
X127040000Y-118830000I100000J0D01*
G01*
X127240000Y-118830000D01*
G75*
G02*
X127340000Y-118930000I0J-100000D01*
G01*
X127340000Y-119365000D01*
G75*
G02*
X127240000Y-119465000I-100000J0D01*
G01*
G37*
G36*
G01*
X144390000Y-87300000D02*
X144390000Y-87100000D01*
G75*
G02*
X144490000Y-87000000I100000J0D01*
G01*
X144925000Y-87000000D01*
G75*
G02*
X145025000Y-87100000I0J-100000D01*
G01*
X145025000Y-87300000D01*
G75*
G02*
X144925000Y-87400000I-100000J0D01*
G01*
X144490000Y-87400000D01*
G75*
G02*
X144390000Y-87300000I0J100000D01*
G01*
G37*
G36*
G01*
X143575000Y-87300000D02*
X143575000Y-87100000D01*
G75*
G02*
X143675000Y-87000000I100000J0D01*
G01*
X144110000Y-87000000D01*
G75*
G02*
X144210000Y-87100000I0J-100000D01*
G01*
X144210000Y-87300000D01*
G75*
G02*
X144110000Y-87400000I-100000J0D01*
G01*
X143675000Y-87400000D01*
G75*
G02*
X143575000Y-87300000I0J100000D01*
G01*
G37*
G36*
G01*
X133900000Y-94490000D02*
X134100000Y-94490000D01*
G75*
G02*
X134200000Y-94590000I0J-100000D01*
G01*
X134200000Y-95025000D01*
G75*
G02*
X134100000Y-95125000I-100000J0D01*
G01*
X133900000Y-95125000D01*
G75*
G02*
X133800000Y-95025000I0J100000D01*
G01*
X133800000Y-94590000D01*
G75*
G02*
X133900000Y-94490000I100000J0D01*
G01*
G37*
G36*
G01*
X133900000Y-93675000D02*
X134100000Y-93675000D01*
G75*
G02*
X134200000Y-93775000I0J-100000D01*
G01*
X134200000Y-94210000D01*
G75*
G02*
X134100000Y-94310000I-100000J0D01*
G01*
X133900000Y-94310000D01*
G75*
G02*
X133800000Y-94210000I0J100000D01*
G01*
X133800000Y-93775000D01*
G75*
G02*
X133900000Y-93675000I100000J0D01*
G01*
G37*
G36*
G01*
X157700000Y-94290000D02*
X157900000Y-94290000D01*
G75*
G02*
X158000000Y-94390000I0J-100000D01*
G01*
X158000000Y-94825000D01*
G75*
G02*
X157900000Y-94925000I-100000J0D01*
G01*
X157700000Y-94925000D01*
G75*
G02*
X157600000Y-94825000I0J100000D01*
G01*
X157600000Y-94390000D01*
G75*
G02*
X157700000Y-94290000I100000J0D01*
G01*
G37*
G36*
G01*
X157700000Y-93475000D02*
X157900000Y-93475000D01*
G75*
G02*
X158000000Y-93575000I0J-100000D01*
G01*
X158000000Y-94010000D01*
G75*
G02*
X157900000Y-94110000I-100000J0D01*
G01*
X157700000Y-94110000D01*
G75*
G02*
X157600000Y-94010000I0J100000D01*
G01*
X157600000Y-93575000D01*
G75*
G02*
X157700000Y-93475000I100000J0D01*
G01*
G37*
G36*
G01*
X146110000Y-87100000D02*
X146110000Y-87300000D01*
G75*
G02*
X146010000Y-87400000I-100000J0D01*
G01*
X145575000Y-87400000D01*
G75*
G02*
X145475000Y-87300000I0J100000D01*
G01*
X145475000Y-87100000D01*
G75*
G02*
X145575000Y-87000000I100000J0D01*
G01*
X146010000Y-87000000D01*
G75*
G02*
X146110000Y-87100000I0J-100000D01*
G01*
G37*
G36*
G01*
X146925000Y-87100000D02*
X146925000Y-87300000D01*
G75*
G02*
X146825000Y-87400000I-100000J0D01*
G01*
X146390000Y-87400000D01*
G75*
G02*
X146290000Y-87300000I0J100000D01*
G01*
X146290000Y-87100000D01*
G75*
G02*
X146390000Y-87000000I100000J0D01*
G01*
X146825000Y-87000000D01*
G75*
G02*
X146925000Y-87100000I0J-100000D01*
G01*
G37*
G36*
G01*
X132400000Y-90712500D02*
X132200000Y-90712500D01*
G75*
G02*
X132100000Y-90612500I0J100000D01*
G01*
X132100000Y-90177500D01*
G75*
G02*
X132200000Y-90077500I100000J0D01*
G01*
X132400000Y-90077500D01*
G75*
G02*
X132500000Y-90177500I0J-100000D01*
G01*
X132500000Y-90612500D01*
G75*
G02*
X132400000Y-90712500I-100000J0D01*
G01*
G37*
G36*
G01*
X132400000Y-91527500D02*
X132200000Y-91527500D01*
G75*
G02*
X132100000Y-91427500I0J100000D01*
G01*
X132100000Y-90992500D01*
G75*
G02*
X132200000Y-90892500I100000J0D01*
G01*
X132400000Y-90892500D01*
G75*
G02*
X132500000Y-90992500I0J-100000D01*
G01*
X132500000Y-91427500D01*
G75*
G02*
X132400000Y-91527500I-100000J0D01*
G01*
G37*
G36*
G01*
X152240000Y-122090000D02*
X152560000Y-122090000D01*
G75*
G02*
X152720000Y-122250000I0J-160000D01*
G01*
X152720000Y-122695000D01*
G75*
G02*
X152560000Y-122855000I-160000J0D01*
G01*
X152240000Y-122855000D01*
G75*
G02*
X152080000Y-122695000I0J160000D01*
G01*
X152080000Y-122250000D01*
G75*
G02*
X152240000Y-122090000I160000J0D01*
G01*
G37*
G36*
G01*
X152240000Y-120945000D02*
X152560000Y-120945000D01*
G75*
G02*
X152720000Y-121105000I0J-160000D01*
G01*
X152720000Y-121550000D01*
G75*
G02*
X152560000Y-121710000I-160000J0D01*
G01*
X152240000Y-121710000D01*
G75*
G02*
X152080000Y-121550000I0J160000D01*
G01*
X152080000Y-121105000D01*
G75*
G02*
X152240000Y-120945000I160000J0D01*
G01*
G37*
G36*
G01*
X154240000Y-122090000D02*
X154560000Y-122090000D01*
G75*
G02*
X154720000Y-122250000I0J-160000D01*
G01*
X154720000Y-122695000D01*
G75*
G02*
X154560000Y-122855000I-160000J0D01*
G01*
X154240000Y-122855000D01*
G75*
G02*
X154080000Y-122695000I0J160000D01*
G01*
X154080000Y-122250000D01*
G75*
G02*
X154240000Y-122090000I160000J0D01*
G01*
G37*
G36*
G01*
X154240000Y-120945000D02*
X154560000Y-120945000D01*
G75*
G02*
X154720000Y-121105000I0J-160000D01*
G01*
X154720000Y-121550000D01*
G75*
G02*
X154560000Y-121710000I-160000J0D01*
G01*
X154240000Y-121710000D01*
G75*
G02*
X154080000Y-121550000I0J160000D01*
G01*
X154080000Y-121105000D01*
G75*
G02*
X154240000Y-120945000I160000J0D01*
G01*
G37*
G36*
G01*
X156160000Y-122100000D02*
X156480000Y-122100000D01*
G75*
G02*
X156640000Y-122260000I0J-160000D01*
G01*
X156640000Y-122705000D01*
G75*
G02*
X156480000Y-122865000I-160000J0D01*
G01*
X156160000Y-122865000D01*
G75*
G02*
X156000000Y-122705000I0J160000D01*
G01*
X156000000Y-122260000D01*
G75*
G02*
X156160000Y-122100000I160000J0D01*
G01*
G37*
G36*
G01*
X156160000Y-120955000D02*
X156480000Y-120955000D01*
G75*
G02*
X156640000Y-121115000I0J-160000D01*
G01*
X156640000Y-121560000D01*
G75*
G02*
X156480000Y-121720000I-160000J0D01*
G01*
X156160000Y-121720000D01*
G75*
G02*
X156000000Y-121560000I0J160000D01*
G01*
X156000000Y-121115000D01*
G75*
G02*
X156160000Y-120955000I160000J0D01*
G01*
G37*
G36*
G01*
X158040000Y-122090000D02*
X158360000Y-122090000D01*
G75*
G02*
X158520000Y-122250000I0J-160000D01*
G01*
X158520000Y-122695000D01*
G75*
G02*
X158360000Y-122855000I-160000J0D01*
G01*
X158040000Y-122855000D01*
G75*
G02*
X157880000Y-122695000I0J160000D01*
G01*
X157880000Y-122250000D01*
G75*
G02*
X158040000Y-122090000I160000J0D01*
G01*
G37*
G36*
G01*
X158040000Y-120945000D02*
X158360000Y-120945000D01*
G75*
G02*
X158520000Y-121105000I0J-160000D01*
G01*
X158520000Y-121550000D01*
G75*
G02*
X158360000Y-121710000I-160000J0D01*
G01*
X158040000Y-121710000D01*
G75*
G02*
X157880000Y-121550000I0J160000D01*
G01*
X157880000Y-121105000D01*
G75*
G02*
X158040000Y-120945000I160000J0D01*
G01*
G37*
G36*
G01*
X125760000Y-114910000D02*
X125440000Y-114910000D01*
G75*
G02*
X125280000Y-114750000I0J160000D01*
G01*
X125280000Y-114305000D01*
G75*
G02*
X125440000Y-114145000I160000J0D01*
G01*
X125760000Y-114145000D01*
G75*
G02*
X125920000Y-114305000I0J-160000D01*
G01*
X125920000Y-114750000D01*
G75*
G02*
X125760000Y-114910000I-160000J0D01*
G01*
G37*
G36*
G01*
X125760000Y-116055000D02*
X125440000Y-116055000D01*
G75*
G02*
X125280000Y-115895000I0J160000D01*
G01*
X125280000Y-115450000D01*
G75*
G02*
X125440000Y-115290000I160000J0D01*
G01*
X125760000Y-115290000D01*
G75*
G02*
X125920000Y-115450000I0J-160000D01*
G01*
X125920000Y-115895000D01*
G75*
G02*
X125760000Y-116055000I-160000J0D01*
G01*
G37*
G36*
G01*
X157650000Y-89590000D02*
X157850000Y-89590000D01*
G75*
G02*
X157950000Y-89690000I0J-100000D01*
G01*
X157950000Y-90125000D01*
G75*
G02*
X157850000Y-90225000I-100000J0D01*
G01*
X157650000Y-90225000D01*
G75*
G02*
X157550000Y-90125000I0J100000D01*
G01*
X157550000Y-89690000D01*
G75*
G02*
X157650000Y-89590000I100000J0D01*
G01*
G37*
G36*
G01*
X157650000Y-88775000D02*
X157850000Y-88775000D01*
G75*
G02*
X157950000Y-88875000I0J-100000D01*
G01*
X157950000Y-89310000D01*
G75*
G02*
X157850000Y-89410000I-100000J0D01*
G01*
X157650000Y-89410000D01*
G75*
G02*
X157550000Y-89310000I0J100000D01*
G01*
X157550000Y-88875000D01*
G75*
G02*
X157650000Y-88775000I100000J0D01*
G01*
G37*
G36*
G01*
X138600000Y-115370000D02*
X138400000Y-115370000D01*
G75*
G02*
X138300000Y-115270000I0J100000D01*
G01*
X138300000Y-114835000D01*
G75*
G02*
X138400000Y-114735000I100000J0D01*
G01*
X138600000Y-114735000D01*
G75*
G02*
X138700000Y-114835000I0J-100000D01*
G01*
X138700000Y-115270000D01*
G75*
G02*
X138600000Y-115370000I-100000J0D01*
G01*
G37*
G36*
G01*
X138600000Y-116185000D02*
X138400000Y-116185000D01*
G75*
G02*
X138300000Y-116085000I0J100000D01*
G01*
X138300000Y-115650000D01*
G75*
G02*
X138400000Y-115550000I100000J0D01*
G01*
X138600000Y-115550000D01*
G75*
G02*
X138700000Y-115650000I0J-100000D01*
G01*
X138700000Y-116085000D01*
G75*
G02*
X138600000Y-116185000I-100000J0D01*
G01*
G37*
G36*
G01*
X145655000Y-118910000D02*
X145345000Y-118910000D01*
G75*
G02*
X145190000Y-118755000I0J155000D01*
G01*
X145190000Y-118330000D01*
G75*
G02*
X145345000Y-118175000I155000J0D01*
G01*
X145655000Y-118175000D01*
G75*
G02*
X145810000Y-118330000I0J-155000D01*
G01*
X145810000Y-118755000D01*
G75*
G02*
X145655000Y-118910000I-155000J0D01*
G01*
G37*
G36*
G01*
X145655000Y-120045000D02*
X145345000Y-120045000D01*
G75*
G02*
X145190000Y-119890000I0J155000D01*
G01*
X145190000Y-119465000D01*
G75*
G02*
X145345000Y-119310000I155000J0D01*
G01*
X145655000Y-119310000D01*
G75*
G02*
X145810000Y-119465000I0J-155000D01*
G01*
X145810000Y-119890000D01*
G75*
G02*
X145655000Y-120045000I-155000J0D01*
G01*
G37*
G36*
G01*
X140510000Y-118950000D02*
X140310000Y-118950000D01*
G75*
G02*
X140210000Y-118850000I0J100000D01*
G01*
X140210000Y-118415000D01*
G75*
G02*
X140310000Y-118315000I100000J0D01*
G01*
X140510000Y-118315000D01*
G75*
G02*
X140610000Y-118415000I0J-100000D01*
G01*
X140610000Y-118850000D01*
G75*
G02*
X140510000Y-118950000I-100000J0D01*
G01*
G37*
G36*
G01*
X140510000Y-119765000D02*
X140310000Y-119765000D01*
G75*
G02*
X140210000Y-119665000I0J100000D01*
G01*
X140210000Y-119230000D01*
G75*
G02*
X140310000Y-119130000I100000J0D01*
G01*
X140510000Y-119130000D01*
G75*
G02*
X140610000Y-119230000I0J-100000D01*
G01*
X140610000Y-119665000D01*
G75*
G02*
X140510000Y-119765000I-100000J0D01*
G01*
G37*
G36*
G01*
X145470000Y-117140000D02*
X145670000Y-117140000D01*
G75*
G02*
X145770000Y-117240000I0J-100000D01*
G01*
X145770000Y-117675000D01*
G75*
G02*
X145670000Y-117775000I-100000J0D01*
G01*
X145470000Y-117775000D01*
G75*
G02*
X145370000Y-117675000I0J100000D01*
G01*
X145370000Y-117240000D01*
G75*
G02*
X145470000Y-117140000I100000J0D01*
G01*
G37*
G36*
G01*
X145470000Y-116325000D02*
X145670000Y-116325000D01*
G75*
G02*
X145770000Y-116425000I0J-100000D01*
G01*
X145770000Y-116860000D01*
G75*
G02*
X145670000Y-116960000I-100000J0D01*
G01*
X145470000Y-116960000D01*
G75*
G02*
X145370000Y-116860000I0J100000D01*
G01*
X145370000Y-116425000D01*
G75*
G02*
X145470000Y-116325000I100000J0D01*
G01*
G37*
G36*
G01*
X141900000Y-108875000D02*
X142100000Y-108875000D01*
G75*
G02*
X142200000Y-108975000I0J-100000D01*
G01*
X142200000Y-109410000D01*
G75*
G02*
X142100000Y-109510000I-100000J0D01*
G01*
X141900000Y-109510000D01*
G75*
G02*
X141800000Y-109410000I0J100000D01*
G01*
X141800000Y-108975000D01*
G75*
G02*
X141900000Y-108875000I100000J0D01*
G01*
G37*
G36*
G01*
X141900000Y-109690000D02*
X142100000Y-109690000D01*
G75*
G02*
X142200000Y-109790000I0J-100000D01*
G01*
X142200000Y-110225000D01*
G75*
G02*
X142100000Y-110325000I-100000J0D01*
G01*
X141900000Y-110325000D01*
G75*
G02*
X141800000Y-110225000I0J100000D01*
G01*
X141800000Y-109790000D01*
G75*
G02*
X141900000Y-109690000I100000J0D01*
G01*
G37*
G36*
G01*
X146150000Y-115450003D02*
X146150000Y-114149997D01*
G75*
G02*
X146399997Y-113900000I249997J0D01*
G01*
X147225003Y-113900000D01*
G75*
G02*
X147475000Y-114149997I0J-249997D01*
G01*
X147475000Y-115450003D01*
G75*
G02*
X147225003Y-115700000I-249997J0D01*
G01*
X146399997Y-115700000D01*
G75*
G02*
X146150000Y-115450003I0J249997D01*
G01*
G37*
G36*
G01*
X143025000Y-115450003D02*
X143025000Y-114149997D01*
G75*
G02*
X143274997Y-113900000I249997J0D01*
G01*
X144100003Y-113900000D01*
G75*
G02*
X144350000Y-114149997I0J-249997D01*
G01*
X144350000Y-115450003D01*
G75*
G02*
X144100003Y-115700000I-249997J0D01*
G01*
X143274997Y-115700000D01*
G75*
G02*
X143025000Y-115450003I0J249997D01*
G01*
G37*
G36*
G01*
X138220000Y-89830000D02*
X138420000Y-89830000D01*
G75*
G02*
X138520000Y-89930000I0J-100000D01*
G01*
X138520000Y-90365000D01*
G75*
G02*
X138420000Y-90465000I-100000J0D01*
G01*
X138220000Y-90465000D01*
G75*
G02*
X138120000Y-90365000I0J100000D01*
G01*
X138120000Y-89930000D01*
G75*
G02*
X138220000Y-89830000I100000J0D01*
G01*
G37*
G36*
G01*
X138220000Y-89015000D02*
X138420000Y-89015000D01*
G75*
G02*
X138520000Y-89115000I0J-100000D01*
G01*
X138520000Y-89550000D01*
G75*
G02*
X138420000Y-89650000I-100000J0D01*
G01*
X138220000Y-89650000D01*
G75*
G02*
X138120000Y-89550000I0J100000D01*
G01*
X138120000Y-89115000D01*
G75*
G02*
X138220000Y-89015000I100000J0D01*
G01*
G37*
G36*
G01*
X148690000Y-103300000D02*
X148690000Y-103100000D01*
G75*
G02*
X148790000Y-103000000I100000J0D01*
G01*
X149225000Y-103000000D01*
G75*
G02*
X149325000Y-103100000I0J-100000D01*
G01*
X149325000Y-103300000D01*
G75*
G02*
X149225000Y-103400000I-100000J0D01*
G01*
X148790000Y-103400000D01*
G75*
G02*
X148690000Y-103300000I0J100000D01*
G01*
G37*
G36*
G01*
X147875000Y-103300000D02*
X147875000Y-103100000D01*
G75*
G02*
X147975000Y-103000000I100000J0D01*
G01*
X148410000Y-103000000D01*
G75*
G02*
X148510000Y-103100000I0J-100000D01*
G01*
X148510000Y-103300000D01*
G75*
G02*
X148410000Y-103400000I-100000J0D01*
G01*
X147975000Y-103400000D01*
G75*
G02*
X147875000Y-103300000I0J100000D01*
G01*
G37*
G36*
G01*
X140210000Y-103600000D02*
X140210000Y-103800000D01*
G75*
G02*
X140110000Y-103900000I-100000J0D01*
G01*
X139675000Y-103900000D01*
G75*
G02*
X139575000Y-103800000I0J100000D01*
G01*
X139575000Y-103600000D01*
G75*
G02*
X139675000Y-103500000I100000J0D01*
G01*
X140110000Y-103500000D01*
G75*
G02*
X140210000Y-103600000I0J-100000D01*
G01*
G37*
G36*
G01*
X141025000Y-103600000D02*
X141025000Y-103800000D01*
G75*
G02*
X140925000Y-103900000I-100000J0D01*
G01*
X140490000Y-103900000D01*
G75*
G02*
X140390000Y-103800000I0J100000D01*
G01*
X140390000Y-103600000D01*
G75*
G02*
X140490000Y-103500000I100000J0D01*
G01*
X140925000Y-103500000D01*
G75*
G02*
X141025000Y-103600000I0J-100000D01*
G01*
G37*
G36*
G01*
X139900000Y-101645000D02*
X139900000Y-101955000D01*
G75*
G02*
X139745000Y-102110000I-155000J0D01*
G01*
X139320000Y-102110000D01*
G75*
G02*
X139165000Y-101955000I0J155000D01*
G01*
X139165000Y-101645000D01*
G75*
G02*
X139320000Y-101490000I155000J0D01*
G01*
X139745000Y-101490000D01*
G75*
G02*
X139900000Y-101645000I0J-155000D01*
G01*
G37*
G36*
G01*
X141035000Y-101645000D02*
X141035000Y-101955000D01*
G75*
G02*
X140880000Y-102110000I-155000J0D01*
G01*
X140455000Y-102110000D01*
G75*
G02*
X140300000Y-101955000I0J155000D01*
G01*
X140300000Y-101645000D01*
G75*
G02*
X140455000Y-101490000I155000J0D01*
G01*
X140880000Y-101490000D01*
G75*
G02*
X141035000Y-101645000I0J-155000D01*
G01*
G37*
G36*
G01*
X136360000Y-105180000D02*
X136860000Y-105180000D01*
G75*
G02*
X137110000Y-105430000I0J-250000D01*
G01*
X137110000Y-105930000D01*
G75*
G02*
X136860000Y-106180000I-250000J0D01*
G01*
X136360000Y-106180000D01*
G75*
G02*
X136110000Y-105930000I0J250000D01*
G01*
X136110000Y-105430000D01*
G75*
G02*
X136360000Y-105180000I250000J0D01*
G01*
G37*
G36*
G01*
X136360000Y-103180000D02*
X136860000Y-103180000D01*
G75*
G02*
X137110000Y-103430000I0J-250000D01*
G01*
X137110000Y-103930000D01*
G75*
G02*
X136860000Y-104180000I-250000J0D01*
G01*
X136360000Y-104180000D01*
G75*
G02*
X136110000Y-103930000I0J250000D01*
G01*
X136110000Y-103430000D01*
G75*
G02*
X136360000Y-103180000I250000J0D01*
G01*
G37*
G36*
G01*
X136360000Y-101180000D02*
X136860000Y-101180000D01*
G75*
G02*
X137110000Y-101430000I0J-250000D01*
G01*
X137110000Y-101930000D01*
G75*
G02*
X136860000Y-102180000I-250000J0D01*
G01*
X136360000Y-102180000D01*
G75*
G02*
X136110000Y-101930000I0J250000D01*
G01*
X136110000Y-101430000D01*
G75*
G02*
X136360000Y-101180000I250000J0D01*
G01*
G37*
G36*
G01*
X138440000Y-102200000D02*
X137940000Y-102200000D01*
G75*
G02*
X137690000Y-101950000I0J250000D01*
G01*
X137690000Y-101450000D01*
G75*
G02*
X137940000Y-101200000I250000J0D01*
G01*
X138440000Y-101200000D01*
G75*
G02*
X138690000Y-101450000I0J-250000D01*
G01*
X138690000Y-101950000D01*
G75*
G02*
X138440000Y-102200000I-250000J0D01*
G01*
G37*
G36*
G01*
X138440000Y-104200000D02*
X137940000Y-104200000D01*
G75*
G02*
X137690000Y-103950000I0J250000D01*
G01*
X137690000Y-103450000D01*
G75*
G02*
X137940000Y-103200000I250000J0D01*
G01*
X138440000Y-103200000D01*
G75*
G02*
X138690000Y-103450000I0J-250000D01*
G01*
X138690000Y-103950000D01*
G75*
G02*
X138440000Y-104200000I-250000J0D01*
G01*
G37*
G36*
G01*
X138440000Y-106200000D02*
X137940000Y-106200000D01*
G75*
G02*
X137690000Y-105950000I0J250000D01*
G01*
X137690000Y-105450000D01*
G75*
G02*
X137940000Y-105200000I250000J0D01*
G01*
X138440000Y-105200000D01*
G75*
G02*
X138690000Y-105450000I0J-250000D01*
G01*
X138690000Y-105950000D01*
G75*
G02*
X138440000Y-106200000I-250000J0D01*
G01*
G37*
G36*
G01*
X152050000Y-105210000D02*
X152550000Y-105210000D01*
G75*
G02*
X152800000Y-105460000I0J-250000D01*
G01*
X152800000Y-105960000D01*
G75*
G02*
X152550000Y-106210000I-250000J0D01*
G01*
X152050000Y-106210000D01*
G75*
G02*
X151800000Y-105960000I0J250000D01*
G01*
X151800000Y-105460000D01*
G75*
G02*
X152050000Y-105210000I250000J0D01*
G01*
G37*
G36*
G01*
X152050000Y-103210000D02*
X152550000Y-103210000D01*
G75*
G02*
X152800000Y-103460000I0J-250000D01*
G01*
X152800000Y-103960000D01*
G75*
G02*
X152550000Y-104210000I-250000J0D01*
G01*
X152050000Y-104210000D01*
G75*
G02*
X151800000Y-103960000I0J250000D01*
G01*
X151800000Y-103460000D01*
G75*
G02*
X152050000Y-103210000I250000J0D01*
G01*
G37*
G36*
G01*
X152050000Y-101210000D02*
X152550000Y-101210000D01*
G75*
G02*
X152800000Y-101460000I0J-250000D01*
G01*
X152800000Y-101960000D01*
G75*
G02*
X152550000Y-102210000I-250000J0D01*
G01*
X152050000Y-102210000D01*
G75*
G02*
X151800000Y-101960000I0J250000D01*
G01*
X151800000Y-101460000D01*
G75*
G02*
X152050000Y-101210000I250000J0D01*
G01*
G37*
G36*
G01*
X154150000Y-102210000D02*
X153650000Y-102210000D01*
G75*
G02*
X153400000Y-101960000I0J250000D01*
G01*
X153400000Y-101460000D01*
G75*
G02*
X153650000Y-101210000I250000J0D01*
G01*
X154150000Y-101210000D01*
G75*
G02*
X154400000Y-101460000I0J-250000D01*
G01*
X154400000Y-101960000D01*
G75*
G02*
X154150000Y-102210000I-250000J0D01*
G01*
G37*
G36*
G01*
X154150000Y-104210000D02*
X153650000Y-104210000D01*
G75*
G02*
X153400000Y-103960000I0J250000D01*
G01*
X153400000Y-103460000D01*
G75*
G02*
X153650000Y-103210000I250000J0D01*
G01*
X154150000Y-103210000D01*
G75*
G02*
X154400000Y-103460000I0J-250000D01*
G01*
X154400000Y-103960000D01*
G75*
G02*
X154150000Y-104210000I-250000J0D01*
G01*
G37*
G36*
G01*
X154150000Y-106210000D02*
X153650000Y-106210000D01*
G75*
G02*
X153400000Y-105960000I0J250000D01*
G01*
X153400000Y-105460000D01*
G75*
G02*
X153650000Y-105210000I250000J0D01*
G01*
X154150000Y-105210000D01*
G75*
G02*
X154400000Y-105460000I0J-250000D01*
G01*
X154400000Y-105960000D01*
G75*
G02*
X154150000Y-106210000I-250000J0D01*
G01*
G37*
D20*
X156100000Y-90000000D03*
X156100000Y-89050000D03*
X156100000Y-90950000D03*
X153900000Y-90950000D03*
X153900000Y-90000000D03*
X153900000Y-89050000D03*
X136100000Y-90000000D03*
X136100000Y-89050000D03*
X136100000Y-90950000D03*
X133900000Y-90950000D03*
X133900000Y-90000000D03*
X133900000Y-89050000D03*
D21*
X161525000Y-119875000D03*
X161525000Y-115725000D03*
X163675000Y-119875000D03*
X163675000Y-115725000D03*
D22*
X160261547Y-94911355D03*
G36*
G01*
X163562631Y-94651403D02*
X163536456Y-95400946D01*
G75*
G02*
X163148597Y-95762631I-374772J13087D01*
G01*
X162399054Y-95736456D01*
G75*
G02*
X162037369Y-95348597I13087J374772D01*
G01*
X162063544Y-94599054D01*
G75*
G02*
X162451403Y-94237369I374772J-13087D01*
G01*
X163200946Y-94263544D01*
G75*
G02*
X163562631Y-94651403I-13087J-374772D01*
G01*
G37*
G36*
G01*
X149999760Y-89162020D02*
X149350240Y-89537020D01*
G75*
G02*
X148837980Y-89399760I-187500J324760D01*
G01*
X148462980Y-88750240D01*
G75*
G02*
X148600240Y-88237980I324760J187500D01*
G01*
X149249760Y-87862980D01*
G75*
G02*
X149762020Y-88000240I187500J-324760D01*
G01*
X150137020Y-88649760D01*
G75*
G02*
X149999760Y-89162020I-324760J-187500D01*
G01*
G37*
X148030000Y-86500295D03*
X141230000Y-88699705D03*
G36*
G01*
X142550240Y-85662980D02*
X143199760Y-86037980D01*
G75*
G02*
X143337020Y-86550240I-187500J-324760D01*
G01*
X142962020Y-87199760D01*
G75*
G02*
X142449760Y-87337020I-324760J187500D01*
G01*
X141800240Y-86962020D01*
G75*
G02*
X141662980Y-86449760I187500J324760D01*
G01*
X142037980Y-85800240D01*
G75*
G02*
X142550240Y-85662980I324760J-187500D01*
G01*
G37*
X127761547Y-94988645D03*
G36*
G01*
X131036456Y-94499054D02*
X131062631Y-95248597D01*
G75*
G02*
X130700946Y-95636456I-374772J-13087D01*
G01*
X129951403Y-95662631D01*
G75*
G02*
X129563544Y-95300946I-13087J374772D01*
G01*
X129537369Y-94551403D01*
G75*
G02*
X129899054Y-94163544I374772J13087D01*
G01*
X130648597Y-94137369D01*
G75*
G02*
X131036456Y-94499054I13087J-374772D01*
G01*
G37*
G36*
G01*
X130936456Y-92599054D02*
X130962631Y-93348597D01*
G75*
G02*
X130600946Y-93736456I-374772J-13087D01*
G01*
X129851403Y-93762631D01*
G75*
G02*
X129463544Y-93400946I-13087J374772D01*
G01*
X129437369Y-92651403D01*
G75*
G02*
X129799054Y-92263544I374772J13087D01*
G01*
X130548597Y-92237369D01*
G75*
G02*
X130936456Y-92599054I13087J-374772D01*
G01*
G37*
X127661547Y-93088645D03*
G36*
G01*
X151599760Y-88162020D02*
X150950240Y-88537020D01*
G75*
G02*
X150437980Y-88399760I-187500J324760D01*
G01*
X150062980Y-87750240D01*
G75*
G02*
X150200240Y-87237980I324760J187500D01*
G01*
X150849760Y-86862980D01*
G75*
G02*
X151362020Y-87000240I187500J-324760D01*
G01*
X151737020Y-87649760D01*
G75*
G02*
X151599760Y-88162020I-324760J-187500D01*
G01*
G37*
X149630000Y-85500295D03*
X139630000Y-87699705D03*
G36*
G01*
X140950240Y-84662980D02*
X141599760Y-85037980D01*
G75*
G02*
X141737020Y-85550240I-187500J-324760D01*
G01*
X141362020Y-86199760D01*
G75*
G02*
X140849760Y-86337020I-324760J187500D01*
G01*
X140200240Y-85962020D01*
G75*
G02*
X140062980Y-85449760I187500J324760D01*
G01*
X140437980Y-84800240D01*
G75*
G02*
X140950240Y-84662980I324760J-187500D01*
G01*
G37*
X160361547Y-93011355D03*
G36*
G01*
X163662631Y-92751403D02*
X163636456Y-93500946D01*
G75*
G02*
X163248597Y-93862631I-374772J13087D01*
G01*
X162499054Y-93836456D01*
G75*
G02*
X162137369Y-93448597I13087J374772D01*
G01*
X162163544Y-92699054D01*
G75*
G02*
X162551403Y-92337369I374772J-13087D01*
G01*
X163300946Y-92363544D01*
G75*
G02*
X163662631Y-92751403I-13087J-374772D01*
G01*
G37*
D23*
X148300000Y-119000000D03*
X147350000Y-117000000D03*
X149250000Y-117000000D03*
X129860000Y-118860000D03*
X130810000Y-120860000D03*
X128910000Y-120860000D03*
D24*
X152730000Y-113800000D03*
X152730000Y-117800000D03*
D25*
X128175000Y-114675000D03*
G36*
G01*
X129875000Y-114200000D02*
X129875000Y-115150000D01*
G75*
G02*
X129650000Y-115375000I-225000J0D01*
G01*
X129200000Y-115375000D01*
G75*
G02*
X128975000Y-115150000I0J225000D01*
G01*
X128975000Y-114200000D01*
G75*
G02*
X129200000Y-113975000I225000J0D01*
G01*
X129650000Y-113975000D01*
G75*
G02*
X129875000Y-114200000I0J-225000D01*
G01*
G37*
D26*
X154690000Y-129654000D03*
X154040000Y-129654000D03*
X153390000Y-129654000D03*
X152740000Y-129654000D03*
X152090000Y-129654000D03*
X151440000Y-129654000D03*
X150790000Y-129654000D03*
X150790000Y-135530000D03*
X151440000Y-135530000D03*
X152090000Y-135530000D03*
X152740000Y-135530000D03*
X153390000Y-135530000D03*
X154040000Y-135530000D03*
X154690000Y-135530000D03*
X142650000Y-135538000D03*
X142000000Y-135538000D03*
X141350000Y-135538000D03*
X140700000Y-135538000D03*
X140050000Y-135538000D03*
X139400000Y-135538000D03*
X138750000Y-135538000D03*
X138750000Y-129662000D03*
X139400000Y-129662000D03*
X140050000Y-129662000D03*
X140700000Y-129662000D03*
X141350000Y-129662000D03*
X142000000Y-129662000D03*
X142650000Y-129662000D03*
D27*
X144000000Y-111040000D03*
X144500000Y-111040000D03*
X145000000Y-111040000D03*
X145500000Y-111040000D03*
X146000000Y-111040000D03*
X146500000Y-111040000D03*
X146500000Y-109140000D03*
X146000000Y-109140000D03*
X145500000Y-109140000D03*
X145000000Y-109140000D03*
X144500000Y-109140000D03*
X144000000Y-109140000D03*
D28*
X143750000Y-116850000D03*
X142800000Y-116850000D03*
X141850000Y-116850000D03*
X141850000Y-119350000D03*
X143750000Y-119350000D03*
D29*
X133580000Y-118970000D03*
X136580000Y-118970000D03*
X138080000Y-118970000D03*
M02*
