G04 #@! TF.GenerationSoftware,KiCad,Pcbnew,(5.1.7)-1*
G04 #@! TF.CreationDate,2021-06-23T20:49:00+09:00*
G04 #@! TF.ProjectId,lapis,6c617069-732e-46b6-9963-61645f706362,rev?*
G04 #@! TF.SameCoordinates,Original*
G04 #@! TF.FileFunction,Legend,Bot*
G04 #@! TF.FilePolarity,Positive*
%FSLAX46Y46*%
G04 Gerber Fmt 4.6, Leading zero omitted, Abs format (unit mm)*
G04 Created by KiCad (PCBNEW (5.1.7)-1) date 2021-06-23 20:49:00*
%MOMM*%
%LPD*%
G01*
G04 APERTURE LIST*
%ADD10C,0.150000*%
%ADD11C,1.000000*%
%ADD12C,1.500000*%
%ADD13O,1.700000X1.700000*%
%ADD14R,1.700000X1.700000*%
%ADD15O,0.900000X1.400000*%
G04 APERTURE END LIST*
D10*
X128580952Y-113071428D02*
X127819047Y-113071428D01*
X129780952Y-113071428D02*
X129019047Y-113071428D01*
X129400000Y-113452380D02*
X129400000Y-112690476D01*
X148552380Y-118238095D02*
X148552380Y-118809523D01*
X149552380Y-118523809D02*
X148552380Y-118523809D01*
X148552380Y-119047619D02*
X149552380Y-119714285D01*
X148552380Y-119714285D02*
X149552380Y-119047619D01*
X149552380Y-120095238D02*
X148552380Y-120095238D01*
X148552380Y-120333333D01*
X148600000Y-120476190D01*
X148695238Y-120571428D01*
X148790476Y-120619047D01*
X148980952Y-120666666D01*
X149123809Y-120666666D01*
X149314285Y-120619047D01*
X149409523Y-120571428D01*
X149504761Y-120476190D01*
X149552380Y-120333333D01*
X149552380Y-120095238D01*
X147052380Y-118733333D02*
X146576190Y-118400000D01*
X147052380Y-118161904D02*
X146052380Y-118161904D01*
X146052380Y-118542857D01*
X146100000Y-118638095D01*
X146147619Y-118685714D01*
X146242857Y-118733333D01*
X146385714Y-118733333D01*
X146480952Y-118685714D01*
X146528571Y-118638095D01*
X146576190Y-118542857D01*
X146576190Y-118161904D01*
X146052380Y-119066666D02*
X147052380Y-119733333D01*
X146052380Y-119733333D02*
X147052380Y-119066666D01*
X147052380Y-120114285D02*
X146052380Y-120114285D01*
X146052380Y-120352380D01*
X146100000Y-120495238D01*
X146195238Y-120590476D01*
X146290476Y-120638095D01*
X146480952Y-120685714D01*
X146623809Y-120685714D01*
X146814285Y-120638095D01*
X146909523Y-120590476D01*
X147004761Y-120495238D01*
X147052380Y-120352380D01*
X147052380Y-120114285D01*
X143500000Y-118338095D02*
X143452380Y-118242857D01*
X143452380Y-118100000D01*
X143500000Y-117957142D01*
X143595238Y-117861904D01*
X143690476Y-117814285D01*
X143880952Y-117766666D01*
X144023809Y-117766666D01*
X144214285Y-117814285D01*
X144309523Y-117861904D01*
X144404761Y-117957142D01*
X144452380Y-118100000D01*
X144452380Y-118195238D01*
X144404761Y-118338095D01*
X144357142Y-118385714D01*
X144023809Y-118385714D01*
X144023809Y-118195238D01*
X144452380Y-118814285D02*
X143452380Y-118814285D01*
X144452380Y-119385714D01*
X143452380Y-119385714D01*
X144452380Y-119861904D02*
X143452380Y-119861904D01*
X143452380Y-120100000D01*
X143500000Y-120242857D01*
X143595238Y-120338095D01*
X143690476Y-120385714D01*
X143880952Y-120433333D01*
X144023809Y-120433333D01*
X144214285Y-120385714D01*
X144309523Y-120338095D01*
X144404761Y-120242857D01*
X144452380Y-120100000D01*
X144452380Y-119861904D01*
X141052380Y-117323809D02*
X141052380Y-117942857D01*
X141433333Y-117609523D01*
X141433333Y-117752380D01*
X141480952Y-117847619D01*
X141528571Y-117895238D01*
X141623809Y-117942857D01*
X141861904Y-117942857D01*
X141957142Y-117895238D01*
X142004761Y-117847619D01*
X142052380Y-117752380D01*
X142052380Y-117466666D01*
X142004761Y-117371428D01*
X141957142Y-117323809D01*
X141957142Y-118371428D02*
X142004761Y-118419047D01*
X142052380Y-118371428D01*
X142004761Y-118323809D01*
X141957142Y-118371428D01*
X142052380Y-118371428D01*
X141052380Y-118752380D02*
X141052380Y-119371428D01*
X141433333Y-119038095D01*
X141433333Y-119180952D01*
X141480952Y-119276190D01*
X141528571Y-119323809D01*
X141623809Y-119371428D01*
X141861904Y-119371428D01*
X141957142Y-119323809D01*
X142004761Y-119276190D01*
X142052380Y-119180952D01*
X142052380Y-118895238D01*
X142004761Y-118800000D01*
X141957142Y-118752380D01*
X141052380Y-119657142D02*
X142052380Y-119990476D01*
X141052380Y-120323809D01*
X158480952Y-122652380D02*
X158576190Y-122604761D01*
X158623809Y-122509523D01*
X158623809Y-121652380D01*
X157671428Y-122652380D02*
X157671428Y-122128571D01*
X157719047Y-122033333D01*
X157814285Y-121985714D01*
X158004761Y-121985714D01*
X158100000Y-122033333D01*
X157671428Y-122604761D02*
X157766666Y-122652380D01*
X158004761Y-122652380D01*
X158100000Y-122604761D01*
X158147619Y-122509523D01*
X158147619Y-122414285D01*
X158100000Y-122319047D01*
X158004761Y-122271428D01*
X157766666Y-122271428D01*
X157671428Y-122223809D01*
X157195238Y-121985714D02*
X157195238Y-122985714D01*
X157195238Y-122033333D02*
X157100000Y-121985714D01*
X156909523Y-121985714D01*
X156814285Y-122033333D01*
X156766666Y-122080952D01*
X156719047Y-122176190D01*
X156719047Y-122461904D01*
X156766666Y-122557142D01*
X156814285Y-122604761D01*
X156909523Y-122652380D01*
X157100000Y-122652380D01*
X157195238Y-122604761D01*
X156290476Y-122652380D02*
X156290476Y-121985714D01*
X156290476Y-121652380D02*
X156338095Y-121700000D01*
X156290476Y-121747619D01*
X156242857Y-121700000D01*
X156290476Y-121652380D01*
X156290476Y-121747619D01*
X155861904Y-122604761D02*
X155766666Y-122652380D01*
X155576190Y-122652380D01*
X155480952Y-122604761D01*
X155433333Y-122509523D01*
X155433333Y-122461904D01*
X155480952Y-122366666D01*
X155576190Y-122319047D01*
X155719047Y-122319047D01*
X155814285Y-122271428D01*
X155861904Y-122176190D01*
X155861904Y-122128571D01*
X155814285Y-122033333D01*
X155719047Y-121985714D01*
X155576190Y-121985714D01*
X155480952Y-122033333D01*
X154338095Y-121985714D02*
X154100000Y-122652380D01*
X153861904Y-121985714D01*
X153528571Y-121747619D02*
X153480952Y-121700000D01*
X153385714Y-121652380D01*
X153147619Y-121652380D01*
X153052380Y-121700000D01*
X153004761Y-121747619D01*
X152957142Y-121842857D01*
X152957142Y-121938095D01*
X153004761Y-122080952D01*
X153576190Y-122652380D01*
X152957142Y-122652380D01*
X152528571Y-122557142D02*
X152480952Y-122604761D01*
X152528571Y-122652380D01*
X152576190Y-122604761D01*
X152528571Y-122557142D01*
X152528571Y-122652380D01*
X151861904Y-121652380D02*
X151766666Y-121652380D01*
X151671428Y-121700000D01*
X151623809Y-121747619D01*
X151576190Y-121842857D01*
X151528571Y-122033333D01*
X151528571Y-122271428D01*
X151576190Y-122461904D01*
X151623809Y-122557142D01*
X151671428Y-122604761D01*
X151766666Y-122652380D01*
X151861904Y-122652380D01*
X151957142Y-122604761D01*
X152004761Y-122557142D01*
X152052380Y-122461904D01*
X152100000Y-122271428D01*
X152100000Y-122033333D01*
X152052380Y-121842857D01*
X152004761Y-121747619D01*
X151957142Y-121700000D01*
X151861904Y-121652380D01*
X150250476Y-130272380D02*
X150583809Y-129796190D01*
X150821904Y-130272380D02*
X150821904Y-129272380D01*
X150440952Y-129272380D01*
X150345714Y-129320000D01*
X150298095Y-129367619D01*
X150250476Y-129462857D01*
X150250476Y-129605714D01*
X150298095Y-129700952D01*
X150345714Y-129748571D01*
X150440952Y-129796190D01*
X150821904Y-129796190D01*
X138145476Y-130242380D02*
X138621666Y-130242380D01*
X138621666Y-129242380D01*
%LPC*%
D11*
X148500000Y-106000000D03*
X150500000Y-106000000D03*
X142000000Y-106000000D03*
X140000000Y-106000000D03*
G36*
G01*
X151200000Y-136415000D02*
X151200000Y-136965000D01*
G75*
G02*
X150975000Y-137190000I-225000J0D01*
G01*
X150525000Y-137190000D01*
G75*
G02*
X150300000Y-136965000I0J225000D01*
G01*
X150300000Y-136415000D01*
G75*
G02*
X150525000Y-136190000I225000J0D01*
G01*
X150975000Y-136190000D01*
G75*
G02*
X151200000Y-136415000I0J-225000D01*
G01*
G37*
G36*
G01*
X153200000Y-136415000D02*
X153200000Y-136965000D01*
G75*
G02*
X152975000Y-137190000I-225000J0D01*
G01*
X152525000Y-137190000D01*
G75*
G02*
X152300000Y-136965000I0J225000D01*
G01*
X152300000Y-136415000D01*
G75*
G02*
X152525000Y-136190000I225000J0D01*
G01*
X152975000Y-136190000D01*
G75*
G02*
X153200000Y-136415000I0J-225000D01*
G01*
G37*
G36*
G01*
X155200000Y-136415000D02*
X155200000Y-136965000D01*
G75*
G02*
X154975000Y-137190000I-225000J0D01*
G01*
X154525000Y-137190000D01*
G75*
G02*
X154300000Y-136965000I0J225000D01*
G01*
X154300000Y-136415000D01*
G75*
G02*
X154525000Y-136190000I225000J0D01*
G01*
X154975000Y-136190000D01*
G75*
G02*
X155200000Y-136415000I0J-225000D01*
G01*
G37*
G36*
G01*
X139145000Y-136415000D02*
X139145000Y-136965000D01*
G75*
G02*
X138920000Y-137190000I-225000J0D01*
G01*
X138470000Y-137190000D01*
G75*
G02*
X138245000Y-136965000I0J225000D01*
G01*
X138245000Y-136415000D01*
G75*
G02*
X138470000Y-136190000I225000J0D01*
G01*
X138920000Y-136190000D01*
G75*
G02*
X139145000Y-136415000I0J-225000D01*
G01*
G37*
G36*
G01*
X141145000Y-136415000D02*
X141145000Y-136965000D01*
G75*
G02*
X140920000Y-137190000I-225000J0D01*
G01*
X140470000Y-137190000D01*
G75*
G02*
X140245000Y-136965000I0J225000D01*
G01*
X140245000Y-136415000D01*
G75*
G02*
X140470000Y-136190000I225000J0D01*
G01*
X140920000Y-136190000D01*
G75*
G02*
X141145000Y-136415000I0J-225000D01*
G01*
G37*
G36*
G01*
X143145000Y-136415000D02*
X143145000Y-136965000D01*
G75*
G02*
X142920000Y-137190000I-225000J0D01*
G01*
X142470000Y-137190000D01*
G75*
G02*
X142245000Y-136965000I0J225000D01*
G01*
X142245000Y-136415000D01*
G75*
G02*
X142470000Y-136190000I225000J0D01*
G01*
X142920000Y-136190000D01*
G75*
G02*
X143145000Y-136415000I0J-225000D01*
G01*
G37*
G36*
G01*
X140760000Y-132710000D02*
X140760000Y-132510000D01*
G75*
G02*
X140860000Y-132410000I100000J0D01*
G01*
X141295000Y-132410000D01*
G75*
G02*
X141395000Y-132510000I0J-100000D01*
G01*
X141395000Y-132710000D01*
G75*
G02*
X141295000Y-132810000I-100000J0D01*
G01*
X140860000Y-132810000D01*
G75*
G02*
X140760000Y-132710000I0J100000D01*
G01*
G37*
G36*
G01*
X139945000Y-132710000D02*
X139945000Y-132510000D01*
G75*
G02*
X140045000Y-132410000I100000J0D01*
G01*
X140480000Y-132410000D01*
G75*
G02*
X140580000Y-132510000I0J-100000D01*
G01*
X140580000Y-132710000D01*
G75*
G02*
X140480000Y-132810000I-100000J0D01*
G01*
X140045000Y-132810000D01*
G75*
G02*
X139945000Y-132710000I0J100000D01*
G01*
G37*
G36*
G01*
X152800000Y-132730000D02*
X152800000Y-132530000D01*
G75*
G02*
X152900000Y-132430000I100000J0D01*
G01*
X153335000Y-132430000D01*
G75*
G02*
X153435000Y-132530000I0J-100000D01*
G01*
X153435000Y-132730000D01*
G75*
G02*
X153335000Y-132830000I-100000J0D01*
G01*
X152900000Y-132830000D01*
G75*
G02*
X152800000Y-132730000I0J100000D01*
G01*
G37*
G36*
G01*
X151985000Y-132730000D02*
X151985000Y-132530000D01*
G75*
G02*
X152085000Y-132430000I100000J0D01*
G01*
X152520000Y-132430000D01*
G75*
G02*
X152620000Y-132530000I0J-100000D01*
G01*
X152620000Y-132730000D01*
G75*
G02*
X152520000Y-132830000I-100000J0D01*
G01*
X152085000Y-132830000D01*
G75*
G02*
X151985000Y-132730000I0J100000D01*
G01*
G37*
D12*
X160261547Y-94911355D03*
G36*
G01*
X163562631Y-94651403D02*
X163536456Y-95400946D01*
G75*
G02*
X163148597Y-95762631I-374772J13087D01*
G01*
X162399054Y-95736456D01*
G75*
G02*
X162037369Y-95348597I13087J374772D01*
G01*
X162063544Y-94599054D01*
G75*
G02*
X162451403Y-94237369I374772J-13087D01*
G01*
X163200946Y-94263544D01*
G75*
G02*
X163562631Y-94651403I-13087J-374772D01*
G01*
G37*
G36*
G01*
X149999760Y-89162020D02*
X149350240Y-89537020D01*
G75*
G02*
X148837980Y-89399760I-187500J324760D01*
G01*
X148462980Y-88750240D01*
G75*
G02*
X148600240Y-88237980I324760J187500D01*
G01*
X149249760Y-87862980D01*
G75*
G02*
X149762020Y-88000240I187500J-324760D01*
G01*
X150137020Y-88649760D01*
G75*
G02*
X149999760Y-89162020I-324760J-187500D01*
G01*
G37*
X148030000Y-86500295D03*
X141230000Y-88699705D03*
G36*
G01*
X142550240Y-85662980D02*
X143199760Y-86037980D01*
G75*
G02*
X143337020Y-86550240I-187500J-324760D01*
G01*
X142962020Y-87199760D01*
G75*
G02*
X142449760Y-87337020I-324760J187500D01*
G01*
X141800240Y-86962020D01*
G75*
G02*
X141662980Y-86449760I187500J324760D01*
G01*
X142037980Y-85800240D01*
G75*
G02*
X142550240Y-85662980I324760J-187500D01*
G01*
G37*
X127761547Y-94988645D03*
G36*
G01*
X131036456Y-94499054D02*
X131062631Y-95248597D01*
G75*
G02*
X130700946Y-95636456I-374772J-13087D01*
G01*
X129951403Y-95662631D01*
G75*
G02*
X129563544Y-95300946I-13087J374772D01*
G01*
X129537369Y-94551403D01*
G75*
G02*
X129899054Y-94163544I374772J13087D01*
G01*
X130648597Y-94137369D01*
G75*
G02*
X131036456Y-94499054I13087J-374772D01*
G01*
G37*
G36*
G01*
X130936456Y-92599054D02*
X130962631Y-93348597D01*
G75*
G02*
X130600946Y-93736456I-374772J-13087D01*
G01*
X129851403Y-93762631D01*
G75*
G02*
X129463544Y-93400946I-13087J374772D01*
G01*
X129437369Y-92651403D01*
G75*
G02*
X129799054Y-92263544I374772J13087D01*
G01*
X130548597Y-92237369D01*
G75*
G02*
X130936456Y-92599054I13087J-374772D01*
G01*
G37*
X127661547Y-93088645D03*
G36*
G01*
X151599760Y-88162020D02*
X150950240Y-88537020D01*
G75*
G02*
X150437980Y-88399760I-187500J324760D01*
G01*
X150062980Y-87750240D01*
G75*
G02*
X150200240Y-87237980I324760J187500D01*
G01*
X150849760Y-86862980D01*
G75*
G02*
X151362020Y-87000240I187500J-324760D01*
G01*
X151737020Y-87649760D01*
G75*
G02*
X151599760Y-88162020I-324760J-187500D01*
G01*
G37*
X149630000Y-85500295D03*
X139630000Y-87699705D03*
G36*
G01*
X140950240Y-84662980D02*
X141599760Y-85037980D01*
G75*
G02*
X141737020Y-85550240I-187500J-324760D01*
G01*
X141362020Y-86199760D01*
G75*
G02*
X140849760Y-86337020I-324760J187500D01*
G01*
X140200240Y-85962020D01*
G75*
G02*
X140062980Y-85449760I187500J324760D01*
G01*
X140437980Y-84800240D01*
G75*
G02*
X140950240Y-84662980I324760J-187500D01*
G01*
G37*
X160361547Y-93011355D03*
G36*
G01*
X163662631Y-92751403D02*
X163636456Y-93500946D01*
G75*
G02*
X163248597Y-93862631I-374772J13087D01*
G01*
X162499054Y-93836456D01*
G75*
G02*
X162137369Y-93448597I13087J374772D01*
G01*
X162163544Y-92699054D01*
G75*
G02*
X162551403Y-92337369I374772J-13087D01*
G01*
X163300946Y-92363544D01*
G75*
G02*
X163662631Y-92751403I-13087J-374772D01*
G01*
G37*
D13*
X148920000Y-122000000D03*
X146380000Y-122000000D03*
X143840000Y-122000000D03*
D14*
X141300000Y-122000000D03*
D15*
X128175000Y-114675000D03*
G36*
G01*
X129875000Y-114200000D02*
X129875000Y-115150000D01*
G75*
G02*
X129650000Y-115375000I-225000J0D01*
G01*
X129200000Y-115375000D01*
G75*
G02*
X128975000Y-115150000I0J225000D01*
G01*
X128975000Y-114200000D01*
G75*
G02*
X129200000Y-113975000I225000J0D01*
G01*
X129650000Y-113975000D01*
G75*
G02*
X129875000Y-114200000I0J-225000D01*
G01*
G37*
M02*
