M48
; DRILL file {KiCad (5.1.7)-1} date 06/03/21 00:57:14
; FORMAT={-:-/ absolute / inch / decimal}
; #@! TF.CreationDate,2021-06-03T00:57:14+09:00
; #@! TF.GenerationSoftware,Kicad,Pcbnew,(5.1.7)-1
FMAT,2
INCH
T1C0.0118
T2C0.0130
T3C0.0157
T4C0.0197
T5C0.0236
T6C0.0354
T7C0.0394
T8C0.0354
%
G90
G05
T1
X4.937Y-3.622
X4.9528Y-4.4291
X4.9764Y-4.6614
X5.1457Y-3.3071
X5.1732Y-3.6142
X5.2087Y-4.5906
X5.2165Y-4.4528
X5.2283Y-4.7441
X5.2286Y-3.7405
X5.2402Y-3.8346
X5.2638Y-3.6811
X5.2677Y-3.4055
X5.2992Y-3.9764
X5.315Y-3.7283
X5.3189Y-4.689
X5.3307Y-3.7756
X5.3543Y-4.1102
X5.3701Y-3.7638
X5.3752Y-4.5972
X5.4094Y-3.8701
X5.4094Y-4.2087
X5.4291Y-3.6496
X5.4291Y-3.7795
X5.439Y-4.313
X5.4409Y-5.1496
X5.4484Y-3.5909
X5.4685Y-4.0394
X5.4724Y-4.1102
X5.4764Y-4.3701
X5.4831Y-5.0402
X5.4921Y-3.2638
X5.4921Y-3.8701
X5.4961Y-4.7835
X5.5118Y-4.5591
X5.5157Y-3.1654
X5.5161Y-5.1457
X5.5236Y-5.0472
X5.5276Y-3.8819
X5.5354Y-3.8268
X5.5354Y-4.2598
X5.5433Y-3.9562
X5.5433Y-4.1339
X5.5709Y-5.0394
X5.5783Y-5.2634
X5.6102Y-4.0748
X5.6142Y-4.0039
X5.622Y-4.4488
X5.622Y-4.685
X5.622Y-5.1417
X5.626Y-3.7087
X5.6299Y-4.1063
X5.6438Y-3.2586
X5.6496Y-4.0039
X5.6575Y-3.6102
X5.6614Y-3.7402
X5.6651Y-3.5036
X5.6831Y-4.2382
X5.689Y-4.1772
X5.6969Y-3.5984
X5.6969Y-4.5709
X5.7047Y-4.0039
X5.7126Y-4.0945
X5.7126Y-4.2598
X5.7126Y-4.4528
X5.7165Y-3.7441
X5.7244Y-4.7598
X5.7323Y-3.9724
X5.7323Y-4.2205
X5.7362Y-3.374
X5.748Y-3.7165
X5.7677Y-4.2598
X5.7835Y-4.626
X5.7838Y-3.5036
X5.7874Y-3.7441
X5.7913Y-3.8622
X5.7953Y-4.3425
X5.8031Y-5.1299
X5.815Y-5.0354
X5.8307Y-4.1181
X5.8504Y-4.2717
X5.8587Y-5.2634
X5.8661Y-3.9961
X5.874Y-3.9488
X5.878Y-4.0906
X5.878Y-4.1457
X5.8898Y-5.0354
X5.8952Y-3.7559
X5.8996Y-3.7972
X5.9055Y-3.622
X5.9213Y-4.4921
X5.922Y-3.8827
X5.9291Y-3.1772
X5.9291Y-3.7165
X5.9291Y-4.6378
X5.9451Y-5.0829
X5.9469Y-5.161
X5.9528Y-4.0866
X5.9567Y-3.563
X5.9646Y-4.7345
X5.9685Y-5.0472
X5.9764Y-3.8031
X5.9764Y-3.8465
X5.9921Y-4.0551
X6.0079Y-4.2559
X6.0118Y-3.8858
X6.0394Y-4.7283
X6.0591Y-4.2205
X6.0748Y-4.5787
X6.0787Y-4.378
X6.0866Y-4.0433
X6.1181Y-4.7283
X6.126Y-3.7008
X6.1535Y-4.0984
X6.1654Y-4.4567
X6.185Y-3.4055
X6.1929Y-3.9528
X6.1969Y-4.7283
X6.2243Y-3.2586
X6.2441Y-4.4646
X6.2638Y-3.622
X6.2953Y-3.5354
X6.3425Y-4.7795
X6.4409Y-4.4331
X6.4409Y-4.6339
X6.4921Y-3.6102
T2
X5.8976Y-5.1654
T3
X5.2717Y-4.2756
X5.811Y-3.8071
T4
X5.8583Y-4.2022
X5.9449Y-4.2047
X5.5059Y-4.2004
X5.5902Y-4.1996
T5
X5.0463Y-4.5148
X5.0955Y-4.5148
T6
X5.9006Y-3.3581
X5.9506Y-3.4447
X5.026Y-3.6649
X5.126Y-3.6614
X5.5602Y-3.4921
X5.6102Y-3.4055
X6.3134Y-3.6619
X6.4134Y-3.6654
X5.026Y-3.7397
X5.126Y-3.7362
X5.8358Y-3.3976
X5.8858Y-3.4843
X6.3056Y-3.7367
X6.4055Y-3.7402
X5.4972Y-3.4527
X5.5472Y-3.3661
T7
X5.5724Y-4.8173
X5.6724Y-4.8173
X5.7724Y-4.8173
X5.8724Y-4.8173
T8
X5.289Y-4.7531
X5.4071Y-4.7531
T0
M30
