G04 #@! TF.GenerationSoftware,KiCad,Pcbnew,(5.1.7)-1*
G04 #@! TF.CreationDate,2021-06-03T00:57:12+09:00*
G04 #@! TF.ProjectId,lapis,6c617069-732e-46b6-9963-61645f706362,rev?*
G04 #@! TF.SameCoordinates,Original*
G04 #@! TF.FileFunction,Legend,Bot*
G04 #@! TF.FilePolarity,Positive*
%FSLAX46Y46*%
G04 Gerber Fmt 4.6, Leading zero omitted, Abs format (unit mm)*
G04 Created by KiCad (PCBNEW (5.1.7)-1) date 2021-06-03 00:57:12*
%MOMM*%
%LPD*%
G01*
G04 APERTURE LIST*
%ADD10C,0.150000*%
G04 APERTURE END LIST*
D10*
X128580952Y-113071428D02*
X127819047Y-113071428D01*
X129780952Y-113071428D02*
X129019047Y-113071428D01*
X129400000Y-113452380D02*
X129400000Y-112690476D01*
X148552380Y-118238095D02*
X148552380Y-118809523D01*
X149552380Y-118523809D02*
X148552380Y-118523809D01*
X148552380Y-119047619D02*
X149552380Y-119714285D01*
X148552380Y-119714285D02*
X149552380Y-119047619D01*
X149552380Y-120095238D02*
X148552380Y-120095238D01*
X148552380Y-120333333D01*
X148600000Y-120476190D01*
X148695238Y-120571428D01*
X148790476Y-120619047D01*
X148980952Y-120666666D01*
X149123809Y-120666666D01*
X149314285Y-120619047D01*
X149409523Y-120571428D01*
X149504761Y-120476190D01*
X149552380Y-120333333D01*
X149552380Y-120095238D01*
X147052380Y-118733333D02*
X146576190Y-118400000D01*
X147052380Y-118161904D02*
X146052380Y-118161904D01*
X146052380Y-118542857D01*
X146100000Y-118638095D01*
X146147619Y-118685714D01*
X146242857Y-118733333D01*
X146385714Y-118733333D01*
X146480952Y-118685714D01*
X146528571Y-118638095D01*
X146576190Y-118542857D01*
X146576190Y-118161904D01*
X146052380Y-119066666D02*
X147052380Y-119733333D01*
X146052380Y-119733333D02*
X147052380Y-119066666D01*
X147052380Y-120114285D02*
X146052380Y-120114285D01*
X146052380Y-120352380D01*
X146100000Y-120495238D01*
X146195238Y-120590476D01*
X146290476Y-120638095D01*
X146480952Y-120685714D01*
X146623809Y-120685714D01*
X146814285Y-120638095D01*
X146909523Y-120590476D01*
X147004761Y-120495238D01*
X147052380Y-120352380D01*
X147052380Y-120114285D01*
X143500000Y-118338095D02*
X143452380Y-118242857D01*
X143452380Y-118100000D01*
X143500000Y-117957142D01*
X143595238Y-117861904D01*
X143690476Y-117814285D01*
X143880952Y-117766666D01*
X144023809Y-117766666D01*
X144214285Y-117814285D01*
X144309523Y-117861904D01*
X144404761Y-117957142D01*
X144452380Y-118100000D01*
X144452380Y-118195238D01*
X144404761Y-118338095D01*
X144357142Y-118385714D01*
X144023809Y-118385714D01*
X144023809Y-118195238D01*
X144452380Y-118814285D02*
X143452380Y-118814285D01*
X144452380Y-119385714D01*
X143452380Y-119385714D01*
X144452380Y-119861904D02*
X143452380Y-119861904D01*
X143452380Y-120100000D01*
X143500000Y-120242857D01*
X143595238Y-120338095D01*
X143690476Y-120385714D01*
X143880952Y-120433333D01*
X144023809Y-120433333D01*
X144214285Y-120385714D01*
X144309523Y-120338095D01*
X144404761Y-120242857D01*
X144452380Y-120100000D01*
X144452380Y-119861904D01*
X141052380Y-117323809D02*
X141052380Y-117942857D01*
X141433333Y-117609523D01*
X141433333Y-117752380D01*
X141480952Y-117847619D01*
X141528571Y-117895238D01*
X141623809Y-117942857D01*
X141861904Y-117942857D01*
X141957142Y-117895238D01*
X142004761Y-117847619D01*
X142052380Y-117752380D01*
X142052380Y-117466666D01*
X142004761Y-117371428D01*
X141957142Y-117323809D01*
X141957142Y-118371428D02*
X142004761Y-118419047D01*
X142052380Y-118371428D01*
X142004761Y-118323809D01*
X141957142Y-118371428D01*
X142052380Y-118371428D01*
X141052380Y-118752380D02*
X141052380Y-119371428D01*
X141433333Y-119038095D01*
X141433333Y-119180952D01*
X141480952Y-119276190D01*
X141528571Y-119323809D01*
X141623809Y-119371428D01*
X141861904Y-119371428D01*
X141957142Y-119323809D01*
X142004761Y-119276190D01*
X142052380Y-119180952D01*
X142052380Y-118895238D01*
X142004761Y-118800000D01*
X141957142Y-118752380D01*
X141052380Y-119657142D02*
X142052380Y-119990476D01*
X141052380Y-120323809D01*
X158480952Y-122652380D02*
X158576190Y-122604761D01*
X158623809Y-122509523D01*
X158623809Y-121652380D01*
X157671428Y-122652380D02*
X157671428Y-122128571D01*
X157719047Y-122033333D01*
X157814285Y-121985714D01*
X158004761Y-121985714D01*
X158100000Y-122033333D01*
X157671428Y-122604761D02*
X157766666Y-122652380D01*
X158004761Y-122652380D01*
X158100000Y-122604761D01*
X158147619Y-122509523D01*
X158147619Y-122414285D01*
X158100000Y-122319047D01*
X158004761Y-122271428D01*
X157766666Y-122271428D01*
X157671428Y-122223809D01*
X157195238Y-121985714D02*
X157195238Y-122985714D01*
X157195238Y-122033333D02*
X157100000Y-121985714D01*
X156909523Y-121985714D01*
X156814285Y-122033333D01*
X156766666Y-122080952D01*
X156719047Y-122176190D01*
X156719047Y-122461904D01*
X156766666Y-122557142D01*
X156814285Y-122604761D01*
X156909523Y-122652380D01*
X157100000Y-122652380D01*
X157195238Y-122604761D01*
X156290476Y-122652380D02*
X156290476Y-121985714D01*
X156290476Y-121652380D02*
X156338095Y-121700000D01*
X156290476Y-121747619D01*
X156242857Y-121700000D01*
X156290476Y-121652380D01*
X156290476Y-121747619D01*
X155861904Y-122604761D02*
X155766666Y-122652380D01*
X155576190Y-122652380D01*
X155480952Y-122604761D01*
X155433333Y-122509523D01*
X155433333Y-122461904D01*
X155480952Y-122366666D01*
X155576190Y-122319047D01*
X155719047Y-122319047D01*
X155814285Y-122271428D01*
X155861904Y-122176190D01*
X155861904Y-122128571D01*
X155814285Y-122033333D01*
X155719047Y-121985714D01*
X155576190Y-121985714D01*
X155480952Y-122033333D01*
X154338095Y-121985714D02*
X154100000Y-122652380D01*
X153861904Y-121985714D01*
X152957142Y-122652380D02*
X153528571Y-122652380D01*
X153242857Y-122652380D02*
X153242857Y-121652380D01*
X153338095Y-121795238D01*
X153433333Y-121890476D01*
X153528571Y-121938095D01*
X152528571Y-122557142D02*
X152480952Y-122604761D01*
X152528571Y-122652380D01*
X152576190Y-122604761D01*
X152528571Y-122557142D01*
X152528571Y-122652380D01*
X151861904Y-121652380D02*
X151766666Y-121652380D01*
X151671428Y-121700000D01*
X151623809Y-121747619D01*
X151576190Y-121842857D01*
X151528571Y-122033333D01*
X151528571Y-122271428D01*
X151576190Y-122461904D01*
X151623809Y-122557142D01*
X151671428Y-122604761D01*
X151766666Y-122652380D01*
X151861904Y-122652380D01*
X151957142Y-122604761D01*
X152004761Y-122557142D01*
X152052380Y-122461904D01*
X152100000Y-122271428D01*
X152100000Y-122033333D01*
X152052380Y-121842857D01*
X152004761Y-121747619D01*
X151957142Y-121700000D01*
X151861904Y-121652380D01*
X147250476Y-127272380D02*
X147583809Y-126796190D01*
X147821904Y-127272380D02*
X147821904Y-126272380D01*
X147440952Y-126272380D01*
X147345714Y-126320000D01*
X147298095Y-126367619D01*
X147250476Y-126462857D01*
X147250476Y-126605714D01*
X147298095Y-126700952D01*
X147345714Y-126748571D01*
X147440952Y-126796190D01*
X147821904Y-126796190D01*
X138195476Y-127242380D02*
X138671666Y-127242380D01*
X138671666Y-126242380D01*
M02*
