G04 #@! TF.GenerationSoftware,KiCad,Pcbnew,(5.1.7)-1*
G04 #@! TF.CreationDate,2021-06-03T00:57:12+09:00*
G04 #@! TF.ProjectId,lapis,6c617069-732e-46b6-9963-61645f706362,rev?*
G04 #@! TF.SameCoordinates,Original*
G04 #@! TF.FileFunction,Legend,Top*
G04 #@! TF.FilePolarity,Positive*
%FSLAX46Y46*%
G04 Gerber Fmt 4.6, Leading zero omitted, Abs format (unit mm)*
G04 Created by KiCad (PCBNEW (5.1.7)-1) date 2021-06-03 00:57:12*
%MOMM*%
%LPD*%
G01*
G04 APERTURE LIST*
%ADD10C,0.120000*%
%ADD11C,0.254000*%
%ADD12C,0.200000*%
%ADD13C,0.100000*%
%ADD14C,0.150000*%
G04 APERTURE END LIST*
D10*
X135250000Y-113450000D02*
X155250000Y-113450000D01*
X135250000Y-107450000D02*
X155250000Y-107450000D01*
X155250000Y-96700000D02*
X158250000Y-96700000D01*
X155250000Y-96750000D02*
X155250000Y-96700000D01*
X155250000Y-116500000D02*
X155250000Y-96750000D01*
X158250000Y-116500000D02*
X155250000Y-116500000D01*
X158250000Y-116500000D02*
X158250000Y-96700000D01*
X135250000Y-96700000D02*
X135250000Y-116700000D01*
X132250000Y-96700000D02*
X135250000Y-96700000D01*
X132250000Y-116700000D02*
X135250000Y-116700000D01*
X132250000Y-96700000D02*
X132250000Y-116700000D01*
D11*
X139190000Y-119430000D02*
X139190000Y-122030000D01*
X139190000Y-122030000D02*
X132490000Y-122030000D01*
X132490000Y-122030000D02*
X132490000Y-119430000D01*
X135940000Y-122030000D02*
X135940000Y-123530000D01*
X135940000Y-123530000D02*
X137240000Y-123530000D01*
X137240000Y-123530000D02*
X137240000Y-122030000D01*
X134136330Y-119430000D02*
X135985330Y-119430000D01*
X132873670Y-118091330D02*
G75*
G03*
X132873670Y-118091330I-54000J0D01*
G01*
D12*
X144250000Y-116100000D02*
X144250000Y-116700000D01*
X144250000Y-116700000D02*
X141350000Y-116700000D01*
X141350000Y-116700000D02*
X141350000Y-116100000D01*
X141350000Y-116100000D02*
X144250000Y-116100000D01*
X144300000Y-114550000D02*
X144300000Y-115750000D01*
X143740000Y-112190000D02*
G75*
G02*
X143740000Y-112090000I0J50000D01*
G01*
X143740000Y-112090000D02*
G75*
G02*
X143740000Y-112190000I0J-50000D01*
G01*
X143740000Y-112190000D02*
G75*
G02*
X143740000Y-112090000I0J50000D01*
G01*
X143740000Y-112090000D02*
X143740000Y-112090000D01*
X143740000Y-112190000D02*
X143740000Y-112190000D01*
X143740000Y-112090000D02*
X143740000Y-112090000D01*
X143275000Y-125925000D02*
X143275000Y-127400000D01*
X138250000Y-127750000D02*
X143250000Y-127750000D01*
X138250000Y-131450000D02*
X138250000Y-127750000D01*
X143250000Y-131450000D02*
X138250000Y-131450000D01*
X143250000Y-127750000D02*
X143250000Y-131450000D01*
X152275000Y-125925000D02*
X152275000Y-127400000D01*
X147250000Y-127750000D02*
X152250000Y-127750000D01*
X147250000Y-131450000D02*
X147250000Y-127750000D01*
X152250000Y-131450000D02*
X147250000Y-131450000D01*
X152250000Y-127750000D02*
X152250000Y-131450000D01*
D10*
X154330000Y-91830000D02*
X156130000Y-91830000D01*
X156130000Y-88610000D02*
X153680000Y-88610000D01*
X134420000Y-91870000D02*
X136220000Y-91870000D01*
X136220000Y-88650000D02*
X133770000Y-88650000D01*
D13*
X152450000Y-120810000D02*
G75*
G03*
X152450000Y-120810000I-50000J0D01*
G01*
X154350000Y-120810000D02*
G75*
G03*
X154350000Y-120810000I-50000J0D01*
G01*
X156420000Y-120810000D02*
G75*
G03*
X156420000Y-120810000I-50000J0D01*
G01*
X158390000Y-120810000D02*
G75*
G03*
X158390000Y-120810000I-50000J0D01*
G01*
X125650000Y-116190000D02*
G75*
G03*
X125650000Y-116190000I-50000J0D01*
G01*
D10*
X150424664Y-102140000D02*
X150640336Y-102140000D01*
X150424664Y-102860000D02*
X150640336Y-102860000D01*
X152559664Y-92740000D02*
X152775336Y-92740000D01*
X152559664Y-93460000D02*
X152775336Y-93460000D01*
X136275336Y-94160000D02*
X136059664Y-94160000D01*
X136275336Y-93440000D02*
X136059664Y-93440000D01*
X145240000Y-117507836D02*
X145240000Y-117292164D01*
X145960000Y-117507836D02*
X145960000Y-117292164D01*
X140807836Y-103160000D02*
X140592164Y-103160000D01*
X140807836Y-102440000D02*
X140592164Y-102440000D01*
D12*
X163742370Y-114894000D02*
G75*
G03*
X163742370Y-114894000I-53370J0D01*
G01*
X163100000Y-119900000D02*
X162100000Y-119900000D01*
X163100000Y-115700000D02*
X162100000Y-115700000D01*
X161000000Y-119900000D02*
X161000000Y-115700000D01*
X164200000Y-115700000D02*
X164200000Y-119900000D01*
D10*
X130437252Y-91770971D02*
X130302540Y-87913323D01*
X127280065Y-90760540D02*
X127319153Y-91879858D01*
X127319153Y-91879858D02*
X126919396Y-91893818D01*
X130437252Y-91770971D02*
X127319153Y-91879858D01*
X127613513Y-91999658D02*
X127613513Y-91999658D01*
X127608976Y-91869737D02*
X127608976Y-91869737D01*
X127613513Y-91999658D02*
X127608976Y-91869737D01*
X130147429Y-91781092D02*
X130151966Y-91911013D01*
X130147429Y-91781092D02*
X130147429Y-91781092D01*
X130151966Y-91911013D02*
X130147429Y-91781092D01*
X126880309Y-90774500D02*
X127280065Y-90760540D01*
X127608976Y-91869737D02*
X127613513Y-91999658D01*
X130151966Y-91911013D02*
X130151966Y-91911013D01*
X126919396Y-91893818D02*
X126880309Y-90774500D01*
X127319153Y-91879858D02*
X127184441Y-88022209D01*
X127184440Y-88022209D02*
G75*
G02*
X130302540Y-87913323I1559050J54443D01*
G01*
X152337891Y-87141147D02*
X155680749Y-85211147D01*
X151747839Y-83879148D02*
X150777891Y-84439148D01*
X150777891Y-84439148D02*
X150577891Y-84092738D01*
X152337891Y-87141147D02*
X150777891Y-84439148D01*
X150810307Y-84755295D02*
X150810307Y-84755295D01*
X150922891Y-84690295D02*
X150922891Y-84690295D01*
X150810307Y-84755295D02*
X150922891Y-84690295D01*
X152192891Y-86890000D02*
X152080307Y-86955000D01*
X152192891Y-86890000D02*
X152192891Y-86890000D01*
X152080307Y-86955000D02*
X152192891Y-86890000D01*
X151547839Y-83532738D02*
X151747839Y-83879148D01*
X150922891Y-84690295D02*
X150810307Y-84755295D01*
X152080307Y-86955000D02*
X152080307Y-86955000D01*
X150577891Y-84092738D02*
X151547839Y-83532738D01*
X150777891Y-84439148D02*
X154120749Y-82509148D01*
X154120749Y-82509149D02*
G75*
G02*
X155680749Y-85211147I780000J-1350999D01*
G01*
X140005770Y-84648853D02*
X136662911Y-82718853D01*
X137475821Y-86790852D02*
X138445770Y-87350852D01*
X138445770Y-87350852D02*
X138245770Y-87697262D01*
X140005770Y-84648853D02*
X138445770Y-87350852D01*
X138703353Y-87164705D02*
X138703353Y-87164705D01*
X138590770Y-87099705D02*
X138590770Y-87099705D01*
X138703353Y-87164705D02*
X138590770Y-87099705D01*
X139860770Y-84900000D02*
X139973353Y-84965000D01*
X139860770Y-84900000D02*
X139860770Y-84900000D01*
X139973353Y-84965000D02*
X139860770Y-84900000D01*
X137275821Y-87137262D02*
X137475821Y-86790852D01*
X138590770Y-87099705D02*
X138703353Y-87164705D01*
X139973353Y-84965000D02*
X139973353Y-84965000D01*
X138245770Y-87697262D02*
X137275821Y-87137262D01*
X138445770Y-87350852D02*
X135102911Y-85420852D01*
X135102911Y-85420851D02*
G75*
G02*
X136662911Y-82718853I780000J1350999D01*
G01*
X163232052Y-91900858D02*
X163366764Y-88043209D01*
X160153040Y-90672654D02*
X160113952Y-91791972D01*
X160113952Y-91791972D02*
X159714196Y-91778012D01*
X163232052Y-91900858D02*
X160113952Y-91791972D01*
X160399239Y-91932013D02*
X160399239Y-91932013D01*
X160403776Y-91802092D02*
X160403776Y-91802092D01*
X160399239Y-91932013D02*
X160403776Y-91802092D01*
X162942228Y-91890737D02*
X162937691Y-92020658D01*
X162942228Y-91890737D02*
X162942228Y-91890737D01*
X162937691Y-92020658D02*
X162942228Y-91890737D01*
X159753283Y-90658694D02*
X160153040Y-90672654D01*
X160403776Y-91802092D02*
X160399239Y-91932013D01*
X162937691Y-92020658D02*
X162937691Y-92020658D01*
X159714196Y-91778012D02*
X159753283Y-90658694D01*
X160113952Y-91791972D02*
X160248664Y-87934323D01*
X160248664Y-87934323D02*
G75*
G02*
X163366764Y-88043209I1559050J-54443D01*
G01*
X144265000Y-102190000D02*
X143590000Y-102190000D01*
X146810000Y-105410000D02*
X146810000Y-105235000D01*
X146135000Y-105410000D02*
X146810000Y-105410000D01*
X143590000Y-105410000D02*
X143590000Y-105235000D01*
X144265000Y-105410000D02*
X143590000Y-105410000D01*
X146810000Y-102190000D02*
X146810000Y-102365000D01*
X146135000Y-102190000D02*
X146810000Y-102190000D01*
X142165000Y-92590000D02*
X141690000Y-92590000D01*
X148910000Y-99810000D02*
X148910000Y-99335000D01*
X148435000Y-99810000D02*
X148910000Y-99810000D01*
X141690000Y-99810000D02*
X141690000Y-99335000D01*
X142165000Y-99810000D02*
X141690000Y-99810000D01*
X148910000Y-92590000D02*
X148910000Y-93065000D01*
X148435000Y-92590000D02*
X148910000Y-92590000D01*
X149500000Y-106735000D02*
G75*
G03*
X149500000Y-106735000I-700000J0D01*
G01*
X151700000Y-106800000D02*
G75*
G03*
X151700000Y-106800000I-700000J0D01*
G01*
X142690000Y-106670000D02*
G75*
G03*
X142690000Y-106670000I-700000J0D01*
G01*
X140550000Y-106690000D02*
G75*
G03*
X140550000Y-106690000I-700000J0D01*
G01*
X146920000Y-117660000D02*
X147850000Y-117660000D01*
X150080000Y-117660000D02*
X149150000Y-117660000D01*
X150080000Y-117660000D02*
X150080000Y-115500000D01*
X146920000Y-117660000D02*
X146920000Y-116200000D01*
X129570000Y-118255000D02*
X129570000Y-119185000D01*
X129570000Y-121415000D02*
X129570000Y-120485000D01*
X129570000Y-121415000D02*
X131730000Y-121415000D01*
X129570000Y-118255000D02*
X131030000Y-118255000D01*
D14*
X151600000Y-118100000D02*
X150700000Y-118100000D01*
X150700000Y-114100000D02*
X151600000Y-114100000D01*
X150700000Y-118100000D02*
X150700000Y-114100000D01*
X154700000Y-118100000D02*
X153800000Y-118100000D01*
X154700000Y-114100000D02*
X154700000Y-118100000D01*
X153800000Y-114100000D02*
X154700000Y-114100000D01*
D10*
X140210000Y-122360000D02*
X140210000Y-121030000D01*
X140210000Y-121030000D02*
X141540000Y-121030000D01*
X142810000Y-121030000D02*
X150490000Y-121030000D01*
X150490000Y-123690000D02*
X150490000Y-121030000D01*
X142810000Y-123690000D02*
X150490000Y-123690000D01*
X142810000Y-123690000D02*
X142810000Y-121030000D01*
X128425000Y-116525000D02*
X127225000Y-116525000D01*
X128425000Y-116825000D02*
X128425000Y-116525000D01*
X129175000Y-116825000D02*
X128425000Y-116825000D01*
X129175000Y-116525000D02*
X129175000Y-116825000D01*
X130375000Y-116525000D02*
X129175000Y-116525000D01*
X127225000Y-116525000D02*
X127225000Y-116975000D01*
X126925000Y-116525000D02*
X127225000Y-116525000D01*
X126925000Y-115425000D02*
X126925000Y-116525000D01*
X126625000Y-115425000D02*
X126925000Y-115425000D01*
X130375000Y-116525000D02*
X130375000Y-116975000D01*
X130675000Y-116525000D02*
X130375000Y-116525000D01*
X130675000Y-115425000D02*
X130675000Y-116525000D01*
X130975000Y-115425000D02*
X130675000Y-115425000D01*
X126925000Y-114675000D02*
X126625000Y-114675000D01*
X126925000Y-113675000D02*
X126925000Y-114675000D01*
X130675000Y-113675000D02*
X126925000Y-113675000D01*
X130675000Y-114675000D02*
X130675000Y-113675000D01*
X130975000Y-114675000D02*
X130675000Y-114675000D01*
X131285000Y-113065000D02*
X129375000Y-113065000D01*
X131285000Y-114975000D02*
X131285000Y-113065000D01*
X126625000Y-116975000D02*
X130975000Y-116975000D01*
X126625000Y-113375000D02*
X126625000Y-116975000D01*
X130975000Y-113375000D02*
X126625000Y-113375000D01*
X130975000Y-116975000D02*
X130975000Y-113375000D01*
M02*
