G04 #@! TF.GenerationSoftware,KiCad,Pcbnew,(5.1.7)-1*
G04 #@! TF.CreationDate,2021-06-03T00:57:12+09:00*
G04 #@! TF.ProjectId,lapis,6c617069-732e-46b6-9963-61645f706362,rev?*
G04 #@! TF.SameCoordinates,Original*
G04 #@! TF.FileFunction,Soldermask,Top*
G04 #@! TF.FilePolarity,Negative*
%FSLAX46Y46*%
G04 Gerber Fmt 4.6, Leading zero omitted, Abs format (unit mm)*
G04 Created by KiCad (PCBNEW (5.1.7)-1) date 2021-06-03 00:57:12*
%MOMM*%
%LPD*%
G01*
G04 APERTURE LIST*
%ADD10R,0.700000X1.500000*%
%ADD11R,0.600000X1.200000*%
%ADD12R,0.250000X0.500000*%
%ADD13R,0.450000X1.000000*%
%ADD14R,1.060000X0.650000*%
%ADD15R,0.650000X1.050000*%
%ADD16C,1.500000*%
%ADD17C,1.000000*%
%ADD18R,0.800000X0.900000*%
%ADD19R,0.900000X0.800000*%
%ADD20R,1.600000X1.000000*%
%ADD21O,1.700000X1.700000*%
%ADD22R,1.700000X1.700000*%
%ADD23O,0.900000X1.400000*%
G04 APERTURE END LIST*
D10*
X138090000Y-118980000D03*
X136590000Y-118980000D03*
X133590000Y-118980000D03*
D11*
X143750000Y-117650000D03*
X141850000Y-117650000D03*
X141850000Y-115150000D03*
X142800000Y-115150000D03*
X143750000Y-115150000D03*
D12*
X143740000Y-109140000D03*
X144240000Y-109140000D03*
X144740000Y-109140000D03*
X145240000Y-109140000D03*
X145740000Y-109140000D03*
X146240000Y-109140000D03*
X146240000Y-111040000D03*
X145740000Y-111040000D03*
X145240000Y-111040000D03*
X144740000Y-111040000D03*
X144240000Y-111040000D03*
X143740000Y-111040000D03*
D13*
X142700000Y-132538000D03*
X142050000Y-132538000D03*
X141400000Y-132538000D03*
X140750000Y-132538000D03*
X140100000Y-132538000D03*
X139450000Y-132538000D03*
X138800000Y-132538000D03*
X138800000Y-126662000D03*
X139450000Y-126662000D03*
X140100000Y-126662000D03*
X140750000Y-126662000D03*
X141400000Y-126662000D03*
X142050000Y-126662000D03*
X142700000Y-126662000D03*
X151700000Y-132538000D03*
X151050000Y-132538000D03*
X150400000Y-132538000D03*
X149750000Y-132538000D03*
X149100000Y-132538000D03*
X148450000Y-132538000D03*
X147800000Y-132538000D03*
X147800000Y-126662000D03*
X148450000Y-126662000D03*
X149100000Y-126662000D03*
X149750000Y-126662000D03*
X150400000Y-126662000D03*
X151050000Y-126662000D03*
X151700000Y-126662000D03*
D14*
X156330000Y-90220000D03*
X156330000Y-89270000D03*
X156330000Y-91170000D03*
X154130000Y-91170000D03*
X154130000Y-90220000D03*
X154130000Y-89270000D03*
X136420000Y-90260000D03*
X136420000Y-89310000D03*
X136420000Y-91210000D03*
X134220000Y-91210000D03*
X134220000Y-90260000D03*
X134220000Y-89310000D03*
G36*
G01*
X150397500Y-119400000D02*
X150397500Y-119200000D01*
G75*
G02*
X150497500Y-119100000I100000J0D01*
G01*
X150757500Y-119100000D01*
G75*
G02*
X150857500Y-119200000I0J-100000D01*
G01*
X150857500Y-119400000D01*
G75*
G02*
X150757500Y-119500000I-100000J0D01*
G01*
X150497500Y-119500000D01*
G75*
G02*
X150397500Y-119400000I0J100000D01*
G01*
G37*
G36*
G01*
X149757500Y-119400000D02*
X149757500Y-119200000D01*
G75*
G02*
X149857500Y-119100000I100000J0D01*
G01*
X150117500Y-119100000D01*
G75*
G02*
X150217500Y-119200000I0J-100000D01*
G01*
X150217500Y-119400000D01*
G75*
G02*
X150117500Y-119500000I-100000J0D01*
G01*
X149857500Y-119500000D01*
G75*
G02*
X149757500Y-119400000I0J100000D01*
G01*
G37*
G36*
G01*
X148210000Y-114300000D02*
X148210000Y-114500000D01*
G75*
G02*
X148110000Y-114600000I-100000J0D01*
G01*
X147850000Y-114600000D01*
G75*
G02*
X147750000Y-114500000I0J100000D01*
G01*
X147750000Y-114300000D01*
G75*
G02*
X147850000Y-114200000I100000J0D01*
G01*
X148110000Y-114200000D01*
G75*
G02*
X148210000Y-114300000I0J-100000D01*
G01*
G37*
G36*
G01*
X148850000Y-114300000D02*
X148850000Y-114500000D01*
G75*
G02*
X148750000Y-114600000I-100000J0D01*
G01*
X148490000Y-114600000D01*
G75*
G02*
X148390000Y-114500000I0J100000D01*
G01*
X148390000Y-114300000D01*
G75*
G02*
X148490000Y-114200000I100000J0D01*
G01*
X148750000Y-114200000D01*
G75*
G02*
X148850000Y-114300000I0J-100000D01*
G01*
G37*
G36*
G01*
X159605000Y-116067500D02*
X159405000Y-116067500D01*
G75*
G02*
X159305000Y-115967500I0J100000D01*
G01*
X159305000Y-115707500D01*
G75*
G02*
X159405000Y-115607500I100000J0D01*
G01*
X159605000Y-115607500D01*
G75*
G02*
X159705000Y-115707500I0J-100000D01*
G01*
X159705000Y-115967500D01*
G75*
G02*
X159605000Y-116067500I-100000J0D01*
G01*
G37*
G36*
G01*
X159605000Y-116707500D02*
X159405000Y-116707500D01*
G75*
G02*
X159305000Y-116607500I0J100000D01*
G01*
X159305000Y-116347500D01*
G75*
G02*
X159405000Y-116247500I100000J0D01*
G01*
X159605000Y-116247500D01*
G75*
G02*
X159705000Y-116347500I0J-100000D01*
G01*
X159705000Y-116607500D01*
G75*
G02*
X159605000Y-116707500I-100000J0D01*
G01*
G37*
G36*
G01*
X152500000Y-119642500D02*
X152300000Y-119642500D01*
G75*
G02*
X152200000Y-119542500I0J100000D01*
G01*
X152200000Y-119282500D01*
G75*
G02*
X152300000Y-119182500I100000J0D01*
G01*
X152500000Y-119182500D01*
G75*
G02*
X152600000Y-119282500I0J-100000D01*
G01*
X152600000Y-119542500D01*
G75*
G02*
X152500000Y-119642500I-100000J0D01*
G01*
G37*
G36*
G01*
X152500000Y-120282500D02*
X152300000Y-120282500D01*
G75*
G02*
X152200000Y-120182500I0J100000D01*
G01*
X152200000Y-119922500D01*
G75*
G02*
X152300000Y-119822500I100000J0D01*
G01*
X152500000Y-119822500D01*
G75*
G02*
X152600000Y-119922500I0J-100000D01*
G01*
X152600000Y-120182500D01*
G75*
G02*
X152500000Y-120282500I-100000J0D01*
G01*
G37*
G36*
G01*
X154400000Y-119610000D02*
X154200000Y-119610000D01*
G75*
G02*
X154100000Y-119510000I0J100000D01*
G01*
X154100000Y-119250000D01*
G75*
G02*
X154200000Y-119150000I100000J0D01*
G01*
X154400000Y-119150000D01*
G75*
G02*
X154500000Y-119250000I0J-100000D01*
G01*
X154500000Y-119510000D01*
G75*
G02*
X154400000Y-119610000I-100000J0D01*
G01*
G37*
G36*
G01*
X154400000Y-120250000D02*
X154200000Y-120250000D01*
G75*
G02*
X154100000Y-120150000I0J100000D01*
G01*
X154100000Y-119890000D01*
G75*
G02*
X154200000Y-119790000I100000J0D01*
G01*
X154400000Y-119790000D01*
G75*
G02*
X154500000Y-119890000I0J-100000D01*
G01*
X154500000Y-120150000D01*
G75*
G02*
X154400000Y-120250000I-100000J0D01*
G01*
G37*
G36*
G01*
X156500000Y-119610000D02*
X156300000Y-119610000D01*
G75*
G02*
X156200000Y-119510000I0J100000D01*
G01*
X156200000Y-119250000D01*
G75*
G02*
X156300000Y-119150000I100000J0D01*
G01*
X156500000Y-119150000D01*
G75*
G02*
X156600000Y-119250000I0J-100000D01*
G01*
X156600000Y-119510000D01*
G75*
G02*
X156500000Y-119610000I-100000J0D01*
G01*
G37*
G36*
G01*
X156500000Y-120250000D02*
X156300000Y-120250000D01*
G75*
G02*
X156200000Y-120150000I0J100000D01*
G01*
X156200000Y-119890000D01*
G75*
G02*
X156300000Y-119790000I100000J0D01*
G01*
X156500000Y-119790000D01*
G75*
G02*
X156600000Y-119890000I0J-100000D01*
G01*
X156600000Y-120150000D01*
G75*
G02*
X156500000Y-120250000I-100000J0D01*
G01*
G37*
G36*
G01*
X158400000Y-119610000D02*
X158200000Y-119610000D01*
G75*
G02*
X158100000Y-119510000I0J100000D01*
G01*
X158100000Y-119250000D01*
G75*
G02*
X158200000Y-119150000I100000J0D01*
G01*
X158400000Y-119150000D01*
G75*
G02*
X158500000Y-119250000I0J-100000D01*
G01*
X158500000Y-119510000D01*
G75*
G02*
X158400000Y-119610000I-100000J0D01*
G01*
G37*
G36*
G01*
X158400000Y-120250000D02*
X158200000Y-120250000D01*
G75*
G02*
X158100000Y-120150000I0J100000D01*
G01*
X158100000Y-119890000D01*
G75*
G02*
X158200000Y-119790000I100000J0D01*
G01*
X158400000Y-119790000D01*
G75*
G02*
X158500000Y-119890000I0J-100000D01*
G01*
X158500000Y-120150000D01*
G75*
G02*
X158400000Y-120250000I-100000J0D01*
G01*
G37*
G36*
G01*
X152360000Y-90672500D02*
X152160000Y-90672500D01*
G75*
G02*
X152060000Y-90572500I0J100000D01*
G01*
X152060000Y-90312500D01*
G75*
G02*
X152160000Y-90212500I100000J0D01*
G01*
X152360000Y-90212500D01*
G75*
G02*
X152460000Y-90312500I0J-100000D01*
G01*
X152460000Y-90572500D01*
G75*
G02*
X152360000Y-90672500I-100000J0D01*
G01*
G37*
G36*
G01*
X152360000Y-91312500D02*
X152160000Y-91312500D01*
G75*
G02*
X152060000Y-91212500I0J100000D01*
G01*
X152060000Y-90952500D01*
G75*
G02*
X152160000Y-90852500I100000J0D01*
G01*
X152360000Y-90852500D01*
G75*
G02*
X152460000Y-90952500I0J-100000D01*
G01*
X152460000Y-91212500D01*
G75*
G02*
X152360000Y-91312500I-100000J0D01*
G01*
G37*
G36*
G01*
X128990000Y-112400000D02*
X128990000Y-112200000D01*
G75*
G02*
X129090000Y-112100000I100000J0D01*
G01*
X129350000Y-112100000D01*
G75*
G02*
X129450000Y-112200000I0J-100000D01*
G01*
X129450000Y-112400000D01*
G75*
G02*
X129350000Y-112500000I-100000J0D01*
G01*
X129090000Y-112500000D01*
G75*
G02*
X128990000Y-112400000I0J100000D01*
G01*
G37*
G36*
G01*
X128350000Y-112400000D02*
X128350000Y-112200000D01*
G75*
G02*
X128450000Y-112100000I100000J0D01*
G01*
X128710000Y-112100000D01*
G75*
G02*
X128810000Y-112200000I0J-100000D01*
G01*
X128810000Y-112400000D01*
G75*
G02*
X128710000Y-112500000I-100000J0D01*
G01*
X128450000Y-112500000D01*
G75*
G02*
X128350000Y-112400000I0J100000D01*
G01*
G37*
G36*
G01*
X137400000Y-115550000D02*
X137600000Y-115550000D01*
G75*
G02*
X137700000Y-115650000I0J-100000D01*
G01*
X137700000Y-115910000D01*
G75*
G02*
X137600000Y-116010000I-100000J0D01*
G01*
X137400000Y-116010000D01*
G75*
G02*
X137300000Y-115910000I0J100000D01*
G01*
X137300000Y-115650000D01*
G75*
G02*
X137400000Y-115550000I100000J0D01*
G01*
G37*
G36*
G01*
X137400000Y-114910000D02*
X137600000Y-114910000D01*
G75*
G02*
X137700000Y-115010000I0J-100000D01*
G01*
X137700000Y-115270000D01*
G75*
G02*
X137600000Y-115370000I-100000J0D01*
G01*
X137400000Y-115370000D01*
G75*
G02*
X137300000Y-115270000I0J100000D01*
G01*
X137300000Y-115010000D01*
G75*
G02*
X137400000Y-114910000I100000J0D01*
G01*
G37*
G36*
G01*
X136630000Y-115350000D02*
X136430000Y-115350000D01*
G75*
G02*
X136330000Y-115250000I0J100000D01*
G01*
X136330000Y-114990000D01*
G75*
G02*
X136430000Y-114890000I100000J0D01*
G01*
X136630000Y-114890000D01*
G75*
G02*
X136730000Y-114990000I0J-100000D01*
G01*
X136730000Y-115250000D01*
G75*
G02*
X136630000Y-115350000I-100000J0D01*
G01*
G37*
G36*
G01*
X136630000Y-115990000D02*
X136430000Y-115990000D01*
G75*
G02*
X136330000Y-115890000I0J100000D01*
G01*
X136330000Y-115630000D01*
G75*
G02*
X136430000Y-115530000I100000J0D01*
G01*
X136630000Y-115530000D01*
G75*
G02*
X136730000Y-115630000I0J-100000D01*
G01*
X136730000Y-115890000D01*
G75*
G02*
X136630000Y-115990000I-100000J0D01*
G01*
G37*
G36*
G01*
X128070000Y-120322500D02*
X127870000Y-120322500D01*
G75*
G02*
X127770000Y-120222500I0J100000D01*
G01*
X127770000Y-119962500D01*
G75*
G02*
X127870000Y-119862500I100000J0D01*
G01*
X128070000Y-119862500D01*
G75*
G02*
X128170000Y-119962500I0J-100000D01*
G01*
X128170000Y-120222500D01*
G75*
G02*
X128070000Y-120322500I-100000J0D01*
G01*
G37*
G36*
G01*
X128070000Y-120962500D02*
X127870000Y-120962500D01*
G75*
G02*
X127770000Y-120862500I0J100000D01*
G01*
X127770000Y-120602500D01*
G75*
G02*
X127870000Y-120502500I100000J0D01*
G01*
X128070000Y-120502500D01*
G75*
G02*
X128170000Y-120602500I0J-100000D01*
G01*
X128170000Y-120862500D01*
G75*
G02*
X128070000Y-120962500I-100000J0D01*
G01*
G37*
G36*
G01*
X144490000Y-87300000D02*
X144490000Y-87100000D01*
G75*
G02*
X144590000Y-87000000I100000J0D01*
G01*
X144850000Y-87000000D01*
G75*
G02*
X144950000Y-87100000I0J-100000D01*
G01*
X144950000Y-87300000D01*
G75*
G02*
X144850000Y-87400000I-100000J0D01*
G01*
X144590000Y-87400000D01*
G75*
G02*
X144490000Y-87300000I0J100000D01*
G01*
G37*
G36*
G01*
X143850000Y-87300000D02*
X143850000Y-87100000D01*
G75*
G02*
X143950000Y-87000000I100000J0D01*
G01*
X144210000Y-87000000D01*
G75*
G02*
X144310000Y-87100000I0J-100000D01*
G01*
X144310000Y-87300000D01*
G75*
G02*
X144210000Y-87400000I-100000J0D01*
G01*
X143950000Y-87400000D01*
G75*
G02*
X143850000Y-87300000I0J100000D01*
G01*
G37*
G36*
G01*
X133700000Y-94510000D02*
X133500000Y-94510000D01*
G75*
G02*
X133400000Y-94410000I0J100000D01*
G01*
X133400000Y-94150000D01*
G75*
G02*
X133500000Y-94050000I100000J0D01*
G01*
X133700000Y-94050000D01*
G75*
G02*
X133800000Y-94150000I0J-100000D01*
G01*
X133800000Y-94410000D01*
G75*
G02*
X133700000Y-94510000I-100000J0D01*
G01*
G37*
G36*
G01*
X133700000Y-95150000D02*
X133500000Y-95150000D01*
G75*
G02*
X133400000Y-95050000I0J100000D01*
G01*
X133400000Y-94790000D01*
G75*
G02*
X133500000Y-94690000I100000J0D01*
G01*
X133700000Y-94690000D01*
G75*
G02*
X133800000Y-94790000I0J-100000D01*
G01*
X133800000Y-95050000D01*
G75*
G02*
X133700000Y-95150000I-100000J0D01*
G01*
G37*
G36*
G01*
X158100000Y-94510000D02*
X157900000Y-94510000D01*
G75*
G02*
X157800000Y-94410000I0J100000D01*
G01*
X157800000Y-94150000D01*
G75*
G02*
X157900000Y-94050000I100000J0D01*
G01*
X158100000Y-94050000D01*
G75*
G02*
X158200000Y-94150000I0J-100000D01*
G01*
X158200000Y-94410000D01*
G75*
G02*
X158100000Y-94510000I-100000J0D01*
G01*
G37*
G36*
G01*
X158100000Y-95150000D02*
X157900000Y-95150000D01*
G75*
G02*
X157800000Y-95050000I0J100000D01*
G01*
X157800000Y-94790000D01*
G75*
G02*
X157900000Y-94690000I100000J0D01*
G01*
X158100000Y-94690000D01*
G75*
G02*
X158200000Y-94790000I0J-100000D01*
G01*
X158200000Y-95050000D01*
G75*
G02*
X158100000Y-95150000I-100000J0D01*
G01*
G37*
G36*
G01*
X146410000Y-87100000D02*
X146410000Y-87300000D01*
G75*
G02*
X146310000Y-87400000I-100000J0D01*
G01*
X146050000Y-87400000D01*
G75*
G02*
X145950000Y-87300000I0J100000D01*
G01*
X145950000Y-87100000D01*
G75*
G02*
X146050000Y-87000000I100000J0D01*
G01*
X146310000Y-87000000D01*
G75*
G02*
X146410000Y-87100000I0J-100000D01*
G01*
G37*
G36*
G01*
X147050000Y-87100000D02*
X147050000Y-87300000D01*
G75*
G02*
X146950000Y-87400000I-100000J0D01*
G01*
X146690000Y-87400000D01*
G75*
G02*
X146590000Y-87300000I0J100000D01*
G01*
X146590000Y-87100000D01*
G75*
G02*
X146690000Y-87000000I100000J0D01*
G01*
X146950000Y-87000000D01*
G75*
G02*
X147050000Y-87100000I0J-100000D01*
G01*
G37*
G36*
G01*
X132400000Y-90712500D02*
X132200000Y-90712500D01*
G75*
G02*
X132100000Y-90612500I0J100000D01*
G01*
X132100000Y-90352500D01*
G75*
G02*
X132200000Y-90252500I100000J0D01*
G01*
X132400000Y-90252500D01*
G75*
G02*
X132500000Y-90352500I0J-100000D01*
G01*
X132500000Y-90612500D01*
G75*
G02*
X132400000Y-90712500I-100000J0D01*
G01*
G37*
G36*
G01*
X132400000Y-91352500D02*
X132200000Y-91352500D01*
G75*
G02*
X132100000Y-91252500I0J100000D01*
G01*
X132100000Y-90992500D01*
G75*
G02*
X132200000Y-90892500I100000J0D01*
G01*
X132400000Y-90892500D01*
G75*
G02*
X132500000Y-90992500I0J-100000D01*
G01*
X132500000Y-91252500D01*
G75*
G02*
X132400000Y-91352500I-100000J0D01*
G01*
G37*
G36*
G01*
X152227500Y-121120000D02*
X152572500Y-121120000D01*
G75*
G02*
X152720000Y-121267500I0J-147500D01*
G01*
X152720000Y-121562500D01*
G75*
G02*
X152572500Y-121710000I-147500J0D01*
G01*
X152227500Y-121710000D01*
G75*
G02*
X152080000Y-121562500I0J147500D01*
G01*
X152080000Y-121267500D01*
G75*
G02*
X152227500Y-121120000I147500J0D01*
G01*
G37*
G36*
G01*
X152227500Y-122090000D02*
X152572500Y-122090000D01*
G75*
G02*
X152720000Y-122237500I0J-147500D01*
G01*
X152720000Y-122532500D01*
G75*
G02*
X152572500Y-122680000I-147500J0D01*
G01*
X152227500Y-122680000D01*
G75*
G02*
X152080000Y-122532500I0J147500D01*
G01*
X152080000Y-122237500D01*
G75*
G02*
X152227500Y-122090000I147500J0D01*
G01*
G37*
G36*
G01*
X154127500Y-122090000D02*
X154472500Y-122090000D01*
G75*
G02*
X154620000Y-122237500I0J-147500D01*
G01*
X154620000Y-122532500D01*
G75*
G02*
X154472500Y-122680000I-147500J0D01*
G01*
X154127500Y-122680000D01*
G75*
G02*
X153980000Y-122532500I0J147500D01*
G01*
X153980000Y-122237500D01*
G75*
G02*
X154127500Y-122090000I147500J0D01*
G01*
G37*
G36*
G01*
X154127500Y-121120000D02*
X154472500Y-121120000D01*
G75*
G02*
X154620000Y-121267500I0J-147500D01*
G01*
X154620000Y-121562500D01*
G75*
G02*
X154472500Y-121710000I-147500J0D01*
G01*
X154127500Y-121710000D01*
G75*
G02*
X153980000Y-121562500I0J147500D01*
G01*
X153980000Y-121267500D01*
G75*
G02*
X154127500Y-121120000I147500J0D01*
G01*
G37*
G36*
G01*
X156197500Y-122090000D02*
X156542500Y-122090000D01*
G75*
G02*
X156690000Y-122237500I0J-147500D01*
G01*
X156690000Y-122532500D01*
G75*
G02*
X156542500Y-122680000I-147500J0D01*
G01*
X156197500Y-122680000D01*
G75*
G02*
X156050000Y-122532500I0J147500D01*
G01*
X156050000Y-122237500D01*
G75*
G02*
X156197500Y-122090000I147500J0D01*
G01*
G37*
G36*
G01*
X156197500Y-121120000D02*
X156542500Y-121120000D01*
G75*
G02*
X156690000Y-121267500I0J-147500D01*
G01*
X156690000Y-121562500D01*
G75*
G02*
X156542500Y-121710000I-147500J0D01*
G01*
X156197500Y-121710000D01*
G75*
G02*
X156050000Y-121562500I0J147500D01*
G01*
X156050000Y-121267500D01*
G75*
G02*
X156197500Y-121120000I147500J0D01*
G01*
G37*
G36*
G01*
X158167500Y-122090000D02*
X158512500Y-122090000D01*
G75*
G02*
X158660000Y-122237500I0J-147500D01*
G01*
X158660000Y-122532500D01*
G75*
G02*
X158512500Y-122680000I-147500J0D01*
G01*
X158167500Y-122680000D01*
G75*
G02*
X158020000Y-122532500I0J147500D01*
G01*
X158020000Y-122237500D01*
G75*
G02*
X158167500Y-122090000I147500J0D01*
G01*
G37*
G36*
G01*
X158167500Y-121120000D02*
X158512500Y-121120000D01*
G75*
G02*
X158660000Y-121267500I0J-147500D01*
G01*
X158660000Y-121562500D01*
G75*
G02*
X158512500Y-121710000I-147500J0D01*
G01*
X158167500Y-121710000D01*
G75*
G02*
X158020000Y-121562500I0J147500D01*
G01*
X158020000Y-121267500D01*
G75*
G02*
X158167500Y-121120000I147500J0D01*
G01*
G37*
G36*
G01*
X125772500Y-115880000D02*
X125427500Y-115880000D01*
G75*
G02*
X125280000Y-115732500I0J147500D01*
G01*
X125280000Y-115437500D01*
G75*
G02*
X125427500Y-115290000I147500J0D01*
G01*
X125772500Y-115290000D01*
G75*
G02*
X125920000Y-115437500I0J-147500D01*
G01*
X125920000Y-115732500D01*
G75*
G02*
X125772500Y-115880000I-147500J0D01*
G01*
G37*
G36*
G01*
X125772500Y-114910000D02*
X125427500Y-114910000D01*
G75*
G02*
X125280000Y-114762500I0J147500D01*
G01*
X125280000Y-114467500D01*
G75*
G02*
X125427500Y-114320000I147500J0D01*
G01*
X125772500Y-114320000D01*
G75*
G02*
X125920000Y-114467500I0J-147500D01*
G01*
X125920000Y-114762500D01*
G75*
G02*
X125772500Y-114910000I-147500J0D01*
G01*
G37*
G36*
G01*
X150732500Y-102670000D02*
X150732500Y-102330000D01*
G75*
G02*
X150872500Y-102190000I140000J0D01*
G01*
X151152500Y-102190000D01*
G75*
G02*
X151292500Y-102330000I0J-140000D01*
G01*
X151292500Y-102670000D01*
G75*
G02*
X151152500Y-102810000I-140000J0D01*
G01*
X150872500Y-102810000D01*
G75*
G02*
X150732500Y-102670000I0J140000D01*
G01*
G37*
G36*
G01*
X149772500Y-102670000D02*
X149772500Y-102330000D01*
G75*
G02*
X149912500Y-102190000I140000J0D01*
G01*
X150192500Y-102190000D01*
G75*
G02*
X150332500Y-102330000I0J-140000D01*
G01*
X150332500Y-102670000D01*
G75*
G02*
X150192500Y-102810000I-140000J0D01*
G01*
X149912500Y-102810000D01*
G75*
G02*
X149772500Y-102670000I0J140000D01*
G01*
G37*
G36*
G01*
X136610000Y-96800000D02*
X136610000Y-97000000D01*
G75*
G02*
X136510000Y-97100000I-100000J0D01*
G01*
X136250000Y-97100000D01*
G75*
G02*
X136150000Y-97000000I0J100000D01*
G01*
X136150000Y-96800000D01*
G75*
G02*
X136250000Y-96700000I100000J0D01*
G01*
X136510000Y-96700000D01*
G75*
G02*
X136610000Y-96800000I0J-100000D01*
G01*
G37*
G36*
G01*
X137250000Y-96800000D02*
X137250000Y-97000000D01*
G75*
G02*
X137150000Y-97100000I-100000J0D01*
G01*
X136890000Y-97100000D01*
G75*
G02*
X136790000Y-97000000I0J100000D01*
G01*
X136790000Y-96800000D01*
G75*
G02*
X136890000Y-96700000I100000J0D01*
G01*
X137150000Y-96700000D01*
G75*
G02*
X137250000Y-96800000I0J-100000D01*
G01*
G37*
G36*
G01*
X136317500Y-92800000D02*
X136317500Y-93000000D01*
G75*
G02*
X136217500Y-93100000I-100000J0D01*
G01*
X135957500Y-93100000D01*
G75*
G02*
X135857500Y-93000000I0J100000D01*
G01*
X135857500Y-92800000D01*
G75*
G02*
X135957500Y-92700000I100000J0D01*
G01*
X136217500Y-92700000D01*
G75*
G02*
X136317500Y-92800000I0J-100000D01*
G01*
G37*
G36*
G01*
X136957500Y-92800000D02*
X136957500Y-93000000D01*
G75*
G02*
X136857500Y-93100000I-100000J0D01*
G01*
X136597500Y-93100000D01*
G75*
G02*
X136497500Y-93000000I0J100000D01*
G01*
X136497500Y-92800000D01*
G75*
G02*
X136597500Y-92700000I100000J0D01*
G01*
X136857500Y-92700000D01*
G75*
G02*
X136957500Y-92800000I0J-100000D01*
G01*
G37*
G36*
G01*
X150797500Y-100500000D02*
X150797500Y-100300000D01*
G75*
G02*
X150897500Y-100200000I100000J0D01*
G01*
X151157500Y-100200000D01*
G75*
G02*
X151257500Y-100300000I0J-100000D01*
G01*
X151257500Y-100500000D01*
G75*
G02*
X151157500Y-100600000I-100000J0D01*
G01*
X150897500Y-100600000D01*
G75*
G02*
X150797500Y-100500000I0J100000D01*
G01*
G37*
G36*
G01*
X150157500Y-100500000D02*
X150157500Y-100300000D01*
G75*
G02*
X150257500Y-100200000I100000J0D01*
G01*
X150517500Y-100200000D01*
G75*
G02*
X150617500Y-100300000I0J-100000D01*
G01*
X150617500Y-100500000D01*
G75*
G02*
X150517500Y-100600000I-100000J0D01*
G01*
X150257500Y-100600000D01*
G75*
G02*
X150157500Y-100500000I0J100000D01*
G01*
G37*
G36*
G01*
X140110000Y-92300000D02*
X140110000Y-92500000D01*
G75*
G02*
X140010000Y-92600000I-100000J0D01*
G01*
X139750000Y-92600000D01*
G75*
G02*
X139650000Y-92500000I0J100000D01*
G01*
X139650000Y-92300000D01*
G75*
G02*
X139750000Y-92200000I100000J0D01*
G01*
X140010000Y-92200000D01*
G75*
G02*
X140110000Y-92300000I0J-100000D01*
G01*
G37*
G36*
G01*
X140750000Y-92300000D02*
X140750000Y-92500000D01*
G75*
G02*
X140650000Y-92600000I-100000J0D01*
G01*
X140390000Y-92600000D01*
G75*
G02*
X140290000Y-92500000I0J100000D01*
G01*
X140290000Y-92300000D01*
G75*
G02*
X140390000Y-92200000I100000J0D01*
G01*
X140650000Y-92200000D01*
G75*
G02*
X140750000Y-92300000I0J-100000D01*
G01*
G37*
G36*
G01*
X152627500Y-94290000D02*
X152627500Y-94090000D01*
G75*
G02*
X152727500Y-93990000I100000J0D01*
G01*
X152987500Y-93990000D01*
G75*
G02*
X153087500Y-94090000I0J-100000D01*
G01*
X153087500Y-94290000D01*
G75*
G02*
X152987500Y-94390000I-100000J0D01*
G01*
X152727500Y-94390000D01*
G75*
G02*
X152627500Y-94290000I0J100000D01*
G01*
G37*
G36*
G01*
X151987500Y-94290000D02*
X151987500Y-94090000D01*
G75*
G02*
X152087500Y-93990000I100000J0D01*
G01*
X152347500Y-93990000D01*
G75*
G02*
X152447500Y-94090000I0J-100000D01*
G01*
X152447500Y-94290000D01*
G75*
G02*
X152347500Y-94390000I-100000J0D01*
G01*
X152087500Y-94390000D01*
G75*
G02*
X151987500Y-94290000I0J100000D01*
G01*
G37*
G36*
G01*
X150790000Y-101300000D02*
X150790000Y-101100000D01*
G75*
G02*
X150890000Y-101000000I100000J0D01*
G01*
X151150000Y-101000000D01*
G75*
G02*
X151250000Y-101100000I0J-100000D01*
G01*
X151250000Y-101300000D01*
G75*
G02*
X151150000Y-101400000I-100000J0D01*
G01*
X150890000Y-101400000D01*
G75*
G02*
X150790000Y-101300000I0J100000D01*
G01*
G37*
G36*
G01*
X150150000Y-101300000D02*
X150150000Y-101100000D01*
G75*
G02*
X150250000Y-101000000I100000J0D01*
G01*
X150510000Y-101000000D01*
G75*
G02*
X150610000Y-101100000I0J-100000D01*
G01*
X150610000Y-101300000D01*
G75*
G02*
X150510000Y-101400000I-100000J0D01*
G01*
X150250000Y-101400000D01*
G75*
G02*
X150150000Y-101300000I0J100000D01*
G01*
G37*
G36*
G01*
X152867500Y-93270000D02*
X152867500Y-92930000D01*
G75*
G02*
X153007500Y-92790000I140000J0D01*
G01*
X153287500Y-92790000D01*
G75*
G02*
X153427500Y-92930000I0J-140000D01*
G01*
X153427500Y-93270000D01*
G75*
G02*
X153287500Y-93410000I-140000J0D01*
G01*
X153007500Y-93410000D01*
G75*
G02*
X152867500Y-93270000I0J140000D01*
G01*
G37*
G36*
G01*
X151907500Y-93270000D02*
X151907500Y-92930000D01*
G75*
G02*
X152047500Y-92790000I140000J0D01*
G01*
X152327500Y-92790000D01*
G75*
G02*
X152467500Y-92930000I0J-140000D01*
G01*
X152467500Y-93270000D01*
G75*
G02*
X152327500Y-93410000I-140000J0D01*
G01*
X152047500Y-93410000D01*
G75*
G02*
X151907500Y-93270000I0J140000D01*
G01*
G37*
G36*
G01*
X135967500Y-93630000D02*
X135967500Y-93970000D01*
G75*
G02*
X135827500Y-94110000I-140000J0D01*
G01*
X135547500Y-94110000D01*
G75*
G02*
X135407500Y-93970000I0J140000D01*
G01*
X135407500Y-93630000D01*
G75*
G02*
X135547500Y-93490000I140000J0D01*
G01*
X135827500Y-93490000D01*
G75*
G02*
X135967500Y-93630000I0J-140000D01*
G01*
G37*
G36*
G01*
X136927500Y-93630000D02*
X136927500Y-93970000D01*
G75*
G02*
X136787500Y-94110000I-140000J0D01*
G01*
X136507500Y-94110000D01*
G75*
G02*
X136367500Y-93970000I0J140000D01*
G01*
X136367500Y-93630000D01*
G75*
G02*
X136507500Y-93490000I140000J0D01*
G01*
X136787500Y-93490000D01*
G75*
G02*
X136927500Y-93630000I0J-140000D01*
G01*
G37*
G36*
G01*
X159605000Y-112960000D02*
X159405000Y-112960000D01*
G75*
G02*
X159305000Y-112860000I0J100000D01*
G01*
X159305000Y-112600000D01*
G75*
G02*
X159405000Y-112500000I100000J0D01*
G01*
X159605000Y-112500000D01*
G75*
G02*
X159705000Y-112600000I0J-100000D01*
G01*
X159705000Y-112860000D01*
G75*
G02*
X159605000Y-112960000I-100000J0D01*
G01*
G37*
G36*
G01*
X159605000Y-113600000D02*
X159405000Y-113600000D01*
G75*
G02*
X159305000Y-113500000I0J100000D01*
G01*
X159305000Y-113240000D01*
G75*
G02*
X159405000Y-113140000I100000J0D01*
G01*
X159605000Y-113140000D01*
G75*
G02*
X159705000Y-113240000I0J-100000D01*
G01*
X159705000Y-113500000D01*
G75*
G02*
X159605000Y-113600000I-100000J0D01*
G01*
G37*
G36*
G01*
X158190000Y-89840000D02*
X158390000Y-89840000D01*
G75*
G02*
X158490000Y-89940000I0J-100000D01*
G01*
X158490000Y-90200000D01*
G75*
G02*
X158390000Y-90300000I-100000J0D01*
G01*
X158190000Y-90300000D01*
G75*
G02*
X158090000Y-90200000I0J100000D01*
G01*
X158090000Y-89940000D01*
G75*
G02*
X158190000Y-89840000I100000J0D01*
G01*
G37*
G36*
G01*
X158190000Y-89200000D02*
X158390000Y-89200000D01*
G75*
G02*
X158490000Y-89300000I0J-100000D01*
G01*
X158490000Y-89560000D01*
G75*
G02*
X158390000Y-89660000I-100000J0D01*
G01*
X158190000Y-89660000D01*
G75*
G02*
X158090000Y-89560000I0J100000D01*
G01*
X158090000Y-89300000D01*
G75*
G02*
X158190000Y-89200000I100000J0D01*
G01*
G37*
G36*
G01*
X138600000Y-115370000D02*
X138400000Y-115370000D01*
G75*
G02*
X138300000Y-115270000I0J100000D01*
G01*
X138300000Y-115010000D01*
G75*
G02*
X138400000Y-114910000I100000J0D01*
G01*
X138600000Y-114910000D01*
G75*
G02*
X138700000Y-115010000I0J-100000D01*
G01*
X138700000Y-115270000D01*
G75*
G02*
X138600000Y-115370000I-100000J0D01*
G01*
G37*
G36*
G01*
X138600000Y-116010000D02*
X138400000Y-116010000D01*
G75*
G02*
X138300000Y-115910000I0J100000D01*
G01*
X138300000Y-115650000D01*
G75*
G02*
X138400000Y-115550000I100000J0D01*
G01*
X138600000Y-115550000D01*
G75*
G02*
X138700000Y-115650000I0J-100000D01*
G01*
X138700000Y-115910000D01*
G75*
G02*
X138600000Y-116010000I-100000J0D01*
G01*
G37*
G36*
G01*
X145770000Y-117200000D02*
X145430000Y-117200000D01*
G75*
G02*
X145290000Y-117060000I0J140000D01*
G01*
X145290000Y-116780000D01*
G75*
G02*
X145430000Y-116640000I140000J0D01*
G01*
X145770000Y-116640000D01*
G75*
G02*
X145910000Y-116780000I0J-140000D01*
G01*
X145910000Y-117060000D01*
G75*
G02*
X145770000Y-117200000I-140000J0D01*
G01*
G37*
G36*
G01*
X145770000Y-118160000D02*
X145430000Y-118160000D01*
G75*
G02*
X145290000Y-118020000I0J140000D01*
G01*
X145290000Y-117740000D01*
G75*
G02*
X145430000Y-117600000I140000J0D01*
G01*
X145770000Y-117600000D01*
G75*
G02*
X145910000Y-117740000I0J-140000D01*
G01*
X145910000Y-118020000D01*
G75*
G02*
X145770000Y-118160000I-140000J0D01*
G01*
G37*
G36*
G01*
X140500000Y-117510000D02*
X140300000Y-117510000D01*
G75*
G02*
X140200000Y-117410000I0J100000D01*
G01*
X140200000Y-117150000D01*
G75*
G02*
X140300000Y-117050000I100000J0D01*
G01*
X140500000Y-117050000D01*
G75*
G02*
X140600000Y-117150000I0J-100000D01*
G01*
X140600000Y-117410000D01*
G75*
G02*
X140500000Y-117510000I-100000J0D01*
G01*
G37*
G36*
G01*
X140500000Y-118150000D02*
X140300000Y-118150000D01*
G75*
G02*
X140200000Y-118050000I0J100000D01*
G01*
X140200000Y-117790000D01*
G75*
G02*
X140300000Y-117690000I100000J0D01*
G01*
X140500000Y-117690000D01*
G75*
G02*
X140600000Y-117790000I0J-100000D01*
G01*
X140600000Y-118050000D01*
G75*
G02*
X140500000Y-118150000I-100000J0D01*
G01*
G37*
G36*
G01*
X145300000Y-115290000D02*
X145500000Y-115290000D01*
G75*
G02*
X145600000Y-115390000I0J-100000D01*
G01*
X145600000Y-115650000D01*
G75*
G02*
X145500000Y-115750000I-100000J0D01*
G01*
X145300000Y-115750000D01*
G75*
G02*
X145200000Y-115650000I0J100000D01*
G01*
X145200000Y-115390000D01*
G75*
G02*
X145300000Y-115290000I100000J0D01*
G01*
G37*
G36*
G01*
X145300000Y-114650000D02*
X145500000Y-114650000D01*
G75*
G02*
X145600000Y-114750000I0J-100000D01*
G01*
X145600000Y-115010000D01*
G75*
G02*
X145500000Y-115110000I-100000J0D01*
G01*
X145300000Y-115110000D01*
G75*
G02*
X145200000Y-115010000I0J100000D01*
G01*
X145200000Y-114750000D01*
G75*
G02*
X145300000Y-114650000I100000J0D01*
G01*
G37*
G36*
G01*
X142000000Y-108610000D02*
X141800000Y-108610000D01*
G75*
G02*
X141700000Y-108510000I0J100000D01*
G01*
X141700000Y-108250000D01*
G75*
G02*
X141800000Y-108150000I100000J0D01*
G01*
X142000000Y-108150000D01*
G75*
G02*
X142100000Y-108250000I0J-100000D01*
G01*
X142100000Y-108510000D01*
G75*
G02*
X142000000Y-108610000I-100000J0D01*
G01*
G37*
G36*
G01*
X142000000Y-109250000D02*
X141800000Y-109250000D01*
G75*
G02*
X141700000Y-109150000I0J100000D01*
G01*
X141700000Y-108890000D01*
G75*
G02*
X141800000Y-108790000I100000J0D01*
G01*
X142000000Y-108790000D01*
G75*
G02*
X142100000Y-108890000I0J-100000D01*
G01*
X142100000Y-109150000D01*
G75*
G02*
X142000000Y-109250000I-100000J0D01*
G01*
G37*
G36*
G01*
X141900000Y-111890000D02*
X142100000Y-111890000D01*
G75*
G02*
X142200000Y-111990000I0J-100000D01*
G01*
X142200000Y-112250000D01*
G75*
G02*
X142100000Y-112350000I-100000J0D01*
G01*
X141900000Y-112350000D01*
G75*
G02*
X141800000Y-112250000I0J100000D01*
G01*
X141800000Y-111990000D01*
G75*
G02*
X141900000Y-111890000I100000J0D01*
G01*
G37*
G36*
G01*
X141900000Y-111250000D02*
X142100000Y-111250000D01*
G75*
G02*
X142200000Y-111350000I0J-100000D01*
G01*
X142200000Y-111610000D01*
G75*
G02*
X142100000Y-111710000I-100000J0D01*
G01*
X141900000Y-111710000D01*
G75*
G02*
X141800000Y-111610000I0J100000D01*
G01*
X141800000Y-111350000D01*
G75*
G02*
X141900000Y-111250000I100000J0D01*
G01*
G37*
G36*
G01*
X138220000Y-89830000D02*
X138420000Y-89830000D01*
G75*
G02*
X138520000Y-89930000I0J-100000D01*
G01*
X138520000Y-90190000D01*
G75*
G02*
X138420000Y-90290000I-100000J0D01*
G01*
X138220000Y-90290000D01*
G75*
G02*
X138120000Y-90190000I0J100000D01*
G01*
X138120000Y-89930000D01*
G75*
G02*
X138220000Y-89830000I100000J0D01*
G01*
G37*
G36*
G01*
X138220000Y-89190000D02*
X138420000Y-89190000D01*
G75*
G02*
X138520000Y-89290000I0J-100000D01*
G01*
X138520000Y-89550000D01*
G75*
G02*
X138420000Y-89650000I-100000J0D01*
G01*
X138220000Y-89650000D01*
G75*
G02*
X138120000Y-89550000I0J100000D01*
G01*
X138120000Y-89290000D01*
G75*
G02*
X138220000Y-89190000I100000J0D01*
G01*
G37*
G36*
G01*
X148490000Y-103200000D02*
X148490000Y-103000000D01*
G75*
G02*
X148590000Y-102900000I100000J0D01*
G01*
X148850000Y-102900000D01*
G75*
G02*
X148950000Y-103000000I0J-100000D01*
G01*
X148950000Y-103200000D01*
G75*
G02*
X148850000Y-103300000I-100000J0D01*
G01*
X148590000Y-103300000D01*
G75*
G02*
X148490000Y-103200000I0J100000D01*
G01*
G37*
G36*
G01*
X147850000Y-103200000D02*
X147850000Y-103000000D01*
G75*
G02*
X147950000Y-102900000I100000J0D01*
G01*
X148210000Y-102900000D01*
G75*
G02*
X148310000Y-103000000I0J-100000D01*
G01*
X148310000Y-103200000D01*
G75*
G02*
X148210000Y-103300000I-100000J0D01*
G01*
X147950000Y-103300000D01*
G75*
G02*
X147850000Y-103200000I0J100000D01*
G01*
G37*
G36*
G01*
X152590000Y-95200000D02*
X152590000Y-95000000D01*
G75*
G02*
X152690000Y-94900000I100000J0D01*
G01*
X152950000Y-94900000D01*
G75*
G02*
X153050000Y-95000000I0J-100000D01*
G01*
X153050000Y-95200000D01*
G75*
G02*
X152950000Y-95300000I-100000J0D01*
G01*
X152690000Y-95300000D01*
G75*
G02*
X152590000Y-95200000I0J100000D01*
G01*
G37*
G36*
G01*
X151950000Y-95200000D02*
X151950000Y-95000000D01*
G75*
G02*
X152050000Y-94900000I100000J0D01*
G01*
X152310000Y-94900000D01*
G75*
G02*
X152410000Y-95000000I0J-100000D01*
G01*
X152410000Y-95200000D01*
G75*
G02*
X152310000Y-95300000I-100000J0D01*
G01*
X152050000Y-95300000D01*
G75*
G02*
X151950000Y-95200000I0J100000D01*
G01*
G37*
G36*
G01*
X140810000Y-103600000D02*
X140810000Y-103800000D01*
G75*
G02*
X140710000Y-103900000I-100000J0D01*
G01*
X140450000Y-103900000D01*
G75*
G02*
X140350000Y-103800000I0J100000D01*
G01*
X140350000Y-103600000D01*
G75*
G02*
X140450000Y-103500000I100000J0D01*
G01*
X140710000Y-103500000D01*
G75*
G02*
X140810000Y-103600000I0J-100000D01*
G01*
G37*
G36*
G01*
X141450000Y-103600000D02*
X141450000Y-103800000D01*
G75*
G02*
X141350000Y-103900000I-100000J0D01*
G01*
X141090000Y-103900000D01*
G75*
G02*
X140990000Y-103800000I0J100000D01*
G01*
X140990000Y-103600000D01*
G75*
G02*
X141090000Y-103500000I100000J0D01*
G01*
X141350000Y-103500000D01*
G75*
G02*
X141450000Y-103600000I0J-100000D01*
G01*
G37*
G36*
G01*
X140500000Y-102630000D02*
X140500000Y-102970000D01*
G75*
G02*
X140360000Y-103110000I-140000J0D01*
G01*
X140080000Y-103110000D01*
G75*
G02*
X139940000Y-102970000I0J140000D01*
G01*
X139940000Y-102630000D01*
G75*
G02*
X140080000Y-102490000I140000J0D01*
G01*
X140360000Y-102490000D01*
G75*
G02*
X140500000Y-102630000I0J-140000D01*
G01*
G37*
G36*
G01*
X141460000Y-102630000D02*
X141460000Y-102970000D01*
G75*
G02*
X141320000Y-103110000I-140000J0D01*
G01*
X141040000Y-103110000D01*
G75*
G02*
X140900000Y-102970000I0J140000D01*
G01*
X140900000Y-102630000D01*
G75*
G02*
X141040000Y-102490000I140000J0D01*
G01*
X141320000Y-102490000D01*
G75*
G02*
X141460000Y-102630000I0J-140000D01*
G01*
G37*
D15*
X161525000Y-119875000D03*
X161525000Y-115725000D03*
X163675000Y-119875000D03*
X163675000Y-115725000D03*
D16*
X160161547Y-94911355D03*
G36*
G01*
X163462631Y-94651403D02*
X163436456Y-95400946D01*
G75*
G02*
X163048597Y-95762631I-374772J13087D01*
G01*
X162299054Y-95736456D01*
G75*
G02*
X161937369Y-95348597I13087J374772D01*
G01*
X161963544Y-94599054D01*
G75*
G02*
X162351403Y-94237369I374772J-13087D01*
G01*
X163100946Y-94263544D01*
G75*
G02*
X163462631Y-94651403I-13087J-374772D01*
G01*
G37*
G36*
G01*
X150199760Y-88962020D02*
X149550240Y-89337020D01*
G75*
G02*
X149037980Y-89199760I-187500J324760D01*
G01*
X148662980Y-88550240D01*
G75*
G02*
X148800240Y-88037980I324760J187500D01*
G01*
X149449760Y-87662980D01*
G75*
G02*
X149962020Y-87800240I187500J-324760D01*
G01*
X150337020Y-88449760D01*
G75*
G02*
X150199760Y-88962020I-324760J-187500D01*
G01*
G37*
X148230000Y-86300295D03*
X141230000Y-88699705D03*
G36*
G01*
X142550240Y-85662980D02*
X143199760Y-86037980D01*
G75*
G02*
X143337020Y-86550240I-187500J-324760D01*
G01*
X142962020Y-87199760D01*
G75*
G02*
X142449760Y-87337020I-324760J187500D01*
G01*
X141800240Y-86962020D01*
G75*
G02*
X141662980Y-86449760I187500J324760D01*
G01*
X142037980Y-85800240D01*
G75*
G02*
X142550240Y-85662980I324760J-187500D01*
G01*
G37*
X127661547Y-94988645D03*
G36*
G01*
X130936456Y-94499054D02*
X130962631Y-95248597D01*
G75*
G02*
X130600946Y-95636456I-374772J-13087D01*
G01*
X129851403Y-95662631D01*
G75*
G02*
X129463544Y-95300946I-13087J374772D01*
G01*
X129437369Y-94551403D01*
G75*
G02*
X129799054Y-94163544I374772J13087D01*
G01*
X130548597Y-94137369D01*
G75*
G02*
X130936456Y-94499054I13087J-374772D01*
G01*
G37*
G36*
G01*
X130936456Y-92599054D02*
X130962631Y-93348597D01*
G75*
G02*
X130600946Y-93736456I-374772J-13087D01*
G01*
X129851403Y-93762631D01*
G75*
G02*
X129463544Y-93400946I-13087J374772D01*
G01*
X129437369Y-92651403D01*
G75*
G02*
X129799054Y-92263544I374772J13087D01*
G01*
X130548597Y-92237369D01*
G75*
G02*
X130936456Y-92599054I13087J-374772D01*
G01*
G37*
X127661547Y-93088645D03*
G36*
G01*
X151844760Y-87957020D02*
X151195240Y-88332020D01*
G75*
G02*
X150682980Y-88194760I-187500J324760D01*
G01*
X150307980Y-87545240D01*
G75*
G02*
X150445240Y-87032980I324760J187500D01*
G01*
X151094760Y-86657980D01*
G75*
G02*
X151607020Y-86795240I187500J-324760D01*
G01*
X151982020Y-87444760D01*
G75*
G02*
X151844760Y-87957020I-324760J-187500D01*
G01*
G37*
X149875000Y-85295295D03*
X139630000Y-87699705D03*
G36*
G01*
X140950240Y-84662980D02*
X141599760Y-85037980D01*
G75*
G02*
X141737020Y-85550240I-187500J-324760D01*
G01*
X141362020Y-86199760D01*
G75*
G02*
X140849760Y-86337020I-324760J187500D01*
G01*
X140200240Y-85962020D01*
G75*
G02*
X140062980Y-85449760I187500J324760D01*
G01*
X140437980Y-84800240D01*
G75*
G02*
X140950240Y-84662980I324760J-187500D01*
G01*
G37*
X160361547Y-93011355D03*
G36*
G01*
X163662631Y-92751403D02*
X163636456Y-93500946D01*
G75*
G02*
X163248597Y-93862631I-374772J13087D01*
G01*
X162499054Y-93836456D01*
G75*
G02*
X162137369Y-93448597I13087J374772D01*
G01*
X162163544Y-92699054D01*
G75*
G02*
X162551403Y-92337369I374772J-13087D01*
G01*
X163300946Y-92363544D01*
G75*
G02*
X163662631Y-92751403I-13087J-374772D01*
G01*
G37*
G36*
G01*
X144525000Y-102762500D02*
X144525000Y-102387500D01*
G75*
G02*
X144612500Y-102300000I87500J0D01*
G01*
X144787500Y-102300000D01*
G75*
G02*
X144875000Y-102387500I0J-87500D01*
G01*
X144875000Y-102762500D01*
G75*
G02*
X144787500Y-102850000I-87500J0D01*
G01*
X144612500Y-102850000D01*
G75*
G02*
X144525000Y-102762500I0J87500D01*
G01*
G37*
G36*
G01*
X145025000Y-102762500D02*
X145025000Y-102387500D01*
G75*
G02*
X145112500Y-102300000I87500J0D01*
G01*
X145287500Y-102300000D01*
G75*
G02*
X145375000Y-102387500I0J-87500D01*
G01*
X145375000Y-102762500D01*
G75*
G02*
X145287500Y-102850000I-87500J0D01*
G01*
X145112500Y-102850000D01*
G75*
G02*
X145025000Y-102762500I0J87500D01*
G01*
G37*
G36*
G01*
X145525000Y-102762500D02*
X145525000Y-102387500D01*
G75*
G02*
X145612500Y-102300000I87500J0D01*
G01*
X145787500Y-102300000D01*
G75*
G02*
X145875000Y-102387500I0J-87500D01*
G01*
X145875000Y-102762500D01*
G75*
G02*
X145787500Y-102850000I-87500J0D01*
G01*
X145612500Y-102850000D01*
G75*
G02*
X145525000Y-102762500I0J87500D01*
G01*
G37*
G36*
G01*
X146150000Y-102887500D02*
X146150000Y-102712500D01*
G75*
G02*
X146237500Y-102625000I87500J0D01*
G01*
X146612500Y-102625000D01*
G75*
G02*
X146700000Y-102712500I0J-87500D01*
G01*
X146700000Y-102887500D01*
G75*
G02*
X146612500Y-102975000I-87500J0D01*
G01*
X146237500Y-102975000D01*
G75*
G02*
X146150000Y-102887500I0J87500D01*
G01*
G37*
G36*
G01*
X146150000Y-103387500D02*
X146150000Y-103212500D01*
G75*
G02*
X146237500Y-103125000I87500J0D01*
G01*
X146612500Y-103125000D01*
G75*
G02*
X146700000Y-103212500I0J-87500D01*
G01*
X146700000Y-103387500D01*
G75*
G02*
X146612500Y-103475000I-87500J0D01*
G01*
X146237500Y-103475000D01*
G75*
G02*
X146150000Y-103387500I0J87500D01*
G01*
G37*
G36*
G01*
X146150000Y-103887500D02*
X146150000Y-103712500D01*
G75*
G02*
X146237500Y-103625000I87500J0D01*
G01*
X146612500Y-103625000D01*
G75*
G02*
X146700000Y-103712500I0J-87500D01*
G01*
X146700000Y-103887500D01*
G75*
G02*
X146612500Y-103975000I-87500J0D01*
G01*
X146237500Y-103975000D01*
G75*
G02*
X146150000Y-103887500I0J87500D01*
G01*
G37*
G36*
G01*
X146150000Y-104387500D02*
X146150000Y-104212500D01*
G75*
G02*
X146237500Y-104125000I87500J0D01*
G01*
X146612500Y-104125000D01*
G75*
G02*
X146700000Y-104212500I0J-87500D01*
G01*
X146700000Y-104387500D01*
G75*
G02*
X146612500Y-104475000I-87500J0D01*
G01*
X146237500Y-104475000D01*
G75*
G02*
X146150000Y-104387500I0J87500D01*
G01*
G37*
G36*
G01*
X146150000Y-104887500D02*
X146150000Y-104712500D01*
G75*
G02*
X146237500Y-104625000I87500J0D01*
G01*
X146612500Y-104625000D01*
G75*
G02*
X146700000Y-104712500I0J-87500D01*
G01*
X146700000Y-104887500D01*
G75*
G02*
X146612500Y-104975000I-87500J0D01*
G01*
X146237500Y-104975000D01*
G75*
G02*
X146150000Y-104887500I0J87500D01*
G01*
G37*
G36*
G01*
X145525000Y-105212500D02*
X145525000Y-104837500D01*
G75*
G02*
X145612500Y-104750000I87500J0D01*
G01*
X145787500Y-104750000D01*
G75*
G02*
X145875000Y-104837500I0J-87500D01*
G01*
X145875000Y-105212500D01*
G75*
G02*
X145787500Y-105300000I-87500J0D01*
G01*
X145612500Y-105300000D01*
G75*
G02*
X145525000Y-105212500I0J87500D01*
G01*
G37*
G36*
G01*
X145025000Y-105212500D02*
X145025000Y-104837500D01*
G75*
G02*
X145112500Y-104750000I87500J0D01*
G01*
X145287500Y-104750000D01*
G75*
G02*
X145375000Y-104837500I0J-87500D01*
G01*
X145375000Y-105212500D01*
G75*
G02*
X145287500Y-105300000I-87500J0D01*
G01*
X145112500Y-105300000D01*
G75*
G02*
X145025000Y-105212500I0J87500D01*
G01*
G37*
G36*
G01*
X144525000Y-105212500D02*
X144525000Y-104837500D01*
G75*
G02*
X144612500Y-104750000I87500J0D01*
G01*
X144787500Y-104750000D01*
G75*
G02*
X144875000Y-104837500I0J-87500D01*
G01*
X144875000Y-105212500D01*
G75*
G02*
X144787500Y-105300000I-87500J0D01*
G01*
X144612500Y-105300000D01*
G75*
G02*
X144525000Y-105212500I0J87500D01*
G01*
G37*
G36*
G01*
X143700000Y-104887500D02*
X143700000Y-104712500D01*
G75*
G02*
X143787500Y-104625000I87500J0D01*
G01*
X144162500Y-104625000D01*
G75*
G02*
X144250000Y-104712500I0J-87500D01*
G01*
X144250000Y-104887500D01*
G75*
G02*
X144162500Y-104975000I-87500J0D01*
G01*
X143787500Y-104975000D01*
G75*
G02*
X143700000Y-104887500I0J87500D01*
G01*
G37*
G36*
G01*
X143700000Y-104387500D02*
X143700000Y-104212500D01*
G75*
G02*
X143787500Y-104125000I87500J0D01*
G01*
X144162500Y-104125000D01*
G75*
G02*
X144250000Y-104212500I0J-87500D01*
G01*
X144250000Y-104387500D01*
G75*
G02*
X144162500Y-104475000I-87500J0D01*
G01*
X143787500Y-104475000D01*
G75*
G02*
X143700000Y-104387500I0J87500D01*
G01*
G37*
G36*
G01*
X143700000Y-103887500D02*
X143700000Y-103712500D01*
G75*
G02*
X143787500Y-103625000I87500J0D01*
G01*
X144162500Y-103625000D01*
G75*
G02*
X144250000Y-103712500I0J-87500D01*
G01*
X144250000Y-103887500D01*
G75*
G02*
X144162500Y-103975000I-87500J0D01*
G01*
X143787500Y-103975000D01*
G75*
G02*
X143700000Y-103887500I0J87500D01*
G01*
G37*
G36*
G01*
X143700000Y-103387500D02*
X143700000Y-103212500D01*
G75*
G02*
X143787500Y-103125000I87500J0D01*
G01*
X144162500Y-103125000D01*
G75*
G02*
X144250000Y-103212500I0J-87500D01*
G01*
X144250000Y-103387500D01*
G75*
G02*
X144162500Y-103475000I-87500J0D01*
G01*
X143787500Y-103475000D01*
G75*
G02*
X143700000Y-103387500I0J87500D01*
G01*
G37*
G36*
G01*
X143700000Y-102887500D02*
X143700000Y-102712500D01*
G75*
G02*
X143787500Y-102625000I87500J0D01*
G01*
X144162500Y-102625000D01*
G75*
G02*
X144250000Y-102712500I0J-87500D01*
G01*
X144250000Y-102887500D01*
G75*
G02*
X144162500Y-102975000I-87500J0D01*
G01*
X143787500Y-102975000D01*
G75*
G02*
X143700000Y-102887500I0J87500D01*
G01*
G37*
G36*
G01*
X142425000Y-93137500D02*
X142425000Y-92387500D01*
G75*
G02*
X142487500Y-92325000I62500J0D01*
G01*
X142612500Y-92325000D01*
G75*
G02*
X142675000Y-92387500I0J-62500D01*
G01*
X142675000Y-93137500D01*
G75*
G02*
X142612500Y-93200000I-62500J0D01*
G01*
X142487500Y-93200000D01*
G75*
G02*
X142425000Y-93137500I0J62500D01*
G01*
G37*
G36*
G01*
X142925000Y-93137500D02*
X142925000Y-92387500D01*
G75*
G02*
X142987500Y-92325000I62500J0D01*
G01*
X143112500Y-92325000D01*
G75*
G02*
X143175000Y-92387500I0J-62500D01*
G01*
X143175000Y-93137500D01*
G75*
G02*
X143112500Y-93200000I-62500J0D01*
G01*
X142987500Y-93200000D01*
G75*
G02*
X142925000Y-93137500I0J62500D01*
G01*
G37*
G36*
G01*
X143425000Y-93137500D02*
X143425000Y-92387500D01*
G75*
G02*
X143487500Y-92325000I62500J0D01*
G01*
X143612500Y-92325000D01*
G75*
G02*
X143675000Y-92387500I0J-62500D01*
G01*
X143675000Y-93137500D01*
G75*
G02*
X143612500Y-93200000I-62500J0D01*
G01*
X143487500Y-93200000D01*
G75*
G02*
X143425000Y-93137500I0J62500D01*
G01*
G37*
G36*
G01*
X143925000Y-93137500D02*
X143925000Y-92387500D01*
G75*
G02*
X143987500Y-92325000I62500J0D01*
G01*
X144112500Y-92325000D01*
G75*
G02*
X144175000Y-92387500I0J-62500D01*
G01*
X144175000Y-93137500D01*
G75*
G02*
X144112500Y-93200000I-62500J0D01*
G01*
X143987500Y-93200000D01*
G75*
G02*
X143925000Y-93137500I0J62500D01*
G01*
G37*
G36*
G01*
X144425000Y-93137500D02*
X144425000Y-92387500D01*
G75*
G02*
X144487500Y-92325000I62500J0D01*
G01*
X144612500Y-92325000D01*
G75*
G02*
X144675000Y-92387500I0J-62500D01*
G01*
X144675000Y-93137500D01*
G75*
G02*
X144612500Y-93200000I-62500J0D01*
G01*
X144487500Y-93200000D01*
G75*
G02*
X144425000Y-93137500I0J62500D01*
G01*
G37*
G36*
G01*
X144925000Y-93137500D02*
X144925000Y-92387500D01*
G75*
G02*
X144987500Y-92325000I62500J0D01*
G01*
X145112500Y-92325000D01*
G75*
G02*
X145175000Y-92387500I0J-62500D01*
G01*
X145175000Y-93137500D01*
G75*
G02*
X145112500Y-93200000I-62500J0D01*
G01*
X144987500Y-93200000D01*
G75*
G02*
X144925000Y-93137500I0J62500D01*
G01*
G37*
G36*
G01*
X145425000Y-93137500D02*
X145425000Y-92387500D01*
G75*
G02*
X145487500Y-92325000I62500J0D01*
G01*
X145612500Y-92325000D01*
G75*
G02*
X145675000Y-92387500I0J-62500D01*
G01*
X145675000Y-93137500D01*
G75*
G02*
X145612500Y-93200000I-62500J0D01*
G01*
X145487500Y-93200000D01*
G75*
G02*
X145425000Y-93137500I0J62500D01*
G01*
G37*
G36*
G01*
X145925000Y-93137500D02*
X145925000Y-92387500D01*
G75*
G02*
X145987500Y-92325000I62500J0D01*
G01*
X146112500Y-92325000D01*
G75*
G02*
X146175000Y-92387500I0J-62500D01*
G01*
X146175000Y-93137500D01*
G75*
G02*
X146112500Y-93200000I-62500J0D01*
G01*
X145987500Y-93200000D01*
G75*
G02*
X145925000Y-93137500I0J62500D01*
G01*
G37*
G36*
G01*
X146425000Y-93137500D02*
X146425000Y-92387500D01*
G75*
G02*
X146487500Y-92325000I62500J0D01*
G01*
X146612500Y-92325000D01*
G75*
G02*
X146675000Y-92387500I0J-62500D01*
G01*
X146675000Y-93137500D01*
G75*
G02*
X146612500Y-93200000I-62500J0D01*
G01*
X146487500Y-93200000D01*
G75*
G02*
X146425000Y-93137500I0J62500D01*
G01*
G37*
G36*
G01*
X146925000Y-93137500D02*
X146925000Y-92387500D01*
G75*
G02*
X146987500Y-92325000I62500J0D01*
G01*
X147112500Y-92325000D01*
G75*
G02*
X147175000Y-92387500I0J-62500D01*
G01*
X147175000Y-93137500D01*
G75*
G02*
X147112500Y-93200000I-62500J0D01*
G01*
X146987500Y-93200000D01*
G75*
G02*
X146925000Y-93137500I0J62500D01*
G01*
G37*
G36*
G01*
X147425000Y-93137500D02*
X147425000Y-92387500D01*
G75*
G02*
X147487500Y-92325000I62500J0D01*
G01*
X147612500Y-92325000D01*
G75*
G02*
X147675000Y-92387500I0J-62500D01*
G01*
X147675000Y-93137500D01*
G75*
G02*
X147612500Y-93200000I-62500J0D01*
G01*
X147487500Y-93200000D01*
G75*
G02*
X147425000Y-93137500I0J62500D01*
G01*
G37*
G36*
G01*
X147925000Y-93137500D02*
X147925000Y-92387500D01*
G75*
G02*
X147987500Y-92325000I62500J0D01*
G01*
X148112500Y-92325000D01*
G75*
G02*
X148175000Y-92387500I0J-62500D01*
G01*
X148175000Y-93137500D01*
G75*
G02*
X148112500Y-93200000I-62500J0D01*
G01*
X147987500Y-93200000D01*
G75*
G02*
X147925000Y-93137500I0J62500D01*
G01*
G37*
G36*
G01*
X148300000Y-93512500D02*
X148300000Y-93387500D01*
G75*
G02*
X148362500Y-93325000I62500J0D01*
G01*
X149112500Y-93325000D01*
G75*
G02*
X149175000Y-93387500I0J-62500D01*
G01*
X149175000Y-93512500D01*
G75*
G02*
X149112500Y-93575000I-62500J0D01*
G01*
X148362500Y-93575000D01*
G75*
G02*
X148300000Y-93512500I0J62500D01*
G01*
G37*
G36*
G01*
X148300000Y-94012500D02*
X148300000Y-93887500D01*
G75*
G02*
X148362500Y-93825000I62500J0D01*
G01*
X149112500Y-93825000D01*
G75*
G02*
X149175000Y-93887500I0J-62500D01*
G01*
X149175000Y-94012500D01*
G75*
G02*
X149112500Y-94075000I-62500J0D01*
G01*
X148362500Y-94075000D01*
G75*
G02*
X148300000Y-94012500I0J62500D01*
G01*
G37*
G36*
G01*
X148300000Y-94512500D02*
X148300000Y-94387500D01*
G75*
G02*
X148362500Y-94325000I62500J0D01*
G01*
X149112500Y-94325000D01*
G75*
G02*
X149175000Y-94387500I0J-62500D01*
G01*
X149175000Y-94512500D01*
G75*
G02*
X149112500Y-94575000I-62500J0D01*
G01*
X148362500Y-94575000D01*
G75*
G02*
X148300000Y-94512500I0J62500D01*
G01*
G37*
G36*
G01*
X148300000Y-95012500D02*
X148300000Y-94887500D01*
G75*
G02*
X148362500Y-94825000I62500J0D01*
G01*
X149112500Y-94825000D01*
G75*
G02*
X149175000Y-94887500I0J-62500D01*
G01*
X149175000Y-95012500D01*
G75*
G02*
X149112500Y-95075000I-62500J0D01*
G01*
X148362500Y-95075000D01*
G75*
G02*
X148300000Y-95012500I0J62500D01*
G01*
G37*
G36*
G01*
X148300000Y-95512500D02*
X148300000Y-95387500D01*
G75*
G02*
X148362500Y-95325000I62500J0D01*
G01*
X149112500Y-95325000D01*
G75*
G02*
X149175000Y-95387500I0J-62500D01*
G01*
X149175000Y-95512500D01*
G75*
G02*
X149112500Y-95575000I-62500J0D01*
G01*
X148362500Y-95575000D01*
G75*
G02*
X148300000Y-95512500I0J62500D01*
G01*
G37*
G36*
G01*
X148300000Y-96012500D02*
X148300000Y-95887500D01*
G75*
G02*
X148362500Y-95825000I62500J0D01*
G01*
X149112500Y-95825000D01*
G75*
G02*
X149175000Y-95887500I0J-62500D01*
G01*
X149175000Y-96012500D01*
G75*
G02*
X149112500Y-96075000I-62500J0D01*
G01*
X148362500Y-96075000D01*
G75*
G02*
X148300000Y-96012500I0J62500D01*
G01*
G37*
G36*
G01*
X148300000Y-96512500D02*
X148300000Y-96387500D01*
G75*
G02*
X148362500Y-96325000I62500J0D01*
G01*
X149112500Y-96325000D01*
G75*
G02*
X149175000Y-96387500I0J-62500D01*
G01*
X149175000Y-96512500D01*
G75*
G02*
X149112500Y-96575000I-62500J0D01*
G01*
X148362500Y-96575000D01*
G75*
G02*
X148300000Y-96512500I0J62500D01*
G01*
G37*
G36*
G01*
X148300000Y-97012500D02*
X148300000Y-96887500D01*
G75*
G02*
X148362500Y-96825000I62500J0D01*
G01*
X149112500Y-96825000D01*
G75*
G02*
X149175000Y-96887500I0J-62500D01*
G01*
X149175000Y-97012500D01*
G75*
G02*
X149112500Y-97075000I-62500J0D01*
G01*
X148362500Y-97075000D01*
G75*
G02*
X148300000Y-97012500I0J62500D01*
G01*
G37*
G36*
G01*
X148300000Y-97512500D02*
X148300000Y-97387500D01*
G75*
G02*
X148362500Y-97325000I62500J0D01*
G01*
X149112500Y-97325000D01*
G75*
G02*
X149175000Y-97387500I0J-62500D01*
G01*
X149175000Y-97512500D01*
G75*
G02*
X149112500Y-97575000I-62500J0D01*
G01*
X148362500Y-97575000D01*
G75*
G02*
X148300000Y-97512500I0J62500D01*
G01*
G37*
G36*
G01*
X148300000Y-98012500D02*
X148300000Y-97887500D01*
G75*
G02*
X148362500Y-97825000I62500J0D01*
G01*
X149112500Y-97825000D01*
G75*
G02*
X149175000Y-97887500I0J-62500D01*
G01*
X149175000Y-98012500D01*
G75*
G02*
X149112500Y-98075000I-62500J0D01*
G01*
X148362500Y-98075000D01*
G75*
G02*
X148300000Y-98012500I0J62500D01*
G01*
G37*
G36*
G01*
X148300000Y-98512500D02*
X148300000Y-98387500D01*
G75*
G02*
X148362500Y-98325000I62500J0D01*
G01*
X149112500Y-98325000D01*
G75*
G02*
X149175000Y-98387500I0J-62500D01*
G01*
X149175000Y-98512500D01*
G75*
G02*
X149112500Y-98575000I-62500J0D01*
G01*
X148362500Y-98575000D01*
G75*
G02*
X148300000Y-98512500I0J62500D01*
G01*
G37*
G36*
G01*
X148300000Y-99012500D02*
X148300000Y-98887500D01*
G75*
G02*
X148362500Y-98825000I62500J0D01*
G01*
X149112500Y-98825000D01*
G75*
G02*
X149175000Y-98887500I0J-62500D01*
G01*
X149175000Y-99012500D01*
G75*
G02*
X149112500Y-99075000I-62500J0D01*
G01*
X148362500Y-99075000D01*
G75*
G02*
X148300000Y-99012500I0J62500D01*
G01*
G37*
G36*
G01*
X147925000Y-100012500D02*
X147925000Y-99262500D01*
G75*
G02*
X147987500Y-99200000I62500J0D01*
G01*
X148112500Y-99200000D01*
G75*
G02*
X148175000Y-99262500I0J-62500D01*
G01*
X148175000Y-100012500D01*
G75*
G02*
X148112500Y-100075000I-62500J0D01*
G01*
X147987500Y-100075000D01*
G75*
G02*
X147925000Y-100012500I0J62500D01*
G01*
G37*
G36*
G01*
X147425000Y-100012500D02*
X147425000Y-99262500D01*
G75*
G02*
X147487500Y-99200000I62500J0D01*
G01*
X147612500Y-99200000D01*
G75*
G02*
X147675000Y-99262500I0J-62500D01*
G01*
X147675000Y-100012500D01*
G75*
G02*
X147612500Y-100075000I-62500J0D01*
G01*
X147487500Y-100075000D01*
G75*
G02*
X147425000Y-100012500I0J62500D01*
G01*
G37*
G36*
G01*
X146925000Y-100012500D02*
X146925000Y-99262500D01*
G75*
G02*
X146987500Y-99200000I62500J0D01*
G01*
X147112500Y-99200000D01*
G75*
G02*
X147175000Y-99262500I0J-62500D01*
G01*
X147175000Y-100012500D01*
G75*
G02*
X147112500Y-100075000I-62500J0D01*
G01*
X146987500Y-100075000D01*
G75*
G02*
X146925000Y-100012500I0J62500D01*
G01*
G37*
G36*
G01*
X146425000Y-100012500D02*
X146425000Y-99262500D01*
G75*
G02*
X146487500Y-99200000I62500J0D01*
G01*
X146612500Y-99200000D01*
G75*
G02*
X146675000Y-99262500I0J-62500D01*
G01*
X146675000Y-100012500D01*
G75*
G02*
X146612500Y-100075000I-62500J0D01*
G01*
X146487500Y-100075000D01*
G75*
G02*
X146425000Y-100012500I0J62500D01*
G01*
G37*
G36*
G01*
X145925000Y-100012500D02*
X145925000Y-99262500D01*
G75*
G02*
X145987500Y-99200000I62500J0D01*
G01*
X146112500Y-99200000D01*
G75*
G02*
X146175000Y-99262500I0J-62500D01*
G01*
X146175000Y-100012500D01*
G75*
G02*
X146112500Y-100075000I-62500J0D01*
G01*
X145987500Y-100075000D01*
G75*
G02*
X145925000Y-100012500I0J62500D01*
G01*
G37*
G36*
G01*
X145425000Y-100012500D02*
X145425000Y-99262500D01*
G75*
G02*
X145487500Y-99200000I62500J0D01*
G01*
X145612500Y-99200000D01*
G75*
G02*
X145675000Y-99262500I0J-62500D01*
G01*
X145675000Y-100012500D01*
G75*
G02*
X145612500Y-100075000I-62500J0D01*
G01*
X145487500Y-100075000D01*
G75*
G02*
X145425000Y-100012500I0J62500D01*
G01*
G37*
G36*
G01*
X144925000Y-100012500D02*
X144925000Y-99262500D01*
G75*
G02*
X144987500Y-99200000I62500J0D01*
G01*
X145112500Y-99200000D01*
G75*
G02*
X145175000Y-99262500I0J-62500D01*
G01*
X145175000Y-100012500D01*
G75*
G02*
X145112500Y-100075000I-62500J0D01*
G01*
X144987500Y-100075000D01*
G75*
G02*
X144925000Y-100012500I0J62500D01*
G01*
G37*
G36*
G01*
X144425000Y-100012500D02*
X144425000Y-99262500D01*
G75*
G02*
X144487500Y-99200000I62500J0D01*
G01*
X144612500Y-99200000D01*
G75*
G02*
X144675000Y-99262500I0J-62500D01*
G01*
X144675000Y-100012500D01*
G75*
G02*
X144612500Y-100075000I-62500J0D01*
G01*
X144487500Y-100075000D01*
G75*
G02*
X144425000Y-100012500I0J62500D01*
G01*
G37*
G36*
G01*
X143925000Y-100012500D02*
X143925000Y-99262500D01*
G75*
G02*
X143987500Y-99200000I62500J0D01*
G01*
X144112500Y-99200000D01*
G75*
G02*
X144175000Y-99262500I0J-62500D01*
G01*
X144175000Y-100012500D01*
G75*
G02*
X144112500Y-100075000I-62500J0D01*
G01*
X143987500Y-100075000D01*
G75*
G02*
X143925000Y-100012500I0J62500D01*
G01*
G37*
G36*
G01*
X143425000Y-100012500D02*
X143425000Y-99262500D01*
G75*
G02*
X143487500Y-99200000I62500J0D01*
G01*
X143612500Y-99200000D01*
G75*
G02*
X143675000Y-99262500I0J-62500D01*
G01*
X143675000Y-100012500D01*
G75*
G02*
X143612500Y-100075000I-62500J0D01*
G01*
X143487500Y-100075000D01*
G75*
G02*
X143425000Y-100012500I0J62500D01*
G01*
G37*
G36*
G01*
X142925000Y-100012500D02*
X142925000Y-99262500D01*
G75*
G02*
X142987500Y-99200000I62500J0D01*
G01*
X143112500Y-99200000D01*
G75*
G02*
X143175000Y-99262500I0J-62500D01*
G01*
X143175000Y-100012500D01*
G75*
G02*
X143112500Y-100075000I-62500J0D01*
G01*
X142987500Y-100075000D01*
G75*
G02*
X142925000Y-100012500I0J62500D01*
G01*
G37*
G36*
G01*
X142425000Y-100012500D02*
X142425000Y-99262500D01*
G75*
G02*
X142487500Y-99200000I62500J0D01*
G01*
X142612500Y-99200000D01*
G75*
G02*
X142675000Y-99262500I0J-62500D01*
G01*
X142675000Y-100012500D01*
G75*
G02*
X142612500Y-100075000I-62500J0D01*
G01*
X142487500Y-100075000D01*
G75*
G02*
X142425000Y-100012500I0J62500D01*
G01*
G37*
G36*
G01*
X141425000Y-99012500D02*
X141425000Y-98887500D01*
G75*
G02*
X141487500Y-98825000I62500J0D01*
G01*
X142237500Y-98825000D01*
G75*
G02*
X142300000Y-98887500I0J-62500D01*
G01*
X142300000Y-99012500D01*
G75*
G02*
X142237500Y-99075000I-62500J0D01*
G01*
X141487500Y-99075000D01*
G75*
G02*
X141425000Y-99012500I0J62500D01*
G01*
G37*
G36*
G01*
X141425000Y-98512500D02*
X141425000Y-98387500D01*
G75*
G02*
X141487500Y-98325000I62500J0D01*
G01*
X142237500Y-98325000D01*
G75*
G02*
X142300000Y-98387500I0J-62500D01*
G01*
X142300000Y-98512500D01*
G75*
G02*
X142237500Y-98575000I-62500J0D01*
G01*
X141487500Y-98575000D01*
G75*
G02*
X141425000Y-98512500I0J62500D01*
G01*
G37*
G36*
G01*
X141425000Y-98012500D02*
X141425000Y-97887500D01*
G75*
G02*
X141487500Y-97825000I62500J0D01*
G01*
X142237500Y-97825000D01*
G75*
G02*
X142300000Y-97887500I0J-62500D01*
G01*
X142300000Y-98012500D01*
G75*
G02*
X142237500Y-98075000I-62500J0D01*
G01*
X141487500Y-98075000D01*
G75*
G02*
X141425000Y-98012500I0J62500D01*
G01*
G37*
G36*
G01*
X141425000Y-97512500D02*
X141425000Y-97387500D01*
G75*
G02*
X141487500Y-97325000I62500J0D01*
G01*
X142237500Y-97325000D01*
G75*
G02*
X142300000Y-97387500I0J-62500D01*
G01*
X142300000Y-97512500D01*
G75*
G02*
X142237500Y-97575000I-62500J0D01*
G01*
X141487500Y-97575000D01*
G75*
G02*
X141425000Y-97512500I0J62500D01*
G01*
G37*
G36*
G01*
X141425000Y-97012500D02*
X141425000Y-96887500D01*
G75*
G02*
X141487500Y-96825000I62500J0D01*
G01*
X142237500Y-96825000D01*
G75*
G02*
X142300000Y-96887500I0J-62500D01*
G01*
X142300000Y-97012500D01*
G75*
G02*
X142237500Y-97075000I-62500J0D01*
G01*
X141487500Y-97075000D01*
G75*
G02*
X141425000Y-97012500I0J62500D01*
G01*
G37*
G36*
G01*
X141425000Y-96512500D02*
X141425000Y-96387500D01*
G75*
G02*
X141487500Y-96325000I62500J0D01*
G01*
X142237500Y-96325000D01*
G75*
G02*
X142300000Y-96387500I0J-62500D01*
G01*
X142300000Y-96512500D01*
G75*
G02*
X142237500Y-96575000I-62500J0D01*
G01*
X141487500Y-96575000D01*
G75*
G02*
X141425000Y-96512500I0J62500D01*
G01*
G37*
G36*
G01*
X141425000Y-96012500D02*
X141425000Y-95887500D01*
G75*
G02*
X141487500Y-95825000I62500J0D01*
G01*
X142237500Y-95825000D01*
G75*
G02*
X142300000Y-95887500I0J-62500D01*
G01*
X142300000Y-96012500D01*
G75*
G02*
X142237500Y-96075000I-62500J0D01*
G01*
X141487500Y-96075000D01*
G75*
G02*
X141425000Y-96012500I0J62500D01*
G01*
G37*
G36*
G01*
X141425000Y-95512500D02*
X141425000Y-95387500D01*
G75*
G02*
X141487500Y-95325000I62500J0D01*
G01*
X142237500Y-95325000D01*
G75*
G02*
X142300000Y-95387500I0J-62500D01*
G01*
X142300000Y-95512500D01*
G75*
G02*
X142237500Y-95575000I-62500J0D01*
G01*
X141487500Y-95575000D01*
G75*
G02*
X141425000Y-95512500I0J62500D01*
G01*
G37*
G36*
G01*
X141425000Y-95012500D02*
X141425000Y-94887500D01*
G75*
G02*
X141487500Y-94825000I62500J0D01*
G01*
X142237500Y-94825000D01*
G75*
G02*
X142300000Y-94887500I0J-62500D01*
G01*
X142300000Y-95012500D01*
G75*
G02*
X142237500Y-95075000I-62500J0D01*
G01*
X141487500Y-95075000D01*
G75*
G02*
X141425000Y-95012500I0J62500D01*
G01*
G37*
G36*
G01*
X141425000Y-94512500D02*
X141425000Y-94387500D01*
G75*
G02*
X141487500Y-94325000I62500J0D01*
G01*
X142237500Y-94325000D01*
G75*
G02*
X142300000Y-94387500I0J-62500D01*
G01*
X142300000Y-94512500D01*
G75*
G02*
X142237500Y-94575000I-62500J0D01*
G01*
X141487500Y-94575000D01*
G75*
G02*
X141425000Y-94512500I0J62500D01*
G01*
G37*
G36*
G01*
X141425000Y-94012500D02*
X141425000Y-93887500D01*
G75*
G02*
X141487500Y-93825000I62500J0D01*
G01*
X142237500Y-93825000D01*
G75*
G02*
X142300000Y-93887500I0J-62500D01*
G01*
X142300000Y-94012500D01*
G75*
G02*
X142237500Y-94075000I-62500J0D01*
G01*
X141487500Y-94075000D01*
G75*
G02*
X141425000Y-94012500I0J62500D01*
G01*
G37*
G36*
G01*
X141425000Y-93512500D02*
X141425000Y-93387500D01*
G75*
G02*
X141487500Y-93325000I62500J0D01*
G01*
X142237500Y-93325000D01*
G75*
G02*
X142300000Y-93387500I0J-62500D01*
G01*
X142300000Y-93512500D01*
G75*
G02*
X142237500Y-93575000I-62500J0D01*
G01*
X141487500Y-93575000D01*
G75*
G02*
X141425000Y-93512500I0J62500D01*
G01*
G37*
D17*
X148800000Y-106735000D03*
X151000000Y-106800000D03*
X141990000Y-106670000D03*
X139850000Y-106690000D03*
D18*
X148500000Y-117900000D03*
X147550000Y-115900000D03*
X149450000Y-115900000D03*
D19*
X129330000Y-119835000D03*
X131330000Y-118885000D03*
X131330000Y-120785000D03*
D20*
X152700000Y-114100000D03*
X152700000Y-118100000D03*
D21*
X149160000Y-122360000D03*
X146620000Y-122360000D03*
X144080000Y-122360000D03*
D22*
X141540000Y-122360000D03*
G36*
G01*
X138375000Y-101950000D02*
X137925000Y-101950000D01*
G75*
G02*
X137800000Y-101825000I0J125000D01*
G01*
X137800000Y-101575000D01*
G75*
G02*
X137925000Y-101450000I125000J0D01*
G01*
X138375000Y-101450000D01*
G75*
G02*
X138500000Y-101575000I0J-125000D01*
G01*
X138500000Y-101825000D01*
G75*
G02*
X138375000Y-101950000I-125000J0D01*
G01*
G37*
G36*
G01*
X138375000Y-103950000D02*
X137925000Y-103950000D01*
G75*
G02*
X137800000Y-103825000I0J125000D01*
G01*
X137800000Y-103575000D01*
G75*
G02*
X137925000Y-103450000I125000J0D01*
G01*
X138375000Y-103450000D01*
G75*
G02*
X138500000Y-103575000I0J-125000D01*
G01*
X138500000Y-103825000D01*
G75*
G02*
X138375000Y-103950000I-125000J0D01*
G01*
G37*
G36*
G01*
X138375000Y-105950000D02*
X137925000Y-105950000D01*
G75*
G02*
X137800000Y-105825000I0J125000D01*
G01*
X137800000Y-105575000D01*
G75*
G02*
X137925000Y-105450000I125000J0D01*
G01*
X138375000Y-105450000D01*
G75*
G02*
X138500000Y-105575000I0J-125000D01*
G01*
X138500000Y-105825000D01*
G75*
G02*
X138375000Y-105950000I-125000J0D01*
G01*
G37*
G36*
G01*
X136445000Y-105440000D02*
X136895000Y-105440000D01*
G75*
G02*
X137020000Y-105565000I0J-125000D01*
G01*
X137020000Y-105815000D01*
G75*
G02*
X136895000Y-105940000I-125000J0D01*
G01*
X136445000Y-105940000D01*
G75*
G02*
X136320000Y-105815000I0J125000D01*
G01*
X136320000Y-105565000D01*
G75*
G02*
X136445000Y-105440000I125000J0D01*
G01*
G37*
G36*
G01*
X136445000Y-103440000D02*
X136895000Y-103440000D01*
G75*
G02*
X137020000Y-103565000I0J-125000D01*
G01*
X137020000Y-103815000D01*
G75*
G02*
X136895000Y-103940000I-125000J0D01*
G01*
X136445000Y-103940000D01*
G75*
G02*
X136320000Y-103815000I0J125000D01*
G01*
X136320000Y-103565000D01*
G75*
G02*
X136445000Y-103440000I125000J0D01*
G01*
G37*
G36*
G01*
X136445000Y-101440000D02*
X136895000Y-101440000D01*
G75*
G02*
X137020000Y-101565000I0J-125000D01*
G01*
X137020000Y-101815000D01*
G75*
G02*
X136895000Y-101940000I-125000J0D01*
G01*
X136445000Y-101940000D01*
G75*
G02*
X136320000Y-101815000I0J125000D01*
G01*
X136320000Y-101565000D01*
G75*
G02*
X136445000Y-101440000I125000J0D01*
G01*
G37*
G36*
G01*
X138495000Y-133915000D02*
X138495000Y-133465000D01*
G75*
G02*
X138620000Y-133340000I125000J0D01*
G01*
X138870000Y-133340000D01*
G75*
G02*
X138995000Y-133465000I0J-125000D01*
G01*
X138995000Y-133915000D01*
G75*
G02*
X138870000Y-134040000I-125000J0D01*
G01*
X138620000Y-134040000D01*
G75*
G02*
X138495000Y-133915000I0J125000D01*
G01*
G37*
G36*
G01*
X140495000Y-133915000D02*
X140495000Y-133465000D01*
G75*
G02*
X140620000Y-133340000I125000J0D01*
G01*
X140870000Y-133340000D01*
G75*
G02*
X140995000Y-133465000I0J-125000D01*
G01*
X140995000Y-133915000D01*
G75*
G02*
X140870000Y-134040000I-125000J0D01*
G01*
X140620000Y-134040000D01*
G75*
G02*
X140495000Y-133915000I0J125000D01*
G01*
G37*
G36*
G01*
X142495000Y-133915000D02*
X142495000Y-133465000D01*
G75*
G02*
X142620000Y-133340000I125000J0D01*
G01*
X142870000Y-133340000D01*
G75*
G02*
X142995000Y-133465000I0J-125000D01*
G01*
X142995000Y-133915000D01*
G75*
G02*
X142870000Y-134040000I-125000J0D01*
G01*
X142620000Y-134040000D01*
G75*
G02*
X142495000Y-133915000I0J125000D01*
G01*
G37*
G36*
G01*
X154075000Y-101950000D02*
X153625000Y-101950000D01*
G75*
G02*
X153500000Y-101825000I0J125000D01*
G01*
X153500000Y-101575000D01*
G75*
G02*
X153625000Y-101450000I125000J0D01*
G01*
X154075000Y-101450000D01*
G75*
G02*
X154200000Y-101575000I0J-125000D01*
G01*
X154200000Y-101825000D01*
G75*
G02*
X154075000Y-101950000I-125000J0D01*
G01*
G37*
G36*
G01*
X154075000Y-103950000D02*
X153625000Y-103950000D01*
G75*
G02*
X153500000Y-103825000I0J125000D01*
G01*
X153500000Y-103575000D01*
G75*
G02*
X153625000Y-103450000I125000J0D01*
G01*
X154075000Y-103450000D01*
G75*
G02*
X154200000Y-103575000I0J-125000D01*
G01*
X154200000Y-103825000D01*
G75*
G02*
X154075000Y-103950000I-125000J0D01*
G01*
G37*
G36*
G01*
X154075000Y-105950000D02*
X153625000Y-105950000D01*
G75*
G02*
X153500000Y-105825000I0J125000D01*
G01*
X153500000Y-105575000D01*
G75*
G02*
X153625000Y-105450000I125000J0D01*
G01*
X154075000Y-105450000D01*
G75*
G02*
X154200000Y-105575000I0J-125000D01*
G01*
X154200000Y-105825000D01*
G75*
G02*
X154075000Y-105950000I-125000J0D01*
G01*
G37*
G36*
G01*
X151500000Y-133915000D02*
X151500000Y-133465000D01*
G75*
G02*
X151625000Y-133340000I125000J0D01*
G01*
X151875000Y-133340000D01*
G75*
G02*
X152000000Y-133465000I0J-125000D01*
G01*
X152000000Y-133915000D01*
G75*
G02*
X151875000Y-134040000I-125000J0D01*
G01*
X151625000Y-134040000D01*
G75*
G02*
X151500000Y-133915000I0J125000D01*
G01*
G37*
G36*
G01*
X149500000Y-133915000D02*
X149500000Y-133465000D01*
G75*
G02*
X149625000Y-133340000I125000J0D01*
G01*
X149875000Y-133340000D01*
G75*
G02*
X150000000Y-133465000I0J-125000D01*
G01*
X150000000Y-133915000D01*
G75*
G02*
X149875000Y-134040000I-125000J0D01*
G01*
X149625000Y-134040000D01*
G75*
G02*
X149500000Y-133915000I0J125000D01*
G01*
G37*
G36*
G01*
X147500000Y-133915000D02*
X147500000Y-133465000D01*
G75*
G02*
X147625000Y-133340000I125000J0D01*
G01*
X147875000Y-133340000D01*
G75*
G02*
X148000000Y-133465000I0J-125000D01*
G01*
X148000000Y-133915000D01*
G75*
G02*
X147875000Y-134040000I-125000J0D01*
G01*
X147625000Y-134040000D01*
G75*
G02*
X147500000Y-133915000I0J125000D01*
G01*
G37*
D23*
X128175000Y-114675000D03*
G36*
G01*
X129875000Y-114200000D02*
X129875000Y-115150000D01*
G75*
G02*
X129650000Y-115375000I-225000J0D01*
G01*
X129200000Y-115375000D01*
G75*
G02*
X128975000Y-115150000I0J225000D01*
G01*
X128975000Y-114200000D01*
G75*
G02*
X129200000Y-113975000I225000J0D01*
G01*
X129650000Y-113975000D01*
G75*
G02*
X129875000Y-114200000I0J-225000D01*
G01*
G37*
G36*
G01*
X152125000Y-105450000D02*
X152575000Y-105450000D01*
G75*
G02*
X152700000Y-105575000I0J-125000D01*
G01*
X152700000Y-105825000D01*
G75*
G02*
X152575000Y-105950000I-125000J0D01*
G01*
X152125000Y-105950000D01*
G75*
G02*
X152000000Y-105825000I0J125000D01*
G01*
X152000000Y-105575000D01*
G75*
G02*
X152125000Y-105450000I125000J0D01*
G01*
G37*
G36*
G01*
X152125000Y-103450000D02*
X152575000Y-103450000D01*
G75*
G02*
X152700000Y-103575000I0J-125000D01*
G01*
X152700000Y-103825000D01*
G75*
G02*
X152575000Y-103950000I-125000J0D01*
G01*
X152125000Y-103950000D01*
G75*
G02*
X152000000Y-103825000I0J125000D01*
G01*
X152000000Y-103575000D01*
G75*
G02*
X152125000Y-103450000I125000J0D01*
G01*
G37*
G36*
G01*
X152125000Y-101450000D02*
X152575000Y-101450000D01*
G75*
G02*
X152700000Y-101575000I0J-125000D01*
G01*
X152700000Y-101825000D01*
G75*
G02*
X152575000Y-101950000I-125000J0D01*
G01*
X152125000Y-101950000D01*
G75*
G02*
X152000000Y-101825000I0J125000D01*
G01*
X152000000Y-101575000D01*
G75*
G02*
X152125000Y-101450000I125000J0D01*
G01*
G37*
M02*
