G04 #@! TF.GenerationSoftware,KiCad,Pcbnew,(5.1.7)-1*
G04 #@! TF.CreationDate,2021-06-03T00:57:12+09:00*
G04 #@! TF.ProjectId,lapis,6c617069-732e-46b6-9963-61645f706362,rev?*
G04 #@! TF.SameCoordinates,Original*
G04 #@! TF.FileFunction,Paste,Bot*
G04 #@! TF.FilePolarity,Positive*
%FSLAX46Y46*%
G04 Gerber Fmt 4.6, Leading zero omitted, Abs format (unit mm)*
G04 Created by KiCad (PCBNEW (5.1.7)-1) date 2021-06-03 00:57:12*
%MOMM*%
%LPD*%
G01*
G04 APERTURE LIST*
G04 APERTURE END LIST*
G36*
G01*
X140906000Y-129710500D02*
X140906000Y-129509500D01*
G75*
G02*
X140985500Y-129430000I79500J0D01*
G01*
X141144500Y-129430000D01*
G75*
G02*
X141224000Y-129509500I0J-79500D01*
G01*
X141224000Y-129710500D01*
G75*
G02*
X141144500Y-129790000I-79500J0D01*
G01*
X140985500Y-129790000D01*
G75*
G02*
X140906000Y-129710500I0J79500D01*
G01*
G37*
G36*
G01*
X140216000Y-129710500D02*
X140216000Y-129509500D01*
G75*
G02*
X140295500Y-129430000I79500J0D01*
G01*
X140454500Y-129430000D01*
G75*
G02*
X140534000Y-129509500I0J-79500D01*
G01*
X140534000Y-129710500D01*
G75*
G02*
X140454500Y-129790000I-79500J0D01*
G01*
X140295500Y-129790000D01*
G75*
G02*
X140216000Y-129710500I0J79500D01*
G01*
G37*
G36*
G01*
X149896000Y-129730500D02*
X149896000Y-129529500D01*
G75*
G02*
X149975500Y-129450000I79500J0D01*
G01*
X150134500Y-129450000D01*
G75*
G02*
X150214000Y-129529500I0J-79500D01*
G01*
X150214000Y-129730500D01*
G75*
G02*
X150134500Y-129810000I-79500J0D01*
G01*
X149975500Y-129810000D01*
G75*
G02*
X149896000Y-129730500I0J79500D01*
G01*
G37*
G36*
G01*
X149206000Y-129730500D02*
X149206000Y-129529500D01*
G75*
G02*
X149285500Y-129450000I79500J0D01*
G01*
X149444500Y-129450000D01*
G75*
G02*
X149524000Y-129529500I0J-79500D01*
G01*
X149524000Y-129730500D01*
G75*
G02*
X149444500Y-129810000I-79500J0D01*
G01*
X149285500Y-129810000D01*
G75*
G02*
X149206000Y-129730500I0J79500D01*
G01*
G37*
G36*
G01*
X142995000Y-133465000D02*
X142995000Y-133915000D01*
G75*
G02*
X142870000Y-134040000I-125000J0D01*
G01*
X142620000Y-134040000D01*
G75*
G02*
X142495000Y-133915000I0J125000D01*
G01*
X142495000Y-133465000D01*
G75*
G02*
X142620000Y-133340000I125000J0D01*
G01*
X142870000Y-133340000D01*
G75*
G02*
X142995000Y-133465000I0J-125000D01*
G01*
G37*
G36*
G01*
X140995000Y-133465000D02*
X140995000Y-133915000D01*
G75*
G02*
X140870000Y-134040000I-125000J0D01*
G01*
X140620000Y-134040000D01*
G75*
G02*
X140495000Y-133915000I0J125000D01*
G01*
X140495000Y-133465000D01*
G75*
G02*
X140620000Y-133340000I125000J0D01*
G01*
X140870000Y-133340000D01*
G75*
G02*
X140995000Y-133465000I0J-125000D01*
G01*
G37*
G36*
G01*
X138995000Y-133465000D02*
X138995000Y-133915000D01*
G75*
G02*
X138870000Y-134040000I-125000J0D01*
G01*
X138620000Y-134040000D01*
G75*
G02*
X138495000Y-133915000I0J125000D01*
G01*
X138495000Y-133465000D01*
G75*
G02*
X138620000Y-133340000I125000J0D01*
G01*
X138870000Y-133340000D01*
G75*
G02*
X138995000Y-133465000I0J-125000D01*
G01*
G37*
G36*
G01*
X152000000Y-133465000D02*
X152000000Y-133915000D01*
G75*
G02*
X151875000Y-134040000I-125000J0D01*
G01*
X151625000Y-134040000D01*
G75*
G02*
X151500000Y-133915000I0J125000D01*
G01*
X151500000Y-133465000D01*
G75*
G02*
X151625000Y-133340000I125000J0D01*
G01*
X151875000Y-133340000D01*
G75*
G02*
X152000000Y-133465000I0J-125000D01*
G01*
G37*
G36*
G01*
X150000000Y-133465000D02*
X150000000Y-133915000D01*
G75*
G02*
X149875000Y-134040000I-125000J0D01*
G01*
X149625000Y-134040000D01*
G75*
G02*
X149500000Y-133915000I0J125000D01*
G01*
X149500000Y-133465000D01*
G75*
G02*
X149625000Y-133340000I125000J0D01*
G01*
X149875000Y-133340000D01*
G75*
G02*
X150000000Y-133465000I0J-125000D01*
G01*
G37*
G36*
G01*
X148000000Y-133465000D02*
X148000000Y-133915000D01*
G75*
G02*
X147875000Y-134040000I-125000J0D01*
G01*
X147625000Y-134040000D01*
G75*
G02*
X147500000Y-133915000I0J125000D01*
G01*
X147500000Y-133465000D01*
G75*
G02*
X147625000Y-133340000I125000J0D01*
G01*
X147875000Y-133340000D01*
G75*
G02*
X148000000Y-133465000I0J-125000D01*
G01*
G37*
M02*
