0
SECTION
2
HEADER
9
$INSUNITS
70
4
9
$ACADVER
1
AC1014
9
$HANDSEED
5
FFFF
0
ENDSEC
0
SECTION
2
TABLES
0
TABLE
2
VPORT
5
8
100
AcDbSymbolTable
0
ENDTAB
0
TABLE
2
LTYPE
5
5
100
AcDbSymbolTable
0
LTYPE
5
14
100
AcDbSymbolTableRecord
100
AcDbLinetypeTableRecord
2
BYBLOCK
70
0
0
LTYPE
5
15
100
AcDbSymbolTableRecord
100
AcDbLinetypeTableRecord
2
BYLAYER
70
0
0
ENDTAB
0
TABLE
2
LAYER
5
2
100
AcDbSymbolTable
70
2
0
LAYER
5
50
100
AcDbSymbolTableRecord
100
AcDbLayerTableRecord
2
0
70
0
6
CONTINUOUS
0
ENDTAB
0
TABLE
2
STYLE
5
3
100
AcDbSymbolTable
70
1
0
STYLE
5
11
100
AcDbSymbolTableRecord
100
AcDbTextStyleTableRecord
2
STANDARD
70
0
0
ENDTAB
0
TABLE
2
VIEW
5
6
100
AcDbSymbolTable
70
0
0
ENDTAB
0
TABLE
2
UCS
5
7
100
AcDbSymbolTable
70
0
0
ENDTAB
0
TABLE
2
APPID
5
9
100
AcDbSymbolTable
70
2
0
APPID
5
12
100
AcDbSymbolTableRecord
100
AcDbRegAppTableRecord
2
ACAD
70
0
0
ENDTAB
0
TABLE
2
DIMSTYLE
5
A
100
AcDbSymbolTable
70
1
0
ENDTAB
0
TABLE
2
BLOCK_RECORD
5
1
100
AcDbSymbolTable
70
1
0
BLOCK_RECORD
5
1F
100
AcDbSymbolTableRecord
100
AcDbBlockTableRecord
2
*MODEL_SPACE
0
BLOCK_RECORD
5
1B
100
AcDbSymbolTableRecord
100
AcDbBlockTableRecord
2
*PAPER_SPACE
0
ENDTAB
0
ENDSEC
0
SECTION
2
BLOCKS
0
BLOCK
5
20
100
AcDbEntity
100
AcDbBlockBegin
2
*MODEL_SPACE
0
ENDBLK
5
21
100
AcDbEntity
100
AcDbBlockEnd
0
BLOCK
5
1C
100
AcDbEntity
100
AcDbBlockBegin
2
*PAPER_SPACE
0
ENDBLK
5
1D
100
AcDbEntity
100
AcDbBlockEnd
0
ENDSEC
0
SECTION
2
ENTITIES
0
LINE
5
100
100
AcDbEntity
8
0
100
AcDbLine
10
8.9999357888970515
20
-23.194376902011015
30
0
11
8.9999357888970515
21
-25.194376902011058
31
0
0
LINE
5
101
100
AcDbEntity
8
0
100
AcDbLine
10
7.9999357888970399
20
-25.194376902011058
30
0
11
7.9999357888970479
21
-23.194376902011008
31
0
0
LINE
5
102
100
AcDbEntity
8
0
100
AcDbLine
10
11.99993578889705
20
-26.194376902011065
30
0
11
11.99993578889705
21
-33.194376902010823
31
0
0
LINE
5
103
100
AcDbEntity
8
0
100
AcDbLine
10
4.9999357888970399
20
-33.194376902011058
30
0
11
4.9999357888970399
21
-26.194376902011044
31
0
0
LINE
5
104
100
AcDbEntity
8
0
100
AcDbLine
10
10.999935788897051
20
-33.194376902010688
30
0
11
10.999935788897051
21
-33.794376902010306
31
0
0
LINE
5
105
100
AcDbEntity
8
0
100
AcDbLine
10
10.999935788897051
20
-33.794376902010306
30
0
11
5.999935788897039
21
-33.794376902010306
31
0
0
LINE
5
106
100
AcDbEntity
8
0
100
AcDbLine
10
5.999935788897039
20
-33.794376902010306
30
0
11
5.999935788897039
21
-33.19437690201098
31
0
0
ARC
5
107
100
AcDbEntity
8
0
100
AcDbCircle
10
5.9999357888970231
20
-26.194376902011044
30
0
40
0.99999999999998312
210
0
220
-0
230
1
100
AcDbArc
50
90
51
180
0
ARC
5
108
100
AcDbEntity
8
0
100
AcDbCircle
10
10.999935788897044
20
-26.194376902011065
30
0
40
1.0000000000000053
210
0
220
-0
230
1
100
AcDbArc
50
0
51
90
0
LINE
5
109
100
AcDbEntity
8
0
100
AcDbLine
10
12.99993578889711
20
-23.194376902010355
30
0
11
12.999935788897112
21
-18.00000832134543
31
0
0
LWPOLYLINE
5
110
100
AcDbEntity
8
0
100
AcDbPolyline
90
4
70
1
43
0.0
10
4.7999357888943619
20
-5.7443769020103623
10
5.4999357888943585
20
-5.744376902010357
10
5.4999357888943621
20
-0.6443769020103618
10
4.7999357888943619
20
-0.6443769020103618
0
ARC
5
111
100
AcDbEntity
8
0
100
AcDbCircle
10
-6.0000650713154249
20
-12.194376902009639
30
0
40
1.9999999999999996
210
0
220
-0
230
1
100
AcDbArc
50
89.999999999993108
51
180.05313847810319
0
LINE
5
112
100
AcDbEntity
8
0
100
AcDbLine
10
0.8659611926145836
20
-21.694376902010394
30
0
11
6.1339103850419372
21
-21.694376902010383
31
0
0
LINE
5
113
100
AcDbEntity
8
0
100
AcDbLine
10
25.99993578889864
20
3.8056230979896717
30
0
11
16.237208249245001
21
3.8056230979896473
31
0
0
ARC
5
114
100
AcDbEntity
8
0
100
AcDbCircle
10
16.104640980206529
20
1.8056230979896448
30
0
40
19.999999999999996
210
0
220
-0
230
1
100
AcDbArc
50
49.414766912251984
51
90.000000000000071
0
CIRCLE
5
115
100
AcDbEntity
8
0
100
AcDbCircle
10
1.4999357888933429
20
-14.194376902010363
30
0
40
0.55000000000000004
210
0
220
0
230
1
0
LINE
5
116
100
AcDbEntity
8
0
100
AcDbLine
10
6.9999357888263525
20
-23.194376902010347
30
0
11
7.9999357888970479
21
-23.194376902011008
31
0
0
LINE
5
117
100
AcDbEntity
8
0
100
AcDbLine
10
-8.0000642111736617
20
-15.194376901995035
30
0
11
-8.0000642111679294
21
-12.196231784548718
31
0
0
ARC
5
118
100
AcDbEntity
8
0
100
AcDbCircle
10
-6.4211173647639019e-05
20
-15.194376902010326
30
0
40
8.0000000000000124
210
0
220
0
230
1
100
AcDbArc
50
180
51
270
0
LINE
5
119
100
AcDbEntity
8
0
100
AcDbLine
10
-6.0000650713151842
20
-10.194376902009639
30
0
11
-6.4211106174406356e-05
21
-10.194376902010362
31
0
0
LINE
5
120
100
AcDbEntity
8
0
100
AcDbLine
10
6.9999357888263525
20
-23.194376902010347
30
0
11
6.1339103850419372
21
-21.694376902010383
31
0
0
LINE
5
121
100
AcDbEntity
8
0
100
AcDbLine
10
-6.4211173648171606e-05
20
-23.19437690201034
30
0
11
0.8659611926145836
21
-21.694376902010394
31
0
0
LINE
5
122
100
AcDbEntity
8
0
100
AcDbLine
10
12.999935788897051
20
21.805623097989638
30
0
11
12.999935788897069
21
8.8056230979896384
31
0
0
LWPOLYLINE
5
123
100
AcDbEntity
8
0
100
AcDbPolyline
90
4
70
1
43
0.0
10
5.449935788897581
20
14.80562309799115
10
2.7652570371648402
20
16.355623097991035
10
3.3152570371653067
20
17.308251042154172
10
5.9999357888970604
20
15.758251042154161
0
CIRCLE
5
124
100
AcDbEntity
8
0
100
AcDbCircle
10
24.499935788900853
20
-14.194376902010335
30
0
40
0.55000000000000004
210
0
220
0
230
1
0
ARC
5
125
100
AcDbEntity
8
0
100
AcDbCircle
10
23.999935792444475
20
8.2096803540335976
30
0
40
10.000000000000002
210
0
220
-0
230
1
100
AcDbArc
50
0.001526133229122774
51
49.414766912252091
0
ARC
5
126
100
AcDbEntity
8
0
100
AcDbCircle
10
31.999936649119547
20
-12.194376902002919
30
0
40
1.9999999999900921
210
-0
220
0
230
1
100
AcDbArc
50
-0.053138478391288414
51
90.000000000291379
0
LWPOLYLINE
5
127
100
AcDbEntity
8
0
100
AcDbPolyline
90
4
70
1
43
0.0
10
21.199935788899801
20
-0.6443769020103407
10
21.199935788899818
20
-5.7443769020103419
10
20.499935788899819
20
-5.7443769020103375
10
20.499935788899801
20
-0.64437690201034248
0
LINE
5
128
100
AcDbEntity
8
0
100
AcDbLine
10
16.104640980206504
20
21.805623097989645
30
0
11
12.999935788897051
21
21.805623097989638
31
0
0
CIRCLE
5
129
100
AcDbEntity
8
0
100
AcDbCircle
10
24.499935788898881
20
1.8056230979896677
30
0
40
0.55000000000000004
210
0
220
0
230
1
0
LINE
5
130
100
AcDbEntity
8
0
100
AcDbLine
10
-9.7891510211263082
20
13.298947266112012
30
0
11
10.391081181515432
21
13.298947266106044
31
0
0
ARC
5
131
100
AcDbEntity
8
0
100
AcDbCircle
10
1.9999357853496691
20
8.2096803540335692
30
0
40
10.000000000000002
210
0
220
0
230
1
100
AcDbArc
50
130.58523308774812
51
179.99847386700972
0
ARC
5
132
100
AcDbEntity
8
0
100
AcDbCircle
10
31.999935788897083
20
5.8056230979896846
30
0
40
2.0000000000000018
210
0
220
0
230
1
100
AcDbArc
50
-89.999999999999901
51
0
0
LWPOLYLINE
5
133
100
AcDbEntity
8
0
100
AcDbPolyline
90
4
70
1
43
0.0
10
19.999935788897062
20
15.758251042154177
10
20.549935788896544
20
14.805623097989661
10
23.234614540629281
20
16.355623097991057
10
22.684614540628807
20
17.308251042154193
0
LWPOLYLINE
5
134
100
AcDbEntity
8
0
100
AcDbPolyline
90
4
70
1
43
0.0
10
30.108124228674818
20
12.903734661748876
10
29.008794318953804
20
12.942124108121625
10
28.900605879176066
20
9.84401254436243
10
29.999935788897073
20
9.8056230979896828
0
LINE
5
135
100
AcDbEntity
8
0
100
AcDbLine
10
9.8952305975875987
20
21.805623097989631
30
0
11
12.999935788897051
21
21.805623097989638
31
0
0
LINE
5
136
100
AcDbEntity
8
0
100
AcDbLine
10
-6.4211104483817661e-05
20
3.8056230979896384
30
0
11
-6.0000642111029334
21
3.8056230979896362
31
0
0
ARC
5
137
100
AcDbEntity
8
0
100
AcDbCircle
10
9.8952305975876236
20
1.805623097989637
30
0
40
19.999999999999993
210
0
220
0
230
1
100
AcDbArc
50
90.000000000000071
51
130.58523308774815
0
LINE
5
138
100
AcDbEntity
8
0
100
AcDbLine
10
-4.5058492918419528
20
15.804070423643559
30
0
11
-3.1163395567956216
21
16.99440323720961
31
0
0
ARC
5
139
100
AcDbEntity
8
0
100
AcDbCircle
10
25.999231125413399
20
-15.194376902014259
30
0
40
7.9999999999999964
210
0
220
0
230
1
100
AcDbArc
50
269.99999999999989
51
359.98653781163415
0
LINE
5
140
100
AcDbEntity
8
0
100
AcDbLine
10
25.99993578889864
20
3.8056230979896717
30
0
11
31.999935788897087
21
3.8056230979896832
31
0
0
LINE
5
141
100
AcDbEntity
8
0
100
AcDbLine
10
30.505720869636072
20
15.804070423643616
30
0
11
29.11621113458974
21
16.994403237209646
31
0
0
LWPOLYLINE
5
142
100
AcDbEntity
8
0
100
AcDbPolyline
90
4
70
1
43
0.0
10
-4.1082526508806918
20
12.903734661748834
10
-3.0089227411596768
20
12.942124108121583
10
-2.9007343013819313
20
9.8440125443623909
10
-4.000064211102937
20
9.8056230979896384
0
LINE
5
143
100
AcDbEntity
8
0
100
AcDbLine
10
25.99993578889864
20
3.8056230979896717
30
0
11
25.999935788900363
21
-10.19437690201033
31
0
0
LINE
5
144
100
AcDbEntity
8
0
100
AcDbLine
10
-8.0000642111029343
20
5.8056230979896339
30
0
11
-8.0000642111029361
21
8.2099467145391625
31
0
0
LINE
5
145
100
AcDbEntity
8
0
100
AcDbLine
10
33.999935788897076
20
5.8056230979896872
30
0
11
33.999935788897076
21
8.2099467145392211
31
0
0
ARC
5
146
100
AcDbEntity
8
0
100
AcDbCircle
10
-6.0000642111029343
20
5.8056230979896366
30
0
40
1.9999999999999996
210
0
220
0
230
1
100
AcDbArc
50
180
51
270
0
LINE
5
147
100
AcDbEntity
8
0
100
AcDbLine
10
-6.4211104483817661e-05
20
3.8056230979896384
30
0
11
9.7626633285491522
21
3.8056230979896406
31
0
0
CIRCLE
5
148
100
AcDbEntity
8
0
100
AcDbCircle
10
1.4999357888952749
20
1.8056230979896382
30
0
40
0.55000000000000004
210
0
220
0
230
1
0
LINE
5
149
100
AcDbEntity
8
0
100
AcDbLine
10
12.999935788897051
20
21.805623097989638
30
0
11
12.99993578889711
21
-23.194376902010355
31
0
0
LINE
5
150
100
AcDbEntity
8
0
100
AcDbLine
10
31.999936649109376
20
-10.19437690200958
30
0
11
25.999935788900363
21
-10.19437690201033
31
0
0
LINE
5
151
100
AcDbEntity
8
0
100
AcDbLine
10
-6.4211104483817661e-05
20
3.8056230979896384
30
0
11
-6.4211106174406356e-05
21
-10.194376902010362
31
0
0
LINE
5
152
100
AcDbEntity
8
0
100
AcDbLine
10
33.99923090458951
20
-15.196256578088153
30
0
11
33.999935788962141
21
-12.196231784551902
31
0
0
LINE
5
153
100
AcDbEntity
8
0
100
AcDbLine
10
35.789022598920432
20
13.298947266112071
30
0
11
15.608790396278696
21
13.298947266106051
31
0
0
LINE
5
154
100
AcDbEntity
8
0
100
AcDbLine
10
14.999935788897197
20
-33.794376902010292
30
0
11
19.999935788897208
21
-33.794376902010285
31
0
0
LINE
5
155
100
AcDbEntity
8
0
100
AcDbLine
10
16.999935788897169
20
-23.194376902011008
30
0
11
16.999935788897176
21
-25.194376902011054
31
0
0
ARC
5
156
100
AcDbEntity
8
0
100
AcDbCircle
10
14.999935788897183
20
-26.194376902011051
30
0
40
0.99999999999999645
210
0
220
0
230
1
100
AcDbArc
50
90.000000000000099
51
180
0
LINE
5
157
100
AcDbEntity
8
0
100
AcDbLine
10
20.999935788897204
20
-33.194376902011037
30
0
11
20.99993578889719
21
-26.194376902011026
31
0
0
LINE
5
158
100
AcDbEntity
8
0
100
AcDbLine
10
13.999935788897178
20
-26.194376902011062
30
0
11
13.999935788897195
21
-33.194376902010823
31
0
0
ARC
5
159
100
AcDbEntity
8
0
100
AcDbCircle
10
19.999935788897204
20
-26.194376902011026
30
0
40
0.99999999999998312
210
0
220
-0
230
1
100
AcDbArc
50
0
51
90.000000000000199
0
LINE
5
160
100
AcDbEntity
8
0
100
AcDbLine
10
19.999935788897208
20
-33.794376902010285
30
0
11
19.999935788897208
21
-33.194376902010966
31
0
0
LINE
5
161
100
AcDbEntity
8
0
100
AcDbLine
10
14.999935788897197
20
-33.194376902010681
30
0
11
14.999935788897197
21
-33.794376902010292
31
0
0
LINE
5
162
100
AcDbEntity
8
0
100
AcDbLine
10
17.999935788897186
20
-25.194376902011054
30
0
11
17.999935788897172
21
-23.194376902011001
31
0
0
LINE
5
163
100
AcDbEntity
8
0
100
AcDbLine
10
25.999231125413385
20
-23.194376902014255
30
0
11
17.999935788897172
21
-23.194376902011001
31
0
0
LINE
5
164
100
AcDbEntity
8
0
100
AcDbLine
10
16.999935788897169
20
-23.194376902011008
30
0
11
12.99993578889711
21
-23.194376902010355
31
0
0
LINE
5
165
100
AcDbEntity
8
0
100
AcDbLine
10
6.9999357888263525
20
-23.194376902010347
30
0
11
7.9999357888970479
21
-23.194376902011008
31
0
0
LINE
5
166
100
AcDbEntity
8
0
100
AcDbLine
10
8.9999357888970515
20
-23.194376902011015
30
0
11
12.99993578889711
21
-23.194376902010355
31
0
0
LINE
5
167
100
AcDbEntity
8
0
100
AcDbLine
10
5.9999357888970231
20
-25.194376902011058
30
0
11
7.9999357888970399
21
-25.194376902011058
31
0
0
LINE
5
168
100
AcDbEntity
8
0
100
AcDbLine
10
8.9999357888970515
20
-25.194376902011058
30
0
11
10.999935788897044
21
-25.194376902011058
31
0
0
LINE
5
169
100
AcDbEntity
8
0
100
AcDbLine
10
19.999935788897201
20
-25.194376902011047
30
0
11
17.999935788897186
21
-25.194376902011054
31
0
0
LINE
5
170
100
AcDbEntity
8
0
100
AcDbLine
10
16.999935788897176
20
-25.194376902011054
30
0
11
14.999935788897181
21
-25.194376902011054
31
0
0
LINE
5
171
100
AcDbEntity
8
0
100
AcDbLine
10
11.99993578889705
20
-33.194376902010823
30
0
11
10.999935788897051
21
-33.194376902010688
31
0
0
LINE
5
172
100
AcDbEntity
8
0
100
AcDbLine
10
5.999935788897039
20
-33.19437690201098
30
0
11
4.9999357888970399
21
-33.194376902011058
31
0
0
LINE
5
173
100
AcDbEntity
8
0
100
AcDbLine
10
13.999935788897195
20
-33.194376902010823
30
0
11
14.999935788897197
21
-33.194376902010681
31
0
0
LINE
5
174
100
AcDbEntity
8
0
100
AcDbLine
10
19.999935788897208
20
-33.194376902010966
30
0
11
20.999935788897204
21
-33.194376902011037
31
0
0
ENDSEC
0
SECTION
2
OBJECTS
0
DICTIONARY
5
C
100
AcDbDictionary
3
ACAD_GROUP
350
D
3
ACAD_MLINESTYLE
350
17
0
DICTIONARY
5
D
100
AcDbDictionary
0
DICTIONARY
5
1A
330
C
100
AcDbDictionary
0
DICTIONARY
5
17
100
AcDbDictionary
0
ENDSEC
0
EOF
