G04 #@! TF.GenerationSoftware,KiCad,Pcbnew,(5.1.7)-1*
G04 #@! TF.CreationDate,2021-02-27T16:19:37+09:00*
G04 #@! TF.ProjectId,lapis,6c617069-732e-46b6-9963-61645f706362,rev?*
G04 #@! TF.SameCoordinates,Original*
G04 #@! TF.FileFunction,Legend,Top*
G04 #@! TF.FilePolarity,Positive*
%FSLAX46Y46*%
G04 Gerber Fmt 4.6, Leading zero omitted, Abs format (unit mm)*
G04 Created by KiCad (PCBNEW (5.1.7)-1) date 2021-02-27 16:19:37*
%MOMM*%
%LPD*%
G01*
G04 APERTURE LIST*
%ADD10C,0.120000*%
%ADD11C,0.200000*%
%ADD12C,0.254000*%
%ADD13C,0.100000*%
%ADD14C,0.150000*%
G04 APERTURE END LIST*
D10*
X135250000Y-113450000D02*
X155250000Y-113450000D01*
X135250000Y-107450000D02*
X155250000Y-107450000D01*
X155250000Y-96700000D02*
X158250000Y-96700000D01*
X155250000Y-96750000D02*
X155250000Y-96700000D01*
X155250000Y-116500000D02*
X155250000Y-96750000D01*
X158250000Y-116500000D02*
X155250000Y-116500000D01*
X158250000Y-116500000D02*
X158250000Y-96700000D01*
X135250000Y-96700000D02*
X135250000Y-116700000D01*
X132250000Y-96700000D02*
X135250000Y-96700000D01*
X132250000Y-116700000D02*
X135250000Y-116700000D01*
X132250000Y-96700000D02*
X132250000Y-116700000D01*
D11*
X164200000Y-115700000D02*
X164200000Y-119900000D01*
X161000000Y-119900000D02*
X161000000Y-115700000D01*
X163100000Y-115700000D02*
X162100000Y-115700000D01*
X163100000Y-119900000D02*
X162100000Y-119900000D01*
X163742370Y-114894000D02*
G75*
G03*
X163742370Y-114894000I-53370J0D01*
G01*
D10*
X127319153Y-91879858D02*
X127184441Y-88022209D01*
X126919396Y-91893818D02*
X126880309Y-90774500D01*
X130151966Y-91911013D02*
X130151966Y-91911013D01*
X127608976Y-91869737D02*
X127613513Y-91999658D01*
X126880309Y-90774500D02*
X127280065Y-90760540D01*
X130151966Y-91911013D02*
X130147429Y-91781092D01*
X130147429Y-91781092D02*
X130147429Y-91781092D01*
X130147429Y-91781092D02*
X130151966Y-91911013D01*
X127613513Y-91999658D02*
X127608976Y-91869737D01*
X127608976Y-91869737D02*
X127608976Y-91869737D01*
X127613513Y-91999658D02*
X127613513Y-91999658D01*
X130437252Y-91770971D02*
X127319153Y-91879858D01*
X127319153Y-91879858D02*
X126919396Y-91893818D01*
X127280065Y-90760540D02*
X127319153Y-91879858D01*
X130437252Y-91770971D02*
X130302540Y-87913323D01*
X127184440Y-88022209D02*
G75*
G02*
X130302540Y-87913323I1559050J54443D01*
G01*
X150777891Y-84439148D02*
X154120749Y-82509148D01*
X150577891Y-84092738D02*
X151547839Y-83532738D01*
X152080307Y-86955000D02*
X152080307Y-86955000D01*
X150922891Y-84690295D02*
X150810307Y-84755295D01*
X151547839Y-83532738D02*
X151747839Y-83879148D01*
X152080307Y-86955000D02*
X152192891Y-86890000D01*
X152192891Y-86890000D02*
X152192891Y-86890000D01*
X152192891Y-86890000D02*
X152080307Y-86955000D01*
X150810307Y-84755295D02*
X150922891Y-84690295D01*
X150922891Y-84690295D02*
X150922891Y-84690295D01*
X150810307Y-84755295D02*
X150810307Y-84755295D01*
X152337891Y-87141147D02*
X150777891Y-84439148D01*
X150777891Y-84439148D02*
X150577891Y-84092738D01*
X151747839Y-83879148D02*
X150777891Y-84439148D01*
X152337891Y-87141147D02*
X155680749Y-85211147D01*
X154120749Y-82509149D02*
G75*
G02*
X155680749Y-85211147I780000J-1350999D01*
G01*
X138445770Y-87350852D02*
X135102911Y-85420852D01*
X138245770Y-87697262D02*
X137275821Y-87137262D01*
X139973353Y-84965000D02*
X139973353Y-84965000D01*
X138590770Y-87099705D02*
X138703353Y-87164705D01*
X137275821Y-87137262D02*
X137475821Y-86790852D01*
X139973353Y-84965000D02*
X139860770Y-84900000D01*
X139860770Y-84900000D02*
X139860770Y-84900000D01*
X139860770Y-84900000D02*
X139973353Y-84965000D01*
X138703353Y-87164705D02*
X138590770Y-87099705D01*
X138590770Y-87099705D02*
X138590770Y-87099705D01*
X138703353Y-87164705D02*
X138703353Y-87164705D01*
X140005770Y-84648853D02*
X138445770Y-87350852D01*
X138445770Y-87350852D02*
X138245770Y-87697262D01*
X137475821Y-86790852D02*
X138445770Y-87350852D01*
X140005770Y-84648853D02*
X136662911Y-82718853D01*
X135102911Y-85420851D02*
G75*
G02*
X136662911Y-82718853I780000J1350999D01*
G01*
X160113952Y-91791972D02*
X160248664Y-87934323D01*
X159714196Y-91778012D02*
X159753283Y-90658694D01*
X162937691Y-92020658D02*
X162937691Y-92020658D01*
X160403776Y-91802092D02*
X160399239Y-91932013D01*
X159753283Y-90658694D02*
X160153040Y-90672654D01*
X162937691Y-92020658D02*
X162942228Y-91890737D01*
X162942228Y-91890737D02*
X162942228Y-91890737D01*
X162942228Y-91890737D02*
X162937691Y-92020658D01*
X160399239Y-91932013D02*
X160403776Y-91802092D01*
X160403776Y-91802092D02*
X160403776Y-91802092D01*
X160399239Y-91932013D02*
X160399239Y-91932013D01*
X163232052Y-91900858D02*
X160113952Y-91791972D01*
X160113952Y-91791972D02*
X159714196Y-91778012D01*
X160153040Y-90672654D02*
X160113952Y-91791972D01*
X163232052Y-91900858D02*
X163366764Y-88043209D01*
X160248664Y-87934323D02*
G75*
G02*
X163366764Y-88043209I1559050J-54443D01*
G01*
D11*
X152250000Y-127750000D02*
X152250000Y-131450000D01*
X152250000Y-131450000D02*
X147250000Y-131450000D01*
X147250000Y-131450000D02*
X147250000Y-127750000D01*
X147250000Y-127750000D02*
X152250000Y-127750000D01*
X152275000Y-125925000D02*
X152275000Y-127400000D01*
X143250000Y-127750000D02*
X143250000Y-131450000D01*
X143250000Y-131450000D02*
X138250000Y-131450000D01*
X138250000Y-131450000D02*
X138250000Y-127750000D01*
X138250000Y-127750000D02*
X143250000Y-127750000D01*
X143275000Y-125925000D02*
X143275000Y-127400000D01*
X143740000Y-112090000D02*
X143740000Y-112090000D01*
X143740000Y-112190000D02*
X143740000Y-112190000D01*
X143740000Y-112090000D02*
X143740000Y-112090000D01*
X143740000Y-112190000D02*
G75*
G02*
X143740000Y-112090000I0J50000D01*
G01*
X143740000Y-112090000D02*
G75*
G02*
X143740000Y-112190000I0J-50000D01*
G01*
X143740000Y-112190000D02*
G75*
G02*
X143740000Y-112090000I0J50000D01*
G01*
X144300000Y-114550000D02*
X144300000Y-115750000D01*
X141350000Y-116100000D02*
X144250000Y-116100000D01*
X141350000Y-116700000D02*
X141350000Y-116100000D01*
X144250000Y-116700000D02*
X141350000Y-116700000D01*
X144250000Y-116100000D02*
X144250000Y-116700000D01*
D12*
X132873670Y-118091330D02*
G75*
G03*
X132873670Y-118091330I-54000J0D01*
G01*
X134136330Y-119430000D02*
X135985330Y-119430000D01*
X137240000Y-123530000D02*
X137240000Y-122030000D01*
X135940000Y-123530000D02*
X137240000Y-123530000D01*
X135940000Y-122030000D02*
X135940000Y-123530000D01*
X132490000Y-122030000D02*
X132490000Y-119430000D01*
X139190000Y-122030000D02*
X132490000Y-122030000D01*
X139190000Y-119430000D02*
X139190000Y-122030000D01*
D13*
X152450000Y-120635000D02*
G75*
G03*
X152450000Y-120635000I-50000J0D01*
G01*
D10*
X146135000Y-102190000D02*
X146810000Y-102190000D01*
X146810000Y-102190000D02*
X146810000Y-102365000D01*
X144265000Y-105410000D02*
X143590000Y-105410000D01*
X143590000Y-105410000D02*
X143590000Y-105235000D01*
X146135000Y-105410000D02*
X146810000Y-105410000D01*
X146810000Y-105410000D02*
X146810000Y-105235000D01*
X144265000Y-102190000D02*
X143590000Y-102190000D01*
X148435000Y-92590000D02*
X148910000Y-92590000D01*
X148910000Y-92590000D02*
X148910000Y-93065000D01*
X142165000Y-99810000D02*
X141690000Y-99810000D01*
X141690000Y-99810000D02*
X141690000Y-99335000D01*
X148435000Y-99810000D02*
X148910000Y-99810000D01*
X148910000Y-99810000D02*
X148910000Y-99335000D01*
X142165000Y-92590000D02*
X141690000Y-92590000D01*
D13*
X156420000Y-120635000D02*
G75*
G03*
X156420000Y-120635000I-50000J0D01*
G01*
D10*
X149500000Y-106735000D02*
G75*
G03*
X149500000Y-106735000I-700000J0D01*
G01*
X151700000Y-106800000D02*
G75*
G03*
X151700000Y-106800000I-700000J0D01*
G01*
X142690000Y-106670000D02*
G75*
G03*
X142690000Y-106670000I-700000J0D01*
G01*
X140550000Y-106690000D02*
G75*
G03*
X140550000Y-106690000I-700000J0D01*
G01*
X146920000Y-117660000D02*
X146920000Y-116200000D01*
X150080000Y-117660000D02*
X150080000Y-115500000D01*
X150080000Y-117660000D02*
X149150000Y-117660000D01*
X146920000Y-117660000D02*
X147850000Y-117660000D01*
X129570000Y-118255000D02*
X131030000Y-118255000D01*
X129570000Y-121415000D02*
X131730000Y-121415000D01*
X129570000Y-121415000D02*
X129570000Y-120485000D01*
X129570000Y-118255000D02*
X129570000Y-119185000D01*
X156130000Y-88610000D02*
X153180000Y-88610000D01*
X154330000Y-91830000D02*
X156130000Y-91830000D01*
X134420000Y-91870000D02*
X136220000Y-91870000D01*
X136220000Y-88650000D02*
X133270000Y-88650000D01*
D14*
X153800000Y-114100000D02*
X154700000Y-114100000D01*
X154700000Y-114100000D02*
X154700000Y-118100000D01*
X154700000Y-118100000D02*
X153800000Y-118100000D01*
X150700000Y-118100000D02*
X150700000Y-114100000D01*
X150700000Y-114100000D02*
X151600000Y-114100000D01*
X151600000Y-118100000D02*
X150700000Y-118100000D01*
D10*
X142810000Y-123690000D02*
X142810000Y-121030000D01*
X142810000Y-123690000D02*
X150490000Y-123690000D01*
X150490000Y-123690000D02*
X150490000Y-121030000D01*
X142810000Y-121030000D02*
X150490000Y-121030000D01*
X140210000Y-121030000D02*
X141540000Y-121030000D01*
X140210000Y-122360000D02*
X140210000Y-121030000D01*
X130975000Y-116975000D02*
X130975000Y-113375000D01*
X130975000Y-113375000D02*
X126625000Y-113375000D01*
X126625000Y-113375000D02*
X126625000Y-116975000D01*
X126625000Y-116975000D02*
X130975000Y-116975000D01*
X131285000Y-114975000D02*
X131285000Y-113065000D01*
X131285000Y-113065000D02*
X129375000Y-113065000D01*
X130975000Y-114675000D02*
X130675000Y-114675000D01*
X130675000Y-114675000D02*
X130675000Y-113675000D01*
X130675000Y-113675000D02*
X126925000Y-113675000D01*
X126925000Y-113675000D02*
X126925000Y-114675000D01*
X126925000Y-114675000D02*
X126625000Y-114675000D01*
X130975000Y-115425000D02*
X130675000Y-115425000D01*
X130675000Y-115425000D02*
X130675000Y-116525000D01*
X130675000Y-116525000D02*
X130375000Y-116525000D01*
X130375000Y-116525000D02*
X130375000Y-116975000D01*
X126625000Y-115425000D02*
X126925000Y-115425000D01*
X126925000Y-115425000D02*
X126925000Y-116525000D01*
X126925000Y-116525000D02*
X127225000Y-116525000D01*
X127225000Y-116525000D02*
X127225000Y-116975000D01*
X130375000Y-116525000D02*
X129175000Y-116525000D01*
X129175000Y-116525000D02*
X129175000Y-116825000D01*
X129175000Y-116825000D02*
X128425000Y-116825000D01*
X128425000Y-116825000D02*
X128425000Y-116525000D01*
X128425000Y-116525000D02*
X127225000Y-116525000D01*
D13*
X154350000Y-120635000D02*
G75*
G03*
X154350000Y-120635000I-50000J0D01*
G01*
X158390000Y-120635000D02*
G75*
G03*
X158390000Y-120635000I-50000J0D01*
G01*
X125650000Y-116365000D02*
G75*
G03*
X125650000Y-116365000I-50000J0D01*
G01*
D10*
X150416665Y-102140000D02*
X150648335Y-102140000D01*
X150416665Y-102860000D02*
X150648335Y-102860000D01*
X152551665Y-92740000D02*
X152783335Y-92740000D01*
X152551665Y-93460000D02*
X152783335Y-93460000D01*
X136283335Y-94160000D02*
X136051665Y-94160000D01*
X136283335Y-93440000D02*
X136051665Y-93440000D01*
X145240000Y-117515835D02*
X145240000Y-117284165D01*
X145960000Y-117515835D02*
X145960000Y-117284165D01*
X140815835Y-103160000D02*
X140584165Y-103160000D01*
X140815835Y-102440000D02*
X140584165Y-102440000D01*
D12*
X163164747Y-118534289D02*
X163225223Y-118352860D01*
X163225223Y-118050479D01*
X163164747Y-117929527D01*
X163104271Y-117869050D01*
X162983319Y-117808574D01*
X162862366Y-117808574D01*
X162741414Y-117869050D01*
X162680938Y-117929527D01*
X162620461Y-118050479D01*
X162559985Y-118292384D01*
X162499509Y-118413336D01*
X162439033Y-118473812D01*
X162318080Y-118534289D01*
X162197128Y-118534289D01*
X162076176Y-118473812D01*
X162015700Y-118413336D01*
X161955223Y-118292384D01*
X161955223Y-117990003D01*
X162015700Y-117808574D01*
X162076176Y-117324765D02*
X162015700Y-117264289D01*
X161955223Y-117143336D01*
X161955223Y-116840955D01*
X162015700Y-116720003D01*
X162076176Y-116659527D01*
X162197128Y-116599050D01*
X162318080Y-116599050D01*
X162499509Y-116659527D01*
X163225223Y-117385241D01*
X163225223Y-116599050D01*
D14*
X163971566Y-95566346D02*
X164006466Y-94566955D01*
X164244416Y-94575264D01*
X164385524Y-94627840D01*
X164477380Y-94726344D01*
X164521647Y-94823186D01*
X164562589Y-95015208D01*
X164557603Y-95157978D01*
X164503366Y-95346676D01*
X164452452Y-95440194D01*
X164353948Y-95532051D01*
X164209516Y-95574655D01*
X163971566Y-95566346D01*
X165481757Y-94618473D02*
X165005856Y-94601854D01*
X164941647Y-95076093D01*
X164990899Y-95030165D01*
X165087741Y-94985898D01*
X165325692Y-94994208D01*
X165419210Y-95045122D01*
X165465138Y-95094374D01*
X165509404Y-95191216D01*
X165501095Y-95429166D01*
X165450181Y-95522684D01*
X165400929Y-95568612D01*
X165304087Y-95612878D01*
X165066137Y-95604569D01*
X164972619Y-95553655D01*
X164926691Y-95504403D01*
X146294178Y-83991981D02*
X147160204Y-83491981D01*
X147279252Y-83698177D01*
X147309441Y-83845705D01*
X147274581Y-83975802D01*
X147215912Y-84064661D01*
X147074764Y-84201138D01*
X146951047Y-84272567D01*
X146762280Y-84326565D01*
X146655992Y-84332945D01*
X146525894Y-84298086D01*
X146413226Y-84198177D01*
X146294178Y-83991981D01*
X147553916Y-84364386D02*
X147618965Y-84381816D01*
X147707823Y-84440485D01*
X147826871Y-84646681D01*
X147833250Y-84752969D01*
X147815821Y-84818018D01*
X147757151Y-84906877D01*
X147674673Y-84954496D01*
X147527145Y-84984685D01*
X146746559Y-84775528D01*
X147056083Y-85311639D01*
X143652725Y-85315104D02*
X142786700Y-84815104D01*
X142905747Y-84608908D01*
X143018415Y-84508999D01*
X143148513Y-84474140D01*
X143254801Y-84480519D01*
X143443568Y-84534518D01*
X143567286Y-84605947D01*
X143708434Y-84742424D01*
X143767103Y-84831283D01*
X143801962Y-84961380D01*
X143771773Y-85108908D01*
X143652725Y-85315104D01*
X143789661Y-83744592D02*
X144367011Y-84077925D01*
X143340699Y-83760312D02*
X143840241Y-84323651D01*
X144149764Y-83787540D01*
X124928142Y-95847864D02*
X124893242Y-94848473D01*
X125131192Y-94840164D01*
X125275624Y-94882768D01*
X125374128Y-94974625D01*
X125425042Y-95068143D01*
X125479280Y-95256841D01*
X125484265Y-95399611D01*
X125443323Y-95591633D01*
X125399057Y-95688475D01*
X125307200Y-95786979D01*
X125166092Y-95839555D01*
X124928142Y-95847864D01*
X126451023Y-95794684D02*
X125879943Y-95814626D01*
X126165483Y-95804655D02*
X126130583Y-94805264D01*
X126040389Y-94951358D01*
X125948533Y-95049862D01*
X125855014Y-95100776D01*
X125603931Y-93720609D02*
X125507089Y-93676342D01*
X125408585Y-93584486D01*
X125260829Y-93446702D01*
X125163988Y-93402435D01*
X125068807Y-93405759D01*
X125124707Y-93642047D02*
X125027865Y-93597781D01*
X124929361Y-93505925D01*
X124875124Y-93317227D01*
X124863490Y-92984096D01*
X124904433Y-92792074D01*
X124996289Y-92693570D01*
X125089807Y-92642657D01*
X125280168Y-92636009D01*
X125377010Y-92680275D01*
X125475513Y-92772132D01*
X125529751Y-92960830D01*
X125541384Y-93293960D01*
X125500442Y-93485982D01*
X125408585Y-93584486D01*
X125315067Y-93635400D01*
X125124707Y-93642047D01*
X125851248Y-92616067D02*
X126469919Y-92594462D01*
X126150083Y-92986816D01*
X126292853Y-92981830D01*
X126389695Y-93026096D01*
X126438947Y-93072024D01*
X126489861Y-93165543D01*
X126498171Y-93403493D01*
X126453904Y-93500335D01*
X126407976Y-93549587D01*
X126314458Y-93600500D01*
X126028918Y-93610472D01*
X125932076Y-93566205D01*
X125882824Y-93520277D01*
X148290718Y-83536330D02*
X148284339Y-83430042D01*
X148319198Y-83299945D01*
X148371488Y-83104798D01*
X148365108Y-82998510D01*
X148317489Y-82916031D01*
X148135102Y-83076318D02*
X148128722Y-82970030D01*
X148163582Y-82839933D01*
X148304729Y-82703455D01*
X148593404Y-82536788D01*
X148782171Y-82482790D01*
X148912269Y-82517649D01*
X149001127Y-82576318D01*
X149096365Y-82741276D01*
X149102745Y-82847564D01*
X149067885Y-82977661D01*
X148926738Y-83114139D01*
X148638063Y-83280805D01*
X148449296Y-83334804D01*
X148319198Y-83299945D01*
X148230340Y-83241276D01*
X148135102Y-83076318D01*
X148825578Y-84272258D02*
X148539864Y-83777387D01*
X148682721Y-84024822D02*
X149548746Y-83524822D01*
X149377409Y-83513772D01*
X149247312Y-83478913D01*
X149158453Y-83420244D01*
X142316632Y-83846288D02*
X142227774Y-83904957D01*
X142097676Y-83939816D01*
X141902530Y-83992106D01*
X141813672Y-84050775D01*
X141766053Y-84133253D01*
X141996059Y-84211062D02*
X141907200Y-84269731D01*
X141777103Y-84304590D01*
X141588336Y-84250591D01*
X141299661Y-84083925D01*
X141158513Y-83947447D01*
X141123653Y-83817350D01*
X141130033Y-83711062D01*
X141225271Y-83546104D01*
X141314130Y-83487435D01*
X141444227Y-83452576D01*
X141632994Y-83506575D01*
X141921669Y-83673241D01*
X142062817Y-83809719D01*
X142097676Y-83939816D01*
X142091297Y-84046104D01*
X141996059Y-84211062D01*
X142061565Y-82764267D02*
X142638916Y-83097600D01*
X141612603Y-82779987D02*
X142112145Y-83343327D01*
X142421669Y-82807216D01*
X164775708Y-93593961D02*
X164682190Y-93543047D01*
X164590333Y-93444544D01*
X164452549Y-93296788D01*
X164359031Y-93245874D01*
X164263851Y-93242550D01*
X164303131Y-93482162D02*
X164209613Y-93431249D01*
X164117757Y-93332745D01*
X164076814Y-93140723D01*
X164088447Y-92807592D01*
X164142685Y-92618894D01*
X164241189Y-92527038D01*
X164338031Y-92482771D01*
X164528391Y-92489419D01*
X164621909Y-92540333D01*
X164713765Y-92638837D01*
X164754708Y-92830859D01*
X164743075Y-93163989D01*
X164688837Y-93352687D01*
X164590333Y-93444544D01*
X164493491Y-93488810D01*
X164303131Y-93482162D01*
X165143738Y-92606204D02*
X165192989Y-92560275D01*
X165289831Y-92516009D01*
X165527782Y-92524318D01*
X165621300Y-92575232D01*
X165667228Y-92624484D01*
X165711494Y-92721326D01*
X165708171Y-92816506D01*
X165655595Y-92957614D01*
X165064572Y-93508752D01*
X165683242Y-93530357D01*
D12*
X150324523Y-130839761D02*
X149054523Y-130839761D01*
X150203571Y-129509285D02*
X150264047Y-129569761D01*
X150324523Y-129751190D01*
X150324523Y-129872142D01*
X150264047Y-130053571D01*
X150143095Y-130174523D01*
X150022142Y-130235000D01*
X149780238Y-130295476D01*
X149598809Y-130295476D01*
X149356904Y-130235000D01*
X149235952Y-130174523D01*
X149115000Y-130053571D01*
X149054523Y-129872142D01*
X149054523Y-129751190D01*
X149115000Y-129569761D01*
X149175476Y-129509285D01*
X150324523Y-128299761D02*
X150324523Y-129025476D01*
X150324523Y-128662619D02*
X149054523Y-128662619D01*
X149235952Y-128783571D01*
X149356904Y-128904523D01*
X149417380Y-129025476D01*
X141324523Y-130839761D02*
X140054523Y-130839761D01*
X141203571Y-129509285D02*
X141264047Y-129569761D01*
X141324523Y-129751190D01*
X141324523Y-129872142D01*
X141264047Y-130053571D01*
X141143095Y-130174523D01*
X141022142Y-130235000D01*
X140780238Y-130295476D01*
X140598809Y-130295476D01*
X140356904Y-130235000D01*
X140235952Y-130174523D01*
X140115000Y-130053571D01*
X140054523Y-129872142D01*
X140054523Y-129751190D01*
X140115000Y-129569761D01*
X140175476Y-129509285D01*
X140175476Y-129025476D02*
X140115000Y-128965000D01*
X140054523Y-128844047D01*
X140054523Y-128541666D01*
X140115000Y-128420714D01*
X140175476Y-128360238D01*
X140296428Y-128299761D01*
X140417380Y-128299761D01*
X140598809Y-128360238D01*
X141324523Y-129085952D01*
X141324523Y-128299761D01*
X145564523Y-111779761D02*
X144294523Y-111779761D01*
X145443571Y-110449285D02*
X145504047Y-110509761D01*
X145564523Y-110691190D01*
X145564523Y-110812142D01*
X145504047Y-110993571D01*
X145383095Y-111114523D01*
X145262142Y-111175000D01*
X145020238Y-111235476D01*
X144838809Y-111235476D01*
X144596904Y-111175000D01*
X144475952Y-111114523D01*
X144355000Y-110993571D01*
X144294523Y-110812142D01*
X144294523Y-110691190D01*
X144355000Y-110509761D01*
X144415476Y-110449285D01*
X144294523Y-110025952D02*
X144294523Y-109239761D01*
X144778333Y-109663095D01*
X144778333Y-109481666D01*
X144838809Y-109360714D01*
X144899285Y-109300238D01*
X145020238Y-109239761D01*
X145322619Y-109239761D01*
X145443571Y-109300238D01*
X145504047Y-109360714D01*
X145564523Y-109481666D01*
X145564523Y-109844523D01*
X145504047Y-109965476D01*
X145443571Y-110025952D01*
X143374523Y-117639761D02*
X142104523Y-117639761D01*
X143253571Y-116309285D02*
X143314047Y-116369761D01*
X143374523Y-116551190D01*
X143374523Y-116672142D01*
X143314047Y-116853571D01*
X143193095Y-116974523D01*
X143072142Y-117035000D01*
X142830238Y-117095476D01*
X142648809Y-117095476D01*
X142406904Y-117035000D01*
X142285952Y-116974523D01*
X142165000Y-116853571D01*
X142104523Y-116672142D01*
X142104523Y-116551190D01*
X142165000Y-116369761D01*
X142225476Y-116309285D01*
X142527857Y-115220714D02*
X143374523Y-115220714D01*
X142044047Y-115523095D02*
X142951190Y-115825476D01*
X142951190Y-115039285D01*
X134566710Y-121185047D02*
X134748139Y-121245523D01*
X135050520Y-121245523D01*
X135171472Y-121185047D01*
X135231949Y-121124571D01*
X135292425Y-121003619D01*
X135292425Y-120882666D01*
X135231949Y-120761714D01*
X135171472Y-120701238D01*
X135050520Y-120640761D01*
X134808615Y-120580285D01*
X134687663Y-120519809D01*
X134627187Y-120459333D01*
X134566710Y-120338380D01*
X134566710Y-120217428D01*
X134627187Y-120096476D01*
X134687663Y-120036000D01*
X134808615Y-119975523D01*
X135110996Y-119975523D01*
X135292425Y-120036000D01*
X136501949Y-121245523D02*
X135776234Y-121245523D01*
X136139091Y-121245523D02*
X136139091Y-119975523D01*
X136018139Y-120156952D01*
X135897187Y-120277904D01*
X135776234Y-120338380D01*
D14*
X153852380Y-122638095D02*
X152852380Y-122638095D01*
X152852380Y-122400000D01*
X152900000Y-122257142D01*
X152995238Y-122161904D01*
X153090476Y-122114285D01*
X153280952Y-122066666D01*
X153423809Y-122066666D01*
X153614285Y-122114285D01*
X153709523Y-122161904D01*
X153804761Y-122257142D01*
X153852380Y-122400000D01*
X153852380Y-122638095D01*
X153852380Y-121590476D02*
X153852380Y-121400000D01*
X153804761Y-121304761D01*
X153757142Y-121257142D01*
X153614285Y-121161904D01*
X153423809Y-121114285D01*
X153042857Y-121114285D01*
X152947619Y-121161904D01*
X152900000Y-121209523D01*
X152852380Y-121304761D01*
X152852380Y-121495238D01*
X152900000Y-121590476D01*
X152947619Y-121638095D01*
X153042857Y-121685714D01*
X153280952Y-121685714D01*
X153376190Y-121638095D01*
X153423809Y-121590476D01*
X153471428Y-121495238D01*
X153471428Y-121304761D01*
X153423809Y-121209523D01*
X153376190Y-121161904D01*
X153280952Y-121114285D01*
X139349642Y-91757142D02*
X139302023Y-91804761D01*
X139159166Y-91852380D01*
X139063928Y-91852380D01*
X138921071Y-91804761D01*
X138825833Y-91709523D01*
X138778214Y-91614285D01*
X138730595Y-91423809D01*
X138730595Y-91280952D01*
X138778214Y-91090476D01*
X138825833Y-90995238D01*
X138921071Y-90900000D01*
X139063928Y-90852380D01*
X139159166Y-90852380D01*
X139302023Y-90900000D01*
X139349642Y-90947619D01*
X139730595Y-90947619D02*
X139778214Y-90900000D01*
X139873452Y-90852380D01*
X140111547Y-90852380D01*
X140206785Y-90900000D01*
X140254404Y-90947619D01*
X140302023Y-91042857D01*
X140302023Y-91138095D01*
X140254404Y-91280952D01*
X139682976Y-91852380D01*
X140302023Y-91852380D01*
X140873452Y-91280952D02*
X140778214Y-91233333D01*
X140730595Y-91185714D01*
X140682976Y-91090476D01*
X140682976Y-91042857D01*
X140730595Y-90947619D01*
X140778214Y-90900000D01*
X140873452Y-90852380D01*
X141063928Y-90852380D01*
X141159166Y-90900000D01*
X141206785Y-90947619D01*
X141254404Y-91042857D01*
X141254404Y-91090476D01*
X141206785Y-91185714D01*
X141159166Y-91233333D01*
X141063928Y-91280952D01*
X140873452Y-91280952D01*
X140778214Y-91328571D01*
X140730595Y-91376190D01*
X140682976Y-91471428D01*
X140682976Y-91661904D01*
X140730595Y-91757142D01*
X140778214Y-91804761D01*
X140873452Y-91852380D01*
X141063928Y-91852380D01*
X141159166Y-91804761D01*
X141206785Y-91757142D01*
X141254404Y-91661904D01*
X141254404Y-91471428D01*
X141206785Y-91376190D01*
X141159166Y-91328571D01*
X141063928Y-91280952D01*
X154333333Y-95557142D02*
X154285714Y-95604761D01*
X154142857Y-95652380D01*
X154047619Y-95652380D01*
X153904761Y-95604761D01*
X153809523Y-95509523D01*
X153761904Y-95414285D01*
X153714285Y-95223809D01*
X153714285Y-95080952D01*
X153761904Y-94890476D01*
X153809523Y-94795238D01*
X153904761Y-94700000D01*
X154047619Y-94652380D01*
X154142857Y-94652380D01*
X154285714Y-94700000D01*
X154333333Y-94747619D01*
X154666666Y-94652380D02*
X155285714Y-94652380D01*
X154952380Y-95033333D01*
X155095238Y-95033333D01*
X155190476Y-95080952D01*
X155238095Y-95128571D01*
X155285714Y-95223809D01*
X155285714Y-95461904D01*
X155238095Y-95557142D01*
X155190476Y-95604761D01*
X155095238Y-95652380D01*
X154809523Y-95652380D01*
X154714285Y-95604761D01*
X154666666Y-95557142D01*
X138257142Y-97457142D02*
X138209523Y-97504761D01*
X138066666Y-97552380D01*
X137971428Y-97552380D01*
X137828571Y-97504761D01*
X137733333Y-97409523D01*
X137685714Y-97314285D01*
X137638095Y-97123809D01*
X137638095Y-96980952D01*
X137685714Y-96790476D01*
X137733333Y-96695238D01*
X137828571Y-96600000D01*
X137971428Y-96552380D01*
X138066666Y-96552380D01*
X138209523Y-96600000D01*
X138257142Y-96647619D01*
X138590476Y-96552380D02*
X139209523Y-96552380D01*
X138876190Y-96933333D01*
X139019047Y-96933333D01*
X139114285Y-96980952D01*
X139161904Y-97028571D01*
X139209523Y-97123809D01*
X139209523Y-97361904D01*
X139161904Y-97457142D01*
X139114285Y-97504761D01*
X139019047Y-97552380D01*
X138733333Y-97552380D01*
X138638095Y-97504761D01*
X138590476Y-97457142D01*
X140161904Y-97552380D02*
X139590476Y-97552380D01*
X139876190Y-97552380D02*
X139876190Y-96552380D01*
X139780952Y-96695238D01*
X139685714Y-96790476D01*
X139590476Y-96838095D01*
X154257142Y-94357142D02*
X154209523Y-94404761D01*
X154066666Y-94452380D01*
X153971428Y-94452380D01*
X153828571Y-94404761D01*
X153733333Y-94309523D01*
X153685714Y-94214285D01*
X153638095Y-94023809D01*
X153638095Y-93880952D01*
X153685714Y-93690476D01*
X153733333Y-93595238D01*
X153828571Y-93500000D01*
X153971428Y-93452380D01*
X154066666Y-93452380D01*
X154209523Y-93500000D01*
X154257142Y-93547619D01*
X154638095Y-93547619D02*
X154685714Y-93500000D01*
X154780952Y-93452380D01*
X155019047Y-93452380D01*
X155114285Y-93500000D01*
X155161904Y-93547619D01*
X155209523Y-93642857D01*
X155209523Y-93738095D01*
X155161904Y-93880952D01*
X154590476Y-94452380D01*
X155209523Y-94452380D01*
X155542857Y-93452380D02*
X156209523Y-93452380D01*
X155780952Y-94452380D01*
X149657142Y-120852380D02*
X149323809Y-120376190D01*
X149085714Y-120852380D02*
X149085714Y-119852380D01*
X149466666Y-119852380D01*
X149561904Y-119900000D01*
X149609523Y-119947619D01*
X149657142Y-120042857D01*
X149657142Y-120185714D01*
X149609523Y-120280952D01*
X149561904Y-120328571D01*
X149466666Y-120376190D01*
X149085714Y-120376190D01*
X150609523Y-120852380D02*
X150038095Y-120852380D01*
X150323809Y-120852380D02*
X150323809Y-119852380D01*
X150228571Y-119995238D01*
X150133333Y-120090476D01*
X150038095Y-120138095D01*
X150942857Y-119852380D02*
X151609523Y-119852380D01*
X151180952Y-120852380D01*
X157852380Y-122658095D02*
X156852380Y-122658095D01*
X156852380Y-122420000D01*
X156900000Y-122277142D01*
X156995238Y-122181904D01*
X157090476Y-122134285D01*
X157280952Y-122086666D01*
X157423809Y-122086666D01*
X157614285Y-122134285D01*
X157709523Y-122181904D01*
X157804761Y-122277142D01*
X157852380Y-122420000D01*
X157852380Y-122658095D01*
X156852380Y-121753333D02*
X156852380Y-121086666D01*
X157852380Y-121515238D01*
X147404761Y-119847619D02*
X147309523Y-119800000D01*
X147214285Y-119704761D01*
X147071428Y-119561904D01*
X146976190Y-119514285D01*
X146880952Y-119514285D01*
X146928571Y-119752380D02*
X146833333Y-119704761D01*
X146738095Y-119609523D01*
X146690476Y-119419047D01*
X146690476Y-119085714D01*
X146738095Y-118895238D01*
X146833333Y-118800000D01*
X146928571Y-118752380D01*
X147119047Y-118752380D01*
X147214285Y-118800000D01*
X147309523Y-118895238D01*
X147357142Y-119085714D01*
X147357142Y-119419047D01*
X147309523Y-119609523D01*
X147214285Y-119704761D01*
X147119047Y-119752380D01*
X146928571Y-119752380D01*
X148214285Y-118752380D02*
X148023809Y-118752380D01*
X147928571Y-118800000D01*
X147880952Y-118847619D01*
X147785714Y-118990476D01*
X147738095Y-119180952D01*
X147738095Y-119561904D01*
X147785714Y-119657142D01*
X147833333Y-119704761D01*
X147928571Y-119752380D01*
X148119047Y-119752380D01*
X148214285Y-119704761D01*
X148261904Y-119657142D01*
X148309523Y-119561904D01*
X148309523Y-119323809D01*
X148261904Y-119228571D01*
X148214285Y-119180952D01*
X148119047Y-119133333D01*
X147928571Y-119133333D01*
X147833333Y-119180952D01*
X147785714Y-119228571D01*
X147738095Y-119323809D01*
X130234761Y-122882619D02*
X130139523Y-122835000D01*
X130044285Y-122739761D01*
X129901428Y-122596904D01*
X129806190Y-122549285D01*
X129710952Y-122549285D01*
X129758571Y-122787380D02*
X129663333Y-122739761D01*
X129568095Y-122644523D01*
X129520476Y-122454047D01*
X129520476Y-122120714D01*
X129568095Y-121930238D01*
X129663333Y-121835000D01*
X129758571Y-121787380D01*
X129949047Y-121787380D01*
X130044285Y-121835000D01*
X130139523Y-121930238D01*
X130187142Y-122120714D01*
X130187142Y-122454047D01*
X130139523Y-122644523D01*
X130044285Y-122739761D01*
X129949047Y-122787380D01*
X129758571Y-122787380D01*
X131091904Y-121787380D02*
X130615714Y-121787380D01*
X130568095Y-122263571D01*
X130615714Y-122215952D01*
X130710952Y-122168333D01*
X130949047Y-122168333D01*
X131044285Y-122215952D01*
X131091904Y-122263571D01*
X131139523Y-122358809D01*
X131139523Y-122596904D01*
X131091904Y-122692142D01*
X131044285Y-122739761D01*
X130949047Y-122787380D01*
X130710952Y-122787380D01*
X130615714Y-122739761D01*
X130568095Y-122692142D01*
X154468095Y-87152380D02*
X154468095Y-87961904D01*
X154515714Y-88057142D01*
X154563333Y-88104761D01*
X154658571Y-88152380D01*
X154849047Y-88152380D01*
X154944285Y-88104761D01*
X154991904Y-88057142D01*
X155039523Y-87961904D01*
X155039523Y-87152380D01*
X155944285Y-87485714D02*
X155944285Y-88152380D01*
X155706190Y-87104761D02*
X155468095Y-87819047D01*
X156087142Y-87819047D01*
X134538095Y-87252380D02*
X134538095Y-88061904D01*
X134585714Y-88157142D01*
X134633333Y-88204761D01*
X134728571Y-88252380D01*
X134919047Y-88252380D01*
X135014285Y-88204761D01*
X135061904Y-88157142D01*
X135109523Y-88061904D01*
X135109523Y-87252380D01*
X135490476Y-87252380D02*
X136109523Y-87252380D01*
X135776190Y-87633333D01*
X135919047Y-87633333D01*
X136014285Y-87680952D01*
X136061904Y-87728571D01*
X136109523Y-87823809D01*
X136109523Y-88061904D01*
X136061904Y-88157142D01*
X136014285Y-88204761D01*
X135919047Y-88252380D01*
X135633333Y-88252380D01*
X135538095Y-88204761D01*
X135490476Y-88157142D01*
X147657142Y-113852380D02*
X147323809Y-113376190D01*
X147085714Y-113852380D02*
X147085714Y-112852380D01*
X147466666Y-112852380D01*
X147561904Y-112900000D01*
X147609523Y-112947619D01*
X147657142Y-113042857D01*
X147657142Y-113185714D01*
X147609523Y-113280952D01*
X147561904Y-113328571D01*
X147466666Y-113376190D01*
X147085714Y-113376190D01*
X148609523Y-113852380D02*
X148038095Y-113852380D01*
X148323809Y-113852380D02*
X148323809Y-112852380D01*
X148228571Y-112995238D01*
X148133333Y-113090476D01*
X148038095Y-113138095D01*
X149466666Y-112852380D02*
X149276190Y-112852380D01*
X149180952Y-112900000D01*
X149133333Y-112947619D01*
X149038095Y-113090476D01*
X148990476Y-113280952D01*
X148990476Y-113661904D01*
X149038095Y-113757142D01*
X149085714Y-113804761D01*
X149180952Y-113852380D01*
X149371428Y-113852380D01*
X149466666Y-113804761D01*
X149514285Y-113757142D01*
X149561904Y-113661904D01*
X149561904Y-113423809D01*
X149514285Y-113328571D01*
X149466666Y-113280952D01*
X149371428Y-113233333D01*
X149180952Y-113233333D01*
X149085714Y-113280952D01*
X149038095Y-113328571D01*
X148990476Y-113423809D01*
X158907380Y-116800357D02*
X158431190Y-117133690D01*
X158907380Y-117371785D02*
X157907380Y-117371785D01*
X157907380Y-116990833D01*
X157955000Y-116895595D01*
X158002619Y-116847976D01*
X158097857Y-116800357D01*
X158240714Y-116800357D01*
X158335952Y-116847976D01*
X158383571Y-116895595D01*
X158431190Y-116990833D01*
X158431190Y-117371785D01*
X158907380Y-115847976D02*
X158907380Y-116419404D01*
X158907380Y-116133690D02*
X157907380Y-116133690D01*
X158050238Y-116228928D01*
X158145476Y-116324166D01*
X158193095Y-116419404D01*
X157907380Y-114943214D02*
X157907380Y-115419404D01*
X158383571Y-115467023D01*
X158335952Y-115419404D01*
X158288333Y-115324166D01*
X158288333Y-115086071D01*
X158335952Y-114990833D01*
X158383571Y-114943214D01*
X158478809Y-114895595D01*
X158716904Y-114895595D01*
X158812142Y-114943214D01*
X158859761Y-114990833D01*
X158907380Y-115086071D01*
X158907380Y-115324166D01*
X158859761Y-115419404D01*
X158812142Y-115467023D01*
X153852380Y-120375357D02*
X153376190Y-120708690D01*
X153852380Y-120946785D02*
X152852380Y-120946785D01*
X152852380Y-120565833D01*
X152900000Y-120470595D01*
X152947619Y-120422976D01*
X153042857Y-120375357D01*
X153185714Y-120375357D01*
X153280952Y-120422976D01*
X153328571Y-120470595D01*
X153376190Y-120565833D01*
X153376190Y-120946785D01*
X153852380Y-119422976D02*
X153852380Y-119994404D01*
X153852380Y-119708690D02*
X152852380Y-119708690D01*
X152995238Y-119803928D01*
X153090476Y-119899166D01*
X153138095Y-119994404D01*
X153185714Y-118565833D02*
X153852380Y-118565833D01*
X152804761Y-118803928D02*
X153519047Y-119042023D01*
X153519047Y-118422976D01*
X155852380Y-120342857D02*
X155376190Y-120676190D01*
X155852380Y-120914285D02*
X154852380Y-120914285D01*
X154852380Y-120533333D01*
X154900000Y-120438095D01*
X154947619Y-120390476D01*
X155042857Y-120342857D01*
X155185714Y-120342857D01*
X155280952Y-120390476D01*
X155328571Y-120438095D01*
X155376190Y-120533333D01*
X155376190Y-120914285D01*
X155852380Y-119390476D02*
X155852380Y-119961904D01*
X155852380Y-119676190D02*
X154852380Y-119676190D01*
X154995238Y-119771428D01*
X155090476Y-119866666D01*
X155138095Y-119961904D01*
X154852380Y-119057142D02*
X154852380Y-118438095D01*
X155233333Y-118771428D01*
X155233333Y-118628571D01*
X155280952Y-118533333D01*
X155328571Y-118485714D01*
X155423809Y-118438095D01*
X155661904Y-118438095D01*
X155757142Y-118485714D01*
X155804761Y-118533333D01*
X155852380Y-118628571D01*
X155852380Y-118914285D01*
X155804761Y-119009523D01*
X155757142Y-119057142D01*
X157852380Y-120342857D02*
X157376190Y-120676190D01*
X157852380Y-120914285D02*
X156852380Y-120914285D01*
X156852380Y-120533333D01*
X156900000Y-120438095D01*
X156947619Y-120390476D01*
X157042857Y-120342857D01*
X157185714Y-120342857D01*
X157280952Y-120390476D01*
X157328571Y-120438095D01*
X157376190Y-120533333D01*
X157376190Y-120914285D01*
X157852380Y-119390476D02*
X157852380Y-119961904D01*
X157852380Y-119676190D02*
X156852380Y-119676190D01*
X156995238Y-119771428D01*
X157090476Y-119866666D01*
X157138095Y-119961904D01*
X156947619Y-119009523D02*
X156900000Y-118961904D01*
X156852380Y-118866666D01*
X156852380Y-118628571D01*
X156900000Y-118533333D01*
X156947619Y-118485714D01*
X157042857Y-118438095D01*
X157138095Y-118438095D01*
X157280952Y-118485714D01*
X157852380Y-119057142D01*
X157852380Y-118438095D01*
X159852380Y-120242857D02*
X159376190Y-120576190D01*
X159852380Y-120814285D02*
X158852380Y-120814285D01*
X158852380Y-120433333D01*
X158900000Y-120338095D01*
X158947619Y-120290476D01*
X159042857Y-120242857D01*
X159185714Y-120242857D01*
X159280952Y-120290476D01*
X159328571Y-120338095D01*
X159376190Y-120433333D01*
X159376190Y-120814285D01*
X159852380Y-119290476D02*
X159852380Y-119861904D01*
X159852380Y-119576190D02*
X158852380Y-119576190D01*
X158995238Y-119671428D01*
X159090476Y-119766666D01*
X159138095Y-119861904D01*
X159852380Y-118338095D02*
X159852380Y-118909523D01*
X159852380Y-118623809D02*
X158852380Y-118623809D01*
X158995238Y-118719047D01*
X159090476Y-118814285D01*
X159138095Y-118909523D01*
X151552380Y-91442857D02*
X151076190Y-91776190D01*
X151552380Y-92014285D02*
X150552380Y-92014285D01*
X150552380Y-91633333D01*
X150600000Y-91538095D01*
X150647619Y-91490476D01*
X150742857Y-91442857D01*
X150885714Y-91442857D01*
X150980952Y-91490476D01*
X151028571Y-91538095D01*
X151076190Y-91633333D01*
X151076190Y-92014285D01*
X151552380Y-90490476D02*
X151552380Y-91061904D01*
X151552380Y-90776190D02*
X150552380Y-90776190D01*
X150695238Y-90871428D01*
X150790476Y-90966666D01*
X150838095Y-91061904D01*
X150552380Y-89871428D02*
X150552380Y-89776190D01*
X150600000Y-89680952D01*
X150647619Y-89633333D01*
X150742857Y-89585714D01*
X150933333Y-89538095D01*
X151171428Y-89538095D01*
X151361904Y-89585714D01*
X151457142Y-89633333D01*
X151504761Y-89680952D01*
X151552380Y-89776190D01*
X151552380Y-89871428D01*
X151504761Y-89966666D01*
X151457142Y-90014285D01*
X151361904Y-90061904D01*
X151171428Y-90109523D01*
X150933333Y-90109523D01*
X150742857Y-90061904D01*
X150647619Y-90014285D01*
X150600000Y-89966666D01*
X150552380Y-89871428D01*
X126913333Y-112752380D02*
X126580000Y-112276190D01*
X126341904Y-112752380D02*
X126341904Y-111752380D01*
X126722857Y-111752380D01*
X126818095Y-111800000D01*
X126865714Y-111847619D01*
X126913333Y-111942857D01*
X126913333Y-112085714D01*
X126865714Y-112180952D01*
X126818095Y-112228571D01*
X126722857Y-112276190D01*
X126341904Y-112276190D01*
X127389523Y-112752380D02*
X127580000Y-112752380D01*
X127675238Y-112704761D01*
X127722857Y-112657142D01*
X127818095Y-112514285D01*
X127865714Y-112323809D01*
X127865714Y-111942857D01*
X127818095Y-111847619D01*
X127770476Y-111800000D01*
X127675238Y-111752380D01*
X127484761Y-111752380D01*
X127389523Y-111800000D01*
X127341904Y-111847619D01*
X127294285Y-111942857D01*
X127294285Y-112180952D01*
X127341904Y-112276190D01*
X127389523Y-112323809D01*
X127484761Y-112371428D01*
X127675238Y-112371428D01*
X127770476Y-112323809D01*
X127818095Y-112276190D01*
X127865714Y-112180952D01*
X137952380Y-113666666D02*
X137476190Y-114000000D01*
X137952380Y-114238095D02*
X136952380Y-114238095D01*
X136952380Y-113857142D01*
X137000000Y-113761904D01*
X137047619Y-113714285D01*
X137142857Y-113666666D01*
X137285714Y-113666666D01*
X137380952Y-113714285D01*
X137428571Y-113761904D01*
X137476190Y-113857142D01*
X137476190Y-114238095D01*
X137380952Y-113095238D02*
X137333333Y-113190476D01*
X137285714Y-113238095D01*
X137190476Y-113285714D01*
X137142857Y-113285714D01*
X137047619Y-113238095D01*
X137000000Y-113190476D01*
X136952380Y-113095238D01*
X136952380Y-112904761D01*
X137000000Y-112809523D01*
X137047619Y-112761904D01*
X137142857Y-112714285D01*
X137190476Y-112714285D01*
X137285714Y-112761904D01*
X137333333Y-112809523D01*
X137380952Y-112904761D01*
X137380952Y-113095238D01*
X137428571Y-113190476D01*
X137476190Y-113238095D01*
X137571428Y-113285714D01*
X137761904Y-113285714D01*
X137857142Y-113238095D01*
X137904761Y-113190476D01*
X137952380Y-113095238D01*
X137952380Y-112904761D01*
X137904761Y-112809523D01*
X137857142Y-112761904D01*
X137761904Y-112714285D01*
X137571428Y-112714285D01*
X137476190Y-112761904D01*
X137428571Y-112809523D01*
X137380952Y-112904761D01*
X136752380Y-113666666D02*
X136276190Y-114000000D01*
X136752380Y-114238095D02*
X135752380Y-114238095D01*
X135752380Y-113857142D01*
X135800000Y-113761904D01*
X135847619Y-113714285D01*
X135942857Y-113666666D01*
X136085714Y-113666666D01*
X136180952Y-113714285D01*
X136228571Y-113761904D01*
X136276190Y-113857142D01*
X136276190Y-114238095D01*
X135752380Y-113333333D02*
X135752380Y-112666666D01*
X136752380Y-113095238D01*
X127372380Y-120579166D02*
X126896190Y-120912500D01*
X127372380Y-121150595D02*
X126372380Y-121150595D01*
X126372380Y-120769642D01*
X126420000Y-120674404D01*
X126467619Y-120626785D01*
X126562857Y-120579166D01*
X126705714Y-120579166D01*
X126800952Y-120626785D01*
X126848571Y-120674404D01*
X126896190Y-120769642D01*
X126896190Y-121150595D01*
X126372380Y-119722023D02*
X126372380Y-119912500D01*
X126420000Y-120007738D01*
X126467619Y-120055357D01*
X126610476Y-120150595D01*
X126800952Y-120198214D01*
X127181904Y-120198214D01*
X127277142Y-120150595D01*
X127324761Y-120102976D01*
X127372380Y-120007738D01*
X127372380Y-119817261D01*
X127324761Y-119722023D01*
X127277142Y-119674404D01*
X127181904Y-119626785D01*
X126943809Y-119626785D01*
X126848571Y-119674404D01*
X126800952Y-119722023D01*
X126753333Y-119817261D01*
X126753333Y-120007738D01*
X126800952Y-120102976D01*
X126848571Y-120150595D01*
X126943809Y-120198214D01*
X144233333Y-88852380D02*
X143900000Y-88376190D01*
X143661904Y-88852380D02*
X143661904Y-87852380D01*
X144042857Y-87852380D01*
X144138095Y-87900000D01*
X144185714Y-87947619D01*
X144233333Y-88042857D01*
X144233333Y-88185714D01*
X144185714Y-88280952D01*
X144138095Y-88328571D01*
X144042857Y-88376190D01*
X143661904Y-88376190D01*
X145138095Y-87852380D02*
X144661904Y-87852380D01*
X144614285Y-88328571D01*
X144661904Y-88280952D01*
X144757142Y-88233333D01*
X144995238Y-88233333D01*
X145090476Y-88280952D01*
X145138095Y-88328571D01*
X145185714Y-88423809D01*
X145185714Y-88661904D01*
X145138095Y-88757142D01*
X145090476Y-88804761D01*
X144995238Y-88852380D01*
X144757142Y-88852380D01*
X144661904Y-88804761D01*
X144614285Y-88757142D01*
X133002380Y-94766666D02*
X132526190Y-95100000D01*
X133002380Y-95338095D02*
X132002380Y-95338095D01*
X132002380Y-94957142D01*
X132050000Y-94861904D01*
X132097619Y-94814285D01*
X132192857Y-94766666D01*
X132335714Y-94766666D01*
X132430952Y-94814285D01*
X132478571Y-94861904D01*
X132526190Y-94957142D01*
X132526190Y-95338095D01*
X132335714Y-93909523D02*
X133002380Y-93909523D01*
X131954761Y-94147619D02*
X132669047Y-94385714D01*
X132669047Y-93766666D01*
X157402380Y-94766666D02*
X156926190Y-95100000D01*
X157402380Y-95338095D02*
X156402380Y-95338095D01*
X156402380Y-94957142D01*
X156450000Y-94861904D01*
X156497619Y-94814285D01*
X156592857Y-94766666D01*
X156735714Y-94766666D01*
X156830952Y-94814285D01*
X156878571Y-94861904D01*
X156926190Y-94957142D01*
X156926190Y-95338095D01*
X156402380Y-94433333D02*
X156402380Y-93814285D01*
X156783333Y-94147619D01*
X156783333Y-94004761D01*
X156830952Y-93909523D01*
X156878571Y-93861904D01*
X156973809Y-93814285D01*
X157211904Y-93814285D01*
X157307142Y-93861904D01*
X157354761Y-93909523D01*
X157402380Y-94004761D01*
X157402380Y-94290476D01*
X157354761Y-94385714D01*
X157307142Y-94433333D01*
X146333333Y-88702380D02*
X146000000Y-88226190D01*
X145761904Y-88702380D02*
X145761904Y-87702380D01*
X146142857Y-87702380D01*
X146238095Y-87750000D01*
X146285714Y-87797619D01*
X146333333Y-87892857D01*
X146333333Y-88035714D01*
X146285714Y-88130952D01*
X146238095Y-88178571D01*
X146142857Y-88226190D01*
X145761904Y-88226190D01*
X146714285Y-87797619D02*
X146761904Y-87750000D01*
X146857142Y-87702380D01*
X147095238Y-87702380D01*
X147190476Y-87750000D01*
X147238095Y-87797619D01*
X147285714Y-87892857D01*
X147285714Y-87988095D01*
X147238095Y-88130952D01*
X146666666Y-88702380D01*
X147285714Y-88702380D01*
X131702380Y-90969166D02*
X131226190Y-91302500D01*
X131702380Y-91540595D02*
X130702380Y-91540595D01*
X130702380Y-91159642D01*
X130750000Y-91064404D01*
X130797619Y-91016785D01*
X130892857Y-90969166D01*
X131035714Y-90969166D01*
X131130952Y-91016785D01*
X131178571Y-91064404D01*
X131226190Y-91159642D01*
X131226190Y-91540595D01*
X131702380Y-90016785D02*
X131702380Y-90588214D01*
X131702380Y-90302500D02*
X130702380Y-90302500D01*
X130845238Y-90397738D01*
X130940476Y-90492976D01*
X130988095Y-90588214D01*
X153177380Y-116817857D02*
X153177380Y-117294047D01*
X152177380Y-117294047D01*
X153129761Y-116532142D02*
X153177380Y-116389285D01*
X153177380Y-116151190D01*
X153129761Y-116055952D01*
X153082142Y-116008333D01*
X152986904Y-115960714D01*
X152891666Y-115960714D01*
X152796428Y-116008333D01*
X152748809Y-116055952D01*
X152701190Y-116151190D01*
X152653571Y-116341666D01*
X152605952Y-116436904D01*
X152558333Y-116484523D01*
X152463095Y-116532142D01*
X152367857Y-116532142D01*
X152272619Y-116484523D01*
X152225000Y-116436904D01*
X152177380Y-116341666D01*
X152177380Y-116103571D01*
X152225000Y-115960714D01*
X153177380Y-115008333D02*
X153177380Y-115579761D01*
X153177380Y-115294047D02*
X152177380Y-115294047D01*
X152320238Y-115389285D01*
X152415476Y-115484523D01*
X152463095Y-115579761D01*
X140920476Y-119322380D02*
X140920476Y-120036666D01*
X140872857Y-120179523D01*
X140777619Y-120274761D01*
X140634761Y-120322380D01*
X140539523Y-120322380D01*
X141920476Y-120322380D02*
X141349047Y-120322380D01*
X141634761Y-120322380D02*
X141634761Y-119322380D01*
X141539523Y-119465238D01*
X141444285Y-119560476D01*
X141349047Y-119608095D01*
X142539523Y-119322380D02*
X142634761Y-119322380D01*
X142730000Y-119370000D01*
X142777619Y-119417619D01*
X142825238Y-119512857D01*
X142872857Y-119703333D01*
X142872857Y-119941428D01*
X142825238Y-120131904D01*
X142777619Y-120227142D01*
X142730000Y-120274761D01*
X142634761Y-120322380D01*
X142539523Y-120322380D01*
X142444285Y-120274761D01*
X142396666Y-120227142D01*
X142349047Y-120131904D01*
X142301428Y-119941428D01*
X142301428Y-119703333D01*
X142349047Y-119512857D01*
X142396666Y-119417619D01*
X142444285Y-119370000D01*
X142539523Y-119322380D01*
X130266666Y-111652380D02*
X130266666Y-112366666D01*
X130219047Y-112509523D01*
X130123809Y-112604761D01*
X129980952Y-112652380D01*
X129885714Y-112652380D01*
X130647619Y-111652380D02*
X131266666Y-111652380D01*
X130933333Y-112033333D01*
X131076190Y-112033333D01*
X131171428Y-112080952D01*
X131219047Y-112128571D01*
X131266666Y-112223809D01*
X131266666Y-112461904D01*
X131219047Y-112557142D01*
X131171428Y-112604761D01*
X131076190Y-112652380D01*
X130790476Y-112652380D01*
X130695238Y-112604761D01*
X130647619Y-112557142D01*
X155852380Y-122638095D02*
X154852380Y-122638095D01*
X154852380Y-122400000D01*
X154900000Y-122257142D01*
X154995238Y-122161904D01*
X155090476Y-122114285D01*
X155280952Y-122066666D01*
X155423809Y-122066666D01*
X155614285Y-122114285D01*
X155709523Y-122161904D01*
X155804761Y-122257142D01*
X155852380Y-122400000D01*
X155852380Y-122638095D01*
X155280952Y-121495238D02*
X155233333Y-121590476D01*
X155185714Y-121638095D01*
X155090476Y-121685714D01*
X155042857Y-121685714D01*
X154947619Y-121638095D01*
X154900000Y-121590476D01*
X154852380Y-121495238D01*
X154852380Y-121304761D01*
X154900000Y-121209523D01*
X154947619Y-121161904D01*
X155042857Y-121114285D01*
X155090476Y-121114285D01*
X155185714Y-121161904D01*
X155233333Y-121209523D01*
X155280952Y-121304761D01*
X155280952Y-121495238D01*
X155328571Y-121590476D01*
X155376190Y-121638095D01*
X155471428Y-121685714D01*
X155661904Y-121685714D01*
X155757142Y-121638095D01*
X155804761Y-121590476D01*
X155852380Y-121495238D01*
X155852380Y-121304761D01*
X155804761Y-121209523D01*
X155757142Y-121161904D01*
X155661904Y-121114285D01*
X155471428Y-121114285D01*
X155376190Y-121161904D01*
X155328571Y-121209523D01*
X155280952Y-121304761D01*
X159962380Y-122638095D02*
X158962380Y-122638095D01*
X158962380Y-122400000D01*
X159010000Y-122257142D01*
X159105238Y-122161904D01*
X159200476Y-122114285D01*
X159390952Y-122066666D01*
X159533809Y-122066666D01*
X159724285Y-122114285D01*
X159819523Y-122161904D01*
X159914761Y-122257142D01*
X159962380Y-122400000D01*
X159962380Y-122638095D01*
X158962380Y-121209523D02*
X158962380Y-121400000D01*
X159010000Y-121495238D01*
X159057619Y-121542857D01*
X159200476Y-121638095D01*
X159390952Y-121685714D01*
X159771904Y-121685714D01*
X159867142Y-121638095D01*
X159914761Y-121590476D01*
X159962380Y-121495238D01*
X159962380Y-121304761D01*
X159914761Y-121209523D01*
X159867142Y-121161904D01*
X159771904Y-121114285D01*
X159533809Y-121114285D01*
X159438571Y-121161904D01*
X159390952Y-121209523D01*
X159343333Y-121304761D01*
X159343333Y-121495238D01*
X159390952Y-121590476D01*
X159438571Y-121638095D01*
X159533809Y-121685714D01*
X126022380Y-117998095D02*
X125022380Y-117998095D01*
X125022380Y-117760000D01*
X125070000Y-117617142D01*
X125165238Y-117521904D01*
X125260476Y-117474285D01*
X125450952Y-117426666D01*
X125593809Y-117426666D01*
X125784285Y-117474285D01*
X125879523Y-117521904D01*
X125974761Y-117617142D01*
X126022380Y-117760000D01*
X126022380Y-117998095D01*
X125022380Y-117093333D02*
X125022380Y-116474285D01*
X125403333Y-116807619D01*
X125403333Y-116664761D01*
X125450952Y-116569523D01*
X125498571Y-116521904D01*
X125593809Y-116474285D01*
X125831904Y-116474285D01*
X125927142Y-116521904D01*
X125974761Y-116569523D01*
X126022380Y-116664761D01*
X126022380Y-116950476D01*
X125974761Y-117045714D01*
X125927142Y-117093333D01*
X149957142Y-103957142D02*
X149909523Y-104004761D01*
X149766666Y-104052380D01*
X149671428Y-104052380D01*
X149528571Y-104004761D01*
X149433333Y-103909523D01*
X149385714Y-103814285D01*
X149338095Y-103623809D01*
X149338095Y-103480952D01*
X149385714Y-103290476D01*
X149433333Y-103195238D01*
X149528571Y-103100000D01*
X149671428Y-103052380D01*
X149766666Y-103052380D01*
X149909523Y-103100000D01*
X149957142Y-103147619D01*
X150290476Y-103052380D02*
X150909523Y-103052380D01*
X150576190Y-103433333D01*
X150719047Y-103433333D01*
X150814285Y-103480952D01*
X150861904Y-103528571D01*
X150909523Y-103623809D01*
X150909523Y-103861904D01*
X150861904Y-103957142D01*
X150814285Y-104004761D01*
X150719047Y-104052380D01*
X150433333Y-104052380D01*
X150338095Y-104004761D01*
X150290476Y-103957142D01*
X151290476Y-103147619D02*
X151338095Y-103100000D01*
X151433333Y-103052380D01*
X151671428Y-103052380D01*
X151766666Y-103100000D01*
X151814285Y-103147619D01*
X151861904Y-103242857D01*
X151861904Y-103338095D01*
X151814285Y-103480952D01*
X151242857Y-104052380D01*
X151861904Y-104052380D01*
X133357142Y-93157142D02*
X133309523Y-93204761D01*
X133166666Y-93252380D01*
X133071428Y-93252380D01*
X132928571Y-93204761D01*
X132833333Y-93109523D01*
X132785714Y-93014285D01*
X132738095Y-92823809D01*
X132738095Y-92680952D01*
X132785714Y-92490476D01*
X132833333Y-92395238D01*
X132928571Y-92300000D01*
X133071428Y-92252380D01*
X133166666Y-92252380D01*
X133309523Y-92300000D01*
X133357142Y-92347619D01*
X133690476Y-92252380D02*
X134309523Y-92252380D01*
X133976190Y-92633333D01*
X134119047Y-92633333D01*
X134214285Y-92680952D01*
X134261904Y-92728571D01*
X134309523Y-92823809D01*
X134309523Y-93061904D01*
X134261904Y-93157142D01*
X134214285Y-93204761D01*
X134119047Y-93252380D01*
X133833333Y-93252380D01*
X133738095Y-93204761D01*
X133690476Y-93157142D01*
X134928571Y-92252380D02*
X135023809Y-92252380D01*
X135119047Y-92300000D01*
X135166666Y-92347619D01*
X135214285Y-92442857D01*
X135261904Y-92633333D01*
X135261904Y-92871428D01*
X135214285Y-93061904D01*
X135166666Y-93157142D01*
X135119047Y-93204761D01*
X135023809Y-93252380D01*
X134928571Y-93252380D01*
X134833333Y-93204761D01*
X134785714Y-93157142D01*
X134738095Y-93061904D01*
X134690476Y-92871428D01*
X134690476Y-92633333D01*
X134738095Y-92442857D01*
X134785714Y-92347619D01*
X134833333Y-92300000D01*
X134928571Y-92252380D01*
X150157142Y-99707142D02*
X150109523Y-99754761D01*
X149966666Y-99802380D01*
X149871428Y-99802380D01*
X149728571Y-99754761D01*
X149633333Y-99659523D01*
X149585714Y-99564285D01*
X149538095Y-99373809D01*
X149538095Y-99230952D01*
X149585714Y-99040476D01*
X149633333Y-98945238D01*
X149728571Y-98850000D01*
X149871428Y-98802380D01*
X149966666Y-98802380D01*
X150109523Y-98850000D01*
X150157142Y-98897619D01*
X150538095Y-98897619D02*
X150585714Y-98850000D01*
X150680952Y-98802380D01*
X150919047Y-98802380D01*
X151014285Y-98850000D01*
X151061904Y-98897619D01*
X151109523Y-98992857D01*
X151109523Y-99088095D01*
X151061904Y-99230952D01*
X150490476Y-99802380D01*
X151109523Y-99802380D01*
X151585714Y-99802380D02*
X151776190Y-99802380D01*
X151871428Y-99754761D01*
X151919047Y-99707142D01*
X152014285Y-99564285D01*
X152061904Y-99373809D01*
X152061904Y-98992857D01*
X152014285Y-98897619D01*
X151966666Y-98850000D01*
X151871428Y-98802380D01*
X151680952Y-98802380D01*
X151585714Y-98850000D01*
X151538095Y-98897619D01*
X151490476Y-98992857D01*
X151490476Y-99230952D01*
X151538095Y-99326190D01*
X151585714Y-99373809D01*
X151680952Y-99421428D01*
X151871428Y-99421428D01*
X151966666Y-99373809D01*
X152014285Y-99326190D01*
X152061904Y-99230952D01*
X147657142Y-101557142D02*
X147609523Y-101604761D01*
X147466666Y-101652380D01*
X147371428Y-101652380D01*
X147228571Y-101604761D01*
X147133333Y-101509523D01*
X147085714Y-101414285D01*
X147038095Y-101223809D01*
X147038095Y-101080952D01*
X147085714Y-100890476D01*
X147133333Y-100795238D01*
X147228571Y-100700000D01*
X147371428Y-100652380D01*
X147466666Y-100652380D01*
X147609523Y-100700000D01*
X147657142Y-100747619D01*
X148038095Y-100747619D02*
X148085714Y-100700000D01*
X148180952Y-100652380D01*
X148419047Y-100652380D01*
X148514285Y-100700000D01*
X148561904Y-100747619D01*
X148609523Y-100842857D01*
X148609523Y-100938095D01*
X148561904Y-101080952D01*
X147990476Y-101652380D01*
X148609523Y-101652380D01*
X149466666Y-100652380D02*
X149276190Y-100652380D01*
X149180952Y-100700000D01*
X149133333Y-100747619D01*
X149038095Y-100890476D01*
X148990476Y-101080952D01*
X148990476Y-101461904D01*
X149038095Y-101557142D01*
X149085714Y-101604761D01*
X149180952Y-101652380D01*
X149371428Y-101652380D01*
X149466666Y-101604761D01*
X149514285Y-101557142D01*
X149561904Y-101461904D01*
X149561904Y-101223809D01*
X149514285Y-101128571D01*
X149466666Y-101080952D01*
X149371428Y-101033333D01*
X149180952Y-101033333D01*
X149085714Y-101080952D01*
X149038095Y-101128571D01*
X148990476Y-101223809D01*
X154457142Y-93057142D02*
X154409523Y-93104761D01*
X154266666Y-93152380D01*
X154171428Y-93152380D01*
X154028571Y-93104761D01*
X153933333Y-93009523D01*
X153885714Y-92914285D01*
X153838095Y-92723809D01*
X153838095Y-92580952D01*
X153885714Y-92390476D01*
X153933333Y-92295238D01*
X154028571Y-92200000D01*
X154171428Y-92152380D01*
X154266666Y-92152380D01*
X154409523Y-92200000D01*
X154457142Y-92247619D01*
X154838095Y-92247619D02*
X154885714Y-92200000D01*
X154980952Y-92152380D01*
X155219047Y-92152380D01*
X155314285Y-92200000D01*
X155361904Y-92247619D01*
X155409523Y-92342857D01*
X155409523Y-92438095D01*
X155361904Y-92580952D01*
X154790476Y-93152380D01*
X155409523Y-93152380D01*
X156314285Y-92152380D02*
X155838095Y-92152380D01*
X155790476Y-92628571D01*
X155838095Y-92580952D01*
X155933333Y-92533333D01*
X156171428Y-92533333D01*
X156266666Y-92580952D01*
X156314285Y-92628571D01*
X156361904Y-92723809D01*
X156361904Y-92961904D01*
X156314285Y-93057142D01*
X156266666Y-93104761D01*
X156171428Y-93152380D01*
X155933333Y-93152380D01*
X155838095Y-93104761D01*
X155790476Y-93057142D01*
X138057142Y-94157142D02*
X138009523Y-94204761D01*
X137866666Y-94252380D01*
X137771428Y-94252380D01*
X137628571Y-94204761D01*
X137533333Y-94109523D01*
X137485714Y-94014285D01*
X137438095Y-93823809D01*
X137438095Y-93680952D01*
X137485714Y-93490476D01*
X137533333Y-93395238D01*
X137628571Y-93300000D01*
X137771428Y-93252380D01*
X137866666Y-93252380D01*
X138009523Y-93300000D01*
X138057142Y-93347619D01*
X138438095Y-93347619D02*
X138485714Y-93300000D01*
X138580952Y-93252380D01*
X138819047Y-93252380D01*
X138914285Y-93300000D01*
X138961904Y-93347619D01*
X139009523Y-93442857D01*
X139009523Y-93538095D01*
X138961904Y-93680952D01*
X138390476Y-94252380D01*
X139009523Y-94252380D01*
X139866666Y-93585714D02*
X139866666Y-94252380D01*
X139628571Y-93204761D02*
X139390476Y-93919047D01*
X140009523Y-93919047D01*
X158812142Y-113692857D02*
X158859761Y-113740476D01*
X158907380Y-113883333D01*
X158907380Y-113978571D01*
X158859761Y-114121428D01*
X158764523Y-114216666D01*
X158669285Y-114264285D01*
X158478809Y-114311904D01*
X158335952Y-114311904D01*
X158145476Y-114264285D01*
X158050238Y-114216666D01*
X157955000Y-114121428D01*
X157907380Y-113978571D01*
X157907380Y-113883333D01*
X157955000Y-113740476D01*
X158002619Y-113692857D01*
X158002619Y-113311904D02*
X157955000Y-113264285D01*
X157907380Y-113169047D01*
X157907380Y-112930952D01*
X157955000Y-112835714D01*
X158002619Y-112788095D01*
X158097857Y-112740476D01*
X158193095Y-112740476D01*
X158335952Y-112788095D01*
X158907380Y-113359523D01*
X158907380Y-112740476D01*
X157907380Y-112407142D02*
X157907380Y-111788095D01*
X158288333Y-112121428D01*
X158288333Y-111978571D01*
X158335952Y-111883333D01*
X158383571Y-111835714D01*
X158478809Y-111788095D01*
X158716904Y-111788095D01*
X158812142Y-111835714D01*
X158859761Y-111883333D01*
X158907380Y-111978571D01*
X158907380Y-112264285D01*
X158859761Y-112359523D01*
X158812142Y-112407142D01*
X158757142Y-92742857D02*
X158804761Y-92790476D01*
X158852380Y-92933333D01*
X158852380Y-93028571D01*
X158804761Y-93171428D01*
X158709523Y-93266666D01*
X158614285Y-93314285D01*
X158423809Y-93361904D01*
X158280952Y-93361904D01*
X158090476Y-93314285D01*
X157995238Y-93266666D01*
X157900000Y-93171428D01*
X157852380Y-93028571D01*
X157852380Y-92933333D01*
X157900000Y-92790476D01*
X157947619Y-92742857D01*
X157947619Y-92361904D02*
X157900000Y-92314285D01*
X157852380Y-92219047D01*
X157852380Y-91980952D01*
X157900000Y-91885714D01*
X157947619Y-91838095D01*
X158042857Y-91790476D01*
X158138095Y-91790476D01*
X158280952Y-91838095D01*
X158852380Y-92409523D01*
X158852380Y-91790476D01*
X157947619Y-91409523D02*
X157900000Y-91361904D01*
X157852380Y-91266666D01*
X157852380Y-91028571D01*
X157900000Y-90933333D01*
X157947619Y-90885714D01*
X158042857Y-90838095D01*
X158138095Y-90838095D01*
X158280952Y-90885714D01*
X158852380Y-91457142D01*
X158852380Y-90838095D01*
X139057142Y-113842857D02*
X139104761Y-113890476D01*
X139152380Y-114033333D01*
X139152380Y-114128571D01*
X139104761Y-114271428D01*
X139009523Y-114366666D01*
X138914285Y-114414285D01*
X138723809Y-114461904D01*
X138580952Y-114461904D01*
X138390476Y-114414285D01*
X138295238Y-114366666D01*
X138200000Y-114271428D01*
X138152380Y-114128571D01*
X138152380Y-114033333D01*
X138200000Y-113890476D01*
X138247619Y-113842857D01*
X139152380Y-112890476D02*
X139152380Y-113461904D01*
X139152380Y-113176190D02*
X138152380Y-113176190D01*
X138295238Y-113271428D01*
X138390476Y-113366666D01*
X138438095Y-113461904D01*
X139152380Y-112414285D02*
X139152380Y-112223809D01*
X139104761Y-112128571D01*
X139057142Y-112080952D01*
X138914285Y-111985714D01*
X138723809Y-111938095D01*
X138342857Y-111938095D01*
X138247619Y-111985714D01*
X138200000Y-112033333D01*
X138152380Y-112128571D01*
X138152380Y-112319047D01*
X138200000Y-112414285D01*
X138247619Y-112461904D01*
X138342857Y-112509523D01*
X138580952Y-112509523D01*
X138676190Y-112461904D01*
X138723809Y-112414285D01*
X138771428Y-112319047D01*
X138771428Y-112128571D01*
X138723809Y-112033333D01*
X138676190Y-111985714D01*
X138580952Y-111938095D01*
X145857142Y-120342857D02*
X145904761Y-120390476D01*
X145952380Y-120533333D01*
X145952380Y-120628571D01*
X145904761Y-120771428D01*
X145809523Y-120866666D01*
X145714285Y-120914285D01*
X145523809Y-120961904D01*
X145380952Y-120961904D01*
X145190476Y-120914285D01*
X145095238Y-120866666D01*
X145000000Y-120771428D01*
X144952380Y-120628571D01*
X144952380Y-120533333D01*
X145000000Y-120390476D01*
X145047619Y-120342857D01*
X145952380Y-119390476D02*
X145952380Y-119961904D01*
X145952380Y-119676190D02*
X144952380Y-119676190D01*
X145095238Y-119771428D01*
X145190476Y-119866666D01*
X145238095Y-119961904D01*
X144952380Y-118533333D02*
X144952380Y-118723809D01*
X145000000Y-118819047D01*
X145047619Y-118866666D01*
X145190476Y-118961904D01*
X145380952Y-119009523D01*
X145761904Y-119009523D01*
X145857142Y-118961904D01*
X145904761Y-118914285D01*
X145952380Y-118819047D01*
X145952380Y-118628571D01*
X145904761Y-118533333D01*
X145857142Y-118485714D01*
X145761904Y-118438095D01*
X145523809Y-118438095D01*
X145428571Y-118485714D01*
X145380952Y-118533333D01*
X145333333Y-118628571D01*
X145333333Y-118819047D01*
X145380952Y-118914285D01*
X145428571Y-118961904D01*
X145523809Y-119009523D01*
X139707142Y-118242857D02*
X139754761Y-118290476D01*
X139802380Y-118433333D01*
X139802380Y-118528571D01*
X139754761Y-118671428D01*
X139659523Y-118766666D01*
X139564285Y-118814285D01*
X139373809Y-118861904D01*
X139230952Y-118861904D01*
X139040476Y-118814285D01*
X138945238Y-118766666D01*
X138850000Y-118671428D01*
X138802380Y-118528571D01*
X138802380Y-118433333D01*
X138850000Y-118290476D01*
X138897619Y-118242857D01*
X139802380Y-117290476D02*
X139802380Y-117861904D01*
X139802380Y-117576190D02*
X138802380Y-117576190D01*
X138945238Y-117671428D01*
X139040476Y-117766666D01*
X139088095Y-117861904D01*
X138802380Y-116385714D02*
X138802380Y-116861904D01*
X139278571Y-116909523D01*
X139230952Y-116861904D01*
X139183333Y-116766666D01*
X139183333Y-116528571D01*
X139230952Y-116433333D01*
X139278571Y-116385714D01*
X139373809Y-116338095D01*
X139611904Y-116338095D01*
X139707142Y-116385714D01*
X139754761Y-116433333D01*
X139802380Y-116528571D01*
X139802380Y-116766666D01*
X139754761Y-116861904D01*
X139707142Y-116909523D01*
X146757142Y-115542857D02*
X146804761Y-115590476D01*
X146852380Y-115733333D01*
X146852380Y-115828571D01*
X146804761Y-115971428D01*
X146709523Y-116066666D01*
X146614285Y-116114285D01*
X146423809Y-116161904D01*
X146280952Y-116161904D01*
X146090476Y-116114285D01*
X145995238Y-116066666D01*
X145900000Y-115971428D01*
X145852380Y-115828571D01*
X145852380Y-115733333D01*
X145900000Y-115590476D01*
X145947619Y-115542857D01*
X146852380Y-114590476D02*
X146852380Y-115161904D01*
X146852380Y-114876190D02*
X145852380Y-114876190D01*
X145995238Y-114971428D01*
X146090476Y-115066666D01*
X146138095Y-115161904D01*
X146185714Y-113733333D02*
X146852380Y-113733333D01*
X145804761Y-113971428D02*
X146519047Y-114209523D01*
X146519047Y-113590476D01*
X141207142Y-108866666D02*
X141254761Y-108914285D01*
X141302380Y-109057142D01*
X141302380Y-109152380D01*
X141254761Y-109295238D01*
X141159523Y-109390476D01*
X141064285Y-109438095D01*
X140873809Y-109485714D01*
X140730952Y-109485714D01*
X140540476Y-109438095D01*
X140445238Y-109390476D01*
X140350000Y-109295238D01*
X140302380Y-109152380D01*
X140302380Y-109057142D01*
X140350000Y-108914285D01*
X140397619Y-108866666D01*
X141302380Y-108390476D02*
X141302380Y-108200000D01*
X141254761Y-108104761D01*
X141207142Y-108057142D01*
X141064285Y-107961904D01*
X140873809Y-107914285D01*
X140492857Y-107914285D01*
X140397619Y-107961904D01*
X140350000Y-108009523D01*
X140302380Y-108104761D01*
X140302380Y-108295238D01*
X140350000Y-108390476D01*
X140397619Y-108438095D01*
X140492857Y-108485714D01*
X140730952Y-108485714D01*
X140826190Y-108438095D01*
X140873809Y-108390476D01*
X140921428Y-108295238D01*
X140921428Y-108104761D01*
X140873809Y-108009523D01*
X140826190Y-107961904D01*
X140730952Y-107914285D01*
X141257142Y-111966666D02*
X141304761Y-112014285D01*
X141352380Y-112157142D01*
X141352380Y-112252380D01*
X141304761Y-112395238D01*
X141209523Y-112490476D01*
X141114285Y-112538095D01*
X140923809Y-112585714D01*
X140780952Y-112585714D01*
X140590476Y-112538095D01*
X140495238Y-112490476D01*
X140400000Y-112395238D01*
X140352380Y-112252380D01*
X140352380Y-112157142D01*
X140400000Y-112014285D01*
X140447619Y-111966666D01*
X140780952Y-111395238D02*
X140733333Y-111490476D01*
X140685714Y-111538095D01*
X140590476Y-111585714D01*
X140542857Y-111585714D01*
X140447619Y-111538095D01*
X140400000Y-111490476D01*
X140352380Y-111395238D01*
X140352380Y-111204761D01*
X140400000Y-111109523D01*
X140447619Y-111061904D01*
X140542857Y-111014285D01*
X140590476Y-111014285D01*
X140685714Y-111061904D01*
X140733333Y-111109523D01*
X140780952Y-111204761D01*
X140780952Y-111395238D01*
X140828571Y-111490476D01*
X140876190Y-111538095D01*
X140971428Y-111585714D01*
X141161904Y-111585714D01*
X141257142Y-111538095D01*
X141304761Y-111490476D01*
X141352380Y-111395238D01*
X141352380Y-111204761D01*
X141304761Y-111109523D01*
X141257142Y-111061904D01*
X141161904Y-111014285D01*
X140971428Y-111014285D01*
X140876190Y-111061904D01*
X140828571Y-111109523D01*
X140780952Y-111204761D01*
X139727142Y-89906666D02*
X139774761Y-89954285D01*
X139822380Y-90097142D01*
X139822380Y-90192380D01*
X139774761Y-90335238D01*
X139679523Y-90430476D01*
X139584285Y-90478095D01*
X139393809Y-90525714D01*
X139250952Y-90525714D01*
X139060476Y-90478095D01*
X138965238Y-90430476D01*
X138870000Y-90335238D01*
X138822380Y-90192380D01*
X138822380Y-90097142D01*
X138870000Y-89954285D01*
X138917619Y-89906666D01*
X138822380Y-89001904D02*
X138822380Y-89478095D01*
X139298571Y-89525714D01*
X139250952Y-89478095D01*
X139203333Y-89382857D01*
X139203333Y-89144761D01*
X139250952Y-89049523D01*
X139298571Y-89001904D01*
X139393809Y-88954285D01*
X139631904Y-88954285D01*
X139727142Y-89001904D01*
X139774761Y-89049523D01*
X139822380Y-89144761D01*
X139822380Y-89382857D01*
X139774761Y-89478095D01*
X139727142Y-89525714D01*
X148233333Y-104657142D02*
X148185714Y-104704761D01*
X148042857Y-104752380D01*
X147947619Y-104752380D01*
X147804761Y-104704761D01*
X147709523Y-104609523D01*
X147661904Y-104514285D01*
X147614285Y-104323809D01*
X147614285Y-104180952D01*
X147661904Y-103990476D01*
X147709523Y-103895238D01*
X147804761Y-103800000D01*
X147947619Y-103752380D01*
X148042857Y-103752380D01*
X148185714Y-103800000D01*
X148233333Y-103847619D01*
X149090476Y-104085714D02*
X149090476Y-104752380D01*
X148852380Y-103704761D02*
X148614285Y-104419047D01*
X149233333Y-104419047D01*
X140633333Y-105157142D02*
X140585714Y-105204761D01*
X140442857Y-105252380D01*
X140347619Y-105252380D01*
X140204761Y-105204761D01*
X140109523Y-105109523D01*
X140061904Y-105014285D01*
X140014285Y-104823809D01*
X140014285Y-104680952D01*
X140061904Y-104490476D01*
X140109523Y-104395238D01*
X140204761Y-104300000D01*
X140347619Y-104252380D01*
X140442857Y-104252380D01*
X140585714Y-104300000D01*
X140633333Y-104347619D01*
X141014285Y-104347619D02*
X141061904Y-104300000D01*
X141157142Y-104252380D01*
X141395238Y-104252380D01*
X141490476Y-104300000D01*
X141538095Y-104347619D01*
X141585714Y-104442857D01*
X141585714Y-104538095D01*
X141538095Y-104680952D01*
X140966666Y-105252380D01*
X141585714Y-105252380D01*
X140533333Y-101957142D02*
X140485714Y-102004761D01*
X140342857Y-102052380D01*
X140247619Y-102052380D01*
X140104761Y-102004761D01*
X140009523Y-101909523D01*
X139961904Y-101814285D01*
X139914285Y-101623809D01*
X139914285Y-101480952D01*
X139961904Y-101290476D01*
X140009523Y-101195238D01*
X140104761Y-101100000D01*
X140247619Y-101052380D01*
X140342857Y-101052380D01*
X140485714Y-101100000D01*
X140533333Y-101147619D01*
X141485714Y-102052380D02*
X140914285Y-102052380D01*
X141200000Y-102052380D02*
X141200000Y-101052380D01*
X141104761Y-101195238D01*
X141009523Y-101290476D01*
X140914285Y-101338095D01*
M02*
