G04 #@! TF.GenerationSoftware,KiCad,Pcbnew,(5.1.7)-1*
G04 #@! TF.CreationDate,2021-02-27T16:19:37+09:00*
G04 #@! TF.ProjectId,lapis,6c617069-732e-46b6-9963-61645f706362,rev?*
G04 #@! TF.SameCoordinates,Original*
G04 #@! TF.FileFunction,Paste,Top*
G04 #@! TF.FilePolarity,Positive*
%FSLAX46Y46*%
G04 Gerber Fmt 4.6, Leading zero omitted, Abs format (unit mm)*
G04 Created by KiCad (PCBNEW (5.1.7)-1) date 2021-02-27 16:19:37*
%MOMM*%
%LPD*%
G01*
G04 APERTURE LIST*
%ADD10R,0.650000X1.050000*%
%ADD11R,0.450000X1.000000*%
%ADD12R,0.250000X0.500000*%
%ADD13R,0.600000X1.200000*%
%ADD14R,0.700000X1.500000*%
%ADD15R,0.800000X0.900000*%
%ADD16R,0.900000X0.800000*%
%ADD17R,1.560000X0.650000*%
%ADD18R,1.600000X1.000000*%
G04 APERTURE END LIST*
D10*
X161525000Y-119875000D03*
X161525000Y-115725000D03*
X163675000Y-119875000D03*
X163675000Y-115725000D03*
D11*
X151700000Y-132538000D03*
X151050000Y-132538000D03*
X150400000Y-132538000D03*
X149750000Y-132538000D03*
X149100000Y-132538000D03*
X148450000Y-132538000D03*
X147800000Y-132538000D03*
X147800000Y-126662000D03*
X148450000Y-126662000D03*
X149100000Y-126662000D03*
X149750000Y-126662000D03*
X150400000Y-126662000D03*
X151050000Y-126662000D03*
X151700000Y-126662000D03*
X142700000Y-132538000D03*
X142050000Y-132538000D03*
X141400000Y-132538000D03*
X140750000Y-132538000D03*
X140100000Y-132538000D03*
X139450000Y-132538000D03*
X138800000Y-132538000D03*
X138800000Y-126662000D03*
X139450000Y-126662000D03*
X140100000Y-126662000D03*
X140750000Y-126662000D03*
X141400000Y-126662000D03*
X142050000Y-126662000D03*
X142700000Y-126662000D03*
D12*
X143740000Y-109140000D03*
X144240000Y-109140000D03*
X144740000Y-109140000D03*
X145240000Y-109140000D03*
X145740000Y-109140000D03*
X146240000Y-109140000D03*
X146240000Y-111040000D03*
X145740000Y-111040000D03*
X145240000Y-111040000D03*
X144740000Y-111040000D03*
X144240000Y-111040000D03*
X143740000Y-111040000D03*
D13*
X143750000Y-117650000D03*
X141850000Y-117650000D03*
X141850000Y-115150000D03*
X142800000Y-115150000D03*
X143750000Y-115150000D03*
D14*
X138090000Y-118980000D03*
X136590000Y-118980000D03*
X133590000Y-118980000D03*
G36*
G01*
X152240000Y-122090000D02*
X152560000Y-122090000D01*
G75*
G02*
X152720000Y-122250000I0J-160000D01*
G01*
X152720000Y-122695000D01*
G75*
G02*
X152560000Y-122855000I-160000J0D01*
G01*
X152240000Y-122855000D01*
G75*
G02*
X152080000Y-122695000I0J160000D01*
G01*
X152080000Y-122250000D01*
G75*
G02*
X152240000Y-122090000I160000J0D01*
G01*
G37*
G36*
G01*
X152240000Y-120945000D02*
X152560000Y-120945000D01*
G75*
G02*
X152720000Y-121105000I0J-160000D01*
G01*
X152720000Y-121550000D01*
G75*
G02*
X152560000Y-121710000I-160000J0D01*
G01*
X152240000Y-121710000D01*
G75*
G02*
X152080000Y-121550000I0J160000D01*
G01*
X152080000Y-121105000D01*
G75*
G02*
X152240000Y-120945000I160000J0D01*
G01*
G37*
G36*
G01*
X139996500Y-92310000D02*
X139996500Y-92490000D01*
G75*
G02*
X139906500Y-92580000I-90000J0D01*
G01*
X139628500Y-92580000D01*
G75*
G02*
X139538500Y-92490000I0J90000D01*
G01*
X139538500Y-92310000D01*
G75*
G02*
X139628500Y-92220000I90000J0D01*
G01*
X139906500Y-92220000D01*
G75*
G02*
X139996500Y-92310000I0J-90000D01*
G01*
G37*
G36*
G01*
X140861500Y-92310000D02*
X140861500Y-92490000D01*
G75*
G02*
X140771500Y-92580000I-90000J0D01*
G01*
X140493500Y-92580000D01*
G75*
G02*
X140403500Y-92490000I0J90000D01*
G01*
X140403500Y-92310000D01*
G75*
G02*
X140493500Y-92220000I90000J0D01*
G01*
X140771500Y-92220000D01*
G75*
G02*
X140861500Y-92310000I0J-90000D01*
G01*
G37*
G36*
G01*
X152703500Y-95190000D02*
X152703500Y-95010000D01*
G75*
G02*
X152793500Y-94920000I90000J0D01*
G01*
X153071500Y-94920000D01*
G75*
G02*
X153161500Y-95010000I0J-90000D01*
G01*
X153161500Y-95190000D01*
G75*
G02*
X153071500Y-95280000I-90000J0D01*
G01*
X152793500Y-95280000D01*
G75*
G02*
X152703500Y-95190000I0J90000D01*
G01*
G37*
G36*
G01*
X151838500Y-95190000D02*
X151838500Y-95010000D01*
G75*
G02*
X151928500Y-94920000I90000J0D01*
G01*
X152206500Y-94920000D01*
G75*
G02*
X152296500Y-95010000I0J-90000D01*
G01*
X152296500Y-95190000D01*
G75*
G02*
X152206500Y-95280000I-90000J0D01*
G01*
X151928500Y-95280000D01*
G75*
G02*
X151838500Y-95190000I0J90000D01*
G01*
G37*
G36*
G01*
X144525000Y-102762500D02*
X144525000Y-102387500D01*
G75*
G02*
X144612500Y-102300000I87500J0D01*
G01*
X144787500Y-102300000D01*
G75*
G02*
X144875000Y-102387500I0J-87500D01*
G01*
X144875000Y-102762500D01*
G75*
G02*
X144787500Y-102850000I-87500J0D01*
G01*
X144612500Y-102850000D01*
G75*
G02*
X144525000Y-102762500I0J87500D01*
G01*
G37*
G36*
G01*
X145025000Y-102762500D02*
X145025000Y-102387500D01*
G75*
G02*
X145112500Y-102300000I87500J0D01*
G01*
X145287500Y-102300000D01*
G75*
G02*
X145375000Y-102387500I0J-87500D01*
G01*
X145375000Y-102762500D01*
G75*
G02*
X145287500Y-102850000I-87500J0D01*
G01*
X145112500Y-102850000D01*
G75*
G02*
X145025000Y-102762500I0J87500D01*
G01*
G37*
G36*
G01*
X145525000Y-102762500D02*
X145525000Y-102387500D01*
G75*
G02*
X145612500Y-102300000I87500J0D01*
G01*
X145787500Y-102300000D01*
G75*
G02*
X145875000Y-102387500I0J-87500D01*
G01*
X145875000Y-102762500D01*
G75*
G02*
X145787500Y-102850000I-87500J0D01*
G01*
X145612500Y-102850000D01*
G75*
G02*
X145525000Y-102762500I0J87500D01*
G01*
G37*
G36*
G01*
X146150000Y-102887500D02*
X146150000Y-102712500D01*
G75*
G02*
X146237500Y-102625000I87500J0D01*
G01*
X146612500Y-102625000D01*
G75*
G02*
X146700000Y-102712500I0J-87500D01*
G01*
X146700000Y-102887500D01*
G75*
G02*
X146612500Y-102975000I-87500J0D01*
G01*
X146237500Y-102975000D01*
G75*
G02*
X146150000Y-102887500I0J87500D01*
G01*
G37*
G36*
G01*
X146150000Y-103387500D02*
X146150000Y-103212500D01*
G75*
G02*
X146237500Y-103125000I87500J0D01*
G01*
X146612500Y-103125000D01*
G75*
G02*
X146700000Y-103212500I0J-87500D01*
G01*
X146700000Y-103387500D01*
G75*
G02*
X146612500Y-103475000I-87500J0D01*
G01*
X146237500Y-103475000D01*
G75*
G02*
X146150000Y-103387500I0J87500D01*
G01*
G37*
G36*
G01*
X146150000Y-103887500D02*
X146150000Y-103712500D01*
G75*
G02*
X146237500Y-103625000I87500J0D01*
G01*
X146612500Y-103625000D01*
G75*
G02*
X146700000Y-103712500I0J-87500D01*
G01*
X146700000Y-103887500D01*
G75*
G02*
X146612500Y-103975000I-87500J0D01*
G01*
X146237500Y-103975000D01*
G75*
G02*
X146150000Y-103887500I0J87500D01*
G01*
G37*
G36*
G01*
X146150000Y-104387500D02*
X146150000Y-104212500D01*
G75*
G02*
X146237500Y-104125000I87500J0D01*
G01*
X146612500Y-104125000D01*
G75*
G02*
X146700000Y-104212500I0J-87500D01*
G01*
X146700000Y-104387500D01*
G75*
G02*
X146612500Y-104475000I-87500J0D01*
G01*
X146237500Y-104475000D01*
G75*
G02*
X146150000Y-104387500I0J87500D01*
G01*
G37*
G36*
G01*
X146150000Y-104887500D02*
X146150000Y-104712500D01*
G75*
G02*
X146237500Y-104625000I87500J0D01*
G01*
X146612500Y-104625000D01*
G75*
G02*
X146700000Y-104712500I0J-87500D01*
G01*
X146700000Y-104887500D01*
G75*
G02*
X146612500Y-104975000I-87500J0D01*
G01*
X146237500Y-104975000D01*
G75*
G02*
X146150000Y-104887500I0J87500D01*
G01*
G37*
G36*
G01*
X145525000Y-105212500D02*
X145525000Y-104837500D01*
G75*
G02*
X145612500Y-104750000I87500J0D01*
G01*
X145787500Y-104750000D01*
G75*
G02*
X145875000Y-104837500I0J-87500D01*
G01*
X145875000Y-105212500D01*
G75*
G02*
X145787500Y-105300000I-87500J0D01*
G01*
X145612500Y-105300000D01*
G75*
G02*
X145525000Y-105212500I0J87500D01*
G01*
G37*
G36*
G01*
X145025000Y-105212500D02*
X145025000Y-104837500D01*
G75*
G02*
X145112500Y-104750000I87500J0D01*
G01*
X145287500Y-104750000D01*
G75*
G02*
X145375000Y-104837500I0J-87500D01*
G01*
X145375000Y-105212500D01*
G75*
G02*
X145287500Y-105300000I-87500J0D01*
G01*
X145112500Y-105300000D01*
G75*
G02*
X145025000Y-105212500I0J87500D01*
G01*
G37*
G36*
G01*
X144525000Y-105212500D02*
X144525000Y-104837500D01*
G75*
G02*
X144612500Y-104750000I87500J0D01*
G01*
X144787500Y-104750000D01*
G75*
G02*
X144875000Y-104837500I0J-87500D01*
G01*
X144875000Y-105212500D01*
G75*
G02*
X144787500Y-105300000I-87500J0D01*
G01*
X144612500Y-105300000D01*
G75*
G02*
X144525000Y-105212500I0J87500D01*
G01*
G37*
G36*
G01*
X143700000Y-104887500D02*
X143700000Y-104712500D01*
G75*
G02*
X143787500Y-104625000I87500J0D01*
G01*
X144162500Y-104625000D01*
G75*
G02*
X144250000Y-104712500I0J-87500D01*
G01*
X144250000Y-104887500D01*
G75*
G02*
X144162500Y-104975000I-87500J0D01*
G01*
X143787500Y-104975000D01*
G75*
G02*
X143700000Y-104887500I0J87500D01*
G01*
G37*
G36*
G01*
X143700000Y-104387500D02*
X143700000Y-104212500D01*
G75*
G02*
X143787500Y-104125000I87500J0D01*
G01*
X144162500Y-104125000D01*
G75*
G02*
X144250000Y-104212500I0J-87500D01*
G01*
X144250000Y-104387500D01*
G75*
G02*
X144162500Y-104475000I-87500J0D01*
G01*
X143787500Y-104475000D01*
G75*
G02*
X143700000Y-104387500I0J87500D01*
G01*
G37*
G36*
G01*
X143700000Y-103887500D02*
X143700000Y-103712500D01*
G75*
G02*
X143787500Y-103625000I87500J0D01*
G01*
X144162500Y-103625000D01*
G75*
G02*
X144250000Y-103712500I0J-87500D01*
G01*
X144250000Y-103887500D01*
G75*
G02*
X144162500Y-103975000I-87500J0D01*
G01*
X143787500Y-103975000D01*
G75*
G02*
X143700000Y-103887500I0J87500D01*
G01*
G37*
G36*
G01*
X143700000Y-103387500D02*
X143700000Y-103212500D01*
G75*
G02*
X143787500Y-103125000I87500J0D01*
G01*
X144162500Y-103125000D01*
G75*
G02*
X144250000Y-103212500I0J-87500D01*
G01*
X144250000Y-103387500D01*
G75*
G02*
X144162500Y-103475000I-87500J0D01*
G01*
X143787500Y-103475000D01*
G75*
G02*
X143700000Y-103387500I0J87500D01*
G01*
G37*
G36*
G01*
X143700000Y-102887500D02*
X143700000Y-102712500D01*
G75*
G02*
X143787500Y-102625000I87500J0D01*
G01*
X144162500Y-102625000D01*
G75*
G02*
X144250000Y-102712500I0J-87500D01*
G01*
X144250000Y-102887500D01*
G75*
G02*
X144162500Y-102975000I-87500J0D01*
G01*
X143787500Y-102975000D01*
G75*
G02*
X143700000Y-102887500I0J87500D01*
G01*
G37*
G36*
G01*
X142425000Y-93137500D02*
X142425000Y-92387500D01*
G75*
G02*
X142487500Y-92325000I62500J0D01*
G01*
X142612500Y-92325000D01*
G75*
G02*
X142675000Y-92387500I0J-62500D01*
G01*
X142675000Y-93137500D01*
G75*
G02*
X142612500Y-93200000I-62500J0D01*
G01*
X142487500Y-93200000D01*
G75*
G02*
X142425000Y-93137500I0J62500D01*
G01*
G37*
G36*
G01*
X142925000Y-93137500D02*
X142925000Y-92387500D01*
G75*
G02*
X142987500Y-92325000I62500J0D01*
G01*
X143112500Y-92325000D01*
G75*
G02*
X143175000Y-92387500I0J-62500D01*
G01*
X143175000Y-93137500D01*
G75*
G02*
X143112500Y-93200000I-62500J0D01*
G01*
X142987500Y-93200000D01*
G75*
G02*
X142925000Y-93137500I0J62500D01*
G01*
G37*
G36*
G01*
X143425000Y-93137500D02*
X143425000Y-92387500D01*
G75*
G02*
X143487500Y-92325000I62500J0D01*
G01*
X143612500Y-92325000D01*
G75*
G02*
X143675000Y-92387500I0J-62500D01*
G01*
X143675000Y-93137500D01*
G75*
G02*
X143612500Y-93200000I-62500J0D01*
G01*
X143487500Y-93200000D01*
G75*
G02*
X143425000Y-93137500I0J62500D01*
G01*
G37*
G36*
G01*
X143925000Y-93137500D02*
X143925000Y-92387500D01*
G75*
G02*
X143987500Y-92325000I62500J0D01*
G01*
X144112500Y-92325000D01*
G75*
G02*
X144175000Y-92387500I0J-62500D01*
G01*
X144175000Y-93137500D01*
G75*
G02*
X144112500Y-93200000I-62500J0D01*
G01*
X143987500Y-93200000D01*
G75*
G02*
X143925000Y-93137500I0J62500D01*
G01*
G37*
G36*
G01*
X144425000Y-93137500D02*
X144425000Y-92387500D01*
G75*
G02*
X144487500Y-92325000I62500J0D01*
G01*
X144612500Y-92325000D01*
G75*
G02*
X144675000Y-92387500I0J-62500D01*
G01*
X144675000Y-93137500D01*
G75*
G02*
X144612500Y-93200000I-62500J0D01*
G01*
X144487500Y-93200000D01*
G75*
G02*
X144425000Y-93137500I0J62500D01*
G01*
G37*
G36*
G01*
X144925000Y-93137500D02*
X144925000Y-92387500D01*
G75*
G02*
X144987500Y-92325000I62500J0D01*
G01*
X145112500Y-92325000D01*
G75*
G02*
X145175000Y-92387500I0J-62500D01*
G01*
X145175000Y-93137500D01*
G75*
G02*
X145112500Y-93200000I-62500J0D01*
G01*
X144987500Y-93200000D01*
G75*
G02*
X144925000Y-93137500I0J62500D01*
G01*
G37*
G36*
G01*
X145425000Y-93137500D02*
X145425000Y-92387500D01*
G75*
G02*
X145487500Y-92325000I62500J0D01*
G01*
X145612500Y-92325000D01*
G75*
G02*
X145675000Y-92387500I0J-62500D01*
G01*
X145675000Y-93137500D01*
G75*
G02*
X145612500Y-93200000I-62500J0D01*
G01*
X145487500Y-93200000D01*
G75*
G02*
X145425000Y-93137500I0J62500D01*
G01*
G37*
G36*
G01*
X145925000Y-93137500D02*
X145925000Y-92387500D01*
G75*
G02*
X145987500Y-92325000I62500J0D01*
G01*
X146112500Y-92325000D01*
G75*
G02*
X146175000Y-92387500I0J-62500D01*
G01*
X146175000Y-93137500D01*
G75*
G02*
X146112500Y-93200000I-62500J0D01*
G01*
X145987500Y-93200000D01*
G75*
G02*
X145925000Y-93137500I0J62500D01*
G01*
G37*
G36*
G01*
X146425000Y-93137500D02*
X146425000Y-92387500D01*
G75*
G02*
X146487500Y-92325000I62500J0D01*
G01*
X146612500Y-92325000D01*
G75*
G02*
X146675000Y-92387500I0J-62500D01*
G01*
X146675000Y-93137500D01*
G75*
G02*
X146612500Y-93200000I-62500J0D01*
G01*
X146487500Y-93200000D01*
G75*
G02*
X146425000Y-93137500I0J62500D01*
G01*
G37*
G36*
G01*
X146925000Y-93137500D02*
X146925000Y-92387500D01*
G75*
G02*
X146987500Y-92325000I62500J0D01*
G01*
X147112500Y-92325000D01*
G75*
G02*
X147175000Y-92387500I0J-62500D01*
G01*
X147175000Y-93137500D01*
G75*
G02*
X147112500Y-93200000I-62500J0D01*
G01*
X146987500Y-93200000D01*
G75*
G02*
X146925000Y-93137500I0J62500D01*
G01*
G37*
G36*
G01*
X147425000Y-93137500D02*
X147425000Y-92387500D01*
G75*
G02*
X147487500Y-92325000I62500J0D01*
G01*
X147612500Y-92325000D01*
G75*
G02*
X147675000Y-92387500I0J-62500D01*
G01*
X147675000Y-93137500D01*
G75*
G02*
X147612500Y-93200000I-62500J0D01*
G01*
X147487500Y-93200000D01*
G75*
G02*
X147425000Y-93137500I0J62500D01*
G01*
G37*
G36*
G01*
X147925000Y-93137500D02*
X147925000Y-92387500D01*
G75*
G02*
X147987500Y-92325000I62500J0D01*
G01*
X148112500Y-92325000D01*
G75*
G02*
X148175000Y-92387500I0J-62500D01*
G01*
X148175000Y-93137500D01*
G75*
G02*
X148112500Y-93200000I-62500J0D01*
G01*
X147987500Y-93200000D01*
G75*
G02*
X147925000Y-93137500I0J62500D01*
G01*
G37*
G36*
G01*
X148300000Y-93512500D02*
X148300000Y-93387500D01*
G75*
G02*
X148362500Y-93325000I62500J0D01*
G01*
X149112500Y-93325000D01*
G75*
G02*
X149175000Y-93387500I0J-62500D01*
G01*
X149175000Y-93512500D01*
G75*
G02*
X149112500Y-93575000I-62500J0D01*
G01*
X148362500Y-93575000D01*
G75*
G02*
X148300000Y-93512500I0J62500D01*
G01*
G37*
G36*
G01*
X148300000Y-94012500D02*
X148300000Y-93887500D01*
G75*
G02*
X148362500Y-93825000I62500J0D01*
G01*
X149112500Y-93825000D01*
G75*
G02*
X149175000Y-93887500I0J-62500D01*
G01*
X149175000Y-94012500D01*
G75*
G02*
X149112500Y-94075000I-62500J0D01*
G01*
X148362500Y-94075000D01*
G75*
G02*
X148300000Y-94012500I0J62500D01*
G01*
G37*
G36*
G01*
X148300000Y-94512500D02*
X148300000Y-94387500D01*
G75*
G02*
X148362500Y-94325000I62500J0D01*
G01*
X149112500Y-94325000D01*
G75*
G02*
X149175000Y-94387500I0J-62500D01*
G01*
X149175000Y-94512500D01*
G75*
G02*
X149112500Y-94575000I-62500J0D01*
G01*
X148362500Y-94575000D01*
G75*
G02*
X148300000Y-94512500I0J62500D01*
G01*
G37*
G36*
G01*
X148300000Y-95012500D02*
X148300000Y-94887500D01*
G75*
G02*
X148362500Y-94825000I62500J0D01*
G01*
X149112500Y-94825000D01*
G75*
G02*
X149175000Y-94887500I0J-62500D01*
G01*
X149175000Y-95012500D01*
G75*
G02*
X149112500Y-95075000I-62500J0D01*
G01*
X148362500Y-95075000D01*
G75*
G02*
X148300000Y-95012500I0J62500D01*
G01*
G37*
G36*
G01*
X148300000Y-95512500D02*
X148300000Y-95387500D01*
G75*
G02*
X148362500Y-95325000I62500J0D01*
G01*
X149112500Y-95325000D01*
G75*
G02*
X149175000Y-95387500I0J-62500D01*
G01*
X149175000Y-95512500D01*
G75*
G02*
X149112500Y-95575000I-62500J0D01*
G01*
X148362500Y-95575000D01*
G75*
G02*
X148300000Y-95512500I0J62500D01*
G01*
G37*
G36*
G01*
X148300000Y-96012500D02*
X148300000Y-95887500D01*
G75*
G02*
X148362500Y-95825000I62500J0D01*
G01*
X149112500Y-95825000D01*
G75*
G02*
X149175000Y-95887500I0J-62500D01*
G01*
X149175000Y-96012500D01*
G75*
G02*
X149112500Y-96075000I-62500J0D01*
G01*
X148362500Y-96075000D01*
G75*
G02*
X148300000Y-96012500I0J62500D01*
G01*
G37*
G36*
G01*
X148300000Y-96512500D02*
X148300000Y-96387500D01*
G75*
G02*
X148362500Y-96325000I62500J0D01*
G01*
X149112500Y-96325000D01*
G75*
G02*
X149175000Y-96387500I0J-62500D01*
G01*
X149175000Y-96512500D01*
G75*
G02*
X149112500Y-96575000I-62500J0D01*
G01*
X148362500Y-96575000D01*
G75*
G02*
X148300000Y-96512500I0J62500D01*
G01*
G37*
G36*
G01*
X148300000Y-97012500D02*
X148300000Y-96887500D01*
G75*
G02*
X148362500Y-96825000I62500J0D01*
G01*
X149112500Y-96825000D01*
G75*
G02*
X149175000Y-96887500I0J-62500D01*
G01*
X149175000Y-97012500D01*
G75*
G02*
X149112500Y-97075000I-62500J0D01*
G01*
X148362500Y-97075000D01*
G75*
G02*
X148300000Y-97012500I0J62500D01*
G01*
G37*
G36*
G01*
X148300000Y-97512500D02*
X148300000Y-97387500D01*
G75*
G02*
X148362500Y-97325000I62500J0D01*
G01*
X149112500Y-97325000D01*
G75*
G02*
X149175000Y-97387500I0J-62500D01*
G01*
X149175000Y-97512500D01*
G75*
G02*
X149112500Y-97575000I-62500J0D01*
G01*
X148362500Y-97575000D01*
G75*
G02*
X148300000Y-97512500I0J62500D01*
G01*
G37*
G36*
G01*
X148300000Y-98012500D02*
X148300000Y-97887500D01*
G75*
G02*
X148362500Y-97825000I62500J0D01*
G01*
X149112500Y-97825000D01*
G75*
G02*
X149175000Y-97887500I0J-62500D01*
G01*
X149175000Y-98012500D01*
G75*
G02*
X149112500Y-98075000I-62500J0D01*
G01*
X148362500Y-98075000D01*
G75*
G02*
X148300000Y-98012500I0J62500D01*
G01*
G37*
G36*
G01*
X148300000Y-98512500D02*
X148300000Y-98387500D01*
G75*
G02*
X148362500Y-98325000I62500J0D01*
G01*
X149112500Y-98325000D01*
G75*
G02*
X149175000Y-98387500I0J-62500D01*
G01*
X149175000Y-98512500D01*
G75*
G02*
X149112500Y-98575000I-62500J0D01*
G01*
X148362500Y-98575000D01*
G75*
G02*
X148300000Y-98512500I0J62500D01*
G01*
G37*
G36*
G01*
X148300000Y-99012500D02*
X148300000Y-98887500D01*
G75*
G02*
X148362500Y-98825000I62500J0D01*
G01*
X149112500Y-98825000D01*
G75*
G02*
X149175000Y-98887500I0J-62500D01*
G01*
X149175000Y-99012500D01*
G75*
G02*
X149112500Y-99075000I-62500J0D01*
G01*
X148362500Y-99075000D01*
G75*
G02*
X148300000Y-99012500I0J62500D01*
G01*
G37*
G36*
G01*
X147925000Y-100012500D02*
X147925000Y-99262500D01*
G75*
G02*
X147987500Y-99200000I62500J0D01*
G01*
X148112500Y-99200000D01*
G75*
G02*
X148175000Y-99262500I0J-62500D01*
G01*
X148175000Y-100012500D01*
G75*
G02*
X148112500Y-100075000I-62500J0D01*
G01*
X147987500Y-100075000D01*
G75*
G02*
X147925000Y-100012500I0J62500D01*
G01*
G37*
G36*
G01*
X147425000Y-100012500D02*
X147425000Y-99262500D01*
G75*
G02*
X147487500Y-99200000I62500J0D01*
G01*
X147612500Y-99200000D01*
G75*
G02*
X147675000Y-99262500I0J-62500D01*
G01*
X147675000Y-100012500D01*
G75*
G02*
X147612500Y-100075000I-62500J0D01*
G01*
X147487500Y-100075000D01*
G75*
G02*
X147425000Y-100012500I0J62500D01*
G01*
G37*
G36*
G01*
X146925000Y-100012500D02*
X146925000Y-99262500D01*
G75*
G02*
X146987500Y-99200000I62500J0D01*
G01*
X147112500Y-99200000D01*
G75*
G02*
X147175000Y-99262500I0J-62500D01*
G01*
X147175000Y-100012500D01*
G75*
G02*
X147112500Y-100075000I-62500J0D01*
G01*
X146987500Y-100075000D01*
G75*
G02*
X146925000Y-100012500I0J62500D01*
G01*
G37*
G36*
G01*
X146425000Y-100012500D02*
X146425000Y-99262500D01*
G75*
G02*
X146487500Y-99200000I62500J0D01*
G01*
X146612500Y-99200000D01*
G75*
G02*
X146675000Y-99262500I0J-62500D01*
G01*
X146675000Y-100012500D01*
G75*
G02*
X146612500Y-100075000I-62500J0D01*
G01*
X146487500Y-100075000D01*
G75*
G02*
X146425000Y-100012500I0J62500D01*
G01*
G37*
G36*
G01*
X145925000Y-100012500D02*
X145925000Y-99262500D01*
G75*
G02*
X145987500Y-99200000I62500J0D01*
G01*
X146112500Y-99200000D01*
G75*
G02*
X146175000Y-99262500I0J-62500D01*
G01*
X146175000Y-100012500D01*
G75*
G02*
X146112500Y-100075000I-62500J0D01*
G01*
X145987500Y-100075000D01*
G75*
G02*
X145925000Y-100012500I0J62500D01*
G01*
G37*
G36*
G01*
X145425000Y-100012500D02*
X145425000Y-99262500D01*
G75*
G02*
X145487500Y-99200000I62500J0D01*
G01*
X145612500Y-99200000D01*
G75*
G02*
X145675000Y-99262500I0J-62500D01*
G01*
X145675000Y-100012500D01*
G75*
G02*
X145612500Y-100075000I-62500J0D01*
G01*
X145487500Y-100075000D01*
G75*
G02*
X145425000Y-100012500I0J62500D01*
G01*
G37*
G36*
G01*
X144925000Y-100012500D02*
X144925000Y-99262500D01*
G75*
G02*
X144987500Y-99200000I62500J0D01*
G01*
X145112500Y-99200000D01*
G75*
G02*
X145175000Y-99262500I0J-62500D01*
G01*
X145175000Y-100012500D01*
G75*
G02*
X145112500Y-100075000I-62500J0D01*
G01*
X144987500Y-100075000D01*
G75*
G02*
X144925000Y-100012500I0J62500D01*
G01*
G37*
G36*
G01*
X144425000Y-100012500D02*
X144425000Y-99262500D01*
G75*
G02*
X144487500Y-99200000I62500J0D01*
G01*
X144612500Y-99200000D01*
G75*
G02*
X144675000Y-99262500I0J-62500D01*
G01*
X144675000Y-100012500D01*
G75*
G02*
X144612500Y-100075000I-62500J0D01*
G01*
X144487500Y-100075000D01*
G75*
G02*
X144425000Y-100012500I0J62500D01*
G01*
G37*
G36*
G01*
X143925000Y-100012500D02*
X143925000Y-99262500D01*
G75*
G02*
X143987500Y-99200000I62500J0D01*
G01*
X144112500Y-99200000D01*
G75*
G02*
X144175000Y-99262500I0J-62500D01*
G01*
X144175000Y-100012500D01*
G75*
G02*
X144112500Y-100075000I-62500J0D01*
G01*
X143987500Y-100075000D01*
G75*
G02*
X143925000Y-100012500I0J62500D01*
G01*
G37*
G36*
G01*
X143425000Y-100012500D02*
X143425000Y-99262500D01*
G75*
G02*
X143487500Y-99200000I62500J0D01*
G01*
X143612500Y-99200000D01*
G75*
G02*
X143675000Y-99262500I0J-62500D01*
G01*
X143675000Y-100012500D01*
G75*
G02*
X143612500Y-100075000I-62500J0D01*
G01*
X143487500Y-100075000D01*
G75*
G02*
X143425000Y-100012500I0J62500D01*
G01*
G37*
G36*
G01*
X142925000Y-100012500D02*
X142925000Y-99262500D01*
G75*
G02*
X142987500Y-99200000I62500J0D01*
G01*
X143112500Y-99200000D01*
G75*
G02*
X143175000Y-99262500I0J-62500D01*
G01*
X143175000Y-100012500D01*
G75*
G02*
X143112500Y-100075000I-62500J0D01*
G01*
X142987500Y-100075000D01*
G75*
G02*
X142925000Y-100012500I0J62500D01*
G01*
G37*
G36*
G01*
X142425000Y-100012500D02*
X142425000Y-99262500D01*
G75*
G02*
X142487500Y-99200000I62500J0D01*
G01*
X142612500Y-99200000D01*
G75*
G02*
X142675000Y-99262500I0J-62500D01*
G01*
X142675000Y-100012500D01*
G75*
G02*
X142612500Y-100075000I-62500J0D01*
G01*
X142487500Y-100075000D01*
G75*
G02*
X142425000Y-100012500I0J62500D01*
G01*
G37*
G36*
G01*
X141425000Y-99012500D02*
X141425000Y-98887500D01*
G75*
G02*
X141487500Y-98825000I62500J0D01*
G01*
X142237500Y-98825000D01*
G75*
G02*
X142300000Y-98887500I0J-62500D01*
G01*
X142300000Y-99012500D01*
G75*
G02*
X142237500Y-99075000I-62500J0D01*
G01*
X141487500Y-99075000D01*
G75*
G02*
X141425000Y-99012500I0J62500D01*
G01*
G37*
G36*
G01*
X141425000Y-98512500D02*
X141425000Y-98387500D01*
G75*
G02*
X141487500Y-98325000I62500J0D01*
G01*
X142237500Y-98325000D01*
G75*
G02*
X142300000Y-98387500I0J-62500D01*
G01*
X142300000Y-98512500D01*
G75*
G02*
X142237500Y-98575000I-62500J0D01*
G01*
X141487500Y-98575000D01*
G75*
G02*
X141425000Y-98512500I0J62500D01*
G01*
G37*
G36*
G01*
X141425000Y-98012500D02*
X141425000Y-97887500D01*
G75*
G02*
X141487500Y-97825000I62500J0D01*
G01*
X142237500Y-97825000D01*
G75*
G02*
X142300000Y-97887500I0J-62500D01*
G01*
X142300000Y-98012500D01*
G75*
G02*
X142237500Y-98075000I-62500J0D01*
G01*
X141487500Y-98075000D01*
G75*
G02*
X141425000Y-98012500I0J62500D01*
G01*
G37*
G36*
G01*
X141425000Y-97512500D02*
X141425000Y-97387500D01*
G75*
G02*
X141487500Y-97325000I62500J0D01*
G01*
X142237500Y-97325000D01*
G75*
G02*
X142300000Y-97387500I0J-62500D01*
G01*
X142300000Y-97512500D01*
G75*
G02*
X142237500Y-97575000I-62500J0D01*
G01*
X141487500Y-97575000D01*
G75*
G02*
X141425000Y-97512500I0J62500D01*
G01*
G37*
G36*
G01*
X141425000Y-97012500D02*
X141425000Y-96887500D01*
G75*
G02*
X141487500Y-96825000I62500J0D01*
G01*
X142237500Y-96825000D01*
G75*
G02*
X142300000Y-96887500I0J-62500D01*
G01*
X142300000Y-97012500D01*
G75*
G02*
X142237500Y-97075000I-62500J0D01*
G01*
X141487500Y-97075000D01*
G75*
G02*
X141425000Y-97012500I0J62500D01*
G01*
G37*
G36*
G01*
X141425000Y-96512500D02*
X141425000Y-96387500D01*
G75*
G02*
X141487500Y-96325000I62500J0D01*
G01*
X142237500Y-96325000D01*
G75*
G02*
X142300000Y-96387500I0J-62500D01*
G01*
X142300000Y-96512500D01*
G75*
G02*
X142237500Y-96575000I-62500J0D01*
G01*
X141487500Y-96575000D01*
G75*
G02*
X141425000Y-96512500I0J62500D01*
G01*
G37*
G36*
G01*
X141425000Y-96012500D02*
X141425000Y-95887500D01*
G75*
G02*
X141487500Y-95825000I62500J0D01*
G01*
X142237500Y-95825000D01*
G75*
G02*
X142300000Y-95887500I0J-62500D01*
G01*
X142300000Y-96012500D01*
G75*
G02*
X142237500Y-96075000I-62500J0D01*
G01*
X141487500Y-96075000D01*
G75*
G02*
X141425000Y-96012500I0J62500D01*
G01*
G37*
G36*
G01*
X141425000Y-95512500D02*
X141425000Y-95387500D01*
G75*
G02*
X141487500Y-95325000I62500J0D01*
G01*
X142237500Y-95325000D01*
G75*
G02*
X142300000Y-95387500I0J-62500D01*
G01*
X142300000Y-95512500D01*
G75*
G02*
X142237500Y-95575000I-62500J0D01*
G01*
X141487500Y-95575000D01*
G75*
G02*
X141425000Y-95512500I0J62500D01*
G01*
G37*
G36*
G01*
X141425000Y-95012500D02*
X141425000Y-94887500D01*
G75*
G02*
X141487500Y-94825000I62500J0D01*
G01*
X142237500Y-94825000D01*
G75*
G02*
X142300000Y-94887500I0J-62500D01*
G01*
X142300000Y-95012500D01*
G75*
G02*
X142237500Y-95075000I-62500J0D01*
G01*
X141487500Y-95075000D01*
G75*
G02*
X141425000Y-95012500I0J62500D01*
G01*
G37*
G36*
G01*
X141425000Y-94512500D02*
X141425000Y-94387500D01*
G75*
G02*
X141487500Y-94325000I62500J0D01*
G01*
X142237500Y-94325000D01*
G75*
G02*
X142300000Y-94387500I0J-62500D01*
G01*
X142300000Y-94512500D01*
G75*
G02*
X142237500Y-94575000I-62500J0D01*
G01*
X141487500Y-94575000D01*
G75*
G02*
X141425000Y-94512500I0J62500D01*
G01*
G37*
G36*
G01*
X141425000Y-94012500D02*
X141425000Y-93887500D01*
G75*
G02*
X141487500Y-93825000I62500J0D01*
G01*
X142237500Y-93825000D01*
G75*
G02*
X142300000Y-93887500I0J-62500D01*
G01*
X142300000Y-94012500D01*
G75*
G02*
X142237500Y-94075000I-62500J0D01*
G01*
X141487500Y-94075000D01*
G75*
G02*
X141425000Y-94012500I0J62500D01*
G01*
G37*
G36*
G01*
X141425000Y-93512500D02*
X141425000Y-93387500D01*
G75*
G02*
X141487500Y-93325000I62500J0D01*
G01*
X142237500Y-93325000D01*
G75*
G02*
X142300000Y-93387500I0J-62500D01*
G01*
X142300000Y-93512500D01*
G75*
G02*
X142237500Y-93575000I-62500J0D01*
G01*
X141487500Y-93575000D01*
G75*
G02*
X141425000Y-93512500I0J62500D01*
G01*
G37*
G36*
G01*
X137361500Y-96810000D02*
X137361500Y-96990000D01*
G75*
G02*
X137271500Y-97080000I-90000J0D01*
G01*
X136993500Y-97080000D01*
G75*
G02*
X136903500Y-96990000I0J90000D01*
G01*
X136903500Y-96810000D01*
G75*
G02*
X136993500Y-96720000I90000J0D01*
G01*
X137271500Y-96720000D01*
G75*
G02*
X137361500Y-96810000I0J-90000D01*
G01*
G37*
G36*
G01*
X136496500Y-96810000D02*
X136496500Y-96990000D01*
G75*
G02*
X136406500Y-97080000I-90000J0D01*
G01*
X136128500Y-97080000D01*
G75*
G02*
X136038500Y-96990000I0J90000D01*
G01*
X136038500Y-96810000D01*
G75*
G02*
X136128500Y-96720000I90000J0D01*
G01*
X136406500Y-96720000D01*
G75*
G02*
X136496500Y-96810000I0J-90000D01*
G01*
G37*
G36*
G01*
X152741000Y-94280000D02*
X152741000Y-94100000D01*
G75*
G02*
X152831000Y-94010000I90000J0D01*
G01*
X153109000Y-94010000D01*
G75*
G02*
X153199000Y-94100000I0J-90000D01*
G01*
X153199000Y-94280000D01*
G75*
G02*
X153109000Y-94370000I-90000J0D01*
G01*
X152831000Y-94370000D01*
G75*
G02*
X152741000Y-94280000I0J90000D01*
G01*
G37*
G36*
G01*
X151876000Y-94280000D02*
X151876000Y-94100000D01*
G75*
G02*
X151966000Y-94010000I90000J0D01*
G01*
X152244000Y-94010000D01*
G75*
G02*
X152334000Y-94100000I0J-90000D01*
G01*
X152334000Y-94280000D01*
G75*
G02*
X152244000Y-94370000I-90000J0D01*
G01*
X151966000Y-94370000D01*
G75*
G02*
X151876000Y-94280000I0J90000D01*
G01*
G37*
G36*
G01*
X149646000Y-119390000D02*
X149646000Y-119210000D01*
G75*
G02*
X149736000Y-119120000I90000J0D01*
G01*
X150014000Y-119120000D01*
G75*
G02*
X150104000Y-119210000I0J-90000D01*
G01*
X150104000Y-119390000D01*
G75*
G02*
X150014000Y-119480000I-90000J0D01*
G01*
X149736000Y-119480000D01*
G75*
G02*
X149646000Y-119390000I0J90000D01*
G01*
G37*
G36*
G01*
X150511000Y-119390000D02*
X150511000Y-119210000D01*
G75*
G02*
X150601000Y-119120000I90000J0D01*
G01*
X150879000Y-119120000D01*
G75*
G02*
X150969000Y-119210000I0J-90000D01*
G01*
X150969000Y-119390000D01*
G75*
G02*
X150879000Y-119480000I-90000J0D01*
G01*
X150601000Y-119480000D01*
G75*
G02*
X150511000Y-119390000I0J90000D01*
G01*
G37*
G36*
G01*
X156210000Y-120945000D02*
X156530000Y-120945000D01*
G75*
G02*
X156690000Y-121105000I0J-160000D01*
G01*
X156690000Y-121550000D01*
G75*
G02*
X156530000Y-121710000I-160000J0D01*
G01*
X156210000Y-121710000D01*
G75*
G02*
X156050000Y-121550000I0J160000D01*
G01*
X156050000Y-121105000D01*
G75*
G02*
X156210000Y-120945000I160000J0D01*
G01*
G37*
G36*
G01*
X156210000Y-122090000D02*
X156530000Y-122090000D01*
G75*
G02*
X156690000Y-122250000I0J-160000D01*
G01*
X156690000Y-122695000D01*
G75*
G02*
X156530000Y-122855000I-160000J0D01*
G01*
X156210000Y-122855000D01*
G75*
G02*
X156050000Y-122695000I0J160000D01*
G01*
X156050000Y-122250000D01*
G75*
G02*
X156210000Y-122090000I160000J0D01*
G01*
G37*
D15*
X148500000Y-117900000D03*
X147550000Y-115900000D03*
X149450000Y-115900000D03*
D16*
X129330000Y-119835000D03*
X131330000Y-118885000D03*
X131330000Y-120785000D03*
D17*
X153880000Y-89270000D03*
X153880000Y-90220000D03*
X153880000Y-91170000D03*
X156580000Y-91170000D03*
X156580000Y-89270000D03*
X156580000Y-90220000D03*
X136670000Y-90260000D03*
X136670000Y-89310000D03*
X136670000Y-91210000D03*
X133970000Y-91210000D03*
X133970000Y-90260000D03*
X133970000Y-89310000D03*
G36*
G01*
X148961500Y-114310000D02*
X148961500Y-114490000D01*
G75*
G02*
X148871500Y-114580000I-90000J0D01*
G01*
X148593500Y-114580000D01*
G75*
G02*
X148503500Y-114490000I0J90000D01*
G01*
X148503500Y-114310000D01*
G75*
G02*
X148593500Y-114220000I90000J0D01*
G01*
X148871500Y-114220000D01*
G75*
G02*
X148961500Y-114310000I0J-90000D01*
G01*
G37*
G36*
G01*
X148096500Y-114310000D02*
X148096500Y-114490000D01*
G75*
G02*
X148006500Y-114580000I-90000J0D01*
G01*
X147728500Y-114580000D01*
G75*
G02*
X147638500Y-114490000I0J90000D01*
G01*
X147638500Y-114310000D01*
G75*
G02*
X147728500Y-114220000I90000J0D01*
G01*
X148006500Y-114220000D01*
G75*
G02*
X148096500Y-114310000I0J-90000D01*
G01*
G37*
G36*
G01*
X159595000Y-115954000D02*
X159415000Y-115954000D01*
G75*
G02*
X159325000Y-115864000I0J90000D01*
G01*
X159325000Y-115586000D01*
G75*
G02*
X159415000Y-115496000I90000J0D01*
G01*
X159595000Y-115496000D01*
G75*
G02*
X159685000Y-115586000I0J-90000D01*
G01*
X159685000Y-115864000D01*
G75*
G02*
X159595000Y-115954000I-90000J0D01*
G01*
G37*
G36*
G01*
X159595000Y-116819000D02*
X159415000Y-116819000D01*
G75*
G02*
X159325000Y-116729000I0J90000D01*
G01*
X159325000Y-116451000D01*
G75*
G02*
X159415000Y-116361000I90000J0D01*
G01*
X159595000Y-116361000D01*
G75*
G02*
X159685000Y-116451000I0J-90000D01*
G01*
X159685000Y-116729000D01*
G75*
G02*
X159595000Y-116819000I-90000J0D01*
G01*
G37*
G36*
G01*
X152490000Y-120394000D02*
X152310000Y-120394000D01*
G75*
G02*
X152220000Y-120304000I0J90000D01*
G01*
X152220000Y-120026000D01*
G75*
G02*
X152310000Y-119936000I90000J0D01*
G01*
X152490000Y-119936000D01*
G75*
G02*
X152580000Y-120026000I0J-90000D01*
G01*
X152580000Y-120304000D01*
G75*
G02*
X152490000Y-120394000I-90000J0D01*
G01*
G37*
G36*
G01*
X152490000Y-119529000D02*
X152310000Y-119529000D01*
G75*
G02*
X152220000Y-119439000I0J90000D01*
G01*
X152220000Y-119161000D01*
G75*
G02*
X152310000Y-119071000I90000J0D01*
G01*
X152490000Y-119071000D01*
G75*
G02*
X152580000Y-119161000I0J-90000D01*
G01*
X152580000Y-119439000D01*
G75*
G02*
X152490000Y-119529000I-90000J0D01*
G01*
G37*
G36*
G01*
X154390000Y-120361500D02*
X154210000Y-120361500D01*
G75*
G02*
X154120000Y-120271500I0J90000D01*
G01*
X154120000Y-119993500D01*
G75*
G02*
X154210000Y-119903500I90000J0D01*
G01*
X154390000Y-119903500D01*
G75*
G02*
X154480000Y-119993500I0J-90000D01*
G01*
X154480000Y-120271500D01*
G75*
G02*
X154390000Y-120361500I-90000J0D01*
G01*
G37*
G36*
G01*
X154390000Y-119496500D02*
X154210000Y-119496500D01*
G75*
G02*
X154120000Y-119406500I0J90000D01*
G01*
X154120000Y-119128500D01*
G75*
G02*
X154210000Y-119038500I90000J0D01*
G01*
X154390000Y-119038500D01*
G75*
G02*
X154480000Y-119128500I0J-90000D01*
G01*
X154480000Y-119406500D01*
G75*
G02*
X154390000Y-119496500I-90000J0D01*
G01*
G37*
G36*
G01*
X156490000Y-120361500D02*
X156310000Y-120361500D01*
G75*
G02*
X156220000Y-120271500I0J90000D01*
G01*
X156220000Y-119993500D01*
G75*
G02*
X156310000Y-119903500I90000J0D01*
G01*
X156490000Y-119903500D01*
G75*
G02*
X156580000Y-119993500I0J-90000D01*
G01*
X156580000Y-120271500D01*
G75*
G02*
X156490000Y-120361500I-90000J0D01*
G01*
G37*
G36*
G01*
X156490000Y-119496500D02*
X156310000Y-119496500D01*
G75*
G02*
X156220000Y-119406500I0J90000D01*
G01*
X156220000Y-119128500D01*
G75*
G02*
X156310000Y-119038500I90000J0D01*
G01*
X156490000Y-119038500D01*
G75*
G02*
X156580000Y-119128500I0J-90000D01*
G01*
X156580000Y-119406500D01*
G75*
G02*
X156490000Y-119496500I-90000J0D01*
G01*
G37*
G36*
G01*
X158390000Y-119496500D02*
X158210000Y-119496500D01*
G75*
G02*
X158120000Y-119406500I0J90000D01*
G01*
X158120000Y-119128500D01*
G75*
G02*
X158210000Y-119038500I90000J0D01*
G01*
X158390000Y-119038500D01*
G75*
G02*
X158480000Y-119128500I0J-90000D01*
G01*
X158480000Y-119406500D01*
G75*
G02*
X158390000Y-119496500I-90000J0D01*
G01*
G37*
G36*
G01*
X158390000Y-120361500D02*
X158210000Y-120361500D01*
G75*
G02*
X158120000Y-120271500I0J90000D01*
G01*
X158120000Y-119993500D01*
G75*
G02*
X158210000Y-119903500I90000J0D01*
G01*
X158390000Y-119903500D01*
G75*
G02*
X158480000Y-119993500I0J-90000D01*
G01*
X158480000Y-120271500D01*
G75*
G02*
X158390000Y-120361500I-90000J0D01*
G01*
G37*
G36*
G01*
X152350000Y-90559000D02*
X152170000Y-90559000D01*
G75*
G02*
X152080000Y-90469000I0J90000D01*
G01*
X152080000Y-90191000D01*
G75*
G02*
X152170000Y-90101000I90000J0D01*
G01*
X152350000Y-90101000D01*
G75*
G02*
X152440000Y-90191000I0J-90000D01*
G01*
X152440000Y-90469000D01*
G75*
G02*
X152350000Y-90559000I-90000J0D01*
G01*
G37*
G36*
G01*
X152350000Y-91424000D02*
X152170000Y-91424000D01*
G75*
G02*
X152080000Y-91334000I0J90000D01*
G01*
X152080000Y-91056000D01*
G75*
G02*
X152170000Y-90966000I90000J0D01*
G01*
X152350000Y-90966000D01*
G75*
G02*
X152440000Y-91056000I0J-90000D01*
G01*
X152440000Y-91334000D01*
G75*
G02*
X152350000Y-91424000I-90000J0D01*
G01*
G37*
G36*
G01*
X129103500Y-112390000D02*
X129103500Y-112210000D01*
G75*
G02*
X129193500Y-112120000I90000J0D01*
G01*
X129471500Y-112120000D01*
G75*
G02*
X129561500Y-112210000I0J-90000D01*
G01*
X129561500Y-112390000D01*
G75*
G02*
X129471500Y-112480000I-90000J0D01*
G01*
X129193500Y-112480000D01*
G75*
G02*
X129103500Y-112390000I0J90000D01*
G01*
G37*
G36*
G01*
X128238500Y-112390000D02*
X128238500Y-112210000D01*
G75*
G02*
X128328500Y-112120000I90000J0D01*
G01*
X128606500Y-112120000D01*
G75*
G02*
X128696500Y-112210000I0J-90000D01*
G01*
X128696500Y-112390000D01*
G75*
G02*
X128606500Y-112480000I-90000J0D01*
G01*
X128328500Y-112480000D01*
G75*
G02*
X128238500Y-112390000I0J90000D01*
G01*
G37*
G36*
G01*
X137410000Y-115663500D02*
X137590000Y-115663500D01*
G75*
G02*
X137680000Y-115753500I0J-90000D01*
G01*
X137680000Y-116031500D01*
G75*
G02*
X137590000Y-116121500I-90000J0D01*
G01*
X137410000Y-116121500D01*
G75*
G02*
X137320000Y-116031500I0J90000D01*
G01*
X137320000Y-115753500D01*
G75*
G02*
X137410000Y-115663500I90000J0D01*
G01*
G37*
G36*
G01*
X137410000Y-114798500D02*
X137590000Y-114798500D01*
G75*
G02*
X137680000Y-114888500I0J-90000D01*
G01*
X137680000Y-115166500D01*
G75*
G02*
X137590000Y-115256500I-90000J0D01*
G01*
X137410000Y-115256500D01*
G75*
G02*
X137320000Y-115166500I0J90000D01*
G01*
X137320000Y-114888500D01*
G75*
G02*
X137410000Y-114798500I90000J0D01*
G01*
G37*
G36*
G01*
X136620000Y-115236500D02*
X136440000Y-115236500D01*
G75*
G02*
X136350000Y-115146500I0J90000D01*
G01*
X136350000Y-114868500D01*
G75*
G02*
X136440000Y-114778500I90000J0D01*
G01*
X136620000Y-114778500D01*
G75*
G02*
X136710000Y-114868500I0J-90000D01*
G01*
X136710000Y-115146500D01*
G75*
G02*
X136620000Y-115236500I-90000J0D01*
G01*
G37*
G36*
G01*
X136620000Y-116101500D02*
X136440000Y-116101500D01*
G75*
G02*
X136350000Y-116011500I0J90000D01*
G01*
X136350000Y-115733500D01*
G75*
G02*
X136440000Y-115643500I90000J0D01*
G01*
X136620000Y-115643500D01*
G75*
G02*
X136710000Y-115733500I0J-90000D01*
G01*
X136710000Y-116011500D01*
G75*
G02*
X136620000Y-116101500I-90000J0D01*
G01*
G37*
G36*
G01*
X128060000Y-120209000D02*
X127880000Y-120209000D01*
G75*
G02*
X127790000Y-120119000I0J90000D01*
G01*
X127790000Y-119841000D01*
G75*
G02*
X127880000Y-119751000I90000J0D01*
G01*
X128060000Y-119751000D01*
G75*
G02*
X128150000Y-119841000I0J-90000D01*
G01*
X128150000Y-120119000D01*
G75*
G02*
X128060000Y-120209000I-90000J0D01*
G01*
G37*
G36*
G01*
X128060000Y-121074000D02*
X127880000Y-121074000D01*
G75*
G02*
X127790000Y-120984000I0J90000D01*
G01*
X127790000Y-120706000D01*
G75*
G02*
X127880000Y-120616000I90000J0D01*
G01*
X128060000Y-120616000D01*
G75*
G02*
X128150000Y-120706000I0J-90000D01*
G01*
X128150000Y-120984000D01*
G75*
G02*
X128060000Y-121074000I-90000J0D01*
G01*
G37*
G36*
G01*
X144603500Y-87290000D02*
X144603500Y-87110000D01*
G75*
G02*
X144693500Y-87020000I90000J0D01*
G01*
X144971500Y-87020000D01*
G75*
G02*
X145061500Y-87110000I0J-90000D01*
G01*
X145061500Y-87290000D01*
G75*
G02*
X144971500Y-87380000I-90000J0D01*
G01*
X144693500Y-87380000D01*
G75*
G02*
X144603500Y-87290000I0J90000D01*
G01*
G37*
G36*
G01*
X143738500Y-87290000D02*
X143738500Y-87110000D01*
G75*
G02*
X143828500Y-87020000I90000J0D01*
G01*
X144106500Y-87020000D01*
G75*
G02*
X144196500Y-87110000I0J-90000D01*
G01*
X144196500Y-87290000D01*
G75*
G02*
X144106500Y-87380000I-90000J0D01*
G01*
X143828500Y-87380000D01*
G75*
G02*
X143738500Y-87290000I0J90000D01*
G01*
G37*
G36*
G01*
X133690000Y-94396500D02*
X133510000Y-94396500D01*
G75*
G02*
X133420000Y-94306500I0J90000D01*
G01*
X133420000Y-94028500D01*
G75*
G02*
X133510000Y-93938500I90000J0D01*
G01*
X133690000Y-93938500D01*
G75*
G02*
X133780000Y-94028500I0J-90000D01*
G01*
X133780000Y-94306500D01*
G75*
G02*
X133690000Y-94396500I-90000J0D01*
G01*
G37*
G36*
G01*
X133690000Y-95261500D02*
X133510000Y-95261500D01*
G75*
G02*
X133420000Y-95171500I0J90000D01*
G01*
X133420000Y-94893500D01*
G75*
G02*
X133510000Y-94803500I90000J0D01*
G01*
X133690000Y-94803500D01*
G75*
G02*
X133780000Y-94893500I0J-90000D01*
G01*
X133780000Y-95171500D01*
G75*
G02*
X133690000Y-95261500I-90000J0D01*
G01*
G37*
G36*
G01*
X158090000Y-94396500D02*
X157910000Y-94396500D01*
G75*
G02*
X157820000Y-94306500I0J90000D01*
G01*
X157820000Y-94028500D01*
G75*
G02*
X157910000Y-93938500I90000J0D01*
G01*
X158090000Y-93938500D01*
G75*
G02*
X158180000Y-94028500I0J-90000D01*
G01*
X158180000Y-94306500D01*
G75*
G02*
X158090000Y-94396500I-90000J0D01*
G01*
G37*
G36*
G01*
X158090000Y-95261500D02*
X157910000Y-95261500D01*
G75*
G02*
X157820000Y-95171500I0J90000D01*
G01*
X157820000Y-94893500D01*
G75*
G02*
X157910000Y-94803500I90000J0D01*
G01*
X158090000Y-94803500D01*
G75*
G02*
X158180000Y-94893500I0J-90000D01*
G01*
X158180000Y-95171500D01*
G75*
G02*
X158090000Y-95261500I-90000J0D01*
G01*
G37*
G36*
G01*
X146296500Y-87110000D02*
X146296500Y-87290000D01*
G75*
G02*
X146206500Y-87380000I-90000J0D01*
G01*
X145928500Y-87380000D01*
G75*
G02*
X145838500Y-87290000I0J90000D01*
G01*
X145838500Y-87110000D01*
G75*
G02*
X145928500Y-87020000I90000J0D01*
G01*
X146206500Y-87020000D01*
G75*
G02*
X146296500Y-87110000I0J-90000D01*
G01*
G37*
G36*
G01*
X147161500Y-87110000D02*
X147161500Y-87290000D01*
G75*
G02*
X147071500Y-87380000I-90000J0D01*
G01*
X146793500Y-87380000D01*
G75*
G02*
X146703500Y-87290000I0J90000D01*
G01*
X146703500Y-87110000D01*
G75*
G02*
X146793500Y-87020000I90000J0D01*
G01*
X147071500Y-87020000D01*
G75*
G02*
X147161500Y-87110000I0J-90000D01*
G01*
G37*
G36*
G01*
X132390000Y-90599000D02*
X132210000Y-90599000D01*
G75*
G02*
X132120000Y-90509000I0J90000D01*
G01*
X132120000Y-90231000D01*
G75*
G02*
X132210000Y-90141000I90000J0D01*
G01*
X132390000Y-90141000D01*
G75*
G02*
X132480000Y-90231000I0J-90000D01*
G01*
X132480000Y-90509000D01*
G75*
G02*
X132390000Y-90599000I-90000J0D01*
G01*
G37*
G36*
G01*
X132390000Y-91464000D02*
X132210000Y-91464000D01*
G75*
G02*
X132120000Y-91374000I0J90000D01*
G01*
X132120000Y-91096000D01*
G75*
G02*
X132210000Y-91006000I90000J0D01*
G01*
X132390000Y-91006000D01*
G75*
G02*
X132480000Y-91096000I0J-90000D01*
G01*
X132480000Y-91374000D01*
G75*
G02*
X132390000Y-91464000I-90000J0D01*
G01*
G37*
D18*
X152700000Y-114100000D03*
X152700000Y-118100000D03*
G36*
G01*
X138375000Y-101950000D02*
X137925000Y-101950000D01*
G75*
G02*
X137800000Y-101825000I0J125000D01*
G01*
X137800000Y-101575000D01*
G75*
G02*
X137925000Y-101450000I125000J0D01*
G01*
X138375000Y-101450000D01*
G75*
G02*
X138500000Y-101575000I0J-125000D01*
G01*
X138500000Y-101825000D01*
G75*
G02*
X138375000Y-101950000I-125000J0D01*
G01*
G37*
G36*
G01*
X138375000Y-103950000D02*
X137925000Y-103950000D01*
G75*
G02*
X137800000Y-103825000I0J125000D01*
G01*
X137800000Y-103575000D01*
G75*
G02*
X137925000Y-103450000I125000J0D01*
G01*
X138375000Y-103450000D01*
G75*
G02*
X138500000Y-103575000I0J-125000D01*
G01*
X138500000Y-103825000D01*
G75*
G02*
X138375000Y-103950000I-125000J0D01*
G01*
G37*
G36*
G01*
X138375000Y-105950000D02*
X137925000Y-105950000D01*
G75*
G02*
X137800000Y-105825000I0J125000D01*
G01*
X137800000Y-105575000D01*
G75*
G02*
X137925000Y-105450000I125000J0D01*
G01*
X138375000Y-105450000D01*
G75*
G02*
X138500000Y-105575000I0J-125000D01*
G01*
X138500000Y-105825000D01*
G75*
G02*
X138375000Y-105950000I-125000J0D01*
G01*
G37*
G36*
G01*
X136445000Y-105440000D02*
X136895000Y-105440000D01*
G75*
G02*
X137020000Y-105565000I0J-125000D01*
G01*
X137020000Y-105815000D01*
G75*
G02*
X136895000Y-105940000I-125000J0D01*
G01*
X136445000Y-105940000D01*
G75*
G02*
X136320000Y-105815000I0J125000D01*
G01*
X136320000Y-105565000D01*
G75*
G02*
X136445000Y-105440000I125000J0D01*
G01*
G37*
G36*
G01*
X136445000Y-103440000D02*
X136895000Y-103440000D01*
G75*
G02*
X137020000Y-103565000I0J-125000D01*
G01*
X137020000Y-103815000D01*
G75*
G02*
X136895000Y-103940000I-125000J0D01*
G01*
X136445000Y-103940000D01*
G75*
G02*
X136320000Y-103815000I0J125000D01*
G01*
X136320000Y-103565000D01*
G75*
G02*
X136445000Y-103440000I125000J0D01*
G01*
G37*
G36*
G01*
X136445000Y-101440000D02*
X136895000Y-101440000D01*
G75*
G02*
X137020000Y-101565000I0J-125000D01*
G01*
X137020000Y-101815000D01*
G75*
G02*
X136895000Y-101940000I-125000J0D01*
G01*
X136445000Y-101940000D01*
G75*
G02*
X136320000Y-101815000I0J125000D01*
G01*
X136320000Y-101565000D01*
G75*
G02*
X136445000Y-101440000I125000J0D01*
G01*
G37*
G36*
G01*
X138495000Y-133915000D02*
X138495000Y-133465000D01*
G75*
G02*
X138620000Y-133340000I125000J0D01*
G01*
X138870000Y-133340000D01*
G75*
G02*
X138995000Y-133465000I0J-125000D01*
G01*
X138995000Y-133915000D01*
G75*
G02*
X138870000Y-134040000I-125000J0D01*
G01*
X138620000Y-134040000D01*
G75*
G02*
X138495000Y-133915000I0J125000D01*
G01*
G37*
G36*
G01*
X140495000Y-133915000D02*
X140495000Y-133465000D01*
G75*
G02*
X140620000Y-133340000I125000J0D01*
G01*
X140870000Y-133340000D01*
G75*
G02*
X140995000Y-133465000I0J-125000D01*
G01*
X140995000Y-133915000D01*
G75*
G02*
X140870000Y-134040000I-125000J0D01*
G01*
X140620000Y-134040000D01*
G75*
G02*
X140495000Y-133915000I0J125000D01*
G01*
G37*
G36*
G01*
X142495000Y-133915000D02*
X142495000Y-133465000D01*
G75*
G02*
X142620000Y-133340000I125000J0D01*
G01*
X142870000Y-133340000D01*
G75*
G02*
X142995000Y-133465000I0J-125000D01*
G01*
X142995000Y-133915000D01*
G75*
G02*
X142870000Y-134040000I-125000J0D01*
G01*
X142620000Y-134040000D01*
G75*
G02*
X142495000Y-133915000I0J125000D01*
G01*
G37*
G36*
G01*
X154075000Y-101950000D02*
X153625000Y-101950000D01*
G75*
G02*
X153500000Y-101825000I0J125000D01*
G01*
X153500000Y-101575000D01*
G75*
G02*
X153625000Y-101450000I125000J0D01*
G01*
X154075000Y-101450000D01*
G75*
G02*
X154200000Y-101575000I0J-125000D01*
G01*
X154200000Y-101825000D01*
G75*
G02*
X154075000Y-101950000I-125000J0D01*
G01*
G37*
G36*
G01*
X154075000Y-103950000D02*
X153625000Y-103950000D01*
G75*
G02*
X153500000Y-103825000I0J125000D01*
G01*
X153500000Y-103575000D01*
G75*
G02*
X153625000Y-103450000I125000J0D01*
G01*
X154075000Y-103450000D01*
G75*
G02*
X154200000Y-103575000I0J-125000D01*
G01*
X154200000Y-103825000D01*
G75*
G02*
X154075000Y-103950000I-125000J0D01*
G01*
G37*
G36*
G01*
X154075000Y-105950000D02*
X153625000Y-105950000D01*
G75*
G02*
X153500000Y-105825000I0J125000D01*
G01*
X153500000Y-105575000D01*
G75*
G02*
X153625000Y-105450000I125000J0D01*
G01*
X154075000Y-105450000D01*
G75*
G02*
X154200000Y-105575000I0J-125000D01*
G01*
X154200000Y-105825000D01*
G75*
G02*
X154075000Y-105950000I-125000J0D01*
G01*
G37*
G36*
G01*
X151500000Y-133915000D02*
X151500000Y-133465000D01*
G75*
G02*
X151625000Y-133340000I125000J0D01*
G01*
X151875000Y-133340000D01*
G75*
G02*
X152000000Y-133465000I0J-125000D01*
G01*
X152000000Y-133915000D01*
G75*
G02*
X151875000Y-134040000I-125000J0D01*
G01*
X151625000Y-134040000D01*
G75*
G02*
X151500000Y-133915000I0J125000D01*
G01*
G37*
G36*
G01*
X149500000Y-133915000D02*
X149500000Y-133465000D01*
G75*
G02*
X149625000Y-133340000I125000J0D01*
G01*
X149875000Y-133340000D01*
G75*
G02*
X150000000Y-133465000I0J-125000D01*
G01*
X150000000Y-133915000D01*
G75*
G02*
X149875000Y-134040000I-125000J0D01*
G01*
X149625000Y-134040000D01*
G75*
G02*
X149500000Y-133915000I0J125000D01*
G01*
G37*
G36*
G01*
X147500000Y-133915000D02*
X147500000Y-133465000D01*
G75*
G02*
X147625000Y-133340000I125000J0D01*
G01*
X147875000Y-133340000D01*
G75*
G02*
X148000000Y-133465000I0J-125000D01*
G01*
X148000000Y-133915000D01*
G75*
G02*
X147875000Y-134040000I-125000J0D01*
G01*
X147625000Y-134040000D01*
G75*
G02*
X147500000Y-133915000I0J125000D01*
G01*
G37*
G36*
G01*
X152125000Y-105450000D02*
X152575000Y-105450000D01*
G75*
G02*
X152700000Y-105575000I0J-125000D01*
G01*
X152700000Y-105825000D01*
G75*
G02*
X152575000Y-105950000I-125000J0D01*
G01*
X152125000Y-105950000D01*
G75*
G02*
X152000000Y-105825000I0J125000D01*
G01*
X152000000Y-105575000D01*
G75*
G02*
X152125000Y-105450000I125000J0D01*
G01*
G37*
G36*
G01*
X152125000Y-103450000D02*
X152575000Y-103450000D01*
G75*
G02*
X152700000Y-103575000I0J-125000D01*
G01*
X152700000Y-103825000D01*
G75*
G02*
X152575000Y-103950000I-125000J0D01*
G01*
X152125000Y-103950000D01*
G75*
G02*
X152000000Y-103825000I0J125000D01*
G01*
X152000000Y-103575000D01*
G75*
G02*
X152125000Y-103450000I125000J0D01*
G01*
G37*
G36*
G01*
X152125000Y-101450000D02*
X152575000Y-101450000D01*
G75*
G02*
X152700000Y-101575000I0J-125000D01*
G01*
X152700000Y-101825000D01*
G75*
G02*
X152575000Y-101950000I-125000J0D01*
G01*
X152125000Y-101950000D01*
G75*
G02*
X152000000Y-101825000I0J125000D01*
G01*
X152000000Y-101575000D01*
G75*
G02*
X152125000Y-101450000I125000J0D01*
G01*
G37*
G36*
G01*
X154140000Y-120945000D02*
X154460000Y-120945000D01*
G75*
G02*
X154620000Y-121105000I0J-160000D01*
G01*
X154620000Y-121550000D01*
G75*
G02*
X154460000Y-121710000I-160000J0D01*
G01*
X154140000Y-121710000D01*
G75*
G02*
X153980000Y-121550000I0J160000D01*
G01*
X153980000Y-121105000D01*
G75*
G02*
X154140000Y-120945000I160000J0D01*
G01*
G37*
G36*
G01*
X154140000Y-122090000D02*
X154460000Y-122090000D01*
G75*
G02*
X154620000Y-122250000I0J-160000D01*
G01*
X154620000Y-122695000D01*
G75*
G02*
X154460000Y-122855000I-160000J0D01*
G01*
X154140000Y-122855000D01*
G75*
G02*
X153980000Y-122695000I0J160000D01*
G01*
X153980000Y-122250000D01*
G75*
G02*
X154140000Y-122090000I160000J0D01*
G01*
G37*
G36*
G01*
X158180000Y-122090000D02*
X158500000Y-122090000D01*
G75*
G02*
X158660000Y-122250000I0J-160000D01*
G01*
X158660000Y-122695000D01*
G75*
G02*
X158500000Y-122855000I-160000J0D01*
G01*
X158180000Y-122855000D01*
G75*
G02*
X158020000Y-122695000I0J160000D01*
G01*
X158020000Y-122250000D01*
G75*
G02*
X158180000Y-122090000I160000J0D01*
G01*
G37*
G36*
G01*
X158180000Y-120945000D02*
X158500000Y-120945000D01*
G75*
G02*
X158660000Y-121105000I0J-160000D01*
G01*
X158660000Y-121550000D01*
G75*
G02*
X158500000Y-121710000I-160000J0D01*
G01*
X158180000Y-121710000D01*
G75*
G02*
X158020000Y-121550000I0J160000D01*
G01*
X158020000Y-121105000D01*
G75*
G02*
X158180000Y-120945000I160000J0D01*
G01*
G37*
G36*
G01*
X125760000Y-114910000D02*
X125440000Y-114910000D01*
G75*
G02*
X125280000Y-114750000I0J160000D01*
G01*
X125280000Y-114305000D01*
G75*
G02*
X125440000Y-114145000I160000J0D01*
G01*
X125760000Y-114145000D01*
G75*
G02*
X125920000Y-114305000I0J-160000D01*
G01*
X125920000Y-114750000D01*
G75*
G02*
X125760000Y-114910000I-160000J0D01*
G01*
G37*
G36*
G01*
X125760000Y-116055000D02*
X125440000Y-116055000D01*
G75*
G02*
X125280000Y-115895000I0J160000D01*
G01*
X125280000Y-115450000D01*
G75*
G02*
X125440000Y-115290000I160000J0D01*
G01*
X125760000Y-115290000D01*
G75*
G02*
X125920000Y-115450000I0J-160000D01*
G01*
X125920000Y-115895000D01*
G75*
G02*
X125760000Y-116055000I-160000J0D01*
G01*
G37*
G36*
G01*
X150732500Y-102655000D02*
X150732500Y-102345000D01*
G75*
G02*
X150887500Y-102190000I155000J0D01*
G01*
X151312500Y-102190000D01*
G75*
G02*
X151467500Y-102345000I0J-155000D01*
G01*
X151467500Y-102655000D01*
G75*
G02*
X151312500Y-102810000I-155000J0D01*
G01*
X150887500Y-102810000D01*
G75*
G02*
X150732500Y-102655000I0J155000D01*
G01*
G37*
G36*
G01*
X149597500Y-102655000D02*
X149597500Y-102345000D01*
G75*
G02*
X149752500Y-102190000I155000J0D01*
G01*
X150177500Y-102190000D01*
G75*
G02*
X150332500Y-102345000I0J-155000D01*
G01*
X150332500Y-102655000D01*
G75*
G02*
X150177500Y-102810000I-155000J0D01*
G01*
X149752500Y-102810000D01*
G75*
G02*
X149597500Y-102655000I0J155000D01*
G01*
G37*
G36*
G01*
X136204000Y-92810000D02*
X136204000Y-92990000D01*
G75*
G02*
X136114000Y-93080000I-90000J0D01*
G01*
X135836000Y-93080000D01*
G75*
G02*
X135746000Y-92990000I0J90000D01*
G01*
X135746000Y-92810000D01*
G75*
G02*
X135836000Y-92720000I90000J0D01*
G01*
X136114000Y-92720000D01*
G75*
G02*
X136204000Y-92810000I0J-90000D01*
G01*
G37*
G36*
G01*
X137069000Y-92810000D02*
X137069000Y-92990000D01*
G75*
G02*
X136979000Y-93080000I-90000J0D01*
G01*
X136701000Y-93080000D01*
G75*
G02*
X136611000Y-92990000I0J90000D01*
G01*
X136611000Y-92810000D01*
G75*
G02*
X136701000Y-92720000I90000J0D01*
G01*
X136979000Y-92720000D01*
G75*
G02*
X137069000Y-92810000I0J-90000D01*
G01*
G37*
G36*
G01*
X150911000Y-100490000D02*
X150911000Y-100310000D01*
G75*
G02*
X151001000Y-100220000I90000J0D01*
G01*
X151279000Y-100220000D01*
G75*
G02*
X151369000Y-100310000I0J-90000D01*
G01*
X151369000Y-100490000D01*
G75*
G02*
X151279000Y-100580000I-90000J0D01*
G01*
X151001000Y-100580000D01*
G75*
G02*
X150911000Y-100490000I0J90000D01*
G01*
G37*
G36*
G01*
X150046000Y-100490000D02*
X150046000Y-100310000D01*
G75*
G02*
X150136000Y-100220000I90000J0D01*
G01*
X150414000Y-100220000D01*
G75*
G02*
X150504000Y-100310000I0J-90000D01*
G01*
X150504000Y-100490000D01*
G75*
G02*
X150414000Y-100580000I-90000J0D01*
G01*
X150136000Y-100580000D01*
G75*
G02*
X150046000Y-100490000I0J90000D01*
G01*
G37*
G36*
G01*
X150903500Y-101290000D02*
X150903500Y-101110000D01*
G75*
G02*
X150993500Y-101020000I90000J0D01*
G01*
X151271500Y-101020000D01*
G75*
G02*
X151361500Y-101110000I0J-90000D01*
G01*
X151361500Y-101290000D01*
G75*
G02*
X151271500Y-101380000I-90000J0D01*
G01*
X150993500Y-101380000D01*
G75*
G02*
X150903500Y-101290000I0J90000D01*
G01*
G37*
G36*
G01*
X150038500Y-101290000D02*
X150038500Y-101110000D01*
G75*
G02*
X150128500Y-101020000I90000J0D01*
G01*
X150406500Y-101020000D01*
G75*
G02*
X150496500Y-101110000I0J-90000D01*
G01*
X150496500Y-101290000D01*
G75*
G02*
X150406500Y-101380000I-90000J0D01*
G01*
X150128500Y-101380000D01*
G75*
G02*
X150038500Y-101290000I0J90000D01*
G01*
G37*
G36*
G01*
X152867500Y-93255000D02*
X152867500Y-92945000D01*
G75*
G02*
X153022500Y-92790000I155000J0D01*
G01*
X153447500Y-92790000D01*
G75*
G02*
X153602500Y-92945000I0J-155000D01*
G01*
X153602500Y-93255000D01*
G75*
G02*
X153447500Y-93410000I-155000J0D01*
G01*
X153022500Y-93410000D01*
G75*
G02*
X152867500Y-93255000I0J155000D01*
G01*
G37*
G36*
G01*
X151732500Y-93255000D02*
X151732500Y-92945000D01*
G75*
G02*
X151887500Y-92790000I155000J0D01*
G01*
X152312500Y-92790000D01*
G75*
G02*
X152467500Y-92945000I0J-155000D01*
G01*
X152467500Y-93255000D01*
G75*
G02*
X152312500Y-93410000I-155000J0D01*
G01*
X151887500Y-93410000D01*
G75*
G02*
X151732500Y-93255000I0J155000D01*
G01*
G37*
G36*
G01*
X135967500Y-93645000D02*
X135967500Y-93955000D01*
G75*
G02*
X135812500Y-94110000I-155000J0D01*
G01*
X135387500Y-94110000D01*
G75*
G02*
X135232500Y-93955000I0J155000D01*
G01*
X135232500Y-93645000D01*
G75*
G02*
X135387500Y-93490000I155000J0D01*
G01*
X135812500Y-93490000D01*
G75*
G02*
X135967500Y-93645000I0J-155000D01*
G01*
G37*
G36*
G01*
X137102500Y-93645000D02*
X137102500Y-93955000D01*
G75*
G02*
X136947500Y-94110000I-155000J0D01*
G01*
X136522500Y-94110000D01*
G75*
G02*
X136367500Y-93955000I0J155000D01*
G01*
X136367500Y-93645000D01*
G75*
G02*
X136522500Y-93490000I155000J0D01*
G01*
X136947500Y-93490000D01*
G75*
G02*
X137102500Y-93645000I0J-155000D01*
G01*
G37*
G36*
G01*
X159595000Y-112846500D02*
X159415000Y-112846500D01*
G75*
G02*
X159325000Y-112756500I0J90000D01*
G01*
X159325000Y-112478500D01*
G75*
G02*
X159415000Y-112388500I90000J0D01*
G01*
X159595000Y-112388500D01*
G75*
G02*
X159685000Y-112478500I0J-90000D01*
G01*
X159685000Y-112756500D01*
G75*
G02*
X159595000Y-112846500I-90000J0D01*
G01*
G37*
G36*
G01*
X159595000Y-113711500D02*
X159415000Y-113711500D01*
G75*
G02*
X159325000Y-113621500I0J90000D01*
G01*
X159325000Y-113343500D01*
G75*
G02*
X159415000Y-113253500I90000J0D01*
G01*
X159595000Y-113253500D01*
G75*
G02*
X159685000Y-113343500I0J-90000D01*
G01*
X159685000Y-113621500D01*
G75*
G02*
X159595000Y-113711500I-90000J0D01*
G01*
G37*
G36*
G01*
X158200000Y-89953500D02*
X158380000Y-89953500D01*
G75*
G02*
X158470000Y-90043500I0J-90000D01*
G01*
X158470000Y-90321500D01*
G75*
G02*
X158380000Y-90411500I-90000J0D01*
G01*
X158200000Y-90411500D01*
G75*
G02*
X158110000Y-90321500I0J90000D01*
G01*
X158110000Y-90043500D01*
G75*
G02*
X158200000Y-89953500I90000J0D01*
G01*
G37*
G36*
G01*
X158200000Y-89088500D02*
X158380000Y-89088500D01*
G75*
G02*
X158470000Y-89178500I0J-90000D01*
G01*
X158470000Y-89456500D01*
G75*
G02*
X158380000Y-89546500I-90000J0D01*
G01*
X158200000Y-89546500D01*
G75*
G02*
X158110000Y-89456500I0J90000D01*
G01*
X158110000Y-89178500D01*
G75*
G02*
X158200000Y-89088500I90000J0D01*
G01*
G37*
G36*
G01*
X138590000Y-115256500D02*
X138410000Y-115256500D01*
G75*
G02*
X138320000Y-115166500I0J90000D01*
G01*
X138320000Y-114888500D01*
G75*
G02*
X138410000Y-114798500I90000J0D01*
G01*
X138590000Y-114798500D01*
G75*
G02*
X138680000Y-114888500I0J-90000D01*
G01*
X138680000Y-115166500D01*
G75*
G02*
X138590000Y-115256500I-90000J0D01*
G01*
G37*
G36*
G01*
X138590000Y-116121500D02*
X138410000Y-116121500D01*
G75*
G02*
X138320000Y-116031500I0J90000D01*
G01*
X138320000Y-115753500D01*
G75*
G02*
X138410000Y-115663500I90000J0D01*
G01*
X138590000Y-115663500D01*
G75*
G02*
X138680000Y-115753500I0J-90000D01*
G01*
X138680000Y-116031500D01*
G75*
G02*
X138590000Y-116121500I-90000J0D01*
G01*
G37*
G36*
G01*
X145755000Y-117200000D02*
X145445000Y-117200000D01*
G75*
G02*
X145290000Y-117045000I0J155000D01*
G01*
X145290000Y-116620000D01*
G75*
G02*
X145445000Y-116465000I155000J0D01*
G01*
X145755000Y-116465000D01*
G75*
G02*
X145910000Y-116620000I0J-155000D01*
G01*
X145910000Y-117045000D01*
G75*
G02*
X145755000Y-117200000I-155000J0D01*
G01*
G37*
G36*
G01*
X145755000Y-118335000D02*
X145445000Y-118335000D01*
G75*
G02*
X145290000Y-118180000I0J155000D01*
G01*
X145290000Y-117755000D01*
G75*
G02*
X145445000Y-117600000I155000J0D01*
G01*
X145755000Y-117600000D01*
G75*
G02*
X145910000Y-117755000I0J-155000D01*
G01*
X145910000Y-118180000D01*
G75*
G02*
X145755000Y-118335000I-155000J0D01*
G01*
G37*
G36*
G01*
X140490000Y-117396500D02*
X140310000Y-117396500D01*
G75*
G02*
X140220000Y-117306500I0J90000D01*
G01*
X140220000Y-117028500D01*
G75*
G02*
X140310000Y-116938500I90000J0D01*
G01*
X140490000Y-116938500D01*
G75*
G02*
X140580000Y-117028500I0J-90000D01*
G01*
X140580000Y-117306500D01*
G75*
G02*
X140490000Y-117396500I-90000J0D01*
G01*
G37*
G36*
G01*
X140490000Y-118261500D02*
X140310000Y-118261500D01*
G75*
G02*
X140220000Y-118171500I0J90000D01*
G01*
X140220000Y-117893500D01*
G75*
G02*
X140310000Y-117803500I90000J0D01*
G01*
X140490000Y-117803500D01*
G75*
G02*
X140580000Y-117893500I0J-90000D01*
G01*
X140580000Y-118171500D01*
G75*
G02*
X140490000Y-118261500I-90000J0D01*
G01*
G37*
G36*
G01*
X145310000Y-115403500D02*
X145490000Y-115403500D01*
G75*
G02*
X145580000Y-115493500I0J-90000D01*
G01*
X145580000Y-115771500D01*
G75*
G02*
X145490000Y-115861500I-90000J0D01*
G01*
X145310000Y-115861500D01*
G75*
G02*
X145220000Y-115771500I0J90000D01*
G01*
X145220000Y-115493500D01*
G75*
G02*
X145310000Y-115403500I90000J0D01*
G01*
G37*
G36*
G01*
X145310000Y-114538500D02*
X145490000Y-114538500D01*
G75*
G02*
X145580000Y-114628500I0J-90000D01*
G01*
X145580000Y-114906500D01*
G75*
G02*
X145490000Y-114996500I-90000J0D01*
G01*
X145310000Y-114996500D01*
G75*
G02*
X145220000Y-114906500I0J90000D01*
G01*
X145220000Y-114628500D01*
G75*
G02*
X145310000Y-114538500I90000J0D01*
G01*
G37*
G36*
G01*
X141990000Y-108496500D02*
X141810000Y-108496500D01*
G75*
G02*
X141720000Y-108406500I0J90000D01*
G01*
X141720000Y-108128500D01*
G75*
G02*
X141810000Y-108038500I90000J0D01*
G01*
X141990000Y-108038500D01*
G75*
G02*
X142080000Y-108128500I0J-90000D01*
G01*
X142080000Y-108406500D01*
G75*
G02*
X141990000Y-108496500I-90000J0D01*
G01*
G37*
G36*
G01*
X141990000Y-109361500D02*
X141810000Y-109361500D01*
G75*
G02*
X141720000Y-109271500I0J90000D01*
G01*
X141720000Y-108993500D01*
G75*
G02*
X141810000Y-108903500I90000J0D01*
G01*
X141990000Y-108903500D01*
G75*
G02*
X142080000Y-108993500I0J-90000D01*
G01*
X142080000Y-109271500D01*
G75*
G02*
X141990000Y-109361500I-90000J0D01*
G01*
G37*
G36*
G01*
X141910000Y-112003500D02*
X142090000Y-112003500D01*
G75*
G02*
X142180000Y-112093500I0J-90000D01*
G01*
X142180000Y-112371500D01*
G75*
G02*
X142090000Y-112461500I-90000J0D01*
G01*
X141910000Y-112461500D01*
G75*
G02*
X141820000Y-112371500I0J90000D01*
G01*
X141820000Y-112093500D01*
G75*
G02*
X141910000Y-112003500I90000J0D01*
G01*
G37*
G36*
G01*
X141910000Y-111138500D02*
X142090000Y-111138500D01*
G75*
G02*
X142180000Y-111228500I0J-90000D01*
G01*
X142180000Y-111506500D01*
G75*
G02*
X142090000Y-111596500I-90000J0D01*
G01*
X141910000Y-111596500D01*
G75*
G02*
X141820000Y-111506500I0J90000D01*
G01*
X141820000Y-111228500D01*
G75*
G02*
X141910000Y-111138500I90000J0D01*
G01*
G37*
G36*
G01*
X138230000Y-89943500D02*
X138410000Y-89943500D01*
G75*
G02*
X138500000Y-90033500I0J-90000D01*
G01*
X138500000Y-90311500D01*
G75*
G02*
X138410000Y-90401500I-90000J0D01*
G01*
X138230000Y-90401500D01*
G75*
G02*
X138140000Y-90311500I0J90000D01*
G01*
X138140000Y-90033500D01*
G75*
G02*
X138230000Y-89943500I90000J0D01*
G01*
G37*
G36*
G01*
X138230000Y-89078500D02*
X138410000Y-89078500D01*
G75*
G02*
X138500000Y-89168500I0J-90000D01*
G01*
X138500000Y-89446500D01*
G75*
G02*
X138410000Y-89536500I-90000J0D01*
G01*
X138230000Y-89536500D01*
G75*
G02*
X138140000Y-89446500I0J90000D01*
G01*
X138140000Y-89168500D01*
G75*
G02*
X138230000Y-89078500I90000J0D01*
G01*
G37*
G36*
G01*
X147738500Y-103190000D02*
X147738500Y-103010000D01*
G75*
G02*
X147828500Y-102920000I90000J0D01*
G01*
X148106500Y-102920000D01*
G75*
G02*
X148196500Y-103010000I0J-90000D01*
G01*
X148196500Y-103190000D01*
G75*
G02*
X148106500Y-103280000I-90000J0D01*
G01*
X147828500Y-103280000D01*
G75*
G02*
X147738500Y-103190000I0J90000D01*
G01*
G37*
G36*
G01*
X148603500Y-103190000D02*
X148603500Y-103010000D01*
G75*
G02*
X148693500Y-102920000I90000J0D01*
G01*
X148971500Y-102920000D01*
G75*
G02*
X149061500Y-103010000I0J-90000D01*
G01*
X149061500Y-103190000D01*
G75*
G02*
X148971500Y-103280000I-90000J0D01*
G01*
X148693500Y-103280000D01*
G75*
G02*
X148603500Y-103190000I0J90000D01*
G01*
G37*
G36*
G01*
X141561500Y-103610000D02*
X141561500Y-103790000D01*
G75*
G02*
X141471500Y-103880000I-90000J0D01*
G01*
X141193500Y-103880000D01*
G75*
G02*
X141103500Y-103790000I0J90000D01*
G01*
X141103500Y-103610000D01*
G75*
G02*
X141193500Y-103520000I90000J0D01*
G01*
X141471500Y-103520000D01*
G75*
G02*
X141561500Y-103610000I0J-90000D01*
G01*
G37*
G36*
G01*
X140696500Y-103610000D02*
X140696500Y-103790000D01*
G75*
G02*
X140606500Y-103880000I-90000J0D01*
G01*
X140328500Y-103880000D01*
G75*
G02*
X140238500Y-103790000I0J90000D01*
G01*
X140238500Y-103610000D01*
G75*
G02*
X140328500Y-103520000I90000J0D01*
G01*
X140606500Y-103520000D01*
G75*
G02*
X140696500Y-103610000I0J-90000D01*
G01*
G37*
G36*
G01*
X140500000Y-102645000D02*
X140500000Y-102955000D01*
G75*
G02*
X140345000Y-103110000I-155000J0D01*
G01*
X139920000Y-103110000D01*
G75*
G02*
X139765000Y-102955000I0J155000D01*
G01*
X139765000Y-102645000D01*
G75*
G02*
X139920000Y-102490000I155000J0D01*
G01*
X140345000Y-102490000D01*
G75*
G02*
X140500000Y-102645000I0J-155000D01*
G01*
G37*
G36*
G01*
X141635000Y-102645000D02*
X141635000Y-102955000D01*
G75*
G02*
X141480000Y-103110000I-155000J0D01*
G01*
X141055000Y-103110000D01*
G75*
G02*
X140900000Y-102955000I0J155000D01*
G01*
X140900000Y-102645000D01*
G75*
G02*
X141055000Y-102490000I155000J0D01*
G01*
X141480000Y-102490000D01*
G75*
G02*
X141635000Y-102645000I0J-155000D01*
G01*
G37*
M02*
